<?xml version="1.0" standalone="no"?>
<!DOCTYPE svg PUBLIC "-//W3C//DTD SVG 1.1//EN" "http://www.w3.org/Graphics/SVG/1.1/DTD/svg11.dtd" >
<svg xmlns="http://www.w3.org/2000/svg" xmlns:xlink="http://www.w3.org/1999/xlink" version="1.1">
<metadata>
Created by FontForge 20170910 at Fri Oct 21 19:40:16 2016
 By Jimmy Wärting
Copyright \(c\) 2016 by Alberto Romanos. All rights reserved.
</metadata>
<defs>
<font id="BwModelica-Medium" horiz-adv-x="615" >
  <font-face 
    font-family="Bw Modelica Medium"
    font-weight="600"
    font-stretch="normal"
    units-per-em="1000"
    panose-1="0 0 7 0 0 0 0 0 0 0"
    ascent="780"
    descent="-220"
    x-height="534"
    cap-height="740"
    bbox="-866 -230 1234 1020"
    underline-thickness="50"
    underline-position="-100"
    stemh="84"
    stemv="102"
    unicode-range="U+000D-FB02"
  />
<missing-glyph horiz-adv-x="1274" 
d="M90 -10c-10 0 -17 8 -17 18c0 5 1 11 5 15l342 341h-324c-10 0 -23 2 -23 19c0 7 3 11 7 16l340 342h-327c-12 0 -20 7 -20 19v1c0 12 8 19 20 19h370c10 0 23 -1 23 -20c0 -6 -2 -12 -8 -17l-341 -340h330c11 0 20 -9 20 -20v-327l339 338c5 6 11 8 17 8
c17 0 18 -13 18 -22v-324l340 338c4 5 10 8 16 8c10 0 17 -9 17 -19c0 -4 -1 -10 -6 -14l-368 -372c-6 -6 -11 -7 -17 -7c-19 0 -20 13 -20 23v324l-339 -340c-6 -6 -11 -7 -17 -7c-19 0 -20 13 -20 23v324l-340 -340c-6 -6 -11 -7 -17 -7z" />
    <glyph glyph-name="fi" unicode="fi" horiz-adv-x="645" 
d="M113 632c0 95 65 158 163 158c43 0 83 -6 113 -21l-8 -80c-21 10 -45 13 -74 13c-55 0 -92 -34 -92 -86v-82h162v-84h-162v-450h-102v450h-90v84h90v98zM518 645c-37 0 -64 27 -64 64s27 64 64 64c36 0 63 -27 63 -64s-27 -64 -63 -64zM467 0v534h102v-534h-102z" />
    <glyph glyph-name="fl" unicode="fl" horiz-adv-x="648" 
d="M113 632c0 95 65 158 163 158c43 0 83 -6 113 -21l-8 -80c-21 10 -45 13 -74 13c-55 0 -92 -34 -92 -86v-82h162v-84h-162v-450h-102v450h-90v84h90v98zM468 780h102v-780h-102v780z" />
    <glyph glyph-name=".notdef" horiz-adv-x="1274" 
d="M90 -10c-10 0 -17 8 -17 18c0 5 1 11 5 15l342 341h-324c-10 0 -23 2 -23 19c0 7 3 11 7 16l340 342h-327c-12 0 -20 7 -20 19v1c0 12 8 19 20 19h370c10 0 23 -1 23 -20c0 -6 -2 -12 -8 -17l-341 -340h330c11 0 20 -9 20 -20v-327l339 338c5 6 11 8 17 8
c17 0 18 -13 18 -22v-324l340 338c4 5 10 8 16 8c10 0 17 -9 17 -19c0 -4 -1 -10 -6 -14l-368 -372c-6 -6 -11 -7 -17 -7c-19 0 -20 13 -20 23v324l-339 -340c-6 -6 -11 -7 -17 -7c-19 0 -20 13 -20 23v324l-340 -340c-6 -6 -11 -7 -17 -7z" />
    <glyph glyph-name="A" unicode="A" horiz-adv-x="741" 
d="M627 0l-72 172h-368l-73 -172h-114l321 740h99l320 -740h-113zM224 260h294l-147 349z" />
    <glyph glyph-name="Aacute" unicode="&#xc1;" horiz-adv-x="741" 
d="M561 980l-166 -155h-88l133 155h121zM627 0l-72 172h-368l-73 -172h-114l321 740h99l320 -740h-113zM224 260h294l-147 349z" />
    <glyph glyph-name="Abreve" unicode="&#x102;" horiz-adv-x="741" 
d="M371 816c-103 0 -171 65 -171 164h80c0 -62 36 -104 91 -104c54 0 91 42 91 104h79c0 -99 -68 -164 -170 -164zM627 0l-72 172h-368l-73 -172h-114l321 740h99l320 -740h-113zM224 260h294l-147 349z" />
    <glyph glyph-name="Acircumflex" unicode="&#xc2;" horiz-adv-x="741" 
d="M371 923l-84 -98h-96l130 155h100l130 -155h-96zM627 0l-72 172h-368l-73 -172h-114l321 740h99l320 -740h-113zM224 260h294l-147 349z" />
    <glyph glyph-name="Adieresis" unicode="&#xc4;" horiz-adv-x="741" 
d="M260 851c-37 0 -64 27 -64 64s27 64 64 64c36 0 63 -27 63 -64s-27 -64 -63 -64zM483 851c-37 0 -64 27 -64 64s27 64 64 64c36 0 63 -27 63 -64s-27 -64 -63 -64zM627 0l-72 172h-368l-73 -172h-114l321 740h99l320 -740h-113zM224 260h294l-147 349z" />
    <glyph glyph-name="Agrave" unicode="&#xc0;" horiz-adv-x="741" 
d="M435 825h-89l-166 155h122zM627 0l-72 172h-368l-73 -172h-114l321 740h99l320 -740h-113zM224 260h294l-147 349z" />
    <glyph glyph-name="Amacron" unicode="&#x100;" horiz-adv-x="741" 
d="M537 923v-81h-331v81h331zM627 0l-72 172h-368l-73 -172h-114l321 740h99l320 -740h-113zM224 260h294l-147 349z" />
    <glyph glyph-name="Aogonek" unicode="&#x104;" horiz-adv-x="741" 
d="M734 -149l9 -53c-22 -18 -49 -28 -86 -28c-56 0 -93 33 -93 83c0 53 38 104 95 147h-32l-72 172h-368l-73 -172h-114l321 740h99l320 -740c-68 -45 -100 -90 -100 -131c0 -23 16 -39 41 -39c20 0 39 8 53 21zM224 260h294l-147 349z" />
    <glyph glyph-name="Aring" unicode="&#xc5;" horiz-adv-x="741" 
d="M371 790c-68 0 -113 42 -113 107c0 63 45 106 113 106s113 -43 113 -106c0 -65 -45 -107 -113 -107zM371 954c-33 0 -56 -23 -56 -57c0 -35 23 -59 56 -59s55 24 55 59c0 34 -22 57 -55 57zM627 0l-72 172h-368l-73 -172h-114l321 740h99l320 -740h-113zM224 260h294
l-147 349z" />
    <glyph glyph-name="Atilde" unicode="&#xc3;" horiz-adv-x="741" 
d="M290 894c-28 0 -48 -21 -48 -55h-58c0 79 43 130 105 130c68 0 112 -64 161 -64c28 0 48 20 48 54h58c0 -81 -43 -130 -105 -130c-65 0 -112 65 -161 65zM627 0l-72 172h-368l-73 -172h-114l321 740h99l320 -740h-113zM224 260h294l-147 349z" />
    <glyph glyph-name="AE" unicode="&#xc6;" horiz-adv-x="1081" 
d="M697 88h329v-88h-419l-45 172h-356l-99 -172h-120l448 740h582v-88h-474l63 -232h383v-88h-359zM257 260h282l-88 336z" />
    <glyph glyph-name="B" unicode="B" horiz-adv-x="695" 
d="M502 389c91 -26 147 -91 147 -179c0 -126 -99 -210 -248 -210h-306v740h294c134 0 223 -76 223 -191c0 -72 -41 -127 -110 -160zM202 652v-228h163c82 0 137 46 137 114s-56 114 -138 114h-162zM393 88c87 0 145 50 145 124s-58 124 -144 124h-192v-248h191z" />
    <glyph glyph-name="C" unicode="C" horiz-adv-x="763" 
d="M431 -10c-229 0 -383 153 -383 382c0 227 153 378 382 378c121 0 215 -43 285 -120l-67 -68c-47 58 -120 100 -215 100c-165 0 -274 -116 -274 -290c0 -176 110 -294 273 -294c106 0 183 49 233 124l73 -66c-69 -92 -175 -146 -307 -146z" />
    <glyph glyph-name="Cacute" unicode="&#x106;" horiz-adv-x="763" 
d="M357 825l133 155h121l-166 -155h-88zM431 -10c-229 0 -383 153 -383 382c0 227 153 378 382 378c121 0 215 -43 285 -120l-67 -68c-47 58 -120 100 -215 100c-165 0 -274 -116 -274 -290c0 -176 110 -294 273 -294c106 0 183 49 233 124l73 -66
c-69 -92 -175 -146 -307 -146z" />
    <glyph glyph-name="Ccaron" unicode="&#x10c;" horiz-adv-x="763" 
d="M371 825l-130 155h96l84 -98l84 98h96l-130 -155h-100zM665 202l73 -66c-69 -92 -175 -146 -307 -146c-229 0 -383 153 -383 382c0 227 153 378 382 378c121 0 215 -43 285 -120l-67 -68c-47 58 -120 100 -215 100c-165 0 -274 -116 -274 -290c0 -176 110 -294 273 -294
c106 0 183 49 233 124z" />
    <glyph glyph-name="Ccedilla" unicode="&#xc7;" horiz-adv-x="763" 
d="M738 136c-64 -86 -160 -138 -280 -145l-32 -51h6c66 0 108 -33 108 -82c0 -52 -48 -88 -125 -88c-40 0 -76 11 -97 27l20 40c15 -13 39 -21 67 -21c40 0 64 17 64 42c0 24 -24 39 -60 39c-15 0 -29 -3 -42 -8l-14 25l45 77c-211 14 -350 163 -350 381
c0 227 153 378 382 378c121 0 215 -43 285 -120l-67 -68c-47 58 -120 100 -215 100c-165 0 -274 -116 -274 -290c0 -176 110 -294 273 -294c106 0 183 49 233 124z" />
    <glyph glyph-name="Cdotaccent" unicode="&#x10a;" horiz-adv-x="763" 
d="M421 851c-37 0 -64 27 -64 64s27 64 64 64c36 0 63 -27 63 -64s-27 -64 -63 -64zM431 -10c-229 0 -383 153 -383 382c0 227 153 378 382 378c121 0 215 -43 285 -120l-67 -68c-47 58 -120 100 -215 100c-165 0 -274 -116 -274 -290c0 -176 110 -294 273 -294
c106 0 183 49 233 124l73 -66c-69 -92 -175 -146 -307 -146z" />
    <glyph glyph-name="D" unicode="D" horiz-adv-x="775" 
d="M365 740c217 0 361 -148 361 -371c0 -221 -144 -369 -361 -369h-270v740h270zM361 88c153 0 255 113 255 281c0 170 -102 283 -255 283h-159v-564h159z" />
    <glyph glyph-name="Eth" unicode="&#xd0;" horiz-adv-x="775" 
d="M365 740c217 0 361 -148 361 -371c0 -221 -144 -369 -361 -369h-270v334h-81v74h81v332h270zM361 88c153 0 255 113 255 281c0 170 -102 283 -255 283h-159v-244h184v-74h-184v-246h159z" />
    <glyph glyph-name="Dcaron" unicode="&#x10e;" horiz-adv-x="775" 
d="M279 825l-130 155h96l84 -98l84 98h96l-130 -155h-100zM365 740c217 0 361 -148 361 -371c0 -221 -144 -369 -361 -369h-270v740h270zM361 88c153 0 255 113 255 281c0 170 -102 283 -255 283h-159v-564h159z" />
    <glyph glyph-name="Dcroat" unicode="&#x110;" horiz-adv-x="775" 
d="M365 740c217 0 361 -148 361 -371c0 -221 -144 -369 -361 -369h-270v334h-81v74h81v332h270zM361 88c153 0 255 113 255 281c0 170 -102 283 -255 283h-159v-244h184v-74h-184v-246h159z" />
    <glyph glyph-name="E" unicode="E" horiz-adv-x="637" 
d="M202 88h379v-88h-486v740h478v-88h-371v-232h343v-88h-343v-244z" />
    <glyph glyph-name="Eacute" unicode="&#xc9;" horiz-adv-x="637" 
d="M524 980l-166 -155h-88l133 155h121zM202 88h379v-88h-486v740h478v-88h-371v-232h343v-88h-343v-244z" />
    <glyph glyph-name="Ecaron" unicode="&#x11a;" horiz-adv-x="637" 
d="M284 825l-130 155h96l84 -98l84 98h96l-130 -155h-100zM202 88h379v-88h-486v740h478v-88h-371v-232h343v-88h-343v-244z" />
    <glyph glyph-name="Ecircumflex" unicode="&#xca;" horiz-adv-x="637" 
d="M334 923l-84 -98h-96l130 155h100l130 -155h-96zM202 88h379v-88h-486v740h478v-88h-371v-232h343v-88h-343v-244z" />
    <glyph glyph-name="Edieresis" unicode="&#xcb;" horiz-adv-x="637" 
d="M223 851c-37 0 -64 27 -64 64s27 64 64 64c36 0 63 -27 63 -64s-27 -64 -63 -64zM446 851c-37 0 -64 27 -64 64s27 64 64 64c36 0 63 -27 63 -64s-27 -64 -63 -64zM202 88h379v-88h-486v740h478v-88h-371v-232h343v-88h-343v-244z" />
    <glyph glyph-name="Edotaccent" unicode="&#x116;" horiz-adv-x="637" 
d="M334 851c-37 0 -64 27 -64 64s27 64 64 64c36 0 63 -27 63 -64s-27 -64 -63 -64zM202 88h379v-88h-486v740h478v-88h-371v-232h343v-88h-343v-244z" />
    <glyph glyph-name="Egrave" unicode="&#xc8;" horiz-adv-x="637" 
d="M398 825h-89l-166 155h122zM202 88h379v-88h-486v740h478v-88h-371v-232h343v-88h-343v-244z" />
    <glyph glyph-name="Emacron" unicode="&#x112;" horiz-adv-x="637" 
d="M500 923v-81h-331v81h331zM202 88h379v-88h-486v740h478v-88h-371v-232h343v-88h-343v-244z" />
    <glyph glyph-name="Eogonek" unicode="&#x118;" horiz-adv-x="637" 
d="M574 -149l10 -53c-23 -18 -50 -28 -86 -28c-56 0 -94 33 -94 83c0 51 36 100 98 147h-407v740h478v-88h-371v-232h343v-88h-343v-244h379v-88c-68 -45 -101 -90 -101 -131c0 -23 16 -39 41 -39c20 0 39 8 53 21z" />
    <glyph glyph-name="F" unicode="F" horiz-adv-x="571" 
d="M536 652h-334v-252h293v-88h-293v-312h-107v740h441v-88z" />
    <glyph glyph-name="G" unicode="G" horiz-adv-x="806" 
d="M775 404c1 -11 1 -23 1 -34c0 -230 -138 -380 -356 -380c-223 0 -371 152 -371 380s147 380 371 380c102 0 184 -24 254 -79l-70 -67c-46 40 -107 58 -183 58c-157 0 -262 -117 -262 -292s105 -292 262 -292c142 0 235 94 244 238h-215v88h325z" />
    <glyph glyph-name="Gbreve" unicode="&#x11e;" horiz-adv-x="806" 
d="M420 816c-103 0 -171 65 -171 164h80c0 -62 36 -104 91 -104c54 0 91 42 91 104h79c0 -99 -68 -164 -170 -164zM775 404c1 -11 1 -23 1 -34c0 -230 -138 -380 -356 -380c-223 0 -371 152 -371 380s147 380 371 380c102 0 184 -24 254 -79l-70 -67c-46 40 -107 58 -183 58
c-157 0 -262 -117 -262 -292s105 -292 262 -292c142 0 235 94 244 238h-215v88h325z" />
    <glyph glyph-name="Gcommaaccent" unicode="&#x122;" horiz-adv-x="806" 
d="M775 404c1 -11 1 -23 1 -34c0 -230 -138 -380 -356 -380c-223 0 -371 152 -371 380s147 380 371 380c102 0 184 -24 254 -79l-70 -67c-46 40 -107 58 -183 58c-157 0 -262 -117 -262 -292s105 -292 262 -292c142 0 235 94 244 238h-215v88h325zM320 -220l49 168h93
l-64 -168h-78z" />
    <glyph glyph-name="Gdotaccent" unicode="&#x120;" horiz-adv-x="806" 
d="M420 851c-37 0 -64 27 -64 64s27 64 64 64c36 0 63 -27 63 -64s-27 -64 -63 -64zM775 404c1 -11 1 -23 1 -34c0 -230 -138 -380 -356 -380c-223 0 -371 152 -371 380s147 380 371 380c102 0 184 -24 254 -79l-70 -67c-46 40 -107 58 -183 58c-157 0 -262 -117 -262 -292
s105 -292 262 -292c142 0 235 94 244 238h-215v88h325z" />
    <glyph glyph-name="H" unicode="H" horiz-adv-x="831" 
d="M630 740h106v-740h-106v332h-428v-332h-107v740h107v-319h428v319z" />
    <glyph glyph-name="Hbar" unicode="&#x126;" horiz-adv-x="831" 
d="M816 622v-74h-80v-548h-106v332h-428v-332h-107v548h-79v74h79v118h107v-118h428v118h106v-118h80zM630 421v127h-428v-127h428z" />
    <glyph glyph-name="I" unicode="I" horiz-adv-x="297" 
d="M95 0v740h107v-740h-107z" />
    <glyph glyph-name="Iacute" unicode="&#xcd;" horiz-adv-x="297" 
d="M84 825l133 155h121l-166 -155h-88zM95 0v740h107v-740h-107z" />
    <glyph glyph-name="Icircumflex" unicode="&#xce;" horiz-adv-x="297" 
d="M198 980l130 -155h-96l-84 98l-84 -98h-96l130 155h100zM95 0v740h107v-740h-107z" />
    <glyph glyph-name="Idieresis" unicode="&#xcf;" horiz-adv-x="297" 
d="M37 851c-37 0 -64 27 -64 64s27 64 64 64c36 0 63 -27 63 -64s-27 -64 -63 -64zM260 851c-37 0 -64 27 -64 64s27 64 64 64c36 0 63 -27 63 -64s-27 -64 -63 -64zM95 0v740h107v-740h-107z" />
    <glyph glyph-name="Idotaccent" unicode="&#x130;" horiz-adv-x="297" 
d="M148 851c-37 0 -64 27 -64 64s27 64 64 64c36 0 63 -27 63 -64s-27 -64 -63 -64zM95 0v740h107v-740h-107z" />
    <glyph glyph-name="Igrave" unicode="&#xcc;" horiz-adv-x="297" 
d="M123 825l-166 155h122l133 -155h-89zM95 0v740h107v-740h-107z" />
    <glyph glyph-name="Imacron" unicode="&#x12a;" horiz-adv-x="297" 
d="M-17 842v81h331v-81h-331zM95 0v740h107v-740h-107z" />
    <glyph glyph-name="Iogonek" unicode="&#x12e;" horiz-adv-x="297" 
d="M195 -149l10 -53c-23 -18 -50 -28 -86 -28c-56 0 -94 33 -94 83c0 51 36 100 98 147h-28v740h107v-740c-68 -45 -101 -90 -101 -131c0 -23 16 -39 41 -39c20 0 39 8 53 21z" />
    <glyph glyph-name="J" unicode="J" horiz-adv-x="417" 
d="M147 -10c-58 0 -108 19 -140 56l28 71c26 -26 60 -39 93 -39c58 0 93 38 93 93v569h106v-588c0 -98 -72 -162 -180 -162z" />
    <glyph glyph-name="K" unicode="K" horiz-adv-x="691" 
d="M562 0l-257 334h-103v-334h-107v740h107v-317h102l247 317h128l-284 -360l295 -380h-128z" />
    <glyph glyph-name="Kcommaaccent" unicode="&#x136;" horiz-adv-x="691" 
d="M395 380l295 -380h-128l-257 334h-103v-334h-107v740h107v-317h102l247 317h128zM275 -220l49 168h93l-64 -168h-78z" />
    <glyph glyph-name="L" unicode="L" horiz-adv-x="555" 
d="M202 88h338v-88h-445v740h107v-652z" />
    <glyph glyph-name="Lacute" unicode="&#x139;" horiz-adv-x="555" 
d="M338 980l-166 -155h-88l133 155h121zM202 88h338v-88h-445v740h107v-652z" />
    <glyph glyph-name="Lcaron" unicode="&#x13d;" horiz-adv-x="549" 
d="M202 88h338v-88h-445v740h107v-652zM508 740l-73 -207h-92l58 207h107z" />
    <glyph glyph-name="Lcommaaccent" unicode="&#x13b;" horiz-adv-x="555" 
d="M202 88h338v-88h-445v740h107v-652zM202 -220l49 168h93l-64 -168h-78z" />
    <glyph glyph-name="Lslash" unicode="&#x141;" horiz-adv-x="555" 
d="M202 88h338v-88h-445v307l-67 -47v84l67 47v349h107v-287l106 74v-84l-106 -74v-281z" />
    <glyph glyph-name="M" unicode="M" horiz-adv-x="993" 
d="M920 0h-106l-31 561l-256 -561h-61l-255 559l-31 -559h-107l47 745h115l262 -573l261 573h115z" />
    <glyph glyph-name="N" unicode="N" horiz-adv-x="853" 
d="M95 0v740h67l492 -558l-3 558h107v-740h-67l-491 558l2 -558h-107z" />
    <glyph glyph-name="Nacute" unicode="&#x143;" horiz-adv-x="853" 
d="M362 825l133 155h121l-166 -155h-88zM95 0v740h67l492 -558l-3 558h107v-740h-67l-491 558l2 -558h-107z" />
    <glyph glyph-name="Ncaron" unicode="&#x147;" horiz-adv-x="853" 
d="M376 825l-130 155h96l84 -98l84 98h96l-130 -155h-100zM651 740h107v-740h-67l-491 558l2 -558h-107v740h67l492 -558z" />
    <glyph glyph-name="Ncommaaccent" unicode="&#x145;" horiz-adv-x="853" 
d="M95 0v740h67l492 -558l-3 558h107v-740h-67l-491 558l2 -558h-107zM334 -220l49 168h93l-64 -168h-78z" />
    <glyph glyph-name="Eng" unicode="&#x14a;" horiz-adv-x="853" 
d="M651 740h107v-809c0 -97 -72 -161 -181 -161c-57 0 -107 19 -140 55l29 72c26 -26 59 -39 92 -39c59 0 93 38 93 93v94l-451 513l2 -558h-107v740h67l492 -558z" />
    <glyph glyph-name="Ntilde" unicode="&#xd1;" horiz-adv-x="853" 
d="M506 829c-65 0 -112 65 -161 65c-28 0 -48 -21 -48 -55h-58c0 79 43 130 105 130c68 0 112 -64 161 -64c28 0 48 20 48 54h58c0 -81 -43 -130 -105 -130zM95 0v740h67l492 -558l-3 558h107v-740h-67l-491 558l2 -558h-107z" />
    <glyph glyph-name="O" unicode="O" horiz-adv-x="853" 
d="M427 -10c-227 0 -379 152 -379 380s152 380 379 380c226 0 378 -152 378 -380s-152 -380 -378 -380zM427 78c160 0 268 117 268 292s-108 292 -268 292c-161 0 -268 -117 -268 -292s107 -292 268 -292z" />
    <glyph glyph-name="Oacute" unicode="&#xd3;" horiz-adv-x="853" 
d="M363 825l133 155h121l-166 -155h-88zM427 -10c-227 0 -379 152 -379 380s152 380 379 380c226 0 378 -152 378 -380s-152 -380 -378 -380zM427 78c160 0 268 117 268 292s-108 292 -268 292c-161 0 -268 -117 -268 -292s107 -292 268 -292z" />
    <glyph glyph-name="Ocircumflex" unicode="&#xd4;" horiz-adv-x="853" 
d="M427 923l-84 -98h-96l130 155h100l130 -155h-96zM427 750c226 0 378 -152 378 -380s-152 -380 -378 -380c-227 0 -379 152 -379 380s152 380 379 380zM427 78c160 0 268 117 268 292s-108 292 -268 292c-161 0 -268 -117 -268 -292s107 -292 268 -292z" />
    <glyph glyph-name="Odieresis" unicode="&#xd6;" horiz-adv-x="853" 
d="M316 851c-37 0 -64 27 -64 64s27 64 64 64c36 0 63 -27 63 -64s-27 -64 -63 -64zM539 851c-37 0 -64 27 -64 64s27 64 64 64c36 0 63 -27 63 -64s-27 -64 -63 -64zM427 -10c-227 0 -379 152 -379 380s152 380 379 380c226 0 378 -152 378 -380s-152 -380 -378 -380z
M427 78c160 0 268 117 268 292s-108 292 -268 292c-161 0 -268 -117 -268 -292s107 -292 268 -292z" />
    <glyph glyph-name="Ograve" unicode="&#xd2;" horiz-adv-x="853" 
d="M402 825l-166 155h122l133 -155h-89zM427 -10c-227 0 -379 152 -379 380s152 380 379 380c226 0 378 -152 378 -380s-152 -380 -378 -380zM427 78c160 0 268 117 268 292s-108 292 -268 292c-161 0 -268 -117 -268 -292s107 -292 268 -292z" />
    <glyph glyph-name="Ohungarumlaut" unicode="&#x150;" horiz-adv-x="853" 
d="M290 825l106 155h122l-139 -155h-89zM462 825l106 155h121l-139 -155h-88zM427 -10c-227 0 -379 152 -379 380s152 380 379 380c226 0 378 -152 378 -380s-152 -380 -378 -380zM427 78c160 0 268 117 268 292s-108 292 -268 292c-161 0 -268 -117 -268 -292
s107 -292 268 -292z" />
    <glyph glyph-name="Omacron" unicode="&#x14c;" horiz-adv-x="853" 
d="M262 842v81h331v-81h-331zM427 -10c-227 0 -379 152 -379 380s152 380 379 380c226 0 378 -152 378 -380s-152 -380 -378 -380zM427 78c160 0 268 117 268 292s-108 292 -268 292c-161 0 -268 -117 -268 -292s107 -292 268 -292z" />
    <glyph glyph-name="Oslash" unicode="&#xd8;" horiz-adv-x="856" 
d="M729 613c49 -63 76 -146 76 -243c0 -228 -152 -380 -378 -380c-94 0 -175 26 -237 72l-71 -72l-65 61l72 74c-50 63 -78 147 -78 245c0 228 152 380 379 380c94 0 175 -26 238 -74l72 74l66 -61zM159 370c0 -65 15 -123 42 -169l395 404c-45 37 -102 57 -169 57
c-161 0 -268 -117 -268 -292zM427 78c160 0 268 117 268 292c0 64 -15 121 -41 167l-395 -404c45 -35 102 -55 168 -55z" />
    <glyph glyph-name="Otilde" unicode="&#xd5;" horiz-adv-x="853" 
d="M507 829c-65 0 -112 65 -161 65c-28 0 -48 -21 -48 -55h-58c0 79 43 130 105 130c68 0 112 -64 161 -64c28 0 48 20 48 54h58c0 -81 -43 -130 -105 -130zM427 -10c-227 0 -379 152 -379 380s152 380 379 380c226 0 378 -152 378 -380s-152 -380 -378 -380zM427 78
c160 0 268 117 268 292s-108 292 -268 292c-161 0 -268 -117 -268 -292s107 -292 268 -292z" />
    <glyph glyph-name="OE" unicode="&#x152;" horiz-adv-x="1241" 
d="M805 88h380v-88h-486v111c-64 -77 -161 -121 -278 -121c-224 0 -372 152 -372 380s148 380 372 380c117 0 214 -44 278 -121v111h478v-88h-372v-232h344v-88h-344v-244zM428 78c160 0 267 117 267 292s-107 292 -267 292c-161 0 -269 -117 -269 -292s108 -292 269 -292z
" />
    <glyph glyph-name="P" unicode="P" horiz-adv-x="659" 
d="M379 740c150 0 250 -93 250 -232c0 -143 -101 -239 -253 -239h-174v-269h-107v740h284zM366 357c94 0 152 59 152 148c0 88 -60 147 -152 147h-164v-295h164z" />
    <glyph glyph-name="Thorn" unicode="&#xde;" horiz-adv-x="661" 
d="M379 611c150 0 250 -92 250 -231c0 -144 -101 -240 -253 -240h-174v-140h-107v740h107v-129h177zM366 229c94 0 152 59 152 147s-60 147 -152 147h-164v-294h164z" />
    <glyph glyph-name="Q" unicode="Q" horiz-adv-x="854" 
d="M825 0h-127l-49 52c-60 -40 -136 -62 -222 -62c-227 0 -379 152 -379 380s152 380 379 380c226 0 378 -152 378 -380c0 -104 -32 -192 -87 -257zM427 78c60 0 113 16 155 46l-131 141h122l72 -76c32 48 50 110 50 181c0 175 -108 292 -268 292
c-161 0 -268 -117 -268 -292s107 -292 268 -292z" />
    <glyph glyph-name="R" unicode="R" horiz-adv-x="713" 
d="M693 0h-125l-184 288h-9h-173v-288h-107v740h291c152 0 253 -90 253 -226c0 -99 -56 -174 -148 -207zM202 652v-276h165c97 0 161 55 161 138s-62 138 -155 138h-171z" />
    <glyph glyph-name="Racute" unicode="&#x154;" horiz-adv-x="713" 
d="M524 980l-166 -155h-88l133 155h121zM693 0h-125l-184 288h-9h-173v-288h-107v740h291c152 0 253 -90 253 -226c0 -99 -56 -174 -148 -207zM202 652v-276h165c97 0 161 55 161 138s-62 138 -155 138h-171z" />
    <glyph glyph-name="Rcaron" unicode="&#x158;" horiz-adv-x="713" 
d="M284 825l-130 155h96l84 -98l84 98h96l-130 -155h-100zM693 0h-125l-184 288h-9h-173v-288h-107v740h291c152 0 253 -90 253 -226c0 -99 -56 -174 -148 -207zM202 652v-276h165c97 0 161 55 161 138s-62 138 -155 138h-171z" />
    <glyph glyph-name="Rcommaaccent" unicode="&#x156;" horiz-adv-x="713" 
d="M491 307l202 -307h-125l-184 288h-9h-173v-288h-107v740h291c152 0 253 -90 253 -226c0 -99 -56 -174 -148 -207zM202 652v-276h165c97 0 161 55 161 138s-62 138 -155 138h-171zM273 -220l49 168h93l-64 -168h-78z" />
    <glyph glyph-name="S" unicode="S" horiz-adv-x="635" 
d="M312 -10c-98 0 -190 29 -251 89l42 73c59 -53 130 -74 203 -74c106 0 171 43 171 112c0 73 -72 105 -175 135l-46 13c-112 31 -202 80 -202 199c0 128 105 213 263 213c97 0 176 -29 239 -85l-48 -74c-53 47 -114 71 -191 71c-92 0 -152 -44 -152 -109
c0 -71 65 -97 141 -119l48 -13c110 -32 234 -88 234 -221c0 -126 -111 -210 -276 -210z" />
    <glyph glyph-name="Sacute" unicode="&#x15a;" horiz-adv-x="635" 
d="M254 825l133 155h121l-166 -155h-88zM312 -10c-98 0 -190 29 -251 89l42 73c59 -53 130 -74 203 -74c106 0 171 43 171 112c0 73 -72 105 -175 135l-46 13c-112 31 -202 80 -202 199c0 128 105 213 263 213c97 0 176 -29 239 -85l-48 -74c-53 47 -114 71 -191 71
c-92 0 -152 -44 -152 -109c0 -71 65 -97 141 -119l48 -13c110 -32 234 -88 234 -221c0 -126 -111 -210 -276 -210z" />
    <glyph glyph-name="Scaron" unicode="&#x160;" horiz-adv-x="635" 
d="M268 825l-130 155h96l84 -98l84 98h96l-130 -155h-100zM354 421c110 -32 234 -88 234 -221c0 -126 -111 -210 -276 -210c-98 0 -190 29 -251 89l42 73c59 -53 130 -74 203 -74c106 0 171 43 171 112c0 73 -72 105 -175 135l-46 13c-112 31 -202 80 -202 199
c0 128 105 213 263 213c97 0 176 -29 239 -85l-48 -74c-53 47 -114 71 -191 71c-92 0 -152 -44 -152 -109c0 -71 65 -97 141 -119z" />
    <glyph glyph-name="Scedilla" unicode="&#x15e;" horiz-adv-x="635" 
d="M588 200c0 -115 -92 -195 -234 -208l-33 -52h6c66 0 108 -33 108 -82c0 -52 -48 -88 -125 -88c-40 0 -76 11 -97 27l20 40c15 -13 39 -21 67 -21c40 0 64 17 64 42c0 24 -24 39 -60 39c-15 0 -29 -3 -42 -8l-14 25l44 76c-90 4 -174 33 -231 89l42 73
c59 -53 130 -74 203 -74c106 0 171 43 171 112c0 73 -72 105 -175 135l-46 13c-112 31 -202 80 -202 199c0 128 105 213 263 213c97 0 176 -29 239 -85l-48 -74c-53 47 -114 71 -191 71c-92 0 -152 -44 -152 -109c0 -71 65 -97 141 -119l48 -13c110 -32 234 -88 234 -221z
" />
    <glyph glyph-name="Scommaaccent" unicode="&#x218;" horiz-adv-x="635" 
d="M312 -10c-98 0 -190 29 -251 89l42 73c59 -53 130 -74 203 -74c106 0 171 43 171 112c0 73 -72 105 -175 135l-46 13c-112 31 -202 80 -202 199c0 128 105 213 263 213c97 0 176 -29 239 -85l-48 -74c-53 47 -114 71 -191 71c-92 0 -152 -44 -152 -109
c0 -71 65 -97 141 -119l48 -13c110 -32 234 -88 234 -221c0 -126 -111 -210 -276 -210zM234 -220l49 168h93l-64 -168h-78z" />
    <glyph glyph-name="uni1E9E" unicode="&#x1e9e;" horiz-adv-x="682" 
d="M482 390c95 -31 153 -99 153 -187c0 -128 -100 -213 -250 -213c-37 0 -76 5 -107 18l10 85c27 -12 53 -15 80 -15c94 0 156 54 156 134s-69 134 -173 134v82c82 0 136 47 136 118c0 70 -58 116 -146 116c-87 0 -146 -47 -146 -117v-545h-106v558c0 115 100 192 252 192
c154 0 256 -76 256 -190c0 -77 -43 -138 -115 -170z" />
    <glyph glyph-name="T" unicode="T" horiz-adv-x="599" 
d="M585 740v-88h-232v-652h-107v652h-232v88h571z" />
    <glyph glyph-name="Tbar" unicode="&#x166;" horiz-adv-x="599" 
d="M585 652h-232v-254h135v-74h-135v-324h-107v324h-130v74h130v254h-232v88h571v-88z" />
    <glyph glyph-name="Tcaron" unicode="&#x164;" horiz-adv-x="599" 
d="M249 825l-130 155h96l84 -98l84 98h96l-130 -155h-100zM585 740v-88h-232v-652h-107v652h-232v88h571z" />
    <glyph glyph-name="uni0162" unicode="&#x162;" horiz-adv-x="599" 
d="M353 0h-22l-38 -60h6c66 0 108 -33 108 -82c0 -52 -48 -88 -125 -88c-40 0 -76 11 -97 27l20 40c15 -13 39 -21 67 -21c40 0 64 17 64 42c0 24 -24 39 -60 39c-15 0 -29 -3 -42 -8l-14 25l50 86h-24v652h-232v88h571v-88h-232v-652z" />
    <glyph glyph-name="uni021A" unicode="&#x21a;" horiz-adv-x="599" 
d="M585 740v-88h-232v-652h-107v652h-232v88h571zM206 -220l49 168h93l-64 -168h-78z" />
    <glyph glyph-name="U" unicode="U" horiz-adv-x="799" 
d="M400 -10c-188 0 -314 112 -314 282v468h106v-464c0 -118 83 -198 208 -198c123 0 206 80 206 198v464h107v-468c0 -170 -125 -282 -313 -282z" />
    <glyph glyph-name="Uacute" unicode="&#xda;" horiz-adv-x="799" 
d="M336 825l133 155h121l-166 -155h-88zM400 -10c-188 0 -314 112 -314 282v468h106v-464c0 -118 83 -198 208 -198c123 0 206 80 206 198v464h107v-468c0 -170 -125 -282 -313 -282z" />
    <glyph glyph-name="Ucircumflex" unicode="&#xdb;" horiz-adv-x="799" 
d="M400 923l-84 -98h-96l130 155h100l130 -155h-96zM606 740h107v-468c0 -170 -125 -282 -313 -282s-314 112 -314 282v468h106v-464c0 -118 83 -198 208 -198c123 0 206 80 206 198v464z" />
    <glyph glyph-name="Udieresis" unicode="&#xdc;" horiz-adv-x="799" 
d="M289 851c-37 0 -64 27 -64 64s27 64 64 64c36 0 63 -27 63 -64s-27 -64 -63 -64zM512 851c-37 0 -64 27 -64 64s27 64 64 64c36 0 63 -27 63 -64s-27 -64 -63 -64zM400 -10c-188 0 -314 112 -314 282v468h106v-464c0 -118 83 -198 208 -198c123 0 206 80 206 198v464h107
v-468c0 -170 -125 -282 -313 -282z" />
    <glyph glyph-name="Ugrave" unicode="&#xd9;" horiz-adv-x="799" 
d="M375 825l-166 155h122l133 -155h-89zM400 -10c-188 0 -314 112 -314 282v468h106v-464c0 -118 83 -198 208 -198c123 0 206 80 206 198v464h107v-468c0 -170 -125 -282 -313 -282z" />
    <glyph glyph-name="Uhungarumlaut" unicode="&#x170;" horiz-adv-x="799" 
d="M263 825l106 155h122l-139 -155h-89zM435 825l106 155h121l-139 -155h-88zM400 -10c-188 0 -314 112 -314 282v468h106v-464c0 -118 83 -198 208 -198c123 0 206 80 206 198v464h107v-468c0 -170 -125 -282 -313 -282z" />
    <glyph glyph-name="Umacron" unicode="&#x16a;" horiz-adv-x="799" 
d="M235 842v81h331v-81h-331zM400 -10c-188 0 -314 112 -314 282v468h106v-464c0 -118 83 -198 208 -198c123 0 206 80 206 198v464h107v-468c0 -170 -125 -282 -313 -282z" />
    <glyph glyph-name="Uogonek" unicode="&#x172;" horiz-adv-x="799" 
d="M606 740h107v-468c0 -141 -86 -242 -223 -273c-67 -44 -100 -89 -100 -130c0 -23 16 -39 41 -39c20 0 39 8 53 21l10 -53c-23 -18 -50 -28 -86 -28c-56 0 -94 33 -94 83c0 48 31 93 85 137c-187 0 -313 112 -313 282v468h106v-464c0 -118 83 -198 208 -198
c123 0 206 80 206 198v464z" />
    <glyph glyph-name="Uring" unicode="&#x16e;" horiz-adv-x="799" 
d="M400 790c-68 0 -113 42 -113 107c0 63 45 106 113 106s113 -43 113 -106c0 -65 -45 -107 -113 -107zM400 838c33 0 55 24 55 59c0 34 -22 57 -55 57s-56 -23 -56 -57c0 -35 23 -59 56 -59zM400 -10c-188 0 -314 112 -314 282v468h106v-464c0 -118 83 -198 208 -198
c123 0 206 80 206 198v464h107v-468c0 -170 -125 -282 -313 -282z" />
    <glyph glyph-name="V" unicode="V" horiz-adv-x="742" 
d="M321 0l-320 740h114l257 -609l255 609h114l-320 -740h-100z" />
    <glyph glyph-name="W" unicode="W" horiz-adv-x="1120" 
d="M1000 740h114l-260 -740h-100l-194 588l-194 -588h-99l-261 740h114l202 -597l188 597h100l190 -597z" />
    <glyph glyph-name="Wacute" unicode="&#x1e82;" horiz-adv-x="1120" 
d="M751 980l-166 -155h-88l133 155h121zM1000 740h114l-260 -740h-100l-194 588l-194 -588h-99l-261 740h114l202 -597l188 597h100l190 -597z" />
    <glyph glyph-name="Wcircumflex" unicode="&#x174;" horiz-adv-x="1120" 
d="M561 923l-84 -98h-96l130 155h100l130 -155h-96zM1000 740h114l-260 -740h-100l-194 588l-194 -588h-99l-261 740h114l202 -597l188 597h100l190 -597z" />
    <glyph glyph-name="Wdieresis" unicode="&#x1e84;" horiz-adv-x="1120" 
d="M450 851c-37 0 -64 27 -64 64s27 64 64 64c36 0 63 -27 63 -64s-27 -64 -63 -64zM673 851c-37 0 -64 27 -64 64s27 64 64 64c36 0 63 -27 63 -64s-27 -64 -63 -64zM1000 740h114l-260 -740h-100l-194 588l-194 -588h-99l-261 740h114l202 -597l188 597h100l190 -597z" />
    <glyph glyph-name="Wgrave" unicode="&#x1e80;" horiz-adv-x="1120" 
d="M625 825h-89l-166 155h122zM1000 740h114l-260 -740h-100l-194 588l-194 -588h-99l-261 740h114l202 -597l188 597h100l190 -597z" />
    <glyph glyph-name="X" unicode="X" horiz-adv-x="663" 
d="M662 0h-123l-207 302l-208 -302h-123l271 382l-250 358h123l186 -275l186 275h123l-249 -357z" />
    <glyph glyph-name="Y" unicode="Y" horiz-adv-x="673" 
d="M545 740h114l-269 -453v-287h-107v287l-269 453h115l208 -358z" />
    <glyph glyph-name="Yacute" unicode="&#xdd;" horiz-adv-x="673" 
d="M528 980l-166 -155h-88l133 155h121zM545 740h114l-269 -453v-287h-107v287l-269 453h115l208 -358z" />
    <glyph glyph-name="Ycircumflex" unicode="&#x176;" horiz-adv-x="673" 
d="M338 923l-84 -98h-96l130 155h100l130 -155h-96zM545 740h114l-269 -453v-287h-107v287l-269 453h115l208 -358z" />
    <glyph glyph-name="Ydieresis" unicode="&#x178;" horiz-adv-x="673" 
d="M227 851c-37 0 -64 27 -64 64s27 64 64 64c36 0 63 -27 63 -64s-27 -64 -63 -64zM450 851c-37 0 -64 27 -64 64s27 64 64 64c36 0 63 -27 63 -64s-27 -64 -63 -64zM545 740h114l-269 -453v-287h-107v287l-269 453h115l208 -358z" />
    <glyph glyph-name="Ygrave" unicode="&#x1ef2;" horiz-adv-x="673" 
d="M402 825h-89l-166 155h122zM545 740h114l-269 -453v-287h-107v287l-269 453h115l208 -358z" />
    <glyph glyph-name="Z" unicode="Z" horiz-adv-x="647" 
d="M179 88h433v-88h-577v67l424 585h-418v88h561v-67z" />
    <glyph glyph-name="Zacute" unicode="&#x179;" horiz-adv-x="647" 
d="M512 980l-166 -155h-88l133 155h121zM179 88h433v-88h-577v67l424 585h-418v88h561v-67z" />
    <glyph glyph-name="Zcaron" unicode="&#x17d;" horiz-adv-x="647" 
d="M272 825l-130 155h96l84 -98l84 98h96l-130 -155h-100zM179 88h433v-88h-577v67l424 585h-418v88h561v-67z" />
    <glyph glyph-name="Zdotaccent" unicode="&#x17b;" horiz-adv-x="647" 
d="M322 851c-37 0 -64 27 -64 64s27 64 64 64c36 0 63 -27 63 -64s-27 -64 -63 -64zM179 88h433v-88h-577v67l424 585h-418v88h561v-67z" />
    <glyph glyph-name="A.ss01" horiz-adv-x="800" 
d="M400 750c188 0 313 -112 313 -281v-469h-106v235h-414v-235h-106v469c0 169 125 281 313 281zM193 324h414v140c0 118 -83 198 -206 198c-125 0 -208 -80 -208 -198v-140z" />
    <glyph glyph-name="Aacute.ss01" horiz-adv-x="800" 
d="M590 980l-166 -155h-88l133 155h121zM400 750c188 0 313 -112 313 -281v-469h-106v235h-414v-235h-106v469c0 169 125 281 313 281zM193 324h414v140c0 118 -83 198 -206 198c-125 0 -208 -80 -208 -198v-140z" />
    <glyph glyph-name="Abreve.ss01" horiz-adv-x="800" 
d="M400 816c-103 0 -171 65 -171 164h80c0 -62 36 -104 91 -104c54 0 91 42 91 104h79c0 -99 -68 -164 -170 -164zM400 750c188 0 313 -112 313 -281v-469h-106v235h-414v-235h-106v469c0 169 125 281 313 281zM193 324h414v140c0 118 -83 198 -206 198
c-125 0 -208 -80 -208 -198v-140z" />
    <glyph glyph-name="Acircumflex.ss01" horiz-adv-x="800" 
d="M400 923l-84 -98h-96l130 155h100l130 -155h-96zM400 750c188 0 313 -112 313 -281v-469h-106v235h-414v-235h-106v469c0 169 125 281 313 281zM193 324h414v140c0 118 -83 198 -206 198c-125 0 -208 -80 -208 -198v-140z" />
    <glyph glyph-name="Adieresis.ss01" horiz-adv-x="800" 
d="M289 851c-37 0 -64 27 -64 64s27 64 64 64c36 0 63 -27 63 -64s-27 -64 -63 -64zM512 851c-37 0 -64 27 -64 64s27 64 64 64c36 0 63 -27 63 -64s-27 -64 -63 -64zM400 750c188 0 313 -112 313 -281v-469h-106v235h-414v-235h-106v469c0 169 125 281 313 281zM193 324
h414v140c0 118 -83 198 -206 198c-125 0 -208 -80 -208 -198v-140z" />
    <glyph glyph-name="Agrave.ss01" horiz-adv-x="800" 
d="M464 825h-89l-166 155h122zM400 750c188 0 313 -112 313 -281v-469h-106v235h-414v-235h-106v469c0 169 125 281 313 281zM193 324h414v140c0 118 -83 198 -206 198c-125 0 -208 -80 -208 -198v-140z" />
    <glyph glyph-name="Amacron.ss01" horiz-adv-x="800" 
d="M566 923v-81h-331v81h331zM400 750c188 0 313 -112 313 -281v-469h-106v235h-414v-235h-106v469c0 169 125 281 313 281zM193 324h414v140c0 118 -83 198 -206 198c-125 0 -208 -80 -208 -198v-140z" />
    <glyph glyph-name="Aogonek.ss01" horiz-adv-x="800" 
d="M706 -149l10 -53c-23 -18 -50 -28 -86 -28c-56 0 -94 33 -94 83c0 51 36 100 98 147h-27v235h-414v-235h-106v469c0 169 125 281 313 281s313 -112 313 -281v-469c-68 -45 -101 -90 -101 -131c0 -23 16 -39 41 -39c20 0 39 8 53 21zM193 324h414v140
c0 118 -83 198 -206 198c-125 0 -208 -80 -208 -198v-140z" />
    <glyph glyph-name="Aring.ss01" horiz-adv-x="800" 
d="M400 790c-68 0 -113 42 -113 107c0 63 45 106 113 106s113 -43 113 -106c0 -65 -45 -107 -113 -107zM400 954c-33 0 -56 -23 -56 -57c0 -35 23 -59 56 -59s55 24 55 59c0 34 -22 57 -55 57zM400 750c188 0 313 -112 313 -281v-469h-106v235h-414v-235h-106v469
c0 169 125 281 313 281zM193 324h414v140c0 118 -83 198 -206 198c-125 0 -208 -80 -208 -198v-140z" />
    <glyph glyph-name="Atilde.ss01" horiz-adv-x="800" 
d="M319 894c-28 0 -48 -21 -48 -55h-58c0 79 43 130 105 130c68 0 112 -64 161 -64c28 0 48 20 48 54h58c0 -81 -43 -130 -105 -130c-65 0 -112 65 -161 65zM400 750c188 0 313 -112 313 -281v-469h-106v235h-414v-235h-106v469c0 169 125 281 313 281zM193 324h414v140
c0 118 -83 198 -206 198c-125 0 -208 -80 -208 -198v-140z" />
    <glyph glyph-name="AE.ss01" horiz-adv-x="939" 
d="M554 88h330v-88h-436v235h-258v-235h-106v409c0 199 145 331 364 331h427v-88h-321v-232h293v-88h-293v-244zM190 324h258v328c-155 0 -258 -100 -258 -248v-80z" />
    <glyph glyph-name="J.ss01" horiz-adv-x="575" 
d="M487 740v-508c0 -146 -100 -242 -252 -242c-85 0 -157 33 -208 88l53 72c36 -45 87 -72 149 -72c91 0 152 64 152 159v415h-327v88h433z" />
    <glyph glyph-name="C.ss02" horiz-adv-x="665" 
d="M427 -10c-227 0 -379 152 -379 380s152 380 379 380c74 0 139 -19 193 -55v-99c-46 42 -112 66 -191 66c-162 0 -270 -117 -270 -292s108 -292 270 -292c79 0 145 25 191 66v-99c-54 -36 -119 -55 -193 -55z" />
    <glyph glyph-name="Cacute.ss02" horiz-adv-x="665" 
d="M357 825l133 155h121l-166 -155h-88zM427 -10c-227 0 -379 152 -379 380s152 380 379 380c74 0 139 -19 193 -55v-99c-46 42 -112 66 -191 66c-162 0 -270 -117 -270 -292s108 -292 270 -292c79 0 145 25 191 66v-99c-54 -36 -119 -55 -193 -55z" />
    <glyph glyph-name="Ccaron.ss02" horiz-adv-x="665" 
d="M371 825l-130 155h96l84 -98l84 98h96l-130 -155h-100zM429 662c-162 0 -270 -117 -270 -292s108 -292 270 -292c79 0 145 25 191 66v-99c-54 -36 -119 -55 -193 -55c-227 0 -379 152 -379 380s152 380 379 380c74 0 139 -19 193 -55v-99c-46 42 -112 66 -191 66z" />
    <glyph glyph-name="Ccedilla.ss02" horiz-adv-x="665" 
d="M429 662c-162 0 -270 -117 -270 -292s108 -292 270 -292c79 0 145 25 191 66v-99c-49 -33 -107 -51 -172 -54l-32 -51h6c66 0 108 -33 108 -82c0 -52 -48 -88 -125 -88c-40 0 -76 11 -97 27l20 40c15 -13 39 -21 67 -21c40 0 64 17 64 42c0 24 -24 39 -60 39
c-15 0 -29 -3 -42 -8l-14 25l45 78c-205 16 -340 163 -340 378c0 228 152 380 379 380c74 0 139 -19 193 -55v-99c-46 42 -112 66 -191 66z" />
    <glyph glyph-name="Cdotaccent.ss02" horiz-adv-x="665" 
d="M421 851c-37 0 -64 27 -64 64s27 64 64 64c36 0 63 -27 63 -64s-27 -64 -63 -64zM427 -10c-227 0 -379 152 -379 380s152 380 379 380c74 0 139 -19 193 -55v-99c-46 42 -112 66 -191 66c-162 0 -270 -117 -270 -292s108 -292 270 -292c79 0 145 25 191 66v-99
c-54 -36 -119 -55 -193 -55z" />
    <glyph glyph-name="Z.ss02" horiz-adv-x="591" 
d="M193 88h369v-88h-533l363 652h-357v88h521z" />
    <glyph glyph-name="Zacute.ss02" horiz-adv-x="591" 
d="M486 980l-166 -155h-88l133 155h121zM193 88h369v-88h-533l363 652h-357v88h521z" />
    <glyph glyph-name="Zcaron.ss02" horiz-adv-x="591" 
d="M246 825l-130 155h96l84 -98l84 98h96l-130 -155h-100zM193 88h369v-88h-533l363 652h-357v88h521z" />
    <glyph glyph-name="Zdotaccent.ss02" horiz-adv-x="591" 
d="M296 851c-37 0 -64 27 -64 64s27 64 64 64c36 0 63 -27 63 -64s-27 -64 -63 -64zM193 88h369v-88h-533l363 652h-357v88h521z" />
    <glyph glyph-name="a" unicode="a" horiz-adv-x="565" 
d="M274 544c133 0 222 -83 222 -208v-336h-99l-2 94c-37 -66 -107 -104 -182 -104c-107 0 -180 64 -180 160c0 100 89 166 223 166c43 0 92 -5 138 -15v24c0 85 -55 138 -145 138c-58 0 -101 -18 -137 -52l-45 61c53 47 118 72 207 72zM242 64c74 0 151 61 152 167
c-42 9 -86 14 -125 14c-78 0 -129 -37 -129 -92c0 -54 37 -89 102 -89z" />
    <glyph glyph-name="aacute" unicode="&#xe1;" horiz-adv-x="565" 
d="M475 774l-166 -155h-88l133 155h121zM274 544c133 0 222 -83 222 -208v-336h-99l-2 94c-37 -66 -107 -104 -182 -104c-107 0 -180 64 -180 160c0 100 89 166 223 166c43 0 92 -5 138 -15v24c0 85 -55 138 -145 138c-58 0 -101 -18 -137 -52l-45 61c53 47 118 72 207 72z
M242 64c74 0 151 61 152 167c-42 9 -86 14 -125 14c-78 0 -129 -37 -129 -92c0 -54 37 -89 102 -89z" />
    <glyph glyph-name="abreve" unicode="&#x103;" horiz-adv-x="565" 
d="M285 610c-103 0 -171 65 -171 164h80c0 -62 36 -104 91 -104c54 0 91 42 91 104h79c0 -99 -68 -164 -170 -164zM274 544c133 0 222 -83 222 -208v-336h-99l-2 94c-37 -66 -107 -104 -182 -104c-107 0 -180 64 -180 160c0 100 89 166 223 166c43 0 92 -5 138 -15v24
c0 85 -55 138 -145 138c-58 0 -101 -18 -137 -52l-45 61c53 47 118 72 207 72zM242 64c74 0 151 61 152 167c-42 9 -86 14 -125 14c-78 0 -129 -37 -129 -92c0 -54 37 -89 102 -89z" />
    <glyph glyph-name="acircumflex" unicode="&#xe2;" horiz-adv-x="565" 
d="M285 717l-84 -98h-96l130 155h100l130 -155h-96zM274 544c133 0 222 -83 222 -208v-336h-99l-2 94c-37 -66 -107 -104 -182 -104c-107 0 -180 64 -180 160c0 100 89 166 223 166c43 0 92 -5 138 -15v24c0 85 -55 138 -145 138c-58 0 -101 -18 -137 -52l-45 61
c53 47 118 72 207 72zM242 64c74 0 151 61 152 167c-42 9 -86 14 -125 14c-78 0 -129 -37 -129 -92c0 -54 37 -89 102 -89z" />
    <glyph glyph-name="adieresis" unicode="&#xe4;" horiz-adv-x="565" 
d="M174 645c-37 0 -64 27 -64 64s27 64 64 64c36 0 63 -27 63 -64s-27 -64 -63 -64zM397 645c-37 0 -64 27 -64 64s27 64 64 64c36 0 63 -27 63 -64s-27 -64 -63 -64zM274 544c133 0 222 -83 222 -208v-336h-99l-2 94c-37 -66 -107 -104 -182 -104c-107 0 -180 64 -180 160
c0 100 89 166 223 166c43 0 92 -5 138 -15v24c0 85 -55 138 -145 138c-58 0 -101 -18 -137 -52l-45 61c53 47 118 72 207 72zM242 64c74 0 151 61 152 167c-42 9 -86 14 -125 14c-78 0 -129 -37 -129 -92c0 -54 37 -89 102 -89z" />
    <glyph glyph-name="agrave" unicode="&#xe0;" horiz-adv-x="565" 
d="M349 619h-89l-166 155h122zM274 544c133 0 222 -83 222 -208v-336h-99l-2 94c-37 -66 -107 -104 -182 -104c-107 0 -180 64 -180 160c0 100 89 166 223 166c43 0 92 -5 138 -15v24c0 85 -55 138 -145 138c-58 0 -101 -18 -137 -52l-45 61c53 47 118 72 207 72zM242 64
c74 0 151 61 152 167c-42 9 -86 14 -125 14c-78 0 -129 -37 -129 -92c0 -54 37 -89 102 -89z" />
    <glyph glyph-name="amacron" unicode="&#x101;" horiz-adv-x="565" 
d="M451 717v-81h-331v81h331zM274 544c133 0 222 -83 222 -208v-336h-99l-2 94c-37 -66 -107 -104 -182 -104c-107 0 -180 64 -180 160c0 100 89 166 223 166c43 0 92 -5 138 -15v24c0 85 -55 138 -145 138c-58 0 -101 -18 -137 -52l-45 61c53 47 118 72 207 72zM242 64
c74 0 151 61 152 167c-42 9 -86 14 -125 14c-78 0 -129 -37 -129 -92c0 -54 37 -89 102 -89z" />
    <glyph glyph-name="aogonek" unicode="&#x105;" horiz-adv-x="565" 
d="M489 -149l10 -53c-23 -18 -50 -28 -86 -28c-56 0 -94 33 -94 83c0 51 36 100 98 147h-20l-2 94c-37 -66 -107 -104 -182 -104c-107 0 -180 64 -180 160c0 100 89 166 223 166c43 0 92 -5 138 -15v24c0 85 -55 138 -145 138c-58 0 -101 -18 -137 -52l-45 61
c53 47 118 72 207 72c133 0 222 -83 222 -208v-336c-68 -45 -101 -90 -101 -131c0 -23 16 -39 41 -39c20 0 39 8 53 21zM242 64c74 0 151 61 152 167c-42 9 -86 14 -125 14c-78 0 -129 -37 -129 -92c0 -54 37 -89 102 -89z" />
    <glyph glyph-name="aring" unicode="&#xe5;" horiz-adv-x="565" 
d="M285 584c-68 0 -113 42 -113 107c0 63 45 106 113 106s113 -43 113 -106c0 -65 -45 -107 -113 -107zM285 748c-33 0 -56 -23 -56 -57c0 -35 23 -59 56 -59s55 24 55 59c0 34 -22 57 -55 57zM274 544c133 0 222 -83 222 -208v-336h-99l-2 94c-37 -66 -107 -104 -182 -104
c-107 0 -180 64 -180 160c0 100 89 166 223 166c43 0 92 -5 138 -15v24c0 85 -55 138 -145 138c-58 0 -101 -18 -137 -52l-45 61c53 47 118 72 207 72zM242 64c74 0 151 61 152 167c-42 9 -86 14 -125 14c-78 0 -129 -37 -129 -92c0 -54 37 -89 102 -89z" />
    <glyph glyph-name="atilde" unicode="&#xe3;" horiz-adv-x="565" 
d="M204 688c-28 0 -48 -21 -48 -55h-58c0 79 43 130 105 130c68 0 112 -64 161 -64c28 0 48 20 48 54h58c0 -81 -43 -130 -105 -130c-65 0 -112 65 -161 65zM274 544c133 0 222 -83 222 -208v-336h-99l-2 94c-37 -66 -107 -104 -182 -104c-107 0 -180 64 -180 160
c0 100 89 166 223 166c43 0 92 -5 138 -15v24c0 85 -55 138 -145 138c-58 0 -101 -18 -137 -52l-45 61c53 47 118 72 207 72zM242 64c74 0 151 61 152 167c-42 9 -86 14 -125 14c-78 0 -129 -37 -129 -92c0 -54 37 -89 102 -89z" />
    <glyph glyph-name="ae" unicode="&#xe6;" horiz-adv-x="943" 
d="M904 274c0 -13 -1 -32 -2 -44h-407c10 -97 61 -159 154 -159c63 0 116 30 153 78l78 -42c-49 -74 -128 -117 -223 -117c-96 0 -172 45 -216 117c-40 -74 -123 -117 -214 -117c-116 0 -194 64 -194 160c0 100 89 166 223 166c43 0 92 -5 138 -15v24c0 85 -55 138 -145 138
c-58 0 -101 -18 -137 -52l-45 61c51 47 113 72 200 72c85 0 152 -39 187 -100c44 62 113 100 198 100c151 0 252 -108 252 -270zM645 463c-88 0 -141 -62 -150 -163h303c-9 102 -64 163 -153 163zM242 64c74 0 151 61 152 167c-42 9 -86 14 -125 14c-78 0 -129 -37 -129 -92
c0 -54 37 -89 102 -89z" />
    <glyph glyph-name="b" unicode="b" horiz-adv-x="673" 
d="M374 544c146 0 255 -112 255 -279c0 -165 -109 -275 -255 -275c-95 0 -160 41 -197 107l-3 -97h-98v780h102v-341c38 65 102 105 196 105zM350 78c104 0 173 75 173 188c0 114 -69 190 -173 190c-103 0 -172 -76 -172 -189c0 -114 69 -189 172 -189z" />
    <glyph glyph-name="c" unicode="c" horiz-adv-x="541" 
d="M320 -10c-166 0 -277 111 -277 277s112 277 280 277c70 0 129 -22 178 -60l-58 -70c-34 28 -71 42 -119 42c-105 0 -175 -76 -175 -189s70 -189 176 -189c53 0 100 17 134 53l59 -69c-50 -48 -120 -72 -198 -72z" />
    <glyph glyph-name="cacute" unicode="&#x107;" horiz-adv-x="541" 
d="M248 619l133 155h121l-166 -155h-88zM320 -10c-166 0 -277 111 -277 277s112 277 280 277c70 0 129 -22 178 -60l-58 -70c-34 28 -71 42 -119 42c-105 0 -175 -76 -175 -189s70 -189 176 -189c53 0 100 17 134 53l59 -69c-50 -48 -120 -72 -198 -72z" />
    <glyph glyph-name="ccaron" unicode="&#x10d;" horiz-adv-x="541" 
d="M262 619l-130 155h96l84 -98l84 98h96l-130 -155h-100zM459 131l59 -69c-50 -48 -120 -72 -198 -72c-166 0 -277 111 -277 277s112 277 280 277c70 0 129 -22 178 -60l-58 -70c-34 28 -71 42 -119 42c-105 0 -175 -76 -175 -189s70 -189 176 -189c53 0 100 17 134 53z
" />
    <glyph glyph-name="ccedilla" unicode="&#xe7;" horiz-adv-x="541" 
d="M316 -60c66 0 108 -33 108 -82c0 -52 -48 -88 -125 -88c-40 0 -76 11 -97 27l20 40c15 -13 39 -21 67 -21c40 0 64 17 64 42c0 24 -24 39 -60 39c-15 0 -29 -3 -42 -8l-14 25l45 78c-145 16 -239 122 -239 275c0 166 112 277 280 277c70 0 129 -22 178 -60l-58 -70
c-34 28 -71 42 -119 42c-105 0 -175 -76 -175 -189s70 -189 176 -189c53 0 100 17 134 53l59 -69c-45 -43 -107 -67 -176 -71l-32 -51h6z" />
    <glyph glyph-name="cdotaccent" unicode="&#x10b;" horiz-adv-x="541" 
d="M312 645c-37 0 -64 27 -64 64s27 64 64 64c36 0 63 -27 63 -64s-27 -64 -63 -64zM320 -10c-166 0 -277 111 -277 277s112 277 280 277c70 0 129 -22 178 -60l-58 -70c-34 28 -71 42 -119 42c-105 0 -175 -76 -175 -189s70 -189 176 -189c53 0 100 17 134 53l59 -69
c-50 -48 -120 -72 -198 -72z" />
    <glyph glyph-name="d" unicode="d" horiz-adv-x="672" 
d="M495 780h102v-780h-99l-2 98c-38 -66 -103 -108 -197 -108c-147 0 -256 110 -256 275c0 167 109 279 256 279c94 0 158 -41 196 -107v343zM322 78c103 0 173 75 173 189c0 113 -70 189 -173 189c-104 0 -173 -76 -173 -190c0 -113 69 -188 173 -188z" />
    <glyph glyph-name="eth" unicode="&#xf0;" horiz-adv-x="647" 
d="M380 702c142 -111 220 -248 220 -402c0 -188 -111 -310 -277 -310c-168 0 -279 110 -279 278c0 162 109 269 255 269c52 0 96 -13 130 -35c-32 53 -77 102 -133 145l-69 -45l-58 39l70 47c-25 16 -51 31 -79 46l85 56c28 -15 54 -31 78 -47l71 47l57 -42zM323 78
c102 0 172 76 172 189s-70 189 -172 189c-104 0 -173 -76 -173 -189s69 -189 173 -189z" />
    <glyph glyph-name="dcaron" unicode="&#x10f;" horiz-adv-x="686" 
d="M495 437v343h102v-780h-99l-2 98c-38 -66 -103 -108 -197 -108c-147 0 -256 110 -256 275c0 167 109 279 256 279c94 0 158 -41 196 -107zM699 780h93l-69 -187h-78zM322 78c103 0 173 75 173 189c0 113 -70 189 -173 189c-104 0 -173 -76 -173 -190
c0 -113 69 -188 173 -188z" />
    <glyph glyph-name="dcroat" unicode="&#x111;" horiz-adv-x="672" 
d="M677 691v-74h-80v-617h-99l-2 98c-38 -66 -103 -108 -197 -108c-147 0 -256 110 -256 275c0 167 109 279 256 279c94 0 158 -41 196 -107v180h-190v74h190v89h102v-89h80zM322 78c103 0 173 75 173 189c0 113 -70 189 -173 189c-104 0 -173 -76 -173 -190
c0 -113 69 -188 173 -188z" />
    <glyph glyph-name="e" unicode="e" horiz-adv-x="601" 
d="M561 274c0 -13 0 -32 -2 -44h-407c10 -97 61 -159 154 -159c64 0 116 30 153 78l78 -42c-50 -74 -132 -117 -230 -117c-157 0 -263 110 -263 275c0 167 103 279 259 279c155 0 258 -108 258 -270zM303 463c-88 0 -142 -62 -151 -163h304c-9 102 -65 163 -153 163z" />
    <glyph glyph-name="eacute" unicode="&#xe9;" horiz-adv-x="601" 
d="M493 774l-166 -155h-88l133 155h121zM561 274c0 -13 0 -32 -2 -44h-407c10 -97 61 -159 154 -159c64 0 116 30 153 78l78 -42c-50 -74 -132 -117 -230 -117c-157 0 -263 110 -263 275c0 167 103 279 259 279c155 0 258 -108 258 -270zM303 463c-88 0 -142 -62 -151 -163
h304c-9 102 -65 163 -153 163z" />
    <glyph glyph-name="ecaron" unicode="&#x11b;" horiz-adv-x="601" 
d="M253 619l-130 155h96l84 -98l84 98h96l-130 -155h-100zM561 274c0 -13 0 -32 -2 -44h-407c10 -97 61 -159 154 -159c64 0 116 30 153 78l78 -42c-50 -74 -132 -117 -230 -117c-157 0 -263 110 -263 275c0 167 103 279 259 279c155 0 258 -108 258 -270zM303 463
c-88 0 -142 -62 -151 -163h304c-9 102 -65 163 -153 163z" />
    <glyph glyph-name="ecircumflex" unicode="&#xea;" horiz-adv-x="601" 
d="M303 717l-84 -98h-96l130 155h100l130 -155h-96zM561 274c0 -13 0 -32 -2 -44h-407c10 -97 61 -159 154 -159c64 0 116 30 153 78l78 -42c-50 -74 -132 -117 -230 -117c-157 0 -263 110 -263 275c0 167 103 279 259 279c155 0 258 -108 258 -270zM303 463
c-88 0 -142 -62 -151 -163h304c-9 102 -65 163 -153 163z" />
    <glyph glyph-name="edieresis" unicode="&#xeb;" horiz-adv-x="601" 
d="M192 645c-37 0 -64 27 -64 64s27 64 64 64c36 0 63 -27 63 -64s-27 -64 -63 -64zM415 645c-37 0 -64 27 -64 64s27 64 64 64c36 0 63 -27 63 -64s-27 -64 -63 -64zM561 274c0 -13 0 -32 -2 -44h-407c10 -97 61 -159 154 -159c64 0 116 30 153 78l78 -42
c-50 -74 -132 -117 -230 -117c-157 0 -263 110 -263 275c0 167 103 279 259 279c155 0 258 -108 258 -270zM303 463c-88 0 -142 -62 -151 -163h304c-9 102 -65 163 -153 163z" />
    <glyph glyph-name="edotaccent" unicode="&#x117;" horiz-adv-x="601" 
d="M303 645c-37 0 -64 27 -64 64s27 64 64 64c36 0 63 -27 63 -64s-27 -64 -63 -64zM561 274c0 -13 0 -32 -2 -44h-407c10 -97 61 -159 154 -159c64 0 116 30 153 78l78 -42c-50 -74 -132 -117 -230 -117c-157 0 -263 110 -263 275c0 167 103 279 259 279
c155 0 258 -108 258 -270zM303 463c-88 0 -142 -62 -151 -163h304c-9 102 -65 163 -153 163z" />
    <glyph glyph-name="egrave" unicode="&#xe8;" horiz-adv-x="601" 
d="M367 619h-89l-166 155h122zM561 274c0 -13 0 -32 -2 -44h-407c10 -97 61 -159 154 -159c64 0 116 30 153 78l78 -42c-50 -74 -132 -117 -230 -117c-157 0 -263 110 -263 275c0 167 103 279 259 279c155 0 258 -108 258 -270zM303 463c-88 0 -142 -62 -151 -163h304
c-9 102 -65 163 -153 163z" />
    <glyph glyph-name="emacron" unicode="&#x113;" horiz-adv-x="601" 
d="M469 717v-81h-331v81h331zM561 274c0 -13 0 -32 -2 -44h-407c10 -97 61 -159 154 -159c64 0 116 30 153 78l78 -42c-50 -74 -132 -117 -230 -117c-157 0 -263 110 -263 275c0 167 103 279 259 279c155 0 258 -108 258 -270zM303 463c-88 0 -142 -62 -151 -163h304
c-9 102 -65 163 -153 163z" />
    <glyph glyph-name="eogonek" unicode="&#x119;" horiz-adv-x="601" 
d="M561 274c0 -13 0 -32 -2 -44h-407c10 -97 61 -159 154 -159c64 0 116 30 153 78l78 -42c-36 -53 -88 -90 -151 -107c-68 -45 -101 -90 -101 -131c0 -23 16 -39 41 -39c20 0 39 8 53 21l10 -53c-23 -18 -50 -28 -86 -28c-56 0 -94 33 -94 83c0 48 31 94 86 137
c-150 6 -251 114 -251 275c0 167 103 279 259 279c155 0 258 -108 258 -270zM303 463c-88 0 -142 -62 -151 -163h304c-9 102 -65 163 -153 163z" />
    <glyph glyph-name="f" unicode="f" horiz-adv-x="390" 
d="M307 702c-55 0 -92 -34 -92 -86v-82h162v-84h-162v-450h-102v450h-90v84h90v98c0 95 65 158 163 158c43 0 83 -6 113 -21l-8 -80c-21 10 -45 13 -74 13z" />
    <glyph glyph-name="g" unicode="g" horiz-adv-x="672" 
d="M499 534h99v-490c0 -165 -121 -274 -304 -274c-94 0 -176 23 -236 69l22 81c59 -41 128 -62 211 -62c123 0 205 75 205 189v49c-38 -65 -102 -106 -196 -106c-147 0 -256 112 -256 279c0 165 109 275 256 275c94 0 159 -42 197 -108zM323 78c103 0 173 76 173 189
s-70 189 -173 189c-104 0 -173 -75 -173 -188c0 -114 69 -190 173 -190z" />
    <glyph glyph-name="gbreve" unicode="&#x11f;" horiz-adv-x="672" 
d="M333 610c-103 0 -171 65 -171 164h80c0 -62 36 -104 91 -104c54 0 91 42 91 104h79c0 -99 -68 -164 -170 -164zM499 534h99v-490c0 -165 -121 -274 -304 -274c-94 0 -176 23 -236 69l22 81c59 -41 128 -62 211 -62c123 0 205 75 205 189v49c-38 -65 -102 -106 -196 -106
c-147 0 -256 112 -256 279c0 165 109 275 256 275c94 0 159 -42 197 -108zM323 78c103 0 173 76 173 189s-70 189 -173 189c-104 0 -173 -75 -173 -188c0 -114 69 -190 173 -190z" />
    <glyph glyph-name="gcommaaccent" unicode="&#x123;" horiz-adv-x="672" 
d="M420 780l-54 -187h-93l69 187h78zM499 534h99v-490c0 -165 -121 -274 -304 -274c-94 0 -176 23 -236 69l22 81c59 -41 128 -62 211 -62c123 0 205 75 205 189v49c-38 -65 -102 -106 -196 -106c-147 0 -256 112 -256 279c0 165 109 275 256 275c94 0 159 -42 197 -108z
M323 78c103 0 173 76 173 189s-70 189 -173 189c-104 0 -173 -75 -173 -188c0 -114 69 -190 173 -190z" />
    <glyph glyph-name="gdotaccent" unicode="&#x121;" horiz-adv-x="672" 
d="M333 645c-37 0 -64 27 -64 64s27 64 64 64c36 0 63 -27 63 -64s-27 -64 -63 -64zM499 534h99v-490c0 -165 -121 -274 -304 -274c-94 0 -176 23 -236 69l22 81c59 -41 128 -62 211 -62c123 0 205 75 205 189v49c-38 -65 -102 -106 -196 -106c-147 0 -256 112 -256 279
c0 165 109 275 256 275c94 0 159 -42 197 -108zM323 78c103 0 173 76 173 189s-70 189 -173 189c-104 0 -173 -75 -173 -188c0 -114 69 -190 173 -190z" />
    <glyph glyph-name="h" unicode="h" horiz-adv-x="645" 
d="M360 544c129 0 216 -83 216 -208v-336h-102v318c0 83 -59 138 -148 138s-148 -55 -148 -138v-318h-102v780h102v-322c38 55 101 86 182 86z" />
    <glyph glyph-name="hbar" unicode="&#x127;" horiz-adv-x="645" 
d="M360 544c129 0 216 -83 216 -208v-336h-102v318c0 83 -59 138 -148 138s-148 -55 -148 -138v-318h-102v617h-81v74h81v89h102v-89h189v-74h-189v-159c38 55 101 86 182 86z" />
    <glyph glyph-name="i" unicode="i" horiz-adv-x="255" 
d="M128 645c-37 0 -64 27 -64 64s27 64 64 64c36 0 63 -27 63 -64s-27 -64 -63 -64zM77 0v534h102v-534h-102z" />
    <glyph glyph-name="dotlessi" unicode="&#x131;" horiz-adv-x="255" 
d="M77 0v534h102v-534h-102z" />
    <glyph glyph-name="iacute" unicode="&#xed;" horiz-adv-x="255" 
d="M64 619l133 155h121l-166 -155h-88zM77 0v534h102v-534h-102z" />
    <glyph glyph-name="icircumflex" unicode="&#xee;" horiz-adv-x="255" 
d="M178 774l130 -155h-96l-84 98l-84 -98h-96l130 155h100zM77 0v534h102v-534h-102z" />
    <glyph glyph-name="idieresis" unicode="&#xef;" horiz-adv-x="255" 
d="M17 645c-37 0 -64 27 -64 64s27 64 64 64c36 0 63 -27 63 -64s-27 -64 -63 -64zM240 645c-37 0 -64 27 -64 64s27 64 64 64c36 0 63 -27 63 -64s-27 -64 -63 -64zM77 0v534h102v-534h-102z" />
    <glyph glyph-name="igrave" unicode="&#xec;" horiz-adv-x="255" 
d="M103 619l-166 155h122l133 -155h-89zM77 0v534h102v-534h-102z" />
    <glyph glyph-name="imacron" unicode="&#x12b;" horiz-adv-x="255" 
d="M-37 636v81h331v-81h-331zM77 0v534h102v-534h-102z" />
    <glyph glyph-name="iogonek" unicode="&#x12f;" horiz-adv-x="255" 
d="M128 645c-37 0 -64 27 -64 64s27 64 64 64c36 0 63 -27 63 -64s-27 -64 -63 -64zM119 -170c20 0 39 8 53 21l10 -53c-23 -18 -50 -28 -86 -28c-56 0 -94 33 -94 83c0 51 36 100 98 147h-23v534h102v-534c-68 -45 -101 -90 -101 -131c0 -23 16 -39 41 -39z" />
    <glyph glyph-name="j" unicode="j" horiz-adv-x="262" 
d="M132 645c-36 0 -63 27 -63 64s27 64 63 64c37 0 64 -27 64 -64s-27 -64 -64 -64zM26 -230c-37 0 -72 5 -98 16l8 82c18 -7 37 -10 61 -10c51 0 86 38 86 97v579h102v-603c0 -97 -64 -161 -159 -161z" />
    <glyph glyph-name="k" unicode="k" horiz-adv-x="587" 
d="M460 0l-203 238h-79v-238h-102v780h102v-457h80l190 211h129l-236 -253l249 -281h-130z" />
    <glyph glyph-name="kcommaaccent" unicode="&#x137;" horiz-adv-x="587" 
d="M341 281l249 -281h-130l-203 238h-79v-238h-102v780h102v-457h80l190 211h129zM212 -220l49 168h93l-64 -168h-78z" />
    <glyph glyph-name="l" unicode="l" horiz-adv-x="258" 
d="M78 0v780h102v-780h-102z" />
    <glyph glyph-name="lacute" unicode="&#x13a;" horiz-adv-x="258" 
d="M65 865l133 155h121l-166 -155h-88zM78 0v780h102v-780h-102z" />
    <glyph glyph-name="lcaron" unicode="&#x13e;" horiz-adv-x="269" 
d="M78 0v780h102v-780h-102zM228 593l54 187h93l-69 -187h-78z" />
    <glyph glyph-name="lcommaaccent" unicode="&#x13c;" horiz-adv-x="258" 
d="M78 0v780h102v-780h-102zM36 -220l49 168h93l-64 -168h-78z" />
    <glyph glyph-name="lslash" unicode="&#x142;" horiz-adv-x="258" 
d="M269 527v-84l-89 -62v-381h-102v323l-89 -63v84l89 62v374h102v-315z" />
    <glyph glyph-name="m" unicode="m" horiz-adv-x="977" 
d="M694 544c128 0 213 -83 213 -208v-336h-102v318c0 83 -52 138 -131 138s-132 -55 -132 -138v-318h-102v318c0 83 -52 138 -131 138s-131 -55 -131 -138v-318h-102v534h98l2 -73c35 53 94 83 167 83c78 0 139 -36 172 -95c35 60 99 95 179 95z" />
    <glyph glyph-name="n" unicode="n" horiz-adv-x="645" 
d="M360 544c129 0 216 -83 216 -208v-336h-102v318c0 83 -59 138 -148 138s-148 -55 -148 -138v-318h-102v534h98l2 -79c38 57 102 89 184 89z" />
    <glyph glyph-name="nacute" unicode="&#x144;" horiz-adv-x="645" 
d="M517 774l-166 -155h-88l133 155h121zM360 544c129 0 216 -83 216 -208v-336h-102v318c0 83 -59 138 -148 138s-148 -55 -148 -138v-318h-102v534h98l2 -79c38 57 102 89 184 89z" />
    <glyph glyph-name="ncaron" unicode="&#x148;" horiz-adv-x="645" 
d="M277 619l-130 155h96l84 -98l84 98h96l-130 -155h-100zM360 544c129 0 216 -83 216 -208v-336h-102v318c0 83 -59 138 -148 138s-148 -55 -148 -138v-318h-102v534h98l2 -79c38 57 102 89 184 89z" />
    <glyph glyph-name="ncommaaccent" unicode="&#x146;" horiz-adv-x="645" 
d="M360 544c129 0 216 -83 216 -208v-336h-102v318c0 83 -59 138 -148 138s-148 -55 -148 -138v-318h-102v534h98l2 -79c38 57 102 89 184 89zM233 -220l49 168h93l-64 -168h-78z" />
    <glyph glyph-name="eng" unicode="&#x14b;" horiz-adv-x="645" 
d="M360 544c129 0 216 -83 216 -208v-405c0 -97 -64 -161 -159 -161c-37 0 -71 5 -97 16l8 80c18 -6 37 -8 60 -8c51 0 86 38 86 97v363c0 83 -59 138 -148 138s-148 -55 -148 -138v-318h-102v534h98l2 -79c38 57 102 89 184 89z" />
    <glyph glyph-name="ntilde" unicode="&#xf1;" horiz-adv-x="645" 
d="M246 688c-28 0 -48 -21 -48 -55h-58c0 79 43 130 105 130c68 0 112 -64 161 -64c28 0 48 20 48 54h58c0 -81 -43 -130 -105 -130c-65 0 -112 65 -161 65zM360 544c129 0 216 -83 216 -208v-336h-102v318c0 83 -59 138 -148 138s-148 -55 -148 -138v-318h-102v534h98
l2 -79c38 57 102 89 184 89z" />
    <glyph glyph-name="o" unicode="o" horiz-adv-x="643" 
d="M322 -10c-167 0 -279 111 -279 277s112 277 279 277c166 0 278 -111 278 -277s-112 -277 -278 -277zM322 78c103 0 172 76 172 189s-69 189 -172 189c-104 0 -173 -76 -173 -189s69 -189 173 -189z" />
    <glyph glyph-name="oacute" unicode="&#xf3;" horiz-adv-x="643" 
d="M258 619l133 155h121l-166 -155h-88zM322 -10c-167 0 -279 111 -279 277s112 277 279 277c166 0 278 -111 278 -277s-112 -277 -278 -277zM322 78c103 0 172 76 172 189s-69 189 -172 189c-104 0 -173 -76 -173 -189s69 -189 173 -189z" />
    <glyph glyph-name="ocircumflex" unicode="&#xf4;" horiz-adv-x="643" 
d="M322 717l-84 -98h-96l130 155h100l130 -155h-96zM322 544c166 0 278 -111 278 -277s-112 -277 -278 -277c-167 0 -279 111 -279 277s112 277 279 277zM322 78c103 0 172 76 172 189s-69 189 -172 189c-104 0 -173 -76 -173 -189s69 -189 173 -189z" />
    <glyph glyph-name="odieresis" unicode="&#xf6;" horiz-adv-x="643" 
d="M211 645c-37 0 -64 27 -64 64s27 64 64 64c36 0 63 -27 63 -64s-27 -64 -63 -64zM434 645c-37 0 -64 27 -64 64s27 64 64 64c36 0 63 -27 63 -64s-27 -64 -63 -64zM322 -10c-167 0 -279 111 -279 277s112 277 279 277c166 0 278 -111 278 -277s-112 -277 -278 -277z
M322 78c103 0 172 76 172 189s-69 189 -172 189c-104 0 -173 -76 -173 -189s69 -189 173 -189z" />
    <glyph glyph-name="ograve" unicode="&#xf2;" horiz-adv-x="643" 
d="M297 619l-166 155h122l133 -155h-89zM322 -10c-167 0 -279 111 -279 277s112 277 279 277c166 0 278 -111 278 -277s-112 -277 -278 -277zM322 78c103 0 172 76 172 189s-69 189 -172 189c-104 0 -173 -76 -173 -189s69 -189 173 -189z" />
    <glyph glyph-name="ohungarumlaut" unicode="&#x151;" horiz-adv-x="643" 
d="M185 619l106 155h122l-139 -155h-89zM357 619l106 155h121l-139 -155h-88zM322 -10c-167 0 -279 111 -279 277s112 277 279 277c166 0 278 -111 278 -277s-112 -277 -278 -277zM322 78c103 0 172 76 172 189s-69 189 -172 189c-104 0 -173 -76 -173 -189
s69 -189 173 -189z" />
    <glyph glyph-name="omacron" unicode="&#x14d;" horiz-adv-x="643" 
d="M157 636v81h331v-81h-331zM322 -10c-167 0 -279 111 -279 277s112 277 279 277c166 0 278 -111 278 -277s-112 -277 -278 -277zM322 78c103 0 172 76 172 189s-69 189 -172 189c-104 0 -173 -76 -173 -189s69 -189 173 -189z" />
    <glyph glyph-name="oslash" unicode="&#xf8;" horiz-adv-x="645" 
d="M600 483l-49 -49c32 -45 49 -102 49 -167c0 -166 -112 -277 -278 -277c-65 0 -121 17 -166 47l-47 -47l-64 61l48 48c-32 45 -50 102 -50 168c0 166 112 277 279 277c65 0 122 -17 167 -48l48 48zM149 267c0 -35 7 -66 19 -93l252 253c-27 19 -60 29 -98 29
c-104 0 -173 -76 -173 -189zM494 267c0 34 -6 65 -18 91l-251 -252c26 -18 59 -28 97 -28c103 0 172 76 172 189z" />
    <glyph glyph-name="otilde" unicode="&#xf5;" horiz-adv-x="643" 
d="M402 623c-65 0 -112 65 -161 65c-28 0 -48 -21 -48 -55h-58c0 79 43 130 105 130c68 0 112 -64 161 -64c28 0 48 20 48 54h58c0 -81 -43 -130 -105 -130zM322 -10c-167 0 -279 111 -279 277s112 277 279 277c166 0 278 -111 278 -277s-112 -277 -278 -277zM322 78
c103 0 172 76 172 189s-69 189 -172 189c-104 0 -173 -76 -173 -189s69 -189 173 -189z" />
    <glyph glyph-name="oe" unicode="&#x153;" horiz-adv-x="1051" 
d="M1012 274c0 -13 -1 -32 -2 -44h-408c10 -97 62 -159 155 -159c63 0 116 30 152 78l79 -42c-49 -74 -129 -117 -223 -117c-100 0 -178 50 -219 133c-43 -83 -125 -133 -230 -133c-164 0 -272 111 -272 277s108 277 272 277c105 0 188 -50 231 -133c39 83 115 133 213 133
c151 0 252 -108 252 -270zM753 463c-88 0 -142 -62 -151 -163h304c-9 102 -64 163 -153 163zM322 78c103 0 172 76 172 189s-69 189 -172 189s-173 -76 -173 -189s70 -189 173 -189z" />
    <glyph glyph-name="p" unicode="p" horiz-adv-x="673" 
d="M374 544c146 0 255 -110 255 -275c0 -167 -109 -279 -255 -279c-94 0 -158 40 -196 105v-315h-102v754h98l3 -97c37 66 102 107 197 107zM350 78c104 0 173 76 173 190c0 113 -69 188 -173 188c-103 0 -172 -76 -172 -189s69 -189 172 -189z" />
    <glyph glyph-name="thorn" unicode="&#xfe;" horiz-adv-x="673" 
d="M374 544c146 0 255 -110 255 -275c0 -167 -109 -279 -255 -279c-94 0 -158 40 -196 105v-315h-102v1000h102v-341c38 65 102 105 196 105zM350 78c104 0 173 76 173 190c0 113 -69 188 -173 188c-103 0 -172 -76 -172 -189s69 -189 172 -189z" />
    <glyph glyph-name="q" unicode="q" horiz-adv-x="672" 
d="M498 534h99v-754h-102v316c-38 -65 -102 -106 -196 -106c-147 0 -256 112 -256 279c0 165 109 275 256 275c94 0 159 -42 197 -108zM322 78c103 0 173 76 173 189s-70 189 -173 189c-104 0 -173 -75 -173 -188c0 -114 69 -190 173 -190z" />
    <glyph glyph-name="r" unicode="r" horiz-adv-x="388" 
d="M176 454c40 59 111 90 204 90l-7 -94c-121 0 -195 -60 -195 -151v-299h-102v534h98z" />
    <glyph glyph-name="racute" unicode="&#x155;" horiz-adv-x="388" 
d="M406 774l-166 -155h-88l133 155h121zM176 454c40 59 111 90 204 90l-7 -94c-121 0 -195 -60 -195 -151v-299h-102v534h98z" />
    <glyph glyph-name="rcaron" unicode="&#x159;" horiz-adv-x="388" 
d="M166 619l-130 155h96l84 -98l84 98h96l-130 -155h-100zM176 454c40 59 111 90 204 90l-7 -94c-121 0 -195 -60 -195 -151v-299h-102v534h98z" />
    <glyph glyph-name="rcommaaccent" unicode="&#x157;" horiz-adv-x="388" 
d="M176 454c40 59 111 90 204 90l-7 -94c-121 0 -195 -60 -195 -151v-299h-102v534h98zM60 -220l49 168h93l-64 -168h-78z" />
    <glyph glyph-name="s" unicode="s" horiz-adv-x="496" 
d="M241 -10c-79 0 -148 20 -193 59l40 63c48 -31 100 -42 154 -42c63 0 105 29 105 73c0 42 -43 65 -102 82l-51 14c-87 24 -147 57 -147 140c0 99 80 165 199 165c76 0 138 -16 191 -51l-44 -68c-44 27 -90 38 -140 38c-60 0 -101 -27 -101 -69c0 -40 38 -59 90 -74l51 -14
c86 -23 159 -65 159 -155c0 -97 -83 -161 -211 -161z" />
    <glyph glyph-name="sacute" unicode="&#x15b;" horiz-adv-x="496" 
d="M182 619l133 155h121l-166 -155h-88zM241 -10c-79 0 -148 20 -193 59l40 63c48 -31 100 -42 154 -42c63 0 105 29 105 73c0 42 -43 65 -102 82l-51 14c-87 24 -147 57 -147 140c0 99 80 165 199 165c76 0 138 -16 191 -51l-44 -68c-44 27 -90 38 -140 38
c-60 0 -101 -27 -101 -69c0 -40 38 -59 90 -74l51 -14c86 -23 159 -65 159 -155c0 -97 -83 -161 -211 -161z" />
    <glyph glyph-name="scaron" unicode="&#x161;" horiz-adv-x="496" 
d="M196 619l-130 155h96l84 -98l84 98h96l-130 -155h-100zM293 306c86 -23 159 -65 159 -155c0 -97 -83 -161 -211 -161c-79 0 -148 20 -193 59l40 63c48 -31 100 -42 154 -42c63 0 105 29 105 73c0 42 -43 65 -102 82l-51 14c-87 24 -147 57 -147 140c0 99 80 165 199 165
c76 0 138 -16 191 -51l-44 -68c-44 27 -90 38 -140 38c-60 0 -101 -27 -101 -69c0 -40 38 -59 90 -74z" />
    <glyph glyph-name="scedilla" unicode="&#x15f;" horiz-adv-x="496" 
d="M452 151c0 -87 -66 -147 -172 -159l-33 -52h6c66 0 108 -33 108 -82c0 -52 -48 -88 -125 -88c-40 0 -76 11 -97 27l20 40c15 -13 39 -21 67 -21c40 0 64 17 64 42c0 24 -24 39 -60 39c-15 0 -29 -3 -42 -8l-14 25l45 77c-70 3 -130 23 -171 58l40 63
c48 -31 100 -42 154 -42c63 0 105 29 105 73c0 42 -43 65 -102 82l-51 14c-87 24 -147 57 -147 140c0 99 80 165 199 165c76 0 138 -16 191 -51l-44 -68c-44 27 -90 38 -140 38c-60 0 -101 -27 -101 -69c0 -40 38 -59 90 -74l51 -14c86 -23 159 -65 159 -155z" />
    <glyph glyph-name="scommaaccent" unicode="&#x219;" horiz-adv-x="496" 
d="M241 -10c-79 0 -148 20 -193 59l40 63c48 -31 100 -42 154 -42c63 0 105 29 105 73c0 42 -43 65 -102 82l-51 14c-87 24 -147 57 -147 140c0 99 80 165 199 165c76 0 138 -16 191 -51l-44 -68c-44 27 -90 38 -140 38c-60 0 -101 -27 -101 -69c0 -40 38 -59 90 -74l51 -14
c86 -23 159 -65 159 -155c0 -97 -83 -161 -211 -161zM160 -220l49 168h93l-64 -168h-78z" />
    <glyph glyph-name="germandbls" unicode="&#xdf;" horiz-adv-x="616" 
d="M425 420c93 -33 149 -106 149 -202c0 -137 -99 -228 -246 -228c-28 0 -58 3 -81 12l10 84c18 -6 35 -8 54 -8c94 0 156 59 156 149s-65 150 -163 150v80c75 0 126 50 126 124c0 73 -51 121 -126 121c-76 0 -126 -47 -126 -120v-582h-102v592c0 119 91 198 228 198
c139 0 232 -79 232 -198c0 -79 -42 -140 -111 -172z" />
    <glyph glyph-name="t" unicode="t" horiz-adv-x="411" 
d="M294 78c34 0 67 5 100 18v-82c-38 -17 -83 -24 -132 -24c-92 0 -154 63 -154 157v303h-91v84h91v156h102v-156h176v-84h-176v-282c0 -54 34 -90 84 -90z" />
    <glyph glyph-name="tbar" unicode="&#x167;" horiz-adv-x="418" 
d="M294 78c34 0 67 5 100 18v-82c-38 -17 -83 -24 -132 -24c-92 0 -154 63 -154 157v94h-82v74h82v135h-91v84h91v156h102v-156h176v-84h-176v-135h172v-74h-172v-73c0 -54 34 -90 84 -90z" />
    <glyph glyph-name="tcaron" unicode="&#x165;" horiz-adv-x="411" 
d="M429 780l-68 -187h-79l54 187h93zM210 168c0 -54 34 -90 84 -90c34 0 67 5 100 18v-82c-38 -17 -83 -24 -132 -24c-92 0 -154 63 -154 157v303h-91v84h91v156h102v-156h176v-84h-176v-282z" />
    <glyph glyph-name="uni0163" unicode="&#x163;" horiz-adv-x="411" 
d="M262 -10c-10 0 -20 1 -29 2l-33 -52h6c65 0 108 -33 108 -82c0 -52 -48 -88 -125 -88c-40 0 -76 11 -97 27l20 40c15 -13 39 -21 67 -21c39 0 64 17 64 42c0 24 -24 39 -60 39c-16 0 -29 -3 -42 -8l-14 25l53 96c-45 26 -72 75 -72 137v303h-91v84h91v156h102v-156h176
v-84h-176v-282c0 -54 34 -90 84 -90c34 0 67 5 100 18v-82c-38 -17 -83 -24 -132 -24z" />
    <glyph glyph-name="uni021B" unicode="&#x21b;" horiz-adv-x="411" 
d="M294 78c34 0 67 5 100 18v-82c-38 -17 -83 -24 -132 -24c-92 0 -154 63 -154 157v303h-91v84h91v156h102v-156h176v-84h-176v-282c0 -54 34 -90 84 -90zM131 -220l49 168h93l-64 -168h-78z" />
    <glyph glyph-name="u" unicode="u" horiz-adv-x="628" 
d="M451 534h102v-534h-98l-2 77c-36 -56 -98 -87 -176 -87c-125 0 -208 83 -208 208v336h102v-319c0 -82 56 -137 140 -137s140 55 140 137v319z" />
    <glyph glyph-name="uacute" unicode="&#xfa;" horiz-adv-x="628" 
d="M501 774l-166 -155h-88l133 155h121zM451 534h102v-534h-98l-2 77c-36 -56 -98 -87 -176 -87c-125 0 -208 83 -208 208v336h102v-319c0 -82 56 -137 140 -137s140 55 140 137v319z" />
    <glyph glyph-name="ucircumflex" unicode="&#xfb;" horiz-adv-x="628" 
d="M311 717l-84 -98h-96l130 155h100l130 -155h-96zM451 534h102v-534h-98l-2 77c-36 -56 -98 -87 -176 -87c-125 0 -208 83 -208 208v336h102v-319c0 -82 56 -137 140 -137s140 55 140 137v319z" />
    <glyph glyph-name="udieresis" unicode="&#xfc;" horiz-adv-x="628" 
d="M200 645c-37 0 -64 27 -64 64s27 64 64 64c36 0 63 -27 63 -64s-27 -64 -63 -64zM423 645c-37 0 -64 27 -64 64s27 64 64 64c36 0 63 -27 63 -64s-27 -64 -63 -64zM451 534h102v-534h-98l-2 77c-36 -56 -98 -87 -176 -87c-125 0 -208 83 -208 208v336h102v-319
c0 -82 56 -137 140 -137s140 55 140 137v319z" />
    <glyph glyph-name="ugrave" unicode="&#xf9;" horiz-adv-x="628" 
d="M375 619h-89l-166 155h122zM451 534h102v-534h-98l-2 77c-36 -56 -98 -87 -176 -87c-125 0 -208 83 -208 208v336h102v-319c0 -82 56 -137 140 -137s140 55 140 137v319z" />
    <glyph glyph-name="uhungarumlaut" unicode="&#x171;" horiz-adv-x="628" 
d="M402 774l-139 -155h-89l106 155h122zM434 619h-88l106 155h121zM451 215v319h102v-534h-98l-2 77c-36 -56 -98 -87 -176 -87c-125 0 -208 83 -208 208v336h102v-319c0 -82 56 -137 140 -137s140 55 140 137z" />
    <glyph glyph-name="umacron" unicode="&#x16b;" horiz-adv-x="628" 
d="M477 717v-81h-331v81h331zM451 534h102v-534h-98l-2 77c-36 -56 -98 -87 -176 -87c-125 0 -208 83 -208 208v336h102v-319c0 -82 56 -137 140 -137s140 55 140 137v319z" />
    <glyph glyph-name="uogonek" unicode="&#x173;" horiz-adv-x="628" 
d="M546 -149l10 -53c-23 -18 -50 -28 -86 -28c-56 0 -94 33 -94 83c0 51 36 100 98 147h-19l-2 77c-36 -56 -98 -87 -176 -87c-125 0 -208 83 -208 208v336h102v-319c0 -82 56 -137 140 -137s140 55 140 137v319h102v-534c-68 -45 -101 -90 -101 -131c0 -23 16 -39 41 -39
c20 0 39 8 53 21z" />
    <glyph glyph-name="uring" unicode="&#x16f;" horiz-adv-x="628" 
d="M311 584c-68 0 -113 42 -113 107c0 63 45 106 113 106s113 -43 113 -106c0 -65 -45 -107 -113 -107zM311 748c-33 0 -56 -23 -56 -57c0 -35 23 -59 56 -59s55 24 55 59c0 34 -22 57 -55 57zM451 534h102v-534h-98l-2 77c-36 -56 -98 -87 -176 -87
c-125 0 -208 83 -208 208v336h102v-319c0 -82 56 -137 140 -137s140 55 140 137v319z" />
    <glyph glyph-name="v" unicode="v" horiz-adv-x="585" 
d="M241 0l-232 534h112l171 -417l172 417h111l-231 -534h-103z" />
    <glyph glyph-name="w" unicode="w" horiz-adv-x="916" 
d="M793 534h112l-202 -534h-103l-142 414l-142 -414h-103l-202 534h112l148 -417l144 417h86l144 -417z" />
    <glyph glyph-name="wacute" unicode="&#x1e83;" horiz-adv-x="916" 
d="M649 774l-166 -155h-88l133 155h121zM793 534h112l-202 -534h-103l-142 414l-142 -414h-103l-202 534h112l148 -417l144 417h86l144 -417z" />
    <glyph glyph-name="wcircumflex" unicode="&#x175;" horiz-adv-x="916" 
d="M459 717l-84 -98h-96l130 155h100l130 -155h-96zM793 534h112l-202 -534h-103l-142 414l-142 -414h-103l-202 534h112l148 -417l144 417h86l144 -417z" />
    <glyph glyph-name="wdieresis" unicode="&#x1e85;" horiz-adv-x="916" 
d="M348 645c-37 0 -64 27 -64 64s27 64 64 64c36 0 63 -27 63 -64s-27 -64 -63 -64zM571 645c-37 0 -64 27 -64 64s27 64 64 64c36 0 63 -27 63 -64s-27 -64 -63 -64zM793 534h112l-202 -534h-103l-142 414l-142 -414h-103l-202 534h112l148 -417l144 417h86l144 -417z" />
    <glyph glyph-name="wgrave" unicode="&#x1e81;" horiz-adv-x="916" 
d="M523 619h-89l-166 155h122zM793 534h112l-202 -534h-103l-142 414l-142 -414h-103l-202 534h112l148 -417l144 417h86l144 -417z" />
    <glyph glyph-name="x" unicode="x" horiz-adv-x="563" 
d="M554 0h-123l-149 203l-150 -203h-123l210 273l-198 261h123l138 -189l137 189h123l-198 -261z" />
    <glyph glyph-name="y" unicode="y" horiz-adv-x="584" 
d="M140 -230c-27 0 -54 5 -72 14l11 83c12 -6 27 -9 44 -9c45 0 63 29 85 71l37 80l-234 525h112l175 -414l167 414h112l-270 -618c-37 -89 -76 -146 -167 -146z" />
    <glyph glyph-name="yacute" unicode="&#xfd;" horiz-adv-x="584" 
d="M231 619l133 155h121l-166 -155h-88zM140 -230c-27 0 -54 5 -72 14l11 83c12 -6 27 -9 44 -9c45 0 63 29 85 71l37 80l-234 525h112l175 -414l167 414h112l-270 -618c-37 -89 -76 -146 -167 -146z" />
    <glyph glyph-name="ycircumflex" unicode="&#x177;" horiz-adv-x="584" 
d="M295 717l-84 -98h-96l130 155h100l130 -155h-96zM465 534h112l-270 -618c-37 -89 -76 -146 -167 -146c-27 0 -54 5 -72 14l11 83c12 -6 27 -9 44 -9c45 0 63 29 85 71l37 80l-234 525h112l175 -414z" />
    <glyph glyph-name="ydieresis" unicode="&#xff;" horiz-adv-x="584" 
d="M184 645c-37 0 -64 27 -64 64s27 64 64 64c36 0 63 -27 63 -64s-27 -64 -63 -64zM407 645c-37 0 -64 27 -64 64s27 64 64 64c36 0 63 -27 63 -64s-27 -64 -63 -64zM140 -230c-27 0 -54 5 -72 14l11 83c12 -6 27 -9 44 -9c45 0 63 29 85 71l37 80l-234 525h112l175 -414
l167 414h112l-270 -618c-37 -89 -76 -146 -167 -146z" />
    <glyph glyph-name="ygrave" unicode="&#x1ef3;" horiz-adv-x="584" 
d="M270 619l-166 155h122l133 -155h-89zM140 -230c-27 0 -54 5 -72 14l11 83c12 -6 27 -9 44 -9c45 0 63 29 85 71l37 80l-234 525h112l175 -414l167 414h112l-270 -618c-37 -89 -76 -146 -167 -146z" />
    <glyph glyph-name="z" unicode="z" horiz-adv-x="528" 
d="M38 0v66l298 384h-293v84h438v-66l-298 -383h310v-85h-455z" />
    <glyph glyph-name="zacute" unicode="&#x17a;" horiz-adv-x="528" 
d="M198 619l133 155h121l-166 -155h-88zM38 0v66l298 384h-293v84h438v-66l-298 -383h310v-85h-455z" />
    <glyph glyph-name="zcaron" unicode="&#x17e;" horiz-adv-x="528" 
d="M212 619l-130 155h96l84 -98l84 98h96l-130 -155h-100zM183 85h310v-85h-455v66l298 384h-293v84h438v-66z" />
    <glyph glyph-name="zdotaccent" unicode="&#x17c;" horiz-adv-x="528" 
d="M262 645c-37 0 -64 27 -64 64s27 64 64 64c36 0 63 -27 63 -64s-27 -64 -63 -64zM38 0v66l298 384h-293v84h438v-66l-298 -383h310v-85h-455z" />
    <glyph glyph-name="i.loclTRK" horiz-adv-x="255" 
d="M128 645c-37 0 -64 27 -64 64s27 64 64 64c36 0 63 -27 63 -64s-27 -64 -63 -64zM77 0v534h102v-534h-102z" />
    <glyph glyph-name="a.ss01" horiz-adv-x="672" 
d="M498 534h99v-534h-99l-2 98c-38 -66 -103 -108 -197 -108c-147 0 -256 110 -256 275c0 167 109 279 256 279c94 0 159 -42 197 -108zM322 78c103 0 173 75 173 189c0 113 -70 189 -173 189c-104 0 -173 -76 -173 -190c0 -113 69 -188 173 -188z" />
    <glyph glyph-name="aacute.ss01" horiz-adv-x="672" 
d="M520 774l-166 -155h-88l133 155h121zM498 534h99v-534h-99l-2 98c-38 -66 -103 -108 -197 -108c-147 0 -256 110 -256 275c0 167 109 279 256 279c94 0 159 -42 197 -108zM322 78c103 0 173 75 173 189c0 113 -70 189 -173 189c-104 0 -173 -76 -173 -190
c0 -113 69 -188 173 -188z" />
    <glyph glyph-name="abreve.ss01" horiz-adv-x="672" 
d="M330 610c-103 0 -171 65 -171 164h80c0 -62 36 -104 91 -104c54 0 91 42 91 104h79c0 -99 -68 -164 -170 -164zM498 534h99v-534h-99l-2 98c-38 -66 -103 -108 -197 -108c-147 0 -256 110 -256 275c0 167 109 279 256 279c94 0 159 -42 197 -108zM322 78
c103 0 173 75 173 189c0 113 -70 189 -173 189c-104 0 -173 -76 -173 -190c0 -113 69 -188 173 -188z" />
    <glyph glyph-name="acircumflex.ss01" horiz-adv-x="672" 
d="M330 717l-84 -98h-96l130 155h100l130 -155h-96zM498 534h99v-534h-99l-2 98c-38 -66 -103 -108 -197 -108c-147 0 -256 110 -256 275c0 167 109 279 256 279c94 0 159 -42 197 -108zM322 78c103 0 173 75 173 189c0 113 -70 189 -173 189c-104 0 -173 -76 -173 -190
c0 -113 69 -188 173 -188z" />
    <glyph glyph-name="adieresis.ss01" horiz-adv-x="672" 
d="M219 645c-37 0 -64 27 -64 64s27 64 64 64c36 0 63 -27 63 -64s-27 -64 -63 -64zM442 645c-37 0 -64 27 -64 64s27 64 64 64c36 0 63 -27 63 -64s-27 -64 -63 -64zM498 534h99v-534h-99l-2 98c-38 -66 -103 -108 -197 -108c-147 0 -256 110 -256 275
c0 167 109 279 256 279c94 0 159 -42 197 -108zM322 78c103 0 173 75 173 189c0 113 -70 189 -173 189c-104 0 -173 -76 -173 -190c0 -113 69 -188 173 -188z" />
    <glyph glyph-name="agrave.ss01" horiz-adv-x="672" 
d="M394 619h-89l-166 155h122zM498 534h99v-534h-99l-2 98c-38 -66 -103 -108 -197 -108c-147 0 -256 110 -256 275c0 167 109 279 256 279c94 0 159 -42 197 -108zM322 78c103 0 173 75 173 189c0 113 -70 189 -173 189c-104 0 -173 -76 -173 -190c0 -113 69 -188 173 -188
z" />
    <glyph glyph-name="amacron.ss01" horiz-adv-x="672" 
d="M496 717v-81h-331v81h331zM498 534h99v-534h-99l-2 98c-38 -66 -103 -108 -197 -108c-147 0 -256 110 -256 275c0 167 109 279 256 279c94 0 159 -42 197 -108zM322 78c103 0 173 75 173 189c0 113 -70 189 -173 189c-104 0 -173 -76 -173 -190c0 -113 69 -188 173 -188z
" />
    <glyph glyph-name="aogonek.ss01" horiz-adv-x="672" 
d="M590 -149l10 -53c-23 -18 -50 -28 -86 -28c-56 0 -94 33 -94 83c0 51 36 100 98 147h-20l-2 98c-38 -66 -103 -108 -197 -108c-147 0 -256 110 -256 275c0 167 109 279 256 279c94 0 159 -42 197 -108l2 98h99v-534c-68 -45 -101 -90 -101 -131c0 -23 16 -39 41 -39
c20 0 39 8 53 21zM322 78c103 0 173 75 173 189c0 113 -70 189 -173 189c-104 0 -173 -76 -173 -190c0 -113 69 -188 173 -188z" />
    <glyph glyph-name="aring.ss01" horiz-adv-x="672" 
d="M330 584c-68 0 -113 42 -113 107c0 63 45 106 113 106s113 -43 113 -106c0 -65 -45 -107 -113 -107zM330 748c-33 0 -56 -23 -56 -57c0 -35 23 -59 56 -59s55 24 55 59c0 34 -22 57 -55 57zM498 534h99v-534h-99l-2 98c-38 -66 -103 -108 -197 -108
c-147 0 -256 110 -256 275c0 167 109 279 256 279c94 0 159 -42 197 -108zM322 78c103 0 173 75 173 189c0 113 -70 189 -173 189c-104 0 -173 -76 -173 -190c0 -113 69 -188 173 -188z" />
    <glyph glyph-name="atilde.ss01" horiz-adv-x="672" 
d="M249 688c-28 0 -48 -21 -48 -55h-58c0 79 43 130 105 130c68 0 112 -64 161 -64c28 0 48 20 48 54h58c0 -81 -43 -130 -105 -130c-65 0 -112 65 -161 65zM498 534h99v-534h-99l-2 98c-38 -66 -103 -108 -197 -108c-147 0 -256 110 -256 275c0 167 109 279 256 279
c94 0 159 -42 197 -108zM322 78c103 0 173 75 173 189c0 113 -70 189 -173 189c-104 0 -173 -76 -173 -190c0 -113 69 -188 173 -188z" />
    <glyph glyph-name="f.ss01" horiz-adv-x="354" 
d="M270 702c-55 0 -92 -34 -92 -86v-82h162v-84h-162v-450h-102v632c0 95 65 158 163 158c42 0 82 -6 113 -21l-8 -80c-22 10 -46 13 -74 13z" />
    <glyph glyph-name="j.ss01" horiz-adv-x="255" 
d="M127 645c-36 0 -64 27 -64 64s28 64 64 64c37 0 64 -27 64 -64s-27 -64 -64 -64zM77 -220v754h102v-754h-102z" />
    <glyph glyph-name="t.ss01" horiz-adv-x="373" 
d="M257 78c34 0 67 5 100 18v-82c-38 -17 -84 -24 -133 -24c-92 0 -153 63 -153 157v543h102v-156h176v-84h-176v-282c0 -54 34 -90 84 -90z" />
    <glyph glyph-name="tbar.ss01" horiz-adv-x="374" 
d="M257 78c34 0 67 5 100 18v-82c-38 -17 -84 -24 -133 -24c-92 0 -153 63 -153 157v543h102v-156h176v-84h-176v-135h166v-74h-166v-73c0 -54 34 -90 84 -90z" />
    <glyph glyph-name="tcaron.ss01" horiz-adv-x="373" 
d="M392 780l-69 -187h-78l54 187h93zM173 168c0 -54 34 -90 84 -90c34 0 67 5 100 18v-82c-38 -17 -84 -24 -133 -24c-92 0 -153 63 -153 157v543h102v-156h176v-84h-176v-282z" />
    <glyph glyph-name="uni0163.ss01" horiz-adv-x="373" 
d="M224 -10c-10 0 -20 1 -29 2l-33 -52h6c66 0 109 -33 109 -82c0 -52 -49 -88 -125 -88c-40 0 -77 11 -98 27l20 40c15 -13 39 -21 67 -21c40 0 64 17 64 42c0 24 -24 39 -60 39c-15 0 -29 -3 -41 -8l-15 25l54 96c-45 26 -72 74 -72 137v543h102v-156h176v-84h-176v-282
c0 -54 34 -90 84 -90c34 0 67 5 100 18v-82c-38 -17 -84 -24 -133 -24z" />
    <glyph glyph-name="uni021B.ss01" horiz-adv-x="373" 
d="M257 78c34 0 67 5 100 18v-82c-38 -17 -84 -24 -133 -24c-92 0 -153 63 -153 157v543h102v-156h176v-84h-176v-282c0 -54 34 -90 84 -90zM99 -220l49 168h93l-64 -168h-78z" />
    <glyph glyph-name="u.ss01" horiz-adv-x="621" 
d="M311 -10c-146 0 -242 87 -242 218v326h102v-319c0 -82 55 -137 140 -137c84 0 139 55 139 137v319h102v-326c0 -131 -96 -218 -241 -218z" />
    <glyph glyph-name="uacute.ss01" horiz-adv-x="621" 
d="M247 619l133 155h121l-166 -155h-88zM311 -10c-146 0 -242 87 -242 218v326h102v-319c0 -82 55 -137 140 -137c84 0 139 55 139 137v319h102v-326c0 -131 -96 -218 -241 -218z" />
    <glyph glyph-name="ucircumflex.ss01" horiz-adv-x="621" 
d="M311 717l-84 -98h-96l130 155h100l130 -155h-96zM450 534h102v-326c0 -131 -96 -218 -241 -218c-146 0 -242 87 -242 218v326h102v-319c0 -82 55 -137 140 -137c84 0 139 55 139 137v319z" />
    <glyph glyph-name="udieresis.ss01" horiz-adv-x="621" 
d="M200 645c-37 0 -64 27 -64 64s27 64 64 64c36 0 63 -27 63 -64s-27 -64 -63 -64zM423 645c-37 0 -64 27 -64 64s27 64 64 64c36 0 63 -27 63 -64s-27 -64 -63 -64zM311 -10c-146 0 -242 87 -242 218v326h102v-319c0 -82 55 -137 140 -137c84 0 139 55 139 137v319h102
v-326c0 -131 -96 -218 -241 -218z" />
    <glyph glyph-name="ugrave.ss01" horiz-adv-x="621" 
d="M286 619l-166 155h122l133 -155h-89zM311 -10c-146 0 -242 87 -242 218v326h102v-319c0 -82 55 -137 140 -137c84 0 139 55 139 137v319h102v-326c0 -131 -96 -218 -241 -218z" />
    <glyph glyph-name="uhungarumlaut.ss01" horiz-adv-x="621" 
d="M174 619l106 155h122l-139 -155h-89zM346 619l106 155h121l-139 -155h-88zM311 -10c-146 0 -242 87 -242 218v326h102v-319c0 -82 55 -137 140 -137c84 0 139 55 139 137v319h102v-326c0 -131 -96 -218 -241 -218z" />
    <glyph glyph-name="umacron.ss01" horiz-adv-x="621" 
d="M146 636v81h331v-81h-331zM311 -10c-146 0 -242 87 -242 218v326h102v-319c0 -82 55 -137 140 -137c84 0 139 55 139 137v319h102v-326c0 -131 -96 -218 -241 -218z" />
    <glyph glyph-name="uogonek.ss01" horiz-adv-x="621" 
d="M450 534h102v-326c0 -105 -62 -182 -161 -208c-68 -45 -101 -90 -101 -131c0 -23 16 -39 41 -39c20 0 39 8 53 21l10 -53c-23 -18 -50 -28 -86 -28c-56 0 -94 33 -94 83c0 48 31 94 86 137c-140 5 -231 90 -231 218v326h102v-319c0 -82 55 -137 140 -137
c84 0 139 55 139 137v319z" />
    <glyph glyph-name="uring.ss01" horiz-adv-x="621" 
d="M311 584c-68 0 -113 42 -113 107c0 63 45 106 113 106s113 -43 113 -106c0 -65 -45 -107 -113 -107zM311 632c33 0 55 24 55 59c0 34 -22 57 -55 57s-56 -23 -56 -57c0 -35 23 -59 56 -59zM311 -10c-146 0 -242 87 -242 218v326h102v-319c0 -82 55 -137 140 -137
c84 0 139 55 139 137v319h102v-326c0 -131 -96 -218 -241 -218z" />
    <glyph glyph-name="y.ss01" horiz-adv-x="628" 
d="M451 534h102v-490c0 -165 -110 -274 -275 -274c-86 0 -159 23 -214 69l22 81c53 -41 114 -62 189 -62c106 0 176 75 176 189v27c-37 -54 -97 -84 -174 -84c-125 0 -208 83 -208 208v336h102v-319c0 -82 56 -137 140 -137s140 55 140 137v319z" />
    <glyph glyph-name="yacute.ss01" horiz-adv-x="628" 
d="M496 774l-166 -155h-88l133 155h121zM451 534h102v-490c0 -165 -110 -274 -275 -274c-86 0 -159 23 -214 69l22 81c53 -41 114 -62 189 -62c106 0 176 75 176 189v27c-37 -54 -97 -84 -174 -84c-125 0 -208 83 -208 208v336h102v-319c0 -82 56 -137 140 -137
s140 55 140 137v319z" />
    <glyph glyph-name="ycircumflex.ss01" horiz-adv-x="628" 
d="M306 717l-84 -98h-96l130 155h100l130 -155h-96zM451 534h102v-490c0 -165 -110 -274 -275 -274c-86 0 -159 23 -214 69l22 81c53 -41 114 -62 189 -62c106 0 176 75 176 189v27c-37 -54 -97 -84 -174 -84c-125 0 -208 83 -208 208v336h102v-319c0 -82 56 -137 140 -137
s140 55 140 137v319z" />
    <glyph glyph-name="ydieresis.ss01" horiz-adv-x="628" 
d="M195 645c-37 0 -64 27 -64 64s27 64 64 64c36 0 63 -27 63 -64s-27 -64 -63 -64zM418 645c-37 0 -64 27 -64 64s27 64 64 64c36 0 63 -27 63 -64s-27 -64 -63 -64zM451 534h102v-490c0 -165 -110 -274 -275 -274c-86 0 -159 23 -214 69l22 81c53 -41 114 -62 189 -62
c106 0 176 75 176 189v27c-37 -54 -97 -84 -174 -84c-125 0 -208 83 -208 208v336h102v-319c0 -82 56 -137 140 -137s140 55 140 137v319z" />
    <glyph glyph-name="ygrave.ss01" horiz-adv-x="628" 
d="M370 619h-89l-166 155h122zM451 534h102v-490c0 -165 -110 -274 -275 -274c-86 0 -159 23 -214 69l22 81c53 -41 114 -62 189 -62c106 0 176 75 176 189v27c-37 -54 -97 -84 -174 -84c-125 0 -208 83 -208 208v336h102v-319c0 -82 56 -137 140 -137s140 55 140 137v319z
" />
    <glyph glyph-name="a.ss02" horiz-adv-x="573" 
d="M69 534h428v-534h-99l-2 94c-37 -67 -106 -104 -181 -104c-108 0 -180 64 -180 160c0 100 89 166 222 166c44 0 92 -5 138 -15v152h-326v81zM243 64c74 0 151 61 152 167c-42 9 -87 14 -125 14c-78 0 -129 -37 -129 -92c0 -54 37 -89 102 -89z" />
    <glyph glyph-name="aacute.ss02" horiz-adv-x="573" 
d="M476 774l-166 -155h-88l133 155h121zM69 534h428v-534h-99l-2 94c-37 -67 -106 -104 -181 -104c-108 0 -180 64 -180 160c0 100 89 166 222 166c44 0 92 -5 138 -15v152h-326v81zM243 64c74 0 151 61 152 167c-42 9 -87 14 -125 14c-78 0 -129 -37 -129 -92
c0 -54 37 -89 102 -89z" />
    <glyph glyph-name="abreve.ss02" horiz-adv-x="573" 
d="M286 610c-103 0 -171 65 -171 164h80c0 -62 36 -104 91 -104c54 0 91 42 91 104h79c0 -99 -68 -164 -170 -164zM69 534h428v-534h-99l-2 94c-37 -67 -106 -104 -181 -104c-108 0 -180 64 -180 160c0 100 89 166 222 166c44 0 92 -5 138 -15v152h-326v81zM243 64
c74 0 151 61 152 167c-42 9 -87 14 -125 14c-78 0 -129 -37 -129 -92c0 -54 37 -89 102 -89z" />
    <glyph glyph-name="acircumflex.ss02" horiz-adv-x="573" 
d="M286 717l-84 -98h-96l130 155h100l130 -155h-96zM69 534h428v-534h-99l-2 94c-37 -67 -106 -104 -181 -104c-108 0 -180 64 -180 160c0 100 89 166 222 166c44 0 92 -5 138 -15v152h-326v81zM243 64c74 0 151 61 152 167c-42 9 -87 14 -125 14c-78 0 -129 -37 -129 -92
c0 -54 37 -89 102 -89z" />
    <glyph glyph-name="adieresis.ss02" horiz-adv-x="573" 
d="M175 645c-37 0 -64 27 -64 64s27 64 64 64c36 0 63 -27 63 -64s-27 -64 -63 -64zM398 645c-37 0 -64 27 -64 64s27 64 64 64c36 0 63 -27 63 -64s-27 -64 -63 -64zM69 534h428v-534h-99l-2 94c-37 -67 -106 -104 -181 -104c-108 0 -180 64 -180 160c0 100 89 166 222 166
c44 0 92 -5 138 -15v152h-326v81zM243 64c74 0 151 61 152 167c-42 9 -87 14 -125 14c-78 0 -129 -37 -129 -92c0 -54 37 -89 102 -89z" />
    <glyph glyph-name="agrave.ss02" horiz-adv-x="573" 
d="M350 619h-89l-166 155h122zM69 534h428v-534h-99l-2 94c-37 -67 -106 -104 -181 -104c-108 0 -180 64 -180 160c0 100 89 166 222 166c44 0 92 -5 138 -15v152h-326v81zM243 64c74 0 151 61 152 167c-42 9 -87 14 -125 14c-78 0 -129 -37 -129 -92c0 -54 37 -89 102 -89z
" />
    <glyph glyph-name="amacron.ss02" horiz-adv-x="573" 
d="M452 717v-81h-331v81h331zM69 534h428v-534h-99l-2 94c-37 -67 -106 -104 -181 -104c-108 0 -180 64 -180 160c0 100 89 166 222 166c44 0 92 -5 138 -15v152h-326v81zM243 64c74 0 151 61 152 167c-42 9 -87 14 -125 14c-78 0 -129 -37 -129 -92c0 -54 37 -89 102 -89z
" />
    <glyph glyph-name="aogonek.ss02" horiz-adv-x="573" 
d="M490 -149l10 -53c-23 -18 -50 -28 -86 -28c-56 0 -94 33 -94 83c0 51 36 100 98 147h-20l-2 94c-37 -67 -106 -104 -181 -104c-108 0 -180 64 -180 160c0 100 89 166 222 166c44 0 92 -5 138 -15v152h-326v81h428v-534c-68 -45 -101 -90 -101 -131c0 -23 16 -39 41 -39
c20 0 39 8 53 21zM243 64c74 0 151 61 152 167c-42 9 -87 14 -125 14c-78 0 -129 -37 -129 -92c0 -54 37 -89 102 -89z" />
    <glyph glyph-name="aring.ss02" horiz-adv-x="573" 
d="M286 584c-68 0 -113 42 -113 107c0 63 45 106 113 106s113 -43 113 -106c0 -65 -45 -107 -113 -107zM286 748c-33 0 -56 -23 -56 -57c0 -35 23 -59 56 -59s55 24 55 59c0 34 -22 57 -55 57zM69 534h428v-534h-99l-2 94c-37 -67 -106 -104 -181 -104
c-108 0 -180 64 -180 160c0 100 89 166 222 166c44 0 92 -5 138 -15v152h-326v81zM243 64c74 0 151 61 152 167c-42 9 -87 14 -125 14c-78 0 -129 -37 -129 -92c0 -54 37 -89 102 -89z" />
    <glyph glyph-name="atilde.ss02" horiz-adv-x="573" 
d="M205 688c-28 0 -48 -21 -48 -55h-58c0 79 43 130 105 130c68 0 112 -64 161 -64c28 0 48 20 48 54h58c0 -81 -43 -130 -105 -130c-65 0 -112 65 -161 65zM69 534h428v-534h-99l-2 94c-37 -67 -106 -104 -181 -104c-108 0 -180 64 -180 160c0 100 89 166 222 166
c44 0 92 -5 138 -15v152h-326v81zM243 64c74 0 151 61 152 167c-42 9 -87 14 -125 14c-78 0 -129 -37 -129 -92c0 -54 37 -89 102 -89z" />
    <glyph glyph-name="c.ss02" horiz-adv-x="484" 
d="M319 -10c-166 0 -276 111 -276 277s110 277 276 277c42 0 84 -13 116 -34v-96c-27 26 -68 42 -111 42c-105 0 -175 -76 -175 -189s70 -189 175 -189c45 0 86 16 114 44v-96c-31 -23 -76 -36 -119 -36z" />
    <glyph glyph-name="cacute.ss02" horiz-adv-x="484" 
d="M244 619l133 155h121l-166 -155h-88zM319 -10c-166 0 -276 111 -276 277s110 277 276 277c42 0 84 -13 116 -34v-96c-27 26 -68 42 -111 42c-105 0 -175 -76 -175 -189s70 -189 175 -189c45 0 86 16 114 44v-96c-31 -23 -76 -36 -119 -36z" />
    <glyph glyph-name="ccaron.ss02" horiz-adv-x="484" 
d="M258 619l-130 155h96l84 -98l84 98h96l-130 -155h-100zM149 267c0 -113 70 -189 175 -189c45 0 86 16 114 44v-96c-31 -23 -76 -36 -119 -36c-166 0 -276 111 -276 277s110 277 276 277c42 0 84 -13 116 -34v-96c-27 26 -68 42 -111 42c-105 0 -175 -76 -175 -189z" />
    <glyph glyph-name="ccedilla.ss02" horiz-adv-x="484" 
d="M438 26c-29 -21 -69 -34 -109 -36l-32 -50h6c66 0 108 -33 108 -82c0 -52 -48 -88 -125 -88c-40 0 -76 11 -97 27l20 40c15 -13 39 -21 67 -21c40 0 64 17 64 42c0 24 -24 39 -60 39c-15 0 -29 -3 -42 -8l-14 25l46 79c-138 20 -227 125 -227 274c0 166 110 277 276 277
c42 0 84 -13 116 -34v-96c-27 26 -68 42 -111 42c-105 0 -175 -76 -175 -189s70 -189 175 -189c45 0 86 16 114 44v-96z" />
    <glyph glyph-name="cdotaccent.ss02" horiz-adv-x="484" 
d="M308 645c-37 0 -64 27 -64 64s27 64 64 64c36 0 63 -27 63 -64s-27 -64 -63 -64zM319 -10c-166 0 -276 111 -276 277s110 277 276 277c42 0 84 -13 116 -34v-96c-27 26 -68 42 -111 42c-105 0 -175 -76 -175 -189s70 -189 175 -189c45 0 86 16 114 44v-96
c-31 -23 -76 -36 -119 -36z" />
    <glyph glyph-name="f.ss02" horiz-adv-x="390" 
d="M385 696h-170v-162h162v-84h-162v-450h-102v450h-90v84h90v246h272v-84z" />
    <glyph glyph-name="g.ss02" horiz-adv-x="672" 
d="M499 534h99v-754h-529v84h427v232c-38 -65 -102 -106 -196 -106c-147 0 -256 112 -256 279c0 165 109 275 256 275c94 0 159 -42 197 -108zM323 78c103 0 173 76 173 189s-70 189 -173 189c-104 0 -173 -75 -173 -188c0 -114 69 -190 173 -190z" />
    <glyph glyph-name="gbreve.ss02" horiz-adv-x="672" 
d="M333 610c-103 0 -171 65 -171 164h80c0 -62 36 -104 91 -104c54 0 91 42 91 104h79c0 -99 -68 -164 -170 -164zM499 534h99v-754h-529v84h427v232c-38 -65 -102 -106 -196 -106c-147 0 -256 112 -256 279c0 165 109 275 256 275c94 0 159 -42 197 -108zM323 78
c103 0 173 76 173 189s-70 189 -173 189c-104 0 -173 -75 -173 -188c0 -114 69 -190 173 -190z" />
    <glyph glyph-name="gcommaaccent.ss02" horiz-adv-x="672" 
d="M420 780l-54 -187h-93l69 187h78zM499 534h99v-754h-529v84h427v232c-38 -65 -102 -106 -196 -106c-147 0 -256 112 -256 279c0 165 109 275 256 275c94 0 159 -42 197 -108zM323 78c103 0 173 76 173 189s-70 189 -173 189c-104 0 -173 -75 -173 -188
c0 -114 69 -190 173 -190z" />
    <glyph glyph-name="gdotaccent.ss02" horiz-adv-x="672" 
d="M333 645c-37 0 -64 27 -64 64s27 64 64 64c36 0 63 -27 63 -64s-27 -64 -63 -64zM499 534h99v-754h-529v84h427v232c-38 -65 -102 -106 -196 -106c-147 0 -256 112 -256 279c0 165 109 275 256 275c94 0 159 -42 197 -108zM323 78c103 0 173 76 173 189s-70 189 -173 189
c-104 0 -173 -75 -173 -188c0 -114 69 -190 173 -190z" />
    <glyph glyph-name="j.ss02" horiz-adv-x="255" 
d="M127 645c-36 0 -64 27 -64 64s28 64 64 64c37 0 64 -27 64 -64s-27 -64 -64 -64zM77 -220v754h102v-754h-102z" />
    <glyph glyph-name="l.ss02" horiz-adv-x="298" 
d="M78 0v780h102v-695h106v-85h-208z" />
    <glyph glyph-name="lacute.ss02" horiz-adv-x="298" 
d="M65 865l133 155h121l-166 -155h-88zM78 0v780h102v-695h106v-85h-208z" />
    <glyph glyph-name="lcaron.ss02" horiz-adv-x="309" 
d="M78 0v780h102v-695h106v-85h-208zM228 593l54 187h93l-69 -187h-78z" />
    <glyph glyph-name="lcommaaccent.ss02" horiz-adv-x="298" 
d="M78 0v780h102v-695h106v-85h-208zM86 -220l49 168h93l-64 -168h-78z" />
    <glyph glyph-name="lslash.ss02" horiz-adv-x="298" 
d="M180 85h106v-85h-208v323l-89 -63v84l89 62v374h102v-315l89 62v-84l-89 -62v-296z" />
    <glyph glyph-name="t.ss02" horiz-adv-x="371" 
d="M366 534v-84h-124v-450h-102v450h-123v84h123v156h102v-156h124z" />
    <glyph glyph-name="tbar.ss02" horiz-adv-x="373" 
d="M366 450h-124v-150h111v-75h-111v-225h-102v225h-109v75h109v150h-123v84h123v156h102v-156h124v-84z" />
    <glyph glyph-name="tcaron.ss02" horiz-adv-x="371" 
d="M368 780h93l-69 -187h-78zM242 690v-156h124v-84h-124v-450h-102v450h-123v84h123v156h102z" />
    <glyph glyph-name="uni0163.ss02" horiz-adv-x="371" 
d="M242 0h-20l-38 -60h7c66 0 109 -33 109 -82c0 -52 -49 -88 -125 -88c-40 0 -77 11 -98 27l20 40c15 -13 39 -21 67 -21c40 0 64 17 64 42c0 24 -24 39 -60 39c-15 0 -29 -3 -41 -8l-15 25l51 86h-23v450h-123v84h123v156h102v-156h124v-84h-124v-450z" />
    <glyph glyph-name="uni021B.ss02" horiz-adv-x="371" 
d="M366 534v-84h-124v-450h-102v450h-123v84h123v156h102v-156h124zM99 -220l49 168h93l-64 -168h-78z" />
    <glyph glyph-name="u.ss02" horiz-adv-x="621" 
d="M311 -10c-146 0 -242 87 -242 218v326h102v-319c0 -82 55 -137 140 -137c84 0 139 55 139 137v319h102v-326c0 -131 -96 -218 -241 -218z" />
    <glyph glyph-name="uacute.ss02" horiz-adv-x="621" 
d="M247 619l133 155h121l-166 -155h-88zM311 -10c-146 0 -242 87 -242 218v326h102v-319c0 -82 55 -137 140 -137c84 0 139 55 139 137v319h102v-326c0 -131 -96 -218 -241 -218z" />
    <glyph glyph-name="ucircumflex.ss02" horiz-adv-x="621" 
d="M311 717l-84 -98h-96l130 155h100l130 -155h-96zM450 534h102v-326c0 -131 -96 -218 -241 -218c-146 0 -242 87 -242 218v326h102v-319c0 -82 55 -137 140 -137c84 0 139 55 139 137v319z" />
    <glyph glyph-name="udieresis.ss02" horiz-adv-x="621" 
d="M200 645c-37 0 -64 27 -64 64s27 64 64 64c36 0 63 -27 63 -64s-27 -64 -63 -64zM423 645c-37 0 -64 27 -64 64s27 64 64 64c36 0 63 -27 63 -64s-27 -64 -63 -64zM311 -10c-146 0 -242 87 -242 218v326h102v-319c0 -82 55 -137 140 -137c84 0 139 55 139 137v319h102
v-326c0 -131 -96 -218 -241 -218z" />
    <glyph glyph-name="ugrave.ss02" horiz-adv-x="621" 
d="M286 619l-166 155h122l133 -155h-89zM311 -10c-146 0 -242 87 -242 218v326h102v-319c0 -82 55 -137 140 -137c84 0 139 55 139 137v319h102v-326c0 -131 -96 -218 -241 -218z" />
    <glyph glyph-name="uhungarumlaut.ss02" horiz-adv-x="621" 
d="M174 619l106 155h122l-139 -155h-89zM346 619l106 155h121l-139 -155h-88zM311 -10c-146 0 -242 87 -242 218v326h102v-319c0 -82 55 -137 140 -137c84 0 139 55 139 137v319h102v-326c0 -131 -96 -218 -241 -218z" />
    <glyph glyph-name="umacron.ss02" horiz-adv-x="621" 
d="M146 636v81h331v-81h-331zM311 -10c-146 0 -242 87 -242 218v326h102v-319c0 -82 55 -137 140 -137c84 0 139 55 139 137v319h102v-326c0 -131 -96 -218 -241 -218z" />
    <glyph glyph-name="uogonek.ss02" horiz-adv-x="621" 
d="M450 534h102v-326c0 -105 -62 -182 -161 -208c-68 -45 -101 -90 -101 -131c0 -23 16 -39 41 -39c20 0 39 8 53 21l10 -53c-23 -18 -50 -28 -86 -28c-56 0 -94 33 -94 83c0 48 31 94 86 137c-140 5 -231 90 -231 218v326h102v-319c0 -82 55 -137 140 -137
c84 0 139 55 139 137v319z" />
    <glyph glyph-name="uring.ss02" horiz-adv-x="621" 
d="M311 584c-68 0 -113 42 -113 107c0 63 45 106 113 106s113 -43 113 -106c0 -65 -45 -107 -113 -107zM311 632c33 0 55 24 55 59c0 34 -22 57 -55 57s-56 -23 -56 -57c0 -35 23 -59 56 -59zM311 -10c-146 0 -242 87 -242 218v326h102v-319c0 -82 55 -137 140 -137
c84 0 139 55 139 137v319h102v-326c0 -131 -96 -218 -241 -218z" />
    <glyph glyph-name="y.ss02" horiz-adv-x="628" 
d="M451 534h102v-754h-479v84h377v210c-37 -54 -97 -84 -174 -84c-125 0 -208 83 -208 208v336h102v-319c0 -82 56 -137 140 -137s140 55 140 137v319z" />
    <glyph glyph-name="yacute.ss02" horiz-adv-x="628" 
d="M501 774l-166 -155h-88l133 155h121zM451 534h102v-754h-479v84h377v210c-37 -54 -97 -84 -174 -84c-125 0 -208 83 -208 208v336h102v-319c0 -82 56 -137 140 -137s140 55 140 137v319z" />
    <glyph glyph-name="ycircumflex.ss02" horiz-adv-x="628" 
d="M311 717l-84 -98h-96l130 155h100l130 -155h-96zM451 534h102v-754h-479v84h377v210c-37 -54 -97 -84 -174 -84c-125 0 -208 83 -208 208v336h102v-319c0 -82 56 -137 140 -137s140 55 140 137v319z" />
    <glyph glyph-name="ydieresis.ss02" horiz-adv-x="628" 
d="M200 645c-37 0 -64 27 -64 64s27 64 64 64c36 0 63 -27 63 -64s-27 -64 -63 -64zM423 645c-37 0 -64 27 -64 64s27 64 64 64c36 0 63 -27 63 -64s-27 -64 -63 -64zM451 534h102v-754h-479v84h377v210c-37 -54 -97 -84 -174 -84c-125 0 -208 83 -208 208v336h102v-319
c0 -82 56 -137 140 -137s140 55 140 137v319z" />
    <glyph glyph-name="ygrave.ss02" horiz-adv-x="628" 
d="M375 619h-89l-166 155h122zM451 534h102v-754h-479v84h377v210c-37 -54 -97 -84 -174 -84c-125 0 -208 83 -208 208v336h102v-319c0 -82 56 -137 140 -137s140 55 140 137v319z" />
    <glyph glyph-name="z.ss02" horiz-adv-x="511" 
d="M32 0l284 450h-280v84h438l-284 -449h289v-85h-447z" />
    <glyph glyph-name="zacute.ss02" horiz-adv-x="511" 
d="M192 619l133 155h121l-166 -155h-88zM32 0l284 450h-280v84h438l-284 -449h289v-85h-447z" />
    <glyph glyph-name="zcaron.ss02" horiz-adv-x="511" 
d="M206 619l-130 155h96l84 -98l84 98h96l-130 -155h-100zM190 85h289v-85h-447l284 450h-280v84h438z" />
    <glyph glyph-name="zdotaccent.ss02" horiz-adv-x="511" 
d="M256 645c-37 0 -64 27 -64 64s27 64 64 64c36 0 63 -27 63 -64s-27 -64 -63 -64zM32 0l284 450h-280v84h438l-284 -449h289v-85h-447z" />
    <glyph glyph-name="fi.ss01" horiz-adv-x="609" 
d="M76 632c0 95 65 158 163 158c42 0 82 -6 113 -21l-8 -80c-22 10 -46 13 -74 13c-55 0 -92 -34 -92 -86v-82h162v-84h-162v-450h-102v632zM482 645c-37 0 -64 27 -64 64s27 64 64 64c36 0 63 -27 63 -64s-27 -64 -63 -64zM431 0v534h102v-534h-102z" />
    <glyph glyph-name="fl.ss01" horiz-adv-x="612" 
d="M76 632c0 95 65 158 163 158c42 0 82 -6 113 -21l-8 -80c-22 10 -46 13 -74 13c-55 0 -92 -34 -92 -86v-82h162v-84h-162v-450h-102v632zM432 780h102v-780h-102v780z" />
    <glyph glyph-name="fi.ss02" horiz-adv-x="645" 
d="M113 534v246h272v-84h-170v-162h162v-84h-162v-450h-102v450h-90v84h90zM518 645c-37 0 -64 27 -64 64s27 64 64 64c36 0 63 -27 63 -64s-27 -64 -63 -64zM467 0v534h102v-534h-102z" />
    <glyph glyph-name="fl.ss02" horiz-adv-x="688" 
d="M113 534v246h272v-84h-170v-162h162v-84h-162v-450h-102v450h-90v84h90zM570 85h106v-85h-208v780h102v-695z" />
    <glyph glyph-name="ordfeminine" unicode="&#xaa;" horiz-adv-x="397" 
d="M194 750c81 0 135 -49 135 -125v-202h-65l-1 54c-22 -38 -62 -60 -106 -60c-65 0 -109 39 -109 97c0 61 54 101 135 101c25 0 53 -4 80 -9v12c0 50 -32 80 -85 80c-34 0 -59 -10 -80 -30l-30 40c33 27 72 42 126 42zM176 465c43 0 87 35 87 96c-24 5 -50 8 -72 8
c-45 0 -74 -21 -74 -53c0 -31 21 -51 59 -51z" />
    <glyph glyph-name="ordmasculine" unicode="&#xba;" horiz-adv-x="428" 
d="M215 417c-102 0 -169 67 -169 167s67 166 169 166c100 0 168 -66 168 -166s-68 -167 -168 -167zM215 474c59 0 99 44 99 110c0 65 -40 110 -99 110c-60 0 -101 -45 -101 -110c0 -66 41 -110 101 -110z" />
    <glyph glyph-name="uni0394" unicode="&#x394;" horiz-adv-x="805" 
d="M453 740l320 -740h-740l320 740h100zM183 88h439l-219 521z" />
    <glyph glyph-name="uni03A9" unicode="&#x3a9;" horiz-adv-x="790" 
d="M541 158v-70h188v-88h-274v228c106 23 174 101 174 213c0 133 -94 221 -234 221s-233 -88 -233 -221c0 -111 67 -190 174 -213v-228h-274v88h188v70c-124 45 -199 147 -199 283c0 185 138 309 344 309s343 -124 343 -309c0 -136 -74 -238 -197 -283z" />
    <glyph glyph-name="uni03BC" unicode="&#x3bc;" horiz-adv-x="635" 
d="M457 534h102v-534h-98l-2 67c-30 -50 -79 -77 -142 -77c-60 0 -108 26 -139 73v-283h-102v754h102v-319c0 -82 55 -137 139 -137c85 0 140 55 140 137v319z" />
    <glyph glyph-name="pi" unicode="&#x3c0;" horiz-adv-x="691" 
d="M646 450h-111v-319c0 -32 20 -53 47 -53c22 0 44 5 64 18v-82c-27 -17 -60 -24 -95 -24c-70 0 -118 48 -118 120v340h-195v-450h-102v450h-108v84h618v-84z" />
    <glyph glyph-name="zero" unicode="0" horiz-adv-x="633" 
d="M317 -10c-163 0 -271 152 -271 380s108 380 271 380s271 -152 271 -380s-108 -380 -271 -380zM317 78c97 0 160 117 160 292s-63 292 -160 292s-161 -117 -161 -292s64 -292 161 -292z" />
    <glyph glyph-name="one" unicode="1" horiz-adv-x="429" 
d="M229 0v602l-166 -119l-54 77l245 180h81v-740h-106z" />
    <glyph glyph-name="two" unicode="2" horiz-adv-x="577" 
d="M44 0v67l226 245c50 54 140 143 140 234c0 71 -49 116 -122 116c-78 0 -128 -53 -128 -130l-109 9c0 126 94 209 235 209c139 0 232 -77 232 -195c0 -113 -84 -205 -178 -304l-156 -164l344 1v-88h-484z" />
    <glyph glyph-name="three" unicode="3" horiz-adv-x="572" 
d="M291 437c141 0 235 -88 235 -217c0 -138 -105 -230 -270 -230c-91 0 -174 28 -220 79l41 78c38 -45 97 -69 167 -69c105 0 172 57 172 141c0 83 -65 136 -164 136c-39 0 -76 -8 -108 -24l-28 54l238 267h-287v88h427v-67l-222 -237c6 1 13 1 19 1z" />
    <glyph glyph-name="four" unicode="4" horiz-adv-x="625" 
d="M377 0v152h-355v75l377 513h84v-500h108v-88h-108v-152h-106zM146 238h234l2 322z" />
    <glyph glyph-name="five" unicode="5" horiz-adv-x="580" 
d="M250 -10c-92 0 -167 23 -218 67l31 78c45 -39 109 -57 177 -57c110 0 183 61 183 152c0 83 -57 138 -144 138c-46 0 -90 -12 -124 -32l-72 10l51 394h364v-88h-272l-31 -209c30 8 65 14 103 14c139 0 236 -88 236 -220c0 -148 -116 -247 -284 -247z" />
    <glyph glyph-name="six" unicode="6" horiz-adv-x="575" 
d="M313 450c128 0 227 -90 227 -226c0 -140 -99 -234 -248 -234c-150 0 -249 93 -249 232c0 76 24 134 67 195l223 323h120l-214 -298c21 5 46 8 74 8zM291 78c83 0 139 58 139 145s-56 145 -139 145s-138 -58 -138 -145s55 -145 138 -145z" />
    <glyph glyph-name="seven" unicode="7" horiz-adv-x="523" 
d="M22 740h484l-257 -740h-114l233 652h-346v88z" />
    <glyph glyph-name="eight" unicode="8" horiz-adv-x="604" 
d="M423 385c80 -32 128 -97 128 -183c0 -127 -100 -212 -249 -212s-249 84 -249 210c0 86 48 152 128 184c-67 31 -108 91 -108 167c0 119 92 199 229 199s229 -79 229 -198c0 -76 -41 -136 -108 -167zM302 662c-71 0 -119 -48 -119 -118s48 -117 119 -117s118 47 118 117
s-47 118 -118 118zM302 78c83 0 138 52 138 130s-55 131 -138 131s-139 -53 -139 -131s56 -130 139 -130z" />
    <glyph glyph-name="nine" unicode="9" horiz-adv-x="575" 
d="M282 750c150 0 249 -93 249 -232c0 -76 -24 -134 -67 -195l-223 -323h-120l214 298c-21 -5 -46 -8 -74 -8c-128 0 -227 90 -227 226c0 140 99 234 248 234zM144 517c0 -87 56 -145 139 -145s138 58 138 145s-55 145 -138 145s-139 -58 -139 -145z" />
    <glyph glyph-name="zero.lf" horiz-adv-x="700" 
d="M317 -10c-163 0 -271 152 -271 380s108 380 271 380s271 -152 271 -380s-108 -380 -271 -380zM317 78c97 0 160 117 160 292s-63 292 -160 292s-161 -117 -161 -292s64 -292 161 -292z" />
    <glyph glyph-name="one.lf" horiz-adv-x="429" 
d="M229 0v602l-166 -119l-54 77l245 180h81v-740h-106z" />
    <glyph glyph-name="two.lf" horiz-adv-x="577" 
d="M44 0v67l226 245c50 54 140 143 140 234c0 71 -49 116 -122 116c-78 0 -128 -53 -128 -130l-109 9c0 126 94 209 235 209c139 0 232 -77 232 -195c0 -113 -84 -205 -178 -304l-156 -164l344 1v-88h-484z" />
    <glyph glyph-name="three.lf" horiz-adv-x="572" 
d="M291 437c141 0 235 -88 235 -217c0 -138 -105 -230 -270 -230c-91 0 -174 28 -220 79l41 78c38 -45 97 -69 167 -69c105 0 172 57 172 141c0 83 -65 136 -164 136c-39 0 -76 -8 -108 -24l-28 54l238 267h-287v88h427v-67l-222 -237c6 1 13 1 19 1z" />
    <glyph glyph-name="four.lf" horiz-adv-x="625" 
d="M377 0v152h-355v75l377 513h84v-500h108v-88h-108v-152h-106zM146 238h234l2 322z" />
    <glyph glyph-name="five.lf" horiz-adv-x="580" 
d="M250 -10c-92 0 -167 23 -218 67l31 78c45 -39 109 -57 177 -57c110 0 183 61 183 152c0 83 -57 138 -144 138c-46 0 -90 -12 -124 -32l-72 10l51 394h364v-88h-272l-31 -209c30 8 65 14 103 14c139 0 236 -88 236 -220c0 -148 -116 -247 -284 -247z" />
    <glyph glyph-name="six.lf" horiz-adv-x="575" 
d="M313 450c128 0 227 -90 227 -226c0 -140 -99 -234 -248 -234c-150 0 -249 93 -249 232c0 76 24 134 67 195l223 323h120l-214 -298c21 5 46 8 74 8zM291 78c83 0 139 58 139 145s-56 145 -139 145s-138 -58 -138 -145s55 -145 138 -145z" />
    <glyph glyph-name="seven.lf" horiz-adv-x="523" 
d="M22 740h484l-257 -740h-114l233 652h-346v88z" />
    <glyph glyph-name="eight.lf" horiz-adv-x="604" 
d="M423 385c80 -32 128 -97 128 -183c0 -127 -100 -212 -249 -212s-249 84 -249 210c0 86 48 152 128 184c-67 31 -108 91 -108 167c0 119 92 199 229 199s229 -79 229 -198c0 -76 -41 -136 -108 -167zM302 662c-71 0 -119 -48 -119 -118s48 -117 119 -117s118 47 118 117
s-47 118 -118 118zM302 78c83 0 138 52 138 130s-55 131 -138 131s-139 -53 -139 -131s56 -130 139 -130z" />
    <glyph glyph-name="nine.lf" horiz-adv-x="575" 
d="M282 750c150 0 249 -93 249 -232c0 -76 -24 -134 -67 -195l-223 -323h-120l214 298c-21 -5 -46 -8 -74 -8c-128 0 -227 90 -227 226c0 140 99 234 248 234zM144 517c0 -87 56 -145 139 -145s138 58 138 145s-55 145 -138 145s-139 -58 -139 -145z" />
    <glyph glyph-name="zero.osf" horiz-adv-x="676" 
d="M339 -10c-176 0 -293 131 -293 327s117 327 293 327c174 0 291 -131 291 -327s-117 -327 -291 -327zM339 78c108 0 182 96 182 239s-74 239 -182 239c-110 0 -184 -96 -184 -239s74 -239 184 -239z" />
    <glyph glyph-name="one.osf" horiz-adv-x="387" 
d="M192 0v498l-123 -88l-53 75l201 149h77v-634h-102z" />
    <glyph glyph-name="two.osf" horiz-adv-x="588" 
d="M51 0v67l255 206c45 35 115 93 115 167c0 70 -50 116 -126 116c-80 0 -133 -52 -133 -131l-104 10c0 125 94 209 234 209s233 -79 233 -196c0 -118 -86 -186 -168 -249l-150 -114h327v-85h-483z" />
    <glyph glyph-name="three.osf" horiz-adv-x="579" 
d="M297 334c139 0 231 -87 231 -215c0 -138 -103 -229 -266 -229c-92 0 -175 28 -219 79l41 78c37 -45 96 -69 167 -69c105 0 171 56 171 140c0 82 -66 135 -165 135c-38 0 -75 -8 -107 -26l-28 54l243 269h-292v84h428v-67l-222 -234c6 1 12 1 18 1z" />
    <glyph glyph-name="four.osf" horiz-adv-x="625" 
d="M385 -110v110h-360v68l381 566h81v-549h107v-85h-107v-110h-102zM150 82h237l2 355z" />
    <glyph glyph-name="five.osf" horiz-adv-x="580" 
d="M249 -110c-92 0 -167 22 -218 67l31 78c45 -39 110 -57 177 -57c110 0 183 60 183 151c0 81 -57 136 -144 136c-45 0 -90 -12 -124 -32l-72 10l51 391h364v-84h-273l-34 -212c31 10 67 15 108 15c135 0 231 -87 231 -218c0 -147 -115 -245 -280 -245z" />
    <glyph glyph-name="six.osf" horiz-adv-x="568" 
d="M309 450c134 0 223 -90 223 -226c0 -140 -97 -234 -244 -234s-245 93 -245 232c0 66 17 120 63 187l230 331h115l-215 -299c23 6 47 9 73 9zM287 78c84 0 139 58 139 145s-55 145 -139 145c-83 0 -138 -58 -138 -145s55 -145 138 -145z" />
    <glyph glyph-name="seven.osf" horiz-adv-x="548" 
d="M35 634h484l-257 -741l-98 26l218 631h-347v84z" />
    <glyph glyph-name="eight.osf" horiz-adv-x="595" 
d="M417 385c78 -32 125 -97 125 -183c0 -127 -97 -212 -244 -212s-245 84 -245 210c0 86 47 152 126 184c-66 32 -106 91 -106 167c0 119 90 199 225 199s224 -79 224 -198c0 -76 -39 -136 -105 -167zM297 662c-71 0 -118 -48 -118 -118s47 -117 118 -117s119 47 119 117
s-48 118 -119 118zM297 78c83 0 139 52 139 130s-56 131 -139 131s-138 -53 -138 -131s55 -130 138 -130z" />
    <glyph glyph-name="nine.osf" horiz-adv-x="566" 
d="M279 644c147 0 244 -93 244 -232c0 -66 -16 -121 -62 -187l-231 -332l-97 26l197 274c-23 -6 -47 -9 -72 -9c-134 0 -224 90 -224 226c0 140 98 234 245 234zM140 411c0 -87 55 -146 139 -146c83 0 138 59 138 146s-55 144 -138 144c-84 0 -139 -57 -139 -144z" />
    <glyph glyph-name="one.ss02" horiz-adv-x="350" 
d="M150 0v652h-126v88h233v-740h-107z" />
    <glyph glyph-name="one.lf.ss02" horiz-adv-x="350" 
d="M150 0v652h-126v88h233v-740h-107z" />
    <glyph glyph-name="one.osf.ss02" horiz-adv-x="352" 
d="M157 0v550h-118v84h220v-634h-102z" />
    <glyph glyph-name="one.tf.ss02" 
d="M401 88h143v-88h-464v88h215v564h-156v88h262v-652z" />
    <glyph glyph-name="one.tosf.ss02" 
d="M395 85h153v-85h-464v85h209v465h-148v84h250v-549z" />
    <glyph glyph-name="zero.tf" 
d="M308 -10c-148 0 -248 152 -248 380s100 380 248 380s247 -152 247 -380s-99 -380 -247 -380zM308 78c82 0 137 117 137 292s-55 292 -137 292c-83 0 -138 -117 -138 -292s55 -292 138 -292z" />
    <glyph glyph-name="one.tf" 
d="M412 88h143v-88h-464v88h215v514l-166 -119l-54 77l245 180h81v-652z" />
    <glyph glyph-name="two.tf" 
d="M63 0v67l226 245c50 54 140 143 140 234c0 71 -49 116 -122 116c-78 0 -128 -53 -128 -130l-109 9c0 126 94 209 234 209s233 -77 233 -195c0 -113 -84 -205 -178 -304l-156 -164l343 1v-88h-483z" />
    <glyph glyph-name="three.tf" 
d="M312 437c141 0 235 -88 235 -217c0 -138 -105 -230 -270 -230c-92 0 -175 28 -220 79l41 78c38 -45 97 -69 167 -69c105 0 172 57 172 141c0 83 -66 136 -165 136c-39 0 -75 -8 -107 -24l-28 54l238 267h-287v88h428v-67l-223 -237c6 1 13 1 19 1z" />
    <glyph glyph-name="four.tf" 
d="M363 0v152h-338v75l360 513h85v-500h107v-88h-107v-152h-107zM146 238h221l1 321z" />
    <glyph glyph-name="five.tf" 
d="M267 -10c-91 0 -167 23 -218 67l32 78c44 -39 109 -57 176 -57c111 0 184 61 184 152c0 83 -58 138 -144 138c-46 0 -91 -12 -125 -32l-71 10l51 394h364v-88h-272l-31 -209c30 8 64 14 103 14c139 0 235 -88 235 -220c0 -148 -116 -247 -284 -247z" />
    <glyph glyph-name="six.tf" 
d="M333 450c129 0 228 -90 228 -226c0 -140 -100 -234 -249 -234c-150 0 -249 93 -249 232c0 76 24 134 67 195l224 323h120l-215 -298c22 5 46 8 74 8zM311 78c84 0 139 58 139 145s-55 145 -139 145c-83 0 -138 -58 -138 -145s55 -145 138 -145z" />
    <glyph glyph-name="seven.tf" 
d="M68 740h484l-258 -740h-113l233 652h-346v88z" />
    <glyph glyph-name="eight.tf" 
d="M428 385c80 -32 128 -97 128 -183c0 -127 -99 -212 -249 -212c-149 0 -249 84 -249 210c0 86 48 152 128 184c-67 31 -108 91 -108 167c0 119 92 199 229 199c138 0 229 -79 229 -198c0 -76 -40 -136 -108 -167zM307 662c-71 0 -118 -48 -118 -118s47 -117 118 -117
s119 47 119 117s-48 118 -119 118zM307 78c83 0 139 52 139 130s-56 131 -139 131s-138 -53 -138 -131s55 -130 138 -130z" />
    <glyph glyph-name="nine.tf" 
d="M302 750c150 0 249 -93 249 -232c0 -76 -24 -134 -67 -195l-223 -323h-120l214 298c-21 -5 -46 -8 -74 -8c-128 0 -227 90 -227 226c0 140 99 234 248 234zM164 517c0 -87 56 -145 139 -145s138 58 138 145s-55 145 -138 145s-139 -58 -139 -145z" />
    <glyph glyph-name="zero.tosf" 
d="M308 -10c-148 0 -247 131 -247 327s99 327 247 327c147 0 246 -131 246 -327s-99 -327 -246 -327zM308 78c82 0 137 96 137 239s-55 239 -137 239c-83 0 -138 -96 -138 -239s55 -239 138 -239z" />
    <glyph glyph-name="one.tosf" 
d="M385 85h166v-85h-464v85h196v413l-123 -88l-53 75l200 149h78v-549z" />
    <glyph glyph-name="two.tosf" 
d="M64 0v67l255 206c45 35 115 93 115 167c0 70 -50 116 -126 116c-80 0 -133 -52 -133 -131l-104 10c0 125 94 209 235 209c139 0 232 -79 232 -196c0 -118 -86 -186 -168 -249l-149 -114h326v-85h-483z" />
    <glyph glyph-name="three.tosf" 
d="M315 334c139 0 231 -87 231 -215c0 -138 -104 -229 -266 -229c-92 0 -175 28 -220 79l41 78c37 -45 97 -69 167 -69c105 0 172 56 172 140c0 82 -66 135 -165 135c-39 0 -75 -8 -107 -26l-28 54l243 269h-292v84h428v-67l-222 -233h18z" />
    <glyph glyph-name="four.tosf" 
d="M371 -110v110h-343v68l364 566h81v-549h108v-85h-108v-110h-102zM144 82h230l1 357z" />
    <glyph glyph-name="five.tosf" 
d="M266 -110c-91 0 -167 22 -217 67l31 78c44 -39 109 -57 177 -57c110 0 183 60 183 151c0 81 -57 136 -144 136c-46 0 -91 -12 -125 -32l-71 10l51 391h364v-84h-273l-34 -212c31 10 67 15 107 15c136 0 231 -87 231 -218c0 -147 -115 -245 -280 -245z" />
    <glyph glyph-name="six.tosf" 
d="M333 450c134 0 223 -90 223 -226c0 -140 -98 -234 -244 -234c-147 0 -245 93 -245 232c0 66 17 120 63 187l229 331h116l-215 -299c23 6 47 9 73 9zM311 78c83 0 139 58 139 145s-56 145 -139 145s-138 -58 -138 -145s55 -145 138 -145z" />
    <glyph glyph-name="seven.tosf" 
d="M69 634h484l-257 -741l-99 26l218 631h-346v84z" />
    <glyph glyph-name="eight.tosf" 
d="M426 385c79 -32 126 -97 126 -183c0 -127 -98 -212 -245 -212c-146 0 -244 84 -244 210c0 86 47 152 126 184c-66 32 -106 91 -106 167c0 119 90 199 224 199c135 0 225 -79 225 -198c0 -76 -40 -136 -106 -167zM307 662c-71 0 -118 -48 -118 -118s47 -117 118 -117
s119 47 119 117s-48 118 -119 118zM307 78c83 0 139 52 139 130s-56 131 -139 131s-138 -53 -138 -131s55 -130 138 -130z" />
    <glyph glyph-name="nine.tosf" 
d="M304 644c146 0 244 -93 244 -232c0 -66 -16 -121 -63 -187l-231 -332l-96 26l197 274c-23 -6 -47 -9 -72 -9c-135 0 -224 90 -224 226c0 140 98 234 245 234zM165 411c0 -87 55 -146 138 -146s139 59 139 146s-56 144 -139 144s-138 -57 -138 -144z" />
    <glyph glyph-name="uni2080" unicode="&#x2080;" horiz-adv-x="390" 
d="M196 -106c-99 0 -165 91 -165 228s66 228 165 228c97 0 163 -91 163 -228s-66 -228 -163 -228zM196 -49c56 0 94 69 94 171c0 103 -38 171 -94 171s-94 -68 -94 -171c0 -102 38 -171 94 -171z" />
    <glyph glyph-name="uni2081" unicode="&#x2081;" horiz-adv-x="268" 
d="M139 -100v356l-97 -70l-34 49l147 109h53v-444h-69z" />
    <glyph glyph-name="uni2082" unicode="&#x2082;" horiz-adv-x="359" 
d="M31 -100v44l136 147c28 31 82 83 82 136c0 41 -27 66 -70 66c-44 0 -73 -30 -73 -75l-70 6c0 76 57 126 142 126c84 0 140 -47 140 -118c0 -66 -48 -121 -105 -180l-91 -96l202 1v-57h-293z" />
    <glyph glyph-name="uni2083" unicode="&#x2083;" horiz-adv-x="354" 
d="M180 164c85 0 141 -53 141 -131c0 -83 -63 -139 -163 -139c-55 0 -105 17 -133 46l26 51c22 -25 58 -40 99 -40c61 0 100 33 100 82c0 47 -38 78 -95 78c-23 0 -45 -5 -63 -15l-20 35l139 156h-167v57h258v-43l-129 -137h7z" />
    <glyph glyph-name="uni2084" unicode="&#x2084;" horiz-adv-x="386" 
d="M228 -100v90h-212v48l226 306h55v-296h63v-58h-63v-90h-69zM92 45h138v188z" />
    <glyph glyph-name="uni2085" unicode="&#x2085;" horiz-adv-x="358" 
d="M153 -106c-55 0 -101 14 -131 40l21 51c26 -23 64 -34 104 -34c65 0 108 35 108 89c0 47 -33 79 -83 79c-28 0 -54 -9 -73 -20l-46 7l31 238h220v-57h-161l-17 -119c17 5 36 8 58 8c84 0 142 -53 142 -132c0 -90 -70 -150 -173 -150z" />
    <glyph glyph-name="uni2086" unicode="&#x2086;" horiz-adv-x="356" 
d="M195 171c76 0 136 -55 136 -137c0 -84 -60 -140 -150 -140c-91 0 -152 55 -152 140c0 46 16 81 43 120l132 190h77l-128 -177c12 3 26 4 42 4zM181 -49c47 0 79 33 79 83c0 51 -32 84 -79 84c-48 0 -80 -33 -80 -84c0 -50 32 -83 80 -83z" />
    <glyph glyph-name="uni2087" unicode="&#x2087;" horiz-adv-x="320" 
d="M16 344h293l-153 -444h-73l136 387h-203v57z" />
    <glyph glyph-name="uni2088" unicode="&#x2088;" horiz-adv-x="375" 
d="M263 131c47 -19 76 -58 76 -109c0 -77 -61 -128 -151 -128c-91 0 -151 51 -151 126c0 52 28 91 76 110c-40 19 -64 55 -64 100c0 72 55 120 139 120c83 0 139 -48 139 -119c0 -45 -24 -81 -64 -100zM188 293c-41 0 -68 -27 -68 -68c0 -40 27 -66 68 -66c40 0 68 26 68 66
c0 41 -28 68 -68 68zM188 -49c47 0 80 30 80 75s-33 76 -80 76c-48 0 -80 -31 -80 -76s32 -75 80 -75z" />
    <glyph glyph-name="uni2089" unicode="&#x2089;" horiz-adv-x="356" 
d="M175 350c91 0 152 -55 152 -140c0 -46 -16 -81 -43 -120l-132 -190h-77l128 177c-12 -3 -26 -4 -42 -4c-76 0 -136 55 -136 137c0 84 60 140 150 140zM96 210c0 -51 32 -84 79 -84c48 0 80 33 80 84c0 50 -32 83 -80 83c-47 0 -79 -33 -79 -83z" />
    <glyph glyph-name="zero.dnom" horiz-adv-x="390" 
d="M196 -6c-99 0 -165 91 -165 228s66 228 165 228c97 0 163 -91 163 -228s-66 -228 -163 -228zM196 51c56 0 94 69 94 171c0 103 -38 171 -94 171s-94 -68 -94 -171c0 -102 38 -171 94 -171z" />
    <glyph glyph-name="one.dnom" horiz-adv-x="268" 
d="M139 0v356l-97 -70l-34 49l147 109h53v-444h-69z" />
    <glyph glyph-name="two.dnom" horiz-adv-x="359" 
d="M31 0v44l136 147c28 31 82 83 82 136c0 41 -27 66 -70 66c-44 0 -73 -30 -73 -75l-70 6c0 76 57 126 142 126c84 0 140 -47 140 -118c0 -66 -48 -121 -105 -180l-91 -96l202 1v-57h-293z" />
    <glyph glyph-name="three.dnom" horiz-adv-x="354" 
d="M180 264c85 0 141 -53 141 -131c0 -83 -63 -139 -163 -139c-55 0 -105 17 -133 46l26 51c22 -25 58 -40 99 -40c61 0 100 33 100 82c0 47 -38 78 -95 78c-23 0 -45 -5 -63 -15l-20 35l139 156h-167v57h258v-43l-129 -137h7z" />
    <glyph glyph-name="four.dnom" horiz-adv-x="386" 
d="M228 0v90h-212v48l226 306h55v-296h63v-58h-63v-90h-69zM92 145h138v188z" />
    <glyph glyph-name="five.dnom" horiz-adv-x="358" 
d="M153 -6c-55 0 -101 14 -131 40l21 51c26 -23 64 -34 104 -34c65 0 108 35 108 89c0 47 -33 79 -83 79c-28 0 -54 -9 -73 -20l-46 7l31 238h220v-57h-161l-17 -119c17 5 36 8 58 8c84 0 142 -53 142 -132c0 -90 -70 -150 -173 -150z" />
    <glyph glyph-name="six.dnom" horiz-adv-x="356" 
d="M195 271c76 0 136 -55 136 -137c0 -84 -60 -140 -150 -140c-91 0 -152 55 -152 140c0 46 16 81 43 120l132 190h77l-128 -177c12 3 26 4 42 4zM181 51c47 0 79 33 79 83c0 51 -32 84 -79 84c-48 0 -80 -33 -80 -84c0 -50 32 -83 80 -83z" />
    <glyph glyph-name="seven.dnom" horiz-adv-x="320" 
d="M16 444h293l-153 -444h-73l136 387h-203v57z" />
    <glyph glyph-name="eight.dnom" horiz-adv-x="375" 
d="M263 231c47 -19 76 -58 76 -109c0 -77 -61 -128 -151 -128c-91 0 -151 51 -151 126c0 52 28 91 76 110c-40 19 -64 55 -64 100c0 72 55 120 139 120c83 0 139 -48 139 -119c0 -45 -24 -81 -64 -100zM188 393c-41 0 -68 -27 -68 -68c0 -40 27 -66 68 -66c40 0 68 26 68 66
c0 41 -28 68 -68 68zM188 51c47 0 80 30 80 75s-33 76 -80 76c-48 0 -80 -31 -80 -76s32 -75 80 -75z" />
    <glyph glyph-name="nine.dnom" horiz-adv-x="356" 
d="M175 450c91 0 152 -55 152 -140c0 -46 -16 -81 -43 -120l-132 -190h-77l128 177c-12 -3 -26 -4 -42 -4c-76 0 -136 55 -136 137c0 84 60 140 150 140zM96 310c0 -51 32 -84 79 -84c48 0 80 33 80 84c0 50 -32 83 -80 83c-47 0 -79 -33 -79 -83z" />
    <glyph glyph-name="zero.numr" horiz-adv-x="390" 
d="M196 290c-99 0 -165 91 -165 228s66 228 165 228c97 0 163 -91 163 -228s-66 -228 -163 -228zM196 347c56 0 94 69 94 171c0 103 -38 171 -94 171s-94 -68 -94 -171c0 -102 38 -171 94 -171z" />
    <glyph glyph-name="one.numr" horiz-adv-x="268" 
d="M139 296v356l-97 -70l-34 49l147 109h53v-444h-69z" />
    <glyph glyph-name="two.numr" horiz-adv-x="359" 
d="M31 296v44l136 147c28 31 82 83 82 136c0 41 -27 66 -70 66c-44 0 -73 -30 -73 -75l-70 6c0 76 57 126 142 126c84 0 140 -47 140 -118c0 -66 -48 -121 -105 -180l-91 -96l202 1v-57h-293z" />
    <glyph glyph-name="three.numr" horiz-adv-x="354" 
d="M180 560c85 0 141 -53 141 -131c0 -83 -63 -139 -163 -139c-55 0 -105 17 -133 46l26 51c22 -25 58 -40 99 -40c61 0 100 33 100 82c0 47 -38 78 -95 78c-23 0 -45 -5 -63 -15l-20 35l139 156h-167v57h258v-43l-129 -137h7z" />
    <glyph glyph-name="four.numr" horiz-adv-x="386" 
d="M228 296v90h-212v48l226 306h55v-296h63v-58h-63v-90h-69zM92 441h138v188z" />
    <glyph glyph-name="five.numr" horiz-adv-x="358" 
d="M153 290c-55 0 -101 14 -131 40l21 51c26 -23 64 -34 104 -34c65 0 108 35 108 89c0 47 -33 79 -83 79c-28 0 -54 -9 -73 -20l-46 7l31 238h220v-57h-161l-17 -119c17 5 36 8 58 8c84 0 142 -53 142 -132c0 -90 -70 -150 -173 -150z" />
    <glyph glyph-name="six.numr" horiz-adv-x="356" 
d="M195 567c76 0 136 -55 136 -137c0 -84 -60 -140 -150 -140c-91 0 -152 55 -152 140c0 46 16 81 43 120l132 190h77l-128 -177c12 3 26 4 42 4zM181 347c47 0 79 33 79 83c0 51 -32 84 -79 84c-48 0 -80 -33 -80 -84c0 -50 32 -83 80 -83z" />
    <glyph glyph-name="seven.numr" horiz-adv-x="320" 
d="M16 740h293l-153 -444h-73l136 387h-203v57z" />
    <glyph glyph-name="eight.numr" horiz-adv-x="375" 
d="M263 527c47 -19 76 -58 76 -109c0 -77 -61 -128 -151 -128c-91 0 -151 51 -151 126c0 52 28 91 76 110c-40 19 -64 55 -64 100c0 72 55 120 139 120c83 0 139 -48 139 -119c0 -45 -24 -81 -64 -100zM188 689c-41 0 -68 -27 -68 -68c0 -40 27 -66 68 -66c40 0 68 26 68 66
c0 41 -28 68 -68 68zM188 347c47 0 80 30 80 75s-33 76 -80 76c-48 0 -80 -31 -80 -76s32 -75 80 -75z" />
    <glyph glyph-name="nine.numr" horiz-adv-x="356" 
d="M175 746c91 0 152 -55 152 -140c0 -46 -16 -81 -43 -120l-132 -190h-77l128 177c-12 -3 -26 -4 -42 -4c-76 0 -136 55 -136 137c0 84 60 140 150 140zM96 606c0 -51 32 -84 79 -84c48 0 80 33 80 84c0 50 -32 83 -80 83c-47 0 -79 -33 -79 -83z" />
    <glyph glyph-name="uni2070" unicode="&#x2070;" horiz-adv-x="390" 
d="M196 390c-99 0 -165 91 -165 228s66 228 165 228c97 0 163 -91 163 -228s-66 -228 -163 -228zM196 447c56 0 94 69 94 171c0 103 -38 171 -94 171s-94 -68 -94 -171c0 -102 38 -171 94 -171z" />
    <glyph glyph-name="uni00B9" unicode="&#xb9;" horiz-adv-x="268" 
d="M139 396v356l-97 -70l-34 49l147 109h53v-444h-69z" />
    <glyph glyph-name="uni00B2" unicode="&#xb2;" horiz-adv-x="359" 
d="M31 396v44l136 147c28 31 82 83 82 136c0 41 -27 66 -70 66c-44 0 -73 -30 -73 -75l-70 6c0 76 57 126 142 126c84 0 140 -47 140 -118c0 -66 -48 -121 -105 -180l-91 -96l202 1v-57h-293z" />
    <glyph glyph-name="uni00B3" unicode="&#xb3;" horiz-adv-x="354" 
d="M180 660c85 0 141 -53 141 -131c0 -83 -63 -139 -163 -139c-55 0 -105 17 -133 46l26 51c22 -25 58 -40 99 -40c61 0 100 33 100 82c0 47 -38 78 -95 78c-23 0 -45 -5 -63 -15l-20 35l139 156h-167v57h258v-43l-129 -137h7z" />
    <glyph glyph-name="uni2074" unicode="&#x2074;" horiz-adv-x="386" 
d="M228 396v90h-212v48l226 306h55v-296h63v-58h-63v-90h-69zM92 541h138v188z" />
    <glyph glyph-name="uni2075" unicode="&#x2075;" horiz-adv-x="358" 
d="M153 390c-55 0 -101 14 -131 40l21 51c26 -23 64 -34 104 -34c65 0 108 35 108 89c0 47 -33 79 -83 79c-28 0 -54 -9 -73 -20l-46 7l31 238h220v-57h-161l-17 -119c17 5 36 8 58 8c84 0 142 -53 142 -132c0 -90 -70 -150 -173 -150z" />
    <glyph glyph-name="uni2076" unicode="&#x2076;" horiz-adv-x="356" 
d="M195 667c76 0 136 -55 136 -137c0 -84 -60 -140 -150 -140c-91 0 -152 55 -152 140c0 46 16 81 43 120l132 190h77l-128 -177c12 3 26 4 42 4zM181 447c47 0 79 33 79 83c0 51 -32 84 -79 84c-48 0 -80 -33 -80 -84c0 -50 32 -83 80 -83z" />
    <glyph glyph-name="uni2077" unicode="&#x2077;" horiz-adv-x="320" 
d="M16 840h293l-153 -444h-73l136 387h-203v57z" />
    <glyph glyph-name="uni2078" unicode="&#x2078;" horiz-adv-x="375" 
d="M263 627c47 -19 76 -58 76 -109c0 -77 -61 -128 -151 -128c-91 0 -151 51 -151 126c0 52 28 91 76 110c-40 19 -64 55 -64 100c0 72 55 120 139 120c83 0 139 -48 139 -119c0 -45 -24 -81 -64 -100zM188 789c-41 0 -68 -27 -68 -68c0 -40 27 -66 68 -66c40 0 68 26 68 66
c0 41 -28 68 -68 68zM188 447c47 0 80 30 80 75s-33 76 -80 76c-48 0 -80 -31 -80 -76s32 -75 80 -75z" />
    <glyph glyph-name="uni2079" unicode="&#x2079;" horiz-adv-x="356" 
d="M175 846c91 0 152 -55 152 -140c0 -46 -16 -81 -43 -120l-132 -190h-77l128 177c-12 -3 -26 -4 -42 -4c-76 0 -136 55 -136 137c0 84 60 140 150 140zM96 706c0 -51 32 -84 79 -84c48 0 80 33 80 84c0 50 -32 83 -80 83c-47 0 -79 -33 -79 -83z" />
    <glyph glyph-name="fraction" unicode="&#x2044;" horiz-adv-x="209" 
d="M-80 -10l-56 35l425 725l56 -34z" />
    <glyph glyph-name="onehalf" unicode="&#xbd;" horiz-adv-x="836" 
d="M188 -10l-56 35l425 725l56 -34zM139 296v356l-97 -70l-34 49l147 109h53v-444h-69zM508 0v44l136 147c28 31 82 83 82 136c0 41 -27 66 -70 66c-44 0 -73 -30 -73 -75l-70 6c0 76 57 126 142 126c84 0 140 -47 140 -118c0 -66 -48 -121 -105 -180l-91 -96l202 1v-57
h-293z" />
    <glyph glyph-name="onequarter" unicode="&#xbc;" horiz-adv-x="825" 
d="M188 -10l-56 35l425 725l56 -34zM139 296v356l-97 -70l-34 49l147 109h53v-444h-69zM667 0v90h-212v48l226 306h55v-296h63v-58h-63v-90h-69zM531 145h138v188z" />
    <glyph glyph-name="threequarters" unicode="&#xbe;" horiz-adv-x="911" 
d="M643 750l56 -34l-425 -726l-56 35zM321 429c0 -83 -63 -139 -163 -139c-55 0 -105 17 -133 46l26 51c22 -25 58 -40 99 -40c61 0 100 33 100 82c0 47 -38 78 -95 78c-23 0 -45 -5 -63 -15l-20 35l139 156h-167v57h258v-43l-129 -137h7c85 0 141 -53 141 -131zM822 148h63
v-58h-63v-90h-69v90h-212v48l226 306h55v-296zM755 145v188l-138 -188h138z" />
    <glyph glyph-name="oneeighth" unicode="&#x215b;" horiz-adv-x="852" 
d="M557 750l56 -34l-425 -726l-56 35zM139 296v356l-97 -70l-34 49l147 109h53v-444h-69zM740 231c47 -19 76 -58 76 -109c0 -77 -61 -128 -151 -128c-91 0 -151 51 -151 126c0 52 28 91 76 110c-40 19 -64 55 -64 100c0 72 55 120 139 120c83 0 139 -48 139 -119
c0 -45 -24 -81 -64 -100zM665 393c-41 0 -68 -27 -68 -68c0 -40 27 -66 68 -66c40 0 68 26 68 66c0 41 -28 68 -68 68zM665 51c47 0 80 30 80 75s-33 76 -80 76c-48 0 -80 -31 -80 -76s32 -75 80 -75z" />
    <glyph glyph-name="threeeighths" unicode="&#x215c;" horiz-adv-x="938" 
d="M643 750l56 -34l-425 -726l-56 35zM321 429c0 -83 -63 -139 -163 -139c-55 0 -105 17 -133 46l26 51c22 -25 58 -40 99 -40c61 0 100 33 100 82c0 47 -38 78 -95 78c-23 0 -45 -5 -63 -15l-20 35l139 156h-167v57h258v-43l-129 -137h7c85 0 141 -53 141 -131zM826 231
c47 -19 76 -58 76 -109c0 -77 -61 -128 -151 -128c-91 0 -151 51 -151 126c0 52 28 91 76 110c-40 19 -64 55 -64 100c0 72 55 120 139 120c83 0 139 -48 139 -119c0 -45 -24 -81 -64 -100zM751 393c-41 0 -68 -27 -68 -68c0 -40 27 -66 68 -66c40 0 68 26 68 66
c0 41 -28 68 -68 68zM751 51c47 0 80 30 80 75s-33 76 -80 76c-48 0 -80 -31 -80 -76s32 -75 80 -75z" />
    <glyph glyph-name="fiveeighths" unicode="&#x215d;" horiz-adv-x="942" 
d="M647 750l56 -34l-425 -726l-56 35zM326 440c0 -90 -70 -150 -173 -150c-55 0 -101 14 -131 40l21 51c26 -23 64 -34 104 -34c65 0 108 35 108 89c0 47 -33 79 -83 79c-28 0 -54 -9 -73 -20l-46 7l31 238h220v-57h-161l-17 -119c17 5 36 8 58 8c84 0 142 -53 142 -132z
M830 231c47 -19 76 -58 76 -109c0 -77 -61 -128 -151 -128c-91 0 -151 51 -151 126c0 52 28 91 76 110c-40 19 -64 55 -64 100c0 72 55 120 139 120c83 0 139 -48 139 -119c0 -45 -24 -81 -64 -100zM755 393c-41 0 -68 -27 -68 -68c0 -40 27 -66 68 -66c40 0 68 26 68 66
c0 41 -28 68 -68 68zM755 51c47 0 80 30 80 75s-33 76 -80 76c-48 0 -80 -31 -80 -76s32 -75 80 -75z" />
    <glyph glyph-name="seveneighths" unicode="&#x215e;" horiz-adv-x="874" 
d="M579 750l56 -34l-425 -726l-56 35zM156 296h-73l136 387h-203v57h293zM762 231c47 -19 76 -58 76 -109c0 -77 -61 -128 -151 -128c-91 0 -151 51 -151 126c0 52 28 91 76 110c-40 19 -64 55 -64 100c0 72 55 120 139 120c83 0 139 -48 139 -119c0 -45 -24 -81 -64 -100z
M687 393c-41 0 -68 -27 -68 -68c0 -40 27 -66 68 -66c40 0 68 26 68 66c0 41 -28 68 -68 68zM687 51c47 0 80 30 80 75s-33 76 -80 76c-48 0 -80 -31 -80 -76s32 -75 80 -75z" />
    <glyph glyph-name="uni2081.ss02" horiz-adv-x="224" 
d="M94 -100v387h-74v57h143v-444h-69z" />
    <glyph glyph-name="one.dnom.ss02" horiz-adv-x="224" 
d="M94 0v387h-74v57h143v-444h-69z" />
    <glyph glyph-name="one.numr.ss02" horiz-adv-x="224" 
d="M94 296v387h-74v57h143v-444h-69z" />
    <glyph glyph-name="uni00B9.ss02" horiz-adv-x="224" 
d="M94 396v387h-74v57h143v-444h-69z" />
    <glyph glyph-name="onehalf.ss02" horiz-adv-x="792" 
d="M144 -10l-56 35l425 725l56 -34zM94 296v387h-74v57h143v-444h-69zM464 0v44l136 147c28 31 82 83 82 136c0 41 -27 66 -70 66c-44 0 -73 -30 -73 -75l-70 6c0 76 57 126 142 126c84 0 140 -47 140 -118c0 -66 -48 -121 -105 -180l-91 -96l202 1v-57h-293z" />
    <glyph glyph-name="onequarter.ss02" horiz-adv-x="781" 
d="M144 -10l-56 35l425 725l56 -34zM94 296v387h-74v57h143v-444h-69zM623 0v90h-212v48l226 306h55v-296h63v-58h-63v-90h-69zM487 145h138v188z" />
    <glyph glyph-name="oneeighth.ss02" horiz-adv-x="808" 
d="M513 750l56 -34l-425 -726l-56 35zM94 296v387h-74v57h143v-444h-69zM696 231c47 -19 76 -58 76 -109c0 -77 -61 -128 -151 -128c-91 0 -151 51 -151 126c0 52 28 91 76 110c-40 19 -64 55 -64 100c0 72 55 120 139 120c83 0 139 -48 139 -119c0 -45 -24 -81 -64 -100z
M621 393c-41 0 -68 -27 -68 -68c0 -40 27 -66 68 -66c40 0 68 26 68 66c0 41 -28 68 -68 68zM621 51c47 0 80 30 80 75s-33 76 -80 76c-48 0 -80 -31 -80 -76s32 -75 80 -75z" />
    <glyph glyph-name="asterisk" unicode="*" horiz-adv-x="393" 
d="M340 611l-93 -28l59 -77l-54 -39l-55 80l-56 -80l-54 39l59 77l-93 28l20 64l92 -32l-3 97h68l-3 -98l92 33z" />
    <glyph glyph-name="backslash" unicode="\" horiz-adv-x="423" 
d="M279 -100l-239 880h103l239 -880h-103z" />
    <glyph glyph-name="periodcentered" unicode="&#xb7;" horiz-adv-x="261" 
d="M130 219c-38 0 -70 32 -70 71c0 38 32 70 70 70c39 0 71 -32 71 -70c0 -39 -32 -71 -71 -71z" />
    <glyph glyph-name="bullet" unicode="&#x2022;" horiz-adv-x="378" 
d="M189 208c-63 0 -105 42 -105 105c0 64 42 106 105 106s105 -42 105 -106c0 -63 -42 -105 -105 -105z" />
    <glyph glyph-name="colon" unicode=":" horiz-adv-x="267" 
d="M134 403c-39 0 -71 32 -71 70c0 39 32 71 71 71c38 0 70 -32 70 -71c0 -38 -32 -70 -70 -70zM134 -10c-39 0 -71 32 -71 71c0 38 32 70 71 70c38 0 70 -32 70 -70c0 -39 -32 -71 -70 -71z" />
    <glyph glyph-name="comma" unicode="," horiz-adv-x="258" 
d="M11 -145l69 249h119l-85 -249h-103z" />
    <glyph glyph-name="ellipsis" unicode="&#x2026;" horiz-adv-x="705" 
d="M124 -10c-38 0 -70 32 -70 71c0 38 32 70 70 70c39 0 70 -32 70 -70c0 -39 -31 -71 -70 -71zM352 -10c-38 0 -70 32 -70 71c0 38 32 70 70 70c39 0 71 -32 71 -70c0 -39 -32 -71 -71 -71zM581 -10c-39 0 -71 32 -71 71c0 38 32 70 71 70c38 0 70 -32 70 -70
c0 -39 -32 -71 -70 -71z" />
    <glyph glyph-name="exclam" unicode="!" horiz-adv-x="274" 
d="M93 189l-10 551h108l-10 -551h-88zM137 -10c-37 0 -64 27 -64 64s27 63 64 63s64 -26 64 -63s-27 -64 -64 -64z" />
    <glyph glyph-name="exclamdown" unicode="&#xa1;" horiz-adv-x="259" 
d="M130 416c-37 0 -64 28 -64 64c0 37 27 64 64 64s63 -27 63 -64c0 -36 -26 -64 -63 -64zM76 -220l10 565h88l9 -565h-107z" />
    <glyph glyph-name="numbersign" unicode="#" horiz-adv-x="713" 
d="M662 434h-123l-39 -171h123l-16 -69h-123l-45 -194h-76l45 194h-177l-45 -194h-75l45 194h-122l17 69h121l39 171h-121l16 69h121l46 197h75l-46 -197h177l46 197h76l-46 -197h123zM424 263l39 171h-177l-39 -171h177z" />
    <glyph glyph-name="period" unicode="." horiz-adv-x="248" 
d="M124 -10c-38 0 -70 32 -70 71c0 38 32 70 70 70c39 0 70 -32 70 -70c0 -39 -31 -71 -70 -71z" />
    <glyph glyph-name="question" unicode="?" horiz-adv-x="534" 
d="M215 189c0 158 60 214 110 257c34 29 62 54 62 104c0 67 -50 112 -126 112c-73 0 -124 -45 -129 -112l-99 5c6 117 96 195 228 195c142 0 236 -78 236 -193c0 -81 -43 -118 -89 -157c-51 -44 -105 -90 -105 -211h-88zM259 -10c-37 0 -64 27 -64 64s27 63 64 63
c36 0 63 -26 63 -63s-27 -64 -63 -64z" />
    <glyph glyph-name="questiondown" unicode="&#xbf;" horiz-adv-x="527" 
d="M272 416c-37 0 -64 28 -64 64c0 37 27 64 64 64s63 -27 63 -64c0 -36 -26 -64 -63 -64zM270 -230c-142 0 -237 78 -237 193c0 81 43 117 89 158c51 46 106 96 106 224h88c0 -166 -60 -225 -110 -271c-34 -29 -62 -54 -62 -104c0 -67 50 -112 126 -112
c72 0 124 45 128 112l99 -5c-5 -117 -96 -195 -227 -195z" />
    <glyph glyph-name="quotedbl" unicode="&#x22;" horiz-adv-x="370" 
d="M65 564l-2 216h84l-3 -216h-79zM225 564l-2 216h84l-2 -216h-80z" />
    <glyph glyph-name="quotesingle" unicode="'" horiz-adv-x="210" 
d="M65 564l-2 216h84l-3 -216h-79z" />
    <glyph glyph-name="semicolon" unicode=";" horiz-adv-x="306" 
d="M159 403c-39 0 -71 32 -71 70c0 39 32 71 71 71c38 0 70 -32 70 -71c0 -38 -32 -70 -70 -70zM40 -145l69 249h120l-85 -249h-104z" />
    <glyph glyph-name="slash" unicode="/" horiz-adv-x="423" 
d="M40 -100l239 880h103l-239 -880h-103z" />
    <glyph glyph-name="underscore" unicode="_" horiz-adv-x="556" 
d="M25 -74v74h506v-74h-506z" />
    <glyph glyph-name="exclamdown.case" horiz-adv-x="284" 
d="M142 750c37 0 64 -27 64 -64s-27 -63 -64 -63s-64 26 -64 63s27 64 64 64zM98 551h88l10 -551h-108z" />
    <glyph glyph-name="questiondown.case" horiz-adv-x="533" 
d="M275 750c37 0 64 -27 64 -64s-27 -63 -64 -63s-63 26 -63 63s26 64 63 64zM319 551c0 -158 -60 -214 -110 -257c-34 -29 -62 -54 -62 -104c0 -67 50 -112 126 -112c73 0 124 45 128 112l100 -5c-6 -117 -97 -195 -228 -195c-142 0 -236 78 -236 193c0 81 43 118 89 157
c51 44 105 90 105 211h88z" />
    <glyph glyph-name="slash.case" horiz-adv-x="390" 
d="M43 0l201 740h103l-201 -740h-103z" />
    <glyph glyph-name="braceleft" unicode="{" horiz-adv-x="404" 
d="M269 -190c-91 0 -151 60 -151 151v196c0 60 -32 99 -79 99h-7v88h7c47 0 79 40 79 99v196c0 91 60 151 151 151c42 0 74 -4 106 -12v-84c-22 5 -44 8 -71 8c-48 0 -80 -37 -80 -93v-178c0 -66 -32 -118 -81 -131c49 -13 81 -65 81 -131v-178c0 -56 32 -93 80 -93
c27 0 49 3 71 8v-84c-32 -8 -64 -12 -106 -12z" />
    <glyph glyph-name="braceright" unicode="}" horiz-adv-x="404" 
d="M135 -190c-42 0 -74 4 -106 12v84c22 -5 44 -8 71 -8c48 0 80 37 80 93v178c0 66 32 118 81 131c-49 13 -81 65 -81 131v178c0 56 -32 93 -80 93c-27 0 -49 -3 -71 -8v84c32 8 64 12 106 12c91 0 151 -60 151 -151v-196c0 -59 32 -99 79 -99h7v-88h-7
c-47 0 -79 -39 -79 -99v-196c0 -91 -60 -151 -151 -151z" />
    <glyph glyph-name="bracketleft" unicode="[" horiz-adv-x="373" 
d="M88 -180v960h257v-88h-151v-784h151v-88h-257z" />
    <glyph glyph-name="bracketright" unicode="]" horiz-adv-x="373" 
d="M285 -180h-257v88h151v784h-151v88h257v-960z" />
    <glyph glyph-name="parenleft" unicode="(" horiz-adv-x="313" 
d="M196 -180c-56 87 -148 260 -148 480s92 393 148 480h94c-40 -70 -135 -237 -135 -480s95 -410 135 -480h-94z" />
    <glyph glyph-name="parenright" unicode=")" horiz-adv-x="313" 
d="M23 -180c40 70 136 237 136 480s-96 410 -136 480h94c56 -87 148 -260 148 -480s-92 -393 -148 -480h-94z" />
    <glyph glyph-name="braceleft.case" horiz-adv-x="423" 
d="M276 -50c-91 0 -151 60 -151 152v125c0 60 -32 99 -79 99h-7v88h7c47 0 79 40 79 99v126c0 91 60 151 151 151c42 0 74 -4 106 -12v-84c-22 5 -44 8 -71 8c-48 0 -80 -37 -80 -93v-108c0 -66 -32 -118 -81 -131c49 -13 81 -65 81 -131v-108c0 -56 32 -93 80 -93
c27 0 49 3 71 8v-84c-32 -8 -64 -12 -106 -12z" />
    <glyph glyph-name="braceright.case" horiz-adv-x="423" 
d="M148 -50c-43 0 -74 4 -107 12v84c23 -5 44 -8 71 -8c48 0 80 37 80 93v108c0 66 33 118 81 131c-48 13 -81 65 -81 131v108c0 56 -32 93 -80 93c-27 0 -48 -3 -71 -8v84c33 8 64 12 107 12c91 0 150 -60 150 -151v-126c0 -59 32 -99 79 -99h8v-88h-8
c-47 0 -79 -39 -79 -99v-125c0 -92 -59 -152 -150 -152z" />
    <glyph glyph-name="bracketleft.case" horiz-adv-x="391" 
d="M94 -40v820h256v-88h-151v-644h151v-88h-256z" />
    <glyph glyph-name="bracketright.case" horiz-adv-x="391" 
d="M297 -40h-256v88h151v644h-151v88h256v-820z" />
    <glyph glyph-name="parenleft.case" horiz-adv-x="327" 
d="M200 -40c-66 87 -148 220 -148 410s82 323 148 410h95c-50 -70 -136 -237 -136 -410s86 -340 136 -410h-95z" />
    <glyph glyph-name="parenright.case" horiz-adv-x="327" 
d="M32 -40c50 70 136 237 136 410s-86 340 -136 410h95c66 -87 148 -220 148 -410s-82 -323 -148 -410h-95z" />
    <glyph glyph-name="emdash" unicode="&#x2014;" horiz-adv-x="935" 
d="M67 251v74h801v-74h-801z" />
    <glyph glyph-name="endash" unicode="&#x2013;" horiz-adv-x="590" 
d="M67 251v74h456v-74h-456z" />
    <glyph glyph-name="hyphen" unicode="-" horiz-adv-x="456" 
d="M67 251v74h322v-74h-322z" />
    <glyph glyph-name="uni00AD" unicode="&#xad;" horiz-adv-x="456" 
d="M67 251v74h322v-74h-322z" />
    <glyph glyph-name="guillemotleft" unicode="&#xab;" horiz-adv-x="618" 
d="M326 497l-173 -227l173 -227h-108l-178 227l178 227h108zM574 497l-173 -227l173 -227h-109l-178 227l178 227h109z" />
    <glyph glyph-name="guillemotright" unicode="&#xbb;" horiz-adv-x="618" 
d="M153 497l178 -227l-178 -227h-109l173 227l-173 227h109zM400 497l178 -227l-178 -227h-108l173 227l-173 227h108z" />
    <glyph glyph-name="guilsinglleft" unicode="&#x2039;" horiz-adv-x="370" 
d="M326 497l-173 -227l173 -227h-108l-178 227l178 227h108z" />
    <glyph glyph-name="guilsinglright" unicode="&#x203a;" horiz-adv-x="370" 
d="M153 497l178 -227l-178 -227h-109l173 227l-173 227h109z" />
    <glyph glyph-name="quotedblbase" unicode="&#x201e;" horiz-adv-x="425" 
d="M13 -133l66 237h107l-81 -237h-92zM193 -133l67 237h106l-81 -237h-92z" />
    <glyph glyph-name="quotedblleft" unicode="&#x201c;" horiz-adv-x="435" 
d="M220 740l-66 -236h-107l81 236h92zM400 740l-66 -236h-107l81 236h92z" />
    <glyph glyph-name="quotedblright" unicode="&#x201d;" horiz-adv-x="432" 
d="M48 504l66 236h107l-81 -236h-92zM228 504l66 236h107l-81 -236h-92z" />
    <glyph glyph-name="quoteleft" unicode="&#x2018;" horiz-adv-x="253" 
d="M218 740l-66 -236h-107l81 236h92z" />
    <glyph glyph-name="quoteright" unicode="&#x2019;" horiz-adv-x="251" 
d="M48 504l66 236h107l-81 -236h-92z" />
    <glyph glyph-name="quotesinglbase" unicode="&#x201a;" horiz-adv-x="245" 
d="M13 -133l66 237h107l-81 -237h-92z" />
    <glyph glyph-name="space" unicode=" " horiz-adv-x="257" 
 />
    <glyph glyph-name="uni00A0" unicode="&#xa0;" horiz-adv-x="257" 
 />
    <glyph glyph-name="CR" unicode="&#xd;" horiz-adv-x="220" 
 />
    <glyph glyph-name=".null" horiz-adv-x="0" 
 />
    <glyph glyph-name="cent" unicode="&#xa2;" horiz-adv-x="572" 
d="M518 112c-38 -37 -89 -60 -145 -68v-84h-96v83c-142 17 -234 123 -234 274c0 150 92 256 234 274v83h96v-84c49 -8 91 -27 128 -56l-58 -70c-34 28 -71 42 -119 42c-105 0 -175 -76 -175 -189s70 -189 176 -189c53 0 100 17 134 53z" />
    <glyph glyph-name="currency" unicode="&#xa4;" horiz-adv-x="624" 
d="M538 344c0 -46 -14 -89 -38 -125l61 -61l-62 -63l-62 61c-36 -23 -79 -37 -125 -37s-89 13 -125 36l-61 -61l-63 63l61 61c-25 36 -39 79 -39 126s14 90 39 125l-61 61l63 63l62 -62c35 23 78 36 124 36s89 -13 125 -37l62 62l62 -63l-61 -61c24 -35 38 -78 38 -124z
M312 196c79 0 142 66 142 148c0 81 -63 148 -142 148s-143 -67 -143 -148c0 -82 64 -148 143 -148z" />
    <glyph glyph-name="dollar" unicode="$" horiz-adv-x="635" 
d="M588 200c0 -111 -87 -190 -221 -207v-83h-106v83c-78 8 -150 37 -200 86l42 73c59 -53 130 -74 203 -74c106 0 171 43 171 112c0 73 -72 105 -175 135l-46 13c-112 31 -202 80 -202 199c0 113 82 193 211 210v83h106v-83c73 -9 134 -37 185 -82l-48 -74
c-53 47 -114 71 -191 71c-92 0 -152 -44 -152 -109c0 -71 65 -97 141 -119l48 -13c110 -32 234 -88 234 -221z" />
    <glyph glyph-name="Euro" unicode="&#x20ac;" horiz-adv-x="829" 
d="M715 202l73 -66c-69 -92 -175 -146 -307 -146c-190 0 -329 106 -370 273h-69v68h58c-1 13 -2 27 -2 41v13h-56v68h63c32 181 174 297 375 297c121 0 215 -43 285 -120l-67 -68c-47 58 -120 100 -215 100c-138 0 -237 -81 -265 -209h256v-68h-265v-13c0 -14 1 -28 2 -41
h263v-68h-249c36 -114 131 -185 257 -185c106 0 183 49 233 124z" />
    <glyph glyph-name="florin" unicode="&#x192;" horiz-adv-x="489" 
d="M393 662c-60 0 -97 -36 -108 -98l-31 -176h179v-85h-194l-71 -403h-103l71 403h-84v85h99l36 205c18 103 94 157 197 157c33 0 64 -6 86 -15l-12 -83c-20 7 -44 10 -65 10z" />
    <glyph glyph-name="uni20BD" unicode="&#x20bd;" horiz-adv-x="660" 
d="M373 306h-155v-54h240v-68h-240v-184h-106v184h-55v68h55v54h-55v68h55v366h263c151 0 250 -85 250 -213c0 -133 -101 -221 -252 -221zM218 652v-258h145c93 0 152 52 152 129s-61 129 -152 129h-145z" />
    <glyph glyph-name="uni20B9" unicode="&#x20b9;" horiz-adv-x="640" 
d="M594 740v-68h-173c48 -33 78 -82 86 -143h82v-67h-82c-9 -85 -55 -150 -126 -185l182 -277h-125l-159 249c-10 -1 -21 -1 -32 -1h-179v88h170c84 0 144 49 158 126h-328v67h328c-13 75 -70 123 -153 123h-175v88h526z" />
    <glyph glyph-name="sterling" unicode="&#xa3;" horiz-adv-x="603" 
d="M223 85h324v-85h-495v84h65v222h-55v85h55v168c0 115 85 191 212 191s212 -77 212 -192l-104 -7c0 66 -43 111 -108 111c-63 0 -106 -43 -106 -109v-162h284v-85h-284v-221z" />
    <glyph glyph-name="yen" unicode="&#xa5;" horiz-adv-x="704" 
d="M675 740l-233 -393h126v-68h-162v-54h162v-68h-162v-157h-107v157h-163v68h163v54h-163v68h127l-233 393h115l208 -358l208 358h114z" />
    <glyph glyph-name="plus" unicode="+" horiz-adv-x="544" 
d="M497 391v-85h-174v-176h-102v176h-175v85h175v176h102v-176h174z" />
    <glyph glyph-name="minus" unicode="&#x2212;" horiz-adv-x="592" 
d="M71 306v85h450v-85h-450z" />
    <glyph glyph-name="multiply" unicode="&#xd7;" horiz-adv-x="513" 
d="M454 483l-135 -135l134 -134l-63 -63l-133 134l-134 -134l-63 63l134 134l-135 135l63 62l135 -134l134 134z" />
    <glyph glyph-name="divide" unicode="&#xf7;" horiz-adv-x="571" 
d="M286 457c-37 0 -64 27 -64 64s27 63 64 63c36 0 63 -26 63 -63s-27 -64 -63 -64zM60 306v85h451v-85h-451zM286 113c-37 0 -64 27 -64 64s27 63 64 63c36 0 63 -26 63 -63s-27 -64 -63 -64z" />
    <glyph glyph-name="equal" unicode="=" horiz-adv-x="591" 
d="M70 419v85h451v-85h-451zM70 193v85h451v-85h-451z" />
    <glyph glyph-name="notequal" unicode="&#x2260;" horiz-adv-x="591" 
d="M521 419h-154l-39 -141h193v-85h-216l-31 -115h-103l31 115h-132v85h155l39 141h-194v85h217l31 115h103l-31 -115h131v-85z" />
    <glyph glyph-name="greater" unicode="&#x3e;" horiz-adv-x="550" 
d="M71 594l442 -212v-64l-442 -212v96l316 148l-316 148v96z" />
    <glyph glyph-name="less" unicode="&#x3c;" horiz-adv-x="550" 
d="M479 594v-96l-316 -148l316 -148v-96l-442 212v64z" />
    <glyph glyph-name="greaterequal" unicode="&#x2265;" horiz-adv-x="587" 
d="M76 635l442 -188v-65l-442 -189v96l300 125l-300 125v96zM75 56v84h443v-84h-443z" />
    <glyph glyph-name="lessequal" unicode="&#x2264;" horiz-adv-x="588" 
d="M512 289v-96l-442 189v65l442 188v-96l-300 -125zM69 140h444v-84h-444v84z" />
    <glyph glyph-name="plusminus" unicode="&#xb1;" horiz-adv-x="595" 
d="M348 466h171v-85h-171v-176h-102v176h-171v85h171v176h102v-176zM75 56v85h444v-85h-444z" />
    <glyph glyph-name="approxequal" unicode="&#x2248;" horiz-adv-x="586" 
d="M391 326c-79 0 -136 65 -194 65c-39 0 -68 -21 -68 -55h-58c0 79 52 130 125 130c81 0 135 -64 194 -64c40 0 69 20 69 54h58c0 -81 -52 -130 -126 -130zM391 126c-79 0 -136 65 -194 65c-39 0 -68 -21 -68 -55h-58c0 79 52 130 125 130c81 0 135 -64 194 -64
c40 0 69 20 69 54h58c0 -81 -52 -130 -126 -130z" />
    <glyph glyph-name="asciitilde" unicode="~" horiz-adv-x="587" 
d="M392 226c-79 0 -136 65 -194 65c-39 0 -68 -21 -68 -55h-58c0 79 52 130 125 130c81 0 135 -64 194 -64c40 0 69 20 69 54h58c0 -81 -52 -130 -126 -130z" />
    <glyph glyph-name="logicalnot" unicode="&#xac;" horiz-adv-x="591" 
d="M519 443v-242h-102v158h-349v84h451z" />
    <glyph glyph-name="emptyset" unicode="&#x2205;" horiz-adv-x="674" 
d="M547 541c43 -48 68 -114 68 -192c0 -166 -112 -277 -278 -277c-66 0 -124 18 -170 49l-44 -49l-44 33l47 52c-43 48 -68 114 -68 192c0 166 112 277 279 277c66 0 124 -18 169 -49l45 49l43 -33zM164 349c0 -45 11 -85 31 -116l246 272c-28 21 -63 33 -104 33
c-104 0 -173 -76 -173 -189zM337 160c103 0 172 76 172 189c0 45 -11 85 -31 116l-246 -272c28 -21 64 -33 105 -33z" />
    <glyph glyph-name="infinity" unicode="&#x221e;" horiz-adv-x="726" 
d="M504 447c101 0 168 -67 168 -168s-67 -168 -168 -168c-64 0 -114 29 -141 78c-26 -49 -76 -78 -140 -78c-101 0 -169 67 -169 168s68 168 169 168c64 0 114 -29 140 -78c27 49 77 78 141 78zM230 178c54 0 90 41 90 101c0 61 -36 101 -90 101c-55 0 -91 -40 -91 -101
c0 -60 36 -101 91 -101zM497 178c53 0 90 41 90 101c0 61 -37 101 -90 101c-55 0 -92 -40 -92 -101c0 -60 37 -101 92 -101z" />
    <glyph glyph-name="integral" unicode="&#x222b;" horiz-adv-x="455" 
d="M335 790c49 0 92 -16 120 -45l-28 -72c-21 19 -47 29 -73 29c-46 0 -73 -30 -73 -73v-718c0 -85 -64 -141 -161 -141c-49 0 -92 16 -120 45l29 72c20 -19 46 -29 72 -29c46 0 73 30 73 73v718c0 85 65 141 161 141z" />
    <glyph glyph-name="product" unicode="&#x220f;" horiz-adv-x="730" 
d="M637 780v-1000h-107v912h-330v-912h-106v1000h543z" />
    <glyph glyph-name="summation" unicode="&#x2211;" horiz-adv-x="644" 
d="M33 -220v67l309 436l-299 430v67h551v-88h-422l295 -409l-305 -415h442v-88h-571z" />
    <glyph glyph-name="radical" unicode="&#x221a;" horiz-adv-x="775" 
d="M237 -220l-232 534h112l171 -417l372 883h112l-432 -1000h-103z" />
    <glyph glyph-name="partialdiff" unicode="&#x2202;" horiz-adv-x="661" 
d="M313 750c180 0 301 -151 301 -378c0 -229 -137 -382 -340 -382c-146 0 -243 80 -243 200c0 145 186 244 468 251c-18 135 -89 221 -189 221c-79 0 -140 -42 -181 -100l-67 68c63 77 144 120 251 120zM272 78c133 0 224 110 231 275c-220 -3 -365 -69 -365 -166
c0 -65 54 -109 134 -109z" />
    <glyph glyph-name="percent" unicode="%" horiz-adv-x="813" 
d="M211 414c-105 0 -176 67 -176 168s71 168 176 168c106 0 176 -67 176 -168s-70 -168 -176 -168zM222 -10l-56 35l425 725l56 -34zM212 482c53 0 90 40 90 100c0 61 -37 101 -90 101c-55 0 -92 -40 -92 -101c0 -60 37 -100 92 -100zM603 -10c-106 0 -177 67 -177 168
s71 168 177 168c105 0 175 -67 175 -168s-70 -168 -175 -168zM603 57c53 0 90 40 90 101s-37 100 -90 100c-55 0 -92 -39 -92 -100s37 -101 92 -101z" />
    <glyph glyph-name="perthousand" unicode="&#x2030;" horiz-adv-x="1213" 
d="M211 414c-105 0 -176 67 -176 168s71 168 176 168c106 0 176 -67 176 -168s-70 -168 -176 -168zM222 -10l-56 35l425 725l56 -34zM212 482c53 0 90 40 90 100c0 61 -37 101 -90 101c-55 0 -92 -40 -92 -101c0 -60 37 -100 92 -100zM603 -10c-106 0 -177 67 -177 168
s71 168 177 168c105 0 175 -67 175 -168s-70 -168 -175 -168zM1005 -10c-105 0 -176 67 -176 168s71 168 176 168c106 0 176 -67 176 -168s-70 -168 -176 -168zM603 57c53 0 90 40 90 101s-37 100 -90 100c-55 0 -92 -39 -92 -100s37 -101 92 -101zM1005 57
c54 0 90 40 90 101s-36 100 -90 100c-55 0 -91 -39 -91 -100s36 -101 91 -101z" />
    <glyph glyph-name="lozenge" unicode="&#x25ca;" horiz-adv-x="588" 
d="M341 634l207 -317l-207 -317h-94l-207 317l207 317h94zM294 91l147 226l-147 226l-147 -226z" />
    <glyph glyph-name="at" unicode="@" horiz-adv-x="1095" 
d="M663 477h98v-269c0 -49 27 -81 69 -81c66 0 110 80 110 192c0 210 -154 344 -378 344c-248 0 -408 -162 -408 -405c0 -241 156 -400 408 -400c73 0 190 13 271 36l31 -80c-88 -28 -214 -44 -305 -44c-314 0 -511 196 -511 489c0 297 202 492 514 492
c286 0 480 -167 480 -424c0 -170 -84 -288 -210 -288c-71 0 -124 38 -147 98c-30 -60 -88 -99 -169 -99c-122 0 -210 89 -210 222c0 135 89 225 208 225c67 0 116 -29 147 -77zM536 126c74 0 123 55 123 135c0 81 -49 136 -123 136s-123 -55 -123 -136s49 -135 123 -135z
" />
    <glyph glyph-name="ampersand" unicode="&#x26;" horiz-adv-x="778" 
d="M631 78c34 0 67 5 100 18v-82c-38 -17 -83 -24 -132 -24c-63 0 -112 30 -137 79c-45 -52 -112 -79 -187 -79c-134 0 -225 85 -225 211c0 94 55 165 146 198c-68 31 -109 89 -109 163c0 113 93 188 233 188c136 0 228 -76 228 -190v-123h175v-80h-176v-189
c0 -54 34 -90 84 -90zM320 662c-76 0 -126 -44 -126 -111c0 -68 50 -114 126 -114h126v112c0 68 -51 113 -126 113zM300 78c76 0 145 39 145 125v154h-126c-98 0 -163 -56 -163 -140s58 -139 144 -139z" />
    <glyph glyph-name="paragraph" unicode="&#xb6;" horiz-adv-x="592" 
d="M490 740v-960h-79v885h-97v-885h-79v623h-66c-83 0 -137 68 -137 170c0 101 63 167 157 167h301z" />
    <glyph glyph-name="section" unicode="&#xa7;" horiz-adv-x="599" 
d="M547 240c0 -53 -18 -99 -50 -134c30 -31 50 -72 50 -126c0 -126 -101 -210 -253 -210c-90 0 -174 29 -231 89l41 73c55 -53 119 -74 184 -74c93 0 149 43 149 112c0 72 -63 104 -153 133l-41 14c-105 33 -187 80 -187 200c0 54 18 101 49 137c-30 29 -49 68 -49 123
c0 128 97 213 242 213c88 0 161 -29 220 -85l-47 -74c-49 47 -104 71 -172 71c-80 0 -132 -44 -132 -109c0 -71 57 -95 126 -119l42 -13c101 -34 212 -88 212 -221zM293 208l42 -14c27 -9 56 -20 82 -33c18 18 27 41 27 69c0 76 -66 110 -160 140l-41 13
c-20 6 -39 13 -57 21c-17 -19 -26 -43 -26 -71c0 -75 60 -101 133 -125z" />
    <glyph glyph-name="copyright" unicode="&#xa9;" horiz-adv-x="860" 
d="M430 -10c-229 0 -379 152 -379 380s150 380 379 380c228 0 379 -152 379 -380s-151 -380 -379 -380zM430 40c190 0 318 132 318 330s-128 331 -318 331s-318 -133 -318 -331s128 -330 318 -330zM437 158c-128 0 -215 84 -215 210c0 125 86 208 214 208
c67 0 120 -23 160 -66l-46 -47c-24 31 -63 53 -112 53c-85 0 -141 -60 -141 -148c0 -91 57 -150 141 -150c56 0 95 25 122 65l49 -44c-39 -53 -98 -81 -172 -81z" />
    <glyph glyph-name="registered" unicode="&#xae;" horiz-adv-x="413" 
d="M207 790c92 0 154 -61 154 -154c0 -92 -62 -154 -154 -154c-93 0 -155 62 -155 154c0 93 62 154 155 154zM207 503c77 0 128 53 128 133s-51 134 -128 134c-78 0 -129 -54 -129 -134s51 -133 129 -133zM269 665c0 -21 -12 -37 -31 -45l43 -66h-35l-37 61h-34v-61h-30v163
h67c35 0 57 -21 57 -52zM175 692v-53h32c19 0 31 11 31 26c0 16 -11 27 -29 27h-34z" />
    <glyph glyph-name="trademark" unicode="&#x2122;" horiz-adv-x="726" 
d="M276 780v-48h-90v-238h-58v238h-90v48h238zM657 494h-58l-12 197l-90 -197h-28l-91 198l-12 -198h-58l20 286h60l95 -207l93 207h61z" />
    <glyph glyph-name="degree" unicode="&#xb0;" horiz-adv-x="358" 
d="M179 544c-80 0 -134 49 -134 123s54 123 134 123c81 0 134 -49 134 -123s-53 -123 -134 -123zM179 598c40 0 67 27 67 69c0 41 -27 69 -67 69s-68 -28 -68 -69c0 -42 28 -69 68 -69z" />
    <glyph glyph-name="bar" unicode="|" horiz-adv-x="284" 
d="M89 -220v1000h106v-1000h-106z" />
    <glyph glyph-name="brokenbar" unicode="&#xa6;" horiz-adv-x="281" 
d="M87 380v400h107v-400h-107zM87 -220v400h107v-400h-107z" />
    <glyph glyph-name="dagger" unicode="&#x2020;" horiz-adv-x="548" 
d="M509 534v-89h-182v-665h-106v665h-182v89h182v246h106v-246h182z" />
    <glyph glyph-name="daggerdbl" unicode="&#x2021;" horiz-adv-x="548" 
d="M509 445h-182v-125h182v-88h-182v-452h-106v452h-182v88h182v125h-182v89h182v246h106v-246h182v-89z" />
    <glyph glyph-name="asciicircum" unicode="^" horiz-adv-x="513" 
d="M465 319h-101l-107 214l-108 -214h-101l158 315h101z" />
    <glyph glyph-name="uni0308" unicode="&#x308;" horiz-adv-x="0" 
d="M-346 645c-37 0 -64 27 -64 64s27 64 64 64c36 0 63 -27 63 -64s-27 -64 -63 -64zM-123 645c-37 0 -64 27 -64 64s27 64 64 64c36 0 63 -27 63 -64s-27 -64 -63 -64z" />
    <glyph glyph-name="uni0307" unicode="&#x307;" horiz-adv-x="0" 
d="M-123 645c-37 0 -64 27 -64 64s27 64 64 64c36 0 63 -27 63 -64s-27 -64 -63 -64z" />
    <glyph glyph-name="gravecomb" unicode="&#x300;" horiz-adv-x="0" 
d="M-206 619l-166 155h122l133 -155h-89z" />
    <glyph glyph-name="acutecomb" unicode="&#x301;" horiz-adv-x="0" 
d="M-245 619l133 155h121l-166 -155h-88z" />
    <glyph glyph-name="uni030B" unicode="&#x30b;" horiz-adv-x="0" 
d="M-404 619l106 155h122l-139 -155h-89zM-232 619l106 155h121l-139 -155h-88z" />
    <glyph glyph-name="uni0302" unicode="&#x302;" horiz-adv-x="0" 
d="M-40 619h-96l-84 98l-84 -98h-96l130 155h100z" />
    <glyph glyph-name="uni030C" unicode="&#x30c;" horiz-adv-x="0" 
d="M-136 774h96l-130 -155h-100l-130 155h96l84 -98z" />
    <glyph glyph-name="uni0306" unicode="&#x306;" horiz-adv-x="0" 
d="M-206 610c-103 0 -171 65 -171 164h80c0 -62 36 -104 91 -104c54 0 91 42 91 104h79c0 -99 -68 -164 -170 -164z" />
    <glyph glyph-name="uni030A" unicode="&#x30a;" horiz-adv-x="0" 
d="M-169 584c-68 0 -113 42 -113 107c0 63 45 106 113 106s113 -43 113 -106c0 -65 -45 -107 -113 -107zM-169 632c33 0 55 24 55 59c0 34 -22 57 -55 57s-56 -23 -56 -57c0 -35 23 -59 56 -59z" />
    <glyph glyph-name="tildecomb" unicode="&#x303;" horiz-adv-x="0" 
d="M-149 623c-65 0 -112 65 -161 65c-28 0 -48 -21 -48 -55h-58c0 79 43 130 105 130c68 0 112 -64 161 -64c28 0 48 20 48 54h58c0 -81 -43 -130 -105 -130z" />
    <glyph glyph-name="uni0304" unicode="&#x304;" horiz-adv-x="0" 
d="M-384 636v81h331v-81h-331z" />
    <glyph glyph-name="uni0312" unicode="&#x312;" horiz-adv-x="0" 
d="M-174 593l69 187h78l-54 -187h-93z" />
    <glyph glyph-name="uni0326" unicode="&#x326;" horiz-adv-x="0" 
d="M-159 -220l49 168h93l-64 -168h-78z" />
    <glyph glyph-name="uni0327" unicode="&#x327;" horiz-adv-x="0" 
d="M-127 -60c66 0 108 -33 108 -82c0 -52 -48 -88 -125 -88c-40 0 -76 11 -97 27l20 40c15 -13 39 -21 67 -21c40 0 64 17 64 42c0 24 -24 39 -60 39c-15 0 -29 -3 -42 -8l-14 25l50 86h61l-38 -60h6z" />
    <glyph glyph-name="uni0328" unicode="&#x328;" horiz-adv-x="0" 
d="M-99 -230c-56 0 -94 33 -94 83c0 70 67 136 177 197v-50c-68 -45 -101 -90 -101 -131c0 -23 16 -39 41 -39c20 0 39 8 53 21l10 -53c-23 -18 -50 -28 -86 -28z" />
    <glyph glyph-name="uni0335" unicode="&#x335;" horiz-adv-x="0" 
d="M-520 251v74h372v-74h-372z" />
    <glyph glyph-name="uni0336" unicode="&#x336;" horiz-adv-x="0" 
d="M-866 251v74h800v-74h-800z" />
    <glyph glyph-name="uni0337" unicode="&#x337;" horiz-adv-x="0" 
d="M-271 444l141 99v-84l-141 -99v14l-139 -98v84l139 97v-13z" />
    <glyph glyph-name="uni0338" unicode="&#x338;" horiz-adv-x="0" 
d="M-450 -10l-56 35l425 725l56 -34z" />
    <glyph glyph-name="acute" unicode="&#xb4;" horiz-adv-x="600" 
d="M117 619l133 155h121l-166 -155h-88z" />
    <glyph glyph-name="breve" unicode="&#x2d8;" horiz-adv-x="600" 
d="M207 610c-103 0 -171 65 -171 164h80c0 -62 36 -104 91 -104c54 0 91 42 91 104h79c0 -99 -68 -164 -170 -164z" />
    <glyph glyph-name="caron" unicode="&#x2c7;" horiz-adv-x="600" 
d="M304 774h96l-130 -155h-100l-130 155h96l84 -98z" />
    <glyph glyph-name="cedilla" unicode="&#xb8;" horiz-adv-x="600" 
d="M134 -60c66 0 108 -33 108 -82c0 -52 -48 -88 -125 -88c-40 0 -76 11 -97 27l20 40c15 -13 39 -21 67 -21c40 0 64 17 64 42c0 24 -24 39 -60 39c-15 0 -29 -3 -42 -8l-14 25l50 86h61l-38 -60h6z" />
    <glyph glyph-name="circumflex" unicode="&#x2c6;" horiz-adv-x="600" 
d="M400 619h-96l-84 98l-84 -98h-96l130 155h100z" />
    <glyph glyph-name="dieresis" unicode="&#xa8;" horiz-adv-x="600" 
d="M124 645c-37 0 -64 27 -64 64s27 64 64 64c36 0 63 -27 63 -64s-27 -64 -63 -64zM347 645c-37 0 -64 27 -64 64s27 64 64 64c36 0 63 -27 63 -64s-27 -64 -63 -64z" />
    <glyph glyph-name="dotaccent" unicode="&#x2d9;" horiz-adv-x="600" 
d="M124 645c-37 0 -64 27 -64 64s27 64 64 64c36 0 63 -27 63 -64s-27 -64 -63 -64z" />
    <glyph glyph-name="grave" unicode="`" horiz-adv-x="600" 
d="M156 619l-166 155h122l133 -155h-89z" />
    <glyph glyph-name="hungarumlaut" unicode="&#x2dd;" horiz-adv-x="600" 
d="M131 619l106 155h122l-139 -155h-89zM303 619l106 155h121l-139 -155h-88z" />
    <glyph glyph-name="macron" unicode="&#xaf;" horiz-adv-x="600" 
d="M53 636v81h331v-81h-331z" />
    <glyph glyph-name="ogonek" unicode="&#x2db;" horiz-adv-x="600" 
d="M162 -230c-56 0 -94 33 -94 83c0 70 67 136 177 197v-50c-68 -45 -101 -90 -101 -131c0 -23 16 -39 41 -39c20 0 39 8 53 21l10 -53c-23 -18 -50 -28 -86 -28z" />
    <glyph glyph-name="ring" unicode="&#x2da;" horiz-adv-x="600" 
d="M169 584c-68 0 -113 42 -113 107c0 63 45 106 113 106s113 -43 113 -106c0 -65 -45 -107 -113 -107zM169 632c33 0 55 24 55 59c0 34 -22 57 -55 57s-56 -23 -56 -57c0 -35 23 -59 56 -59z" />
    <glyph glyph-name="tilde" unicode="&#x2dc;" horiz-adv-x="600" 
d="M311 623c-65 0 -112 65 -161 65c-28 0 -48 -21 -48 -55h-58c0 79 43 130 105 130c68 0 112 -64 161 -64c28 0 48 20 48 54h58c0 -81 -43 -130 -105 -130z" />
    <glyph glyph-name="logo" horiz-adv-x="1274" 
d="M76 -10c-10 0 -17 8 -17 18c0 5 1 11 5 15l342 341h-324c-10 0 -23 2 -23 19c0 7 3 11 7 16l340 342h-327c-12 0 -20 7 -20 19v1c0 12 8 19 20 19h370c10 0 23 -1 23 -20c0 -6 -2 -12 -8 -17l-341 -340h330c11 0 20 -9 20 -20v-327l339 338c5 6 11 8 17 8
c17 0 18 -13 18 -22v-324l340 338c4 5 10 8 16 8c10 0 17 -9 17 -19c0 -4 -1 -10 -6 -14l-368 -372c-6 -6 -11 -7 -17 -7c-19 0 -20 13 -20 23v324l-339 -340c-6 -6 -11 -7 -17 -7c-19 0 -20 13 -20 23v324l-340 -340c-6 -6 -11 -7 -17 -7z" />
    </font>
</defs>
</svg>
