<?xml version="1.0" standalone="no"?>
<!DOCTYPE svg PUBLIC "-//W3C//DTD SVG 1.1//EN" "http://www.w3.org/Graphics/SVG/1.1/DTD/svg11.dtd" >
<svg xmlns="http://www.w3.org/2000/svg" xmlns:xlink="http://www.w3.org/1999/xlink" version="1.1">
<metadata>
Created by FontForge 20170910 at Fri Oct 21 20:08:42 2016
 By Jimmy Wärting
Copyright \(c\) 2016 by Alberto Romanos. All rights reserved.
</metadata>
<defs>
<font id="BwModelica-LightItalic" horiz-adv-x="615" >
  <font-face 
    font-family="Bw Modelica Light"
    font-weight="400"
    font-style="italic"
    font-stretch="normal"
    units-per-em="1000"
    panose-1="0 0 5 0 0 0 0 0 0 0"
    ascent="780"
    descent="-220"
    x-height="525"
    cap-height="740"
    bbox="-851 -231 1263 1020"
    underline-thickness="50"
    underline-position="-100"
    slope="-10"
    stemh="42"
    stemv="48"
    unicode-range="U+000D-FB02"
  />
<missing-glyph horiz-adv-x="1274" 
d="M119 -10c-10 0 -17 8 -17 18c0 5 1 11 5 15l342 341h-324c-10 0 -23 2 -23 19c0 7 3 11 7 16l340 342h-327c-12 0 -20 7 -20 19v1c0 12 8 19 20 19h370c10 0 23 -1 23 -20c0 -6 -2 -12 -8 -17l-341 -340h330c11 0 20 -9 20 -20v-327l339 338c5 6 11 8 17 8
c17 0 18 -13 18 -22v-324l340 338c4 5 10 8 16 8c10 0 17 -9 17 -19c0 -4 -1 -10 -6 -14l-368 -372c-6 -6 -11 -7 -17 -7c-19 0 -20 13 -20 23v324l-339 -340c-6 -6 -11 -7 -17 -7c-19 0 -20 13 -20 23v324l-340 -340c-6 -6 -11 -7 -17 -7z" />
    <glyph glyph-name="fi" unicode="fi" horiz-adv-x="587" 
d="M215 633l-19 -108h194l-7 -41h-194l-86 -484h-48l86 484h-93l7 41h93l21 119c16 89 82 146 169 146c41 0 74 -7 100 -21l-6 -38c-23 12 -53 17 -87 17c-65 0 -118 -46 -130 -115zM548 748c19 0 33 -14 33 -34c0 -22 -18 -39 -39 -39c-20 0 -34 15 -34 34
c0 23 18 39 40 39zM396 0l93 525h48l-93 -525h-48z" />
    <glyph glyph-name="fl" unicode="fl" horiz-adv-x="590" 
d="M215 633l-19 -108h194l-7 -41h-194l-86 -484h-48l86 484h-93l7 41h93l21 119c16 89 82 146 169 146c41 0 74 -7 100 -21l-6 -38c-23 12 -53 17 -87 17c-65 0 -118 -46 -130 -115zM535 780h48l-138 -780h-48z" />
    <glyph glyph-name=".notdef" horiz-adv-x="1274" 
d="M119 -10c-10 0 -17 8 -17 18c0 5 1 11 5 15l342 341h-324c-10 0 -23 2 -23 19c0 7 3 11 7 16l340 342h-327c-12 0 -20 7 -20 19v1c0 12 8 19 20 19h370c10 0 23 -1 23 -20c0 -6 -2 -12 -8 -17l-341 -340h330c11 0 20 -9 20 -20v-327l339 338c5 6 11 8 17 8
c17 0 18 -13 18 -22v-324l340 338c4 5 10 8 16 8c10 0 17 -9 17 -19c0 -4 -1 -10 -6 -14l-368 -372c-6 -6 -11 -7 -17 -7c-19 0 -20 13 -20 23v324l-339 -340c-6 -6 -11 -7 -17 -7c-19 0 -20 13 -20 23v324l-340 -340c-6 -6 -11 -7 -17 -7z" />
    <glyph glyph-name="A" unicode="A" horiz-adv-x="712" 
d="M598 0l-55 211h-409l-130 -211h-56l459 740h49l197 -740h-55zM160 254h372l-110 425z" />
    <glyph glyph-name="Aacute" unicode="&#xc1;" horiz-adv-x="712" 
d="M634 980l-172 -145h-45l153 145h64zM598 0l-55 211h-409l-130 -211h-56l459 740h49l197 -740h-55zM160 254h372l-110 425z" />
    <glyph glyph-name="Abreve" unicode="&#x102;" horiz-adv-x="712" 
d="M450 825c-81 0 -131 48 -131 122c0 11 1 22 3 33h41c-2 -11 -3 -21 -3 -30c0 -57 34 -93 92 -93c68 0 120 51 133 123h41c-16 -95 -86 -155 -176 -155zM598 0l-55 211h-409l-130 -211h-56l459 740h49l197 -740h-55zM160 254h372l-110 425z" />
    <glyph glyph-name="Acircumflex" unicode="&#xc2;" horiz-adv-x="712" 
d="M470 952l-129 -117h-48l155 145h53l102 -145h-47zM598 0l-55 211h-409l-130 -211h-56l459 740h49l197 -740h-55zM160 254h372l-110 425z" />
    <glyph glyph-name="Adieresis" unicode="&#xc4;" horiz-adv-x="712" 
d="M367 890c-19 0 -32 15 -32 33c0 24 20 40 40 40c19 0 32 -14 32 -33c0 -24 -20 -40 -40 -40zM555 890c-20 0 -33 15 -33 33c0 24 21 40 40 40c20 0 33 -14 33 -33c0 -24 -21 -40 -40 -40zM598 0l-55 211h-409l-130 -211h-56l459 740h49l197 -740h-55zM160 254h372
l-110 425z" />
    <glyph glyph-name="Agrave" unicode="&#xc0;" horiz-adv-x="712" 
d="M473 835h-43l-120 145h61zM598 0l-55 211h-409l-130 -211h-56l459 740h49l197 -740h-55zM160 254h372l-110 425z" />
    <glyph glyph-name="Amacron" unicode="&#x100;" horiz-adv-x="712" 
d="M608 910l-7 -40h-294l7 40h294zM598 0l-55 211h-409l-130 -211h-56l459 740h49l197 -740h-55zM160 254h372l-110 425z" />
    <glyph glyph-name="Aogonek" unicode="&#x104;" horiz-adv-x="712" 
d="M552 -198c23 0 47 10 67 26l1 -30c-25 -19 -53 -28 -81 -28c-43 0 -69 25 -69 62c0 55 47 113 132 168h-4l-55 211h-409l-130 -211h-56l459 740h49l197 -740c-96 -57 -142 -112 -142 -158c0 -24 16 -40 41 -40zM160 254h372l-110 425z" />
    <glyph glyph-name="Aring" unicode="&#xc5;" horiz-adv-x="712" 
d="M444 799c-56 0 -91 33 -91 85c0 72 52 123 123 123c56 0 91 -33 91 -85c0 -70 -53 -123 -123 -123zM474 980c-54 0 -89 -46 -89 -96c0 -35 23 -57 61 -57c53 0 89 47 89 94c0 36 -23 59 -61 59zM598 0l-55 211h-409l-130 -211h-56l459 740h49l197 -740h-55zM160 254h372
l-110 425z" />
    <glyph glyph-name="Atilde" unicode="&#xc3;" horiz-adv-x="712" 
d="M385 923c-34 0 -65 -25 -73 -68h-33c10 64 58 108 110 108c69 0 90 -77 147 -77c34 0 65 25 72 67h34c-11 -65 -58 -108 -110 -108c-68 0 -90 78 -147 78zM598 0l-55 211h-409l-130 -211h-56l459 740h49l197 -740h-55zM160 254h372l-110 425z" />
    <glyph glyph-name="AE" unicode="&#xc6;" horiz-adv-x="1062" 
d="M1060 697h-505l32 -297h398l-8 -44h-385l34 -313h329l-9 -43h-370l-22 211h-397l-158 -211h-59l562 740h566zM189 254h360l-44 422z" />
    <glyph glyph-name="B" unicode="B" horiz-adv-x="674" 
d="M470 385c83 -17 133 -73 133 -151c0 -139 -119 -234 -266 -234h-286l131 740h261c117 0 189 -60 189 -153c0 -103 -66 -172 -162 -202zM226 697l-52 -295h196c117 0 208 73 208 177c0 72 -60 118 -158 118h-194zM332 43c124 0 217 80 217 189c0 77 -60 126 -159 126h-224
l-55 -315h221z" />
    <glyph glyph-name="C" unicode="C" horiz-adv-x="751" 
d="M367 -10c-192 0 -309 117 -309 299c0 255 183 461 438 461c122 0 201 -50 256 -122l-37 -30c-47 62 -115 109 -219 109c-227 0 -384 -192 -384 -414c0 -159 96 -260 259 -260c111 0 215 56 282 134l32 -36c-80 -86 -192 -141 -318 -141z" />
    <glyph glyph-name="Cacute" unicode="&#x106;" horiz-adv-x="751" 
d="M473 835l153 145h64l-172 -145h-45zM367 -10c-192 0 -309 117 -309 299c0 255 183 461 438 461c122 0 201 -50 256 -122l-37 -30c-47 62 -115 109 -219 109c-227 0 -384 -192 -384 -414c0 -159 96 -260 259 -260c111 0 215 56 282 134l32 -36
c-80 -86 -192 -141 -318 -141z" />
    <glyph glyph-name="Ccaron" unicode="&#x10c;" horiz-adv-x="751" 
d="M530 835h-52l-104 145h49l86 -117l127 117h48zM496 750c122 0 201 -50 256 -122l-37 -30c-47 62 -115 109 -219 109c-227 0 -384 -192 -384 -414c0 -159 96 -260 259 -260c111 0 215 56 282 134l32 -36c-80 -86 -192 -141 -318 -141c-192 0 -309 117 -309 299
c0 255 183 461 438 461z" />
    <glyph glyph-name="Ccedilla" unicode="&#xc7;" horiz-adv-x="751" 
d="M496 750c122 0 201 -50 256 -122l-37 -30c-47 62 -115 109 -219 109c-227 0 -384 -192 -384 -414c0 -159 96 -260 259 -260c111 0 215 56 282 134l32 -36c-78 -84 -186 -138 -308 -141l-51 -61c8 1 16 2 25 2c58 0 93 -27 93 -68c0 -59 -59 -93 -129 -93
c-35 0 -69 11 -90 30l17 24c19 -18 44 -25 71 -25c50 0 92 25 92 62c0 27 -26 43 -67 43c-19 0 -36 -3 -53 -9l-7 17l64 79c-177 10 -284 124 -284 298c0 255 183 461 438 461z" />
    <glyph glyph-name="Cdotaccent" unicode="&#x10a;" horiz-adv-x="751" 
d="M518 890c-19 0 -33 15 -33 34c0 23 18 39 39 39c19 0 33 -14 33 -34c0 -22 -18 -39 -39 -39zM367 -10c-192 0 -309 117 -309 299c0 255 183 461 438 461c122 0 201 -50 256 -122l-37 -30c-47 62 -115 109 -219 109c-227 0 -384 -192 -384 -414c0 -159 96 -260 259 -260
c111 0 215 56 282 134l32 -36c-80 -86 -192 -141 -318 -141z" />
    <glyph glyph-name="D" unicode="D" horiz-adv-x="754" 
d="M416 740c187 0 300 -115 300 -293c0 -251 -180 -447 -428 -447h-237l131 740h234zM285 43c223 0 377 184 377 400c0 155 -96 254 -261 254h-175l-115 -654h174z" />
    <glyph glyph-name="Eth" unicode="&#xd0;" horiz-adv-x="754" 
d="M416 740c187 0 300 -115 300 -293c0 -251 -180 -447 -428 -447h-237l63 354h-88l6 37h88l62 349h234zM285 43c223 0 377 184 377 400c0 155 -96 254 -261 254h-175l-54 -306h214l-6 -37h-214l-55 -311h174z" />
    <glyph glyph-name="Dcaron" unicode="&#x10e;" horiz-adv-x="754" 
d="M431 835h-52l-104 145h49l86 -117l127 117h48zM416 740c187 0 300 -115 300 -293c0 -251 -180 -447 -428 -447h-237l131 740h234zM285 43c223 0 377 184 377 400c0 155 -96 254 -261 254h-175l-115 -654h174z" />
    <glyph glyph-name="Dcroat" unicode="&#x110;" horiz-adv-x="754" 
d="M416 740c187 0 300 -115 300 -293c0 -251 -180 -447 -428 -447h-237l63 354h-88l6 37h88l62 349h234zM285 43c223 0 377 184 377 400c0 155 -96 254 -261 254h-175l-54 -306h214l-6 -37h-214l-55 -311h174z" />
    <glyph glyph-name="E" unicode="E" horiz-adv-x="613" 
d="M612 697h-386l-52 -297h363l-8 -44h-363l-55 -313h396l-8 -43h-448l131 740h438z" />
    <glyph glyph-name="Eacute" unicode="&#xc9;" horiz-adv-x="613" 
d="M603 980l-172 -145h-45l153 145h64zM612 697h-386l-52 -297h363l-8 -44h-363l-55 -313h396l-8 -43h-448l131 740h438z" />
    <glyph glyph-name="Ecaron" unicode="&#x11a;" horiz-adv-x="613" 
d="M443 835h-52l-104 145h49l86 -117l127 117h48zM612 697h-386l-52 -297h363l-8 -44h-363l-55 -313h396l-8 -43h-448l131 740h438z" />
    <glyph glyph-name="Ecircumflex" unicode="&#xca;" horiz-adv-x="613" 
d="M439 952l-129 -117h-48l155 145h53l102 -145h-47zM612 697h-386l-52 -297h363l-8 -44h-363l-55 -313h396l-8 -43h-448l131 740h438z" />
    <glyph glyph-name="Edieresis" unicode="&#xcb;" horiz-adv-x="613" 
d="M336 890c-19 0 -32 15 -32 33c0 24 20 40 40 40c19 0 32 -14 32 -33c0 -24 -20 -40 -40 -40zM524 890c-20 0 -33 15 -33 33c0 24 21 40 40 40c20 0 33 -14 33 -33c0 -24 -21 -40 -40 -40zM612 697h-386l-52 -297h363l-8 -44h-363l-55 -313h396l-8 -43h-448l131 740h438z
" />
    <glyph glyph-name="Edotaccent" unicode="&#x116;" horiz-adv-x="613" 
d="M431 890c-19 0 -33 15 -33 34c0 23 18 39 39 39c19 0 33 -14 33 -34c0 -22 -18 -39 -39 -39zM612 697h-386l-52 -297h363l-8 -44h-363l-55 -313h396l-8 -43h-448l131 740h438z" />
    <glyph glyph-name="Egrave" unicode="&#xc8;" horiz-adv-x="613" 
d="M442 835h-43l-120 145h61zM612 697h-386l-52 -297h363l-8 -44h-363l-55 -313h396l-8 -43h-448l131 740h438z" />
    <glyph glyph-name="Emacron" unicode="&#x112;" horiz-adv-x="613" 
d="M577 910l-7 -40h-294l7 40h294zM612 697h-386l-52 -297h363l-8 -44h-363l-55 -313h396l-8 -43h-448l131 740h438z" />
    <glyph glyph-name="Eogonek" unicode="&#x118;" horiz-adv-x="613" 
d="M612 697h-386l-52 -297h363l-8 -44h-363l-55 -313h396l-8 -43c-96 -57 -142 -112 -142 -158c0 -24 16 -40 41 -40c23 0 47 10 67 26l1 -30c-25 -19 -53 -28 -81 -28c-43 0 -69 25 -69 62c0 55 47 113 132 168h-397l131 740h438z" />
    <glyph glyph-name="F" unicode="F" horiz-adv-x="546" 
d="M574 697h-348l-56 -317h314l-8 -44h-314l-59 -336h-52l131 740h400z" />
    <glyph glyph-name="G" unicode="G" horiz-adv-x="789" 
d="M765 384c0 -5 0 -10 -1 -16c-6 -233 -198 -378 -407 -378c-186 0 -298 116 -298 297c0 253 176 463 427 463c96 0 165 -20 231 -75l-38 -32c-52 46 -117 64 -197 64c-218 0 -370 -199 -370 -418c0 -157 94 -256 250 -256c172 0 336 121 346 307h-255l8 44h304z" />
    <glyph glyph-name="Gbreve" unicode="&#x11e;" horiz-adv-x="789" 
d="M505 825c-81 0 -131 48 -131 122c0 11 1 22 3 33h41c-2 -11 -3 -21 -3 -30c0 -57 34 -93 92 -93c68 0 120 51 133 123h41c-16 -95 -86 -155 -176 -155zM765 384c0 -5 0 -10 -1 -16c-6 -233 -198 -378 -407 -378c-186 0 -298 116 -298 297c0 253 176 463 427 463
c96 0 165 -20 231 -75l-38 -32c-52 46 -117 64 -197 64c-218 0 -370 -199 -370 -418c0 -157 94 -256 250 -256c172 0 336 121 346 307h-255l8 44h304z" />
    <glyph glyph-name="Gcommaaccent" unicode="&#x122;" horiz-adv-x="789" 
d="M765 384c0 -5 0 -10 -1 -16c-6 -233 -198 -378 -407 -378c-186 0 -298 116 -298 297c0 253 176 463 427 463c96 0 165 -20 231 -75l-38 -32c-52 46 -117 64 -197 64c-218 0 -370 -199 -370 -418c0 -157 94 -256 250 -256c172 0 336 121 346 307h-255l8 44h304zM240 -220
l86 168h47l-94 -168h-39z" />
    <glyph glyph-name="Gdotaccent" unicode="&#x120;" horiz-adv-x="789" 
d="M517 890c-19 0 -33 15 -33 34c0 23 18 39 39 39c19 0 33 -14 33 -34c0 -22 -18 -39 -39 -39zM765 384c0 -5 0 -10 -1 -16c-6 -233 -198 -378 -407 -378c-186 0 -298 116 -298 297c0 253 176 463 427 463c96 0 165 -20 231 -75l-38 -32c-52 46 -117 64 -197 64
c-218 0 -370 -199 -370 -418c0 -157 94 -256 250 -256c172 0 336 121 346 307h-255l8 44h304z" />
    <glyph glyph-name="H" unicode="H" horiz-adv-x="796" 
d="M714 740h51l-131 -740h-51l63 354h-480l-63 -354h-52l131 740h52l-61 -343h480z" />
    <glyph glyph-name="Hbar" unicode="&#x126;" horiz-adv-x="796" 
d="M830 598l-7 -37h-90l-99 -561h-51l63 354h-480l-63 -354h-52l99 561h-90l7 37h90l25 142h52l-25 -142h480l25 142h51l-25 -142h90zM653 397l29 164h-480l-29 -164h480z" />
    <glyph glyph-name="I" unicode="I" horiz-adv-x="264" 
d="M51 0l131 740h52l-131 -740h-52z" />
    <glyph glyph-name="Iacute" unicode="&#xcd;" horiz-adv-x="264" 
d="M193 835l153 145h64l-172 -145h-45zM51 0l131 740h52l-131 -740h-52z" />
    <glyph glyph-name="Icircumflex" unicode="&#xce;" horiz-adv-x="264" 
d="M379 835h-47l-86 117l-129 -117h-48l155 145h53zM51 0l131 740h52l-131 -740h-52z" />
    <glyph glyph-name="Idieresis" unicode="&#xcf;" horiz-adv-x="264" 
d="M143 890c-19 0 -32 15 -32 33c0 24 20 40 40 40c19 0 32 -14 32 -33c0 -24 -20 -40 -40 -40zM331 890c-20 0 -33 15 -33 33c0 24 21 40 40 40c20 0 33 -14 33 -33c0 -24 -21 -40 -40 -40zM51 0l131 740h52l-131 -740h-52z" />
    <glyph glyph-name="Idotaccent" unicode="&#x130;" horiz-adv-x="264" 
d="M238 890c-19 0 -33 15 -33 34c0 23 18 39 39 39c19 0 33 -14 33 -34c0 -22 -18 -39 -39 -39zM51 0l131 740h52l-131 -740h-52z" />
    <glyph glyph-name="Igrave" unicode="&#xcc;" horiz-adv-x="264" 
d="M206 835l-120 145h61l102 -145h-43zM51 0l131 740h52l-131 -740h-52z" />
    <glyph glyph-name="Imacron" unicode="&#x12a;" horiz-adv-x="264" 
d="M83 870l7 40h294l-7 -40h-294zM51 0l131 740h52l-131 -740h-52z" />
    <glyph glyph-name="Iogonek" unicode="&#x12e;" horiz-adv-x="264" 
d="M103 0c-96 -57 -142 -112 -142 -158c0 -24 16 -40 41 -40c23 0 47 10 67 26l1 -30c-25 -19 -53 -28 -81 -28c-43 0 -69 25 -69 62c0 55 47 113 132 168h-1l131 740h52z" />
    <glyph glyph-name="J" unicode="J" horiz-adv-x="403" 
d="M88 -10c-52 0 -99 19 -123 52l18 33c25 -29 65 -42 104 -42c71 0 124 51 136 125l104 582h51l-105 -596c-17 -94 -86 -154 -185 -154z" />
    <glyph glyph-name="K" unicode="K" horiz-adv-x="666" 
d="M724 740l-348 -361l225 -379h-61l-211 358h-163l-63 -358h-52l131 740h52l-60 -339h160l326 339h64z" />
    <glyph glyph-name="Kcommaaccent" unicode="&#x136;" horiz-adv-x="666" 
d="M724 740l-348 -361l225 -379h-61l-211 358h-163l-63 -358h-52l131 740h52l-60 -339h160l326 339h64zM192 -220l86 168h47l-94 -168h-39z" />
    <glyph glyph-name="L" unicode="L" horiz-adv-x="522" 
d="M111 43h358l-8 -43h-410l131 740h52z" />
    <glyph glyph-name="Lacute" unicode="&#x139;" horiz-adv-x="522" 
d="M410 980l-172 -145h-45l153 145h64zM111 43h358l-8 -43h-410l131 740h52z" />
    <glyph glyph-name="Lcaron" unicode="&#x13d;" horiz-adv-x="512" 
d="M234 740l-123 -697h358l-8 -43h-410l131 740h52zM533 740l-106 -194h-44l99 194h51z" />
    <glyph glyph-name="Lcommaaccent" unicode="&#x13b;" horiz-adv-x="522" 
d="M111 43h358l-8 -43h-410l131 740h52zM122 -220l86 168h47l-94 -168h-39z" />
    <glyph glyph-name="Lslash" unicode="&#x141;" horiz-adv-x="522" 
d="M111 43h358l-8 -43h-410l64 359l-93 -58l7 42l93 58l60 339h52l-55 -308l124 76l-8 -42l-123 -76z" />
    <glyph glyph-name="M" unicode="M" horiz-adv-x="983" 
d="M880 748h51l-89 -748h-52l80 645l-416 -645h-35l-188 649l-149 -649h-51l174 748h51l193 -669z" />
    <glyph glyph-name="N" unicode="N" horiz-adv-x="829" 
d="M51 0l131 740h34l417 -649l114 649h52l-131 -740h-34l-417 649l-114 -649h-52z" />
    <glyph glyph-name="Nacute" unicode="&#x143;" horiz-adv-x="829" 
d="M476 835l153 145h64l-172 -145h-45zM51 0l131 740h34l417 -649l114 649h52l-131 -740h-34l-417 649l-114 -649h-52z" />
    <glyph glyph-name="Ncaron" unicode="&#x147;" horiz-adv-x="829" 
d="M533 835h-52l-104 145h49l86 -117l127 117h48zM747 740h52l-131 -740h-34l-417 649l-114 -649h-52l131 740h34l417 -649z" />
    <glyph glyph-name="Ncommaaccent" unicode="&#x145;" horiz-adv-x="829" 
d="M51 0l131 740h34l417 -649l114 649h52l-131 -740h-34l-417 649l-114 -649h-52zM250 -220l86 168h47l-94 -168h-39z" />
    <glyph glyph-name="Eng" unicode="&#x14a;" horiz-adv-x="829" 
d="M747 740h52l-131 -740l-13 -77c-17 -95 -86 -154 -185 -154c-52 0 -99 20 -123 52l18 33c25 -29 65 -42 103 -42c72 0 125 52 137 125l15 85l-403 627l-114 -649h-52l131 740h34l417 -649z" />
    <glyph glyph-name="Ntilde" unicode="&#xd1;" horiz-adv-x="829" 
d="M591 845c-68 0 -90 78 -147 78c-34 0 -65 -25 -73 -68h-33c10 64 58 108 110 108c69 0 90 -77 147 -77c34 0 65 25 72 67h34c-11 -65 -58 -108 -110 -108zM51 0l131 740h34l417 -649l114 649h52l-131 -740h-34l-417 649l-114 -649h-52z" />
    <glyph glyph-name="O" unicode="O" horiz-adv-x="836" 
d="M364 -10c-190 0 -306 116 -306 298c0 254 181 462 435 462c189 0 305 -116 305 -299c0 -253 -182 -461 -434 -461zM368 33c221 0 376 197 376 417c0 157 -96 257 -255 257c-222 0 -378 -196 -378 -416c0 -158 97 -258 257 -258z" />
    <glyph glyph-name="Oacute" unicode="&#xd3;" horiz-adv-x="836" 
d="M479 835l153 145h64l-172 -145h-45zM364 -10c-190 0 -306 116 -306 298c0 254 181 462 435 462c189 0 305 -116 305 -299c0 -253 -182 -461 -434 -461zM368 33c221 0 376 197 376 417c0 157 -96 257 -255 257c-222 0 -378 -196 -378 -416c0 -158 97 -258 257 -258z" />
    <glyph glyph-name="Ocircumflex" unicode="&#xd4;" horiz-adv-x="836" 
d="M532 952l-129 -117h-48l155 145h53l102 -145h-47zM493 750c189 0 305 -116 305 -299c0 -253 -182 -461 -434 -461c-190 0 -306 116 -306 298c0 254 181 462 435 462zM368 33c221 0 376 197 376 417c0 157 -96 257 -255 257c-222 0 -378 -196 -378 -416
c0 -158 97 -258 257 -258z" />
    <glyph glyph-name="Odieresis" unicode="&#xd6;" horiz-adv-x="836" 
d="M429 890c-19 0 -32 15 -32 33c0 24 20 40 40 40c19 0 32 -14 32 -33c0 -24 -20 -40 -40 -40zM617 890c-20 0 -33 15 -33 33c0 24 21 40 40 40c20 0 33 -14 33 -33c0 -24 -21 -40 -40 -40zM364 -10c-190 0 -306 116 -306 298c0 254 181 462 435 462
c189 0 305 -116 305 -299c0 -253 -182 -461 -434 -461zM368 33c221 0 376 197 376 417c0 157 -96 257 -255 257c-222 0 -378 -196 -378 -416c0 -158 97 -258 257 -258z" />
    <glyph glyph-name="Ograve" unicode="&#xd2;" horiz-adv-x="836" 
d="M492 835l-120 145h61l102 -145h-43zM364 -10c-190 0 -306 116 -306 298c0 254 181 462 435 462c189 0 305 -116 305 -299c0 -253 -182 -461 -434 -461zM368 33c221 0 376 197 376 417c0 157 -96 257 -255 257c-222 0 -378 -196 -378 -416c0 -158 97 -258 257 -258z" />
    <glyph glyph-name="Ohungarumlaut" unicode="&#x150;" horiz-adv-x="836" 
d="M417 835l131 145h62l-150 -145h-43zM548 835l131 145h62l-150 -145h-43zM364 -10c-190 0 -306 116 -306 298c0 254 181 462 435 462c189 0 305 -116 305 -299c0 -253 -182 -461 -434 -461zM368 33c221 0 376 197 376 417c0 157 -96 257 -255 257
c-222 0 -378 -196 -378 -416c0 -158 97 -258 257 -258z" />
    <glyph glyph-name="Omacron" unicode="&#x14c;" horiz-adv-x="836" 
d="M369 870l7 40h294l-7 -40h-294zM364 -10c-190 0 -306 116 -306 298c0 254 181 462 435 462c189 0 305 -116 305 -299c0 -253 -182 -461 -434 -461zM368 33c221 0 376 197 376 417c0 157 -96 257 -255 257c-222 0 -378 -196 -378 -416c0 -158 97 -258 257 -258z" />
    <glyph glyph-name="Oslash" unicode="&#xd8;" horiz-adv-x="836" 
d="M852 717l-101 -90c31 -48 47 -107 47 -176c0 -253 -182 -461 -434 -461c-98 0 -177 31 -230 86l-96 -86l-30 33l98 88c-31 48 -48 107 -48 177c0 254 181 462 435 462c99 0 177 -32 230 -88l98 88zM111 291c0 -56 12 -105 35 -144l539 481c-44 51 -111 79 -196 79
c-222 0 -378 -196 -378 -416zM744 450c0 54 -12 102 -33 141l-538 -481c44 -49 111 -77 195 -77c221 0 376 197 376 417z" />
    <glyph glyph-name="Otilde" unicode="&#xd5;" horiz-adv-x="836" 
d="M594 845c-68 0 -90 78 -147 78c-34 0 -65 -25 -73 -68h-33c10 64 58 108 110 108c69 0 90 -77 147 -77c34 0 65 25 72 67h34c-11 -65 -58 -108 -110 -108zM364 -10c-190 0 -306 116 -306 298c0 254 181 462 435 462c189 0 305 -116 305 -299c0 -253 -182 -461 -434 -461z
M368 33c221 0 376 197 376 417c0 157 -96 257 -255 257c-222 0 -378 -196 -378 -416c0 -158 97 -258 257 -258z" />
    <glyph glyph-name="OE" unicode="&#x152;" horiz-adv-x="1236" 
d="M1235 697h-387l-52 -297h364l-8 -44h-364l-55 -313h397l-8 -43h-448l30 172c-75 -110 -196 -182 -342 -182c-189 0 -304 116 -304 297c0 254 180 463 432 463c146 0 246 -71 283 -189l32 179h438zM368 33c221 0 377 197 377 417c0 157 -97 257 -256 257
c-222 0 -377 -196 -377 -416c0 -158 96 -258 256 -258z" />
    <glyph glyph-name="P" unicode="P" horiz-adv-x="635" 
d="M438 740c125 0 202 -70 202 -180c0 -150 -119 -264 -276 -264h-209l-52 -296h-52l131 740h256zM358 339c131 0 228 96 228 218c0 85 -61 140 -161 140h-199l-63 -358h195z" />
    <glyph glyph-name="Thorn" unicode="&#xde;" horiz-adv-x="638" 
d="M413 597c125 0 202 -70 202 -179c0 -151 -119 -265 -275 -265h-210l-27 -153h-52l131 740h52l-25 -143h204zM334 197c130 0 227 95 227 217c0 86 -61 140 -161 140h-199l-63 -357h196z" />
    <glyph glyph-name="Q" unicode="Q" horiz-adv-x="838" 
d="M798 451c0 -131 -49 -250 -131 -334l120 -117h-64l-88 87c-73 -61 -166 -97 -271 -97c-190 0 -306 116 -306 298c0 254 181 462 435 462c189 0 305 -116 305 -299zM368 33c91 0 170 33 233 88l-126 124h62l95 -93c71 77 112 184 112 298c0 157 -96 257 -255 257
c-222 0 -378 -196 -378 -416c0 -158 97 -258 257 -258z" />
    <glyph glyph-name="R" unicode="R" horiz-adv-x="686" 
d="M651 564c0 -124 -87 -215 -206 -242l157 -322h-60l-152 314c-7 -1 -15 -1 -23 -1h-209l-55 -313h-52l131 740h257c131 0 212 -69 212 -176zM166 356h201c132 0 229 87 229 204c0 84 -63 137 -169 137h-201z" />
    <glyph glyph-name="Racute" unicode="&#x154;" horiz-adv-x="686" 
d="M603 980l-172 -145h-45l153 145h64zM651 564c0 -124 -87 -215 -206 -242l157 -322h-60l-152 314c-7 -1 -15 -1 -23 -1h-209l-55 -313h-52l131 740h257c131 0 212 -69 212 -176zM166 356h201c132 0 229 87 229 204c0 84 -63 137 -169 137h-201z" />
    <glyph glyph-name="Rcaron" unicode="&#x158;" horiz-adv-x="686" 
d="M443 835h-52l-104 145h49l86 -117l127 117h48zM651 564c0 -124 -87 -215 -206 -242l157 -322h-60l-152 314c-7 -1 -15 -1 -23 -1h-209l-55 -313h-52l131 740h257c131 0 212 -69 212 -176zM166 356h201c132 0 229 87 229 204c0 84 -63 137 -169 137h-201z" />
    <glyph glyph-name="Rcommaaccent" unicode="&#x156;" horiz-adv-x="686" 
d="M651 564c0 -124 -87 -215 -206 -242l157 -322h-60l-152 314c-7 -1 -15 -1 -23 -1h-209l-55 -313h-52l131 740h257c131 0 212 -69 212 -176zM166 356h201c132 0 229 87 229 204c0 84 -63 137 -169 137h-201zM184 -220l86 168h47l-94 -168h-39z" />
    <glyph glyph-name="S" unicode="S" horiz-adv-x="605" 
d="M242 -10c-93 0 -177 27 -219 85l26 35c46 -56 114 -77 192 -77c133 0 242 71 242 174c0 75 -74 112 -176 145l-50 16c-83 25 -157 65 -157 156c0 135 124 226 279 226c103 0 168 -33 210 -86l-30 -34c-42 52 -100 77 -182 77c-126 0 -222 -74 -222 -173
c0 -71 62 -99 132 -121l53 -16c90 -29 196 -72 196 -181c0 -138 -133 -226 -294 -226z" />
    <glyph glyph-name="Sacute" unicode="&#x15a;" horiz-adv-x="605" 
d="M371 835l153 145h64l-172 -145h-45zM242 -10c-93 0 -177 27 -219 85l26 35c46 -56 114 -77 192 -77c133 0 242 71 242 174c0 75 -74 112 -176 145l-50 16c-83 25 -157 65 -157 156c0 135 124 226 279 226c103 0 168 -33 210 -86l-30 -34c-42 52 -100 77 -182 77
c-126 0 -222 -74 -222 -173c0 -71 62 -99 132 -121l53 -16c90 -29 196 -72 196 -181c0 -138 -133 -226 -294 -226z" />
    <glyph glyph-name="Scaron" unicode="&#x160;" horiz-adv-x="605" 
d="M428 835h-52l-104 145h49l86 -117l127 117h48zM379 750c103 0 168 -33 210 -86l-30 -34c-42 52 -100 77 -182 77c-126 0 -222 -74 -222 -173c0 -71 62 -99 132 -121l53 -16c90 -29 196 -72 196 -181c0 -138 -133 -226 -294 -226c-93 0 -177 27 -219 85l26 35
c46 -56 114 -77 192 -77c133 0 242 71 242 174c0 75 -74 112 -176 145l-50 16c-83 25 -157 65 -157 156c0 135 124 226 279 226z" />
    <glyph glyph-name="Scedilla" unicode="&#x15e;" horiz-adv-x="605" 
d="M379 750c103 0 168 -33 210 -86l-30 -34c-42 52 -100 77 -182 77c-126 0 -222 -74 -222 -173c0 -71 62 -99 132 -121l53 -16c90 -29 196 -72 196 -181c0 -128 -114 -213 -259 -225l-52 -62c8 1 16 2 25 2c58 0 93 -27 93 -68c0 -59 -59 -93 -129 -93c-35 0 -69 11 -90 30
l17 24c19 -18 44 -25 71 -25c50 0 92 25 92 62c0 27 -26 43 -67 43c-19 0 -36 -3 -53 -9l-7 17l63 78c-92 0 -175 27 -217 85l26 35c46 -56 114 -77 192 -77c133 0 242 71 242 174c0 75 -74 112 -176 145l-50 16c-83 25 -157 65 -157 156c0 135 124 226 279 226z" />
    <glyph glyph-name="Scommaaccent" unicode="&#x218;" horiz-adv-x="605" 
d="M242 -10c-93 0 -177 27 -219 85l26 35c46 -56 114 -77 192 -77c133 0 242 71 242 174c0 75 -74 112 -176 145l-50 16c-83 25 -157 65 -157 156c0 135 124 226 279 226c103 0 168 -33 210 -86l-30 -34c-42 52 -100 77 -182 77c-126 0 -222 -74 -222 -173
c0 -71 62 -99 132 -121l53 -16c90 -29 196 -72 196 -181c0 -138 -133 -226 -294 -226zM155 -220l86 168h47l-94 -168h-39z" />
    <glyph glyph-name="uni1E9E" unicode="&#x1e9e;" horiz-adv-x="661" 
d="M308 -10c-38 0 -71 5 -103 21l7 42c31 -16 61 -20 93 -20c129 0 232 83 232 196c0 84 -71 138 -186 138l7 41c115 0 205 78 205 177c0 75 -60 122 -159 122c-110 0 -195 -62 -211 -153l-98 -554h-51l99 564c20 113 125 186 264 186c130 0 210 -62 210 -157
c0 -98 -71 -178 -171 -205c89 -20 143 -81 143 -162c0 -143 -128 -236 -281 -236z" />
    <glyph glyph-name="T" unicode="T" horiz-adv-x="560" 
d="M624 740l-8 -43h-244l-123 -697h-51l123 697h-244l8 43h539z" />
    <glyph glyph-name="Tbar" unicode="&#x166;" horiz-adv-x="560" 
d="M616 697h-244l-56 -317h156l-6 -37h-156l-61 -343h-51l61 343h-147l6 37h147l56 317h-244l8 43h539z" />
    <glyph glyph-name="Tcaron" unicode="&#x164;" horiz-adv-x="560" 
d="M396 835h-52l-104 145h49l86 -117l127 117h48zM624 740l-8 -43h-244l-123 -697h-51l123 697h-244l8 43h539z" />
    <glyph glyph-name="uni0162" unicode="&#x162;" horiz-adv-x="560" 
d="M249 0h-7l-59 -71c8 1 16 2 25 2c58 0 93 -27 93 -68c0 -59 -60 -93 -130 -93c-35 0 -68 11 -89 30l17 24c18 -18 44 -25 70 -25c51 0 92 25 92 62c0 27 -25 43 -67 43c-18 0 -36 -3 -52 -9l-7 17l71 88h-8l123 697h-244l8 43h539l-8 -43h-244z" />
    <glyph glyph-name="uni021A" unicode="&#x21a;" horiz-adv-x="560" 
d="M624 740l-8 -43h-244l-123 -697h-51l123 697h-244l8 43h539zM113 -220l86 168h47l-94 -168h-39z" />
    <glyph glyph-name="U" unicode="U" horiz-adv-x="786" 
d="M339 -10c-159 0 -257 85 -257 217c0 17 2 35 5 53l85 480h51l-85 -480c-3 -16 -4 -32 -4 -46c0 -111 79 -181 209 -181c147 0 262 93 286 228l85 479h51l-86 -484c-28 -161 -163 -266 -340 -266z" />
    <glyph glyph-name="Uacute" unicode="&#xda;" horiz-adv-x="786" 
d="M454 835l153 145h64l-172 -145h-45zM339 -10c-159 0 -257 85 -257 217c0 17 2 35 5 53l85 480h51l-85 -480c-3 -16 -4 -32 -4 -46c0 -111 79 -181 209 -181c147 0 262 93 286 228l85 479h51l-86 -484c-28 -161 -163 -266 -340 -266z" />
    <glyph glyph-name="Ucircumflex" unicode="&#xdb;" horiz-adv-x="786" 
d="M507 952l-129 -117h-48l155 145h53l102 -145h-47zM714 740h51l-86 -484c-28 -161 -163 -266 -340 -266c-159 0 -257 85 -257 217c0 17 2 35 5 53l85 480h51l-85 -480c-3 -16 -4 -32 -4 -46c0 -111 79 -181 209 -181c147 0 262 93 286 228z" />
    <glyph glyph-name="Udieresis" unicode="&#xdc;" horiz-adv-x="786" 
d="M404 890c-19 0 -32 15 -32 33c0 24 20 40 40 40c19 0 32 -14 32 -33c0 -24 -20 -40 -40 -40zM592 890c-20 0 -33 15 -33 33c0 24 21 40 40 40c20 0 33 -14 33 -33c0 -24 -21 -40 -40 -40zM339 -10c-159 0 -257 85 -257 217c0 17 2 35 5 53l85 480h51l-85 -480
c-3 -16 -4 -32 -4 -46c0 -111 79 -181 209 -181c147 0 262 93 286 228l85 479h51l-86 -484c-28 -161 -163 -266 -340 -266z" />
    <glyph glyph-name="Ugrave" unicode="&#xd9;" horiz-adv-x="786" 
d="M467 835l-120 145h61l102 -145h-43zM339 -10c-159 0 -257 85 -257 217c0 17 2 35 5 53l85 480h51l-85 -480c-3 -16 -4 -32 -4 -46c0 -111 79 -181 209 -181c147 0 262 93 286 228l85 479h51l-86 -484c-28 -161 -163 -266 -340 -266z" />
    <glyph glyph-name="Uhungarumlaut" unicode="&#x170;" horiz-adv-x="786" 
d="M392 835l131 145h62l-150 -145h-43zM523 835l131 145h62l-150 -145h-43zM339 -10c-159 0 -257 85 -257 217c0 17 2 35 5 53l85 480h51l-85 -480c-3 -16 -4 -32 -4 -46c0 -111 79 -181 209 -181c147 0 262 93 286 228l85 479h51l-86 -484c-28 -161 -163 -266 -340 -266z
" />
    <glyph glyph-name="Umacron" unicode="&#x16a;" horiz-adv-x="786" 
d="M344 870l7 40h294l-7 -40h-294zM339 -10c-159 0 -257 85 -257 217c0 17 2 35 5 53l85 480h51l-85 -480c-3 -16 -4 -32 -4 -46c0 -111 79 -181 209 -181c147 0 262 93 286 228l85 479h51l-86 -484c-28 -161 -163 -266 -340 -266z" />
    <glyph glyph-name="Uogonek" unicode="&#x172;" horiz-adv-x="786" 
d="M714 740h51l-86 -484c-23 -132 -118 -227 -249 -256c-96 -57 -142 -112 -142 -158c0 -24 16 -40 41 -40c23 0 47 10 67 26l1 -30c-25 -19 -53 -28 -81 -28c-43 0 -69 25 -69 62c0 52 42 107 118 159c-9 -1 -17 -1 -26 -1c-159 0 -257 85 -257 217c0 17 2 35 5 53l85 480
h51l-85 -480c-3 -16 -4 -32 -4 -46c0 -111 79 -181 209 -181c147 0 262 93 286 228z" />
    <glyph glyph-name="Uring" unicode="&#x16e;" horiz-adv-x="786" 
d="M481 799c-56 0 -91 33 -91 85c0 72 52 123 123 123c56 0 91 -33 91 -85c0 -70 -53 -123 -123 -123zM483 827c53 0 89 47 89 94c0 36 -23 59 -61 59c-54 0 -89 -46 -89 -96c0 -35 23 -57 61 -57zM339 -10c-159 0 -257 85 -257 217c0 17 2 35 5 53l85 480h51l-85 -480
c-3 -16 -4 -32 -4 -46c0 -111 79 -181 209 -181c147 0 262 93 286 228l85 479h51l-86 -484c-28 -161 -163 -266 -340 -266z" />
    <glyph glyph-name="V" unicode="V" horiz-adv-x="714" 
d="M277 0l-197 740h54l176 -680l418 680h57l-459 -740h-49z" />
    <glyph glyph-name="W" unicode="W" horiz-adv-x="1089" 
d="M222 0l-137 740h55l120 -671l334 671h50l97 -671l357 671h56l-399 -740h-49l-98 666l-337 -666h-49z" />
    <glyph glyph-name="Wacute" unicode="&#x1e82;" horiz-adv-x="1089" 
d="M605 835l153 145h64l-172 -145h-45zM222 0l-137 740h55l120 -671l334 671h50l97 -671l357 671h56l-399 -740h-49l-98 666l-337 -666h-49z" />
    <glyph glyph-name="Wcircumflex" unicode="&#x174;" horiz-adv-x="1089" 
d="M658 952l-129 -117h-48l155 145h53l102 -145h-47zM1098 740h56l-399 -740h-49l-98 666l-337 -666h-49l-137 740h55l120 -671l334 671h50l97 -671z" />
    <glyph glyph-name="Wdieresis" unicode="&#x1e84;" horiz-adv-x="1089" 
d="M555 890c-19 0 -32 15 -32 33c0 24 20 40 40 40c19 0 32 -14 32 -33c0 -24 -20 -40 -40 -40zM743 890c-20 0 -33 15 -33 33c0 24 21 40 40 40c20 0 33 -14 33 -33c0 -24 -21 -40 -40 -40zM222 0l-137 740h55l120 -671l334 671h50l97 -671l357 671h56l-399 -740h-49
l-98 666l-337 -666h-49z" />
    <glyph glyph-name="Wgrave" unicode="&#x1e80;" horiz-adv-x="1089" 
d="M618 835l-120 145h61l102 -145h-43zM222 0l-137 740h55l120 -671l334 671h50l97 -671l357 671h56l-399 -740h-49l-98 666l-337 -666h-49z" />
    <glyph glyph-name="X" unicode="X" horiz-adv-x="623" 
d="M668 740l-313 -358l208 -382h-61l-185 343l-306 -343h-58l341 381l-187 359h61l164 -319l278 319h58z" />
    <glyph glyph-name="Y" unicode="Y" horiz-adv-x="640" 
d="M238 0l56 310l-202 430h57l177 -381l313 381h60l-354 -430l-55 -310h-52z" />
    <glyph glyph-name="Yacute" unicode="&#xdd;" horiz-adv-x="640" 
d="M381 835l153 145h64l-172 -145h-45zM238 0l56 310l-202 430h57l177 -381l313 381h60l-354 -430l-55 -310h-52z" />
    <glyph glyph-name="Ycircumflex" unicode="&#x176;" horiz-adv-x="640" 
d="M434 952l-129 -117h-48l155 145h53l102 -145h-47zM639 740h60l-354 -430l-55 -310h-52l56 310l-202 430h57l177 -381z" />
    <glyph glyph-name="Ydieresis" unicode="&#x178;" horiz-adv-x="640" 
d="M331 890c-19 0 -32 15 -32 33c0 24 20 40 40 40c19 0 32 -14 32 -33c0 -24 -20 -40 -40 -40zM519 890c-20 0 -33 15 -33 33c0 24 21 40 40 40c20 0 33 -14 33 -33c0 -24 -21 -40 -40 -40zM238 0l56 310l-202 430h57l177 -381l313 381h60l-354 -430l-55 -310h-52z" />
    <glyph glyph-name="Ygrave" unicode="&#x1ef2;" horiz-adv-x="640" 
d="M394 835l-120 145h61l102 -145h-43zM238 0l56 310l-202 430h57l177 -381l313 381h60l-354 -430l-55 -310h-52z" />
    <glyph glyph-name="Z" unicode="Z" horiz-adv-x="607" 
d="M644 740l-6 -34l-584 -663h476l-8 -43h-546l6 34l584 663h-460l8 43h530z" />
    <glyph glyph-name="Zacute" unicode="&#x179;" horiz-adv-x="607" 
d="M583 980l-172 -145h-45l153 145h64zM644 740l-6 -34l-584 -663h476l-8 -43h-546l6 34l584 663h-460l8 43h530z" />
    <glyph glyph-name="Zcaron" unicode="&#x17d;" horiz-adv-x="607" 
d="M423 835h-52l-104 145h49l86 -117l127 117h48zM644 740l-6 -34l-584 -663h476l-8 -43h-546l6 34l584 663h-460l8 43h530z" />
    <glyph glyph-name="Zdotaccent" unicode="&#x17b;" horiz-adv-x="607" 
d="M411 890c-19 0 -33 15 -33 34c0 23 18 39 39 39c19 0 33 -14 33 -34c0 -22 -18 -39 -39 -39zM644 740l-6 -34l-584 -663h476l-8 -43h-546l6 34l584 663h-460l8 43h530z" />
    <glyph glyph-name="A.ss01" horiz-adv-x="786" 
d="M467 750c160 0 257 -85 257 -217c0 -17 -2 -35 -5 -53l-84 -480h-52l47 265h-491l-46 -265h-52l86 484c29 161 164 266 340 266zM668 480c3 17 5 32 5 47c0 110 -80 180 -209 180c-147 0 -262 -92 -287 -227l-30 -171h491z" />
    <glyph glyph-name="Aacute.ss01" horiz-adv-x="786" 
d="M671 980l-172 -145h-45l153 145h64zM467 750c160 0 257 -85 257 -217c0 -17 -2 -35 -5 -53l-84 -480h-52l47 265h-491l-46 -265h-52l86 484c29 161 164 266 340 266zM668 480c3 17 5 32 5 47c0 110 -80 180 -209 180c-147 0 -262 -92 -287 -227l-30 -171h491z" />
    <glyph glyph-name="Abreve.ss01" horiz-adv-x="786" 
d="M487 825c-81 0 -131 48 -131 122c0 11 1 22 3 33h41c-2 -11 -3 -21 -3 -30c0 -57 34 -93 92 -93c68 0 120 51 133 123h41c-16 -95 -86 -155 -176 -155zM467 750c160 0 257 -85 257 -217c0 -17 -2 -35 -5 -53l-84 -480h-52l47 265h-491l-46 -265h-52l86 484
c29 161 164 266 340 266zM668 480c3 17 5 32 5 47c0 110 -80 180 -209 180c-147 0 -262 -92 -287 -227l-30 -171h491z" />
    <glyph glyph-name="Acircumflex.ss01" horiz-adv-x="786" 
d="M507 952l-129 -117h-48l155 145h53l102 -145h-47zM467 750c160 0 257 -85 257 -217c0 -17 -2 -35 -5 -53l-84 -480h-52l47 265h-491l-46 -265h-52l86 484c29 161 164 266 340 266zM668 480c3 17 5 32 5 47c0 110 -80 180 -209 180c-147 0 -262 -92 -287 -227l-30 -171
h491z" />
    <glyph glyph-name="Adieresis.ss01" horiz-adv-x="786" 
d="M404 890c-19 0 -32 15 -32 33c0 24 20 40 40 40c19 0 32 -14 32 -33c0 -24 -20 -40 -40 -40zM592 890c-20 0 -33 15 -33 33c0 24 21 40 40 40c20 0 33 -14 33 -33c0 -24 -21 -40 -40 -40zM467 750c160 0 257 -85 257 -217c0 -17 -2 -35 -5 -53l-84 -480h-52l47 265h-491
l-46 -265h-52l86 484c29 161 164 266 340 266zM668 480c3 17 5 32 5 47c0 110 -80 180 -209 180c-147 0 -262 -92 -287 -227l-30 -171h491z" />
    <glyph glyph-name="Agrave.ss01" horiz-adv-x="786" 
d="M510 835h-43l-120 145h61zM467 750c160 0 257 -85 257 -217c0 -17 -2 -35 -5 -53l-84 -480h-52l47 265h-491l-46 -265h-52l86 484c29 161 164 266 340 266zM668 480c3 17 5 32 5 47c0 110 -80 180 -209 180c-147 0 -262 -92 -287 -227l-30 -171h491z" />
    <glyph glyph-name="Amacron.ss01" horiz-adv-x="786" 
d="M645 910l-7 -40h-294l7 40h294zM467 750c160 0 257 -85 257 -217c0 -17 -2 -35 -5 -53l-84 -480h-52l47 265h-491l-46 -265h-52l86 484c29 161 164 266 340 266zM668 480c3 17 5 32 5 47c0 110 -80 180 -209 180c-147 0 -262 -92 -287 -227l-30 -171h491z" />
    <glyph glyph-name="Aogonek.ss01" horiz-adv-x="786" 
d="M467 750c160 0 257 -85 257 -217c0 -17 -2 -35 -5 -53l-84 -480c-96 -57 -142 -112 -142 -158c0 -24 16 -40 41 -40c23 0 47 10 67 26l1 -30c-25 -19 -53 -28 -81 -28c-43 0 -69 25 -69 62c0 55 47 113 132 168h-1l47 265h-491l-46 -265h-52l86 484
c29 161 164 266 340 266zM668 480c3 17 5 32 5 47c0 110 -80 180 -209 180c-147 0 -262 -92 -287 -227l-30 -171h491z" />
    <glyph glyph-name="Aring.ss01" horiz-adv-x="786" 
d="M481 799c-56 0 -91 33 -91 85c0 72 52 123 123 123c56 0 91 -33 91 -85c0 -70 -53 -123 -123 -123zM511 980c-54 0 -89 -46 -89 -96c0 -35 23 -57 61 -57c53 0 89 47 89 94c0 36 -23 59 -61 59zM467 750c160 0 257 -85 257 -217c0 -17 -2 -35 -5 -53l-84 -480h-52l47 265
h-491l-46 -265h-52l86 484c29 161 164 266 340 266zM668 480c3 17 5 32 5 47c0 110 -80 180 -209 180c-147 0 -262 -92 -287 -227l-30 -171h491z" />
    <glyph glyph-name="Atilde.ss01" horiz-adv-x="786" 
d="M422 923c-34 0 -65 -25 -73 -68h-33c10 64 58 108 110 108c69 0 90 -77 147 -77c34 0 65 25 72 67h34c-11 -65 -58 -108 -110 -108c-68 0 -90 78 -147 78zM467 750c160 0 257 -85 257 -217c0 -17 -2 -35 -5 -53l-84 -480h-52l47 265h-491l-46 -265h-52l86 484
c29 161 164 266 340 266zM668 480c3 17 5 32 5 47c0 110 -80 180 -209 180c-147 0 -262 -92 -287 -227l-30 -171h491z" />
    <glyph glyph-name="AE.ss01" horiz-adv-x="897" 
d="M897 697h-337l-52 -297h314l-8 -44h-314l-55 -313h347l-8 -43h-398l47 265h-296l-46 -265h-52l76 428c33 189 193 312 402 312h388zM441 309l68 388c-176 0 -315 -111 -344 -275l-20 -113h296z" />
    <glyph glyph-name="J.ss01" horiz-adv-x="552" 
d="M529 740l-94 -537c-24 -129 -125 -213 -256 -213c-86 0 -150 39 -185 97l31 32c30 -55 81 -86 155 -86c103 0 186 72 204 176l86 488h-354l8 43h405z" />
    <glyph glyph-name="C.ss02" horiz-adv-x="674" 
d="M364 -10c-190 0 -306 116 -306 298c0 254 181 462 435 462c82 0 149 -26 199 -68l-8 -47c-45 46 -113 72 -195 72c-222 0 -377 -196 -377 -416c0 -158 96 -258 256 -258c87 0 165 29 228 77l-10 -54c-64 -43 -141 -66 -222 -66z" />
    <glyph glyph-name="Cacute.ss02" horiz-adv-x="674" 
d="M473 835l153 145h64l-172 -145h-45zM364 -10c-190 0 -306 116 -306 298c0 254 181 462 435 462c82 0 149 -26 199 -68l-8 -47c-45 46 -113 72 -195 72c-222 0 -377 -196 -377 -416c0 -158 96 -258 256 -258c87 0 165 29 228 77l-10 -54c-64 -43 -141 -66 -222 -66z" />
    <glyph glyph-name="Ccaron.ss02" horiz-adv-x="674" 
d="M530 835h-52l-104 145h49l86 -117l127 117h48zM493 750c82 0 149 -26 199 -68l-8 -47c-45 46 -113 72 -195 72c-222 0 -377 -196 -377 -416c0 -158 96 -258 256 -258c87 0 165 29 228 77l-10 -54c-64 -43 -141 -66 -222 -66c-190 0 -306 116 -306 298
c0 254 181 462 435 462z" />
    <glyph glyph-name="Ccedilla.ss02" horiz-adv-x="674" 
d="M493 750c82 0 149 -26 199 -68l-8 -47c-45 46 -113 72 -195 72c-222 0 -377 -196 -377 -416c0 -158 96 -258 256 -258c87 0 165 29 228 77l-10 -54c-61 -41 -134 -64 -211 -66l-51 -61c8 1 16 2 25 2c58 0 93 -27 93 -68c0 -59 -59 -93 -129 -93c-35 0 -69 11 -90 30
l17 24c19 -18 44 -25 71 -25c50 0 92 25 92 62c0 27 -26 43 -67 43c-19 0 -36 -3 -53 -9l-7 17l63 79c-175 9 -281 123 -281 297c0 254 181 462 435 462z" />
    <glyph glyph-name="Cdotaccent.ss02" horiz-adv-x="674" 
d="M518 890c-19 0 -33 15 -33 34c0 23 18 39 39 39c19 0 33 -14 33 -34c0 -22 -18 -39 -39 -39zM364 -10c-190 0 -306 116 -306 298c0 254 181 462 435 462c82 0 149 -26 199 -68l-8 -47c-45 46 -113 72 -195 72c-222 0 -377 -196 -377 -416c0 -158 96 -258 256 -258
c87 0 165 29 228 77l-10 -54c-64 -43 -141 -66 -222 -66z" />
    <glyph glyph-name="Z.ss02" horiz-adv-x="559" 
d="M600 740l-536 -697h419l-8 -43h-502l536 697h-407l8 43h490z" />
    <glyph glyph-name="Zacute.ss02" horiz-adv-x="559" 
d="M557 980l-172 -145h-45l153 145h64zM600 740l-536 -697h419l-8 -43h-502l536 697h-407l8 43h490z" />
    <glyph glyph-name="Zcaron.ss02" horiz-adv-x="559" 
d="M397 835h-52l-104 145h49l86 -117l127 117h48zM600 740l-536 -697h419l-8 -43h-502l536 697h-407l8 43h490z" />
    <glyph glyph-name="Zdotaccent.ss02" horiz-adv-x="559" 
d="M385 890c-19 0 -33 15 -33 34c0 23 18 39 39 39c19 0 33 -14 33 -34c0 -22 -18 -39 -39 -39zM600 740l-536 -697h419l-8 -43h-502l536 697h-407l8 43h490z" />
    <glyph glyph-name="a" unicode="a" horiz-adv-x="544" 
d="M295 535c111 0 177 -65 177 -163c0 -14 -2 -29 -4 -43l-59 -329h-47l20 116l2 9c-51 -86 -141 -135 -231 -135c-91 0 -147 49 -147 124c0 116 111 182 238 182c55 0 115 -8 166 -22l9 50c3 14 3 27 3 39c0 82 -51 132 -139 132c-69 0 -121 -25 -165 -66l-20 33
c53 48 116 73 197 73zM168 27c93 0 211 78 236 213c-49 13 -106 20 -155 20c-105 0 -193 -55 -193 -142c0 -56 41 -91 112 -91z" />
    <glyph glyph-name="aacute" unicode="&#xe1;" horiz-adv-x="544" 
d="M510 765l-172 -145h-45l153 145h64zM295 535c111 0 177 -65 177 -163c0 -14 -2 -29 -4 -43l-59 -329h-47l20 116l2 9c-51 -86 -141 -135 -231 -135c-91 0 -147 49 -147 124c0 116 111 182 238 182c55 0 115 -8 166 -22l9 50c3 14 3 27 3 39c0 82 -51 132 -139 132
c-69 0 -121 -25 -165 -66l-20 33c53 48 116 73 197 73zM168 27c93 0 211 78 236 213c-49 13 -106 20 -155 20c-105 0 -193 -55 -193 -142c0 -56 41 -91 112 -91z" />
    <glyph glyph-name="abreve" unicode="&#x103;" horiz-adv-x="544" 
d="M326 610c-81 0 -131 48 -131 122c0 11 1 22 3 33h41c-2 -11 -3 -21 -3 -30c0 -57 34 -93 92 -93c68 0 120 51 133 123h41c-16 -95 -86 -155 -176 -155zM295 535c111 0 177 -65 177 -163c0 -14 -2 -29 -4 -43l-59 -329h-47l20 116l2 9c-51 -86 -141 -135 -231 -135
c-91 0 -147 49 -147 124c0 116 111 182 238 182c55 0 115 -8 166 -22l9 50c3 14 3 27 3 39c0 82 -51 132 -139 132c-69 0 -121 -25 -165 -66l-20 33c53 48 116 73 197 73zM168 27c93 0 211 78 236 213c-49 13 -106 20 -155 20c-105 0 -193 -55 -193 -142
c0 -56 41 -91 112 -91z" />
    <glyph glyph-name="acircumflex" unicode="&#xe2;" horiz-adv-x="544" 
d="M346 737l-129 -117h-48l155 145h53l102 -145h-47zM295 535c111 0 177 -65 177 -163c0 -14 -2 -29 -4 -43l-59 -329h-47l20 116l2 9c-51 -86 -141 -135 -231 -135c-91 0 -147 49 -147 124c0 116 111 182 238 182c55 0 115 -8 166 -22l9 50c3 14 3 27 3 39
c0 82 -51 132 -139 132c-69 0 -121 -25 -165 -66l-20 33c53 48 116 73 197 73zM168 27c93 0 211 78 236 213c-49 13 -106 20 -155 20c-105 0 -193 -55 -193 -142c0 -56 41 -91 112 -91z" />
    <glyph glyph-name="adieresis" unicode="&#xe4;" horiz-adv-x="544" 
d="M243 675c-19 0 -32 15 -32 33c0 24 20 40 40 40c19 0 32 -14 32 -33c0 -24 -20 -40 -40 -40zM431 675c-20 0 -33 15 -33 33c0 24 21 40 40 40c20 0 33 -14 33 -33c0 -24 -21 -40 -40 -40zM295 535c111 0 177 -65 177 -163c0 -14 -2 -29 -4 -43l-59 -329h-47l20 116l2 9
c-51 -86 -141 -135 -231 -135c-91 0 -147 49 -147 124c0 116 111 182 238 182c55 0 115 -8 166 -22l9 50c3 14 3 27 3 39c0 82 -51 132 -139 132c-69 0 -121 -25 -165 -66l-20 33c53 48 116 73 197 73zM168 27c93 0 211 78 236 213c-49 13 -106 20 -155 20
c-105 0 -193 -55 -193 -142c0 -56 41 -91 112 -91z" />
    <glyph glyph-name="agrave" unicode="&#xe0;" horiz-adv-x="544" 
d="M349 620h-43l-120 145h61zM295 535c111 0 177 -65 177 -163c0 -14 -2 -29 -4 -43l-59 -329h-47l20 116l2 9c-51 -86 -141 -135 -231 -135c-91 0 -147 49 -147 124c0 116 111 182 238 182c55 0 115 -8 166 -22l9 50c3 14 3 27 3 39c0 82 -51 132 -139 132
c-69 0 -121 -25 -165 -66l-20 33c53 48 116 73 197 73zM168 27c93 0 211 78 236 213c-49 13 -106 20 -155 20c-105 0 -193 -55 -193 -142c0 -56 41 -91 112 -91z" />
    <glyph glyph-name="amacron" unicode="&#x101;" horiz-adv-x="544" 
d="M190 695h294l-7 -40h-294zM295 535c111 0 177 -65 177 -163c0 -14 -2 -29 -4 -43l-59 -329h-47l20 116l2 9c-51 -86 -141 -135 -231 -135c-91 0 -147 49 -147 124c0 116 111 182 238 182c55 0 115 -8 166 -22l9 50c3 14 3 27 3 39c0 82 -51 132 -139 132
c-69 0 -121 -25 -165 -66l-20 33c53 48 116 73 197 73zM168 27c93 0 211 78 236 213c-49 13 -106 20 -155 20c-105 0 -193 -55 -193 -142c0 -56 41 -91 112 -91z" />
    <glyph glyph-name="aogonek" unicode="&#x105;" horiz-adv-x="544" 
d="M295 535c111 0 177 -65 177 -163c0 -14 -2 -29 -4 -43l-59 -329c-96 -57 -142 -112 -142 -158c0 -24 16 -40 41 -40c23 0 47 10 67 26l1 -30c-25 -19 -53 -28 -81 -28c-43 0 -69 25 -69 62c0 56 49 115 137 171l19 113l2 9c-51 -86 -141 -135 -231 -135
c-91 0 -147 49 -147 124c0 116 111 182 238 182c55 0 115 -8 166 -22l9 50c3 14 3 27 3 39c0 82 -51 132 -139 132c-69 0 -121 -25 -165 -66l-20 33c53 48 116 73 197 73zM168 27c93 0 211 78 236 213c-49 13 -106 20 -155 20c-105 0 -193 -55 -193 -142
c0 -56 41 -91 112 -91z" />
    <glyph glyph-name="aring" unicode="&#xe5;" horiz-adv-x="544" 
d="M320 584c-56 0 -91 33 -91 85c0 72 52 123 123 123c56 0 91 -33 91 -85c0 -70 -53 -123 -123 -123zM350 765c-54 0 -89 -46 -89 -96c0 -35 23 -57 61 -57c53 0 89 47 89 94c0 36 -23 59 -61 59zM295 535c111 0 177 -65 177 -163c0 -14 -2 -29 -4 -43l-59 -329h-47l20 116
l2 9c-51 -86 -141 -135 -231 -135c-91 0 -147 49 -147 124c0 116 111 182 238 182c55 0 115 -8 166 -22l9 50c3 14 3 27 3 39c0 82 -51 132 -139 132c-69 0 -121 -25 -165 -66l-20 33c53 48 116 73 197 73zM168 27c93 0 211 78 236 213c-49 13 -106 20 -155 20
c-105 0 -193 -55 -193 -142c0 -56 41 -91 112 -91z" />
    <glyph glyph-name="atilde" unicode="&#xe3;" horiz-adv-x="544" 
d="M484 738h34c-11 -65 -58 -108 -110 -108c-68 0 -90 78 -147 78c-34 0 -65 -25 -73 -68h-33c10 64 58 108 110 108c69 0 90 -77 147 -77c34 0 65 25 72 67zM295 535c111 0 177 -65 177 -163c0 -14 -2 -29 -4 -43l-59 -329h-47l20 116l2 9c-51 -86 -141 -135 -231 -135
c-91 0 -147 49 -147 124c0 116 111 182 238 182c55 0 115 -8 166 -22l9 50c3 14 3 27 3 39c0 82 -51 132 -139 132c-69 0 -121 -25 -165 -66l-20 33c53 48 116 73 197 73zM168 27c93 0 211 78 236 213c-49 13 -106 20 -155 20c-105 0 -193 -55 -193 -142
c0 -56 41 -91 112 -91z" />
    <glyph glyph-name="ae" unicode="&#xe6;" horiz-adv-x="943" 
d="M886 244h-433c-2 -15 -3 -30 -3 -45c0 -104 57 -170 156 -170c78 0 151 41 205 102l33 -26c-65 -77 -149 -115 -238 -115c-107 0 -177 61 -195 159c-49 -100 -152 -159 -256 -159c-92 0 -149 49 -149 124c0 116 111 182 238 182c55 0 115 -8 166 -22l9 50c2 14 3 27 3 39
c0 82 -51 132 -140 132c-68 0 -120 -25 -164 -66l-20 33c52 48 115 73 194 73c97 0 159 -51 172 -130c51 78 132 130 232 130c125 0 201 -81 201 -208c0 -22 -6 -67 -11 -83zM691 495c-121 0 -205 -97 -232 -215h384c3 17 4 33 4 48c0 104 -57 167 -156 167zM168 27
c89 0 201 71 232 196l3 17c-48 13 -105 20 -154 20c-105 0 -193 -55 -193 -142c0 -56 41 -91 112 -91z" />
    <glyph glyph-name="b" unicode="b" horiz-adv-x="659" 
d="M394 535c130 0 211 -84 211 -214c0 -180 -127 -331 -302 -331c-117 0 -181 59 -200 144l-2 -10l-23 -124h-47l138 780h48l-67 -383c48 83 130 138 244 138zM298 32c152 0 258 134 258 284c0 108 -67 177 -179 177c-126 0 -227 -94 -251 -231l-2 -12c-2 -15 -3 -28 -3 -41
c0 -109 66 -177 177 -177z" />
    <glyph glyph-name="c" unicode="c" horiz-adv-x="529" 
d="M256 -10c-137 0 -220 84 -220 215c0 183 131 330 315 330c68 0 117 -20 158 -58l-32 -31c-36 33 -77 47 -132 47c-153 0 -258 -134 -258 -285c0 -107 66 -176 179 -176c57 0 115 21 162 61l24 -36c-55 -45 -123 -67 -196 -67z" />
    <glyph glyph-name="cacute" unicode="&#x107;" horiz-adv-x="529" 
d="M328 620l153 145h64l-172 -145h-45zM256 -10c-137 0 -220 84 -220 215c0 183 131 330 315 330c68 0 117 -20 158 -58l-32 -31c-36 33 -77 47 -132 47c-153 0 -258 -134 -258 -285c0 -107 66 -176 179 -176c57 0 115 21 162 61l24 -36c-55 -45 -123 -67 -196 -67z" />
    <glyph glyph-name="ccaron" unicode="&#x10d;" horiz-adv-x="529" 
d="M385 620h-52l-104 145h49l86 -117l127 117h48zM36 205c0 183 131 330 315 330c68 0 117 -20 158 -58l-32 -31c-36 33 -77 47 -132 47c-153 0 -258 -134 -258 -285c0 -107 66 -176 179 -176c57 0 115 21 162 61l24 -36c-55 -45 -123 -67 -196 -67c-137 0 -220 84 -220 215
z" />
    <glyph glyph-name="ccedilla" unicode="&#xe7;" horiz-adv-x="529" 
d="M345 493c-153 0 -258 -134 -258 -285c0 -107 66 -176 179 -176c57 0 115 21 162 61l24 -36c-50 -41 -112 -63 -178 -67l-51 -61c8 1 16 2 25 2c58 0 93 -27 93 -68c0 -59 -59 -93 -129 -93c-35 0 -69 11 -90 30l17 24c19 -18 44 -25 71 -25c50 0 92 25 92 62
c0 27 -26 43 -67 43c-19 0 -36 -3 -53 -9l-7 17l63 78c-126 7 -202 90 -202 215c0 183 131 330 315 330c68 0 117 -20 158 -58l-32 -31c-36 33 -77 47 -132 47z" />
    <glyph glyph-name="cdotaccent" unicode="&#x10b;" horiz-adv-x="529" 
d="M373 675c-19 0 -33 15 -33 34c0 23 18 39 39 39c19 0 33 -14 33 -34c0 -22 -18 -39 -39 -39zM256 -10c-137 0 -220 84 -220 215c0 183 131 330 315 330c68 0 117 -20 158 -58l-32 -31c-36 33 -77 47 -132 47c-153 0 -258 -134 -258 -285c0 -107 66 -176 179 -176
c57 0 115 21 162 61l24 -36c-55 -45 -123 -67 -196 -67z" />
    <glyph glyph-name="d" unicode="d" horiz-adv-x="658" 
d="M607 780h48l-138 -780h-47l21 124l1 3c-49 -83 -131 -137 -245 -137c-130 0 -211 84 -211 214c0 180 128 331 302 331c117 0 181 -58 201 -143zM264 32c126 0 227 93 252 231c3 19 4 36 4 52c0 109 -66 178 -176 178c-153 0 -258 -135 -258 -284c0 -108 66 -177 178 -177
z" />
    <glyph glyph-name="eth" unicode="&#xf0;" horiz-adv-x="628" 
d="M407 708c110 -99 170 -217 170 -348c0 -201 -125 -370 -318 -370c-138 0 -222 85 -222 216c0 178 127 326 302 326c87 0 147 -34 179 -89c-22 90 -74 170 -152 240l-100 -60l-27 21l101 61c-26 21 -54 40 -85 59l42 26c31 -19 59 -39 85 -60l99 60l26 -22zM264 32
c127 0 228 94 252 233c0 3 1 5 2 8c3 18 3 28 3 43c0 109 -67 177 -177 177c-152 0 -257 -133 -257 -284c0 -108 66 -177 177 -177z" />
    <glyph glyph-name="dcaron" unicode="&#x10f;" horiz-adv-x="666" 
d="M539 392l68 388h48l-138 -780h-47l21 124l1 3c-49 -83 -131 -137 -245 -137c-130 0 -211 84 -211 214c0 180 128 331 302 331c117 0 181 -58 201 -143zM765 780h47l-104 -187h-39zM264 32c126 0 227 93 252 231c3 19 4 36 4 52c0 109 -66 178 -176 178
c-153 0 -258 -135 -258 -284c0 -108 66 -177 178 -177z" />
    <glyph glyph-name="dcroat" unicode="&#x111;" horiz-adv-x="658" 
d="M724 674l-6 -37h-88l-113 -637h-47l21 124l1 3c-49 -83 -131 -137 -245 -137c-130 0 -211 84 -211 214c0 180 128 331 302 331c117 0 181 -58 201 -143l43 245h-218l6 37h218l19 106h48l-19 -106h88zM264 32c126 0 227 93 252 231c3 19 4 36 4 52c0 109 -66 178 -176 178
c-153 0 -258 -135 -258 -284c0 -108 66 -177 178 -177z" />
    <glyph glyph-name="e" unicode="e" horiz-adv-x="579" 
d="M522 244h-433c-2 -15 -3 -30 -3 -45c0 -104 58 -170 156 -170c78 0 151 42 205 102l34 -26c-66 -77 -151 -115 -241 -115c-127 0 -204 83 -204 213c0 179 120 332 294 332c127 0 203 -81 203 -208c0 -24 -5 -64 -11 -83zM328 495c-122 0 -206 -97 -233 -215h385
c3 17 4 33 4 48c0 104 -59 167 -156 167z" />
    <glyph glyph-name="eacute" unicode="&#xe9;" horiz-adv-x="579" 
d="M533 765l-172 -145h-45l153 145h64zM330 535c127 0 203 -81 203 -208c0 -24 -5 -64 -11 -83h-433c-2 -15 -3 -30 -3 -45c0 -104 58 -170 156 -170c78 0 151 42 205 102l34 -26c-66 -77 -151 -115 -241 -115c-127 0 -204 83 -204 213c0 179 120 332 294 332zM480 280
c3 17 4 33 4 48c0 104 -59 167 -156 167c-122 0 -206 -97 -233 -215h385z" />
    <glyph glyph-name="ecaron" unicode="&#x11b;" horiz-adv-x="579" 
d="M373 620h-52l-104 145h49l86 -117l127 117h48zM522 244h-433c-2 -15 -3 -30 -3 -45c0 -104 58 -170 156 -170c78 0 151 42 205 102l34 -26c-66 -77 -151 -115 -241 -115c-127 0 -204 83 -204 213c0 179 120 332 294 332c127 0 203 -81 203 -208c0 -24 -5 -64 -11 -83z
M328 495c-122 0 -206 -97 -233 -215h385c3 17 4 33 4 48c0 104 -59 167 -156 167z" />
    <glyph glyph-name="ecircumflex" unicode="&#xea;" horiz-adv-x="579" 
d="M369 737l-129 -117h-48l155 145h53l102 -145h-47zM522 244h-433c-2 -15 -3 -30 -3 -45c0 -104 58 -170 156 -170c78 0 151 42 205 102l34 -26c-66 -77 -151 -115 -241 -115c-127 0 -204 83 -204 213c0 179 120 332 294 332c127 0 203 -81 203 -208c0 -24 -5 -64 -11 -83z
M328 495c-122 0 -206 -97 -233 -215h385c3 17 4 33 4 48c0 104 -59 167 -156 167z" />
    <glyph glyph-name="edieresis" unicode="&#xeb;" horiz-adv-x="579" 
d="M266 675c-19 0 -32 15 -32 33c0 24 20 40 40 40c19 0 32 -14 32 -33c0 -24 -20 -40 -40 -40zM454 675c-20 0 -33 15 -33 33c0 24 21 40 40 40c20 0 33 -14 33 -33c0 -24 -21 -40 -40 -40zM522 244h-433c-2 -15 -3 -30 -3 -45c0 -104 58 -170 156 -170
c78 0 151 42 205 102l34 -26c-66 -77 -151 -115 -241 -115c-127 0 -204 83 -204 213c0 179 120 332 294 332c127 0 203 -81 203 -208c0 -24 -5 -64 -11 -83zM328 495c-122 0 -206 -97 -233 -215h385c3 17 4 33 4 48c0 104 -59 167 -156 167z" />
    <glyph glyph-name="edotaccent" unicode="&#x117;" horiz-adv-x="579" 
d="M361 675c-19 0 -33 15 -33 34c0 23 18 39 39 39c19 0 33 -14 33 -34c0 -22 -18 -39 -39 -39zM522 244h-433c-2 -15 -3 -30 -3 -45c0 -104 58 -170 156 -170c78 0 151 42 205 102l34 -26c-66 -77 -151 -115 -241 -115c-127 0 -204 83 -204 213c0 179 120 332 294 332
c127 0 203 -81 203 -208c0 -24 -5 -64 -11 -83zM328 495c-122 0 -206 -97 -233 -215h385c3 17 4 33 4 48c0 104 -59 167 -156 167z" />
    <glyph glyph-name="egrave" unicode="&#xe8;" horiz-adv-x="579" 
d="M372 620h-43l-120 145h61zM522 244h-433c-2 -15 -3 -30 -3 -45c0 -104 58 -170 156 -170c78 0 151 42 205 102l34 -26c-66 -77 -151 -115 -241 -115c-127 0 -204 83 -204 213c0 179 120 332 294 332c127 0 203 -81 203 -208c0 -24 -5 -64 -11 -83zM328 495
c-122 0 -206 -97 -233 -215h385c3 17 4 33 4 48c0 104 -59 167 -156 167z" />
    <glyph glyph-name="emacron" unicode="&#x113;" horiz-adv-x="579" 
d="M507 695l-7 -40h-294l7 40h294zM522 244h-433c-2 -15 -3 -30 -3 -45c0 -104 58 -170 156 -170c78 0 151 42 205 102l34 -26c-66 -77 -151 -115 -241 -115c-127 0 -204 83 -204 213c0 179 120 332 294 332c127 0 203 -81 203 -208c0 -24 -5 -64 -11 -83zM328 495
c-122 0 -206 -97 -233 -215h385c3 17 4 33 4 48c0 104 -59 167 -156 167z" />
    <glyph glyph-name="eogonek" unicode="&#x119;" horiz-adv-x="579" 
d="M522 244h-433c-2 -15 -3 -30 -3 -45c0 -104 58 -170 156 -170c78 0 151 42 205 102l34 -26c-47 -54 -103 -89 -163 -105c-96 -57 -142 -112 -142 -158c0 -24 16 -40 41 -40c23 0 47 10 67 26l1 -30c-25 -19 -53 -28 -81 -28c-43 0 -69 25 -69 62c0 51 42 106 117 158h-12
c-127 0 -204 83 -204 213c0 179 120 332 294 332c127 0 203 -81 203 -208c0 -24 -5 -64 -11 -83zM328 495c-122 0 -206 -97 -233 -215h385c3 17 4 33 4 48c0 104 -59 167 -156 167z" />
    <glyph glyph-name="f" unicode="f" horiz-adv-x="363" 
d="M345 748c-65 0 -118 -46 -130 -115l-19 -108h194l-7 -41h-194l-86 -484h-48l86 484h-93l7 41h93l21 119c16 89 82 146 169 146c41 0 74 -7 100 -21l-6 -38c-23 12 -53 17 -87 17z" />
    <glyph glyph-name="g" unicode="g" horiz-adv-x="659" 
d="M565 525h46l-87 -493c-27 -159 -156 -262 -322 -262c-94 0 -168 24 -220 71l16 37c48 -40 112 -66 204 -66c141 0 252 92 276 228l16 89c-49 -84 -131 -139 -246 -139c-130 0 -211 84 -211 214c0 180 128 331 303 331c115 0 180 -58 200 -142l1 8zM265 32
c127 0 227 93 252 231l3 16c1 12 2 24 2 36c0 109 -67 178 -177 178c-152 0 -258 -135 -258 -284c0 -108 66 -177 178 -177z" />
    <glyph glyph-name="gbreve" unicode="&#x11f;" horiz-adv-x="659" 
d="M380 610c-81 0 -131 48 -131 122c0 11 1 22 3 33h41c-2 -11 -3 -21 -3 -30c0 -57 34 -93 92 -93c68 0 120 51 133 123h41c-16 -95 -86 -155 -176 -155zM565 525h46l-87 -493c-27 -159 -156 -262 -322 -262c-94 0 -168 24 -220 71l16 37c48 -40 112 -66 204 -66
c141 0 252 92 276 228l16 89c-49 -84 -131 -139 -246 -139c-130 0 -211 84 -211 214c0 180 128 331 303 331c115 0 180 -58 200 -142l1 8zM265 32c127 0 227 93 252 231l3 16c1 12 2 24 2 36c0 109 -67 178 -177 178c-152 0 -258 -135 -258 -284c0 -108 66 -177 178 -177z
" />
    <glyph glyph-name="gcommaaccent" unicode="&#x123;" horiz-adv-x="659" 
d="M480 780l-96 -187h-47l104 187h39zM565 525h46l-87 -493c-27 -159 -156 -262 -322 -262c-94 0 -168 24 -220 71l16 37c48 -40 112 -66 204 -66c141 0 252 92 276 228l16 89c-49 -84 -131 -139 -246 -139c-130 0 -211 84 -211 214c0 180 128 331 303 331
c115 0 180 -58 200 -142l1 8zM265 32c127 0 227 93 252 231l3 16c1 12 2 24 2 36c0 109 -67 178 -177 178c-152 0 -258 -135 -258 -284c0 -108 66 -177 178 -177z" />
    <glyph glyph-name="gdotaccent" unicode="&#x121;" horiz-adv-x="659" 
d="M392 675c-19 0 -33 15 -33 34c0 23 18 39 39 39c19 0 33 -14 33 -34c0 -22 -18 -39 -39 -39zM565 525h46l-87 -493c-27 -159 -156 -262 -322 -262c-94 0 -168 24 -220 71l16 37c48 -40 112 -66 204 -66c141 0 252 92 276 228l16 89c-49 -84 -131 -139 -246 -139
c-130 0 -211 84 -211 214c0 180 128 331 303 331c115 0 180 -58 200 -142l1 8zM265 32c127 0 227 93 252 231l3 16c1 12 2 24 2 36c0 109 -67 178 -177 178c-152 0 -258 -135 -258 -284c0 -108 66 -177 178 -177z" />
    <glyph glyph-name="h" unicode="h" horiz-adv-x="628" 
d="M367 535c117 0 189 -66 189 -166c0 -12 -2 -25 -4 -40l-58 -329h-48l57 321c2 13 3 25 3 35c0 85 -58 137 -155 137c-111 0 -197 -70 -215 -173l-57 -320h-48l138 780h48l-62 -351c43 66 113 106 212 106z" />
    <glyph glyph-name="hbar" unicode="&#x127;" horiz-adv-x="628" 
d="M367 535c117 0 189 -66 189 -166c0 -12 -2 -25 -4 -40l-58 -329h-48l57 321c2 13 3 25 3 35c0 85 -58 137 -155 137c-111 0 -197 -70 -215 -173l-57 -320h-48l113 637h-88l6 37h88l19 106h48l-19 -106h218l-6 -37h-218l-37 -208c43 66 113 106 212 106z" />
    <glyph glyph-name="i" unicode="i" horiz-adv-x="224" 
d="M179 675c-20 0 -34 15 -34 34c0 23 18 39 40 39c19 0 33 -14 33 -34c0 -22 -18 -39 -39 -39zM33 0l93 525h48l-93 -525h-48z" />
    <glyph glyph-name="dotlessi" unicode="&#x131;" horiz-adv-x="224" 
d="M33 0l93 525h48l-93 -525h-48z" />
    <glyph glyph-name="iacute" unicode="&#xed;" horiz-adv-x="224" 
d="M135 620l153 145h64l-172 -145h-45zM33 0l93 525h48l-93 -525h-48z" />
    <glyph glyph-name="icircumflex" unicode="&#xee;" horiz-adv-x="224" 
d="M321 620h-47l-86 117l-129 -117h-48l155 145h53zM33 0l93 525h48l-93 -525h-48z" />
    <glyph glyph-name="idieresis" unicode="&#xef;" horiz-adv-x="224" 
d="M85 675c-19 0 -32 15 -32 33c0 24 20 40 40 40c19 0 32 -14 32 -33c0 -24 -20 -40 -40 -40zM273 675c-20 0 -33 15 -33 33c0 24 21 40 40 40c20 0 33 -14 33 -33c0 -24 -21 -40 -40 -40zM33 0l93 525h48l-93 -525h-48z" />
    <glyph glyph-name="igrave" unicode="&#xec;" horiz-adv-x="224" 
d="M148 620l-120 145h61l102 -145h-43zM33 0l93 525h48l-93 -525h-48z" />
    <glyph glyph-name="imacron" unicode="&#x12b;" horiz-adv-x="224" 
d="M25 655l7 40h294l-7 -40h-294zM33 0l93 525h48l-93 -525h-48z" />
    <glyph glyph-name="iogonek" unicode="&#x12f;" horiz-adv-x="224" 
d="M186 748c19 0 33 -14 33 -34c0 -22 -18 -39 -39 -39c-19 0 -33 15 -33 34c0 23 18 39 39 39zM33 2l93 523h48l-93 -525c-96 -57 -142 -112 -142 -158c0 -24 16 -40 41 -40c23 0 47 10 67 26l1 -30c-25 -19 -53 -28 -81 -28c-43 0 -69 25 -69 62c0 55 49 115 135 170z" />
    <glyph glyph-name="j" unicode="j" horiz-adv-x="231" 
d="M186 675c-19 0 -33 15 -33 34c0 23 17 39 39 39c19 0 33 -14 33 -34c0 -22 -18 -39 -39 -39zM-90 -230c-34 0 -63 6 -83 16l8 39c18 -9 41 -13 67 -13c62 0 114 46 126 118l105 595h48l-108 -609c-16 -89 -80 -146 -163 -146z" />
    <glyph glyph-name="k" unicode="k" horiz-adv-x="554" 
d="M576 525l-278 -250l196 -275h-60l-178 255h-132l-45 -255h-48l138 780h48l-86 -484h127l253 229h65z" />
    <glyph glyph-name="kcommaaccent" unicode="&#x137;" horiz-adv-x="554" 
d="M576 525l-278 -250l196 -275h-60l-178 255h-132l-45 -255h-48l138 780h48l-86 -484h127l253 229h65zM119 -220l86 168h47l-94 -168h-39z" />
    <glyph glyph-name="l" unicode="l" horiz-adv-x="227" 
d="M34 0l138 780h48l-138 -780h-48z" />
    <glyph glyph-name="lacute" unicode="&#x13a;" horiz-adv-x="227" 
d="M182 875l153 145h64l-172 -145h-45zM34 0l138 780h48l-138 -780h-48z" />
    <glyph glyph-name="lcaron" unicode="&#x13e;" horiz-adv-x="232" 
d="M34 0l138 780h48l-138 -780h-48zM235 593l96 187h47l-104 -187h-39z" />
    <glyph glyph-name="lcommaaccent" unicode="&#x13c;" horiz-adv-x="227" 
d="M34 0l138 780h48l-138 -780h-48zM-51 -220l86 168h47l-94 -168h-39z" />
    <glyph glyph-name="lslash" unicode="&#x142;" horiz-adv-x="227" 
d="M270 508l-8 -42l-110 -68l-70 -398h-48l66 370l-111 -69l7 42l111 70l65 367h48l-60 -340z" />
    <glyph glyph-name="m" unicode="m" horiz-adv-x="967" 
d="M720 535c110 0 176 -64 176 -163c0 -14 -1 -28 -4 -43l-58 -329h-48l56 320c3 15 4 27 4 40c0 82 -52 133 -137 133c-99 0 -178 -70 -196 -173l-57 -320h-48l57 320c3 15 3 27 3 40c0 82 -51 133 -136 133c-99 0 -178 -70 -196 -173l-57 -320h-48l93 525h47l-16 -93
c40 64 105 103 193 103c90 0 150 -47 166 -121c40 72 110 121 206 121z" />
    <glyph glyph-name="n" unicode="n" horiz-adv-x="628" 
d="M367 535c117 0 189 -66 189 -166c0 -12 -2 -25 -4 -40l-58 -329h-48l57 321c2 13 3 25 3 35c0 85 -58 137 -155 137c-111 0 -197 -70 -215 -173l-57 -320h-48l93 525h47l-17 -98c43 67 113 108 213 108z" />
    <glyph glyph-name="nacute" unicode="&#x144;" horiz-adv-x="628" 
d="M558 765l-172 -145h-45l153 145h64zM367 535c117 0 189 -66 189 -166c0 -12 -2 -25 -4 -40l-58 -329h-48l57 321c2 13 3 25 3 35c0 85 -58 137 -155 137c-111 0 -197 -70 -215 -173l-57 -320h-48l93 525h47l-17 -98c43 67 113 108 213 108z" />
    <glyph glyph-name="ncaron" unicode="&#x148;" horiz-adv-x="628" 
d="M398 620h-52l-104 145h49l86 -117l127 117h48zM367 535c117 0 189 -66 189 -166c0 -12 -2 -25 -4 -40l-58 -329h-48l57 321c2 13 3 25 3 35c0 85 -58 137 -155 137c-111 0 -197 -70 -215 -173l-57 -320h-48l93 525h47l-17 -98c43 67 113 108 213 108z" />
    <glyph glyph-name="ncommaaccent" unicode="&#x146;" horiz-adv-x="628" 
d="M367 535c117 0 189 -66 189 -166c0 -12 -2 -25 -4 -40l-58 -329h-48l57 321c2 13 3 25 3 35c0 85 -58 137 -155 137c-111 0 -197 -70 -215 -173l-57 -320h-48l93 525h47l-17 -98c43 67 113 108 213 108zM153 -220l86 168h47l-94 -168h-39z" />
    <glyph glyph-name="eng" unicode="&#x14b;" horiz-adv-x="628" 
d="M367 535c117 0 189 -66 189 -166c0 -12 -2 -25 -4 -40l-73 -413c-16 -90 -80 -146 -163 -146c-34 0 -63 6 -83 16l8 39c18 -9 41 -13 67 -13c62 0 113 47 126 118l69 391c2 13 3 25 3 35c0 85 -58 137 -155 137c-111 0 -197 -70 -215 -173l-57 -320h-48l93 525h47
l-17 -98c43 67 113 108 213 108z" />
    <glyph glyph-name="ntilde" unicode="&#xf1;" horiz-adv-x="628" 
d="M309 708c-34 0 -65 -25 -73 -68h-33c10 64 58 108 110 108c69 0 90 -77 147 -77c34 0 65 25 72 67h34c-11 -65 -58 -108 -110 -108c-68 0 -90 78 -147 78zM367 535c117 0 189 -66 189 -166c0 -12 -2 -25 -4 -40l-58 -329h-48l57 321c2 13 3 25 3 35
c0 85 -58 137 -155 137c-111 0 -197 -70 -215 -173l-57 -320h-48l93 525h47l-17 -98c43 67 113 108 213 108z" />
    <glyph glyph-name="o" unicode="o" horiz-adv-x="625" 
d="M259 -10c-139 0 -223 85 -223 216c0 183 133 329 314 329c138 0 221 -85 221 -217c0 -181 -132 -328 -312 -328zM265 32c151 0 256 134 256 284c0 108 -66 177 -177 177c-152 0 -257 -133 -257 -284c0 -108 66 -177 178 -177z" />
    <glyph glyph-name="oacute" unicode="&#xf3;" horiz-adv-x="625" 
d="M335 620l153 145h64l-172 -145h-45zM259 -10c-139 0 -223 85 -223 216c0 183 133 329 314 329c138 0 221 -85 221 -217c0 -181 -132 -328 -312 -328zM265 32c151 0 256 134 256 284c0 108 -66 177 -177 177c-152 0 -257 -133 -257 -284c0 -108 66 -177 178 -177z" />
    <glyph glyph-name="ocircumflex" unicode="&#xf4;" horiz-adv-x="625" 
d="M388 737l-129 -117h-48l155 145h53l102 -145h-47zM350 535c138 0 221 -85 221 -217c0 -181 -132 -328 -312 -328c-139 0 -223 85 -223 216c0 183 133 329 314 329zM265 32c151 0 256 134 256 284c0 108 -66 177 -177 177c-152 0 -257 -133 -257 -284
c0 -108 66 -177 178 -177z" />
    <glyph glyph-name="odieresis" unicode="&#xf6;" horiz-adv-x="625" 
d="M285 675c-19 0 -32 15 -32 33c0 24 20 40 40 40c19 0 32 -14 32 -33c0 -24 -20 -40 -40 -40zM473 675c-20 0 -33 15 -33 33c0 24 21 40 40 40c20 0 33 -14 33 -33c0 -24 -21 -40 -40 -40zM259 -10c-139 0 -223 85 -223 216c0 183 133 329 314 329c138 0 221 -85 221 -217
c0 -181 -132 -328 -312 -328zM265 32c151 0 256 134 256 284c0 108 -66 177 -177 177c-152 0 -257 -133 -257 -284c0 -108 66 -177 178 -177z" />
    <glyph glyph-name="ograve" unicode="&#xf2;" horiz-adv-x="625" 
d="M348 620l-120 145h61l102 -145h-43zM259 -10c-139 0 -223 85 -223 216c0 183 133 329 314 329c138 0 221 -85 221 -217c0 -181 -132 -328 -312 -328zM265 32c151 0 256 134 256 284c0 108 -66 177 -177 177c-152 0 -257 -133 -257 -284c0 -108 66 -177 178 -177z" />
    <glyph glyph-name="ohungarumlaut" unicode="&#x151;" horiz-adv-x="625" 
d="M273 620l131 145h62l-150 -145h-43zM404 620l131 145h62l-150 -145h-43zM259 -10c-139 0 -223 85 -223 216c0 183 133 329 314 329c138 0 221 -85 221 -217c0 -181 -132 -328 -312 -328zM265 32c151 0 256 134 256 284c0 108 -66 177 -177 177
c-152 0 -257 -133 -257 -284c0 -108 66 -177 178 -177z" />
    <glyph glyph-name="omacron" unicode="&#x14d;" horiz-adv-x="625" 
d="M225 655l7 40h294l-7 -40h-294zM259 -10c-139 0 -223 85 -223 216c0 183 133 329 314 329c138 0 221 -85 221 -217c0 -181 -132 -328 -312 -328zM265 32c151 0 256 134 256 284c0 108 -66 177 -177 177c-152 0 -257 -133 -257 -284c0 -108 66 -177 178 -177z" />
    <glyph glyph-name="oslash" unicode="&#xf8;" horiz-adv-x="625" 
d="M609 508l-71 -64c21 -34 33 -77 33 -126c0 -181 -132 -328 -312 -328c-70 0 -126 21 -164 60l-67 -60l-28 27l70 63c-22 34 -34 77 -34 126c0 183 133 329 314 329c70 0 125 -22 163 -60l68 60zM87 209c0 -36 8 -69 22 -95l368 328c-31 33 -76 51 -133 51
c-152 0 -257 -133 -257 -284zM521 316c0 36 -7 68 -21 94l-368 -328c30 -32 76 -50 133 -50c151 0 256 134 256 284z" />
    <glyph glyph-name="otilde" unicode="&#xf5;" horiz-adv-x="625" 
d="M450 630c-68 0 -90 78 -147 78c-34 0 -65 -25 -73 -68h-33c10 64 58 108 110 108c69 0 90 -77 147 -77c34 0 65 25 72 67h34c-11 -65 -58 -108 -110 -108zM259 -10c-139 0 -223 85 -223 216c0 183 133 329 314 329c138 0 221 -85 221 -217c0 -181 -132 -328 -312 -328z
M265 32c151 0 256 134 256 284c0 108 -66 177 -177 177c-152 0 -257 -133 -257 -284c0 -108 66 -177 178 -177z" />
    <glyph glyph-name="oe" unicode="&#x153;" horiz-adv-x="1054" 
d="M997 244h-433c-2 -15 -3 -30 -3 -45c0 -104 57 -170 156 -170c78 0 151 41 205 102l34 -26c-66 -77 -150 -115 -238 -115c-109 0 -179 66 -193 170c-50 -101 -148 -170 -268 -170c-137 0 -220 85 -220 216c0 182 130 329 311 329c116 0 193 -65 210 -170
c46 100 136 170 249 170c126 0 201 -81 201 -208c0 -24 -5 -59 -11 -83zM803 495c-122 0 -206 -97 -233 -215h384c3 17 4 33 4 48c0 104 -57 167 -155 167zM265 32c151 0 256 133 256 284c0 108 -66 177 -177 177c-152 0 -257 -133 -257 -284c0 -108 66 -177 178 -177z" />
    <glyph glyph-name="p" unicode="p" horiz-adv-x="658" 
d="M393 535c130 0 211 -84 211 -214c0 -180 -127 -331 -302 -331c-116 0 -180 58 -200 143l-62 -353h-48l132 745h47l-21 -124v-2c48 82 130 136 243 136zM297 32c152 0 258 134 258 284c0 108 -67 177 -179 177c-125 0 -225 -93 -250 -228l-1 -3l-3 -14
c-1 -14 -2 -26 -2 -39c0 -109 66 -177 177 -177z" />
    <glyph glyph-name="thorn" unicode="&#xfe;" horiz-adv-x="658" 
d="M393 535c130 0 211 -84 211 -214c0 -180 -127 -331 -302 -331c-116 0 -180 58 -200 143l-62 -353h-48l177 1000h48l-68 -382c49 82 130 137 244 137zM297 32c152 0 258 134 258 284c0 108 -67 177 -179 177c-126 0 -226 -93 -251 -229v-2l-2 -12c-2 -15 -3 -28 -3 -41
c0 -109 66 -177 177 -177z" />
    <glyph glyph-name="q" unicode="q" horiz-adv-x="659" 
d="M564 525h46l-131 -745h-48l61 348c-49 -83 -130 -138 -245 -138c-130 0 -211 84 -211 214c0 180 128 331 303 331c115 0 180 -58 200 -142l1 8zM264 32c127 0 227 93 252 231l3 17c2 12 2 24 2 35c0 109 -67 178 -177 178c-152 0 -258 -135 -258 -284
c0 -108 66 -177 178 -177z" />
    <glyph glyph-name="r" unicode="r" horiz-adv-x="357" 
d="M31 0l93 525h47l-19 -105c46 80 124 115 234 115l-8 -44c-136 0 -224 -71 -243 -180l-56 -311h-48z" />
    <glyph glyph-name="racute" unicode="&#x155;" horiz-adv-x="357" 
d="M225 620l153 145h64l-172 -145h-45zM31 0l93 525h47l-19 -105c46 80 124 115 234 115l-8 -44c-136 0 -224 -71 -243 -180l-56 -311h-48z" />
    <glyph glyph-name="rcaron" unicode="&#x159;" horiz-adv-x="357" 
d="M282 620h-52l-104 145h49l86 -117l127 117h48zM152 420c46 80 124 115 234 115l-8 -44c-136 0 -224 -71 -243 -180l-56 -311h-48l93 525h47z" />
    <glyph glyph-name="rcommaaccent" unicode="&#x157;" horiz-adv-x="357" 
d="M31 0l93 525h47l-19 -105c46 80 124 115 234 115l-8 -44c-136 0 -224 -71 -243 -180l-56 -311h-48zM-41 -220l86 168h47l-94 -168h-39z" />
    <glyph glyph-name="s" unicode="s" horiz-adv-x="462" 
d="M173 -10c-73 0 -134 19 -165 54l23 28c37 -32 89 -43 144 -43c89 0 163 52 163 120c0 48 -42 75 -100 92l-58 18c-66 19 -116 48 -116 110c0 97 89 166 202 166c67 0 118 -14 165 -46l-25 -33c-39 29 -87 39 -138 39c-86 0 -153 -49 -153 -115c0 -46 38 -65 89 -81
l58 -19c65 -20 126 -55 126 -124c0 -100 -95 -166 -215 -166z" />
    <glyph glyph-name="sacute" unicode="&#x15b;" horiz-adv-x="462" 
d="M259 620l153 145h64l-172 -145h-45zM173 -10c-73 0 -134 19 -165 54l23 28c37 -32 89 -43 144 -43c89 0 163 52 163 120c0 48 -42 75 -100 92l-58 18c-66 19 -116 48 -116 110c0 97 89 166 202 166c67 0 118 -14 165 -46l-25 -33c-39 29 -87 39 -138 39
c-86 0 -153 -49 -153 -115c0 -46 38 -65 89 -81l58 -19c65 -20 126 -55 126 -124c0 -100 -95 -166 -215 -166z" />
    <glyph glyph-name="scaron" unicode="&#x161;" horiz-adv-x="462" 
d="M316 620h-52l-104 145h49l86 -117l127 117h48zM64 369c0 97 89 166 202 166c67 0 118 -14 165 -46l-25 -33c-39 29 -87 39 -138 39c-86 0 -153 -49 -153 -115c0 -46 38 -65 89 -81l58 -19c65 -20 126 -55 126 -124c0 -100 -95 -166 -215 -166c-73 0 -134 19 -165 54
l23 28c37 -32 89 -43 144 -43c89 0 163 52 163 120c0 48 -42 75 -100 92l-58 18c-66 19 -116 48 -116 110z" />
    <glyph glyph-name="scedilla" unicode="&#x15f;" horiz-adv-x="462" 
d="M268 495c-86 0 -153 -49 -153 -115c0 -46 38 -65 89 -81l58 -19c65 -20 126 -55 126 -124c0 -92 -81 -155 -187 -165l-52 -62c8 1 16 2 25 2c58 0 93 -27 93 -68c0 -59 -59 -93 -129 -93c-35 0 -69 11 -90 30l17 24c19 -18 44 -25 71 -25c50 0 92 25 92 62
c0 27 -26 43 -67 43c-19 0 -36 -3 -53 -9l-7 17l63 78c-69 2 -126 20 -156 54l23 28c37 -32 89 -43 144 -43c89 0 163 52 163 120c0 48 -42 75 -100 92l-58 18c-66 19 -116 48 -116 110c0 97 89 166 202 166c67 0 118 -14 165 -46l-25 -33c-39 29 -87 39 -138 39z" />
    <glyph glyph-name="scommaaccent" unicode="&#x219;" horiz-adv-x="462" 
d="M173 -10c-73 0 -134 19 -165 54l23 28c37 -32 89 -43 144 -43c89 0 163 52 163 120c0 48 -42 75 -100 92l-58 18c-66 19 -116 48 -116 110c0 97 89 166 202 166c67 0 118 -14 165 -46l-25 -33c-39 29 -87 39 -138 39c-86 0 -153 -49 -153 -115c0 -46 38 -65 89 -81
l58 -19c65 -20 126 -55 126 -124c0 -100 -95 -166 -215 -166zM79 -220l86 168h47l-94 -168h-39z" />
    <glyph glyph-name="germandbls" unicode="&#xdf;" horiz-adv-x="597" 
d="M253 -10c-28 0 -52 4 -76 12l7 41c22 -8 44 -11 67 -11c134 0 234 95 234 219c0 89 -66 146 -175 146l8 40c111 0 196 82 196 190c0 74 -52 121 -138 121c-98 0 -175 -63 -191 -157l-105 -591h-48l106 601c20 115 116 189 241 189c115 0 186 -62 186 -158
c0 -102 -67 -186 -168 -214c85 -21 137 -83 137 -170c0 -150 -124 -258 -281 -258z" />
    <glyph glyph-name="t" unicode="t" horiz-adv-x="370" 
d="M184 484l-61 -344c-2 -10 -3 -20 -3 -29c0 -49 31 -79 83 -79c40 0 78 6 115 20l-6 -41c-34 -14 -75 -21 -126 -21c-72 0 -115 44 -115 110c0 11 1 23 3 35l62 349h-93l6 41h94l27 154h48l-27 -154h203l-7 -41h-203z" />
    <glyph glyph-name="tbar" unicode="&#x167;" horiz-adv-x="379" 
d="M394 484h-203l-33 -187h195l-7 -37h-195l-21 -120c-2 -10 -3 -20 -3 -29c0 -49 32 -79 84 -79c39 0 77 6 115 20l-7 -41c-34 -14 -75 -21 -126 -21c-71 0 -115 44 -115 110c0 11 1 23 3 35l22 125h-90l7 37h90l33 187h-93l7 41h94l27 154h48l-27 -154h202z" />
    <glyph glyph-name="tcaron" unicode="&#x165;" horiz-adv-x="370" 
d="M432 780l-104 -187h-39l97 187h46zM218 679l-27 -154h203l-7 -41h-203l-61 -344c-2 -10 -3 -20 -3 -29c0 -49 31 -79 83 -79c40 0 78 6 115 20l-6 -41c-34 -14 -75 -21 -126 -21c-72 0 -115 44 -115 110c0 11 1 23 3 35l62 349h-93l6 41h94l27 154h48z" />
    <glyph glyph-name="uni0163" unicode="&#x163;" horiz-adv-x="370" 
d="M184 484l-61 -344c-2 -10 -3 -20 -3 -29c0 -49 31 -79 83 -79c40 0 78 6 115 20l-6 -41c-34 -14 -75 -21 -126 -21c-9 0 -18 1 -27 2l-52 -63c8 1 16 2 25 2c58 0 93 -27 93 -68c0 -59 -59 -93 -129 -93c-35 0 -69 11 -90 30l17 24c19 -18 44 -25 71 -25
c50 0 92 25 92 62c0 27 -26 43 -67 43c-19 0 -36 -3 -53 -9l-7 17l71 89c-38 17 -59 52 -59 99c0 11 1 23 3 35l62 349h-93l6 41h94l27 154h48l-27 -154h203l-7 -41h-203z" />
    <glyph glyph-name="uni021B" unicode="&#x21b;" horiz-adv-x="370" 
d="M184 484l-61 -344c-2 -10 -3 -20 -3 -29c0 -49 31 -79 83 -79c40 0 78 6 115 20l-6 -41c-34 -14 -75 -21 -126 -21c-72 0 -115 44 -115 110c0 11 1 23 3 35l62 349h-93l6 41h94l27 154h48l-27 -154h203l-7 -41h-203zM37 -220l86 168h47l-94 -168h-39z" />
    <glyph glyph-name="u" unicode="u" horiz-adv-x="618" 
d="M521 525h48l-93 -525h-46l16 96c-42 -66 -112 -106 -208 -106c-114 0 -183 66 -183 164c0 13 2 27 4 41l58 330h48l-57 -321c-2 -14 -3 -25 -3 -37c0 -83 56 -135 150 -135c108 0 191 69 209 173z" />
    <glyph glyph-name="uacute" unicode="&#xfa;" horiz-adv-x="618" 
d="M545 765l-172 -145h-45l153 145h64zM521 525h48l-93 -525h-46l16 96c-42 -66 -112 -106 -208 -106c-114 0 -183 66 -183 164c0 13 2 27 4 41l58 330h48l-57 -321c-2 -14 -3 -25 -3 -37c0 -83 56 -135 150 -135c108 0 191 69 209 173z" />
    <glyph glyph-name="ucircumflex" unicode="&#xfb;" horiz-adv-x="618" 
d="M381 737l-129 -117h-48l155 145h53l102 -145h-47zM521 525h48l-93 -525h-46l16 96c-42 -66 -112 -106 -208 -106c-114 0 -183 66 -183 164c0 13 2 27 4 41l58 330h48l-57 -321c-2 -14 -3 -25 -3 -37c0 -83 56 -135 150 -135c108 0 191 69 209 173z" />
    <glyph glyph-name="udieresis" unicode="&#xfc;" horiz-adv-x="618" 
d="M278 675c-19 0 -32 15 -32 33c0 24 20 40 40 40c19 0 32 -14 32 -33c0 -24 -20 -40 -40 -40zM466 675c-20 0 -33 15 -33 33c0 24 21 40 40 40c20 0 33 -14 33 -33c0 -24 -21 -40 -40 -40zM521 525h48l-93 -525h-46l16 96c-42 -66 -112 -106 -208 -106
c-114 0 -183 66 -183 164c0 13 2 27 4 41l58 330h48l-57 -321c-2 -14 -3 -25 -3 -37c0 -83 56 -135 150 -135c108 0 191 69 209 173z" />
    <glyph glyph-name="ugrave" unicode="&#xf9;" horiz-adv-x="618" 
d="M384 620h-43l-120 145h61zM521 525h48l-93 -525h-46l16 96c-42 -66 -112 -106 -208 -106c-114 0 -183 66 -183 164c0 13 2 27 4 41l58 330h48l-57 -321c-2 -14 -3 -25 -3 -37c0 -83 56 -135 150 -135c108 0 191 69 209 173z" />
    <glyph glyph-name="uhungarumlaut" unicode="&#x171;" horiz-adv-x="618" 
d="M459 765l-150 -145h-43l131 145h62zM440 620h-43l131 145h62zM464 205l57 320h48l-93 -525h-46l16 96c-42 -66 -112 -106 -208 -106c-114 0 -183 66 -183 164c0 13 2 27 4 41l58 330h48l-57 -321c-2 -14 -3 -25 -3 -37c0 -83 56 -135 150 -135c108 0 191 69 209 173z" />
    <glyph glyph-name="umacron" unicode="&#x16b;" horiz-adv-x="618" 
d="M519 695l-7 -40h-294l7 40h294zM521 525h48l-93 -525h-46l16 96c-42 -66 -112 -106 -208 -106c-114 0 -183 66 -183 164c0 13 2 27 4 41l58 330h48l-57 -321c-2 -14 -3 -25 -3 -37c0 -83 56 -135 150 -135c108 0 191 69 209 173z" />
    <glyph glyph-name="uogonek" unicode="&#x173;" horiz-adv-x="618" 
d="M476 0c-96 -57 -142 -112 -142 -158c0 -24 16 -40 41 -40c23 0 47 10 67 26l1 -30c-25 -19 -53 -28 -81 -28c-43 0 -69 25 -69 62c0 56 50 116 138 172l15 92c-42 -66 -112 -106 -208 -106c-114 0 -183 66 -183 164c0 13 2 27 4 41l58 330h48l-57 -321
c-2 -14 -3 -25 -3 -37c0 -83 56 -135 150 -135c108 0 191 69 209 173l57 320h48z" />
    <glyph glyph-name="uring" unicode="&#x16f;" horiz-adv-x="618" 
d="M355 584c-56 0 -91 33 -91 85c0 72 52 123 123 123c56 0 91 -33 91 -85c0 -70 -53 -123 -123 -123zM385 765c-54 0 -89 -46 -89 -96c0 -35 23 -57 61 -57c53 0 89 47 89 94c0 36 -23 59 -61 59zM521 525h48l-93 -525h-46l16 96c-42 -66 -112 -106 -208 -106
c-114 0 -183 66 -183 164c0 13 2 27 4 41l58 330h48l-57 -321c-2 -14 -3 -25 -3 -37c0 -83 56 -135 150 -135c108 0 191 69 209 173z" />
    <glyph glyph-name="v" unicode="v" horiz-adv-x="551" 
d="M196 0l-146 525h53l126 -469l294 469h54l-332 -525h-49z" />
    <glyph glyph-name="w" unicode="w" horiz-adv-x="906" 
d="M167 0l-115 525h53l98 -469l265 469h44l98 -469l265 469h54l-301 -525h-50l-97 466l-264 -466h-50z" />
    <glyph glyph-name="wacute" unicode="&#x1e83;" horiz-adv-x="906" 
d="M476 620l153 145h64l-172 -145h-45zM167 0l-115 525h53l98 -469l265 469h44l98 -469l265 469h54l-301 -525h-50l-97 466l-264 -466h-50z" />
    <glyph glyph-name="wcircumflex" unicode="&#x175;" horiz-adv-x="906" 
d="M529 737l-129 -117h-48l155 145h53l102 -145h-47zM875 525h54l-301 -525h-50l-97 466l-264 -466h-50l-115 525h53l98 -469l265 469h44l98 -469z" />
    <glyph glyph-name="wdieresis" unicode="&#x1e85;" horiz-adv-x="906" 
d="M426 675c-19 0 -32 15 -32 33c0 24 20 40 40 40c19 0 32 -14 32 -33c0 -24 -20 -40 -40 -40zM614 675c-20 0 -33 15 -33 33c0 24 21 40 40 40c20 0 33 -14 33 -33c0 -24 -21 -40 -40 -40zM167 0l-115 525h53l98 -469l265 469h44l98 -469l265 469h54l-301 -525h-50
l-97 466l-264 -466h-50z" />
    <glyph glyph-name="wgrave" unicode="&#x1e81;" horiz-adv-x="906" 
d="M489 620l-120 145h61l102 -145h-43zM167 0l-115 525h53l98 -469l265 469h44l98 -469l265 469h54l-301 -525h-50l-97 466l-264 -466h-50z" />
    <glyph glyph-name="x" unicode="x" horiz-adv-x="527" 
d="M539 525l-252 -256l170 -269h-59l-147 237l-231 -237h-60l267 270l-161 255h58l138 -224l217 224h60z" />
    <glyph glyph-name="y" unicode="y" horiz-adv-x="551" 
d="M27 -230c-22 0 -44 4 -58 11l10 39c10 -5 26 -8 43 -8c47 0 74 33 103 77l74 116l-148 520h53l130 -467l290 467h54l-408 -645c-41 -68 -75 -110 -143 -110z" />
    <glyph glyph-name="yacute" unicode="&#xfd;" horiz-adv-x="551" 
d="M300 620l153 145h64l-172 -145h-45zM27 -230c-22 0 -44 4 -58 11l10 39c10 -5 26 -8 43 -8c47 0 74 33 103 77l74 116l-148 520h53l130 -467l290 467h54l-408 -645c-41 -68 -75 -110 -143 -110z" />
    <glyph glyph-name="ycircumflex" unicode="&#x177;" horiz-adv-x="551" 
d="M353 737l-129 -117h-48l155 145h53l102 -145h-47zM524 525h54l-408 -645c-41 -68 -75 -110 -143 -110c-22 0 -44 4 -58 11l10 39c10 -5 26 -8 43 -8c47 0 74 33 103 77l74 116l-148 520h53l130 -467z" />
    <glyph glyph-name="ydieresis" unicode="&#xff;" horiz-adv-x="551" 
d="M250 675c-19 0 -32 15 -32 33c0 24 20 40 40 40c19 0 32 -14 32 -33c0 -24 -20 -40 -40 -40zM438 675c-20 0 -33 15 -33 33c0 24 21 40 40 40c20 0 33 -14 33 -33c0 -24 -21 -40 -40 -40zM27 -230c-22 0 -44 4 -58 11l10 39c10 -5 26 -8 43 -8c47 0 74 33 103 77l74 116
l-148 520h53l130 -467l290 467h54l-408 -645c-41 -68 -75 -110 -143 -110z" />
    <glyph glyph-name="ygrave" unicode="&#x1ef3;" horiz-adv-x="551" 
d="M313 620l-120 145h61l102 -145h-43zM27 -230c-22 0 -44 4 -58 11l10 39c10 -5 26 -8 43 -8c47 0 74 33 103 77l74 116l-148 520h53l130 -467l290 467h54l-408 -645c-41 -68 -75 -110 -143 -110z" />
    <glyph glyph-name="z" unicode="z" horiz-adv-x="492" 
d="M-21 0l6 33l425 451h-339l7 41h408l-6 -33l-424 -451h358l-7 -41h-428z" />
    <glyph glyph-name="zacute" unicode="&#x17a;" horiz-adv-x="492" 
d="M271 620l153 145h64l-172 -145h-45zM-21 0l6 33l425 451h-339l7 41h408l-6 -33l-424 -451h358l-7 -41h-428z" />
    <glyph glyph-name="zcaron" unicode="&#x17e;" horiz-adv-x="492" 
d="M328 620h-52l-104 145h49l86 -117l127 117h48zM486 525l-6 -33l-424 -451h358l-7 -41h-428l6 33l425 451h-339l7 41h408z" />
    <glyph glyph-name="zdotaccent" unicode="&#x17c;" horiz-adv-x="492" 
d="M316 675c-19 0 -33 15 -33 34c0 23 18 39 39 39c19 0 33 -14 33 -34c0 -22 -18 -39 -39 -39zM-21 0l6 33l425 451h-339l7 41h408l-6 -33l-424 -451h358l-7 -41h-428z" />
    <glyph glyph-name="i.loclTRK" horiz-adv-x="224" 
d="M180 675c-19 0 -33 15 -33 34c0 23 18 39 39 39c19 0 33 -14 33 -34c0 -22 -18 -39 -39 -39zM33 0l93 525h48l-93 -525h-48z" />
    <glyph glyph-name="a.ss01" horiz-adv-x="658" 
d="M563 525h47l-93 -525h-47l21 124v2c-48 -82 -130 -136 -243 -136c-131 0 -211 84 -211 214c0 180 127 331 302 331c115 0 179 -57 199 -140l1 6zM264 32c126 0 226 91 251 227l1 4l3 15c1 14 2 25 2 37c0 109 -67 178 -177 178c-152 0 -258 -135 -258 -284
c0 -108 66 -177 178 -177z" />
    <glyph glyph-name="aacute.ss01" horiz-adv-x="658" 
d="M561 765l-172 -145h-45l153 145h64zM563 525h47l-93 -525h-47l21 124v2c-48 -82 -130 -136 -243 -136c-131 0 -211 84 -211 214c0 180 127 331 302 331c115 0 179 -57 199 -140l1 6zM264 32c126 0 226 91 251 227l1 4l3 15c1 14 2 25 2 37c0 109 -67 178 -177 178
c-152 0 -258 -135 -258 -284c0 -108 66 -177 178 -177z" />
    <glyph glyph-name="abreve.ss01" horiz-adv-x="658" 
d="M377 610c-81 0 -131 48 -131 122c0 11 1 22 3 33h41c-2 -11 -3 -21 -3 -30c0 -57 34 -93 92 -93c68 0 120 51 133 123h41c-16 -95 -86 -155 -176 -155zM563 525h47l-93 -525h-47l21 124v2c-48 -82 -130 -136 -243 -136c-131 0 -211 84 -211 214c0 180 127 331 302 331
c115 0 179 -57 199 -140l1 6zM264 32c126 0 226 91 251 227l1 4l3 15c1 14 2 25 2 37c0 109 -67 178 -177 178c-152 0 -258 -135 -258 -284c0 -108 66 -177 178 -177z" />
    <glyph glyph-name="acircumflex.ss01" horiz-adv-x="658" 
d="M397 737l-129 -117h-48l155 145h53l102 -145h-47zM563 525h47l-93 -525h-47l21 124v2c-48 -82 -130 -136 -243 -136c-131 0 -211 84 -211 214c0 180 127 331 302 331c115 0 179 -57 199 -140l1 6zM264 32c126 0 226 91 251 227l1 4l3 15c1 14 2 25 2 37
c0 109 -67 178 -177 178c-152 0 -258 -135 -258 -284c0 -108 66 -177 178 -177z" />
    <glyph glyph-name="adieresis.ss01" horiz-adv-x="658" 
d="M294 675c-19 0 -32 15 -32 33c0 24 20 40 40 40c19 0 32 -14 32 -33c0 -24 -20 -40 -40 -40zM482 675c-20 0 -33 15 -33 33c0 24 21 40 40 40c20 0 33 -14 33 -33c0 -24 -21 -40 -40 -40zM563 525h47l-93 -525h-47l21 124v2c-48 -82 -130 -136 -243 -136
c-131 0 -211 84 -211 214c0 180 127 331 302 331c115 0 179 -57 199 -140l1 6zM264 32c126 0 226 91 251 227l1 4l3 15c1 14 2 25 2 37c0 109 -67 178 -177 178c-152 0 -258 -135 -258 -284c0 -108 66 -177 178 -177z" />
    <glyph glyph-name="agrave.ss01" horiz-adv-x="658" 
d="M400 620h-43l-120 145h61zM563 525h47l-93 -525h-47l21 124v2c-48 -82 -130 -136 -243 -136c-131 0 -211 84 -211 214c0 180 127 331 302 331c115 0 179 -57 199 -140l1 6zM264 32c126 0 226 91 251 227l1 4l3 15c1 14 2 25 2 37c0 109 -67 178 -177 178
c-152 0 -258 -135 -258 -284c0 -108 66 -177 178 -177z" />
    <glyph glyph-name="amacron.ss01" horiz-adv-x="658" 
d="M535 695l-7 -40h-294l7 40h294zM563 525h47l-93 -525h-47l21 124v2c-48 -82 -130 -136 -243 -136c-131 0 -211 84 -211 214c0 180 127 331 302 331c115 0 179 -57 199 -140l1 6zM264 32c126 0 226 91 251 227l1 4l3 15c1 14 2 25 2 37c0 109 -67 178 -177 178
c-152 0 -258 -135 -258 -284c0 -108 66 -177 178 -177z" />
    <glyph glyph-name="aogonek.ss01" horiz-adv-x="658" 
d="M517 0c-96 -57 -142 -112 -142 -158c0 -24 16 -40 41 -40c23 0 47 10 67 26l1 -30c-25 -19 -53 -28 -81 -28c-43 0 -69 25 -69 62c0 56 49 115 137 171l20 121v2c-48 -82 -130 -136 -243 -136c-131 0 -211 84 -211 214c0 180 127 331 302 331c115 0 179 -57 199 -140l1 6
l24 124h47zM264 32c126 0 226 91 251 227l1 4l3 15c1 14 2 25 2 37c0 109 -67 178 -177 178c-152 0 -258 -135 -258 -284c0 -108 66 -177 178 -177z" />
    <glyph glyph-name="aring.ss01" horiz-adv-x="658" 
d="M371 584c-56 0 -91 33 -91 85c0 72 52 123 123 123c56 0 91 -33 91 -85c0 -70 -53 -123 -123 -123zM401 765c-54 0 -89 -46 -89 -96c0 -35 23 -57 61 -57c53 0 89 47 89 94c0 36 -23 59 -61 59zM563 525h47l-93 -525h-47l21 124v2c-48 -82 -130 -136 -243 -136
c-131 0 -211 84 -211 214c0 180 127 331 302 331c115 0 179 -57 199 -140l1 6zM264 32c126 0 226 91 251 227l1 4l3 15c1 14 2 25 2 37c0 109 -67 178 -177 178c-152 0 -258 -135 -258 -284c0 -108 66 -177 178 -177z" />
    <glyph glyph-name="atilde.ss01" horiz-adv-x="658" 
d="M312 708c-34 0 -65 -25 -73 -68h-33c10 64 58 108 110 108c69 0 90 -77 147 -77c34 0 65 25 72 67h34c-11 -65 -58 -108 -110 -108c-68 0 -90 78 -147 78zM563 525h47l-93 -525h-47l21 124v2c-48 -82 -130 -136 -243 -136c-131 0 -211 84 -211 214c0 180 127 331 302 331
c115 0 179 -57 199 -140l1 6zM264 32c126 0 226 91 251 227l1 4l3 15c1 14 2 25 2 37c0 109 -67 178 -177 178c-152 0 -258 -135 -258 -284c0 -108 66 -177 178 -177z" />
    <glyph glyph-name="f.ss01" horiz-adv-x="339" 
d="M321 748c-65 0 -118 -46 -130 -115l-19 -108h194l-7 -41h-194l-86 -484h-48l114 644c16 89 82 146 169 146c41 0 74 -7 100 -21l-6 -38c-23 12 -53 17 -87 17z" />
    <glyph glyph-name="j.ss01" horiz-adv-x="224" 
d="M178 675c-19 0 -33 15 -33 34c0 23 18 39 40 39c19 0 33 -14 33 -34c0 -22 -18 -39 -40 -39zM-6 -220l132 745h48l-132 -745h-48z" />
    <glyph glyph-name="t.ss01" horiz-adv-x="345" 
d="M160 484l-61 -344c-2 -10 -3 -20 -3 -29c0 -49 31 -79 83 -79c40 0 78 6 115 20l-7 -41c-34 -14 -75 -21 -125 -21c-72 0 -115 44 -115 110c0 11 1 23 3 35l96 544h48l-27 -154h203l-7 -41h-203z" />
    <glyph glyph-name="tbar.ss01" horiz-adv-x="347" 
d="M363 484h-203l-33 -187h194l-6 -37h-195l-21 -120c-2 -10 -3 -20 -3 -29c0 -49 31 -79 83 -79c40 0 78 6 115 20l-7 -41c-34 -14 -75 -21 -125 -21c-72 0 -115 44 -115 110c0 11 1 23 3 35l96 544h48l-27 -154h203z" />
    <glyph glyph-name="tcaron.ss01" horiz-adv-x="345" 
d="M408 780l-104 -187h-39l96 187h47zM194 679l-27 -154h203l-7 -41h-203l-61 -344c-2 -10 -3 -20 -3 -29c0 -49 31 -79 83 -79c40 0 78 6 115 20l-7 -41c-34 -14 -75 -21 -125 -21c-72 0 -115 44 -115 110c0 11 1 23 3 35l96 544h48z" />
    <glyph glyph-name="uni0163.ss01" horiz-adv-x="345" 
d="M160 484l-61 -344c-2 -10 -3 -20 -3 -29c0 -49 31 -79 83 -79c40 0 78 6 115 20l-7 -41c-34 -14 -75 -21 -125 -21c-9 0 -18 1 -27 2l-52 -63c8 1 16 2 25 2c58 0 93 -27 93 -68c0 -59 -60 -93 -130 -93c-35 0 -68 11 -89 30l17 24c18 -18 44 -25 70 -25
c51 0 93 25 93 62c0 27 -26 43 -68 43c-18 0 -36 -3 -52 -9l-7 17l71 89c-38 17 -59 52 -59 99c0 11 1 23 3 35l96 544h48l-27 -154h203l-7 -41h-203z" />
    <glyph glyph-name="uni021B.ss01" horiz-adv-x="345" 
d="M160 484l-61 -344c-2 -10 -3 -20 -3 -29c0 -49 31 -79 83 -79c40 0 78 6 115 20l-7 -41c-34 -14 -75 -21 -125 -21c-72 0 -115 44 -115 110c0 11 1 23 3 35l96 544h48l-27 -154h203l-7 -41h-203zM13 -220l86 168h47l-94 -168h-39z" />
    <glyph glyph-name="u.ss01" horiz-adv-x="611" 
d="M252 -10c-123 0 -197 67 -197 168c0 13 2 27 4 41l58 326h48l-57 -321c-2 -13 -4 -25 -4 -37c0 -83 57 -135 151 -135c107 0 191 70 209 173l57 320h48l-58 -330c-22 -124 -125 -205 -259 -205z" />
    <glyph glyph-name="uacute.ss01" horiz-adv-x="611" 
d="M328 620l153 145h64l-172 -145h-45zM252 -10c-123 0 -197 67 -197 168c0 13 2 27 4 41l58 326h48l-57 -321c-2 -13 -4 -25 -4 -37c0 -83 57 -135 151 -135c107 0 191 70 209 173l57 320h48l-58 -330c-22 -124 -125 -205 -259 -205z" />
    <glyph glyph-name="ucircumflex.ss01" horiz-adv-x="611" 
d="M381 737l-129 -117h-48l155 145h53l102 -145h-47zM521 525h48l-58 -330c-22 -124 -125 -205 -259 -205c-123 0 -197 67 -197 168c0 13 2 27 4 41l58 326h48l-57 -321c-2 -13 -4 -25 -4 -37c0 -83 57 -135 151 -135c107 0 191 70 209 173z" />
    <glyph glyph-name="udieresis.ss01" horiz-adv-x="611" 
d="M278 675c-19 0 -32 15 -32 33c0 24 20 40 40 40c19 0 32 -14 32 -33c0 -24 -20 -40 -40 -40zM466 675c-20 0 -33 15 -33 33c0 24 21 40 40 40c20 0 33 -14 33 -33c0 -24 -21 -40 -40 -40zM252 -10c-123 0 -197 67 -197 168c0 13 2 27 4 41l58 326h48l-57 -321
c-2 -13 -4 -25 -4 -37c0 -83 57 -135 151 -135c107 0 191 70 209 173l57 320h48l-58 -330c-22 -124 -125 -205 -259 -205z" />
    <glyph glyph-name="ugrave.ss01" horiz-adv-x="611" 
d="M341 620l-120 145h61l102 -145h-43zM252 -10c-123 0 -197 67 -197 168c0 13 2 27 4 41l58 326h48l-57 -321c-2 -13 -4 -25 -4 -37c0 -83 57 -135 151 -135c107 0 191 70 209 173l57 320h48l-58 -330c-22 -124 -125 -205 -259 -205z" />
    <glyph glyph-name="uhungarumlaut.ss01" horiz-adv-x="611" 
d="M266 620l131 145h62l-150 -145h-43zM397 620l131 145h62l-150 -145h-43zM252 -10c-123 0 -197 67 -197 168c0 13 2 27 4 41l58 326h48l-57 -321c-2 -13 -4 -25 -4 -37c0 -83 57 -135 151 -135c107 0 191 70 209 173l57 320h48l-58 -330c-22 -124 -125 -205 -259 -205z
" />
    <glyph glyph-name="umacron.ss01" horiz-adv-x="611" 
d="M218 655l7 40h294l-7 -40h-294zM252 -10c-123 0 -197 67 -197 168c0 13 2 27 4 41l58 326h48l-57 -321c-2 -13 -4 -25 -4 -37c0 -83 57 -135 151 -135c107 0 191 70 209 173l57 320h48l-58 -330c-22 -124 -125 -205 -259 -205z" />
    <glyph glyph-name="uogonek.ss01" horiz-adv-x="611" 
d="M521 525h48l-58 -330c-18 -99 -87 -171 -183 -196c-95 -56 -141 -111 -141 -157c0 -24 16 -40 41 -40c23 0 47 10 67 26l1 -30c-25 -19 -53 -28 -81 -28c-43 0 -69 25 -69 62c0 51 42 106 117 158h-11c-123 0 -197 67 -197 168c0 13 2 27 4 41l58 326h48l-57 -321
c-2 -13 -4 -25 -4 -37c0 -83 57 -135 151 -135c107 0 191 70 209 173z" />
    <glyph glyph-name="uring.ss01" horiz-adv-x="611" 
d="M355 584c-56 0 -91 33 -91 85c0 72 52 123 123 123c56 0 91 -33 91 -85c0 -70 -53 -123 -123 -123zM357 612c53 0 89 47 89 94c0 36 -23 59 -61 59c-54 0 -89 -46 -89 -96c0 -35 23 -57 61 -57zM252 -10c-123 0 -197 67 -197 168c0 13 2 27 4 41l58 326h48l-57 -321
c-2 -13 -4 -25 -4 -37c0 -83 57 -135 151 -135c107 0 191 70 209 173l57 320h48l-58 -330c-22 -124 -125 -205 -259 -205z" />
    <glyph glyph-name="y.ss01" horiz-adv-x="617" 
d="M520 525h48l-87 -493c-27 -159 -142 -262 -288 -262c-87 0 -155 21 -202 61l15 37c44 -34 104 -56 188 -56c120 0 217 92 241 228l10 56c-42 -66 -110 -106 -207 -106c-114 0 -184 66 -184 164c0 13 2 27 4 41l58 330h48l-56 -321c-2 -14 -4 -25 -4 -37
c0 -83 56 -135 150 -135c108 0 192 69 210 173z" />
    <glyph glyph-name="yacute.ss01" horiz-adv-x="617" 
d="M542 765l-172 -145h-45l153 145h64zM520 525h48l-87 -493c-27 -159 -142 -262 -288 -262c-87 0 -155 21 -202 61l15 37c44 -34 104 -56 188 -56c120 0 217 92 241 228l10 56c-42 -66 -110 -106 -207 -106c-114 0 -184 66 -184 164c0 13 2 27 4 41l58 330h48l-56 -321
c-2 -14 -4 -25 -4 -37c0 -83 56 -135 150 -135c108 0 192 69 210 173z" />
    <glyph glyph-name="ycircumflex.ss01" horiz-adv-x="617" 
d="M378 737l-129 -117h-48l155 145h53l102 -145h-47zM520 525h48l-87 -493c-27 -159 -142 -262 -288 -262c-87 0 -155 21 -202 61l15 37c44 -34 104 -56 188 -56c120 0 217 92 241 228l10 56c-42 -66 -110 -106 -207 -106c-114 0 -184 66 -184 164c0 13 2 27 4 41l58 330h48
l-56 -321c-2 -14 -4 -25 -4 -37c0 -83 56 -135 150 -135c108 0 192 69 210 173z" />
    <glyph glyph-name="ydieresis.ss01" horiz-adv-x="617" 
d="M275 675c-19 0 -32 15 -32 33c0 24 20 40 40 40c19 0 32 -14 32 -33c0 -24 -20 -40 -40 -40zM463 675c-20 0 -33 15 -33 33c0 24 21 40 40 40c20 0 33 -14 33 -33c0 -24 -21 -40 -40 -40zM520 525h48l-87 -493c-27 -159 -142 -262 -288 -262c-87 0 -155 21 -202 61l15 37
c44 -34 104 -56 188 -56c120 0 217 92 241 228l10 56c-42 -66 -110 -106 -207 -106c-114 0 -184 66 -184 164c0 13 2 27 4 41l58 330h48l-56 -321c-2 -14 -4 -25 -4 -37c0 -83 56 -135 150 -135c108 0 192 69 210 173z" />
    <glyph glyph-name="ygrave.ss01" horiz-adv-x="617" 
d="M381 620h-43l-120 145h61zM520 525h48l-87 -493c-27 -159 -142 -262 -288 -262c-87 0 -155 21 -202 61l15 37c44 -34 104 -56 188 -56c120 0 217 92 241 228l10 56c-42 -66 -110 -106 -207 -106c-114 0 -184 66 -184 164c0 13 2 27 4 41l58 330h48l-56 -321
c-2 -14 -4 -25 -4 -37c0 -83 56 -135 150 -135c108 0 192 69 210 173z" />
    <glyph glyph-name="a.ss02" horiz-adv-x="550" 
d="M108 525h393l-93 -525h-47l20 116l2 9c-51 -86 -141 -135 -231 -135c-91 0 -147 49 -147 124c0 116 110 182 238 182c55 0 115 -9 166 -22l37 211h-344zM167 27c92 0 211 78 236 213c-49 13 -106 20 -156 20c-104 0 -192 -55 -192 -142c0 -56 41 -91 112 -91z" />
    <glyph glyph-name="aacute.ss02" horiz-adv-x="550" 
d="M509 765l-172 -145h-45l153 145h64zM102 485l6 40h393l-93 -525h-47l20 116l2 9c-51 -86 -141 -135 -231 -135c-91 0 -147 49 -147 124c0 116 110 182 238 182c55 0 115 -9 166 -22l37 211h-344zM167 27c92 0 211 78 236 213c-49 13 -106 20 -156 20
c-104 0 -192 -55 -192 -142c0 -56 41 -91 112 -91z" />
    <glyph glyph-name="abreve.ss02" horiz-adv-x="550" 
d="M325 610c-81 0 -131 48 -131 122c0 11 1 22 3 33h41c-2 -11 -3 -21 -3 -30c0 -57 34 -93 92 -93c68 0 120 51 133 123h41c-16 -95 -86 -155 -176 -155zM102 485l6 40h393l-93 -525h-47l20 116l2 9c-51 -86 -141 -135 -231 -135c-91 0 -147 49 -147 124
c0 116 110 182 238 182c55 0 115 -9 166 -22l37 211h-344zM167 27c92 0 211 78 236 213c-49 13 -106 20 -156 20c-104 0 -192 -55 -192 -142c0 -56 41 -91 112 -91z" />
    <glyph glyph-name="acircumflex.ss02" horiz-adv-x="550" 
d="M345 737l-129 -117h-48l155 145h53l102 -145h-47zM108 525h393l-93 -525h-47l20 116l2 9c-51 -86 -141 -135 -231 -135c-91 0 -147 49 -147 124c0 116 110 182 238 182c55 0 115 -9 166 -22l37 211h-344zM167 27c92 0 211 78 236 213c-49 13 -106 20 -156 20
c-104 0 -192 -55 -192 -142c0 -56 41 -91 112 -91z" />
    <glyph glyph-name="adieresis.ss02" horiz-adv-x="550" 
d="M242 675c-19 0 -32 15 -32 33c0 24 20 40 40 40c19 0 32 -14 32 -33c0 -24 -20 -40 -40 -40zM430 675c-20 0 -33 15 -33 33c0 24 21 40 40 40c20 0 33 -14 33 -33c0 -24 -21 -40 -40 -40zM108 525h393l-93 -525h-47l20 116l2 9c-51 -86 -141 -135 -231 -135
c-91 0 -147 49 -147 124c0 116 110 182 238 182c55 0 115 -9 166 -22l37 211h-344zM167 27c92 0 211 78 236 213c-49 13 -106 20 -156 20c-104 0 -192 -55 -192 -142c0 -56 41 -91 112 -91z" />
    <glyph glyph-name="agrave.ss02" horiz-adv-x="550" 
d="M348 620h-43l-120 145h61zM108 525h393l-93 -525h-47l20 116l2 9c-51 -86 -141 -135 -231 -135c-91 0 -147 49 -147 124c0 116 110 182 238 182c55 0 115 -9 166 -22l37 211h-344zM167 27c92 0 211 78 236 213c-49 13 -106 20 -156 20c-104 0 -192 -55 -192 -142
c0 -56 41 -91 112 -91z" />
    <glyph glyph-name="amacron.ss02" horiz-adv-x="550" 
d="M483 695l-7 -40h-294l7 40h294zM108 525h393l-93 -525h-47l20 116l2 9c-51 -86 -141 -135 -231 -135c-91 0 -147 49 -147 124c0 116 110 182 238 182c55 0 115 -9 166 -22l37 211h-344zM167 27c92 0 211 78 236 213c-49 13 -106 20 -156 20c-104 0 -192 -55 -192 -142
c0 -56 41 -91 112 -91z" />
    <glyph glyph-name="aogonek.ss02" horiz-adv-x="550" 
d="M408 0c-96 -57 -142 -112 -142 -158c0 -24 16 -40 41 -40c23 0 47 10 67 26l1 -30c-25 -19 -53 -28 -81 -28c-43 0 -69 25 -69 62c0 56 49 115 137 171l19 113l2 9c-51 -86 -141 -135 -231 -135c-91 0 -147 49 -147 124c0 116 110 182 238 182c55 0 115 -9 166 -22
l37 211h-344l6 40h393zM167 27c92 0 211 78 236 213c-49 13 -106 20 -156 20c-104 0 -192 -55 -192 -142c0 -56 41 -91 112 -91z" />
    <glyph glyph-name="aring.ss02" horiz-adv-x="550" 
d="M319 584c-56 0 -91 33 -91 85c0 72 52 123 123 123c56 0 91 -33 91 -85c0 -70 -53 -123 -123 -123zM349 765c-54 0 -89 -46 -89 -96c0 -35 23 -57 61 -57c53 0 89 47 89 94c0 36 -23 59 -61 59zM108 525h393l-93 -525h-47l20 116l2 9c-51 -86 -141 -135 -231 -135
c-91 0 -147 49 -147 124c0 116 110 182 238 182c55 0 115 -9 166 -22l37 211h-344zM167 27c92 0 211 78 236 213c-49 13 -106 20 -156 20c-104 0 -192 -55 -192 -142c0 -56 41 -91 112 -91z" />
    <glyph glyph-name="atilde.ss02" horiz-adv-x="550" 
d="M260 708c-34 0 -65 -25 -73 -68h-33c10 64 58 108 110 108c69 0 90 -77 147 -77c34 0 65 25 72 67h34c-11 -65 -58 -108 -110 -108c-68 0 -90 78 -147 78zM102 485l6 40h393l-93 -525h-47l20 116l2 9c-51 -86 -141 -135 -231 -135c-91 0 -147 49 -147 124
c0 116 110 182 238 182c55 0 115 -9 166 -22l37 211h-344zM167 27c92 0 211 78 236 213c-49 13 -106 20 -156 20c-104 0 -192 -55 -192 -142c0 -56 41 -91 112 -91z" />
    <glyph glyph-name="c.ss02" horiz-adv-x="476" 
d="M252 -10c-134 0 -215 84 -215 214c0 179 127 331 306 331c46 0 87 -17 116 -43l-7 -45c-29 30 -66 46 -112 46c-152 0 -253 -139 -253 -287c0 -106 63 -174 170 -174c48 0 94 18 131 48l-8 -50c-38 -26 -83 -40 -128 -40z" />
    <glyph glyph-name="cacute.ss02" horiz-adv-x="476" 
d="M320 620l153 145h64l-172 -145h-45zM252 -10c-134 0 -215 84 -215 214c0 179 127 331 306 331c46 0 87 -17 116 -43l-7 -45c-29 30 -66 46 -112 46c-152 0 -253 -139 -253 -287c0 -106 63 -174 170 -174c48 0 94 18 131 48l-8 -50c-38 -26 -83 -40 -128 -40z" />
    <glyph glyph-name="ccaron.ss02" horiz-adv-x="476" 
d="M377 620h-52l-104 145h49l86 -117l127 117h48zM37 204c0 179 127 331 306 331c46 0 87 -17 116 -43l-7 -45c-29 30 -66 46 -112 46c-152 0 -253 -139 -253 -287c0 -106 63 -174 170 -174c48 0 94 18 131 48l-8 -50c-38 -26 -83 -40 -128 -40c-134 0 -215 84 -215 214z
" />
    <glyph glyph-name="ccedilla.ss02" horiz-adv-x="476" 
d="M343 535c46 0 87 -17 116 -43l-7 -45c-29 30 -66 46 -112 46c-152 0 -253 -139 -253 -287c0 -106 63 -174 170 -174c48 0 94 18 131 48l-8 -50c-37 -25 -80 -39 -123 -40l-51 -61c8 1 16 2 25 2c58 0 93 -27 93 -68c0 -59 -59 -93 -129 -93c-35 0 -69 11 -90 30l17 24
c19 -18 44 -25 71 -25c50 0 92 25 92 62c0 27 -26 43 -67 43c-19 0 -36 -3 -53 -9l-7 17l64 79c-116 12 -185 93 -185 213c0 179 127 331 306 331z" />
    <glyph glyph-name="cdotaccent.ss02" horiz-adv-x="476" 
d="M365 675c-19 0 -33 15 -33 34c0 23 18 39 39 39c19 0 33 -14 33 -34c0 -22 -18 -39 -39 -39zM252 -10c-134 0 -215 84 -215 214c0 179 127 331 306 331c46 0 87 -17 116 -43l-7 -45c-29 30 -66 46 -112 46c-152 0 -253 -139 -253 -287c0 -106 63 -174 170 -174
c48 0 94 18 131 48l-8 -50c-38 -26 -83 -40 -128 -40z" />
    <glyph glyph-name="f.ss02" horiz-adv-x="363" 
d="M433 739h-199l-38 -214h194l-7 -41h-194l-86 -484h-48l86 484h-93l7 41h93l45 255h247z" />
    <glyph glyph-name="g.ss02" horiz-adv-x="659" 
d="M565 525h46l-131 -745h-503l6 41h456l54 307c-49 -83 -131 -138 -245 -138c-130 0 -211 84 -211 214c0 180 128 331 303 331c115 0 180 -58 200 -142l1 8zM265 32c127 0 227 93 252 231l2 14c2 14 3 26 3 38c0 109 -67 178 -177 178c-152 0 -258 -135 -258 -284
c0 -108 66 -177 178 -177z" />
    <glyph glyph-name="gbreve.ss02" horiz-adv-x="659" 
d="M380 610c-81 0 -131 48 -131 122c0 11 1 22 3 33h41c-2 -11 -3 -21 -3 -30c0 -57 34 -93 92 -93c68 0 120 51 133 123h41c-16 -95 -86 -155 -176 -155zM565 525h46l-131 -745h-503l6 41h456l54 307c-49 -83 -131 -138 -245 -138c-130 0 -211 84 -211 214
c0 180 128 331 303 331c115 0 180 -58 200 -142l1 8zM265 32c127 0 227 93 252 231l2 14c2 14 3 26 3 38c0 109 -67 178 -177 178c-152 0 -258 -135 -258 -284c0 -108 66 -177 178 -177z" />
    <glyph glyph-name="gcommaaccent.ss02" horiz-adv-x="659" 
d="M480 780l-96 -187h-47l104 187h39zM565 525h46l-131 -745h-503l6 41h456l54 307c-49 -83 -131 -138 -245 -138c-130 0 -211 84 -211 214c0 180 128 331 303 331c115 0 180 -58 200 -142l1 8zM265 32c127 0 227 93 252 231l2 14c2 14 3 26 3 38c0 109 -67 178 -177 178
c-152 0 -258 -135 -258 -284c0 -108 66 -177 178 -177z" />
    <glyph glyph-name="gdotaccent.ss02" horiz-adv-x="659" 
d="M392 675c-19 0 -33 15 -33 34c0 23 18 39 39 39c19 0 33 -14 33 -34c0 -22 -18 -39 -39 -39zM565 525h46l-131 -745h-503l6 41h456l54 307c-49 -83 -131 -138 -245 -138c-130 0 -211 84 -211 214c0 180 128 331 303 331c115 0 180 -58 200 -142l1 8zM265 32
c127 0 227 93 252 231l2 14c2 14 3 26 3 38c0 109 -67 178 -177 178c-152 0 -258 -135 -258 -284c0 -108 66 -177 178 -177z" />
    <glyph glyph-name="j.ss02" horiz-adv-x="224" 
d="M178 675c-19 0 -33 15 -33 34c0 23 18 39 40 39c19 0 33 -14 33 -34c0 -22 -18 -39 -40 -39zM-6 -220l132 745h48l-132 -745h-48z" />
    <glyph glyph-name="l.ss02" horiz-adv-x="255" 
d="M34 0l138 780h48l-130 -739h115l-7 -41h-164z" />
    <glyph glyph-name="lacute.ss02" horiz-adv-x="255" 
d="M182 875l153 145h64l-172 -145h-45zM34 0l138 780h48l-130 -739h115l-7 -41h-164z" />
    <glyph glyph-name="lcaron.ss02" horiz-adv-x="258" 
d="M34 0l138 780h48l-130 -739h115l-7 -41h-164zM235 593l96 187h47l-104 -187h-39z" />
    <glyph glyph-name="lcommaaccent.ss02" horiz-adv-x="255" 
d="M34 0l138 780h48l-130 -739h115l-7 -41h-164zM-1 -220l86 168h47l-94 -168h-39z" />
    <glyph glyph-name="lslash.ss02" horiz-adv-x="255" 
d="M262 466l-109 -68l-63 -357h115l-7 -41h-164l66 370l-111 -69l7 42l111 70l65 367h48l-60 -340l110 68z" />
    <glyph glyph-name="t.ss02" horiz-adv-x="325" 
d="M371 525l-7 -41h-138l-86 -484h-48l86 484h-138l7 41h138l27 154h48l-27 -154h138z" />
    <glyph glyph-name="tbar.ss02" horiz-adv-x="365" 
d="M383 484h-138l-36 -203h120l-7 -37h-120l-43 -244h-48l43 244h-121l6 37h122l36 203h-139l7 41h139l27 154h48l-27 -154h138z" />
    <glyph glyph-name="tcaron.ss02" horiz-adv-x="325" 
d="M474 780l-104 -187h-39l97 187h46zM260 679l-27 -154h138l-7 -41h-138l-86 -484h-48l86 484h-138l7 41h138l27 154h48z" />
    <glyph glyph-name="uni0163.ss02" horiz-adv-x="325" 
d="M140 0h-7l-58 -71c8 1 17 2 26 2c58 0 93 -27 93 -68c0 -59 -59 -93 -129 -93c-35 0 -69 11 -90 30l17 24c18 -18 44 -25 71 -25c50 0 92 25 92 62c0 27 -26 43 -68 43c-18 0 -36 -3 -52 -9l-7 17l72 88h-8l86 484h-138l7 41h138l27 154h48l-27 -154h138l-7 -41h-138z
" />
    <glyph glyph-name="uni021B.ss02" horiz-adv-x="325" 
d="M371 525l-7 -41h-138l-86 -484h-48l86 484h-138l7 41h138l27 154h48l-27 -154h138zM6 -220l86 168h47l-94 -168h-39z" />
    <glyph glyph-name="u.ss02" horiz-adv-x="611" 
d="M252 -10c-123 0 -197 67 -197 168c0 13 2 27 4 41l58 326h48l-57 -321c-2 -13 -4 -25 -4 -37c0 -83 57 -135 151 -135c107 0 191 70 209 173l57 320h48l-58 -330c-22 -124 -125 -205 -259 -205z" />
    <glyph glyph-name="uacute.ss02" horiz-adv-x="611" 
d="M328 620l153 145h64l-172 -145h-45zM252 -10c-123 0 -197 67 -197 168c0 13 2 27 4 41l58 326h48l-57 -321c-2 -13 -4 -25 -4 -37c0 -83 57 -135 151 -135c107 0 191 70 209 173l57 320h48l-58 -330c-22 -124 -125 -205 -259 -205z" />
    <glyph glyph-name="ucircumflex.ss02" horiz-adv-x="611" 
d="M381 737l-129 -117h-48l155 145h53l102 -145h-47zM521 525h48l-58 -330c-22 -124 -125 -205 -259 -205c-123 0 -197 67 -197 168c0 13 2 27 4 41l58 326h48l-57 -321c-2 -13 -4 -25 -4 -37c0 -83 57 -135 151 -135c107 0 191 70 209 173z" />
    <glyph glyph-name="udieresis.ss02" horiz-adv-x="611" 
d="M278 675c-19 0 -32 15 -32 33c0 24 20 40 40 40c19 0 32 -14 32 -33c0 -24 -20 -40 -40 -40zM466 675c-20 0 -33 15 -33 33c0 24 21 40 40 40c20 0 33 -14 33 -33c0 -24 -21 -40 -40 -40zM252 -10c-123 0 -197 67 -197 168c0 13 2 27 4 41l58 326h48l-57 -321
c-2 -13 -4 -25 -4 -37c0 -83 57 -135 151 -135c107 0 191 70 209 173l57 320h48l-58 -330c-22 -124 -125 -205 -259 -205z" />
    <glyph glyph-name="ugrave.ss02" horiz-adv-x="611" 
d="M341 620l-120 145h61l102 -145h-43zM252 -10c-123 0 -197 67 -197 168c0 13 2 27 4 41l58 326h48l-57 -321c-2 -13 -4 -25 -4 -37c0 -83 57 -135 151 -135c107 0 191 70 209 173l57 320h48l-58 -330c-22 -124 -125 -205 -259 -205z" />
    <glyph glyph-name="uhungarumlaut.ss02" horiz-adv-x="611" 
d="M266 620l131 145h62l-150 -145h-43zM397 620l131 145h62l-150 -145h-43zM252 -10c-123 0 -197 67 -197 168c0 13 2 27 4 41l58 326h48l-57 -321c-2 -13 -4 -25 -4 -37c0 -83 57 -135 151 -135c107 0 191 70 209 173l57 320h48l-58 -330c-22 -124 -125 -205 -259 -205z
" />
    <glyph glyph-name="umacron.ss02" horiz-adv-x="611" 
d="M218 655l7 40h294l-7 -40h-294zM252 -10c-123 0 -197 67 -197 168c0 13 2 27 4 41l58 326h48l-57 -321c-2 -13 -4 -25 -4 -37c0 -83 57 -135 151 -135c107 0 191 70 209 173l57 320h48l-58 -330c-22 -124 -125 -205 -259 -205z" />
    <glyph glyph-name="uogonek.ss02" horiz-adv-x="611" 
d="M521 525h48l-58 -330c-18 -99 -87 -171 -183 -196c-95 -56 -141 -111 -141 -157c0 -24 16 -40 41 -40c23 0 47 10 67 26l1 -30c-25 -19 -53 -28 -81 -28c-43 0 -69 25 -69 62c0 51 42 106 117 158h-11c-123 0 -197 67 -197 168c0 13 2 27 4 41l58 326h48l-57 -321
c-2 -13 -4 -25 -4 -37c0 -83 57 -135 151 -135c107 0 191 70 209 173z" />
    <glyph glyph-name="uring.ss02" horiz-adv-x="611" 
d="M355 584c-56 0 -91 33 -91 85c0 72 52 123 123 123c56 0 91 -33 91 -85c0 -70 -53 -123 -123 -123zM357 612c53 0 89 47 89 94c0 36 -23 59 -61 59c-54 0 -89 -46 -89 -96c0 -35 23 -57 61 -57zM252 -10c-123 0 -197 67 -197 168c0 13 2 27 4 41l58 326h48l-57 -321
c-2 -13 -4 -25 -4 -37c0 -83 57 -135 151 -135c107 0 191 70 209 173l57 320h48l-58 -330c-22 -124 -125 -205 -259 -205z" />
    <glyph glyph-name="y.ss02" horiz-adv-x="617" 
d="M520 525h48l-131 -745h-448l7 41h400l48 273c-42 -65 -111 -104 -206 -104c-114 0 -183 66 -183 164c0 13 2 27 4 41l58 330h48l-57 -321c-2 -14 -3 -25 -3 -37c0 -83 56 -135 150 -135c107 0 190 68 209 171v2z" />
    <glyph glyph-name="yacute.ss02" horiz-adv-x="617" 
d="M542 765l-172 -145h-45l153 145h64zM520 525h48l-131 -745h-448l7 41h400l48 273c-42 -65 -111 -104 -206 -104c-114 0 -183 66 -183 164c0 13 2 27 4 41l58 330h48l-57 -321c-2 -14 -3 -25 -3 -37c0 -83 56 -135 150 -135c107 0 190 68 209 171v2z" />
    <glyph glyph-name="ycircumflex.ss02" horiz-adv-x="617" 
d="M378 737l-129 -117h-48l155 145h53l102 -145h-47zM520 525h48l-131 -745h-448l7 41h400l48 273c-42 -65 -111 -104 -206 -104c-114 0 -183 66 -183 164c0 13 2 27 4 41l58 330h48l-57 -321c-2 -14 -3 -25 -3 -37c0 -83 56 -135 150 -135c107 0 190 68 209 171v2z" />
    <glyph glyph-name="ydieresis.ss02" horiz-adv-x="617" 
d="M275 675c-19 0 -32 15 -32 33c0 24 20 40 40 40c19 0 32 -14 32 -33c0 -24 -20 -40 -40 -40zM463 675c-20 0 -33 15 -33 33c0 24 21 40 40 40c20 0 33 -14 33 -33c0 -24 -21 -40 -40 -40zM520 525h48l-131 -745h-448l7 41h400l48 273c-42 -65 -111 -104 -206 -104
c-114 0 -183 66 -183 164c0 13 2 27 4 41l58 330h48l-57 -321c-2 -14 -3 -25 -3 -37c0 -83 56 -135 150 -135c107 0 190 68 209 171v2z" />
    <glyph glyph-name="ygrave.ss02" horiz-adv-x="617" 
d="M381 620h-43l-120 145h61zM520 525h48l-131 -745h-448l7 41h400l48 273c-42 -65 -111 -104 -206 -104c-114 0 -183 66 -183 164c0 13 2 27 4 41l58 330h48l-57 -321c-2 -14 -3 -25 -3 -37c0 -83 56 -135 150 -135c107 0 190 68 209 171v2z" />
    <glyph glyph-name="z.ss02" horiz-adv-x="481" 
d="M-24 0l419 484h-329l7 41h409l-419 -484h338l-7 -41h-418z" />
    <glyph glyph-name="zacute.ss02" horiz-adv-x="481" 
d="M263 620l153 145h64l-172 -145h-45zM-24 0l419 484h-329l7 41h409l-419 -484h338l-7 -41h-418z" />
    <glyph glyph-name="zcaron.ss02" horiz-adv-x="481" 
d="M320 620h-52l-104 145h49l86 -117l127 117h48zM482 525l-419 -484h338l-7 -41h-418l419 484h-329l7 41h409z" />
    <glyph glyph-name="zdotaccent.ss02" horiz-adv-x="481" 
d="M308 675c-19 0 -33 15 -33 34c0 23 18 39 39 39c19 0 33 -14 33 -34c0 -22 -18 -39 -39 -39zM-24 0l419 484h-329l7 41h409l-419 -484h338l-7 -41h-418z" />
    <glyph glyph-name="fi.ss01" horiz-adv-x="563" 
d="M191 633l-19 -108h194l-7 -41h-194l-86 -484h-48l114 644c16 89 82 146 169 146c41 0 74 -7 100 -21l-6 -38c-23 12 -53 17 -87 17c-65 0 -118 -46 -130 -115zM524 748c19 0 33 -14 33 -34c0 -22 -18 -39 -39 -39c-20 0 -34 15 -34 34c0 23 18 39 40 39zM372 0l93 525h48
l-93 -525h-48z" />
    <glyph glyph-name="fl.ss01" horiz-adv-x="566" 
d="M191 633l-19 -108h194l-7 -41h-194l-86 -484h-48l114 644c16 89 82 146 169 146c41 0 74 -7 100 -21l-6 -38c-23 12 -53 17 -87 17c-65 0 -118 -46 -130 -115zM511 780h48l-138 -780h-48z" />
    <glyph glyph-name="fi.ss02" horiz-adv-x="587" 
d="M234 739l-38 -214h194l-7 -41h-194l-86 -484h-48l86 484h-93l7 41h93l45 255h247l-7 -41h-199zM548 748c19 0 33 -14 33 -34c0 -22 -18 -39 -39 -39c-20 0 -34 15 -34 34c0 23 18 39 40 39zM396 0l93 525h48l-93 -525h-48z" />
    <glyph glyph-name="fl.ss02" horiz-adv-x="618" 
d="M234 739l-38 -214h194l-7 -41h-194l-86 -484h-48l86 484h-93l7 41h93l45 255h247l-7 -41h-199zM583 780l-130 -739h115l-7 -41h-164l138 780h48z" />
    <glyph glyph-name="ordfeminine" unicode="&#xaa;" horiz-adv-x="389" 
d="M262 750c68 0 109 -40 109 -99c0 -9 -1 -18 -2 -25l-35 -198h-36l11 69c-30 -48 -82 -75 -132 -75c-56 0 -91 29 -91 76c0 71 67 110 144 110c32 0 67 -5 97 -13l5 28c1 6 1 14 1 22c0 47 -29 75 -80 75c-40 0 -71 -14 -97 -38l-14 25c32 28 71 43 120 43zM187 449
c53 0 119 43 135 117l1 5c-28 7 -60 10 -87 10c-61 0 -112 -30 -112 -81c0 -31 23 -51 63 -51z" />
    <glyph glyph-name="ordmasculine" unicode="&#xba;" horiz-adv-x="425" 
d="M233 422c-85 0 -137 51 -137 131c0 110 80 197 190 197c84 0 136 -52 136 -131c0 -110 -81 -197 -189 -197zM236 453c87 0 147 78 147 164c0 61 -37 101 -100 101c-87 0 -149 -77 -149 -163c0 -63 38 -102 102 -102z" />
    <glyph glyph-name="uni0394" unicode="&#x394;" horiz-adv-x="774" 
d="M488 740l197 -740h-705l459 740h49zM62 43h557l-165 636z" />
    <glyph glyph-name="uni03A9" unicode="&#x3a9;" horiz-adv-x="770" 
d="M9 0l8 43h205l20 108c-105 34 -166 116 -166 231c0 211 167 368 385 368c174 0 281 -98 281 -250c0 -163 -104 -304 -265 -350l-20 -107h205l-8 -43h-250l32 183c153 33 253 167 253 315c0 128 -88 209 -232 209c-188 0 -327 -144 -327 -322c0 -105 58 -177 160 -202
l-32 -183h-249z" />
    <glyph glyph-name="uni03BC" unicode="&#x3bc;" horiz-adv-x="624" 
d="M527 525h48l-93 -525h-47l16 92c-41 -64 -106 -102 -196 -102c-91 0 -142 41 -159 107l-56 -317h-48l132 745h48l-57 -321c-18 -105 40 -172 148 -172c105 0 186 67 207 166l1 7z" />
    <glyph glyph-name="pi" unicode="&#x3c0;" horiz-adv-x="677" 
d="M528 484l-67 -379c-1 -7 -2 -13 -2 -19c0 -34 19 -54 51 -54c25 0 49 6 73 19l-3 -40c-26 -15 -55 -21 -89 -21c-51 0 -81 33 -81 82c0 8 0 15 2 25l68 387h-245l-86 -484h-48l86 484h-134l7 41h609l-7 -41h-134z" />
    <glyph glyph-name="zero" unicode="0" horiz-adv-x="614" 
d="M259 -10c-126 0 -200 104 -200 269c0 236 128 491 328 491c125 0 199 -105 199 -269c0 -237 -128 -491 -327 -491zM263 33c167 0 271 248 271 449c0 138 -55 225 -152 225c-167 0 -271 -246 -271 -448c0 -139 55 -226 152 -226z" />
    <glyph glyph-name="one" unicode="1" horiz-adv-x="396" 
d="M184 0l119 671l-227 -146l-20 38l270 177h40l-131 -740h-51z" />
    <glyph glyph-name="two" unicode="2" horiz-adv-x="550" 
d="M-7 0l6 34l268 242c90 81 217 185 217 313c0 74 -53 118 -140 118c-100 0 -179 -66 -196 -162l-51 8c21 119 120 197 251 197c116 0 189 -59 189 -156c0 -141 -137 -262 -245 -356l-221 -195h383l-8 -43h-453z" />
    <glyph glyph-name="three" unicode="3" horiz-adv-x="555" 
d="M557 740l-6 -33l-324 -293c19 3 38 4 57 4c126 0 204 -68 204 -173c0 -152 -130 -255 -291 -255c-91 0 -163 31 -196 88l26 36c32 -56 91 -81 172 -81c132 0 235 88 235 208c0 83 -65 136 -171 136c-43 0 -86 -9 -123 -26l-11 27l350 319h-344l8 43h414z" />
    <glyph glyph-name="four" unicode="4" horiz-adv-x="596" 
d="M343 0l30 167h-375l7 40l476 533h44l-93 -530h115l-7 -43h-116l-29 -167h-52zM64 209h318l80 449z" />
    <glyph glyph-name="five" unicode="5" horiz-adv-x="562" 
d="M197 -10c-91 0 -159 24 -199 72l21 36c39 -46 104 -65 179 -65c139 0 246 95 246 221c0 86 -59 140 -157 140c-48 0 -101 -10 -152 -27l-37 6l116 367h339l-7 -43h-293l-93 -279c47 13 96 20 141 20c122 0 197 -70 197 -178c0 -160 -134 -270 -301 -270z" />
    <glyph glyph-name="six" unicode="6" horiz-adv-x="552" 
d="M313 445c115 0 189 -69 189 -179c0 -154 -120 -276 -278 -276c-123 0 -197 70 -197 181c0 74 32 147 80 203l309 366h60l-274 -318c33 15 70 23 111 23zM232 33c126 0 215 104 215 227c0 88 -57 144 -150 144c-126 0 -216 -104 -216 -227c0 -88 57 -144 151 -144z" />
    <glyph glyph-name="seven" unicode="7" horiz-adv-x="493" 
d="M89 740h457l-400 -740h-56l379 697h-388z" />
    <glyph glyph-name="eight" unicode="8" horiz-adv-x="586" 
d="M393 383c72 -23 115 -78 115 -153c0 -142 -119 -240 -270 -240c-125 0 -202 66 -202 168c0 114 76 197 182 227c-62 23 -97 73 -97 140c0 134 109 225 246 225c114 0 185 -62 185 -157c0 -104 -66 -180 -159 -210zM173 523c0 -73 51 -118 135 -118c109 0 190 82 190 183
c0 72 -51 119 -135 119c-109 0 -190 -82 -190 -184zM243 33c120 0 211 86 211 198c0 79 -57 130 -152 130c-120 0 -213 -87 -213 -198c0 -80 59 -130 154 -130z" />
    <glyph glyph-name="nine" unicode="9" horiz-adv-x="552" 
d="M348 750c122 0 197 -70 197 -181c0 -74 -32 -147 -81 -203l-309 -366h-59l275 319c-33 -15 -70 -24 -112 -24c-116 0 -190 69 -190 179c0 154 120 276 279 276zM274 336c126 0 216 104 216 227c0 88 -56 144 -150 144c-127 0 -215 -104 -215 -227c0 -88 56 -144 149 -144
z" />
    <glyph glyph-name="zero.lf" horiz-adv-x="614" 
d="M259 -10c-126 0 -200 104 -200 269c0 236 128 491 328 491c125 0 199 -105 199 -269c0 -237 -128 -491 -327 -491zM263 33c167 0 271 248 271 449c0 138 -55 225 -152 225c-167 0 -271 -246 -271 -448c0 -139 55 -226 152 -226z" />
    <glyph glyph-name="one.lf" horiz-adv-x="396" 
d="M184 0l119 671l-227 -146l-20 38l270 177h40l-131 -740h-51z" />
    <glyph glyph-name="two.lf" horiz-adv-x="550" 
d="M-7 0l6 34l268 242c90 81 217 185 217 313c0 74 -53 118 -140 118c-100 0 -179 -66 -196 -162l-51 8c21 119 120 197 251 197c116 0 189 -59 189 -156c0 -141 -137 -262 -245 -356l-221 -195h383l-8 -43h-453z" />
    <glyph glyph-name="three.lf" horiz-adv-x="555" 
d="M557 740l-6 -33l-324 -293c19 3 38 4 57 4c126 0 204 -68 204 -173c0 -152 -130 -255 -291 -255c-91 0 -163 31 -196 88l26 36c32 -56 91 -81 172 -81c132 0 235 88 235 208c0 83 -65 136 -171 136c-43 0 -86 -9 -123 -26l-11 27l350 319h-344l8 43h414z" />
    <glyph glyph-name="four.lf" horiz-adv-x="596" 
d="M343 0l30 167h-375l7 40l476 533h44l-93 -530h115l-7 -43h-116l-29 -167h-52zM64 209h318l80 449z" />
    <glyph glyph-name="five.lf" horiz-adv-x="562" 
d="M197 -10c-91 0 -159 24 -199 72l21 36c39 -46 104 -65 179 -65c139 0 246 95 246 221c0 86 -59 140 -157 140c-48 0 -101 -10 -152 -27l-37 6l116 367h339l-7 -43h-293l-93 -279c47 13 96 20 141 20c122 0 197 -70 197 -178c0 -160 -134 -270 -301 -270z" />
    <glyph glyph-name="six.lf" horiz-adv-x="552" 
d="M313 445c115 0 189 -69 189 -179c0 -154 -120 -276 -278 -276c-123 0 -197 70 -197 181c0 74 32 147 80 203l309 366h60l-274 -318c33 15 70 23 111 23zM232 33c126 0 215 104 215 227c0 88 -57 144 -150 144c-126 0 -216 -104 -216 -227c0 -88 57 -144 151 -144z" />
    <glyph glyph-name="seven.lf" horiz-adv-x="493" 
d="M89 740h457l-400 -740h-56l379 697h-388z" />
    <glyph glyph-name="eight.lf" horiz-adv-x="586" 
d="M393 383c72 -23 115 -78 115 -153c0 -142 -119 -240 -270 -240c-125 0 -202 66 -202 168c0 114 76 197 182 227c-62 23 -97 73 -97 140c0 134 109 225 246 225c114 0 185 -62 185 -157c0 -104 -66 -180 -159 -210zM173 523c0 -73 51 -118 135 -118c109 0 190 82 190 183
c0 72 -51 119 -135 119c-109 0 -190 -82 -190 -184zM243 33c120 0 211 86 211 198c0 79 -57 130 -152 130c-120 0 -213 -87 -213 -198c0 -80 59 -130 154 -130z" />
    <glyph glyph-name="nine.lf" horiz-adv-x="552" 
d="M348 750c122 0 197 -70 197 -181c0 -74 -32 -147 -81 -203l-309 -366h-59l275 319c-33 -15 -70 -24 -112 -24c-116 0 -190 69 -190 179c0 154 120 276 279 276zM274 336c126 0 216 104 216 227c0 88 -56 144 -150 144c-127 0 -215 -104 -215 -227c0 -88 56 -144 149 -144
z" />
    <glyph glyph-name="zero.osf" horiz-adv-x="650" 
d="M276 -10c-140 0 -224 96 -224 246c0 216 140 399 333 399c140 0 224 -96 224 -246c0 -215 -139 -399 -333 -399zM282 32c163 0 276 172 276 354c0 126 -66 207 -178 207c-162 0 -277 -170 -277 -353c0 -127 66 -208 179 -208z" />
    <glyph glyph-name="one.osf" horiz-adv-x="347" 
d="M140 0l98 559l-168 -108l-19 36l210 138h37l-110 -625h-48z" />
    <glyph glyph-name="two.osf" horiz-adv-x="561" 
d="M1 0l6 34l270 185c90 61 198 140 198 252c0 74 -53 122 -143 122c-102 0 -183 -66 -199 -162l-48 8c21 118 120 196 251 196c116 0 188 -62 188 -158c0 -132 -117 -219 -224 -291l-218 -145h379l-7 -41h-453z" />
    <glyph glyph-name="three.osf" horiz-adv-x="566" 
d="M546 625l-6 -34l-325 -285c18 3 39 4 58 4c125 0 201 -67 201 -169c0 -151 -126 -251 -285 -251c-93 0 -165 31 -197 88l26 35c31 -56 89 -81 169 -81c132 0 237 87 237 204c0 82 -65 135 -173 135c-42 0 -84 -10 -122 -28l-11 28l351 313h-345l7 41h415z" />
    <glyph glyph-name="four.osf" horiz-adv-x="590" 
d="M330 -110l19 110h-379l7 37l487 588h43l-103 -584h116l-7 -41h-116l-19 -110h-48zM33 40h324l89 499z" />
    <glyph glyph-name="five.osf" horiz-adv-x="565" 
d="M179 -110c-91 0 -159 24 -199 72l19 35c39 -46 106 -65 180 -65c138 0 245 91 245 216c0 85 -57 139 -156 139c-48 0 -102 -11 -154 -28l-36 6l114 360h340l-7 -41h-297l-91 -275c48 13 98 20 144 20c120 0 194 -69 194 -174c0 -157 -132 -265 -296 -265z" />
    <glyph glyph-name="six.osf" horiz-adv-x="548" 
d="M310 445c116 0 186 -69 186 -177c0 -155 -117 -278 -275 -278c-120 0 -194 69 -194 178c0 73 32 151 81 205l310 367h56l-274 -319c34 16 71 24 110 24zM229 33c127 0 215 104 215 227c0 88 -56 144 -149 144c-127 0 -216 -104 -216 -227c0 -88 56 -144 150 -144z" />
    <glyph glyph-name="seven.osf" horiz-adv-x="526" 
d="M90 625h457l-392 -729l-45 13l364 675h-391z" />
    <glyph glyph-name="eight.osf" horiz-adv-x="579" 
d="M388 383c72 -23 113 -78 113 -153c0 -141 -117 -240 -266 -240c-124 0 -199 66 -199 167c0 114 75 198 180 228c-60 23 -95 73 -95 139c0 133 107 226 243 226c112 0 181 -62 181 -157c0 -102 -65 -180 -157 -210zM170 523c0 -73 50 -118 135 -118c109 0 189 82 189 183
c0 72 -50 119 -134 119c-109 0 -190 -82 -190 -184zM240 33c120 0 211 86 211 198c0 79 -57 130 -152 130c-120 0 -213 -86 -213 -198c0 -80 58 -130 154 -130z" />
    <glyph glyph-name="nine.osf" horiz-adv-x="549" 
d="M325 635c121 0 196 -69 196 -178c0 -72 -32 -151 -81 -206l-301 -355l-45 13l253 295c-34 -17 -72 -25 -111 -25c-115 0 -186 69 -186 177c0 155 118 279 275 279zM252 220c127 0 215 105 215 228c0 88 -56 143 -149 143c-127 0 -216 -102 -216 -224
c0 -89 57 -147 150 -147z" />
    <glyph glyph-name="one.ss02" horiz-adv-x="313" 
d="M101 0l123 697h-143l8 43h194l-131 -740h-51z" />
    <glyph glyph-name="one.lf.ss02" horiz-adv-x="313" 
d="M101 0l123 697h-143l8 43h194l-131 -740h-51z" />
    <glyph glyph-name="one.osf.ss02" horiz-adv-x="322" 
d="M115 0l103 584h-135l7 41h183l-110 -625h-48z" />
    <glyph glyph-name="one.tf.ss02" 
d="M332 43h151l-7 -43h-432l7 43h229l115 654h-173l8 43h225z" />
    <glyph glyph-name="one.tosf.ss02" 
d="M331 41h156l-8 -41h-431l7 41h228l96 543h-165l8 41h212z" />
    <glyph glyph-name="zero.tf" 
d="M254 -10c-112 0 -178 99 -178 258c0 223 115 502 306 502c112 0 177 -99 177 -258c0 -223 -114 -502 -305 -502zM259 33c154 0 248 273 248 463c0 130 -46 211 -129 211c-155 0 -250 -271 -250 -463c0 -130 47 -211 131 -211z" />
    <glyph glyph-name="one.tf" 
d="M343 43h152l-7 -43h-432l7 43h229l110 628l-226 -146l-21 38l271 177h40z" />
    <glyph glyph-name="two.tf" 
d="M25 0l6 34l268 242c90 81 217 185 217 313c0 74 -52 118 -139 118c-101 0 -180 -66 -196 -162l-52 8c22 119 121 197 251 197c117 0 190 -59 190 -156c0 -141 -138 -261 -246 -356l-220 -195h382l-8 -43h-453z" />
    <glyph glyph-name="three.tf" 
d="M587 740l-6 -33l-324 -293c19 3 38 4 57 4c126 0 204 -68 204 -173c0 -152 -130 -255 -291 -255c-91 0 -163 31 -196 88l26 36c32 -56 91 -81 172 -81c132 0 235 88 235 208c0 83 -65 136 -171 136c-43 0 -86 -9 -123 -26l-11 27l350 319h-344l8 43h414z" />
    <glyph glyph-name="four.tf" 
d="M347 0l29 167h-362l7 40l464 533h44l-94 -531h116l-7 -42h-116l-30 -167h-51zM78 208h307l79 446z" />
    <glyph glyph-name="five.tf" 
d="M224 -10c-92 0 -159 24 -200 72l21 36c39 -45 105 -65 179 -65c139 0 246 95 246 221c0 86 -59 140 -156 140c-49 0 -101 -10 -153 -27l-37 6l117 367h339l-8 -43h-292l-93 -279c47 13 96 20 141 20c122 0 196 -70 196 -178c0 -160 -134 -270 -300 -270z" />
    <glyph glyph-name="six.tf" 
d="M345 445c116 0 189 -69 189 -179c0 -154 -120 -276 -278 -276c-123 0 -197 70 -197 181c0 74 32 147 80 203l310 366h59l-271 -315c32 13 68 20 108 20zM264 33c127 0 215 104 215 227c0 88 -57 144 -150 144c-126 0 -215 -104 -215 -227c0 -88 56 -144 150 -144z" />
    <glyph glyph-name="seven.tf" 
d="M150 740h457l-401 -740h-56l379 697h-387z" />
    <glyph glyph-name="eight.tf" 
d="M408 383c73 -23 115 -78 115 -153c0 -142 -119 -240 -269 -240c-126 0 -202 66 -202 168c0 114 76 197 182 226c-62 24 -98 74 -98 141c0 134 109 225 246 225c115 0 185 -62 185 -157c0 -104 -66 -180 -159 -210zM189 523c0 -73 50 -118 134 -118c110 0 190 82 190 183
c0 72 -50 119 -135 119c-108 0 -189 -82 -189 -184zM258 33c121 0 212 86 212 198c0 79 -58 130 -153 130c-119 0 -212 -87 -212 -198c0 -80 58 -130 153 -130z" />
    <glyph glyph-name="nine.tf" 
d="M380 750c123 0 197 -70 197 -181c0 -74 -32 -147 -80 -203l-310 -366h-59l271 315c-32 -13 -68 -20 -108 -20c-116 0 -189 69 -189 179c0 154 120 276 278 276zM307 336c126 0 215 104 215 227c0 88 -56 144 -150 144c-127 0 -215 -104 -215 -227c0 -88 57 -144 150 -144
z" />
    <glyph glyph-name="zero.tosf" 
d="M254 -10c-116 0 -184 90 -184 233c0 197 112 412 292 412c114 0 182 -91 182 -233c0 -197 -112 -412 -290 -412zM259 32c146 0 235 208 235 371c0 117 -50 190 -136 190c-145 0 -236 -202 -236 -370c0 -118 49 -191 137 -191z" />
    <glyph glyph-name="one.tosf" 
d="M318 41h174l-7 -41h-431l7 41h209l92 518l-168 -108l-19 36l210 138h36z" />
    <glyph glyph-name="two.tosf" 
d="M28 0l6 34l270 185c90 61 198 140 198 252c0 74 -53 122 -143 122c-102 0 -183 -66 -199 -162l-48 8c21 118 120 196 251 196c116 0 188 -62 188 -158c0 -132 -117 -219 -224 -291l-218 -145h379l-7 -41h-453z" />
    <glyph glyph-name="three.tosf" 
d="M570 625l-6 -34l-326 -286c20 4 40 5 60 5c124 0 200 -67 200 -169c0 -151 -126 -251 -285 -251c-92 0 -165 31 -196 88l25 35c31 -56 89 -81 169 -81c132 0 238 87 238 204c0 82 -66 135 -173 135c-42 0 -85 -10 -122 -28l-11 28l351 313h-346l7 41h415z" />
    <glyph glyph-name="four.tosf" 
d="M336 -110l19 110h-365l6 37l474 588h43l-103 -584h116l-7 -41h-116l-19 -110h-48zM53 40h310l88 495z" />
    <glyph glyph-name="five.tosf" 
d="M205 -110c-92 0 -160 24 -200 72l19 35c40 -46 106 -65 180 -65c138 0 245 91 245 216c0 85 -57 139 -155 139c-49 0 -103 -11 -155 -28l-35 6l113 360h340l-7 -41h-297l-91 -275c48 13 98 20 144 20c120 0 194 -69 194 -174c0 -157 -132 -265 -295 -265z" />
    <glyph glyph-name="six.tosf" 
d="M344 445c116 0 186 -69 186 -177c0 -155 -117 -278 -274 -278c-121 0 -195 69 -195 178c0 73 32 151 81 205l310 367h56l-272 -316c33 14 69 21 108 21zM263 33c127 0 215 104 215 227c0 88 -56 144 -149 144c-126 0 -216 -104 -216 -227c0 -88 56 -144 150 -144z" />
    <glyph glyph-name="seven.tosf" 
d="M134 625h457l-392 -729l-45 13l364 675h-391z" />
    <glyph glyph-name="eight.tosf" 
d="M406 383c72 -23 113 -78 113 -153c0 -141 -117 -240 -266 -240c-124 0 -199 66 -199 167c0 114 75 198 180 228c-61 23 -95 73 -95 139c0 133 106 226 243 226c112 0 181 -62 181 -157c0 -102 -65 -180 -157 -210zM188 523c0 -73 50 -118 134 -118c110 0 190 82 190 183
c0 72 -50 119 -135 119c-108 0 -189 -82 -189 -184zM258 33c120 0 211 86 211 198c0 79 -57 130 -152 130c-120 0 -213 -86 -213 -198c0 -80 58 -130 154 -130z" />
    <glyph glyph-name="nine.tosf" 
d="M359 635c120 0 195 -69 195 -178c0 -72 -32 -151 -80 -206l-302 -355l-44 13l253 295c-34 -16 -71 -25 -111 -25c-116 0 -186 69 -186 177c0 155 117 279 275 279zM286 220c127 0 215 105 215 228c0 88 -56 143 -149 143c-128 0 -216 -102 -216 -224
c0 -89 56 -147 150 -147z" />
    <glyph glyph-name="uni2080" unicode="&#x2080;" horiz-adv-x="380" 
d="M122 -106c-76 0 -121 63 -121 163c0 141 78 293 198 293c77 0 123 -63 123 -162c0 -143 -79 -294 -200 -294zM127 -73c96 0 156 144 156 261c0 80 -32 129 -88 129c-96 0 -156 -143 -156 -261c0 -80 32 -129 88 -129z" />
    <glyph glyph-name="uni2081" unicode="&#x2081;" horiz-adv-x="251" 
d="M71 -100l70 393l-131 -84l-15 28l164 107h30l-79 -444h-39z" />
    <glyph glyph-name="uni2082" unicode="&#x2082;" horiz-adv-x="344" 
d="M-40 -100l5 25l162 146c52 48 124 108 124 180c0 42 -29 66 -78 66c-58 0 -102 -37 -111 -92l-40 6c14 72 74 119 153 119c71 0 116 -36 116 -95c0 -84 -79 -154 -145 -211l-127 -112l223 1l-6 -33h-276z" />
    <glyph glyph-name="uni2083" unicode="&#x2083;" horiz-adv-x="345" 
d="M301 344l-5 -24l-186 -168c9 1 18 1 27 1c77 0 123 -41 123 -105c0 -92 -78 -154 -176 -154c-56 0 -100 19 -120 52l19 27c19 -32 54 -46 102 -46c75 0 135 49 135 118c0 48 -37 78 -98 78c-26 0 -51 -6 -73 -15l-8 20l199 183h-196l6 33h251z" />
    <glyph glyph-name="uni2084" unicode="&#x2084;" horiz-adv-x="371" 
d="M167 -100l18 98h-223l5 29l284 317h33l-55 -313h68l-6 -33h-68l-17 -98h-39zM10 29h181l44 250z" />
    <glyph glyph-name="uni2085" unicode="&#x2085;" horiz-adv-x="349" 
d="M83 -106c-55 0 -97 14 -121 43l15 27c23 -26 62 -37 106 -37c80 0 144 54 144 126c0 49 -34 80 -89 80c-30 0 -61 -7 -89 -17l-27 4l70 224h207l-6 -33h-172l-53 -157c27 8 54 11 79 11c74 0 120 -42 120 -107c0 -97 -83 -164 -184 -164z" />
    <glyph glyph-name="uni2086" unicode="&#x2086;" horiz-adv-x="345" 
d="M157 168c69 0 113 -42 113 -108c0 -93 -72 -166 -168 -166c-76 0 -121 42 -121 109c0 48 23 93 53 127l180 214h44l-160 -185c18 6 37 9 59 9zM108 -73c73 0 122 61 122 129c0 50 -32 82 -85 82c-71 0 -123 -58 -123 -129c0 -51 32 -82 86 -82z" />
    <glyph glyph-name="uni2087" unicode="&#x2087;" horiz-adv-x="308" 
d="M18 344h278l-239 -444h-41l222 411h-225z" />
    <glyph glyph-name="uni2088" unicode="&#x2088;" horiz-adv-x="365" 
d="M208 130c42 -16 66 -48 66 -92c0 -85 -73 -144 -163 -144c-77 0 -124 40 -124 102c0 67 44 116 105 135c-35 15 -55 45 -55 84c0 80 66 135 150 135c70 0 113 -38 113 -96c0 -60 -38 -105 -92 -124zM184 317c-62 0 -108 -46 -108 -104c0 -42 29 -67 76 -67
c62 0 108 47 108 105c0 40 -29 66 -76 66zM113 -73c69 0 122 49 122 113c0 45 -34 74 -87 74c-69 0 -121 -51 -121 -114c0 -45 32 -73 86 -73z" />
    <glyph glyph-name="uni2089" unicode="&#x2089;" horiz-adv-x="345" 
d="M177 350c76 0 121 -42 121 -109c0 -48 -23 -93 -53 -127l-180 -214h-44l160 185c-18 -6 -37 -9 -59 -9c-69 0 -113 42 -113 108c0 93 72 166 168 166zM134 106c71 0 123 58 123 129c0 51 -32 82 -86 82c-73 0 -122 -61 -122 -129c0 -50 32 -82 85 -82z" />
    <glyph glyph-name="zero.dnom" horiz-adv-x="380" 
d="M140 -6c-76 0 -121 63 -121 163c0 141 78 293 198 293c77 0 123 -63 123 -162c0 -143 -79 -294 -200 -294zM145 27c96 0 156 144 156 261c0 80 -32 129 -88 129c-96 0 -156 -143 -156 -261c0 -80 32 -129 88 -129z" />
    <glyph glyph-name="one.dnom" horiz-adv-x="251" 
d="M89 0l70 393l-131 -84l-15 28l164 107h30l-79 -444h-39z" />
    <glyph glyph-name="two.dnom" horiz-adv-x="344" 
d="M-22 0l5 25l162 146c52 48 124 108 124 180c0 42 -29 66 -78 66c-58 0 -102 -37 -111 -92l-40 6c14 72 74 119 153 119c71 0 116 -36 116 -95c0 -84 -79 -154 -145 -211l-127 -112l223 1l-6 -33h-276z" />
    <glyph glyph-name="three.dnom" horiz-adv-x="345" 
d="M319 444l-5 -24l-186 -168c9 1 18 1 27 1c77 0 123 -41 123 -105c0 -92 -78 -154 -176 -154c-56 0 -100 19 -120 52l19 27c19 -32 54 -46 102 -46c75 0 135 49 135 118c0 48 -37 78 -98 78c-26 0 -51 -6 -73 -15l-8 20l199 183h-196l6 33h251z" />
    <glyph glyph-name="four.dnom" horiz-adv-x="371" 
d="M185 0l18 98h-223l5 29l284 317h33l-55 -313h68l-6 -33h-68l-17 -98h-39zM28 129h181l44 250z" />
    <glyph glyph-name="five.dnom" horiz-adv-x="349" 
d="M101 -6c-55 0 -97 14 -121 43l15 27c23 -26 62 -37 106 -37c80 0 144 54 144 126c0 49 -34 80 -89 80c-30 0 -61 -7 -89 -17l-27 4l70 224h207l-6 -33h-172l-53 -157c27 8 54 11 79 11c74 0 120 -42 120 -107c0 -97 -83 -164 -184 -164z" />
    <glyph glyph-name="six.dnom" horiz-adv-x="345" 
d="M175 268c69 0 113 -42 113 -108c0 -93 -72 -166 -168 -166c-76 0 -121 42 -121 109c0 48 23 93 53 127l180 214h44l-160 -185c18 6 37 9 59 9zM126 27c73 0 122 61 122 129c0 50 -32 82 -85 82c-71 0 -123 -58 -123 -129c0 -51 32 -82 86 -82z" />
    <glyph glyph-name="seven.dnom" horiz-adv-x="308" 
d="M36 444h278l-239 -444h-41l222 411h-225z" />
    <glyph glyph-name="eight.dnom" horiz-adv-x="365" 
d="M226 230c42 -16 66 -48 66 -92c0 -85 -73 -144 -163 -144c-77 0 -124 40 -124 102c0 67 44 116 105 135c-35 15 -55 45 -55 84c0 80 66 135 150 135c70 0 113 -38 113 -96c0 -60 -38 -105 -92 -124zM202 417c-62 0 -108 -46 -108 -104c0 -42 29 -67 76 -67
c62 0 108 47 108 105c0 40 -29 66 -76 66zM131 27c69 0 122 49 122 113c0 45 -34 74 -87 74c-69 0 -121 -51 -121 -114c0 -45 32 -73 86 -73z" />
    <glyph glyph-name="nine.dnom" horiz-adv-x="345" 
d="M195 450c76 0 121 -42 121 -109c0 -48 -23 -93 -53 -127l-180 -214h-44l160 185c-18 -6 -37 -9 -59 -9c-69 0 -113 42 -113 108c0 93 72 166 168 166zM152 206c71 0 123 58 123 129c0 51 -32 82 -86 82c-73 0 -122 -61 -122 -129c0 -50 32 -82 85 -82z" />
    <glyph glyph-name="zero.numr" horiz-adv-x="380" 
d="M192 290c-76 0 -121 63 -121 163c0 141 78 293 198 293c77 0 123 -63 123 -162c0 -143 -79 -294 -200 -294zM197 323c96 0 156 144 156 261c0 80 -32 129 -88 129c-96 0 -156 -143 -156 -261c0 -80 32 -129 88 -129z" />
    <glyph glyph-name="one.numr" horiz-adv-x="251" 
d="M141 296l70 393l-131 -84l-15 28l164 107h30l-79 -444h-39z" />
    <glyph glyph-name="two.numr" horiz-adv-x="344" 
d="M30 296l5 25l162 146c52 48 124 108 124 180c0 42 -29 66 -78 66c-58 0 -102 -37 -111 -92l-40 6c14 72 74 119 153 119c71 0 116 -36 116 -95c0 -84 -79 -154 -145 -211l-127 -112l223 1l-6 -33h-276z" />
    <glyph glyph-name="three.numr" horiz-adv-x="345" 
d="M371 740l-5 -24l-186 -168c9 1 18 1 27 1c77 0 123 -41 123 -105c0 -92 -78 -154 -176 -154c-56 0 -100 19 -120 52l19 27c19 -32 54 -46 102 -46c75 0 135 49 135 118c0 48 -37 78 -98 78c-26 0 -51 -6 -73 -15l-8 20l199 183h-196l6 33h251z" />
    <glyph glyph-name="four.numr" horiz-adv-x="371" 
d="M237 296l18 98h-223l5 29l284 317h33l-55 -313h68l-6 -33h-68l-17 -98h-39zM80 425h181l44 250z" />
    <glyph glyph-name="five.numr" horiz-adv-x="349" 
d="M153 290c-55 0 -97 14 -121 43l15 27c23 -26 62 -37 106 -37c80 0 144 54 144 126c0 49 -34 80 -89 80c-30 0 -61 -7 -89 -17l-27 4l70 224h207l-6 -33h-172l-53 -157c27 8 54 11 79 11c74 0 120 -42 120 -107c0 -97 -83 -164 -184 -164z" />
    <glyph glyph-name="six.numr" horiz-adv-x="345" 
d="M227 564c69 0 113 -42 113 -108c0 -93 -72 -166 -168 -166c-76 0 -121 42 -121 109c0 48 23 93 53 127l180 214h44l-160 -185c18 6 37 9 59 9zM178 323c73 0 122 61 122 129c0 50 -32 82 -85 82c-71 0 -123 -58 -123 -129c0 -51 32 -82 86 -82z" />
    <glyph glyph-name="seven.numr" horiz-adv-x="308" 
d="M88 740h278l-239 -444h-41l222 411h-225z" />
    <glyph glyph-name="eight.numr" horiz-adv-x="365" 
d="M278 526c42 -16 66 -48 66 -92c0 -85 -73 -144 -163 -144c-77 0 -124 40 -124 102c0 67 44 116 105 135c-35 15 -55 45 -55 84c0 80 66 135 150 135c70 0 113 -38 113 -96c0 -60 -38 -105 -92 -124zM254 713c-62 0 -108 -46 -108 -104c0 -42 29 -67 76 -67
c62 0 108 47 108 105c0 40 -29 66 -76 66zM183 323c69 0 122 49 122 113c0 45 -34 74 -87 74c-69 0 -121 -51 -121 -114c0 -45 32 -73 86 -73z" />
    <glyph glyph-name="nine.numr" horiz-adv-x="345" 
d="M247 746c76 0 121 -42 121 -109c0 -48 -23 -93 -53 -127l-180 -214h-44l160 185c-18 -6 -37 -9 -59 -9c-69 0 -113 42 -113 108c0 93 72 166 168 166zM204 502c71 0 123 58 123 129c0 51 -32 82 -86 82c-73 0 -122 -61 -122 -129c0 -50 32 -82 85 -82z" />
    <glyph glyph-name="uni2070" unicode="&#x2070;" horiz-adv-x="380" 
d="M210 390c-76 0 -121 63 -121 163c0 141 78 293 198 293c77 0 123 -63 123 -162c0 -143 -79 -294 -200 -294zM215 423c96 0 156 144 156 261c0 80 -32 129 -88 129c-96 0 -156 -143 -156 -261c0 -80 32 -129 88 -129z" />
    <glyph glyph-name="uni00B9" unicode="&#xb9;" horiz-adv-x="251" 
d="M159 396l70 393l-131 -84l-15 28l164 107h30l-79 -444h-39z" />
    <glyph glyph-name="uni00B2" unicode="&#xb2;" horiz-adv-x="344" 
d="M48 396l5 25l162 146c52 48 124 108 124 180c0 42 -29 66 -78 66c-58 0 -102 -37 -111 -92l-40 6c14 72 74 119 153 119c71 0 116 -36 116 -95c0 -84 -79 -154 -145 -211l-127 -112l223 1l-6 -33h-276z" />
    <glyph glyph-name="uni00B3" unicode="&#xb3;" horiz-adv-x="345" 
d="M389 840l-5 -24l-186 -168c9 1 18 1 27 1c77 0 123 -41 123 -105c0 -92 -78 -154 -176 -154c-56 0 -100 19 -120 52l19 27c19 -32 54 -46 102 -46c75 0 135 49 135 118c0 48 -37 78 -98 78c-26 0 -51 -6 -73 -15l-8 20l199 183h-196l6 33h251z" />
    <glyph glyph-name="uni2074" unicode="&#x2074;" horiz-adv-x="371" 
d="M255 396l18 98h-223l5 29l284 317h33l-55 -313h68l-6 -33h-68l-17 -98h-39zM98 525h181l44 250z" />
    <glyph glyph-name="uni2075" unicode="&#x2075;" horiz-adv-x="349" 
d="M171 390c-55 0 -97 14 -121 43l15 27c23 -26 62 -37 106 -37c80 0 144 54 144 126c0 49 -34 80 -89 80c-30 0 -61 -7 -89 -17l-27 4l70 224h207l-6 -33h-172l-53 -157c27 8 54 11 79 11c74 0 120 -42 120 -107c0 -97 -83 -164 -184 -164z" />
    <glyph glyph-name="uni2076" unicode="&#x2076;" horiz-adv-x="345" 
d="M245 664c69 0 113 -42 113 -108c0 -93 -72 -166 -168 -166c-76 0 -121 42 -121 109c0 48 23 93 53 127l180 214h44l-160 -185c18 6 37 9 59 9zM196 423c73 0 122 61 122 129c0 50 -32 82 -85 82c-71 0 -123 -58 -123 -129c0 -51 32 -82 86 -82z" />
    <glyph glyph-name="uni2077" unicode="&#x2077;" horiz-adv-x="308" 
d="M106 840h278l-239 -444h-41l222 411h-225z" />
    <glyph glyph-name="uni2078" unicode="&#x2078;" horiz-adv-x="365" 
d="M296 626c42 -16 66 -48 66 -92c0 -85 -73 -144 -163 -144c-77 0 -124 40 -124 102c0 67 44 116 105 135c-35 15 -55 45 -55 84c0 80 66 135 150 135c70 0 113 -38 113 -96c0 -60 -38 -105 -92 -124zM272 813c-62 0 -108 -46 -108 -104c0 -42 29 -67 76 -67
c62 0 108 47 108 105c0 40 -29 66 -76 66zM201 423c69 0 122 49 122 113c0 45 -34 74 -87 74c-69 0 -121 -51 -121 -114c0 -45 32 -73 86 -73z" />
    <glyph glyph-name="uni2079" unicode="&#x2079;" horiz-adv-x="345" 
d="M265 846c76 0 121 -42 121 -109c0 -48 -23 -93 -53 -127l-180 -214h-44l160 185c-18 -6 -37 -9 -59 -9c-69 0 -113 42 -113 108c0 93 72 166 168 166zM222 602c71 0 123 58 123 129c0 51 -32 82 -86 82c-73 0 -122 -61 -122 -129c0 -50 32 -82 85 -82z" />
    <glyph glyph-name="fraction" unicode="&#x2044;" horiz-adv-x="187" 
d="M-166 -10l-28 20l564 740l29 -20z" />
    <glyph glyph-name="onehalf" unicode="&#xbd;" horiz-adv-x="782" 
d="M85 -10l-28 20l564 740l29 -20zM141 296l70 393l-131 -84l-15 28l164 107h30l-79 -444h-39zM416 0l5 25l162 146c52 48 124 108 124 180c0 42 -29 66 -78 66c-58 0 -102 -37 -111 -92l-40 6c14 72 74 119 153 119c71 0 116 -36 116 -95c0 -84 -79 -154 -145 -211
l-127 -112l223 1l-6 -33h-276z" />
    <glyph glyph-name="onequarter" unicode="&#xbc;" horiz-adv-x="778" 
d="M85 -10l-28 20l564 740l29 -20zM141 296l70 393l-131 -84l-15 28l164 107h30l-79 -444h-39zM592 0l18 98h-223l5 29l284 317h33l-55 -313h68l-6 -33h-68l-17 -98h-39zM435 129h181l44 250z" />
    <glyph glyph-name="threequarters" unicode="&#xbe;" horiz-adv-x="872" 
d="M715 750l29 -20l-565 -740l-28 20zM330 444c0 -92 -78 -154 -176 -154c-56 0 -100 19 -120 52l19 27c19 -32 54 -46 102 -46c75 0 135 49 135 118c0 48 -37 78 -98 78c-26 0 -51 -6 -73 -15l-8 20l199 183h-196l6 33h251l-5 -24l-186 -168c9 1 18 1 27 1
c77 0 123 -41 123 -105zM748 131h68l-6 -33h-68l-17 -98h-39l18 98h-223l5 29l284 317h33zM710 129l44 250l-225 -250h181z" />
    <glyph glyph-name="oneeighth" unicode="&#x215b;" horiz-adv-x="803" 
d="M621 750l29 -20l-565 -740l-28 20zM211 689l-131 -84l-15 28l164 107h30l-79 -444h-39zM664 230c42 -16 66 -48 66 -92c0 -85 -73 -144 -163 -144c-77 0 -124 40 -124 102c0 67 44 116 105 135c-35 15 -55 45 -55 84c0 80 66 135 150 135c70 0 113 -38 113 -96
c0 -60 -38 -105 -92 -124zM640 417c-62 0 -108 -46 -108 -104c0 -42 29 -67 76 -67c62 0 108 47 108 105c0 40 -29 66 -76 66zM569 27c69 0 122 49 122 113c0 45 -34 74 -87 74c-69 0 -121 -51 -121 -114c0 -45 32 -73 86 -73z" />
    <glyph glyph-name="threeeighths" unicode="&#x215c;" horiz-adv-x="897" 
d="M715 750l29 -20l-565 -740l-28 20zM330 444c0 -92 -78 -154 -176 -154c-56 0 -100 19 -120 52l19 27c19 -32 54 -46 102 -46c75 0 135 49 135 118c0 48 -37 78 -98 78c-26 0 -51 -6 -73 -15l-8 20l199 183h-196l6 33h251l-5 -24l-186 -168c9 1 18 1 27 1
c77 0 123 -41 123 -105zM758 230c42 -16 66 -48 66 -92c0 -85 -73 -144 -163 -144c-77 0 -124 40 -124 102c0 67 44 116 105 135c-35 15 -55 45 -55 84c0 80 66 135 150 135c70 0 113 -38 113 -96c0 -60 -38 -105 -92 -124zM734 417c-62 0 -108 -46 -108 -104
c0 -42 29 -67 76 -67c62 0 108 47 108 105c0 40 -29 66 -76 66zM663 27c69 0 122 49 122 113c0 45 -34 74 -87 74c-69 0 -121 -51 -121 -114c0 -45 32 -73 86 -73z" />
    <glyph glyph-name="fiveeighths" unicode="&#x215d;" horiz-adv-x="901" 
d="M719 750l29 -20l-565 -740l-28 20zM337 454c0 -97 -83 -164 -184 -164c-55 0 -97 14 -121 43l15 27c23 -26 62 -37 106 -37c80 0 144 54 144 126c0 49 -34 80 -89 80c-30 0 -61 -7 -89 -17l-27 4l70 224h207l-6 -33h-172l-53 -157c27 8 54 11 79 11
c74 0 120 -42 120 -107zM762 230c42 -16 66 -48 66 -92c0 -85 -73 -144 -163 -144c-77 0 -124 40 -124 102c0 67 44 116 105 135c-35 15 -55 45 -55 84c0 80 66 135 150 135c70 0 113 -38 113 -96c0 -60 -38 -105 -92 -124zM738 417c-62 0 -108 -46 -108 -104
c0 -42 29 -67 76 -67c62 0 108 47 108 105c0 40 -29 66 -76 66zM667 27c69 0 122 49 122 113c0 45 -34 74 -87 74c-69 0 -121 -51 -121 -114c0 -45 32 -73 86 -73z" />
    <glyph glyph-name="seveneighths" unicode="&#x215e;" horiz-adv-x="834" 
d="M652 750l29 -20l-565 -740l-28 20zM127 296h-41l222 411h-225l5 33h278zM695 230c42 -16 66 -48 66 -92c0 -85 -73 -144 -163 -144c-77 0 -124 40 -124 102c0 67 44 116 105 135c-35 15 -55 45 -55 84c0 80 66 135 150 135c70 0 113 -38 113 -96c0 -60 -38 -105 -92 -124
zM671 417c-62 0 -108 -46 -108 -104c0 -42 29 -67 76 -67c62 0 108 47 108 105c0 40 -29 66 -76 66zM600 27c69 0 122 49 122 113c0 45 -34 74 -87 74c-69 0 -121 -51 -121 -114c0 -45 32 -73 86 -73z" />
    <glyph glyph-name="uni2081.ss02" horiz-adv-x="203" 
d="M24 -100l72 411h-83l6 33h121l-78 -444h-38z" />
    <glyph glyph-name="one.dnom.ss02" horiz-adv-x="203" 
d="M42 0l72 411h-83l6 33h121l-78 -444h-38z" />
    <glyph glyph-name="one.numr.ss02" horiz-adv-x="203" 
d="M94 296l72 411h-83l6 33h121l-78 -444h-38z" />
    <glyph glyph-name="uni00B9.ss02" horiz-adv-x="203" 
d="M112 396l72 411h-83l6 33h121l-78 -444h-38z" />
    <glyph glyph-name="onehalf.ss02" horiz-adv-x="734" 
d="M37 -10l-28 20l564 740l29 -20zM94 296l72 411h-83l6 33h121l-78 -444h-38zM368 0l5 25l162 146c52 48 124 108 124 180c0 42 -29 66 -78 66c-58 0 -102 -37 -111 -92l-40 6c14 72 74 119 153 119c71 0 116 -36 116 -95c0 -84 -79 -154 -145 -211l-127 -112l223 1l-6 -33
h-276z" />
    <glyph glyph-name="onequarter.ss02" horiz-adv-x="730" 
d="M37 -10l-28 20l564 740l29 -20zM94 296l72 411h-83l6 33h121l-78 -444h-38zM544 0l18 98h-223l5 29l284 317h33l-55 -313h68l-6 -33h-68l-17 -98h-39zM387 129h181l44 250z" />
    <glyph glyph-name="oneeighth.ss02" horiz-adv-x="755" 
d="M573 750l29 -20l-565 -740l-28 20zM94 296l72 411h-83l6 33h121l-78 -444h-38zM616 230c42 -16 66 -48 66 -92c0 -85 -73 -144 -163 -144c-77 0 -124 40 -124 102c0 67 44 116 105 135c-35 15 -55 45 -55 84c0 80 66 135 150 135c70 0 113 -38 113 -96
c0 -60 -38 -105 -92 -124zM592 417c-62 0 -108 -46 -108 -104c0 -42 29 -67 76 -67c62 0 108 47 108 105c0 40 -29 66 -76 66zM521 27c69 0 122 49 122 113c0 45 -34 74 -87 74c-69 0 -121 -51 -121 -114c0 -45 32 -73 86 -73z" />
    <glyph glyph-name="asterisk" unicode="*" horiz-adv-x="386" 
d="M380 628l-113 -32l53 -89l-34 -22l-49 91l-78 -91l-28 22l83 90l-102 31l18 37l100 -37l17 112h39l-23 -112l112 37z" />
    <glyph glyph-name="backslash" unicode="\" horiz-adv-x="375" 
d="M210 -100l-84 880h49l84 -880h-49z" />
    <glyph glyph-name="periodcentered" unicode="&#xb7;" horiz-adv-x="225" 
d="M104 246c-22 0 -37 17 -37 38c0 25 20 44 45 44c22 0 37 -17 37 -38c0 -24 -21 -44 -45 -44z" />
    <glyph glyph-name="bullet" unicode="&#x2022;" horiz-adv-x="351" 
d="M168 242c-44 0 -73 28 -73 71c0 51 37 89 89 89c44 0 73 -28 73 -71c0 -51 -37 -89 -89 -89z" />
    <glyph glyph-name="colon" unicode=":" horiz-adv-x="227" 
d="M141 452c-22 0 -37 17 -37 39c0 24 21 44 46 44c22 0 37 -17 37 -39c0 -24 -21 -44 -46 -44zM60 -10c-22 0 -37 17 -37 38c0 25 21 44 45 44c22 0 37 -17 37 -38c0 -24 -20 -44 -45 -44z" />
    <glyph glyph-name="comma" unicode="," horiz-adv-x="209" 
d="M-63 -145l105 208h59l-114 -208h-50z" />
    <glyph glyph-name="ellipsis" unicode="&#x2026;" horiz-adv-x="573" 
d="M54 -10c-22 0 -37 17 -37 38c0 25 20 44 45 44c22 0 37 -17 37 -38c0 -24 -20 -44 -45 -44zM237 -10c-22 0 -37 17 -37 38c0 25 21 44 46 44c22 0 37 -17 37 -38c0 -24 -21 -44 -46 -44zM421 -10c-23 0 -37 17 -37 38c0 25 20 44 45 44c22 0 37 -17 37 -38
c0 -24 -21 -44 -45 -44z" />
    <glyph glyph-name="exclam" unicode="!" horiz-adv-x="246" 
d="M71 144l101 596h53l-111 -596h-43zM69 -10c-19 0 -33 14 -33 33c0 23 18 39 39 39c20 0 33 -14 33 -33c0 -23 -17 -39 -39 -39z" />
    <glyph glyph-name="exclamdown" unicode="&#xa1;" horiz-adv-x="235" 
d="M148 462c-20 0 -34 14 -34 34c0 22 18 39 40 39c19 0 33 -14 33 -34c0 -22 -18 -39 -39 -39zM-3 -220l111 601h44l-102 -601h-53z" />
    <glyph glyph-name="numbersign" unicode="#" horiz-adv-x="666" 
d="M644 450h-122l-83 -204h123l-15 -36h-123l-86 -210h-40l86 210h-204l-86 -210h-40l86 210h-121l15 36h121l83 204h-122l15 36h122l87 214h40l-87 -214h204l87 214h40l-87 -214h122zM399 246l83 204h-204l-83 -204h204z" />
    <glyph glyph-name="period" unicode="." horiz-adv-x="207" 
d="M54 -10c-22 0 -37 17 -37 38c0 25 20 44 45 44c22 0 37 -17 37 -38c0 -24 -20 -44 -45 -44z" />
    <glyph glyph-name="question" unicode="?" horiz-adv-x="513" 
d="M236 142l-42 4c33 184 107 240 171 286c59 44 99 81 99 158c0 72 -53 117 -142 117c-97 0 -175 -60 -193 -149l-49 6c24 113 122 186 246 186c118 0 192 -61 192 -155c0 -93 -46 -139 -117 -191c-65 -48 -137 -100 -165 -262zM191 -10c-19 0 -33 14 -33 33
c0 23 18 39 39 39c19 0 33 -14 33 -33c0 -23 -17 -39 -39 -39z" />
    <glyph glyph-name="questiondown" unicode="&#xbf;" horiz-adv-x="504" 
d="M293 462c-19 0 -33 14 -33 34c0 22 18 39 40 39c19 0 33 -14 33 -34c0 -22 -18 -39 -40 -39zM164 -230c-119 0 -192 61 -192 155c0 93 46 139 117 191c65 48 137 102 165 267l43 -4c-33 -186 -107 -243 -173 -291c-59 -44 -98 -81 -98 -158c0 -72 52 -117 142 -117
c96 0 175 61 193 149l48 -6c-24 -113 -121 -186 -245 -186z" />
    <glyph glyph-name="quotedbl" unicode="&#x22;" horiz-adv-x="311" 
d="M115 564l36 216h45l-39 -216h-42zM241 564l36 216h45l-40 -216h-41z" />
    <glyph glyph-name="quotesingle" unicode="'" horiz-adv-x="185" 
d="M115 564l36 216h45l-39 -216h-42z" />
    <glyph glyph-name="semicolon" unicode=";" horiz-adv-x="279" 
d="M173 452c-22 0 -37 17 -37 39c0 24 20 44 45 44c22 0 37 -17 37 -39c0 -24 -20 -44 -45 -44zM-22 -145l105 208h60l-115 -208h-50z" />
    <glyph glyph-name="slash" unicode="/" horiz-adv-x="384" 
d="M-25 -100l394 880h50l-394 -880h-50z" />
    <glyph glyph-name="underscore" unicode="_" horiz-adv-x="502" 
d="M-36 -37l6 37h451l-6 -37h-451z" />
    <glyph glyph-name="exclamdown.case" horiz-adv-x="257" 
d="M203 750c19 0 33 -14 33 -33c0 -23 -18 -39 -39 -39c-20 0 -33 14 -33 33c0 23 17 39 39 39zM201 596l-101 -596h-53l111 596h43z" />
    <glyph glyph-name="questiondown.case" horiz-adv-x="512" 
d="M341 750c19 0 33 -14 33 -33c0 -23 -18 -39 -39 -39c-19 0 -33 14 -33 33c0 23 17 39 39 39zM296 598l42 -4c-33 -184 -107 -240 -171 -286c-59 -44 -99 -81 -99 -158c0 -72 53 -117 142 -117c97 0 175 60 193 149l49 -6c-24 -113 -122 -186 -246 -186
c-118 0 -192 61 -192 155c0 93 46 139 117 191c65 48 137 100 165 262z" />
    <glyph glyph-name="slash.case" horiz-adv-x="353" 
d="M-4 0l332 740h49l-332 -740h-49z" />
    <glyph glyph-name="braceleft" unicode="{" horiz-adv-x="377" 
d="M168 -190c-67 0 -108 42 -108 108c0 11 1 21 3 32l35 199c4 19 5 35 5 49c0 57 -25 80 -66 80h-11l8 44h9c51 0 94 52 108 130l36 202c15 83 73 136 150 136c38 0 67 -4 96 -12l-8 -42c-27 7 -51 11 -80 11c-54 0 -98 -43 -109 -108l-35 -196c-13 -74 -52 -130 -100 -143
c34 -11 53 -45 53 -98c0 -15 -1 -31 -4 -49l-34 -196c-2 -9 -3 -18 -3 -28c0 -46 25 -76 69 -76c33 0 59 4 89 11l-7 -42c-32 -8 -61 -12 -96 -12z" />
    <glyph glyph-name="braceright" unicode="}" horiz-adv-x="377" 
d="M204 790c67 0 108 -42 108 -108c0 -11 -1 -21 -3 -32l-35 -199c-4 -19 -5 -35 -5 -49c0 -57 25 -80 66 -80h11l-8 -44h-9c-51 0 -94 -52 -108 -130l-36 -202c-15 -83 -73 -136 -150 -136c-38 0 -67 4 -96 12l8 42c27 -7 51 -11 80 -11c54 0 98 43 109 108l35 196
c13 74 52 130 100 143c-34 11 -53 45 -53 98c0 15 1 31 4 49l34 196c2 9 3 18 3 28c0 46 -25 76 -69 76c-33 0 -59 -4 -89 -11l7 42c32 8 61 12 96 12z" />
    <glyph glyph-name="bracketleft" unicode="[" horiz-adv-x="340" 
d="M13 -180l169 960h216l-7 -42h-167l-155 -876h167l-7 -42h-216z" />
    <glyph glyph-name="bracketright" unicode="]" horiz-adv-x="340" 
d="M323 780l-169 -960h-216l7 42h167l155 876h-167l7 42h216z" />
    <glyph glyph-name="parenleft" unicode="(" horiz-adv-x="275" 
d="M116 -180c-31 68 -76 188 -76 343c0 233 104 445 245 617h44c-138 -184 -238 -384 -238 -634c0 -159 47 -272 68 -326h-43z" />
    <glyph glyph-name="parenright" unicode=")" horiz-adv-x="274" 
d="M-59 -180c138 186 238 384 238 634c0 160 -46 272 -67 326h42c32 -68 76 -188 76 -343c0 -233 -103 -446 -245 -617h-44z" />
    <glyph glyph-name="braceleft.case" horiz-adv-x="396" 
d="M200 -50c-67 0 -108 43 -108 108c0 11 1 21 3 32l22 129c4 19 5 35 5 49c0 57 -25 80 -66 80h-11l8 44h9c51 0 94 52 108 130l24 132c15 84 73 136 150 136c38 0 67 -4 95 -12l-8 -42c-27 7 -50 11 -80 11c-54 0 -97 -41 -109 -108l-21 -126c-13 -74 -52 -130 -101 -143
c34 -11 54 -45 54 -98c0 -15 -2 -31 -5 -49l-21 -126c-2 -9 -3 -18 -3 -28c0 -46 26 -76 70 -76c33 0 59 4 89 11l-8 -42c-32 -8 -60 -12 -96 -12z" />
    <glyph glyph-name="braceright.case" horiz-adv-x="396" 
d="M216 790c67 0 108 -43 108 -108c0 -11 -1 -21 -3 -32l-22 -129c-4 -19 -5 -35 -5 -49c0 -57 25 -80 66 -80h11l-8 -44h-9c-51 0 -94 -52 -108 -130l-24 -132c-15 -84 -73 -136 -150 -136c-38 0 -67 4 -95 12l8 42c27 -7 50 -11 80 -11c54 0 97 41 109 108l21 126
c13 74 52 130 101 143c-34 11 -54 45 -54 98c0 15 2 31 5 49l21 126c2 9 3 18 3 28c0 46 -26 76 -70 76c-33 0 -59 -4 -89 -11l8 42c32 8 60 12 96 12z" />
    <glyph glyph-name="bracketleft.case" horiz-adv-x="359" 
d="M43 -40l145 820h216l-7 -42h-166l-131 -736h167l-8 -42h-216z" />
    <glyph glyph-name="bracketright.case" horiz-adv-x="358" 
d="M336 780l-145 -820h-216l7 42h166l131 736h-167l8 42h216z" />
    <glyph glyph-name="parenleft.case" horiz-adv-x="288" 
d="M144 -40c-40 69 -85 169 -85 303c0 204 94 373 229 517h45c-117 -130 -222 -327 -222 -510c0 -134 45 -253 76 -310h-43z" />
    <glyph glyph-name="parenright.case" horiz-adv-x="288" 
d="M-25 -40c116 130 221 328 221 510c0 134 -45 253 -75 310h42c40 -69 86 -169 86 -303c0 -204 -95 -373 -229 -517h-45z" />
    <glyph glyph-name="emdash" unicode="&#x2014;" horiz-adv-x="872" 
d="M66 268l6 37h723l-6 -37h-723z" />
    <glyph glyph-name="endash" unicode="&#x2013;" horiz-adv-x="550" 
d="M66 268l6 37h402l-6 -37h-402z" />
    <glyph glyph-name="hyphen" unicode="-" horiz-adv-x="419" 
d="M66 268l6 37h271l-7 -37h-270z" />
    <glyph glyph-name="uni00AD" unicode="&#xad;" horiz-adv-x="419" 
d="M66 268l6 37h271l-7 -37h-270z" />
    <glyph glyph-name="guillemotleft" unicode="&#xab;" horiz-adv-x="542" 
d="M176 48l-136 222l214 222h52l-211 -222l131 -222h-50zM391 48l-135 222l213 222h53l-211 -222l131 -222h-51z" />
    <glyph glyph-name="guillemotright" unicode="&#xbb;" horiz-adv-x="542" 
d="M136 492l135 -222l-213 -222h-53l211 222l-131 222h51zM351 492l136 -222l-214 -222h-52l211 222l-131 222h50z" />
    <glyph glyph-name="guilsinglleft" unicode="&#x2039;" horiz-adv-x="326" 
d="M176 48l-136 222l214 222h52l-211 -222l131 -222h-50z" />
    <glyph glyph-name="guilsinglright" unicode="&#x203a;" horiz-adv-x="327" 
d="M136 492l135 -222l-213 -222h-53l211 222l-131 222h51z" />
    <glyph glyph-name="quotedblbase" unicode="&#x201e;" horiz-adv-x="328" 
d="M-62 -140l104 204h51l-111 -204h-44zM66 -140l103 204h51l-111 -204h-43z" />
    <glyph glyph-name="quotedblleft" unicode="&#x201c;" horiz-adv-x="346" 
d="M248 739l-103 -203h-51l111 203h43zM376 739l-104 -203h-51l111 203h44z" />
    <glyph glyph-name="quotedblright" unicode="&#x201d;" horiz-adv-x="342" 
d="M94 537l104 204h51l-111 -204h-44zM222 537l103 204h51l-111 -204h-43z" />
    <glyph glyph-name="quoteleft" unicode="&#x2018;" horiz-adv-x="216" 
d="M247 740l-104 -204h-51l111 204h44z" />
    <glyph glyph-name="quoteright" unicode="&#x2019;" horiz-adv-x="214" 
d="M93 536l104 204h51l-111 -204h-44z" />
    <glyph glyph-name="quotesinglbase" unicode="&#x201a;" horiz-adv-x="201" 
d="M-62 -140l104 204h51l-111 -204h-44z" />
    <glyph glyph-name="space" unicode=" " horiz-adv-x="272" 
 />
    <glyph glyph-name="uni00A0" unicode="&#xa0;" horiz-adv-x="272" 
 />
    <glyph glyph-name="CR" unicode="&#xd;" horiz-adv-x="233" 
 />
    <glyph glyph-name=".null" horiz-adv-x="0" 
 />
    <glyph glyph-name="cent" unicode="&#xa2;" horiz-adv-x="556" 
d="M494 496c-32 30 -69 44 -116 47l-80 -461c52 4 104 24 147 62l24 -37c-50 -41 -112 -63 -179 -67l-14 -80h-46l14 81c-119 11 -190 93 -190 214c0 173 116 314 285 329l14 81h47l-14 -80c59 -4 103 -23 141 -58zM104 257c0 -97 54 -162 148 -173l79 457
c-135 -17 -227 -144 -227 -284z" />
    <glyph glyph-name="currency" unicode="&#xa4;" horiz-adv-x="597" 
d="M496 480c19 -29 29 -64 29 -102c0 -66 -29 -128 -75 -174l44 -53l-35 -31l-45 54c-42 -30 -93 -48 -146 -48s-98 18 -131 49l-64 -55l-27 30l66 55c-19 29 -30 65 -30 104c0 67 30 129 77 175l-45 53l36 30l44 -53c42 29 93 47 146 47s98 -19 131 -50l64 56l26 -31z
M124 311c0 -83 60 -147 148 -147c110 0 211 102 211 213c0 83 -61 146 -147 146c-109 0 -212 -102 -212 -212z" />
    <glyph glyph-name="dollar" unicode="$" horiz-adv-x="614" 
d="M415 749c89 -4 146 -36 186 -85l-30 -34c-39 48 -92 73 -164 77l-54 -310c90 -29 195 -72 195 -181c0 -130 -118 -216 -267 -225l-14 -81h-51l14 81c-83 4 -158 31 -196 84l27 35c43 -52 104 -74 177 -77l58 326l-28 9c-82 25 -156 65 -156 156c0 127 109 215 253 225
l14 81h50zM299 413l6 -2l52 294c-110 -11 -190 -80 -190 -171c0 -71 61 -99 132 -121zM494 207c0 69 -61 106 -151 137l-54 -309c116 11 205 78 205 172z" />
    <glyph glyph-name="Euro" unicode="&#x20ac;" horiz-adv-x="797" 
d="M531 750c122 0 200 -50 255 -122l-37 -30c-47 62 -115 109 -218 109c-182 0 -319 -123 -367 -286h310l-7 -37h-312c-4 -21 -7 -42 -8 -64h309l-6 -36h-304c4 -154 99 -251 260 -251c110 0 214 56 282 134l31 -36c-79 -86 -191 -141 -318 -141c-189 0 -306 115 -308 294
h-65l7 36h59c1 22 4 43 8 64h-56l7 37h57c51 190 211 329 421 329z" />
    <glyph glyph-name="florin" unicode="&#x192;" horiz-adv-x="466" 
d="M446 750c27 0 53 -5 72 -13l-10 -40c-20 7 -44 10 -67 10c-65 0 -128 -44 -155 -121l-77 -220h209l-8 -43h-216l-149 -423h-51l148 423h-87l8 43h94l82 235c34 98 111 149 207 149z" />
    <glyph glyph-name="uni20BD" unicode="&#x20bd;" horiz-adv-x="623" 
d="M355 328h-190l-11 -64h272l-7 -36h-272l-40 -228h-52l40 228h-51l7 36h51l11 64h-51l7 37h51l66 375h236c126 0 204 -66 204 -169c0 -144 -121 -243 -271 -243zM230 697l-57 -325h176c125 0 223 80 223 194c0 80 -61 131 -163 131h-179z" />
    <glyph glyph-name="uni20B9" unicode="&#x20b9;" horiz-adv-x="646" 
d="M674 740l-7 -36h-212c57 -30 89 -85 89 -155c0 -8 0 -16 -1 -24h87l-7 -36h-85c-20 -95 -88 -169 -180 -200l141 -289h-60l-133 276c-15 -2 -30 -3 -45 -3h-196l9 43h183c113 0 201 74 227 173h-381l7 36h380c1 8 1 15 1 23c0 92 -63 149 -167 149h-184l1 7l7 36h526z
" />
    <glyph glyph-name="sterling" unicode="&#xa3;" horiz-adv-x="569" 
d="M385 750c104 0 167 -59 167 -150c0 -12 -1 -24 -3 -37h-51c2 10 3 21 3 31c0 69 -45 113 -120 113c-87 0 -154 -61 -170 -149l-34 -193h306l-7 -42h-307l-50 -281h343l-7 -42h-456l8 42h61l50 281h-52l7 42h52l36 203c20 111 108 182 224 182z" />
    <glyph glyph-name="yen" unicode="&#xa5;" horiz-adv-x="670" 
d="M711 740l-335 -407h163l-7 -36h-177l-12 -64h178l-7 -37h-177l-35 -196h-52l35 196h-176l7 37h176l12 64h-177l7 36h161l-191 407h57l178 -381l312 381h60z" />
    <glyph glyph-name="plus" unicode="+" horiz-adv-x="516" 
d="M474 366l-7 -41h-183l-32 -180h-48l32 180h-184l7 41h184l32 181h48l-32 -181h183z" />
    <glyph glyph-name="minus" unicode="&#x2212;" horiz-adv-x="570" 
d="M79 325l7 41h414l-7 -41h-414z" />
    <glyph glyph-name="multiply" unicode="&#xd7;" horiz-adv-x="492" 
d="M455 493l-174 -149l121 -147l-34 -30l-122 148l-173 -148l-26 30l174 148l-122 148l35 30l122 -148l173 148z" />
    <glyph glyph-name="divide" unicode="&#xf7;" horiz-adv-x="563" 
d="M308 454c-19 0 -32 15 -32 33c0 24 20 40 40 40c19 0 32 -14 32 -33c0 -24 -20 -40 -40 -40zM75 325l7 41h415l-7 -41h-415zM257 164c-19 0 -32 15 -32 33c0 24 20 40 40 40c19 0 32 -14 32 -33c0 -24 -20 -40 -40 -40z" />
    <glyph glyph-name="equal" unicode="=" horiz-adv-x="573" 
d="M100 443l7 41h415l-7 -41h-415zM59 208l7 40h415l-7 -40h-415z" />
    <glyph glyph-name="notequal" unicode="&#x2260;" horiz-adv-x="573" 
d="M516 443h-156l-87 -195h208l-7 -40h-219l-51 -112h-49l50 112h-145l7 40h156l88 195h-210l7 41h221l50 111h50l-50 -111h144z" />
    <glyph glyph-name="greater" unicode="&#x3e;" horiz-adv-x="505" 
d="M38 128l9 47l366 175l-305 175l8 47l362 -208l-5 -28z" />
    <glyph glyph-name="less" unicode="&#x3c;" horiz-adv-x="507" 
d="M402 128l-362 208l5 28l435 208l-9 -47l-364 -176l303 -174z" />
    <glyph glyph-name="greaterequal" unicode="&#x2265;" horiz-adv-x="557" 
d="M61 198l9 46l356 149l-304 146l8 47l367 -180l-5 -29zM43 91l7 41h399l-7 -41h-399z" />
    <glyph glyph-name="lessequal" unicode="&#x2264;" horiz-adv-x="562" 
d="M460 198l-367 179l5 29l431 180l-9 -47l-355 -148l303 -147zM43 91l7 41h399l-7 -41h-399z" />
    <glyph glyph-name="plusminus" unicode="&#xb1;" horiz-adv-x="570" 
d="M329 428h175l-7 -41h-176l-31 -180h-48l32 180h-176l8 41h175l32 180h47zM47 91l7 42h398l-7 -42h-398z" />
    <glyph glyph-name="approxequal" unicode="&#x2248;" horiz-adv-x="565" 
d="M384 338c-80 0 -106 77 -175 77c-45 0 -84 -24 -91 -67h-33c10 63 66 108 128 108c81 0 107 -78 176 -78c44 0 82 24 90 68h33c-10 -65 -66 -108 -128 -108zM348 138c-80 0 -106 77 -175 77c-44 0 -83 -24 -91 -67h-33c11 63 66 108 128 108c81 0 107 -78 176 -78
c44 0 83 24 90 68h34c-11 -65 -66 -108 -129 -108z" />
    <glyph glyph-name="asciitilde" unicode="~" horiz-adv-x="566" 
d="M367 238c-81 0 -107 77 -176 77c-44 0 -83 -24 -91 -67h-33c11 63 66 108 128 108c81 0 107 -78 176 -78c44 0 83 24 90 68h34c-11 -65 -66 -108 -128 -108z" />
    <glyph glyph-name="logicalnot" unicode="&#xac;" horiz-adv-x="568" 
d="M510 417l-34 -188h-48l27 147h-367l7 41h415z" />
    <glyph glyph-name="emptyset" unicode="&#x2205;" horiz-adv-x="662" 
d="M634 596l-70 -64c25 -35 39 -80 39 -133c0 -182 -132 -328 -313 -328c-70 0 -127 22 -165 61l-67 -61l-22 19l70 64c-25 35 -38 80 -38 133c0 183 132 328 313 328c70 0 126 -22 164 -60l66 60zM118 290c0 -40 9 -74 26 -102l365 334c-30 33 -76 52 -133 52
c-153 0 -258 -133 -258 -284zM552 397c0 39 -9 74 -25 101l-366 -333c31 -33 77 -52 135 -52c151 0 256 133 256 284z" />
    <glyph glyph-name="infinity" unicode="&#x221e;" horiz-adv-x="708" 
d="M514 442c81 0 130 -51 130 -129c0 -110 -76 -197 -183 -197c-65 0 -111 34 -125 90c-30 -54 -85 -90 -152 -90c-82 0 -132 50 -132 128c0 109 75 198 184 198c66 0 110 -34 124 -91c31 54 86 91 154 91zM190 150c83 0 140 79 140 160c0 61 -35 98 -93 98
c-83 0 -142 -76 -142 -160c0 -61 35 -98 95 -98zM461 150c84 0 140 79 140 160c0 61 -34 98 -93 98c-82 0 -141 -76 -141 -160c0 -61 35 -98 94 -98z" />
    <glyph glyph-name="integral" unicode="&#x222b;" horiz-adv-x="452" 
d="M19 -230c-44 0 -85 16 -105 42l18 33c20 -22 52 -32 84 -32c60 0 104 40 113 98l133 753c14 77 73 126 159 126c45 0 85 -16 106 -42l-18 -33c-21 22 -53 32 -84 32c-60 0 -104 -40 -114 -98l-132 -753c-14 -77 -74 -126 -160 -126z" />
    <glyph glyph-name="product" unicode="&#x220f;" horiz-adv-x="724" 
d="M701 780l-177 -1000h-52l169 957h-409l-169 -957h-51l176 1000h513z" />
    <glyph glyph-name="summation" unicode="&#x2211;" horiz-adv-x="609" 
d="M-60 -220l6 33l416 470l-242 464l6 33h516l-8 -43h-451l238 -454l-407 -460h469l-8 -43h-535z" />
    <glyph glyph-name="radical" unicode="&#x221a;" horiz-adv-x="754" 
d="M149 -220l-146 525h53l126 -469l592 944h55l-630 -1000h-50z" />
    <glyph glyph-name="partialdiff" unicode="&#x2202;" horiz-adv-x="624" 
d="M375 750c135 0 214 -105 214 -272c0 -253 -152 -488 -393 -488c-117 0 -190 60 -190 152c0 190 278 267 527 271c3 22 4 45 4 67c0 139 -61 227 -167 227c-88 0 -163 -50 -219 -112l-29 36c71 72 151 119 253 119zM199 33c175 0 293 157 327 337
c-217 -3 -468 -71 -468 -228c0 -67 53 -109 141 -109z" />
    <glyph glyph-name="percent" unicode="%" horiz-adv-x="734" 
d="M108 -10l-28 20l568 740l28 -20zM218 423c-84 0 -135 51 -135 131c0 109 78 196 187 196c83 0 134 -51 134 -130c0 -110 -78 -197 -186 -197zM222 458c81 0 138 76 138 160c0 60 -35 97 -94 97c-84 0 -139 -78 -139 -160c0 -60 35 -97 95 -97zM485 -10
c-84 0 -135 51 -135 131c0 109 78 196 187 196c83 0 134 -51 134 -131c0 -109 -78 -196 -186 -196zM488 25c82 0 139 75 139 160c0 60 -35 97 -94 97c-84 0 -139 -78 -139 -160c0 -60 35 -97 94 -97z" />
    <glyph glyph-name="perthousand" unicode="&#x2030;" horiz-adv-x="1092" 
d="M108 -10l-28 20l568 740l28 -20zM218 423c-84 0 -135 51 -135 131c0 109 78 196 187 196c83 0 134 -51 134 -130c0 -110 -78 -197 -186 -197zM222 458c81 0 138 76 138 160c0 60 -35 97 -94 97c-84 0 -139 -78 -139 -160c0 -60 35 -97 95 -97zM485 -10
c-84 0 -135 51 -135 131c0 109 78 196 187 196c83 0 134 -51 134 -131c0 -109 -78 -196 -186 -196zM846 -10c-84 0 -135 51 -135 131c0 109 78 196 187 196c83 0 134 -51 134 -131c0 -109 -78 -196 -186 -196zM488 25c82 0 139 75 139 160c0 60 -35 97 -94 97
c-84 0 -139 -78 -139 -160c0 -60 35 -97 94 -97zM849 25c82 0 139 75 139 160c0 60 -35 97 -94 97c-84 0 -139 -78 -139 -160c0 -60 35 -97 94 -97z" />
    <glyph glyph-name="lozenge" unicode="&#x25ca;" horiz-adv-x="537" 
d="M193 0l-150 312l259 313h41l150 -313l-259 -312h-41zM220 46l222 266l-127 267l-219 -267z" />
    <glyph glyph-name="at" unicode="@" horiz-adv-x="1050" 
d="M610 752c239 0 390 -136 390 -349c0 -172 -90 -360 -235 -360c-69 0 -109 44 -110 110c-39 -66 -105 -112 -195 -112c-109 0 -175 67 -175 172c0 144 102 265 245 265c86 0 137 -43 155 -108l19 100h46l-49 -281c-1 -11 -2 -21 -2 -30c0 -46 23 -74 67 -74
c115 0 184 176 184 315c0 190 -132 311 -343 311c-311 0 -518 -221 -518 -551c0 -210 140 -348 357 -348c74 0 190 14 276 39l13 -39c-88 -26 -207 -42 -291 -42c-247 0 -405 155 -405 388c0 357 228 594 571 594zM472 82c97 0 175 72 194 177l2 12c1 10 2 20 2 29
c0 84 -50 136 -136 136c-117 0 -198 -104 -198 -218c0 -84 51 -136 136 -136z" />
    <glyph glyph-name="ampersand" unicode="&#x26;" horiz-adv-x="774" 
d="M529 377l-42 -237c-2 -10 -3 -20 -3 -29c0 -49 32 -79 84 -79c39 0 76 6 113 20l-3 -41c-34 -14 -77 -21 -128 -21c-64 0 -107 36 -114 92c-50 -64 -132 -92 -213 -92c-118 0 -191 67 -191 169c0 123 85 211 204 240c-64 23 -100 73 -100 139c0 129 111 212 246 212
c113 0 184 -59 184 -150c0 -11 -1 -22 -3 -34l-27 -149h203l-6 -40h-204zM185 533c0 -71 52 -116 139 -116h164l27 147c1 10 2 19 2 28c0 72 -53 116 -139 116c-109 0 -193 -77 -193 -175zM239 32c92 0 189 50 207 145l35 200h-161c-133 0 -236 -88 -236 -209
c0 -84 58 -136 155 -136z" />
    <glyph glyph-name="paragraph" unicode="&#xb6;" horiz-adv-x="545" 
d="M507 740l-170 -960h-42l163 921h-115l-163 -921h-42l113 641h-68c-68 0 -106 46 -106 119c0 109 76 200 182 200h248z" />
    <glyph glyph-name="section" unicode="&#xa7;" horiz-adv-x="573" 
d="M367 790c94 0 153 -33 192 -86l-30 -34c-38 52 -90 77 -165 77c-112 0 -200 -75 -200 -175c0 -69 55 -96 117 -119l47 -16c81 -29 176 -72 176 -178c0 -66 -31 -126 -81 -167c22 -24 35 -55 35 -95c0 -137 -124 -227 -272 -227c-85 0 -162 27 -200 85l27 35
c41 -56 102 -77 173 -77c120 0 218 72 218 176c0 74 -64 111 -155 143l-45 16c-76 26 -141 65 -141 153c0 66 29 128 80 170c-21 23 -34 52 -34 90c0 137 115 229 258 229zM295 394l-45 16c-25 8 -50 19 -71 32c-40 -33 -63 -81 -63 -131c0 -69 55 -97 119 -120l47 -17
c36 -12 75 -28 107 -51c40 34 63 81 63 128c0 74 -65 111 -157 143z" />
    <glyph glyph-name="copyright" unicode="&#xa9;" horiz-adv-x="851" 
d="M371 -10c-194 0 -310 116 -310 298c0 257 182 462 439 462c194 0 311 -117 311 -299c0 -256 -184 -461 -440 -461zM373 20c237 0 402 197 402 430c0 165 -104 270 -276 270c-238 0 -402 -197 -402 -430c0 -165 103 -270 276 -270zM404 158c-107 0 -171 65 -171 166
c0 142 102 252 242 252c68 0 114 -28 144 -68l-29 -23c-24 34 -61 57 -116 57c-118 0 -201 -101 -201 -216c0 -83 51 -135 136 -135c61 0 115 30 151 72l22 -27c-45 -49 -106 -78 -178 -78z" />
    <glyph glyph-name="registered" unicode="&#xae;" horiz-adv-x="416" 
d="M287 790c80 0 129 -48 129 -122c0 -103 -75 -183 -177 -183c-79 0 -128 48 -128 123c0 101 75 182 176 182zM242 500c95 0 156 82 156 168c0 65 -43 107 -113 107c-95 0 -156 -82 -156 -168c0 -66 43 -107 113 -107zM331 676c0 -27 -18 -45 -43 -53l33 -68h-24l-30 65h-3
h-38l-12 -65h-22l29 163h64c28 0 46 -16 46 -42zM265 638c24 0 44 15 44 37c0 16 -11 26 -30 26h-39l-11 -63h36z" />
    <glyph glyph-name="trademark" unicode="&#x2122;" horiz-adv-x="711" 
d="M337 752h-95l-46 -258h-33l46 258h-95l5 28h223zM663 780h34l-33 -286h-34l28 231l-149 -231h-23l-67 233l-55 -233h-33l69 286h33l70 -247z" />
    <glyph glyph-name="degree" unicode="&#xb0;" horiz-adv-x="349" 
d="M219 557c-67 0 -108 38 -108 97c0 79 62 136 143 136c66 0 107 -38 107 -96c0 -80 -61 -137 -142 -137zM221 587c61 0 103 49 103 104c0 42 -27 69 -73 69c-61 0 -103 -49 -103 -104c0 -42 27 -69 73 -69z" />
    <glyph glyph-name="bar" unicode="|" horiz-adv-x="252" 
d="M6 -220l177 1000h51l-177 -1000h-51z" />
    <glyph glyph-name="brokenbar" unicode="&#xa6;" horiz-adv-x="249" 
d="M111 380l71 400h51l-71 -400h-51zM5 -220l71 400h51l-71 -400h-51z" />
    <glyph glyph-name="dagger" unicode="&#x2020;" horiz-adv-x="513" 
d="M511 525l-8 -44h-192l-124 -701h-51l124 701h-193l8 44h193l45 255h51l-45 -255h192z" />
    <glyph glyph-name="daggerdbl" unicode="&#x2021;" horiz-adv-x="513" 
d="M503 481h-192l-28 -161h192l-8 -43h-192l-88 -497h-51l88 497h-192l8 43h192l28 161h-193l8 44h193l45 255h51l-45 -255h192z" />
    <glyph glyph-name="asciicircum" unicode="^" horiz-adv-x="454" 
d="M406 329h-51l-80 246l-164 -246h-52l200 296h50z" />
    <glyph glyph-name="uni0308" unicode="&#x308;" horiz-adv-x="0" 
d="M-221 675c-19 0 -32 15 -32 33c0 24 20 40 40 40c19 0 32 -14 32 -33c0 -24 -20 -40 -40 -40zM-33 675c-20 0 -33 15 -33 33c0 24 21 40 40 40c20 0 33 -14 33 -33c0 -24 -21 -40 -40 -40z" />
    <glyph glyph-name="uni0307" unicode="&#x307;" horiz-adv-x="0" 
d="M-32 675c-19 0 -33 15 -33 34c0 23 18 39 39 39c19 0 33 -14 33 -34c0 -22 -18 -39 -39 -39z" />
    <glyph glyph-name="gravecomb" unicode="&#x300;" horiz-adv-x="0" 
d="M-119 620l-120 145h61l102 -145h-43z" />
    <glyph glyph-name="acutecomb" unicode="&#x301;" horiz-adv-x="0" 
d="M-132 620l153 145h64l-172 -145h-45z" />
    <glyph glyph-name="uni030B" unicode="&#x30b;" horiz-adv-x="0" 
d="M-269 620l131 145h62l-150 -145h-43zM-138 620l131 145h62l-150 -145h-43z" />
    <glyph glyph-name="uni0302" unicode="&#x302;" horiz-adv-x="0" 
d="M2 620h-47l-86 117l-129 -117h-48l155 145h53z" />
    <glyph glyph-name="uni030C" unicode="&#x30c;" horiz-adv-x="0" 
d="M-21 765h48l-154 -145h-52l-104 145h49l86 -117z" />
    <glyph glyph-name="uni0306" unicode="&#x306;" horiz-adv-x="0" 
d="M-133 610c-81 0 -131 48 -131 122c0 11 1 22 3 33h41c-2 -11 -3 -21 -3 -30c0 -57 34 -93 92 -93c68 0 120 51 133 123h41c-16 -95 -86 -155 -176 -155z" />
    <glyph glyph-name="uni030A" unicode="&#x30a;" horiz-adv-x="0" 
d="M-112 584c-56 0 -91 33 -91 85c0 72 52 123 123 123c56 0 91 -33 91 -85c0 -70 -53 -123 -123 -123zM-110 612c53 0 89 47 89 94c0 36 -23 59 -61 59c-54 0 -89 -46 -89 -96c0 -35 23 -57 61 -57z" />
    <glyph glyph-name="tildecomb" unicode="&#x303;" horiz-adv-x="0" 
d="M-86 630c-68 0 -90 78 -147 78c-34 0 -65 -25 -73 -68h-33c10 64 58 108 110 108c69 0 90 -77 147 -77c34 0 65 25 72 67h34c-11 -65 -58 -108 -110 -108z" />
    <glyph glyph-name="uni0304" unicode="&#x304;" horiz-adv-x="0" 
d="M-296 655l7 40h294l-7 -40h-294z" />
    <glyph glyph-name="uni0312" unicode="&#x312;" horiz-adv-x="0" 
d="M-64 593l104 187h39l-96 -187h-47z" />
    <glyph glyph-name="uni0326" unicode="&#x326;" horiz-adv-x="0" 
d="M-203 -220l86 168h47l-94 -168h-39z" />
    <glyph glyph-name="uni0327" unicode="&#x327;" horiz-adv-x="0" 
d="M-190 -69c58 0 93 -27 93 -68c0 -59 -59 -93 -129 -93c-35 0 -69 11 -90 30l17 24c19 -18 44 -25 71 -25c50 0 92 25 92 62c0 27 -26 43 -67 43c-19 0 -36 -3 -53 -9l-7 17l71 88h36l-59 -71c8 1 16 2 25 2z" />
    <glyph glyph-name="uni0328" unicode="&#x328;" horiz-adv-x="0" 
d="M-179 -230c-43 0 -69 25 -69 62c0 62 61 129 168 190l15 -22c-96 -57 -142 -112 -142 -158c0 -24 16 -40 41 -40c23 0 47 10 67 26l1 -30c-25 -19 -53 -28 -81 -28z" />
    <glyph glyph-name="uni0335" unicode="&#x335;" horiz-adv-x="0" 
d="M-506 268l6 37h354l-6 -37h-354z" />
    <glyph glyph-name="uni0336" unicode="&#x336;" horiz-adv-x="0" 
d="M-851 268l7 37h763l-7 -37h-763z" />
    <glyph glyph-name="uni0337" unicode="&#x337;" horiz-adv-x="0" 
d="M-245 448l138 85l-8 -42l-137 -85l1 6l-137 -86l7 42l137 86z" />
    <glyph glyph-name="uni0338" unicode="&#x338;" horiz-adv-x="0" 
d="M-497 -10l-28 20l563 740l29 -20z" />
    <glyph glyph-name="acute" unicode="&#xb4;" horiz-adv-x="600" 
d="M195 620l153 145h64l-172 -145h-45z" />
    <glyph glyph-name="breve" unicode="&#x2d8;" horiz-adv-x="600" 
d="M262 610c-81 0 -131 48 -131 122c0 11 1 22 3 33h41c-2 -11 -3 -21 -3 -30c0 -57 34 -93 92 -93c68 0 120 51 133 123h41c-16 -95 -86 -155 -176 -155z" />
    <glyph glyph-name="caron" unicode="&#x2c7;" horiz-adv-x="600" 
d="M396 765h48l-154 -145h-52l-104 145h49l86 -117z" />
    <glyph glyph-name="cedilla" unicode="&#xb8;" horiz-adv-x="600" 
d="M65 -69c58 0 93 -27 93 -68c0 -59 -59 -93 -129 -93c-35 0 -69 11 -90 30l17 24c19 -18 44 -25 71 -25c50 0 92 25 92 62c0 27 -26 43 -67 43c-19 0 -36 -3 -53 -9l-7 17l71 88h36l-59 -71c8 1 16 2 25 2z" />
    <glyph glyph-name="circumflex" unicode="&#x2c6;" horiz-adv-x="600" 
d="M419 620h-47l-86 117l-129 -117h-48l155 145h53z" />
    <glyph glyph-name="dieresis" unicode="&#xa8;" horiz-adv-x="600" 
d="M184 675c-19 0 -32 15 -32 33c0 24 20 40 40 40c19 0 32 -14 32 -33c0 -24 -20 -40 -40 -40zM372 675c-20 0 -33 15 -33 33c0 24 21 40 40 40c20 0 33 -14 33 -33c0 -24 -21 -40 -40 -40z" />
    <glyph glyph-name="dotaccent" unicode="&#x2d9;" horiz-adv-x="600" 
d="M185 675c-19 0 -33 15 -33 34c0 23 18 39 39 39c19 0 33 -14 33 -34c0 -22 -18 -39 -39 -39z" />
    <glyph glyph-name="grave" unicode="`" horiz-adv-x="600" 
d="M208 620l-120 145h61l102 -145h-43z" />
    <glyph glyph-name="hungarumlaut" unicode="&#x2dd;" horiz-adv-x="600" 
d="M209 620l131 145h62l-150 -145h-43zM340 620l131 145h62l-150 -145h-43z" />
    <glyph glyph-name="macron" unicode="&#xaf;" horiz-adv-x="600" 
d="M139 655l7 40h294l-7 -40h-294z" />
    <glyph glyph-name="ogonek" unicode="&#x2db;" horiz-adv-x="600" 
d="M77 -230c-43 0 -69 25 -69 62c0 62 61 129 168 190l15 -22c-96 -57 -142 -112 -142 -158c0 -24 16 -40 41 -40c23 0 47 10 67 26l1 -30c-25 -19 -53 -28 -81 -28z" />
    <glyph glyph-name="ring" unicode="&#x2da;" horiz-adv-x="600" 
d="M230 584c-56 0 -91 33 -91 85c0 72 52 123 123 123c56 0 91 -33 91 -85c0 -70 -53 -123 -123 -123zM232 612c53 0 89 47 89 94c0 36 -23 59 -61 59c-54 0 -89 -46 -89 -96c0 -35 23 -57 61 -57z" />
    <glyph glyph-name="tilde" unicode="&#x2dc;" horiz-adv-x="600" 
d="M379 630c-68 0 -90 78 -147 78c-34 0 -65 -25 -73 -68h-33c10 64 58 108 110 108c69 0 90 -77 147 -77c34 0 65 25 72 67h34c-11 -65 -58 -108 -110 -108z" />
    <glyph glyph-name="logo" horiz-adv-x="1274" 
d="M76 -10c-10 0 -17 8 -17 18c0 5 1 11 5 15l342 341h-324c-10 0 -23 2 -23 19c0 7 3 11 7 16l340 342h-327c-12 0 -20 7 -20 19v1c0 12 8 19 20 19h370c10 0 23 -1 23 -20c0 -6 -2 -12 -8 -17l-341 -340h330c11 0 20 -9 20 -20v-327l339 338c5 6 11 8 17 8
c17 0 18 -13 18 -22v-324l340 338c4 5 10 8 16 8c10 0 17 -9 17 -19c0 -4 -1 -10 -6 -14l-368 -372c-6 -6 -11 -7 -17 -7c-19 0 -20 13 -20 23v324l-339 -340c-6 -6 -11 -7 -17 -7c-19 0 -20 13 -20 23v324l-340 -340c-6 -6 -11 -7 -17 -7z" />
    </font>
</defs>
</svg>
