<?xml version="1.0" standalone="no"?>
<!DOCTYPE svg PUBLIC "-//W3C//DTD SVG 1.1//EN" "http://www.w3.org/Graphics/SVG/1.1/DTD/svg11.dtd" >
<svg xmlns="http://www.w3.org/2000/svg" xmlns:xlink="http://www.w3.org/1999/xlink" version="1.1">
<metadata>
Created by FontForge 20170910 at Fri Oct 21 19:40:16 2016
 By Jimmy Wärting
Copyright \(c\) 2016 by Alberto Romanos. All rights reserved.
</metadata>
<defs>
<font id="BwModelica-Bold" horiz-adv-x="615" >
  <font-face 
    font-family="Bw Modelica"
    font-weight="700"
    font-stretch="normal"
    units-per-em="1000"
    panose-1="0 0 8 0 0 0 0 0 0 0"
    ascent="780"
    descent="-220"
    x-height="539"
    cap-height="740"
    bbox="-875 -230 1252 1020"
    underline-thickness="50"
    underline-position="-100"
    stemh="111"
    stemv="136"
    unicode-range="U+000D-FB02"
  />
<missing-glyph horiz-adv-x="1274" 
d="M89 -10c-10 0 -17 8 -17 18c0 5 1 11 5 15l342 341h-324c-10 0 -23 2 -23 19c0 7 3 11 7 16l340 342h-327c-12 0 -20 7 -20 19v1c0 12 8 19 20 19h370c10 0 23 -1 23 -20c0 -6 -2 -12 -8 -17l-341 -340h330c11 0 20 -9 20 -20v-327l339 338c5 6 11 8 17 8
c17 0 18 -13 18 -22v-324l340 338c4 5 10 8 16 8c10 0 17 -9 17 -19c0 -4 -1 -10 -6 -14l-368 -372c-6 -6 -11 -7 -17 -7c-19 0 -20 13 -20 23v324l-339 -340c-6 -6 -11 -7 -17 -7c-19 0 -20 13 -20 23v324l-340 -340c-6 -6 -11 -7 -17 -7z" />
    <glyph glyph-name="fi" unicode="fi" horiz-adv-x="681" 
d="M113 620c0 103 70 170 174 170c44 0 87 -7 119 -22l-9 -106c-21 9 -41 11 -66 11c-49 0 -82 -29 -82 -74v-60h142v-111h-142v-428h-136v428h-87v111h87v81zM544 627c-47 0 -81 33 -81 80s34 81 81 81s80 -34 80 -81s-33 -80 -80 -80zM476 0v539h136v-539h-136z" />
    <glyph glyph-name="fl" unicode="fl" horiz-adv-x="682" 
d="M113 620c0 103 70 170 174 170c44 0 87 -7 119 -22l-9 -106c-21 9 -41 11 -66 11c-49 0 -82 -29 -82 -74v-60h142v-111h-142v-428h-136v428h-87v111h87v81zM476 780h136v-780h-136v780z" />
    <glyph glyph-name=".notdef" horiz-adv-x="1274" 
d="M89 -10c-10 0 -17 8 -17 18c0 5 1 11 5 15l342 341h-324c-10 0 -23 2 -23 19c0 7 3 11 7 16l340 342h-327c-12 0 -20 7 -20 19v1c0 12 8 19 20 19h370c10 0 23 -1 23 -20c0 -6 -2 -12 -8 -17l-341 -340h330c11 0 20 -9 20 -20v-327l339 338c5 6 11 8 17 8
c17 0 18 -13 18 -22v-324l340 338c4 5 10 8 16 8c10 0 17 -9 17 -19c0 -4 -1 -10 -6 -14l-368 -372c-6 -6 -11 -7 -17 -7c-19 0 -20 13 -20 23v324l-339 -340c-6 -6 -11 -7 -17 -7c-19 0 -20 13 -20 23v324l-340 -340c-6 -6 -11 -7 -17 -7z" />
    <glyph glyph-name="A" unicode="A" horiz-adv-x="758" 
d="M609 0l-60 147h-341l-60 -147h-151l316 740h131l316 -740h-151zM256 264h246l-123 301z" />
    <glyph glyph-name="Aacute" unicode="&#xc1;" horiz-adv-x="758" 
d="M588 980l-178 -161h-116l136 161h158zM609 0l-60 147h-341l-60 -147h-151l316 740h131l316 -740h-151zM256 264h246l-123 301z" />
    <glyph glyph-name="Abreve" unicode="&#x102;" horiz-adv-x="758" 
d="M379 810c-109 0 -181 68 -181 170h103c0 -54 32 -91 78 -91c48 0 79 37 79 91h103c0 -102 -72 -170 -182 -170zM609 0l-60 147h-341l-60 -147h-151l316 740h131l316 -740h-151zM256 264h246l-123 301z" />
    <glyph glyph-name="Acircumflex" unicode="&#xc2;" horiz-adv-x="758" 
d="M378 903l-70 -84h-126l131 161h130l131 -161h-125zM609 0l-60 147h-341l-60 -147h-151l316 740h131l316 -740h-151zM256 264h246l-123 301z" />
    <glyph glyph-name="Adieresis" unicode="&#xc4;" horiz-adv-x="758" 
d="M256 828c-47 0 -81 33 -81 80s34 81 81 81s81 -34 81 -81s-34 -80 -81 -80zM501 828c-47 0 -81 33 -81 80s34 81 81 81s81 -34 81 -81s-34 -80 -81 -80zM609 0l-60 147h-341l-60 -147h-151l316 740h131l316 -740h-151zM256 264h246l-123 301z" />
    <glyph glyph-name="Agrave" unicode="&#xc0;" horiz-adv-x="758" 
d="M463 819h-116l-178 161h159zM609 0l-60 147h-341l-60 -147h-151l316 740h131l316 -740h-151zM256 264h246l-123 301z" />
    <glyph glyph-name="Amacron" unicode="&#x100;" horiz-adv-x="758" 
d="M557 932v-107h-356v107h356zM609 0l-60 147h-341l-60 -147h-151l316 740h131l316 -740h-151zM256 264h246l-123 301z" />
    <glyph glyph-name="Aogonek" unicode="&#x104;" horiz-adv-x="758" 
d="M751 -135l12 -67c-24 -17 -51 -28 -93 -28c-61 0 -101 36 -101 89c0 52 36 100 88 141h-48l-60 147h-341l-60 -147h-151l316 740h131l316 -740c-63 -40 -93 -81 -93 -119c0 -20 14 -33 36 -33c18 0 35 6 48 17zM256 264h246l-123 301z" />
    <glyph glyph-name="Aring" unicode="&#xc5;" horiz-adv-x="758" 
d="M379 785c-71 0 -117 43 -117 108s46 108 117 108c70 0 117 -43 117 -108s-47 -108 -117 -108zM379 939c-27 0 -45 -18 -45 -46s18 -47 45 -47s44 19 44 47s-17 46 -44 46zM609 0l-60 147h-341l-60 -147h-151l316 740h131l316 -740h-151zM256 264h246l-123 301z" />
    <glyph glyph-name="Atilde" unicode="&#xc3;" horiz-adv-x="758" 
d="M299 876c-24 0 -41 -18 -41 -46h-74c0 87 46 144 114 144c66 0 117 -56 160 -56c25 0 41 16 41 46h74c0 -92 -45 -144 -113 -144c-63 0 -118 56 -161 56zM609 0l-60 147h-341l-60 -147h-151l316 740h131l316 -740h-151zM256 264h246l-123 301z" />
    <glyph glyph-name="AE" unicode="&#xc6;" horiz-adv-x="1096" 
d="M715 117h330v-117h-450l-36 147h-330l-85 -147h-160l459 740h593v-117h-455l50 -190h373v-116h-342zM297 264h233l-69 282z" />
    <glyph glyph-name="B" unicode="B" horiz-adv-x="708" 
d="M528 392c86 -29 139 -93 139 -177c0 -129 -102 -215 -258 -215h-321v740h317c133 0 222 -78 222 -194c0 -67 -36 -120 -99 -154zM229 623v-185h142c67 0 111 37 111 93c0 55 -45 92 -110 92h-143zM400 117c73 0 122 41 122 102c0 62 -49 103 -120 103h-173v-205h171z" />
    <glyph glyph-name="C" unicode="C" horiz-adv-x="768" 
d="M436 -10c-235 0 -393 153 -393 382c0 227 157 378 392 378c121 0 219 -40 292 -119l-89 -90c-42 54 -113 92 -201 92c-149 0 -248 -105 -248 -262c0 -159 101 -264 250 -264c100 0 169 45 216 117l95 -85c-71 -97 -179 -149 -314 -149z" />
    <glyph glyph-name="Cacute" unicode="&#x106;" horiz-adv-x="768" 
d="M341 819l136 161h158l-178 -161h-116zM436 -10c-235 0 -393 153 -393 382c0 227 157 378 392 378c121 0 219 -40 292 -119l-89 -90c-42 54 -113 92 -201 92c-149 0 -248 -105 -248 -262c0 -159 101 -264 250 -264c100 0 169 45 216 117l95 -85
c-71 -97 -179 -149 -314 -149z" />
    <glyph glyph-name="Ccaron" unicode="&#x10c;" horiz-adv-x="768" 
d="M490 819h-130l-131 161h126l70 -84l71 84h125zM655 224l95 -85c-71 -97 -179 -149 -314 -149c-235 0 -393 153 -393 382c0 227 157 378 392 378c121 0 219 -40 292 -119l-89 -90c-42 54 -113 92 -201 92c-149 0 -248 -105 -248 -262c0 -159 101 -264 250 -264
c100 0 169 45 216 117z" />
    <glyph glyph-name="Ccedilla" unicode="&#xc7;" horiz-adv-x="768" 
d="M750 139c-65 -89 -162 -140 -282 -148l-28 -45c64 -2 105 -36 105 -84c0 -55 -51 -92 -131 -92c-40 0 -78 10 -100 25l25 50c14 -11 36 -18 61 -18c34 0 54 14 54 34c0 19 -20 31 -49 31c-14 0 -26 -3 -37 -8l-18 32l42 76c-210 18 -349 165 -349 380
c0 227 157 378 392 378c121 0 219 -40 292 -119l-89 -90c-42 54 -113 92 -201 92c-149 0 -248 -105 -248 -262c0 -159 101 -264 250 -264c100 0 169 45 216 117z" />
    <glyph glyph-name="Cdotaccent" unicode="&#x10a;" horiz-adv-x="768" 
d="M426 828c-47 0 -81 33 -81 80s34 81 81 81s81 -34 81 -81s-34 -80 -81 -80zM436 -10c-235 0 -393 153 -393 382c0 227 157 378 392 378c121 0 219 -40 292 -119l-89 -90c-42 54 -113 92 -201 92c-149 0 -248 -105 -248 -262c0 -159 101 -264 250 -264
c100 0 169 45 216 117l95 -85c-71 -97 -179 -149 -314 -149z" />
    <glyph glyph-name="D" unicode="D" horiz-adv-x="788" 
d="M379 740c219 0 365 -148 365 -370s-146 -370 -365 -370h-291v740h291zM379 117c131 0 218 101 218 253s-87 253 -218 253h-150v-506h150z" />
    <glyph glyph-name="Eth" unicode="&#xd0;" horiz-adv-x="788" 
d="M379 740c219 0 365 -148 365 -370s-146 -370 -365 -370h-291v323h-78v97h78v320h291zM379 117c131 0 218 101 218 253s-87 253 -218 253h-150v-203h166v-97h-166v-206h150z" />
    <glyph glyph-name="Dcaron" unicode="&#x10e;" horiz-adv-x="788" 
d="M403 819h-130l-131 161h126l70 -84l71 84h125zM379 740c219 0 365 -148 365 -370s-146 -370 -365 -370h-291v740h291zM379 117c131 0 218 101 218 253s-87 253 -218 253h-150v-506h150z" />
    <glyph glyph-name="Dcroat" unicode="&#x110;" horiz-adv-x="788" 
d="M379 740c219 0 365 -148 365 -370s-146 -370 -365 -370h-291v323h-78v97h78v320h291zM379 117c131 0 218 101 218 253s-87 253 -218 253h-150v-203h166v-97h-166v-206h150z" />
    <glyph glyph-name="E" unicode="E" horiz-adv-x="650" 
d="M229 117h370v-117h-511v740h503v-117h-362v-190h330v-116h-330v-200z" />
    <glyph glyph-name="Eacute" unicode="&#xc9;" horiz-adv-x="650" 
d="M548 980l-178 -161h-116l136 161h158zM229 117h370v-117h-511v740h503v-117h-362v-190h330v-116h-330v-200z" />
    <glyph glyph-name="Ecaron" unicode="&#x11a;" horiz-adv-x="650" 
d="M403 819h-130l-131 161h126l70 -84l71 84h125zM229 117h370v-117h-511v740h503v-117h-362v-190h330v-116h-330v-200z" />
    <glyph glyph-name="Ecircumflex" unicode="&#xca;" horiz-adv-x="650" 
d="M338 903l-70 -84h-126l131 161h130l131 -161h-125zM229 117h370v-117h-511v740h503v-117h-362v-190h330v-116h-330v-200z" />
    <glyph glyph-name="Edieresis" unicode="&#xcb;" horiz-adv-x="650" 
d="M216 828c-47 0 -81 33 -81 80s34 81 81 81s81 -34 81 -81s-34 -80 -81 -80zM461 828c-47 0 -81 33 -81 80s34 81 81 81s81 -34 81 -81s-34 -80 -81 -80zM229 117h370v-117h-511v740h503v-117h-362v-190h330v-116h-330v-200z" />
    <glyph glyph-name="Edotaccent" unicode="&#x116;" horiz-adv-x="650" 
d="M339 828c-47 0 -81 33 -81 80s34 81 81 81s81 -34 81 -81s-34 -80 -81 -80zM229 117h370v-117h-511v740h503v-117h-362v-190h330v-116h-330v-200z" />
    <glyph glyph-name="Egrave" unicode="&#xc8;" horiz-adv-x="650" 
d="M423 819h-116l-178 161h159zM229 117h370v-117h-511v740h503v-117h-362v-190h330v-116h-330v-200z" />
    <glyph glyph-name="Emacron" unicode="&#x112;" horiz-adv-x="650" 
d="M517 932v-107h-356v107h356zM229 117h370v-117h-511v740h503v-117h-362v-190h330v-116h-330v-200z" />
    <glyph glyph-name="Eogonek" unicode="&#x118;" horiz-adv-x="650" 
d="M590 -135l12 -67c-24 -17 -51 -28 -93 -28c-61 0 -101 36 -101 89c0 50 33 97 91 141h-411v740h503v-117h-362v-190h330v-116h-330v-200h370v-117c-63 -40 -93 -81 -93 -119c0 -20 14 -33 36 -33c18 0 35 6 48 17z" />
    <glyph glyph-name="F" unicode="F" horiz-adv-x="589" 
d="M555 623h-326v-210h280v-116h-280v-297h-141v740h467v-117z" />
    <glyph glyph-name="G" unicode="G" horiz-adv-x="816" 
d="M788 417c1 -16 2 -31 2 -47c0 -228 -142 -380 -365 -380c-229 0 -381 152 -381 380s150 380 381 380c106 0 193 -27 262 -82l-93 -88c-39 36 -94 53 -167 53c-142 0 -237 -105 -237 -263s94 -263 236 -263c123 0 204 76 216 193h-191v117h337z" />
    <glyph glyph-name="Gbreve" unicode="&#x11e;" horiz-adv-x="816" 
d="M425 810c-109 0 -181 68 -181 170h103c0 -54 32 -91 78 -91c48 0 79 37 79 91h103c0 -102 -72 -170 -182 -170zM788 417c1 -16 2 -31 2 -47c0 -228 -142 -380 -365 -380c-229 0 -381 152 -381 380s150 380 381 380c106 0 193 -27 262 -82l-93 -88c-39 36 -94 53 -167 53
c-142 0 -237 -105 -237 -263s94 -263 236 -263c123 0 204 76 216 193h-191v117h337z" />
    <glyph glyph-name="Gcommaaccent" unicode="&#x122;" horiz-adv-x="816" 
d="M788 417c1 -16 2 -31 2 -47c0 -228 -142 -380 -365 -380c-229 0 -381 152 -381 380s150 380 381 380c106 0 193 -27 262 -82l-93 -88c-39 36 -94 53 -167 53c-142 0 -237 -105 -237 -263s94 -263 236 -263c123 0 204 76 216 193h-191v117h337zM312 -220l43 168h122
l-62 -168h-103z" />
    <glyph glyph-name="Gdotaccent" unicode="&#x120;" horiz-adv-x="816" 
d="M425 828c-47 0 -81 33 -81 80s34 81 81 81s81 -34 81 -81s-34 -80 -81 -80zM788 417c1 -16 2 -31 2 -47c0 -228 -142 -380 -365 -380c-229 0 -381 152 -381 380s150 380 381 380c106 0 193 -27 262 -82l-93 -88c-39 36 -94 53 -167 53c-142 0 -237 -105 -237 -263
s94 -263 236 -263c123 0 204 76 216 193h-191v117h337z" />
    <glyph glyph-name="H" unicode="H" horiz-adv-x="854" 
d="M625 740h141v-740h-141v319h-396v-319h-141v740h141v-305h396v305z" />
    <glyph glyph-name="Hbar" unicode="&#x126;" horiz-adv-x="854" 
d="M838 638v-97h-72v-541h-141v319h-396v-319h-141v541h-73v97h73v102h141v-102h396v102h141v-102h72zM625 435v106h-396v-106h396z" />
    <glyph glyph-name="I" unicode="I" horiz-adv-x="317" 
d="M88 0v740h141v-740h-141z" />
    <glyph glyph-name="Iacute" unicode="&#xcd;" horiz-adv-x="317" 
d="M73 819l136 161h158l-178 -161h-116zM88 0v740h141v-740h-141z" />
    <glyph glyph-name="Icircumflex" unicode="&#xce;" horiz-adv-x="317" 
d="M228 819l-71 84l-70 -84h-126l131 161h130l131 -161h-125zM88 0v740h141v-740h-141z" />
    <glyph glyph-name="Idieresis" unicode="&#xcf;" horiz-adv-x="317" 
d="M35 828c-47 0 -81 33 -81 80s34 81 81 81s81 -34 81 -81s-34 -80 -81 -80zM280 828c-47 0 -81 33 -81 80s34 81 81 81s81 -34 81 -81s-34 -80 -81 -80zM88 0v740h141v-740h-141z" />
    <glyph glyph-name="Idotaccent" unicode="&#x130;" horiz-adv-x="317" 
d="M158 828c-47 0 -81 33 -81 80s34 81 81 81s81 -34 81 -81s-34 -80 -81 -80zM88 0v740h141v-740h-141z" />
    <glyph glyph-name="Igrave" unicode="&#xcc;" horiz-adv-x="317" 
d="M126 819l-178 161h159l135 -161h-116zM88 0v740h141v-740h-141z" />
    <glyph glyph-name="Imacron" unicode="&#x12a;" horiz-adv-x="317" 
d="M-20 825v107h356v-107h-356zM88 0v740h141v-740h-141z" />
    <glyph glyph-name="Iogonek" unicode="&#x12e;" horiz-adv-x="317" 
d="M220 -135l12 -67c-24 -17 -51 -28 -93 -28c-61 0 -101 36 -101 89c0 50 33 97 91 141h-41v740h141v-740c-63 -40 -93 -81 -93 -119c0 -20 14 -33 36 -33c18 0 35 6 48 17z" />
    <glyph glyph-name="J" unicode="J" horiz-adv-x="427" 
d="M150 -10c-61 0 -111 20 -146 59l37 94c24 -25 53 -36 82 -36c50 0 80 31 80 78v555h141v-580c0 -102 -79 -170 -194 -170z" />
    <glyph glyph-name="K" unicode="K" horiz-adv-x="707" 
d="M543 0l-246 320h-68v-320h-141v740h141v-304h65l235 304h169l-283 -361l297 -379h-169z" />
    <glyph glyph-name="Kcommaaccent" unicode="&#x136;" horiz-adv-x="707" 
d="M415 379l297 -379h-169l-246 320h-68v-320h-141v740h141v-304h65l235 304h169zM270 -220l43 168h122l-62 -168h-103z" />
    <glyph glyph-name="L" unicode="L" horiz-adv-x="571" 
d="M229 117h327v-117h-468v740h141v-623z" />
    <glyph glyph-name="Lacute" unicode="&#x139;" horiz-adv-x="571" 
d="M367 980l-178 -161h-116l136 161h158zM229 117h327v-117h-468v740h141v-623z" />
    <glyph glyph-name="Lcaron" unicode="&#x13d;" horiz-adv-x="569" 
d="M229 117h327v-117h-468v740h141v-623zM540 740l-73 -215h-123l54 215h142z" />
    <glyph glyph-name="Lcommaaccent" unicode="&#x13b;" horiz-adv-x="571" 
d="M229 117h327v-117h-468v740h141v-623zM195 -220l43 168h122l-62 -168h-103z" />
    <glyph glyph-name="Lslash" unicode="&#x141;" horiz-adv-x="571" 
d="M229 117h327v-117h-468v274l-57 -40v110l57 40v356h141v-275l104 73v-109l-104 -73v-239z" />
    <glyph glyph-name="M" unicode="M" horiz-adv-x="1000" 
d="M935 0h-141l-29 505l-226 -505h-78l-226 503l-29 -503h-141l50 744h155l230 -513l230 513h155z" />
    <glyph glyph-name="N" unicode="N" horiz-adv-x="868" 
d="M88 0v740h88l466 -501l-3 501h141v-740h-87l-466 501l2 -501h-141z" />
    <glyph glyph-name="Nacute" unicode="&#x143;" horiz-adv-x="868" 
d="M349 819l136 161h158l-178 -161h-116zM88 0v740h88l466 -501l-3 501h141v-740h-87l-466 501l2 -501h-141z" />
    <glyph glyph-name="Ncaron" unicode="&#x147;" horiz-adv-x="868" 
d="M498 819h-130l-131 161h126l70 -84l71 84h125zM639 740h141v-740h-87l-466 501l2 -501h-141v740h88l466 -501z" />
    <glyph glyph-name="Ncommaaccent" unicode="&#x145;" horiz-adv-x="868" 
d="M88 0v740h88l466 -501l-3 501h141v-740h-87l-466 501l2 -501h-141zM330 -220l43 168h122l-62 -168h-103z" />
    <glyph glyph-name="Eng" unicode="&#x14a;" horiz-adv-x="868" 
d="M639 740h141v-800c0 -102 -79 -170 -194 -170c-61 0 -111 20 -146 58l37 95c24 -25 53 -36 82 -36c50 0 80 31 80 78v93l-412 443l2 -501h-141v740h88l466 -501z" />
    <glyph glyph-name="Ntilde" unicode="&#xd1;" horiz-adv-x="868" 
d="M515 820c-63 0 -118 56 -161 56c-24 0 -41 -18 -41 -46h-74c0 87 46 144 114 144c66 0 117 -56 160 -56c25 0 41 16 41 46h74c0 -92 -45 -144 -113 -144zM88 0v740h88l466 -501l-3 501h141v-740h-87l-466 501l2 -501h-141z" />
    <glyph glyph-name="O" unicode="O" horiz-adv-x="863" 
d="M432 -10c-233 0 -389 152 -389 380s156 380 389 380c232 0 388 -152 388 -380s-156 -380 -388 -380zM432 107c145 0 242 105 242 263s-97 263 -242 263s-243 -105 -243 -263s98 -263 243 -263z" />
    <glyph glyph-name="Oacute" unicode="&#xd3;" horiz-adv-x="863" 
d="M347 819l136 161h158l-178 -161h-116zM432 -10c-233 0 -389 152 -389 380s156 380 389 380c232 0 388 -152 388 -380s-156 -380 -388 -380zM432 107c145 0 242 105 242 263s-97 263 -242 263s-243 -105 -243 -263s98 -263 243 -263z" />
    <glyph glyph-name="Ocircumflex" unicode="&#xd4;" horiz-adv-x="863" 
d="M431 903l-70 -84h-126l131 161h130l131 -161h-125zM432 750c232 0 388 -152 388 -380s-156 -380 -388 -380c-233 0 -389 152 -389 380s156 380 389 380zM432 107c145 0 242 105 242 263s-97 263 -242 263s-243 -105 -243 -263s98 -263 243 -263z" />
    <glyph glyph-name="Odieresis" unicode="&#xd6;" horiz-adv-x="863" 
d="M309 828c-47 0 -81 33 -81 80s34 81 81 81s81 -34 81 -81s-34 -80 -81 -80zM554 828c-47 0 -81 33 -81 80s34 81 81 81s81 -34 81 -81s-34 -80 -81 -80zM432 -10c-233 0 -389 152 -389 380s156 380 389 380c232 0 388 -152 388 -380s-156 -380 -388 -380zM432 107
c145 0 242 105 242 263s-97 263 -242 263s-243 -105 -243 -263s98 -263 243 -263z" />
    <glyph glyph-name="Ograve" unicode="&#xd2;" horiz-adv-x="863" 
d="M400 819l-178 161h159l135 -161h-116zM432 -10c-233 0 -389 152 -389 380s156 380 389 380c232 0 388 -152 388 -380s-156 -380 -388 -380zM432 107c145 0 242 105 242 263s-97 263 -242 263s-243 -105 -243 -263s98 -263 243 -263z" />
    <glyph glyph-name="Ohungarumlaut" unicode="&#x150;" horiz-adv-x="863" 
d="M268 819l106 161h159l-149 -161h-116zM465 819l106 161h159l-149 -161h-116zM432 -10c-233 0 -389 152 -389 380s156 380 389 380c232 0 388 -152 388 -380s-156 -380 -388 -380zM432 107c145 0 242 105 242 263s-97 263 -242 263s-243 -105 -243 -263s98 -263 243 -263z
" />
    <glyph glyph-name="Omacron" unicode="&#x14c;" horiz-adv-x="863" 
d="M254 825v107h356v-107h-356zM432 -10c-233 0 -389 152 -389 380s156 380 389 380c232 0 388 -152 388 -380s-156 -380 -388 -380zM432 107c145 0 242 105 242 263s-97 263 -242 263s-243 -105 -243 -263s98 -263 243 -263z" />
    <glyph glyph-name="Oslash" unicode="&#xd8;" horiz-adv-x="865" 
d="M750 602c45 -62 70 -141 70 -232c0 -228 -156 -380 -388 -380c-91 0 -170 23 -232 64l-65 -64l-87 81l66 65c-46 63 -71 142 -71 234c0 228 156 380 389 380c91 0 171 -24 234 -66l66 66l86 -81zM189 370c0 -50 10 -94 27 -132l356 353c-38 27 -86 42 -140 42
c-145 0 -243 -105 -243 -263zM432 107c145 0 242 105 242 263c0 49 -9 93 -26 130l-355 -353c38 -26 85 -40 139 -40z" />
    <glyph glyph-name="Otilde" unicode="&#xd5;" horiz-adv-x="863" 
d="M513 820c-63 0 -118 56 -161 56c-24 0 -41 -18 -41 -46h-74c0 87 46 144 114 144c66 0 117 -56 160 -56c25 0 41 16 41 46h74c0 -92 -45 -144 -113 -144zM432 -10c-233 0 -389 152 -389 380s156 380 389 380c232 0 388 -152 388 -380s-156 -380 -388 -380zM432 107
c145 0 242 105 242 263s-97 263 -242 263s-243 -105 -243 -263s98 -263 243 -263z" />
    <glyph glyph-name="OE" unicode="&#x152;" horiz-adv-x="1242" 
d="M821 117h369v-117h-510v84c-64 -60 -152 -94 -257 -94c-227 0 -379 152 -379 380s152 380 379 380c105 0 193 -34 257 -94v84h502v-117h-361v-190h329v-116h-329v-200zM433 107c145 0 242 105 242 263s-97 263 -242 263c-146 0 -243 -105 -243 -263s97 -263 243 -263z
" />
    <glyph glyph-name="P" unicode="P" horiz-adv-x="675" 
d="M388 740c156 0 259 -96 259 -239c0 -149 -105 -249 -264 -249h-154v-252h-141v740h300zM373 369c80 0 129 51 129 127s-51 127 -129 127h-144v-254h144z" />
    <glyph glyph-name="Thorn" unicode="&#xde;" horiz-adv-x="675" 
d="M388 620c156 0 259 -95 259 -239c0 -149 -105 -249 -264 -249h-154v-132h-141v740h141v-120h159zM373 249c80 0 129 51 129 127c0 77 -51 128 -129 128h-144v-255h144z" />
    <glyph glyph-name="Q" unicode="Q" horiz-adv-x="864" 
d="M843 0h-167l-35 41c-59 -33 -129 -51 -209 -51c-233 0 -389 152 -389 380s156 380 389 380c232 0 388 -152 388 -380c0 -101 -30 -186 -84 -251zM432 107c47 0 88 11 123 31l-122 140h160l47 -53c22 41 34 90 34 145c0 158 -97 263 -242 263s-243 -105 -243 -263
s98 -263 243 -263z" />
    <glyph glyph-name="R" unicode="R" horiz-adv-x="731" 
d="M549 0l-169 272h-151v-272h-141v740h310c156 0 259 -94 259 -234c0 -96 -51 -170 -137 -207l195 -299h-166zM229 623v-234h143c84 0 140 47 140 117s-52 117 -130 117h-153z" />
    <glyph glyph-name="Racute" unicode="&#x154;" horiz-adv-x="731" 
d="M548 980l-178 -161h-116l136 161h158zM549 0l-169 272h-151v-272h-141v740h310c156 0 259 -94 259 -234c0 -96 -51 -170 -137 -207l195 -299h-166zM229 623v-234h143c84 0 140 47 140 117s-52 117 -130 117h-153z" />
    <glyph glyph-name="Rcaron" unicode="&#x158;" horiz-adv-x="731" 
d="M403 819h-130l-131 161h126l70 -84l71 84h125zM549 0l-169 272h-151v-272h-141v740h310c156 0 259 -94 259 -234c0 -96 -51 -170 -137 -207l195 -299h-166zM229 623v-234h143c84 0 140 47 140 117s-52 117 -130 117h-153z" />
    <glyph glyph-name="Rcommaaccent" unicode="&#x156;" horiz-adv-x="731" 
d="M520 299l195 -299h-166l-169 272h-151v-272h-141v740h310c156 0 259 -94 259 -234c0 -96 -51 -170 -137 -207zM229 623v-234h143c84 0 140 47 140 117s-52 117 -130 117h-153zM271 -220l43 168h122l-62 -168h-103z" />
    <glyph glyph-name="S" unicode="S" horiz-adv-x="650" 
d="M322 -10c-102 0 -197 32 -263 93l53 95c63 -52 133 -71 201 -71c93 0 147 32 147 89c0 60 -62 86 -155 112l-42 12c-122 33 -213 84 -213 205c0 135 109 225 274 225c95 0 179 -28 250 -85l-63 -98c-55 44 -114 66 -186 66c-78 0 -129 -33 -129 -85
c0 -59 59 -80 132 -101l43 -12c114 -31 235 -93 235 -226c0 -131 -114 -219 -284 -219z" />
    <glyph glyph-name="Sacute" unicode="&#x15a;" horiz-adv-x="650" 
d="M240 819l136 161h158l-178 -161h-116zM322 -10c-102 0 -197 32 -263 93l53 95c63 -52 133 -71 201 -71c93 0 147 32 147 89c0 60 -62 86 -155 112l-42 12c-122 33 -213 84 -213 205c0 135 109 225 274 225c95 0 179 -28 250 -85l-63 -98c-55 44 -114 66 -186 66
c-78 0 -129 -33 -129 -85c0 -59 59 -80 132 -101l43 -12c114 -31 235 -93 235 -226c0 -131 -114 -219 -284 -219z" />
    <glyph glyph-name="Scaron" unicode="&#x160;" horiz-adv-x="650" 
d="M389 819h-130l-131 161h126l70 -84l71 84h125zM371 435c114 -31 235 -93 235 -226c0 -131 -114 -219 -284 -219c-102 0 -197 32 -263 93l53 95c63 -52 133 -71 201 -71c93 0 147 32 147 89c0 60 -62 86 -155 112l-42 12c-122 33 -213 84 -213 205c0 135 109 225 274 225
c95 0 179 -28 250 -85l-63 -98c-55 44 -114 66 -186 66c-78 0 -129 -33 -129 -85c0 -59 59 -80 132 -101z" />
    <glyph glyph-name="Scedilla" unicode="&#x15e;" horiz-adv-x="650" 
d="M606 209c0 -119 -94 -202 -238 -217l-29 -46c64 -2 105 -36 105 -84c0 -55 -51 -92 -131 -92c-40 0 -78 10 -100 25l25 50c14 -11 36 -18 61 -18c34 0 54 14 54 34c0 19 -20 31 -49 31c-14 0 -26 -3 -37 -8l-18 32l42 75c-90 6 -173 37 -232 92l53 95
c63 -52 133 -71 201 -71c93 0 147 32 147 89c0 60 -62 86 -155 112l-42 12c-122 33 -213 84 -213 205c0 135 109 225 274 225c95 0 179 -28 250 -85l-63 -98c-55 44 -114 66 -186 66c-78 0 -129 -33 -129 -85c0 -59 59 -80 132 -101l43 -12c114 -31 235 -93 235 -226z" />
    <glyph glyph-name="Scommaaccent" unicode="&#x218;" horiz-adv-x="650" 
d="M322 -10c-102 0 -197 32 -263 93l53 95c63 -52 133 -71 201 -71c93 0 147 32 147 89c0 60 -62 86 -155 112l-42 12c-122 33 -213 84 -213 205c0 135 109 225 274 225c95 0 179 -28 250 -85l-63 -98c-55 44 -114 66 -186 66c-78 0 -129 -33 -129 -85
c0 -59 59 -80 132 -101l43 -12c114 -31 235 -93 235 -226c0 -131 -114 -219 -284 -219zM228 -220l43 168h122l-62 -168h-103z" />
    <glyph glyph-name="uni1E9E" unicode="&#x1e9e;" horiz-adv-x="694" 
d="M510 391c89 -33 142 -99 142 -182c0 -131 -101 -219 -252 -219c-37 0 -79 6 -108 16l13 112c24 -9 46 -11 70 -11c79 0 131 45 131 112c0 69 -60 115 -150 115v107c68 0 112 38 112 97c0 58 -48 95 -122 95s-123 -38 -123 -95v-538h-141v554c0 117 106 196 264 196
c161 0 269 -78 269 -193c0 -73 -39 -131 -105 -166z" />
    <glyph glyph-name="T" unicode="T" horiz-adv-x="622" 
d="M607 740v-117h-226v-623h-141v623h-225v117h592z" />
    <glyph glyph-name="Tbar" unicode="&#x166;" horiz-adv-x="622" 
d="M607 623h-226v-213h124v-97h-124v-313h-141v313h-120v97h120v213h-225v117h592v-117z" />
    <glyph glyph-name="Tcaron" unicode="&#x164;" horiz-adv-x="622" 
d="M375 819h-130l-131 161h126l70 -84l71 84h125zM607 740v-117h-226v-623h-141v623h-225v117h592z" />
    <glyph glyph-name="uni0162" unicode="&#x162;" horiz-adv-x="622" 
d="M381 0h-30l-34 -54c64 -2 105 -36 105 -84c0 -55 -51 -92 -131 -92c-40 0 -78 10 -100 25l25 50c14 -11 36 -18 61 -18c34 0 54 14 54 34c0 19 -20 31 -49 31c-14 0 -26 -3 -37 -8l-18 32l47 84h-34v623h-225v117h592v-117h-226v-623z" />
    <glyph glyph-name="uni021A" unicode="&#x21a;" horiz-adv-x="622" 
d="M607 740v-117h-226v-623h-141v623h-225v117h592zM206 -220l43 168h122l-62 -168h-103z" />
    <glyph glyph-name="U" unicode="U" horiz-adv-x="806" 
d="M404 -10c-195 0 -325 116 -325 290v460h141v-454c0 -107 74 -179 184 -179c109 0 182 72 182 179v454h141v-460c0 -174 -129 -290 -323 -290z" />
    <glyph glyph-name="Uacute" unicode="&#xda;" horiz-adv-x="806" 
d="M319 819l136 161h158l-178 -161h-116zM404 -10c-195 0 -325 116 -325 290v460h141v-454c0 -107 74 -179 184 -179c109 0 182 72 182 179v454h141v-460c0 -174 -129 -290 -323 -290z" />
    <glyph glyph-name="Ucircumflex" unicode="&#xdb;" horiz-adv-x="806" 
d="M403 903l-70 -84h-126l131 161h130l131 -161h-125zM586 740h141v-460c0 -174 -129 -290 -323 -290c-195 0 -325 116 -325 290v460h141v-454c0 -107 74 -179 184 -179c109 0 182 72 182 179v454z" />
    <glyph glyph-name="Udieresis" unicode="&#xdc;" horiz-adv-x="806" 
d="M281 828c-47 0 -81 33 -81 80s34 81 81 81s81 -34 81 -81s-34 -80 -81 -80zM526 828c-47 0 -81 33 -81 80s34 81 81 81s81 -34 81 -81s-34 -80 -81 -80zM404 -10c-195 0 -325 116 -325 290v460h141v-454c0 -107 74 -179 184 -179c109 0 182 72 182 179v454h141v-460
c0 -174 -129 -290 -323 -290z" />
    <glyph glyph-name="Ugrave" unicode="&#xd9;" horiz-adv-x="806" 
d="M372 819l-178 161h159l135 -161h-116zM404 -10c-195 0 -325 116 -325 290v460h141v-454c0 -107 74 -179 184 -179c109 0 182 72 182 179v454h141v-460c0 -174 -129 -290 -323 -290z" />
    <glyph glyph-name="Uhungarumlaut" unicode="&#x170;" horiz-adv-x="806" 
d="M240 819l106 161h159l-149 -161h-116zM437 819l106 161h159l-149 -161h-116zM404 -10c-195 0 -325 116 -325 290v460h141v-454c0 -107 74 -179 184 -179c109 0 182 72 182 179v454h141v-460c0 -174 -129 -290 -323 -290z" />
    <glyph glyph-name="Umacron" unicode="&#x16a;" horiz-adv-x="806" 
d="M226 825v107h356v-107h-356zM404 -10c-195 0 -325 116 -325 290v460h141v-454c0 -107 74 -179 184 -179c109 0 182 72 182 179v454h141v-460c0 -174 -129 -290 -323 -290z" />
    <glyph glyph-name="Uogonek" unicode="&#x172;" horiz-adv-x="806" 
d="M586 740h141v-460c0 -145 -89 -249 -231 -280c-62 -40 -92 -81 -92 -119c0 -20 14 -33 36 -33c18 0 35 6 48 17l12 -67c-24 -17 -51 -28 -93 -28c-61 0 -101 36 -101 89c0 46 29 90 79 131c-184 8 -306 122 -306 290v460h141v-454c0 -107 74 -179 184 -179
c109 0 182 72 182 179v454z" />
    <glyph glyph-name="Uring" unicode="&#x16e;" horiz-adv-x="806" 
d="M404 785c-71 0 -117 43 -117 108s46 108 117 108c70 0 117 -43 117 -108s-47 -108 -117 -108zM404 846c27 0 44 19 44 47s-17 46 -44 46s-45 -18 -45 -46s18 -47 45 -47zM404 -10c-195 0 -325 116 -325 290v460h141v-454c0 -107 74 -179 184 -179c109 0 182 72 182 179
v454h141v-460c0 -174 -129 -290 -323 -290z" />
    <glyph glyph-name="V" unicode="V" horiz-adv-x="758" 
d="M314 0l-316 740h150l232 -565l229 565h151l-315 -740h-131z" />
    <glyph glyph-name="W" unicode="W" horiz-adv-x="1138" 
d="M985 740h150l-255 -740h-131l-180 541l-179 -541h-131l-256 740h151l178 -551l171 551h132l173 -551z" />
    <glyph glyph-name="Wacute" unicode="&#x1e82;" horiz-adv-x="1138" 
d="M779 980l-178 -161h-116l136 161h158zM985 740h150l-255 -740h-131l-180 541l-179 -541h-131l-256 740h151l178 -551l171 551h132l173 -551z" />
    <glyph glyph-name="Wcircumflex" unicode="&#x174;" horiz-adv-x="1138" 
d="M569 903l-70 -84h-126l131 161h130l131 -161h-125zM985 740h150l-255 -740h-131l-180 541l-179 -541h-131l-256 740h151l178 -551l171 551h132l173 -551z" />
    <glyph glyph-name="Wdieresis" unicode="&#x1e84;" horiz-adv-x="1138" 
d="M447 828c-47 0 -81 33 -81 80s34 81 81 81s81 -34 81 -81s-34 -80 -81 -80zM692 828c-47 0 -81 33 -81 80s34 81 81 81s81 -34 81 -81s-34 -80 -81 -80zM985 740h150l-255 -740h-131l-180 541l-179 -541h-131l-256 740h151l178 -551l171 551h132l173 -551z" />
    <glyph glyph-name="Wgrave" unicode="&#x1e80;" horiz-adv-x="1138" 
d="M654 819h-116l-178 161h159zM985 740h150l-255 -740h-131l-180 541l-179 -541h-131l-256 740h151l178 -551l171 551h132l173 -551z" />
    <glyph glyph-name="X" unicode="X" horiz-adv-x="687" 
d="M690 0h-163l-184 274l-183 -274h-163l268 383l-249 357h163l164 -247l164 247h163l-249 -357z" />
    <glyph glyph-name="Y" unicode="Y" horiz-adv-x="692" 
d="M531 740h150l-264 -467v-273h-141v273l-265 467h151l185 -342z" />
    <glyph glyph-name="Yacute" unicode="&#xdd;" horiz-adv-x="692" 
d="M556 980l-178 -161h-116l136 161h158zM531 740h150l-264 -467v-273h-141v273l-265 467h151l185 -342z" />
    <glyph glyph-name="Ycircumflex" unicode="&#x176;" horiz-adv-x="692" 
d="M346 903l-70 -84h-126l131 161h130l131 -161h-125zM531 740h150l-264 -467v-273h-141v273l-265 467h151l185 -342z" />
    <glyph glyph-name="Ydieresis" unicode="&#x178;" horiz-adv-x="692" 
d="M224 828c-47 0 -81 33 -81 80s34 81 81 81s81 -34 81 -81s-34 -80 -81 -80zM469 828c-47 0 -81 33 -81 80s34 81 81 81s81 -34 81 -81s-34 -80 -81 -80zM531 740h150l-264 -467v-273h-141v273l-265 467h151l185 -342z" />
    <glyph glyph-name="Ygrave" unicode="&#x1ef2;" horiz-adv-x="692" 
d="M431 819h-116l-178 161h159zM531 740h150l-264 -467v-273h-141v273l-265 467h151l185 -342z" />
    <glyph glyph-name="Z" unicode="Z" horiz-adv-x="668" 
d="M229 117h404v-117h-597v88l394 535h-388v117h581v-87z" />
    <glyph glyph-name="Zacute" unicode="&#x179;" horiz-adv-x="668" 
d="M541 980l-178 -161h-116l136 161h158zM229 117h404v-117h-597v88l394 535h-388v117h581v-87z" />
    <glyph glyph-name="Zcaron" unicode="&#x17d;" horiz-adv-x="668" 
d="M396 819h-130l-131 161h126l70 -84l71 84h125zM229 117h404v-117h-597v88l394 535h-388v117h581v-87z" />
    <glyph glyph-name="Zdotaccent" unicode="&#x17b;" horiz-adv-x="668" 
d="M332 828c-47 0 -81 33 -81 80s34 81 81 81s81 -34 81 -81s-34 -80 -81 -80zM229 117h404v-117h-597v88l394 535h-388v117h581v-87z" />
    <glyph glyph-name="A.ss01" horiz-adv-x="807" 
d="M404 750c194 0 323 -116 323 -290v-460h-141v217h-365v-217h-141v460c0 174 130 290 324 290zM221 333h365v121c0 107 -73 179 -181 179c-111 0 -184 -72 -184 -179v-121z" />
    <glyph glyph-name="Aacute.ss01" horiz-adv-x="807" 
d="M613 980l-178 -161h-116l136 161h158zM404 750c194 0 323 -116 323 -290v-460h-141v217h-365v-217h-141v460c0 174 130 290 324 290zM221 333h365v121c0 107 -73 179 -181 179c-111 0 -184 -72 -184 -179v-121z" />
    <glyph glyph-name="Abreve.ss01" horiz-adv-x="807" 
d="M404 810c-109 0 -181 68 -181 170h103c0 -54 32 -91 78 -91c48 0 79 37 79 91h103c0 -102 -72 -170 -182 -170zM404 750c194 0 323 -116 323 -290v-460h-141v217h-365v-217h-141v460c0 174 130 290 324 290zM221 333h365v121c0 107 -73 179 -181 179
c-111 0 -184 -72 -184 -179v-121z" />
    <glyph glyph-name="Acircumflex.ss01" horiz-adv-x="807" 
d="M403 903l-70 -84h-126l131 161h130l131 -161h-125zM404 750c194 0 323 -116 323 -290v-460h-141v217h-365v-217h-141v460c0 174 130 290 324 290zM221 333h365v121c0 107 -73 179 -181 179c-111 0 -184 -72 -184 -179v-121z" />
    <glyph glyph-name="Adieresis.ss01" horiz-adv-x="807" 
d="M281 828c-47 0 -81 33 -81 80s34 81 81 81s81 -34 81 -81s-34 -80 -81 -80zM526 828c-47 0 -81 33 -81 80s34 81 81 81s81 -34 81 -81s-34 -80 -81 -80zM404 750c194 0 323 -116 323 -290v-460h-141v217h-365v-217h-141v460c0 174 130 290 324 290zM221 333h365v121
c0 107 -73 179 -181 179c-111 0 -184 -72 -184 -179v-121z" />
    <glyph glyph-name="Agrave.ss01" horiz-adv-x="807" 
d="M488 819h-116l-178 161h159zM404 750c194 0 323 -116 323 -290v-460h-141v217h-365v-217h-141v460c0 174 130 290 324 290zM221 333h365v121c0 107 -73 179 -181 179c-111 0 -184 -72 -184 -179v-121z" />
    <glyph glyph-name="Amacron.ss01" horiz-adv-x="807" 
d="M582 932v-107h-356v107h356zM404 750c194 0 323 -116 323 -290v-460h-141v217h-365v-217h-141v460c0 174 130 290 324 290zM221 333h365v121c0 107 -73 179 -181 179c-111 0 -184 -72 -184 -179v-121z" />
    <glyph glyph-name="Aogonek.ss01" horiz-adv-x="807" 
d="M718 -135l12 -67c-24 -17 -51 -28 -93 -28c-61 0 -101 36 -101 89c0 50 33 97 91 141h-41v217h-365v-217h-141v460c0 174 130 290 324 290s323 -116 323 -290v-460c-63 -40 -93 -81 -93 -119c0 -20 14 -33 36 -33c18 0 35 6 48 17zM221 333h365v121
c0 107 -73 179 -181 179c-111 0 -184 -72 -184 -179v-121z" />
    <glyph glyph-name="Aring.ss01" horiz-adv-x="807" 
d="M404 785c-71 0 -117 43 -117 108s46 108 117 108c70 0 117 -43 117 -108s-47 -108 -117 -108zM404 939c-27 0 -45 -18 -45 -46s18 -47 45 -47s44 19 44 47s-17 46 -44 46zM404 750c194 0 323 -116 323 -290v-460h-141v217h-365v-217h-141v460c0 174 130 290 324 290z
M221 333h365v121c0 107 -73 179 -181 179c-111 0 -184 -72 -184 -179v-121z" />
    <glyph glyph-name="Atilde.ss01" horiz-adv-x="807" 
d="M324 876c-24 0 -41 -18 -41 -46h-74c0 87 46 144 114 144c66 0 117 -56 160 -56c25 0 41 16 41 46h74c0 -92 -45 -144 -113 -144c-63 0 -118 56 -161 56zM404 750c194 0 323 -116 323 -290v-460h-141v217h-365v-217h-141v460c0 174 130 290 324 290zM221 333h365v121
c0 107 -73 179 -181 179c-111 0 -184 -72 -184 -179v-121z" />
    <glyph glyph-name="AE.ss01" horiz-adv-x="963" 
d="M592 117h320v-117h-461v217h-234v-217h-140v400c0 204 149 340 374 340h453v-117h-312v-190h280v-116h-280v-200zM217 394v-61h234v290c-140 0 -234 -92 -234 -229z" />
    <glyph glyph-name="J.ss01" horiz-adv-x="586" 
d="M505 740v-491c0 -156 -108 -259 -272 -259c-85 0 -158 30 -214 84l70 94c34 -39 81 -61 135 -61c84 0 140 59 140 148v368h-309v117h450z" />
    <glyph glyph-name="C.ss02" horiz-adv-x="656" 
d="M432 -10c-233 0 -389 152 -389 380s156 380 389 380c68 0 129 -15 181 -47v-129c-42 37 -104 59 -179 59c-147 0 -245 -105 -245 -263s98 -263 245 -263c75 0 137 22 179 59v-129c-52 -32 -113 -47 -181 -47z" />
    <glyph glyph-name="Cacute.ss02" horiz-adv-x="656" 
d="M341 819l136 161h158l-178 -161h-116zM432 -10c-233 0 -389 152 -389 380s156 380 389 380c68 0 129 -15 181 -47v-129c-42 37 -104 59 -179 59c-147 0 -245 -105 -245 -263s98 -263 245 -263c75 0 137 22 179 59v-129c-52 -32 -113 -47 -181 -47z" />
    <glyph glyph-name="Ccaron.ss02" horiz-adv-x="656" 
d="M490 819h-130l-131 161h126l70 -84l71 84h125zM43 370c0 228 156 380 389 380c68 0 129 -15 181 -47v-129c-42 37 -104 59 -179 59c-147 0 -245 -105 -245 -263s98 -263 245 -263c75 0 137 22 179 59v-129c-52 -32 -113 -47 -181 -47c-233 0 -389 152 -389 380z" />
    <glyph glyph-name="Ccedilla.ss02" horiz-adv-x="656" 
d="M434 633c-147 0 -245 -105 -245 -263s98 -263 245 -263c75 0 137 22 179 59v-129c-45 -28 -97 -43 -155 -46l-28 -45c64 -2 105 -36 105 -84c0 -55 -51 -92 -131 -92c-40 0 -78 10 -100 25l25 50c14 -11 36 -18 61 -18c34 0 54 14 54 34c0 19 -20 31 -49 31
c-14 0 -26 -3 -37 -8l-18 32l43 76c-206 20 -340 166 -340 378c0 228 156 380 389 380c68 0 129 -15 181 -47v-129c-42 37 -104 59 -179 59z" />
    <glyph glyph-name="Cdotaccent.ss02" horiz-adv-x="656" 
d="M426 828c-47 0 -81 33 -81 80s34 81 81 81s81 -34 81 -81s-34 -80 -81 -80zM432 -10c-233 0 -389 152 -389 380s156 380 389 380c68 0 129 -15 181 -47v-129c-42 37 -104 59 -179 59c-147 0 -245 -105 -245 -263s98 -263 245 -263c75 0 137 22 179 59v-129
c-52 -32 -113 -47 -181 -47z" />
    <glyph glyph-name="Z.ss02" horiz-adv-x="609" 
d="M242 117h338v-117h-553l333 623h-327v117h541z" />
    <glyph glyph-name="Zacute.ss02" horiz-adv-x="609" 
d="M514 980l-178 -161h-116l136 161h158zM242 117h338v-117h-553l333 623h-327v117h541z" />
    <glyph glyph-name="Zcaron.ss02" horiz-adv-x="609" 
d="M369 819h-130l-131 161h126l70 -84l71 84h125zM242 117h338v-117h-553l333 623h-327v117h541z" />
    <glyph glyph-name="Zdotaccent.ss02" horiz-adv-x="609" 
d="M305 828c-47 0 -81 33 -81 80s34 81 81 81s81 -34 81 -81s-34 -80 -81 -80zM242 117h338v-117h-553l333 623h-327v117h541z" />
    <glyph glyph-name="a" unicode="a" horiz-adv-x="577" 
d="M283 549c138 0 231 -83 231 -210v-339h-131l-3 77c-36 -56 -98 -87 -164 -87c-112 0 -187 67 -187 167c0 104 92 172 230 172c37 0 78 -4 119 -12v10c0 72 -48 115 -130 115c-51 0 -92 -15 -126 -43l-59 80c58 47 126 70 220 70zM255 87c63 0 122 50 123 138
c-35 7 -71 11 -102 11c-64 0 -105 -30 -105 -76c0 -44 29 -73 84 -73z" />
    <glyph glyph-name="aacute" unicode="&#xe1;" horiz-adv-x="577" 
d="M502 779l-178 -161h-116l136 161h158zM283 549c138 0 231 -83 231 -210v-339h-131l-3 77c-36 -56 -98 -87 -164 -87c-112 0 -187 67 -187 167c0 104 92 172 230 172c37 0 78 -4 119 -12v10c0 72 -48 115 -130 115c-51 0 -92 -15 -126 -43l-59 80c58 47 126 70 220 70z
M255 87c63 0 122 50 123 138c-35 7 -71 11 -102 11c-64 0 -105 -30 -105 -76c0 -44 29 -73 84 -73z" />
    <glyph glyph-name="abreve" unicode="&#x103;" horiz-adv-x="577" 
d="M293 609c-109 0 -181 68 -181 170h103c0 -54 32 -91 78 -91c48 0 79 37 79 91h103c0 -102 -72 -170 -182 -170zM283 549c138 0 231 -83 231 -210v-339h-131l-3 77c-36 -56 -98 -87 -164 -87c-112 0 -187 67 -187 167c0 104 92 172 230 172c37 0 78 -4 119 -12v10
c0 72 -48 115 -130 115c-51 0 -92 -15 -126 -43l-59 80c58 47 126 70 220 70zM255 87c63 0 122 50 123 138c-35 7 -71 11 -102 11c-64 0 -105 -30 -105 -76c0 -44 29 -73 84 -73z" />
    <glyph glyph-name="acircumflex" unicode="&#xe2;" horiz-adv-x="577" 
d="M292 702l-70 -84h-126l131 161h130l131 -161h-125zM283 549c138 0 231 -83 231 -210v-339h-131l-3 77c-36 -56 -98 -87 -164 -87c-112 0 -187 67 -187 167c0 104 92 172 230 172c37 0 78 -4 119 -12v10c0 72 -48 115 -130 115c-51 0 -92 -15 -126 -43l-59 80
c58 47 126 70 220 70zM255 87c63 0 122 50 123 138c-35 7 -71 11 -102 11c-64 0 -105 -30 -105 -76c0 -44 29 -73 84 -73z" />
    <glyph glyph-name="adieresis" unicode="&#xe4;" horiz-adv-x="577" 
d="M170 627c-47 0 -81 33 -81 80s34 81 81 81s81 -34 81 -81s-34 -80 -81 -80zM415 627c-47 0 -81 33 -81 80s34 81 81 81s81 -34 81 -81s-34 -80 -81 -80zM283 549c138 0 231 -83 231 -210v-339h-131l-3 77c-36 -56 -98 -87 -164 -87c-112 0 -187 67 -187 167
c0 104 92 172 230 172c37 0 78 -4 119 -12v10c0 72 -48 115 -130 115c-51 0 -92 -15 -126 -43l-59 80c58 47 126 70 220 70zM255 87c63 0 122 50 123 138c-35 7 -71 11 -102 11c-64 0 -105 -30 -105 -76c0 -44 29 -73 84 -73z" />
    <glyph glyph-name="agrave" unicode="&#xe0;" horiz-adv-x="577" 
d="M377 618h-116l-178 161h159zM283 549c138 0 231 -83 231 -210v-339h-131l-3 77c-36 -56 -98 -87 -164 -87c-112 0 -187 67 -187 167c0 104 92 172 230 172c37 0 78 -4 119 -12v10c0 72 -48 115 -130 115c-51 0 -92 -15 -126 -43l-59 80c58 47 126 70 220 70zM255 87
c63 0 122 50 123 138c-35 7 -71 11 -102 11c-64 0 -105 -30 -105 -76c0 -44 29 -73 84 -73z" />
    <glyph glyph-name="amacron" unicode="&#x101;" horiz-adv-x="577" 
d="M471 731v-107h-356v107h356zM283 549c138 0 231 -83 231 -210v-339h-131l-3 77c-36 -56 -98 -87 -164 -87c-112 0 -187 67 -187 167c0 104 92 172 230 172c37 0 78 -4 119 -12v10c0 72 -48 115 -130 115c-51 0 -92 -15 -126 -43l-59 80c58 47 126 70 220 70zM255 87
c63 0 122 50 123 138c-35 7 -71 11 -102 11c-64 0 -105 -30 -105 -76c0 -44 29 -73 84 -73z" />
    <glyph glyph-name="aogonek" unicode="&#x105;" horiz-adv-x="577" 
d="M505 -135l12 -67c-24 -17 -51 -28 -93 -28c-61 0 -101 36 -101 89c0 50 33 97 91 141h-31l-3 77c-36 -56 -98 -87 -164 -87c-112 0 -187 67 -187 167c0 104 92 172 230 172c37 0 78 -4 119 -12v10c0 72 -48 115 -130 115c-51 0 -92 -15 -126 -43l-59 80
c58 47 126 70 220 70c138 0 231 -83 231 -210v-339c-63 -40 -93 -81 -93 -119c0 -20 14 -33 36 -33c18 0 35 6 48 17zM255 87c63 0 122 50 123 138c-35 7 -71 11 -102 11c-64 0 -105 -30 -105 -76c0 -44 29 -73 84 -73z" />
    <glyph glyph-name="aring" unicode="&#xe5;" horiz-adv-x="577" 
d="M293 584c-71 0 -117 43 -117 108s46 108 117 108c70 0 117 -43 117 -108s-47 -108 -117 -108zM293 738c-27 0 -45 -18 -45 -46s18 -47 45 -47s44 19 44 47s-17 46 -44 46zM283 549c138 0 231 -83 231 -210v-339h-131l-3 77c-36 -56 -98 -87 -164 -87
c-112 0 -187 67 -187 167c0 104 92 172 230 172c37 0 78 -4 119 -12v10c0 72 -48 115 -130 115c-51 0 -92 -15 -126 -43l-59 80c58 47 126 70 220 70zM255 87c63 0 122 50 123 138c-35 7 -71 11 -102 11c-64 0 -105 -30 -105 -76c0 -44 29 -73 84 -73z" />
    <glyph glyph-name="atilde" unicode="&#xe3;" horiz-adv-x="577" 
d="M213 675c-24 0 -41 -18 -41 -46h-74c0 87 46 144 114 144c66 0 117 -56 160 -56c25 0 41 16 41 46h74c0 -92 -45 -144 -113 -144c-63 0 -118 56 -161 56zM283 549c138 0 231 -83 231 -210v-339h-131l-3 77c-36 -56 -98 -87 -164 -87c-112 0 -187 67 -187 167
c0 104 92 172 230 172c37 0 78 -4 119 -12v10c0 72 -48 115 -130 115c-51 0 -92 -15 -126 -43l-59 80c58 47 126 70 220 70zM255 87c63 0 122 50 123 138c-35 7 -71 11 -102 11c-64 0 -105 -30 -105 -76c0 -44 29 -73 84 -73z" />
    <glyph glyph-name="ae" unicode="&#xe6;" horiz-adv-x="942" 
d="M906 278c0 -19 -1 -41 -3 -57h-391c10 -76 51 -124 130 -124c55 0 100 25 132 64l104 -53c-46 -72 -127 -118 -225 -118c-91 0 -165 38 -211 101c-42 -65 -122 -101 -207 -101c-123 0 -206 67 -206 167c0 104 92 172 230 172c37 0 78 -4 119 -12v10
c0 72 -48 115 -130 115c-51 0 -92 -15 -126 -43l-59 80c55 47 120 70 210 70c80 0 144 -34 182 -86c46 54 112 86 192 86c155 0 259 -108 259 -271zM637 442c-72 0 -114 -47 -125 -129h252c-10 82 -54 129 -127 129zM255 87c63 0 122 50 123 138c-35 7 -71 11 -102 11
c-64 0 -105 -30 -105 -76c0 -44 29 -73 84 -73z" />
    <glyph glyph-name="b" unicode="b" horiz-adv-x="680" 
d="M384 549c145 0 258 -113 258 -282c0 -166 -113 -277 -258 -277c-83 0 -143 34 -181 91l-3 -81h-131v780h136v-319c38 55 97 88 179 88zM353 107c88 0 148 65 148 162c0 98 -60 164 -148 164c-89 0 -148 -66 -148 -163c0 -98 59 -163 148 -163z" />
    <glyph glyph-name="c" unicode="c" horiz-adv-x="548" 
d="M325 -10c-172 0 -287 112 -287 280c0 167 116 279 290 279c72 0 135 -23 185 -62l-77 -92c-28 24 -61 38 -106 38c-90 0 -151 -65 -151 -163s60 -163 152 -163c50 0 91 15 122 48l77 -90c-51 -51 -124 -75 -205 -75z" />
    <glyph glyph-name="cacute" unicode="&#x107;" horiz-adv-x="548" 
d="M230 618l136 161h158l-178 -161h-116zM325 -10c-172 0 -287 112 -287 280c0 167 116 279 290 279c72 0 135 -23 185 -62l-77 -92c-28 24 -61 38 -106 38c-90 0 -151 -65 -151 -163s60 -163 152 -163c50 0 91 15 122 48l77 -90c-51 -51 -124 -75 -205 -75z" />
    <glyph glyph-name="ccaron" unicode="&#x10d;" horiz-adv-x="548" 
d="M379 618h-130l-131 161h126l70 -84l71 84h125zM453 155l77 -90c-51 -51 -124 -75 -205 -75c-172 0 -287 112 -287 280c0 167 116 279 290 279c72 0 135 -23 185 -62l-77 -92c-28 24 -61 38 -106 38c-90 0 -151 -65 -151 -163s60 -163 152 -163c50 0 91 15 122 48z" />
    <glyph glyph-name="ccedilla" unicode="&#xe7;" horiz-adv-x="548" 
d="M325 -54c64 -2 105 -36 105 -84c0 -55 -51 -92 -131 -92c-40 0 -78 10 -100 25l25 50c14 -11 36 -18 61 -18c34 0 54 14 54 34c0 19 -20 31 -49 31c-14 0 -26 -3 -37 -8l-18 32l43 77c-146 19 -240 125 -240 277c0 167 116 279 290 279c72 0 135 -23 185 -62l-77 -92
c-28 24 -61 38 -106 38c-90 0 -151 -65 -151 -163s60 -163 152 -163c50 0 91 15 122 48l77 -90c-45 -45 -107 -69 -177 -74z" />
    <glyph glyph-name="cdotaccent" unicode="&#x10b;" horiz-adv-x="548" 
d="M315 627c-47 0 -81 33 -81 80s34 81 81 81s81 -34 81 -81s-34 -80 -81 -80zM325 -10c-172 0 -287 112 -287 280c0 167 116 279 290 279c72 0 135 -23 185 -62l-77 -92c-28 24 -61 38 -106 38c-90 0 -151 -65 -151 -163s60 -163 152 -163c50 0 91 15 122 48l77 -90
c-51 -51 -124 -75 -205 -75z" />
    <glyph glyph-name="d" unicode="d" horiz-adv-x="680" 
d="M475 780h136v-780h-131l-3 81c-38 -57 -98 -91 -181 -91c-146 0 -258 111 -258 277c0 169 112 282 258 282c82 0 141 -33 179 -88v319zM327 107c88 0 148 65 148 163c0 97 -60 163 -148 163c-89 0 -148 -66 -148 -164c0 -97 59 -162 148 -162z" />
    <glyph glyph-name="eth" unicode="&#xf0;" horiz-adv-x="657" 
d="M407 697c135 -107 209 -239 209 -388c0 -192 -116 -319 -288 -319c-174 0 -289 111 -289 281c0 162 113 269 258 269c39 0 73 -7 102 -21c-27 39 -63 74 -105 107l-58 -37l-75 49l59 39c-22 14 -46 27 -70 39l114 74c24 -13 46 -26 68 -39l60 39l74 -55zM328 107
c87 0 147 65 147 163s-60 163 -147 163c-89 0 -148 -65 -148 -163s59 -163 148 -163z" />
    <glyph glyph-name="dcaron" unicode="&#x10f;" horiz-adv-x="697" 
d="M475 461v319h136v-780h-131l-3 81c-38 -57 -98 -91 -181 -91c-146 0 -258 111 -258 277c0 169 112 282 258 282c82 0 141 -33 179 -88zM707 780h123l-68 -187h-103zM327 107c88 0 148 65 148 163c0 97 -60 163 -148 163c-89 0 -148 -66 -148 -164c0 -97 59 -162 148 -162
z" />
    <glyph glyph-name="dcroat" unicode="&#x111;" horiz-adv-x="680" 
d="M688 703v-97h-77v-606h-131l-3 81c-38 -57 -98 -91 -181 -91c-146 0 -258 111 -258 277c0 169 112 282 258 282c82 0 141 -33 179 -88v145h-172v97h172v77h136v-77h77zM327 107c88 0 148 65 148 163c0 97 -60 163 -148 163c-89 0 -148 -66 -148 -164
c0 -97 59 -162 148 -162z" />
    <glyph glyph-name="e" unicode="e" horiz-adv-x="612" 
d="M577 278c0 -19 -2 -41 -4 -57h-390c10 -76 50 -124 129 -124c55 0 100 25 132 64l105 -53c-48 -72 -133 -118 -235 -118c-165 0 -275 110 -275 276c0 170 107 283 269 283c161 0 269 -108 269 -271zM308 442c-72 0 -114 -47 -125 -129h251c-10 82 -53 129 -126 129z" />
    <glyph glyph-name="eacute" unicode="&#xe9;" horiz-adv-x="612" 
d="M517 779l-178 -161h-116l136 161h158zM577 278c0 -19 -2 -41 -4 -57h-390c10 -76 50 -124 129 -124c55 0 100 25 132 64l105 -53c-48 -72 -133 -118 -235 -118c-165 0 -275 110 -275 276c0 170 107 283 269 283c161 0 269 -108 269 -271zM308 442
c-72 0 -114 -47 -125 -129h251c-10 82 -53 129 -126 129z" />
    <glyph glyph-name="ecaron" unicode="&#x11b;" horiz-adv-x="612" 
d="M372 618h-130l-131 161h126l70 -84l71 84h125zM577 278c0 -19 -2 -41 -4 -57h-390c10 -76 50 -124 129 -124c55 0 100 25 132 64l105 -53c-48 -72 -133 -118 -235 -118c-165 0 -275 110 -275 276c0 170 107 283 269 283c161 0 269 -108 269 -271zM308 442
c-72 0 -114 -47 -125 -129h251c-10 82 -53 129 -126 129z" />
    <glyph glyph-name="ecircumflex" unicode="&#xea;" horiz-adv-x="612" 
d="M307 702l-70 -84h-126l131 161h130l131 -161h-125zM577 278c0 -19 -2 -41 -4 -57h-390c10 -76 50 -124 129 -124c55 0 100 25 132 64l105 -53c-48 -72 -133 -118 -235 -118c-165 0 -275 110 -275 276c0 170 107 283 269 283c161 0 269 -108 269 -271zM308 442
c-72 0 -114 -47 -125 -129h251c-10 82 -53 129 -126 129z" />
    <glyph glyph-name="edieresis" unicode="&#xeb;" horiz-adv-x="612" 
d="M185 627c-47 0 -81 33 -81 80s34 81 81 81s81 -34 81 -81s-34 -80 -81 -80zM430 627c-47 0 -81 33 -81 80s34 81 81 81s81 -34 81 -81s-34 -80 -81 -80zM577 278c0 -19 -2 -41 -4 -57h-390c10 -76 50 -124 129 -124c55 0 100 25 132 64l105 -53
c-48 -72 -133 -118 -235 -118c-165 0 -275 110 -275 276c0 170 107 283 269 283c161 0 269 -108 269 -271zM308 442c-72 0 -114 -47 -125 -129h251c-10 82 -53 129 -126 129z" />
    <glyph glyph-name="edotaccent" unicode="&#x117;" horiz-adv-x="612" 
d="M308 627c-47 0 -81 33 -81 80s34 81 81 81s81 -34 81 -81s-34 -80 -81 -80zM577 278c0 -19 -2 -41 -4 -57h-390c10 -76 50 -124 129 -124c55 0 100 25 132 64l105 -53c-48 -72 -133 -118 -235 -118c-165 0 -275 110 -275 276c0 170 107 283 269 283
c161 0 269 -108 269 -271zM308 442c-72 0 -114 -47 -125 -129h251c-10 82 -53 129 -126 129z" />
    <glyph glyph-name="egrave" unicode="&#xe8;" horiz-adv-x="612" 
d="M392 618h-116l-178 161h159zM577 278c0 -19 -2 -41 -4 -57h-390c10 -76 50 -124 129 -124c55 0 100 25 132 64l105 -53c-48 -72 -133 -118 -235 -118c-165 0 -275 110 -275 276c0 170 107 283 269 283c161 0 269 -108 269 -271zM308 442c-72 0 -114 -47 -125 -129h251
c-10 82 -53 129 -126 129z" />
    <glyph glyph-name="emacron" unicode="&#x113;" horiz-adv-x="612" 
d="M486 731v-107h-356v107h356zM577 278c0 -19 -2 -41 -4 -57h-390c10 -76 50 -124 129 -124c55 0 100 25 132 64l105 -53c-48 -72 -133 -118 -235 -118c-165 0 -275 110 -275 276c0 170 107 283 269 283c161 0 269 -108 269 -271zM308 442c-72 0 -114 -47 -125 -129h251
c-10 82 -53 129 -126 129z" />
    <glyph glyph-name="eogonek" unicode="&#x119;" horiz-adv-x="612" 
d="M577 278c0 -19 -2 -41 -4 -57h-390c10 -76 50 -124 129 -124c55 0 100 25 132 64l105 -53c-35 -52 -89 -91 -155 -108c-63 -40 -93 -81 -93 -119c0 -20 14 -33 36 -33c18 0 35 6 48 17l12 -67c-24 -17 -51 -28 -93 -28c-61 0 -101 36 -101 89c0 47 29 91 80 132
c-148 13 -244 120 -244 275c0 170 107 283 269 283c161 0 269 -108 269 -271zM308 442c-72 0 -114 -47 -125 -129h251c-10 82 -53 129 -126 129z" />
    <glyph glyph-name="f" unicode="f" horiz-adv-x="406" 
d="M331 673c-49 0 -82 -29 -82 -74v-60h142v-111h-142v-428h-136v428h-87v111h87v81c0 103 70 170 174 170c44 0 87 -7 119 -22l-9 -106c-21 9 -41 11 -66 11z" />
    <glyph glyph-name="g" unicode="g" horiz-adv-x="680" 
d="M481 539h131v-488c0 -170 -127 -281 -319 -281c-96 0 -179 23 -240 68l30 107c60 -41 129 -58 206 -58c112 0 187 65 187 165v26c-38 -55 -97 -88 -179 -88c-146 0 -258 113 -258 282c0 167 112 277 258 277c83 0 143 -34 181 -91zM328 107c88 0 148 65 148 163
s-60 163 -148 163c-89 0 -148 -65 -148 -162c0 -99 59 -164 148 -164z" />
    <glyph glyph-name="gbreve" unicode="&#x11f;" horiz-adv-x="680" 
d="M337 609c-109 0 -181 68 -181 170h103c0 -54 32 -91 78 -91c48 0 79 37 79 91h103c0 -102 -72 -170 -182 -170zM481 539h131v-488c0 -170 -127 -281 -319 -281c-96 0 -179 23 -240 68l30 107c60 -41 129 -58 206 -58c112 0 187 65 187 165v26c-38 -55 -97 -88 -179 -88
c-146 0 -258 113 -258 282c0 167 112 277 258 277c83 0 143 -34 181 -91zM328 107c88 0 148 65 148 163s-60 163 -148 163c-89 0 -148 -65 -148 -162c0 -99 59 -164 148 -164z" />
    <glyph glyph-name="gcommaaccent" unicode="&#x123;" horiz-adv-x="680" 
d="M433 780l-48 -187h-123l68 187h103zM481 539h131v-488c0 -170 -127 -281 -319 -281c-96 0 -179 23 -240 68l30 107c60 -41 129 -58 206 -58c112 0 187 65 187 165v26c-38 -55 -97 -88 -179 -88c-146 0 -258 113 -258 282c0 167 112 277 258 277c83 0 143 -34 181 -91z
M328 107c88 0 148 65 148 163s-60 163 -148 163c-89 0 -148 -65 -148 -162c0 -99 59 -164 148 -164z" />
    <glyph glyph-name="gdotaccent" unicode="&#x121;" horiz-adv-x="680" 
d="M337 627c-47 0 -81 33 -81 80s34 81 81 81s81 -34 81 -81s-34 -80 -81 -80zM481 539h131v-488c0 -170 -127 -281 -319 -281c-96 0 -179 23 -240 68l30 107c60 -41 129 -58 206 -58c112 0 187 65 187 165v26c-38 -55 -97 -88 -179 -88c-146 0 -258 113 -258 282
c0 167 112 277 258 277c83 0 143 -34 181 -91zM328 107c88 0 148 65 148 163s-60 163 -148 163c-89 0 -148 -65 -148 -162c0 -99 59 -164 148 -164z" />
    <glyph glyph-name="h" unicode="h" horiz-adv-x="655" 
d="M378 549c129 0 215 -84 215 -210v-339h-136v317c0 70 -50 116 -126 116s-126 -46 -126 -116v-317h-136v780h136v-306c41 50 103 75 173 75z" />
    <glyph glyph-name="hbar" unicode="&#x127;" horiz-adv-x="655" 
d="M378 549c129 0 215 -84 215 -210v-339h-136v317c0 70 -50 116 -126 116s-126 -46 -126 -116v-317h-136v606h-77v97h77v77h136v-77h172v-97h-172v-132c41 50 103 75 173 75z" />
    <glyph glyph-name="i" unicode="i" horiz-adv-x="275" 
d="M138 627c-47 0 -81 33 -81 80s34 81 81 81s80 -34 80 -81s-33 -80 -80 -80zM70 0v539h136v-539h-136z" />
    <glyph glyph-name="dotlessi" unicode="&#x131;" horiz-adv-x="275" 
d="M70 0v539h136v-539h-136z" />
    <glyph glyph-name="iacute" unicode="&#xed;" horiz-adv-x="275" 
d="M53 618l136 161h158l-178 -161h-116zM70 0v539h136v-539h-136z" />
    <glyph glyph-name="icircumflex" unicode="&#xee;" horiz-adv-x="275" 
d="M202 779l131 -161h-125l-71 84l-70 -84h-126l131 161h130zM70 0v539h136v-539h-136z" />
    <glyph glyph-name="idieresis" unicode="&#xef;" horiz-adv-x="275" 
d="M15 627c-47 0 -81 33 -81 80s34 81 81 81s81 -34 81 -81s-34 -80 -81 -80zM260 627c-47 0 -81 33 -81 80s34 81 81 81s81 -34 81 -81s-34 -80 -81 -80zM70 0v539h136v-539h-136z" />
    <glyph glyph-name="igrave" unicode="&#xec;" horiz-adv-x="275" 
d="M106 618l-178 161h159l135 -161h-116zM70 0v539h136v-539h-136z" />
    <glyph glyph-name="imacron" unicode="&#x12b;" horiz-adv-x="275" 
d="M-40 624v107h356v-107h-356zM70 0v539h136v-539h-136z" />
    <glyph glyph-name="iogonek" unicode="&#x12f;" horiz-adv-x="275" 
d="M138 627c-47 0 -81 33 -81 80s34 81 81 81s81 -34 81 -81s-34 -80 -81 -80zM149 -152c18 0 35 6 48 17l12 -67c-24 -17 -51 -28 -93 -28c-61 0 -101 36 -101 89c0 50 33 97 91 141h-36v539h136v-539c-63 -40 -93 -81 -93 -119c0 -20 14 -33 36 -33z" />
    <glyph glyph-name="j" unicode="j" horiz-adv-x="280" 
d="M141 627c-47 0 -81 33 -81 80s34 81 81 81s81 -34 81 -81s-34 -80 -81 -80zM40 -230c-39 0 -78 6 -105 17l9 108c17 -6 34 -8 55 -8c45 0 76 33 76 84v568h136v-599c0 -102 -69 -170 -171 -170z" />
    <glyph glyph-name="k" unicode="k" horiz-adv-x="606" 
d="M443 0l-192 227h-46v-227h-136v780h136v-441h47l178 200h172l-239 -255l252 -284h-172z" />
    <glyph glyph-name="kcommaaccent" unicode="&#x137;" horiz-adv-x="606" 
d="M363 284l252 -284h-172l-192 227h-46v-227h-136v780h136v-441h47l178 200h172zM212 -220l43 168h122l-62 -168h-103z" />
    <glyph glyph-name="l" unicode="l" horiz-adv-x="276" 
d="M70 0v780h136v-780h-136z" />
    <glyph glyph-name="lacute" unicode="&#x13a;" horiz-adv-x="276" 
d="M54 859l136 161h158l-178 -161h-116zM70 0v780h136v-780h-136z" />
    <glyph glyph-name="lcaron" unicode="&#x13e;" horiz-adv-x="292" 
d="M70 0v780h136v-780h-136zM254 593l48 187h123l-68 -187h-103z" />
    <glyph glyph-name="lcommaaccent" unicode="&#x13c;" horiz-adv-x="276" 
d="M70 0v780h136v-780h-136zM34 -220l43 168h122l-62 -168h-103z" />
    <glyph glyph-name="lslash" unicode="&#x142;" horiz-adv-x="276" 
d="M290 538v-109l-84 -59v-370h-136v292l-82 -58v110l82 58v378h136v-301z" />
    <glyph glyph-name="m" unicode="m" horiz-adv-x="982" 
d="M700 549c131 0 219 -84 219 -210v-339h-136v317c0 70 -44 116 -111 116c-66 0 -110 -46 -110 -116v-317h-136v317c0 70 -44 116 -111 116c-66 0 -110 -46 -110 -116v-317h-136v539h131l2 -64c38 49 95 74 161 74c71 0 128 -30 163 -81c39 53 102 81 174 81z" />
    <glyph glyph-name="n" unicode="n" horiz-adv-x="655" 
d="M378 549c129 0 215 -84 215 -210v-339h-136v317c0 70 -50 116 -126 116s-126 -46 -126 -116v-317h-136v539h131l2 -68c41 51 104 78 176 78z" />
    <glyph glyph-name="nacute" unicode="&#x144;" horiz-adv-x="655" 
d="M542 779l-178 -161h-116l136 161h158zM378 549c129 0 215 -84 215 -210v-339h-136v317c0 70 -50 116 -126 116s-126 -46 -126 -116v-317h-136v539h131l2 -68c41 51 104 78 176 78z" />
    <glyph glyph-name="ncaron" unicode="&#x148;" horiz-adv-x="655" 
d="M397 618h-130l-131 161h126l70 -84l71 84h125zM378 549c129 0 215 -84 215 -210v-339h-136v317c0 70 -50 116 -126 116s-126 -46 -126 -116v-317h-136v539h131l2 -68c41 51 104 78 176 78z" />
    <glyph glyph-name="ncommaaccent" unicode="&#x146;" horiz-adv-x="655" 
d="M378 549c129 0 215 -84 215 -210v-339h-136v317c0 70 -50 116 -126 116s-126 -46 -126 -116v-317h-136v539h131l2 -68c41 51 104 78 176 78zM226 -220l43 168h122l-62 -168h-103z" />
    <glyph glyph-name="eng" unicode="&#x14b;" horiz-adv-x="655" 
d="M378 549c129 0 215 -84 215 -210v-399c0 -102 -69 -170 -171 -170c-40 0 -77 6 -105 17l10 106c17 -5 33 -6 54 -6c45 0 76 33 76 84v346c0 70 -50 116 -126 116s-126 -46 -126 -116v-317h-136v539h131l2 -68c41 51 104 78 176 78z" />
    <glyph glyph-name="ntilde" unicode="&#xf1;" horiz-adv-x="655" 
d="M253 675c-24 0 -41 -18 -41 -46h-74c0 87 46 144 114 144c66 0 117 -56 160 -56c25 0 41 16 41 46h74c0 -92 -45 -144 -113 -144c-63 0 -118 56 -161 56zM378 549c129 0 215 -84 215 -210v-339h-136v317c0 70 -50 116 -126 116s-126 -46 -126 -116v-317h-136v539h131
l2 -68c41 51 104 78 176 78z" />
    <glyph glyph-name="o" unicode="o" horiz-adv-x="653" 
d="M327 -10c-173 0 -289 112 -289 280c0 167 116 279 289 279c172 0 288 -112 288 -279c0 -168 -116 -280 -288 -280zM327 107c88 0 147 65 147 163s-59 163 -147 163c-89 0 -148 -65 -148 -163s59 -163 148 -163z" />
    <glyph glyph-name="oacute" unicode="&#xf3;" horiz-adv-x="653" 
d="M242 618l136 161h158l-178 -161h-116zM327 -10c-173 0 -289 112 -289 280c0 167 116 279 289 279c172 0 288 -112 288 -279c0 -168 -116 -280 -288 -280zM327 107c88 0 147 65 147 163s-59 163 -147 163c-89 0 -148 -65 -148 -163s59 -163 148 -163z" />
    <glyph glyph-name="ocircumflex" unicode="&#xf4;" horiz-adv-x="653" 
d="M326 702l-70 -84h-126l131 161h130l131 -161h-125zM327 549c172 0 288 -112 288 -279c0 -168 -116 -280 -288 -280c-173 0 -289 112 -289 280c0 167 116 279 289 279zM327 107c88 0 147 65 147 163s-59 163 -147 163c-89 0 -148 -65 -148 -163s59 -163 148 -163z" />
    <glyph glyph-name="odieresis" unicode="&#xf6;" horiz-adv-x="653" 
d="M204 627c-47 0 -81 33 -81 80s34 81 81 81s81 -34 81 -81s-34 -80 -81 -80zM449 627c-47 0 -81 33 -81 80s34 81 81 81s81 -34 81 -81s-34 -80 -81 -80zM327 -10c-173 0 -289 112 -289 280c0 167 116 279 289 279c172 0 288 -112 288 -279c0 -168 -116 -280 -288 -280z
M327 107c88 0 147 65 147 163s-59 163 -147 163c-89 0 -148 -65 -148 -163s59 -163 148 -163z" />
    <glyph glyph-name="ograve" unicode="&#xf2;" horiz-adv-x="653" 
d="M295 618l-178 161h159l135 -161h-116zM327 -10c-173 0 -289 112 -289 280c0 167 116 279 289 279c172 0 288 -112 288 -279c0 -168 -116 -280 -288 -280zM327 107c88 0 147 65 147 163s-59 163 -147 163c-89 0 -148 -65 -148 -163s59 -163 148 -163z" />
    <glyph glyph-name="ohungarumlaut" unicode="&#x151;" horiz-adv-x="653" 
d="M163 618l106 161h159l-149 -161h-116zM360 618l106 161h159l-149 -161h-116zM327 -10c-173 0 -289 112 -289 280c0 167 116 279 289 279c172 0 288 -112 288 -279c0 -168 -116 -280 -288 -280zM327 107c88 0 147 65 147 163s-59 163 -147 163c-89 0 -148 -65 -148 -163
s59 -163 148 -163z" />
    <glyph glyph-name="omacron" unicode="&#x14d;" horiz-adv-x="653" 
d="M149 624v107h356v-107h-356zM327 -10c-173 0 -289 112 -289 280c0 167 116 279 289 279c172 0 288 -112 288 -279c0 -168 -116 -280 -288 -280zM327 107c88 0 147 65 147 163s-59 163 -147 163c-89 0 -148 -65 -148 -163s59 -163 148 -163z" />
    <glyph glyph-name="oslash" unicode="&#xf8;" horiz-adv-x="655" 
d="M615 469l-43 -42c28 -43 43 -96 43 -157c0 -168 -116 -280 -288 -280c-62 0 -117 15 -162 41l-42 -41l-83 81l41 40c-28 44 -43 98 -43 159c0 167 116 279 289 279c62 0 117 -15 162 -42l43 42zM179 270c0 -20 3 -39 7 -57l210 204c-20 10 -43 16 -69 16
c-89 0 -148 -65 -148 -163zM474 270c0 20 -2 38 -7 55l-208 -203c20 -10 43 -15 68 -15c88 0 147 65 147 163z" />
    <glyph glyph-name="otilde" unicode="&#xf5;" horiz-adv-x="653" 
d="M408 619c-63 0 -118 56 -161 56c-24 0 -41 -18 -41 -46h-74c0 87 46 144 114 144c66 0 117 -56 160 -56c25 0 41 16 41 46h74c0 -92 -45 -144 -113 -144zM327 -10c-173 0 -289 112 -289 280c0 167 116 279 289 279c172 0 288 -112 288 -279c0 -168 -116 -280 -288 -280z
M327 107c88 0 147 65 147 163s-59 163 -147 163c-89 0 -148 -65 -148 -163s59 -163 148 -163z" />
    <glyph glyph-name="oe" unicode="&#x153;" horiz-adv-x="1048" 
d="M1012 278c0 -19 0 -41 -2 -57h-391c10 -76 50 -124 130 -124c55 0 99 25 131 64l105 -53c-47 -72 -127 -118 -225 -118c-96 0 -173 43 -216 117c-46 -74 -126 -117 -226 -117c-167 0 -279 112 -279 280c0 167 112 279 279 279c101 0 181 -44 226 -117
c43 73 116 117 209 117c156 0 259 -108 259 -271zM743 442c-71 0 -113 -47 -124 -129h252c-10 82 -54 129 -128 129zM327 107c88 0 147 65 147 163s-59 163 -147 163s-148 -65 -148 -163s60 -163 148 -163z" />
    <glyph glyph-name="p" unicode="p" horiz-adv-x="680" 
d="M384 549c145 0 258 -110 258 -277c0 -169 -113 -282 -258 -282c-82 0 -141 33 -179 88v-298h-136v759h131l3 -81c38 57 98 91 181 91zM353 107c88 0 148 65 148 164c0 97 -60 162 -148 162c-89 0 -148 -65 -148 -163s59 -163 148 -163z" />
    <glyph glyph-name="thorn" unicode="&#xfe;" horiz-adv-x="680" 
d="M384 549c145 0 258 -110 258 -277c0 -169 -113 -282 -258 -282c-82 0 -141 33 -179 88v-298h-136v1000h136v-318c38 54 97 87 179 87zM353 107c88 0 148 65 148 164c0 97 -60 162 -148 162c-89 0 -148 -65 -148 -163s59 -163 148 -163z" />
    <glyph glyph-name="q" unicode="q" horiz-adv-x="680" 
d="M480 539h131v-759h-136v298c-38 -55 -97 -88 -179 -88c-146 0 -258 113 -258 282c0 167 112 277 258 277c83 0 143 -34 181 -91zM327 107c88 0 148 65 148 163s-60 163 -148 163c-89 0 -148 -65 -148 -162c0 -99 59 -164 148 -164z" />
    <glyph glyph-name="r" unicode="r" horiz-adv-x="408" 
d="M202 467c43 53 111 82 198 82l-9 -125c-112 0 -186 -54 -186 -135v-289h-136v539h131z" />
    <glyph glyph-name="racute" unicode="&#x155;" horiz-adv-x="408" 
d="M433 779l-178 -161h-116l136 161h158zM202 467c43 53 111 82 198 82l-9 -125c-112 0 -186 -54 -186 -135v-289h-136v539h131z" />
    <glyph glyph-name="rcaron" unicode="&#x159;" horiz-adv-x="408" 
d="M288 618h-130l-131 161h126l70 -84l71 84h125zM202 467c43 53 111 82 198 82l-9 -125c-112 0 -186 -54 -186 -135v-289h-136v539h131z" />
    <glyph glyph-name="rcommaaccent" unicode="&#x157;" horiz-adv-x="408" 
d="M202 467c43 53 111 82 198 82l-9 -125c-112 0 -186 -54 -186 -135v-289h-136v539h131zM67 -220l43 168h122l-62 -168h-103z" />
    <glyph glyph-name="s" unicode="s" horiz-adv-x="514" 
d="M248 -10c-82 0 -155 21 -204 64l51 82c51 -30 102 -40 155 -40c50 0 84 21 84 54s-38 51 -92 65l-45 12c-91 24 -153 59 -153 144c0 107 84 178 212 178c81 0 150 -17 203 -53l-57 -89c-43 24 -89 35 -137 35c-49 0 -83 -18 -83 -49c0 -32 34 -47 81 -59l45 -13
c92 -24 165 -66 165 -161c0 -102 -90 -170 -225 -170z" />
    <glyph glyph-name="sacute" unicode="&#x15b;" horiz-adv-x="514" 
d="M171 618l136 161h158l-178 -161h-116zM248 -10c-82 0 -155 21 -204 64l51 82c51 -30 102 -40 155 -40c50 0 84 21 84 54s-38 51 -92 65l-45 12c-91 24 -153 59 -153 144c0 107 84 178 212 178c81 0 150 -17 203 -53l-57 -89c-43 24 -89 35 -137 35c-49 0 -83 -18 -83 -49
c0 -32 34 -47 81 -59l45 -13c92 -24 165 -66 165 -161c0 -102 -90 -170 -225 -170z" />
    <glyph glyph-name="scaron" unicode="&#x161;" horiz-adv-x="514" 
d="M320 618h-130l-131 161h126l70 -84l71 84h125zM308 321c92 -24 165 -66 165 -161c0 -102 -90 -170 -225 -170c-82 0 -155 21 -204 64l51 82c51 -30 102 -40 155 -40c50 0 84 21 84 54s-38 51 -92 65l-45 12c-91 24 -153 59 -153 144c0 107 84 178 212 178
c81 0 150 -17 203 -53l-57 -89c-43 24 -89 35 -137 35c-49 0 -83 -18 -83 -49c0 -32 34 -47 81 -59z" />
    <glyph glyph-name="scedilla" unicode="&#x15f;" horiz-adv-x="514" 
d="M473 160c0 -89 -69 -153 -177 -167l-30 -47c64 -2 105 -36 105 -84c0 -55 -51 -92 -131 -92c-40 0 -78 10 -100 25l25 50c14 -11 36 -18 61 -18c34 0 54 14 54 34c0 19 -20 31 -49 31c-14 0 -26 -3 -37 -8l-18 32l42 75c-70 5 -131 25 -174 63l51 82
c51 -30 102 -40 155 -40c50 0 84 21 84 54s-38 51 -92 65l-45 12c-91 24 -153 59 -153 144c0 107 84 178 212 178c81 0 150 -17 203 -53l-57 -89c-43 24 -89 35 -137 35c-49 0 -83 -18 -83 -49c0 -32 34 -47 81 -59l45 -13c92 -24 165 -66 165 -161z" />
    <glyph glyph-name="scommaaccent" unicode="&#x219;" horiz-adv-x="514" 
d="M248 -10c-82 0 -155 21 -204 64l51 82c51 -30 102 -40 155 -40c50 0 84 21 84 54s-38 51 -92 65l-45 12c-91 24 -153 59 -153 144c0 107 84 178 212 178c81 0 150 -17 203 -53l-57 -89c-43 24 -89 35 -137 35c-49 0 -83 -18 -83 -49c0 -32 34 -47 81 -59l45 -13
c92 -24 165 -66 165 -161c0 -102 -90 -170 -225 -170zM155 -220l43 168h122l-62 -168h-103z" />
    <glyph glyph-name="germandbls" unicode="&#xdf;" horiz-adv-x="627" 
d="M450 421c87 -36 140 -106 140 -197c0 -140 -99 -234 -248 -234c-29 0 -62 4 -84 11l13 112c15 -5 31 -6 47 -6c78 0 131 51 131 127c0 78 -56 130 -141 130v106c61 0 102 42 102 103c0 60 -41 100 -102 100c-62 0 -103 -38 -103 -98v-575h-136v588c0 121 96 202 239 202
c146 0 243 -81 243 -202c0 -74 -37 -133 -101 -167z" />
    <glyph glyph-name="t" unicode="t" horiz-adv-x="432" 
d="M317 107c31 0 62 5 93 18v-110c-41 -17 -89 -25 -137 -25c-99 0 -166 68 -166 170v268h-89v111h89v158h136v-158h159v-111h-159v-240c0 -49 30 -81 74 -81z" />
    <glyph glyph-name="tbar" unicode="&#x167;" horiz-adv-x="438" 
d="M317 107c31 0 62 5 93 18v-110c-41 -17 -89 -25 -137 -25c-99 0 -166 68 -166 170v69h-81v98h81v101h-89v111h89v158h136v-158h159v-111h-159v-101h153v-98h-153v-41c0 -49 30 -81 74 -81z" />
    <glyph glyph-name="tcaron" unicode="&#x165;" horiz-adv-x="432" 
d="M477 780l-68 -187h-103l48 187h123zM243 188c0 -49 30 -81 74 -81c31 0 62 5 93 18v-110c-41 -17 -89 -25 -137 -25c-99 0 -166 68 -166 170v268h-89v111h89v158h136v-158h159v-111h-159v-240z" />
    <glyph glyph-name="uni0163" unicode="&#x163;" horiz-adv-x="432" 
d="M273 -10c-9 0 -18 1 -27 2l-29 -46c64 -2 104 -36 104 -84c0 -55 -50 -92 -130 -92c-40 0 -79 10 -100 25l24 50c14 -11 37 -18 61 -18c34 0 54 14 54 34c0 19 -19 31 -49 31c-13 0 -26 -3 -36 -8l-18 32l53 99c-46 29 -73 80 -73 145v268h-89v111h89v158h136v-158h159
v-111h-159v-240c0 -49 30 -81 74 -81c31 0 62 5 93 18v-110c-41 -17 -89 -25 -137 -25z" />
    <glyph glyph-name="uni021B" unicode="&#x21b;" horiz-adv-x="432" 
d="M317 107c31 0 62 5 93 18v-110c-41 -17 -89 -25 -137 -25c-99 0 -166 68 -166 170v268h-89v111h89v158h136v-158h159v-111h-159v-240c0 -49 30 -81 74 -81zM131 -220l43 168h122l-62 -168h-103z" />
    <glyph glyph-name="u" unicode="u" horiz-adv-x="635" 
d="M430 539h136v-539h-131l-2 66c-39 -50 -98 -76 -166 -76c-122 0 -205 84 -205 211v338h136v-317c0 -69 47 -115 117 -115c69 0 115 46 115 115v317z" />
    <glyph glyph-name="uacute" unicode="&#xfa;" horiz-adv-x="635" 
d="M524 779l-178 -161h-116l136 161h158zM430 539h136v-539h-131l-2 66c-39 -50 -98 -76 -166 -76c-122 0 -205 84 -205 211v338h136v-317c0 -69 47 -115 117 -115c69 0 115 46 115 115v317z" />
    <glyph glyph-name="ucircumflex" unicode="&#xfb;" horiz-adv-x="635" 
d="M314 702l-70 -84h-126l131 161h130l131 -161h-125zM430 539h136v-539h-131l-2 66c-39 -50 -98 -76 -166 -76c-122 0 -205 84 -205 211v338h136v-317c0 -69 47 -115 117 -115c69 0 115 46 115 115v317z" />
    <glyph glyph-name="udieresis" unicode="&#xfc;" horiz-adv-x="635" 
d="M192 627c-47 0 -81 33 -81 80s34 81 81 81s81 -34 81 -81s-34 -80 -81 -80zM437 627c-47 0 -81 33 -81 80s34 81 81 81s81 -34 81 -81s-34 -80 -81 -80zM430 539h136v-539h-131l-2 66c-39 -50 -98 -76 -166 -76c-122 0 -205 84 -205 211v338h136v-317
c0 -69 47 -115 117 -115c69 0 115 46 115 115v317z" />
    <glyph glyph-name="ugrave" unicode="&#xf9;" horiz-adv-x="635" 
d="M399 618h-116l-178 161h159zM430 539h136v-539h-131l-2 66c-39 -50 -98 -76 -166 -76c-122 0 -205 84 -205 211v338h136v-317c0 -69 47 -115 117 -115c69 0 115 46 115 115v317z" />
    <glyph glyph-name="uhungarumlaut" unicode="&#x171;" horiz-adv-x="635" 
d="M416 779l-149 -161h-116l106 161h159zM464 618h-116l106 161h159zM430 222v317h136v-539h-131l-2 66c-39 -50 -98 -76 -166 -76c-122 0 -205 84 -205 211v338h136v-317c0 -69 47 -115 117 -115c69 0 115 46 115 115z" />
    <glyph glyph-name="umacron" unicode="&#x16b;" horiz-adv-x="635" 
d="M493 731v-107h-356v107h356zM430 539h136v-539h-131l-2 66c-39 -50 -98 -76 -166 -76c-122 0 -205 84 -205 211v338h136v-317c0 -69 47 -115 117 -115c69 0 115 46 115 115v317z" />
    <glyph glyph-name="uogonek" unicode="&#x173;" horiz-adv-x="635" 
d="M557 -135l12 -67c-24 -17 -51 -28 -93 -28c-61 0 -101 36 -101 89c0 50 33 97 91 141h-31l-2 66c-39 -50 -98 -76 -166 -76c-122 0 -205 84 -205 211v338h136v-317c0 -69 47 -115 117 -115c69 0 115 46 115 115v317h136v-539c-63 -40 -93 -81 -93 -119
c0 -20 14 -33 36 -33c18 0 35 6 48 17z" />
    <glyph glyph-name="uring" unicode="&#x16f;" horiz-adv-x="635" 
d="M315 584c-71 0 -117 43 -117 108s46 108 117 108c70 0 117 -43 117 -108s-47 -108 -117 -108zM315 738c-27 0 -45 -18 -45 -46s18 -47 45 -47s44 19 44 47s-17 46 -44 46zM430 539h136v-539h-131l-2 66c-39 -50 -98 -76 -166 -76c-122 0 -205 84 -205 211v338h136v-317
c0 -69 47 -115 117 -115c69 0 115 46 115 115v317z" />
    <glyph glyph-name="v" unicode="v" horiz-adv-x="603" 
d="M234 0l-228 539h149l147 -384l146 384h149l-227 -539h-136z" />
    <glyph glyph-name="w" unicode="w" horiz-adv-x="920" 
d="M763 539h149l-198 -539h-136l-118 372l-118 -372h-136l-198 539h149l126 -384l121 384h112l121 -384z" />
    <glyph glyph-name="wacute" unicode="&#x1e83;" horiz-adv-x="920" 
d="M669 779l-178 -161h-116l136 161h158zM763 539h149l-198 -539h-136l-118 372l-118 -372h-136l-198 539h149l126 -384l121 384h112l121 -384z" />
    <glyph glyph-name="wcircumflex" unicode="&#x175;" horiz-adv-x="920" 
d="M459 702l-70 -84h-126l131 161h130l131 -161h-125zM763 539h149l-198 -539h-136l-118 372l-118 -372h-136l-198 539h149l126 -384l121 384h112l121 -384z" />
    <glyph glyph-name="wdieresis" unicode="&#x1e85;" horiz-adv-x="920" 
d="M337 627c-47 0 -81 33 -81 80s34 81 81 81s81 -34 81 -81s-34 -80 -81 -80zM582 627c-47 0 -81 33 -81 80s34 81 81 81s81 -34 81 -81s-34 -80 -81 -80zM763 539h149l-198 -539h-136l-118 372l-118 -372h-136l-198 539h149l126 -384l121 384h112l121 -384z" />
    <glyph glyph-name="wgrave" unicode="&#x1e81;" horiz-adv-x="920" 
d="M544 618h-116l-178 161h159zM763 539h149l-198 -539h-136l-118 372l-118 -372h-136l-198 539h149l126 -384l121 384h112l121 -384z" />
    <glyph glyph-name="x" unicode="x" horiz-adv-x="583" 
d="M579 0h-162l-125 177l-125 -177h-162l206 276l-194 263h162l113 -163l113 163h162l-194 -263z" />
    <glyph glyph-name="y" unicode="y" horiz-adv-x="603" 
d="M151 -230c-31 0 -60 6 -80 15l14 111c12 -6 26 -9 43 -9c44 0 62 27 83 68l27 57l-231 527h149l152 -380l142 380h148l-254 -601c-43 -104 -89 -168 -193 -168z" />
    <glyph glyph-name="yacute" unicode="&#xfd;" horiz-adv-x="603" 
d="M220 618l136 161h158l-178 -161h-116zM151 -230c-31 0 -60 6 -80 15l14 111c12 -6 26 -9 43 -9c44 0 62 27 83 68l27 57l-231 527h149l152 -380l142 380h148l-254 -601c-43 -104 -89 -168 -193 -168z" />
    <glyph glyph-name="ycircumflex" unicode="&#x177;" horiz-adv-x="603" 
d="M304 702l-70 -84h-126l131 161h130l131 -161h-125zM450 539h148l-254 -601c-43 -104 -89 -168 -193 -168c-31 0 -60 6 -80 15l14 111c12 -6 26 -9 43 -9c44 0 62 27 83 68l27 57l-231 527h149l152 -380z" />
    <glyph glyph-name="ydieresis" unicode="&#xff;" horiz-adv-x="603" 
d="M182 627c-47 0 -81 33 -81 80s34 81 81 81s81 -34 81 -81s-34 -80 -81 -80zM427 627c-47 0 -81 33 -81 80s34 81 81 81s81 -34 81 -81s-34 -80 -81 -80zM151 -230c-31 0 -60 6 -80 15l14 111c12 -6 26 -9 43 -9c44 0 62 27 83 68l27 57l-231 527h149l152 -380l142 380
h148l-254 -601c-43 -104 -89 -168 -193 -168z" />
    <glyph glyph-name="ygrave" unicode="&#x1ef3;" horiz-adv-x="603" 
d="M273 618l-178 161h159l135 -161h-116zM151 -230c-31 0 -60 6 -80 15l14 111c12 -6 26 -9 43 -9c44 0 62 27 83 68l27 57l-231 527h149l152 -380l142 380h148l-254 -601c-43 -104 -89 -168 -193 -168z" />
    <glyph glyph-name="z" unicode="z" horiz-adv-x="546" 
d="M38 0v88l269 340h-264v111h456l1 -87l-268 -340h279v-112h-473z" />
    <glyph glyph-name="zacute" unicode="&#x17a;" horiz-adv-x="546" 
d="M187 618l136 161h158l-178 -161h-116zM38 0v88l269 340h-264v111h456l1 -87l-268 -340h279v-112h-473z" />
    <glyph glyph-name="zcaron" unicode="&#x17e;" horiz-adv-x="546" 
d="M336 618h-130l-131 161h126l70 -84l71 84h125zM232 112h279v-112h-473v88l269 340h-264v111h456l1 -87z" />
    <glyph glyph-name="zdotaccent" unicode="&#x17c;" horiz-adv-x="546" 
d="M272 627c-47 0 -81 33 -81 80s34 81 81 81s81 -34 81 -81s-34 -80 -81 -80zM38 0v88l269 340h-264v111h456l1 -87l-268 -340h279v-112h-473z" />
    <glyph glyph-name="i.loclTRK" horiz-adv-x="275" 
d="M138 627c-47 0 -81 33 -81 80s34 81 81 81s81 -34 81 -81s-34 -80 -81 -80zM70 0v539h136v-539h-136z" />
    <glyph glyph-name="a.ss01" horiz-adv-x="680" 
d="M480 539h131v-539h-131l-3 81c-38 -57 -98 -91 -181 -91c-146 0 -258 111 -258 277c0 169 112 282 258 282c83 0 143 -34 181 -91zM327 107c88 0 148 65 148 163c0 97 -60 163 -148 163c-89 0 -148 -66 -148 -164c0 -97 59 -162 148 -162z" />
    <glyph glyph-name="aacute.ss01" horiz-adv-x="680" 
d="M544 779l-178 -161h-116l136 161h158zM480 539h131v-539h-131l-3 81c-38 -57 -98 -91 -181 -91c-146 0 -258 111 -258 277c0 169 112 282 258 282c83 0 143 -34 181 -91zM327 107c88 0 148 65 148 163c0 97 -60 163 -148 163c-89 0 -148 -66 -148 -164
c0 -97 59 -162 148 -162z" />
    <glyph glyph-name="abreve.ss01" horiz-adv-x="680" 
d="M335 609c-109 0 -181 68 -181 170h103c0 -54 32 -91 78 -91c48 0 79 37 79 91h103c0 -102 -72 -170 -182 -170zM480 539h131v-539h-131l-3 81c-38 -57 -98 -91 -181 -91c-146 0 -258 111 -258 277c0 169 112 282 258 282c83 0 143 -34 181 -91zM327 107
c88 0 148 65 148 163c0 97 -60 163 -148 163c-89 0 -148 -66 -148 -164c0 -97 59 -162 148 -162z" />
    <glyph glyph-name="acircumflex.ss01" horiz-adv-x="680" 
d="M334 702l-70 -84h-126l131 161h130l131 -161h-125zM480 539h131v-539h-131l-3 81c-38 -57 -98 -91 -181 -91c-146 0 -258 111 -258 277c0 169 112 282 258 282c83 0 143 -34 181 -91zM327 107c88 0 148 65 148 163c0 97 -60 163 -148 163c-89 0 -148 -66 -148 -164
c0 -97 59 -162 148 -162z" />
    <glyph glyph-name="adieresis.ss01" horiz-adv-x="680" 
d="M212 627c-47 0 -81 33 -81 80s34 81 81 81s81 -34 81 -81s-34 -80 -81 -80zM457 627c-47 0 -81 33 -81 80s34 81 81 81s81 -34 81 -81s-34 -80 -81 -80zM480 539h131v-539h-131l-3 81c-38 -57 -98 -91 -181 -91c-146 0 -258 111 -258 277c0 169 112 282 258 282
c83 0 143 -34 181 -91zM327 107c88 0 148 65 148 163c0 97 -60 163 -148 163c-89 0 -148 -66 -148 -164c0 -97 59 -162 148 -162z" />
    <glyph glyph-name="agrave.ss01" horiz-adv-x="680" 
d="M419 618h-116l-178 161h159zM480 539h131v-539h-131l-3 81c-38 -57 -98 -91 -181 -91c-146 0 -258 111 -258 277c0 169 112 282 258 282c83 0 143 -34 181 -91zM327 107c88 0 148 65 148 163c0 97 -60 163 -148 163c-89 0 -148 -66 -148 -164c0 -97 59 -162 148 -162z
" />
    <glyph glyph-name="amacron.ss01" horiz-adv-x="680" 
d="M513 731v-107h-356v107h356zM480 539h131v-539h-131l-3 81c-38 -57 -98 -91 -181 -91c-146 0 -258 111 -258 277c0 169 112 282 258 282c83 0 143 -34 181 -91zM327 107c88 0 148 65 148 163c0 97 -60 163 -148 163c-89 0 -148 -66 -148 -164c0 -97 59 -162 148 -162z
" />
    <glyph glyph-name="aogonek.ss01" horiz-adv-x="680" 
d="M602 -135l12 -67c-24 -17 -51 -28 -93 -28c-61 0 -101 36 -101 89c0 50 33 97 91 141h-31l-3 81c-38 -57 -98 -91 -181 -91c-146 0 -258 111 -258 277c0 169 112 282 258 282c83 0 143 -34 181 -91l3 81h131v-539c-63 -40 -93 -81 -93 -119c0 -20 14 -33 36 -33
c18 0 35 6 48 17zM327 107c88 0 148 65 148 163c0 97 -60 163 -148 163c-89 0 -148 -66 -148 -164c0 -97 59 -162 148 -162z" />
    <glyph glyph-name="aring.ss01" horiz-adv-x="680" 
d="M335 584c-71 0 -117 43 -117 108s46 108 117 108c70 0 117 -43 117 -108s-47 -108 -117 -108zM335 738c-27 0 -45 -18 -45 -46s18 -47 45 -47s44 19 44 47s-17 46 -44 46zM480 539h131v-539h-131l-3 81c-38 -57 -98 -91 -181 -91c-146 0 -258 111 -258 277
c0 169 112 282 258 282c83 0 143 -34 181 -91zM327 107c88 0 148 65 148 163c0 97 -60 163 -148 163c-89 0 -148 -66 -148 -164c0 -97 59 -162 148 -162z" />
    <glyph glyph-name="atilde.ss01" horiz-adv-x="680" 
d="M255 675c-24 0 -41 -18 -41 -46h-74c0 87 46 144 114 144c66 0 117 -56 160 -56c25 0 41 16 41 46h74c0 -92 -45 -144 -113 -144c-63 0 -118 56 -161 56zM480 539h131v-539h-131l-3 81c-38 -57 -98 -91 -181 -91c-146 0 -258 111 -258 277c0 169 112 282 258 282
c83 0 143 -34 181 -91zM327 107c88 0 148 65 148 163c0 97 -60 163 -148 163c-89 0 -148 -66 -148 -164c0 -97 59 -162 148 -162z" />
    <glyph glyph-name="f.ss01" horiz-adv-x="364" 
d="M286 673c-48 0 -81 -29 -81 -74v-60h142v-111h-142v-428h-136v620c0 103 70 170 174 170c44 0 87 -7 119 -22l-10 -106c-20 9 -40 11 -66 11z" />
    <glyph glyph-name="j.ss01" horiz-adv-x="275" 
d="M137 627c-47 0 -81 33 -81 80s34 81 81 81s81 -34 81 -81s-34 -80 -81 -80zM70 -220v759h136v-759h-136z" />
    <glyph glyph-name="t.ss01" horiz-adv-x="389" 
d="M273 107c32 0 63 5 94 18v-110c-41 -17 -90 -25 -138 -25c-98 0 -165 68 -165 170v537h136v-158h159v-111h-159v-240c0 -49 30 -81 73 -81z" />
    <glyph glyph-name="tbar.ss01" horiz-adv-x="390" 
d="M273 107c32 0 63 5 94 18v-110c-41 -17 -90 -25 -138 -25c-98 0 -165 68 -165 170v537h136v-158h159v-111h-159v-101h148v-98h-148v-41c0 -49 30 -81 73 -81z" />
    <glyph glyph-name="tcaron.ss01" horiz-adv-x="389" 
d="M433 780l-67 -187h-103l48 187h122zM200 188c0 -49 30 -81 73 -81c32 0 63 5 94 18v-110c-41 -17 -90 -25 -138 -25c-98 0 -165 68 -165 170v537h136v-158h159v-111h-159v-240z" />
    <glyph glyph-name="uni0163.ss01" horiz-adv-x="389" 
d="M229 -10c-9 0 -18 1 -27 2l-28 -46c64 -2 104 -35 104 -84c0 -55 -50 -92 -131 -92c-40 0 -78 10 -100 25l25 50c14 -11 36 -18 61 -18c34 0 54 14 54 34c0 19 -19 31 -49 31c-14 0 -26 -3 -37 -8l-17 32l53 99c-46 29 -73 80 -73 145v537h136v-158h159v-111h-159v-240
c0 -49 30 -81 73 -81c32 0 63 5 94 18v-110c-41 -17 -90 -25 -138 -25z" />
    <glyph glyph-name="uni021B.ss01" horiz-adv-x="389" 
d="M273 107c32 0 63 5 94 18v-110c-41 -17 -90 -25 -138 -25c-98 0 -165 68 -165 170v537h136v-158h159v-111h-159v-240c0 -49 30 -81 73 -81zM95 -220l43 168h122l-62 -168h-103z" />
    <glyph glyph-name="u.ss01" horiz-adv-x="628" 
d="M314 -10c-152 0 -252 90 -252 225v324h136v-317c0 -69 46 -115 116 -115c69 0 115 46 115 115v317h136v-324c0 -135 -100 -225 -251 -225z" />
    <glyph glyph-name="uacute.ss01" horiz-adv-x="628" 
d="M229 618l136 161h158l-178 -161h-116zM314 -10c-152 0 -252 90 -252 225v324h136v-317c0 -69 46 -115 116 -115c69 0 115 46 115 115v317h136v-324c0 -135 -100 -225 -251 -225z" />
    <glyph glyph-name="ucircumflex.ss01" horiz-adv-x="628" 
d="M313 702l-70 -84h-126l131 161h130l131 -161h-125zM429 539h136v-324c0 -135 -100 -225 -251 -225c-152 0 -252 90 -252 225v324h136v-317c0 -69 46 -115 116 -115c69 0 115 46 115 115v317z" />
    <glyph glyph-name="udieresis.ss01" horiz-adv-x="628" 
d="M191 627c-47 0 -81 33 -81 80s34 81 81 81s81 -34 81 -81s-34 -80 -81 -80zM436 627c-47 0 -81 33 -81 80s34 81 81 81s81 -34 81 -81s-34 -80 -81 -80zM314 -10c-152 0 -252 90 -252 225v324h136v-317c0 -69 46 -115 116 -115c69 0 115 46 115 115v317h136v-324
c0 -135 -100 -225 -251 -225z" />
    <glyph glyph-name="ugrave.ss01" horiz-adv-x="628" 
d="M282 618l-178 161h159l135 -161h-116zM314 -10c-152 0 -252 90 -252 225v324h136v-317c0 -69 46 -115 116 -115c69 0 115 46 115 115v317h136v-324c0 -135 -100 -225 -251 -225z" />
    <glyph glyph-name="uhungarumlaut.ss01" horiz-adv-x="628" 
d="M150 618l106 161h159l-149 -161h-116zM347 618l106 161h159l-149 -161h-116zM314 -10c-152 0 -252 90 -252 225v324h136v-317c0 -69 46 -115 116 -115c69 0 115 46 115 115v317h136v-324c0 -135 -100 -225 -251 -225z" />
    <glyph glyph-name="umacron.ss01" horiz-adv-x="628" 
d="M136 624v107h356v-107h-356zM314 -10c-152 0 -252 90 -252 225v324h136v-317c0 -69 46 -115 116 -115c69 0 115 46 115 115v317h136v-324c0 -135 -100 -225 -251 -225z" />
    <glyph glyph-name="uogonek.ss01" horiz-adv-x="628" 
d="M429 539h136v-324c0 -109 -65 -188 -169 -215c-63 -40 -93 -81 -93 -119c0 -20 14 -33 36 -33c18 0 35 6 48 17l12 -67c-24 -17 -51 -28 -93 -28c-61 0 -101 36 -101 89c0 47 29 90 80 132c-136 11 -223 98 -223 224v324h136v-317c0 -69 46 -115 116 -115
c69 0 115 46 115 115v317z" />
    <glyph glyph-name="uring.ss01" horiz-adv-x="628" 
d="M314 584c-71 0 -117 43 -117 108s46 108 117 108c70 0 117 -43 117 -108s-47 -108 -117 -108zM314 645c27 0 44 19 44 47s-17 46 -44 46s-45 -18 -45 -46s18 -47 45 -47zM314 -10c-152 0 -252 90 -252 225v324h136v-317c0 -69 46 -115 116 -115c69 0 115 46 115 115v317
h136v-324c0 -135 -100 -225 -251 -225z" />
    <glyph glyph-name="y.ss01" horiz-adv-x="635" 
d="M430 539h136v-488c0 -170 -117 -281 -294 -281c-85 0 -160 23 -215 68l30 107c54 -41 113 -58 182 -58c96 0 161 65 161 165v10c-39 -47 -97 -72 -163 -72c-122 0 -205 84 -205 211v338h136v-317c0 -69 47 -115 117 -115c69 0 115 46 115 115v317z" />
    <glyph glyph-name="yacute.ss01" horiz-adv-x="635" 
d="M519 779l-178 -161h-116l136 161h158zM430 539h136v-488c0 -170 -117 -281 -294 -281c-85 0 -160 23 -215 68l30 107c54 -41 113 -58 182 -58c96 0 161 65 161 165v10c-39 -47 -97 -72 -163 -72c-122 0 -205 84 -205 211v338h136v-317c0 -69 47 -115 117 -115
c69 0 115 46 115 115v317z" />
    <glyph glyph-name="ycircumflex.ss01" horiz-adv-x="635" 
d="M309 702l-70 -84h-126l131 161h130l131 -161h-125zM430 539h136v-488c0 -170 -117 -281 -294 -281c-85 0 -160 23 -215 68l30 107c54 -41 113 -58 182 -58c96 0 161 65 161 165v10c-39 -47 -97 -72 -163 -72c-122 0 -205 84 -205 211v338h136v-317
c0 -69 47 -115 117 -115c69 0 115 46 115 115v317z" />
    <glyph glyph-name="ydieresis.ss01" horiz-adv-x="635" 
d="M187 627c-47 0 -81 33 -81 80s34 81 81 81s81 -34 81 -81s-34 -80 -81 -80zM432 627c-47 0 -81 33 -81 80s34 81 81 81s81 -34 81 -81s-34 -80 -81 -80zM430 539h136v-488c0 -170 -117 -281 -294 -281c-85 0 -160 23 -215 68l30 107c54 -41 113 -58 182 -58
c96 0 161 65 161 165v10c-39 -47 -97 -72 -163 -72c-122 0 -205 84 -205 211v338h136v-317c0 -69 47 -115 117 -115c69 0 115 46 115 115v317z" />
    <glyph glyph-name="ygrave.ss01" horiz-adv-x="635" 
d="M394 618h-116l-178 161h159zM430 539h136v-488c0 -170 -117 -281 -294 -281c-85 0 -160 23 -215 68l30 107c54 -41 113 -58 182 -58c96 0 161 65 161 165v10c-39 -47 -97 -72 -163 -72c-122 0 -205 84 -205 211v338h136v-317c0 -69 47 -115 117 -115c69 0 115 46 115 115
v317z" />
    <glyph glyph-name="a.ss02" horiz-adv-x="585" 
d="M66 539h450v-539h-131l-3 77c-36 -56 -98 -87 -164 -87c-111 0 -186 67 -186 167c0 104 91 172 229 172c37 0 78 -4 119 -12v115h-314v107zM257 87c63 0 122 50 123 138c-35 7 -71 11 -102 11c-63 0 -105 -30 -105 -76c0 -44 29 -73 84 -73z" />
    <glyph glyph-name="aacute.ss02" horiz-adv-x="585" 
d="M505 779l-178 -161h-116l136 161h158zM66 539h450v-539h-131l-3 77c-36 -56 -98 -87 -164 -87c-111 0 -186 67 -186 167c0 104 91 172 229 172c37 0 78 -4 119 -12v115h-314v107zM257 87c63 0 122 50 123 138c-35 7 -71 11 -102 11c-63 0 -105 -30 -105 -76
c0 -44 29 -73 84 -73z" />
    <glyph glyph-name="abreve.ss02" horiz-adv-x="585" 
d="M296 609c-109 0 -181 68 -181 170h103c0 -54 32 -91 78 -91c48 0 79 37 79 91h103c0 -102 -72 -170 -182 -170zM66 539h450v-539h-131l-3 77c-36 -56 -98 -87 -164 -87c-111 0 -186 67 -186 167c0 104 91 172 229 172c37 0 78 -4 119 -12v115h-314v107zM257 87
c63 0 122 50 123 138c-35 7 -71 11 -102 11c-63 0 -105 -30 -105 -76c0 -44 29 -73 84 -73z" />
    <glyph glyph-name="acircumflex.ss02" horiz-adv-x="585" 
d="M295 702l-70 -84h-126l131 161h130l131 -161h-125zM66 539h450v-539h-131l-3 77c-36 -56 -98 -87 -164 -87c-111 0 -186 67 -186 167c0 104 91 172 229 172c37 0 78 -4 119 -12v115h-314v107zM257 87c63 0 122 50 123 138c-35 7 -71 11 -102 11c-63 0 -105 -30 -105 -76
c0 -44 29 -73 84 -73z" />
    <glyph glyph-name="adieresis.ss02" horiz-adv-x="585" 
d="M173 627c-47 0 -81 33 -81 80s34 81 81 81s81 -34 81 -81s-34 -80 -81 -80zM418 627c-47 0 -81 33 -81 80s34 81 81 81s81 -34 81 -81s-34 -80 -81 -80zM66 539h450v-539h-131l-3 77c-36 -56 -98 -87 -164 -87c-111 0 -186 67 -186 167c0 104 91 172 229 172
c37 0 78 -4 119 -12v115h-314v107zM257 87c63 0 122 50 123 138c-35 7 -71 11 -102 11c-63 0 -105 -30 -105 -76c0 -44 29 -73 84 -73z" />
    <glyph glyph-name="agrave.ss02" horiz-adv-x="585" 
d="M380 618h-116l-178 161h159zM66 539h450v-539h-131l-3 77c-36 -56 -98 -87 -164 -87c-111 0 -186 67 -186 167c0 104 91 172 229 172c37 0 78 -4 119 -12v115h-314v107zM257 87c63 0 122 50 123 138c-35 7 -71 11 -102 11c-63 0 -105 -30 -105 -76c0 -44 29 -73 84 -73z
" />
    <glyph glyph-name="amacron.ss02" horiz-adv-x="585" 
d="M474 731v-107h-356v107h356zM66 539h450v-539h-131l-3 77c-36 -56 -98 -87 -164 -87c-111 0 -186 67 -186 167c0 104 91 172 229 172c37 0 78 -4 119 -12v115h-314v107zM257 87c63 0 122 50 123 138c-35 7 -71 11 -102 11c-63 0 -105 -30 -105 -76c0 -44 29 -73 84 -73z
" />
    <glyph glyph-name="aogonek.ss02" horiz-adv-x="585" 
d="M507 -135l12 -67c-24 -17 -51 -28 -93 -28c-61 0 -101 36 -101 89c0 50 33 97 91 141h-31l-3 77c-36 -56 -98 -87 -164 -87c-111 0 -186 67 -186 167c0 104 91 172 229 172c37 0 78 -4 119 -12v115h-314v107h450v-539c-63 -40 -93 -81 -93 -119c0 -20 14 -33 36 -33
c18 0 35 6 48 17zM257 87c63 0 122 50 123 138c-35 7 -71 11 -102 11c-63 0 -105 -30 -105 -76c0 -44 29 -73 84 -73z" />
    <glyph glyph-name="aring.ss02" horiz-adv-x="585" 
d="M296 584c-71 0 -117 43 -117 108s46 108 117 108c70 0 117 -43 117 -108s-47 -108 -117 -108zM296 738c-27 0 -45 -18 -45 -46s18 -47 45 -47s44 19 44 47s-17 46 -44 46zM66 539h450v-539h-131l-3 77c-36 -56 -98 -87 -164 -87c-111 0 -186 67 -186 167
c0 104 91 172 229 172c37 0 78 -4 119 -12v115h-314v107zM257 87c63 0 122 50 123 138c-35 7 -71 11 -102 11c-63 0 -105 -30 -105 -76c0 -44 29 -73 84 -73z" />
    <glyph glyph-name="atilde.ss02" horiz-adv-x="585" 
d="M216 675c-24 0 -41 -18 -41 -46h-74c0 87 46 144 114 144c66 0 117 -56 160 -56c25 0 41 16 41 46h74c0 -92 -45 -144 -113 -144c-63 0 -118 56 -161 56zM66 539h450v-539h-131l-3 77c-36 -56 -98 -87 -164 -87c-111 0 -186 67 -186 167c0 104 91 172 229 172
c37 0 78 -4 119 -12v115h-314v107zM257 87c63 0 122 50 123 138c-35 7 -71 11 -102 11c-63 0 -105 -30 -105 -76c0 -44 29 -73 84 -73z" />
    <glyph glyph-name="c.ss02" horiz-adv-x="487" 
d="M327 -10c-173 0 -289 112 -289 280c0 167 116 279 289 279c39 0 81 -11 112 -28v-126c-25 23 -64 38 -105 38c-93 0 -155 -65 -155 -163s62 -163 155 -163c43 0 83 16 108 41v-126c-29 -20 -75 -32 -115 -32z" />
    <glyph glyph-name="cacute.ss02" horiz-adv-x="487" 
d="M230 618l136 161h158l-178 -161h-116zM327 -10c-173 0 -289 112 -289 280c0 167 116 279 289 279c39 0 81 -11 112 -28v-126c-25 23 -64 38 -105 38c-93 0 -155 -65 -155 -163s62 -163 155 -163c43 0 83 16 108 41v-126c-29 -20 -75 -32 -115 -32z" />
    <glyph glyph-name="ccaron.ss02" horiz-adv-x="487" 
d="M379 618h-130l-131 161h126l70 -84l71 84h125zM179 270c0 -98 62 -163 155 -163c43 0 83 16 108 41v-126c-29 -20 -75 -32 -115 -32c-173 0 -289 112 -289 280c0 167 116 279 289 279c39 0 81 -11 112 -28v-126c-25 23 -64 38 -105 38c-93 0 -155 -65 -155 -163z" />
    <glyph glyph-name="ccedilla.ss02" horiz-adv-x="487" 
d="M442 22c-26 -18 -67 -30 -104 -32l-28 -44c64 -2 105 -36 105 -84c0 -55 -51 -92 -131 -92c-40 0 -78 10 -100 25l25 50c14 -11 36 -18 61 -18c34 0 54 14 54 34c0 19 -20 31 -49 31c-14 0 -26 -3 -37 -8l-18 32l44 79c-137 24 -226 128 -226 275c0 167 116 279 289 279
c39 0 81 -11 112 -28v-126c-25 23 -64 38 -105 38c-93 0 -155 -65 -155 -163s62 -163 155 -163c43 0 83 16 108 41v-126z" />
    <glyph glyph-name="cdotaccent.ss02" horiz-adv-x="487" 
d="M315 627c-47 0 -81 33 -81 80s34 81 81 81s81 -34 81 -81s-34 -80 -81 -80zM327 -10c-173 0 -289 112 -289 280c0 167 116 279 289 279c39 0 81 -11 112 -28v-126c-25 23 -64 38 -105 38c-93 0 -155 -65 -155 -163s62 -163 155 -163c43 0 83 16 108 41v-126
c-29 -20 -75 -32 -115 -32z" />
    <glyph glyph-name="f.ss02" horiz-adv-x="406" 
d="M401 669h-152v-130h142v-111h-142v-428h-136v428h-87v111h87v241h288v-111z" />
    <glyph glyph-name="g.ss02" horiz-adv-x="680" 
d="M481 539h131v-759h-544v111h408v187c-38 -55 -97 -88 -179 -88c-146 0 -258 113 -258 282c0 167 112 277 258 277c83 0 143 -34 181 -91zM328 107c88 0 148 65 148 163s-60 163 -148 163c-89 0 -148 -65 -148 -162c0 -99 59 -164 148 -164z" />
    <glyph glyph-name="gbreve.ss02" horiz-adv-x="680" 
d="M337 609c-109 0 -181 68 -181 170h103c0 -54 32 -91 78 -91c48 0 79 37 79 91h103c0 -102 -72 -170 -182 -170zM481 539h131v-759h-544v111h408v187c-38 -55 -97 -88 -179 -88c-146 0 -258 113 -258 282c0 167 112 277 258 277c83 0 143 -34 181 -91zM328 107
c88 0 148 65 148 163s-60 163 -148 163c-89 0 -148 -65 -148 -162c0 -99 59 -164 148 -164z" />
    <glyph glyph-name="gcommaaccent.ss02" horiz-adv-x="680" 
d="M433 780l-48 -187h-123l68 187h103zM481 539h131v-759h-544v111h408v187c-38 -55 -97 -88 -179 -88c-146 0 -258 113 -258 282c0 167 112 277 258 277c83 0 143 -34 181 -91zM328 107c88 0 148 65 148 163s-60 163 -148 163c-89 0 -148 -65 -148 -162
c0 -99 59 -164 148 -164z" />
    <glyph glyph-name="gdotaccent.ss02" horiz-adv-x="680" 
d="M337 627c-47 0 -81 33 -81 80s34 81 81 81s81 -34 81 -81s-34 -80 -81 -80zM481 539h131v-759h-544v111h408v187c-38 -55 -97 -88 -179 -88c-146 0 -258 113 -258 282c0 167 112 277 258 277c83 0 143 -34 181 -91zM328 107c88 0 148 65 148 163s-60 163 -148 163
c-89 0 -148 -65 -148 -162c0 -99 59 -164 148 -164z" />
    <glyph glyph-name="j.ss02" horiz-adv-x="275" 
d="M137 627c-47 0 -81 33 -81 80s34 81 81 81s81 -34 81 -81s-34 -80 -81 -80zM70 -220v759h136v-759h-136z" />
    <glyph glyph-name="l.ss02" horiz-adv-x="322" 
d="M70 0v780h136v-668h101v-112h-237z" />
    <glyph glyph-name="lacute.ss02" horiz-adv-x="322" 
d="M54 859l136 161h158l-178 -161h-116zM70 0v780h136v-668h101v-112h-237z" />
    <glyph glyph-name="lcaron.ss02" horiz-adv-x="338" 
d="M70 0v780h136v-668h101v-112h-237zM254 593l48 187h123l-68 -187h-103z" />
    <glyph glyph-name="lcommaaccent.ss02" horiz-adv-x="322" 
d="M70 0v780h136v-668h101v-112h-237zM84 -220l43 168h122l-62 -168h-103z" />
    <glyph glyph-name="lslash.ss02" horiz-adv-x="322" 
d="M206 112h101v-112h-237v292l-82 -58v110l82 58v378h136v-301l84 59v-109l-84 -59v-258z" />
    <glyph glyph-name="t.ss02" horiz-adv-x="395" 
d="M384 539v-111h-115v-428h-136v428h-113v111h113v158h136v-158h115z" />
    <glyph glyph-name="tbar.ss02" horiz-adv-x="397" 
d="M384 428h-115v-116h105v-97h-105v-215h-136v215h-103v97h103v116h-113v111h113v158h136v-158h115v-111z" />
    <glyph glyph-name="tcaron.ss02" horiz-adv-x="395" 
d="M381 780h122l-67 -187h-103zM269 697v-158h115v-111h-115v-428h-136v428h-113v111h113v158h136z" />
    <glyph glyph-name="uni0163.ss02" horiz-adv-x="395" 
d="M269 0h-27l-33 -54c63 -2 104 -35 104 -84c0 -55 -50 -92 -131 -92c-40 0 -78 10 -99 25l24 50c14 -11 36 -18 61 -18c34 0 54 14 54 34c0 19 -19 31 -49 31c-13 0 -26 -3 -36 -8l-18 32l47 84h-33v428h-113v111h113v158h136v-158h115v-111h-115v-428z" />
    <glyph glyph-name="uni021B.ss02" horiz-adv-x="395" 
d="M384 539v-111h-115v-428h-136v428h-113v111h113v158h136v-158h115zM97 -220l43 168h122l-62 -168h-103z" />
    <glyph glyph-name="u.ss02" horiz-adv-x="628" 
d="M314 -10c-152 0 -252 90 -252 225v324h136v-317c0 -69 46 -115 116 -115c69 0 115 46 115 115v317h136v-324c0 -135 -100 -225 -251 -225z" />
    <glyph glyph-name="uacute.ss02" horiz-adv-x="628" 
d="M229 618l136 161h158l-178 -161h-116zM314 -10c-152 0 -252 90 -252 225v324h136v-317c0 -69 46 -115 116 -115c69 0 115 46 115 115v317h136v-324c0 -135 -100 -225 -251 -225z" />
    <glyph glyph-name="ucircumflex.ss02" horiz-adv-x="628" 
d="M313 702l-70 -84h-126l131 161h130l131 -161h-125zM429 539h136v-324c0 -135 -100 -225 -251 -225c-152 0 -252 90 -252 225v324h136v-317c0 -69 46 -115 116 -115c69 0 115 46 115 115v317z" />
    <glyph glyph-name="udieresis.ss02" horiz-adv-x="628" 
d="M191 627c-47 0 -81 33 -81 80s34 81 81 81s81 -34 81 -81s-34 -80 -81 -80zM436 627c-47 0 -81 33 -81 80s34 81 81 81s81 -34 81 -81s-34 -80 -81 -80zM314 -10c-152 0 -252 90 -252 225v324h136v-317c0 -69 46 -115 116 -115c69 0 115 46 115 115v317h136v-324
c0 -135 -100 -225 -251 -225z" />
    <glyph glyph-name="ugrave.ss02" horiz-adv-x="628" 
d="M282 618l-178 161h159l135 -161h-116zM314 -10c-152 0 -252 90 -252 225v324h136v-317c0 -69 46 -115 116 -115c69 0 115 46 115 115v317h136v-324c0 -135 -100 -225 -251 -225z" />
    <glyph glyph-name="uhungarumlaut.ss02" horiz-adv-x="628" 
d="M150 618l106 161h159l-149 -161h-116zM347 618l106 161h159l-149 -161h-116zM314 -10c-152 0 -252 90 -252 225v324h136v-317c0 -69 46 -115 116 -115c69 0 115 46 115 115v317h136v-324c0 -135 -100 -225 -251 -225z" />
    <glyph glyph-name="umacron.ss02" horiz-adv-x="628" 
d="M136 624v107h356v-107h-356zM314 -10c-152 0 -252 90 -252 225v324h136v-317c0 -69 46 -115 116 -115c69 0 115 46 115 115v317h136v-324c0 -135 -100 -225 -251 -225z" />
    <glyph glyph-name="uogonek.ss02" horiz-adv-x="628" 
d="M429 539h136v-324c0 -109 -65 -188 -169 -215c-63 -40 -93 -81 -93 -119c0 -20 14 -33 36 -33c18 0 35 6 48 17l12 -67c-24 -17 -51 -28 -93 -28c-61 0 -101 36 -101 89c0 47 29 90 80 132c-136 11 -223 98 -223 224v324h136v-317c0 -69 46 -115 116 -115
c69 0 115 46 115 115v317z" />
    <glyph glyph-name="uring.ss02" horiz-adv-x="628" 
d="M314 584c-71 0 -117 43 -117 108s46 108 117 108c70 0 117 -43 117 -108s-47 -108 -117 -108zM314 645c27 0 44 19 44 47s-17 46 -44 46s-45 -18 -45 -46s18 -47 45 -47zM314 -10c-152 0 -252 90 -252 225v324h136v-317c0 -69 46 -115 116 -115c69 0 115 46 115 115v317
h136v-324c0 -135 -100 -225 -251 -225z" />
    <glyph glyph-name="y.ss02" horiz-adv-x="635" 
d="M430 539h136v-759h-499v111h363v171c-39 -47 -97 -72 -163 -72c-122 0 -205 84 -205 211v338h136v-317c0 -69 47 -115 117 -115c69 0 115 46 115 115v317z" />
    <glyph glyph-name="yacute.ss02" horiz-adv-x="635" 
d="M524 779l-178 -161h-116l136 161h158zM430 539h136v-759h-499v111h363v171c-39 -47 -97 -72 -163 -72c-122 0 -205 84 -205 211v338h136v-317c0 -69 47 -115 117 -115c69 0 115 46 115 115v317z" />
    <glyph glyph-name="ycircumflex.ss02" horiz-adv-x="635" 
d="M314 702l-70 -84h-126l131 161h130l131 -161h-125zM430 539h136v-759h-499v111h363v171c-39 -47 -97 -72 -163 -72c-122 0 -205 84 -205 211v338h136v-317c0 -69 47 -115 117 -115c69 0 115 46 115 115v317z" />
    <glyph glyph-name="ydieresis.ss02" horiz-adv-x="635" 
d="M192 627c-47 0 -81 33 -81 80s34 81 81 81s81 -34 81 -81s-34 -80 -81 -80zM437 627c-47 0 -81 33 -81 80s34 81 81 81s81 -34 81 -81s-34 -80 -81 -80zM430 539h136v-759h-499v111h363v171c-39 -47 -97 -72 -163 -72c-122 0 -205 84 -205 211v338h136v-317
c0 -69 47 -115 117 -115c69 0 115 46 115 115v317z" />
    <glyph glyph-name="ygrave.ss02" horiz-adv-x="635" 
d="M399 618h-116l-178 161h159zM430 539h136v-759h-499v111h363v171c-39 -47 -97 -72 -163 -72c-122 0 -205 84 -205 211v338h136v-317c0 -69 47 -115 117 -115c69 0 115 46 115 115v317z" />
    <glyph glyph-name="z.ss02" horiz-adv-x="527" 
d="M30 0l253 428h-249v111h457l-252 -427h257v-112h-466z" />
    <glyph glyph-name="zacute.ss02" horiz-adv-x="527" 
d="M179 618l136 161h158l-178 -161h-116zM30 0l253 428h-249v111h457l-252 -427h257v-112h-466z" />
    <glyph glyph-name="zcaron.ss02" horiz-adv-x="527" 
d="M328 618h-130l-131 161h126l70 -84l71 84h125zM239 112h257v-112h-466l253 428h-249v111h457z" />
    <glyph glyph-name="zdotaccent.ss02" horiz-adv-x="527" 
d="M264 627c-47 0 -81 33 -81 80s34 81 81 81s81 -34 81 -81s-34 -80 -81 -80zM30 0l253 428h-249v111h457l-252 -427h257v-112h-466z" />
    <glyph glyph-name="fi.ss01" horiz-adv-x="639" 
d="M69 620c0 103 70 170 174 170c44 0 87 -7 119 -22l-10 -106c-20 9 -40 11 -66 11c-48 0 -81 -29 -81 -74v-60h142v-111h-142v-428h-136v620zM502 627c-47 0 -81 33 -81 80s34 81 81 81s80 -34 80 -81s-33 -80 -80 -80zM434 0v539h136v-539h-136z" />
    <glyph glyph-name="fl.ss01" horiz-adv-x="640" 
d="M69 620c0 103 70 170 174 170c44 0 87 -7 119 -22l-10 -106c-20 9 -40 11 -66 11c-48 0 -81 -29 -81 -74v-60h142v-111h-142v-428h-136v620zM434 780h136v-780h-136v780z" />
    <glyph glyph-name="fi.ss02" horiz-adv-x="681" 
d="M544 627c-47 0 -81 33 -81 80s34 81 81 81s80 -34 80 -81s-33 -80 -80 -80zM113 539v241h288v-111h-152v-130h142v-111h-142v-428h-136v428h-87v111h87zM476 0v539h136v-539h-136z" />
    <glyph glyph-name="fl.ss02" horiz-adv-x="728" 
d="M113 539v241h288v-111h-152v-130h142v-111h-142v-428h-136v428h-87v111h87zM612 112h101v-112h-237v780h136v-668z" />
    <glyph glyph-name="ordfeminine" unicode="&#xaa;" horiz-adv-x="399" 
d="M197 750c83 0 139 -50 139 -126v-204h-82l-1 44c-22 -32 -58 -50 -97 -50c-68 0 -113 40 -113 101c0 63 55 104 139 104c21 0 45 -2 69 -7v5c0 42 -27 67 -76 67c-30 0 -55 -8 -74 -26l-38 51c36 27 77 41 134 41zM180 475c37 0 70 29 71 80c-20 4 -41 6 -58 6
c-37 0 -62 -17 -62 -44c0 -25 17 -42 49 -42z" />
    <glyph glyph-name="ordmasculine" unicode="&#xba;" horiz-adv-x="429" 
d="M215 414c-105 0 -174 67 -174 168s69 168 174 168c104 0 173 -67 173 -168s-69 -168 -173 -168zM215 488c51 0 86 37 86 94s-35 96 -86 96c-52 0 -87 -39 -87 -96s35 -94 87 -94z" />
    <glyph glyph-name="uni0394" unicode="&#x394;" horiz-adv-x="827" 
d="M480 740l315 -740h-763l316 740h132zM231 117h365l-182 448z" />
    <glyph glyph-name="uni03A9" unicode="&#x3a9;" horiz-adv-x="802" 
d="M565 163v-46h177v-117h-289v255c96 20 157 88 157 186c0 116 -84 192 -208 192c-125 0 -208 -76 -208 -192c0 -96 60 -165 157 -186v-255h-289v117h177v46c-119 48 -191 147 -191 278c0 185 141 309 354 309c211 0 352 -124 352 -309c0 -131 -71 -231 -189 -278z" />
    <glyph glyph-name="uni03BC" unicode="&#x3bc;" horiz-adv-x="641" 
d="M436 539h136v-539h-130l-2 53c-30 -42 -72 -63 -120 -63c-45 0 -86 19 -115 58v-268h-136v759h136v-317c0 -69 46 -115 115 -115c70 0 116 46 116 115v317z" />
    <glyph glyph-name="pi" unicode="&#x3c0;" horiz-adv-x="699" 
d="M595 107c20 0 40 5 59 18v-110c-30 -17 -66 -25 -102 -25c-78 0 -131 52 -131 130v308h-164v-428h-136v428h-90v111h622v-111h-96v-280c0 -25 16 -41 38 -41z" />
    <glyph glyph-name="zero" unicode="0" horiz-adv-x="645" 
d="M323 -10c-169 0 -282 152 -282 380s113 380 282 380s281 -152 281 -380s-112 -380 -281 -380zM323 107c82 0 136 105 136 263s-54 263 -136 263s-136 -105 -136 -263s54 -263 136 -263z" />
    <glyph glyph-name="one" unicode="1" horiz-adv-x="448" 
d="M220 0v559l-144 -102l-70 100l248 183h107v-740h-141z" />
    <glyph glyph-name="two" unicode="2" horiz-adv-x="593" 
d="M42 0v89l229 248c39 43 122 127 122 204c0 55 -39 92 -96 92c-63 0 -104 -45 -104 -111l-143 13c0 129 97 215 243 215s242 -78 242 -198c0 -105 -72 -190 -171 -294l-138 -144l318 3v-117h-502z" />
    <glyph glyph-name="three" unicode="3" horiz-adv-x="582" 
d="M310 449c138 -3 229 -92 229 -222c0 -142 -108 -237 -282 -237c-91 0 -178 27 -226 74l53 103c36 -38 93 -60 157 -60c94 0 152 48 152 119s-56 116 -141 116c-38 0 -71 -8 -101 -24l-38 71l204 234h-252v117h436v-88z" />
    <glyph glyph-name="four" unicode="4" horiz-adv-x="642" 
d="M364 0v143h-343v97l374 500h110v-480h102v-117h-102v-143h-141zM187 256h181l2 244z" />
    <glyph glyph-name="five" unicode="5" horiz-adv-x="592" 
d="M249 -10c-92 0 -171 22 -223 66l42 102c43 -35 105 -51 168 -51c100 0 167 53 167 132c0 68 -47 113 -119 113c-44 0 -85 -15 -109 -36l-94 13l51 411h380v-117h-259l-25 -165c21 6 48 11 81 11c140 0 240 -88 240 -220c0 -156 -123 -259 -300 -259z" />
    <glyph glyph-name="six" unicode="6" horiz-adv-x="589" 
d="M328 453c126 0 230 -90 230 -226c0 -142 -104 -237 -259 -237s-259 94 -259 235c0 85 29 148 80 219l209 296h159l-216 -291c16 3 35 4 56 4zM298 107c68 0 113 47 113 119c0 71 -45 120 -113 120c-67 0 -113 -49 -113 -120c0 -72 46 -119 113 -119z" />
    <glyph glyph-name="seven" unicode="7" horiz-adv-x="540" 
d="M23 740h501l-250 -740h-149l216 623h-318v117z" />
    <glyph glyph-name="eight" unicode="8" 
d="M446 385c75 -34 120 -97 120 -178c0 -130 -103 -217 -258 -217c-156 0 -259 86 -259 214c0 82 45 146 120 181c-63 32 -100 89 -100 161c0 123 95 204 239 204c143 0 238 -81 238 -202c0 -72 -37 -130 -100 -163zM307 633c-56 0 -93 -39 -93 -96c0 -58 37 -96 93 -96
s93 38 93 96c0 57 -37 96 -93 96zM307 107c68 0 113 43 113 108c0 66 -45 110 -113 110s-113 -44 -113 -110c0 -65 45 -108 113 -108z" />
    <glyph glyph-name="nine" unicode="9" horiz-adv-x="589" 
d="M289 750c155 0 259 -94 259 -235c0 -85 -29 -148 -80 -219l-209 -296h-159l216 291c-16 -3 -35 -4 -56 -4c-126 0 -230 90 -230 226c0 142 104 237 259 237zM177 514c0 -71 45 -120 113 -120c67 0 113 49 113 120c0 72 -46 119 -113 119c-68 0 -113 -47 -113 -119z" />
    <glyph glyph-name="zero.lf" horiz-adv-x="712" 
d="M323 -10c-169 0 -282 152 -282 380s113 380 282 380s281 -152 281 -380s-112 -380 -281 -380zM323 107c82 0 136 105 136 263s-54 263 -136 263s-136 -105 -136 -263s54 -263 136 -263z" />
    <glyph glyph-name="one.lf" horiz-adv-x="448" 
d="M220 0v559l-144 -102l-70 100l248 183h107v-740h-141z" />
    <glyph glyph-name="two.lf" horiz-adv-x="593" 
d="M42 0v89l229 248c39 43 122 127 122 204c0 55 -39 92 -96 92c-63 0 -104 -45 -104 -111l-143 13c0 129 97 215 243 215s242 -78 242 -198c0 -105 -72 -190 -171 -294l-138 -144l318 3v-117h-502z" />
    <glyph glyph-name="three.lf" horiz-adv-x="582" 
d="M310 449c138 -3 229 -92 229 -222c0 -142 -108 -237 -282 -237c-91 0 -178 27 -226 74l53 103c36 -38 93 -60 157 -60c94 0 152 48 152 119s-56 116 -141 116c-38 0 -71 -8 -101 -24l-38 71l204 234h-252v117h436v-88z" />
    <glyph glyph-name="four.lf" horiz-adv-x="642" 
d="M364 0v143h-343v97l374 500h110v-480h102v-117h-102v-143h-141zM187 256h181l2 244z" />
    <glyph glyph-name="five.lf" horiz-adv-x="592" 
d="M249 -10c-92 0 -171 22 -223 66l42 102c43 -35 105 -51 168 -51c100 0 167 53 167 132c0 68 -47 113 -119 113c-44 0 -85 -15 -109 -36l-94 13l51 411h380v-117h-259l-25 -165c21 6 48 11 81 11c140 0 240 -88 240 -220c0 -156 -123 -259 -300 -259z" />
    <glyph glyph-name="six.lf" horiz-adv-x="589" 
d="M328 453c126 0 230 -90 230 -226c0 -142 -104 -237 -259 -237s-259 94 -259 235c0 85 29 148 80 219l209 296h159l-216 -291c16 3 35 4 56 4zM298 107c68 0 113 47 113 119c0 71 -45 120 -113 120c-67 0 -113 -49 -113 -120c0 -72 46 -119 113 -119z" />
    <glyph glyph-name="seven.lf" horiz-adv-x="540" 
d="M23 740h501l-250 -740h-149l216 623h-318v117z" />
    <glyph glyph-name="eight.lf" 
d="M446 385c75 -34 120 -97 120 -178c0 -130 -103 -217 -258 -217c-156 0 -259 86 -259 214c0 82 45 146 120 181c-63 32 -100 89 -100 161c0 123 95 204 239 204c143 0 238 -81 238 -202c0 -72 -37 -130 -100 -163zM307 633c-56 0 -93 -39 -93 -96c0 -58 37 -96 93 -96
s93 38 93 96c0 57 -37 96 -93 96zM307 107c68 0 113 43 113 108c0 66 -45 110 -113 110s-113 -44 -113 -110c0 -65 45 -108 113 -108z" />
    <glyph glyph-name="nine.lf" horiz-adv-x="589" 
d="M289 750c155 0 259 -94 259 -235c0 -85 -29 -148 -80 -219l-209 -296h-159l216 291c-16 -3 -35 -4 -56 -4c-126 0 -230 90 -230 226c0 142 104 237 259 237zM177 514c0 -71 45 -120 113 -120c67 0 113 49 113 120c0 72 -46 119 -113 119c-68 0 -113 -47 -113 -119z" />
    <glyph glyph-name="zero.osf" horiz-adv-x="692" 
d="M347 -10c-184 0 -306 132 -306 330c0 197 122 329 306 329c181 0 304 -132 304 -329c0 -198 -123 -330 -304 -330zM347 107c94 0 158 85 158 213s-64 213 -158 213c-96 0 -160 -85 -160 -213s64 -213 160 -213z" />
    <glyph glyph-name="one.osf" horiz-adv-x="410" 
d="M189 0v459l-107 -75l-70 100l209 155h104v-639h-136z" />
    <glyph glyph-name="two.osf" horiz-adv-x="602" 
d="M47 0v89l264 217c37 28 92 76 92 134c0 56 -40 93 -101 93c-65 0 -108 -45 -108 -112l-139 13c0 130 98 215 244 215s242 -79 242 -198c0 -117 -76 -178 -161 -243l-126 -96h296v-112h-503z" />
    <glyph glyph-name="three.osf" horiz-adv-x="585" 
d="M313 348c136 -2 226 -91 226 -221c0 -142 -107 -237 -278 -237c-93 0 -179 27 -225 74l54 103c35 -38 92 -60 156 -60c94 0 152 48 152 119s-57 115 -143 115c-37 0 -70 -7 -100 -24l-37 71l209 240h-257v111h436v-87z" />
    <glyph glyph-name="four.osf" horiz-adv-x="645" 
d="M374 -110v110h-348v88l379 551h105v-527h102v-112h-102v-110h-136zM194 108h183l2 267z" />
    <glyph glyph-name="five.osf" horiz-adv-x="589" 
d="M247 -110c-91 0 -170 22 -222 65l42 103c43 -35 104 -51 168 -51c100 0 166 53 166 132c0 67 -47 113 -118 113c-44 0 -85 -15 -109 -37l-95 14l51 410h380v-111h-259l-29 -171c22 7 50 11 86 11c137 0 235 -87 235 -220c0 -155 -122 -258 -296 -258z" />
    <glyph glyph-name="six.osf" horiz-adv-x="582" 
d="M324 453c134 0 224 -90 224 -226c0 -142 -101 -237 -253 -237c-153 0 -255 94 -255 235c0 71 19 127 73 207l219 308h154l-217 -292c18 3 36 5 55 5zM294 107c68 0 113 47 113 119c0 71 -45 120 -113 120s-113 -49 -113 -120c0 -72 45 -119 113 -119z" />
    <glyph glyph-name="seven.osf" horiz-adv-x="560" 
d="M32 639h501l-252 -749l-131 35l201 603h-319v111z" />
    <glyph glyph-name="eight.osf" horiz-adv-x="605" 
d="M439 385c73 -34 117 -97 117 -178c0 -130 -101 -217 -253 -217c-153 0 -254 86 -254 214c0 82 44 147 118 181c-62 32 -98 89 -98 161c0 123 93 204 234 204c140 0 233 -81 233 -202c0 -72 -36 -130 -97 -163zM302 633c-56 0 -93 -39 -93 -96c0 -58 37 -96 93 -96
s93 38 93 96c0 57 -37 96 -93 96zM302 107c68 0 113 43 113 108c0 66 -45 110 -113 110s-113 -44 -113 -110c0 -65 45 -108 113 -108z" />
    <glyph glyph-name="nine.osf" horiz-adv-x="577" 
d="M285 649c153 0 254 -94 254 -234c0 -72 -18 -129 -72 -207l-227 -318l-127 35l197 267c-17 -3 -35 -5 -54 -5c-135 0 -225 90 -225 226c0 142 102 236 254 236zM172 414c0 -72 45 -120 113 -120c67 0 113 48 113 120c0 71 -46 119 -113 119c-68 0 -113 -48 -113 -119z
" />
    <glyph glyph-name="one.ss02" horiz-adv-x="370" 
d="M143 0v623h-115v117h256v-740h-141z" />
    <glyph glyph-name="one.lf.ss02" horiz-adv-x="370" 
d="M143 0v623h-115v117h256v-740h-141z" />
    <glyph glyph-name="one.osf.ss02" horiz-adv-x="368" 
d="M147 0v528h-108v111h244v-639h-136z" />
    <glyph glyph-name="one.tf.ss02" 
d="M417 117h137v-117h-485v117h207v506h-145v117h286v-623z" />
    <glyph glyph-name="one.tosf.ss02" 
d="M407 112h150v-112h-484v112h198v416h-139v111h275v-527z" />
    <glyph glyph-name="zero.tf" 
d="M308 -10c-155 0 -259 152 -259 380s104 380 259 380c154 0 258 -152 258 -380s-104 -380 -258 -380zM308 107c67 0 112 105 112 263s-45 263 -112 263s-113 -105 -113 -263s46 -263 113 -263z" />
    <glyph glyph-name="one.tf" 
d="M427 117h137v-117h-485v117h207v442l-145 -102l-70 100l248 183h108v-623z" />
    <glyph glyph-name="two.tf" 
d="M53 0v89l229 248c39 43 122 127 122 204c0 55 -39 92 -96 92c-63 0 -104 -45 -104 -111l-143 13c0 129 97 215 244 215c145 0 242 -78 242 -198c0 -105 -73 -190 -172 -294l-138 -144l319 3v-117h-503z" />
    <glyph glyph-name="three.tf" 
d="M326 449c138 -3 229 -92 229 -222c0 -142 -108 -237 -282 -237c-93 0 -180 27 -226 74l54 103c35 -38 92 -60 156 -60c95 0 153 48 153 119s-58 116 -144 116c-36 0 -70 -8 -99 -24l-38 71l204 234h-252v117h436v-88z" />
    <glyph glyph-name="four.tf" 
d="M340 0v143h-323v97l354 500h110v-480h103v-117h-103v-143h-141zM178 256h167l2 243z" />
    <glyph glyph-name="five.tf" 
d="M260 -10c-92 0 -170 22 -223 66l42 102c43 -35 105 -51 168 -51c101 0 167 53 167 132c0 68 -47 113 -119 113c-44 0 -85 -15 -109 -36l-94 13l51 411h380v-117h-259l-24 -165c21 6 47 11 81 11c140 0 239 -88 239 -220c0 -156 -123 -259 -300 -259z" />
    <glyph glyph-name="six.tf" 
d="M341 453c127 0 230 -90 230 -226c0 -142 -104 -237 -259 -237s-259 94 -259 235c0 85 29 148 80 219l210 296h158l-216 -290c16 2 35 3 56 3zM312 107c67 0 113 47 113 119c0 71 -46 120 -113 120c-68 0 -113 -49 -113 -120c0 -72 45 -119 113 -119z" />
    <glyph glyph-name="seven.tf" 
d="M60 740h501l-249 -740h-149l216 623h-319v117z" />
    <glyph glyph-name="eight.tf" 
d="M446 385c75 -34 120 -97 120 -178c0 -130 -103 -217 -258 -217c-156 0 -260 86 -260 214c0 82 45 146 120 181c-63 32 -100 89 -100 161c0 123 96 204 240 204c143 0 238 -81 238 -202c0 -72 -37 -130 -100 -163zM307 633c-56 0 -93 -39 -93 -96c0 -58 37 -96 93 -96
s93 38 93 96c0 57 -37 96 -93 96zM307 107c68 0 113 43 113 108c0 66 -45 110 -113 110s-113 -44 -113 -110c0 -65 45 -108 113 -108z" />
    <glyph glyph-name="nine.tf" 
d="M302 750c155 0 259 -94 259 -235c0 -85 -29 -148 -80 -219l-209 -296h-159l216 291c-16 -3 -35 -4 -56 -4c-126 0 -230 90 -230 226c0 142 104 237 259 237zM190 514c0 -71 45 -120 113 -120c67 0 113 49 113 120c0 72 -46 119 -113 119c-68 0 -113 -47 -113 -119z" />
    <glyph glyph-name="zero.tosf" 
d="M308 -10c-155 0 -259 132 -259 330c0 197 104 329 259 329c154 0 258 -132 258 -329c0 -198 -104 -330 -258 -330zM308 107c67 0 112 85 112 213s-45 213 -112 213s-113 -85 -113 -213s46 -213 113 -213z" />
    <glyph glyph-name="one.tosf" 
d="M400 112h161v-112h-484v112h187v347l-107 -75l-70 100l210 155h103v-527z" />
    <glyph glyph-name="two.tosf" 
d="M54 0v89l264 217c36 28 92 76 92 134c0 56 -41 93 -101 93c-66 0 -109 -45 -109 -112l-139 13c0 130 98 215 244 215s242 -79 242 -198c0 -117 -77 -178 -161 -243l-124 -96h294v-112h-502z" />
    <glyph glyph-name="three.tosf" 
d="M328 348c136 -2 225 -91 225 -221c0 -142 -106 -237 -277 -237c-93 0 -179 27 -226 74l54 103c35 -38 92 -60 157 -60c94 0 152 48 152 119s-58 115 -144 115c-36 0 -70 -7 -99 -24l-37 71l209 240h-258v111h436v-87z" />
    <glyph glyph-name="four.tosf" 
d="M349 -110v110h-329v88l360 551h105v-527h103v-112h-103v-110h-136zM175 108h178l1 270z" />
    <glyph glyph-name="five.tosf" 
d="M260 -110c-92 0 -170 22 -222 65l42 103c43 -35 104 -51 167 -51c101 0 167 53 167 132c0 67 -47 113 -118 113c-44 0 -85 -15 -109 -37l-95 14l51 410h380v-111h-259l-29 -171c22 7 50 11 86 11c137 0 235 -87 235 -220c0 -155 -122 -258 -296 -258z" />
    <glyph glyph-name="six.tosf" 
d="M340 453c135 0 225 -90 225 -226c0 -142 -101 -237 -254 -237c-152 0 -254 94 -254 235c0 71 19 127 72 207l220 308h153l-216 -291c17 3 35 4 54 4zM311 107c68 0 113 47 113 119c0 71 -45 120 -113 120s-113 -49 -113 -120c0 -72 45 -119 113 -119z" />
    <glyph glyph-name="seven.tosf" 
d="M60 639h501l-253 -749l-131 35l201 603h-318v111z" />
    <glyph glyph-name="eight.tosf" 
d="M444 385c73 -34 117 -97 117 -178c0 -130 -101 -217 -253 -217c-153 0 -255 86 -255 214c0 82 44 146 118 181c-61 32 -98 89 -98 161c0 123 94 204 235 204c140 0 233 -81 233 -202c0 -72 -36 -130 -97 -163zM307 633c-56 0 -93 -39 -93 -96c0 -58 37 -96 93 -96
s93 38 93 96c0 57 -37 96 -93 96zM307 107c68 0 113 43 113 108c0 66 -45 110 -113 110s-113 -44 -113 -110c0 -65 45 -108 113 -108z" />
    <glyph glyph-name="nine.tosf" 
d="M305 649c152 0 253 -94 253 -234c0 -72 -18 -129 -72 -207l-227 -318l-127 35l198 266c-17 -3 -35 -4 -54 -4c-136 0 -226 90 -226 226c0 142 102 236 255 236zM191 414c0 -72 45 -120 113 -120s113 48 113 120c0 71 -45 119 -113 119s-113 -48 -113 -119z" />
    <glyph glyph-name="uni2080" unicode="&#x2080;" horiz-adv-x="395" 
d="M199 -106c-103 0 -171 91 -171 228s68 228 171 228c100 0 168 -91 168 -228s-68 -228 -168 -228zM199 -34c48 0 80 63 80 156s-32 156 -80 156s-81 -63 -81 -156s33 -156 81 -156z" />
    <glyph glyph-name="uni2081" unicode="&#x2081;" horiz-adv-x="277" 
d="M133 -100v332l-84 -60l-44 62l149 110h67v-444h-88z" />
    <glyph glyph-name="uni2082" unicode="&#x2082;" horiz-adv-x="366" 
d="M30 -100v56l137 148c22 25 72 75 72 120c0 33 -22 54 -55 54c-37 0 -60 -27 -60 -65l-89 7c0 78 59 130 147 130c87 0 145 -48 145 -120c0 -61 -41 -112 -102 -174l-81 -85l189 1v-72h-303z" />
    <glyph glyph-name="uni2083" unicode="&#x2083;" horiz-adv-x="358" 
d="M193 171c81 -2 135 -56 135 -134c0 -86 -66 -143 -171 -143c-54 0 -107 16 -136 43l34 65c21 -22 55 -36 92 -36c56 0 90 29 90 71c0 40 -33 67 -83 67c-22 0 -42 -5 -59 -15l-24 45l121 138h-150v72h263v-54z" />
    <glyph glyph-name="uni2084" unicode="&#x2084;" horiz-adv-x="394" 
d="M220 -100v85h-205v60l224 299h69v-286h60v-73h-60v-85h-88zM113 55h109l1 147z" />
    <glyph glyph-name="uni2085" unicode="&#x2085;" horiz-adv-x="363" 
d="M152 -106c-55 0 -103 13 -134 39l26 64c26 -21 62 -31 100 -31c59 0 99 32 99 79c0 38 -28 65 -70 65c-26 0 -50 -10 -64 -22l-58 8l31 248h229v-72h-154l-14 -96c12 4 26 7 46 7c85 0 144 -53 144 -132c0 -94 -74 -157 -181 -157z" />
    <glyph glyph-name="uni2086" unicode="&#x2086;" horiz-adv-x="363" 
d="M203 172c75 0 138 -54 138 -136c0 -85 -63 -142 -157 -142s-156 56 -156 141c0 52 17 90 49 135l124 174h99l-130 -174c10 1 21 2 33 2zM184 -34c39 0 66 28 66 70s-27 69 -66 69s-65 -27 -65 -69s26 -70 65 -70z" />
    <glyph glyph-name="uni2087" unicode="&#x2087;" horiz-adv-x="327" 
d="M16 344h302l-149 -444h-93l128 372h-188v72z" />
    <glyph glyph-name="uni2088" unicode="&#x2088;" horiz-adv-x="380" 
d="M276 131c44 -20 71 -58 71 -106c0 -79 -63 -131 -157 -131s-156 52 -156 129c0 49 26 87 70 108c-37 20 -58 54 -58 97c0 73 57 122 144 122s145 -49 145 -121c0 -43 -22 -78 -59 -98zM190 278c-32 0 -53 -23 -53 -57c0 -33 21 -55 53 -55c33 0 54 22 54 55
c0 34 -21 57 -54 57zM190 -34c39 0 66 26 66 64s-27 64 -66 64s-65 -26 -65 -64s26 -64 65 -64z" />
    <glyph glyph-name="uni2089" unicode="&#x2089;" horiz-adv-x="363" 
d="M179 350c94 0 156 -56 156 -141c0 -52 -17 -90 -49 -135l-124 -174h-99l130 174c-10 -1 -21 -2 -33 -2c-75 0 -138 54 -138 136c0 85 63 142 157 142zM113 208c0 -42 27 -69 66 -69s65 27 65 69s-26 70 -65 70s-66 -28 -66 -70z" />
    <glyph glyph-name="zero.dnom" horiz-adv-x="395" 
d="M199 -6c-103 0 -171 91 -171 228s68 228 171 228c100 0 168 -91 168 -228s-68 -228 -168 -228zM199 66c48 0 80 63 80 156s-32 156 -80 156s-81 -63 -81 -156s33 -156 81 -156z" />
    <glyph glyph-name="one.dnom" horiz-adv-x="277" 
d="M133 0v332l-84 -60l-44 62l149 110h67v-444h-88z" />
    <glyph glyph-name="two.dnom" horiz-adv-x="366" 
d="M30 0v56l137 148c22 25 72 75 72 120c0 33 -22 54 -55 54c-37 0 -60 -27 -60 -65l-89 7c0 78 59 130 147 130c87 0 145 -48 145 -120c0 -61 -41 -112 -102 -174l-81 -85l189 1v-72h-303z" />
    <glyph glyph-name="three.dnom" horiz-adv-x="358" 
d="M193 271c81 -2 135 -56 135 -134c0 -86 -66 -143 -171 -143c-54 0 -107 16 -136 43l34 65c21 -22 55 -36 92 -36c56 0 90 29 90 71c0 40 -33 67 -83 67c-22 0 -42 -5 -59 -15l-24 45l121 138h-150v72h263v-54z" />
    <glyph glyph-name="four.dnom" horiz-adv-x="394" 
d="M220 0v85h-205v60l224 299h69v-286h60v-73h-60v-85h-88zM113 155h109l1 147z" />
    <glyph glyph-name="five.dnom" horiz-adv-x="363" 
d="M152 -6c-55 0 -103 13 -134 39l26 64c26 -21 62 -31 100 -31c59 0 99 32 99 79c0 38 -28 65 -70 65c-26 0 -50 -10 -64 -22l-58 8l31 248h229v-72h-154l-14 -96c12 4 26 7 46 7c85 0 144 -53 144 -132c0 -94 -74 -157 -181 -157z" />
    <glyph glyph-name="six.dnom" horiz-adv-x="363" 
d="M203 272c75 0 138 -54 138 -136c0 -85 -63 -142 -157 -142s-156 56 -156 141c0 52 17 90 49 135l124 174h99l-130 -174c10 1 21 2 33 2zM184 66c39 0 66 28 66 70s-27 69 -66 69s-65 -27 -65 -69s26 -70 65 -70z" />
    <glyph glyph-name="seven.dnom" horiz-adv-x="327" 
d="M16 444h302l-149 -444h-93l128 372h-188v72z" />
    <glyph glyph-name="eight.dnom" horiz-adv-x="380" 
d="M276 231c44 -20 71 -58 71 -106c0 -79 -63 -131 -157 -131s-156 52 -156 129c0 49 26 87 70 108c-37 20 -58 54 -58 97c0 73 57 122 144 122s145 -49 145 -121c0 -43 -22 -78 -59 -98zM190 378c-32 0 -53 -23 -53 -57c0 -33 21 -55 53 -55c33 0 54 22 54 55
c0 34 -21 57 -54 57zM190 66c39 0 66 26 66 64s-27 64 -66 64s-65 -26 -65 -64s26 -64 65 -64z" />
    <glyph glyph-name="nine.dnom" horiz-adv-x="363" 
d="M179 450c94 0 156 -56 156 -141c0 -52 -17 -90 -49 -135l-124 -174h-99l130 174c-10 -1 -21 -2 -33 -2c-75 0 -138 54 -138 136c0 85 63 142 157 142zM113 308c0 -42 27 -69 66 -69s65 27 65 69s-26 70 -65 70s-66 -28 -66 -70z" />
    <glyph glyph-name="zero.numr" horiz-adv-x="395" 
d="M199 290c-103 0 -171 91 -171 228s68 228 171 228c100 0 168 -91 168 -228s-68 -228 -168 -228zM199 362c48 0 80 63 80 156s-32 156 -80 156s-81 -63 -81 -156s33 -156 81 -156z" />
    <glyph glyph-name="one.numr" horiz-adv-x="277" 
d="M133 296v332l-84 -60l-44 62l149 110h67v-444h-88z" />
    <glyph glyph-name="two.numr" horiz-adv-x="366" 
d="M30 296v56l137 148c22 25 72 75 72 120c0 33 -22 54 -55 54c-37 0 -60 -27 -60 -65l-89 7c0 78 59 130 147 130c87 0 145 -48 145 -120c0 -61 -41 -112 -102 -174l-81 -85l189 1v-72h-303z" />
    <glyph glyph-name="three.numr" horiz-adv-x="358" 
d="M193 567c81 -2 135 -56 135 -134c0 -86 -66 -143 -171 -143c-54 0 -107 16 -136 43l34 65c21 -22 55 -36 92 -36c56 0 90 29 90 71c0 40 -33 67 -83 67c-22 0 -42 -5 -59 -15l-24 45l121 138h-150v72h263v-54z" />
    <glyph glyph-name="four.numr" horiz-adv-x="394" 
d="M220 296v85h-205v60l224 299h69v-286h60v-73h-60v-85h-88zM113 451h109l1 147z" />
    <glyph glyph-name="five.numr" horiz-adv-x="363" 
d="M152 290c-55 0 -103 13 -134 39l26 64c26 -21 62 -31 100 -31c59 0 99 32 99 79c0 38 -28 65 -70 65c-26 0 -50 -10 -64 -22l-58 8l31 248h229v-72h-154l-14 -96c12 4 26 7 46 7c85 0 144 -53 144 -132c0 -94 -74 -157 -181 -157z" />
    <glyph glyph-name="six.numr" horiz-adv-x="363" 
d="M203 568c75 0 138 -54 138 -136c0 -85 -63 -142 -157 -142s-156 56 -156 141c0 52 17 90 49 135l124 174h99l-130 -174c10 1 21 2 33 2zM184 362c39 0 66 28 66 70s-27 69 -66 69s-65 -27 -65 -69s26 -70 65 -70z" />
    <glyph glyph-name="seven.numr" horiz-adv-x="327" 
d="M16 740h302l-149 -444h-93l128 372h-188v72z" />
    <glyph glyph-name="eight.numr" horiz-adv-x="380" 
d="M276 527c44 -20 71 -58 71 -106c0 -79 -63 -131 -157 -131s-156 52 -156 129c0 49 26 87 70 108c-37 20 -58 54 -58 97c0 73 57 122 144 122s145 -49 145 -121c0 -43 -22 -78 -59 -98zM190 674c-32 0 -53 -23 -53 -57c0 -33 21 -55 53 -55c33 0 54 22 54 55
c0 34 -21 57 -54 57zM190 362c39 0 66 26 66 64s-27 64 -66 64s-65 -26 -65 -64s26 -64 65 -64z" />
    <glyph glyph-name="nine.numr" horiz-adv-x="363" 
d="M179 746c94 0 156 -56 156 -141c0 -52 -17 -90 -49 -135l-124 -174h-99l130 174c-10 -1 -21 -2 -33 -2c-75 0 -138 54 -138 136c0 85 63 142 157 142zM113 604c0 -42 27 -69 66 -69s65 27 65 69s-26 70 -65 70s-66 -28 -66 -70z" />
    <glyph glyph-name="uni2070" unicode="&#x2070;" horiz-adv-x="395" 
d="M199 390c-103 0 -171 91 -171 228s68 228 171 228c100 0 168 -91 168 -228s-68 -228 -168 -228zM199 462c48 0 80 63 80 156s-32 156 -80 156s-81 -63 -81 -156s33 -156 81 -156z" />
    <glyph glyph-name="uni00B9" unicode="&#xb9;" horiz-adv-x="277" 
d="M133 396v332l-84 -60l-44 62l149 110h67v-444h-88z" />
    <glyph glyph-name="uni00B2" unicode="&#xb2;" horiz-adv-x="366" 
d="M30 396v56l137 148c22 25 72 75 72 120c0 33 -22 54 -55 54c-37 0 -60 -27 -60 -65l-89 7c0 78 59 130 147 130c87 0 145 -48 145 -120c0 -61 -41 -112 -102 -174l-81 -85l189 1v-72h-303z" />
    <glyph glyph-name="uni00B3" unicode="&#xb3;" horiz-adv-x="358" 
d="M193 667c81 -2 135 -56 135 -134c0 -86 -66 -143 -171 -143c-54 0 -107 16 -136 43l34 65c21 -22 55 -36 92 -36c56 0 90 29 90 71c0 40 -33 67 -83 67c-22 0 -42 -5 -59 -15l-24 45l121 138h-150v72h263v-54z" />
    <glyph glyph-name="uni2074" unicode="&#x2074;" horiz-adv-x="394" 
d="M220 396v85h-205v60l224 299h69v-286h60v-73h-60v-85h-88zM113 551h109l1 147z" />
    <glyph glyph-name="uni2075" unicode="&#x2075;" horiz-adv-x="363" 
d="M152 390c-55 0 -103 13 -134 39l26 64c26 -21 62 -31 100 -31c59 0 99 32 99 79c0 38 -28 65 -70 65c-26 0 -50 -10 -64 -22l-58 8l31 248h229v-72h-154l-14 -96c12 4 26 7 46 7c85 0 144 -53 144 -132c0 -94 -74 -157 -181 -157z" />
    <glyph glyph-name="uni2076" unicode="&#x2076;" horiz-adv-x="363" 
d="M203 668c75 0 138 -54 138 -136c0 -85 -63 -142 -157 -142s-156 56 -156 141c0 52 17 90 49 135l124 174h99l-130 -174c10 1 21 2 33 2zM184 462c39 0 66 28 66 70s-27 69 -66 69s-65 -27 -65 -69s26 -70 65 -70z" />
    <glyph glyph-name="uni2077" unicode="&#x2077;" horiz-adv-x="327" 
d="M16 840h302l-149 -444h-93l128 372h-188v72z" />
    <glyph glyph-name="uni2078" unicode="&#x2078;" horiz-adv-x="380" 
d="M276 627c44 -20 71 -58 71 -106c0 -79 -63 -131 -157 -131s-156 52 -156 129c0 49 26 87 70 108c-37 20 -58 54 -58 97c0 73 57 122 144 122s145 -49 145 -121c0 -43 -22 -78 -59 -98zM190 774c-32 0 -53 -23 -53 -57c0 -33 21 -55 53 -55c33 0 54 22 54 55
c0 34 -21 57 -54 57zM190 462c39 0 66 26 66 64s-27 64 -66 64s-65 -26 -65 -64s26 -64 65 -64z" />
    <glyph glyph-name="uni2079" unicode="&#x2079;" horiz-adv-x="363" 
d="M179 846c94 0 156 -56 156 -141c0 -52 -17 -90 -49 -135l-124 -174h-99l130 174c-10 -1 -21 -2 -33 -2c-75 0 -138 54 -138 136c0 85 63 142 157 142zM113 704c0 -42 27 -69 66 -69s65 27 65 69s-26 70 -65 70s-66 -28 -66 -70z" />
    <glyph glyph-name="fraction" unicode="&#x2044;" horiz-adv-x="223" 
d="M-62 -10l-73 44l420 716l72 -44z" />
    <glyph glyph-name="onehalf" unicode="&#xbd;" horiz-adv-x="866" 
d="M215 -10l-73 44l420 716l72 -44zM133 296v332l-84 -60l-44 62l149 110h67v-444h-88zM530 0v56l137 148c22 25 72 75 72 120c0 33 -22 54 -55 54c-37 0 -60 -27 -60 -65l-89 7c0 78 59 130 147 130c87 0 145 -48 145 -120c0 -61 -41 -112 -102 -174l-81 -85l189 1v-72
h-303z" />
    <glyph glyph-name="onequarter" unicode="&#xbc;" horiz-adv-x="855" 
d="M215 -10l-73 44l420 716l72 -44zM133 296v332l-84 -60l-44 62l149 110h67v-444h-88zM681 0v85h-205v60l224 299h69v-286h60v-73h-60v-85h-88zM574 155h109l1 147z" />
    <glyph glyph-name="threequarters" unicode="&#xbe;" horiz-adv-x="936" 
d="M643 750l72 -44l-419 -716l-73 44zM328 433c0 -86 -66 -143 -171 -143c-54 0 -107 16 -136 43l34 65c21 -22 55 -36 92 -36c56 0 90 29 90 71c0 40 -33 67 -83 67c-22 0 -42 -5 -59 -15l-24 45l121 138h-150v72h263v-54l-112 -119c81 -2 135 -56 135 -134zM850 158h60
v-73h-60v-85h-88v85h-205v60l224 299h69v-286zM764 155l1 147l-110 -147h109z" />
    <glyph glyph-name="oneeighth" unicode="&#x215b;" horiz-adv-x="880" 
d="M562 750l72 -44l-419 -716l-73 44zM221 296h-88v332l-84 -60l-44 62l149 110h67v-444zM776 231c44 -20 71 -58 71 -106c0 -79 -63 -131 -157 -131s-156 52 -156 129c0 49 26 87 70 108c-37 20 -58 54 -58 97c0 73 57 122 144 122s145 -49 145 -121c0 -43 -22 -78 -59 -98
zM690 378c-32 0 -53 -23 -53 -57c0 -33 21 -55 53 -55c33 0 54 22 54 55c0 34 -21 57 -54 57zM690 66c39 0 66 26 66 64s-27 64 -66 64s-65 -26 -65 -64s26 -64 65 -64z" />
    <glyph glyph-name="threeeighths" unicode="&#x215c;" horiz-adv-x="961" 
d="M643 750l72 -44l-419 -716l-73 44zM328 433c0 -86 -66 -143 -171 -143c-54 0 -107 16 -136 43l34 65c21 -22 55 -36 92 -36c56 0 90 29 90 71c0 40 -33 67 -83 67c-22 0 -42 -5 -59 -15l-24 45l121 138h-150v72h263v-54l-112 -119c81 -2 135 -56 135 -134zM857 231
c44 -20 71 -58 71 -106c0 -79 -63 -131 -157 -131s-156 52 -156 129c0 49 26 87 70 108c-37 20 -58 54 -58 97c0 73 57 122 144 122s145 -49 145 -121c0 -43 -22 -78 -59 -98zM771 378c-32 0 -53 -23 -53 -57c0 -33 21 -55 53 -55c33 0 54 22 54 55c0 34 -21 57 -54 57z
M771 66c39 0 66 26 66 64s-27 64 -66 64s-65 -26 -65 -64s26 -64 65 -64z" />
    <glyph glyph-name="fiveeighths" unicode="&#x215d;" horiz-adv-x="966" 
d="M648 750l72 -44l-419 -716l-73 44zM333 447c0 -94 -74 -157 -181 -157c-55 0 -103 13 -134 39l26 64c26 -21 62 -31 100 -31c59 0 99 32 99 79c0 38 -28 65 -70 65c-26 0 -50 -10 -64 -22l-58 8l31 248h229v-72h-154l-14 -96c12 4 26 7 46 7c85 0 144 -53 144 -132z
M862 231c44 -20 71 -58 71 -106c0 -79 -63 -131 -157 -131s-156 52 -156 129c0 49 26 87 70 108c-37 20 -58 54 -58 97c0 73 57 122 144 122s145 -49 145 -121c0 -43 -22 -78 -59 -98zM776 378c-32 0 -53 -23 -53 -57c0 -33 21 -55 53 -55c33 0 54 22 54 55
c0 34 -21 57 -54 57zM776 66c39 0 66 26 66 64s-27 64 -66 64s-65 -26 -65 -64s26 -64 65 -64z" />
    <glyph glyph-name="seveneighths" unicode="&#x215e;" horiz-adv-x="901" 
d="M583 750l72 -44l-419 -716l-73 44zM169 296h-93l128 372h-188v72h302zM797 231c44 -20 71 -58 71 -106c0 -79 -63 -131 -157 -131s-156 52 -156 129c0 49 26 87 70 108c-37 20 -58 54 -58 97c0 73 57 122 144 122s145 -49 145 -121c0 -43 -22 -78 -59 -98zM711 378
c-32 0 -53 -23 -53 -57c0 -33 21 -55 53 -55c33 0 54 22 54 55c0 34 -21 57 -54 57zM711 66c39 0 66 26 66 64s-27 64 -66 64s-65 -26 -65 -64s26 -64 65 -64z" />
    <glyph glyph-name="uni2081.ss02" horiz-adv-x="234" 
d="M90 -100v372h-69v72h157v-444h-88z" />
    <glyph glyph-name="one.dnom.ss02" horiz-adv-x="234" 
d="M90 0v372h-69v72h157v-444h-88z" />
    <glyph glyph-name="one.numr.ss02" horiz-adv-x="234" 
d="M90 296v372h-69v72h157v-444h-88z" />
    <glyph glyph-name="uni00B9.ss02" horiz-adv-x="234" 
d="M90 396v372h-69v72h157v-444h-88z" />
    <glyph glyph-name="onehalf.ss02" horiz-adv-x="823" 
d="M172 -10l-73 44l420 716l72 -44zM90 296v372h-69v72h157v-444h-88zM487 0v56l137 148c22 25 72 75 72 120c0 33 -22 54 -55 54c-37 0 -60 -27 -60 -65l-89 7c0 78 59 130 147 130c87 0 145 -48 145 -120c0 -61 -41 -112 -102 -174l-81 -85l189 1v-72h-303z" />
    <glyph glyph-name="onequarter.ss02" horiz-adv-x="812" 
d="M172 -10l-73 44l420 716l72 -44zM90 296v372h-69v72h157v-444h-88zM638 0v85h-205v60l224 299h69v-286h60v-73h-60v-85h-88zM531 155h109l1 147z" />
    <glyph glyph-name="oneeighth.ss02" horiz-adv-x="837" 
d="M519 750l72 -44l-419 -716l-73 44zM178 296h-88v372h-69v72h157v-444zM733 231c44 -20 71 -58 71 -106c0 -79 -63 -131 -157 -131s-156 52 -156 129c0 49 26 87 70 108c-37 20 -58 54 -58 97c0 73 57 122 144 122s145 -49 145 -121c0 -43 -22 -78 -59 -98zM647 378
c-32 0 -53 -23 -53 -57c0 -33 21 -55 53 -55c33 0 54 22 54 55c0 34 -21 57 -54 57zM647 66c39 0 66 26 66 64s-27 64 -66 64s-65 -26 -65 -64s26 -64 65 -64z" />
    <glyph glyph-name="asterisk" unicode="*" horiz-adv-x="394" 
d="M347 600l-85 -25l54 -70l-69 -50l-50 73l-50 -73l-69 50l54 70l-84 25l26 81l83 -30l-3 89h86l-2 -88l83 29z" />
    <glyph glyph-name="backslash" unicode="\" horiz-adv-x="450" 
d="M276 -100l-239 880h137l239 -880h-137z" />
    <glyph glyph-name="periodcentered" unicode="&#xb7;" horiz-adv-x="283" 
d="M141 202c-48 0 -89 40 -89 89s41 89 89 89c49 0 89 -40 89 -89s-40 -89 -89 -89z" />
    <glyph glyph-name="bullet" unicode="&#x2022;" horiz-adv-x="395" 
d="M198 187c-73 0 -121 48 -121 121s48 121 121 121s121 -48 121 -121s-48 -121 -121 -121z" />
    <glyph glyph-name="colon" unicode=":" horiz-adv-x="291" 
d="M146 372c-49 0 -90 40 -90 89s41 88 90 88c48 0 88 -39 88 -88s-40 -89 -88 -89zM146 -10c-49 0 -90 40 -90 89s41 89 90 89c48 0 88 -40 88 -89s-40 -89 -88 -89z" />
    <glyph glyph-name="comma" unicode="," horiz-adv-x="288" 
d="M8 -145l70 274h157l-89 -274h-138z" />
    <glyph glyph-name="ellipsis" unicode="&#x2026;" horiz-adv-x="785" 
d="M136 -10c-49 0 -89 40 -89 89s40 89 89 89s89 -40 89 -89s-40 -89 -89 -89zM393 -10c-49 0 -89 40 -89 89s40 89 89 89s88 -40 88 -89s-39 -89 -88 -89zM650 -10c-49 0 -90 40 -90 89s41 89 90 89c48 0 88 -40 88 -89s-40 -89 -88 -89z" />
    <glyph glyph-name="exclam" unicode="!" horiz-adv-x="290" 
d="M87 217l-13 523h142l-12 -523h-117zM145 -10c-46 0 -81 34 -81 81s35 81 81 81c47 0 81 -34 81 -81s-34 -81 -81 -81z" />
    <glyph glyph-name="exclamdown" unicode="&#xa1;" horiz-adv-x="277" 
d="M139 387c-47 0 -82 35 -82 82c0 46 35 80 82 80c46 0 80 -34 80 -80c0 -47 -34 -82 -80 -82zM67 -220l13 543h117l12 -543h-142z" />
    <glyph glyph-name="numbersign" unicode="#" horiz-adv-x="744" 
d="M689 424h-122l-35 -151h124l-22 -89h-122l-43 -184h-99l43 184h-160l-43 -184h-98l43 184h-122l22 89h120l35 151h-121l20 89h122l43 187h98l-43 -187h160l43 187h99l-43 -187h122zM433 273l35 151h-160l-35 -151h160z" />
    <glyph glyph-name="period" unicode="." horiz-adv-x="272" 
d="M136 -10c-49 0 -89 40 -89 89s40 89 89 89s89 -40 89 -89s-40 -89 -89 -89z" />
    <glyph glyph-name="question" unicode="?" horiz-adv-x="549" 
d="M210 217c0 141 57 196 104 237c30 27 54 51 54 90c0 54 -40 89 -100 89c-59 0 -100 -35 -105 -89l-131 6c6 120 100 200 236 200c148 0 246 -79 246 -198c0 -78 -44 -117 -90 -156c-48 -41 -97 -83 -97 -179h-117zM268 -10c-47 0 -81 34 -81 81s34 81 81 81
s81 -34 81 -81s-34 -81 -81 -81z" />
    <glyph glyph-name="questiondown" unicode="&#xbf;" horiz-adv-x="543" 
d="M279 387c-47 0 -82 35 -82 82c0 46 35 80 82 80c46 0 80 -34 80 -80c0 -47 -34 -82 -80 -82zM279 -230c-148 0 -247 79 -247 198c0 79 45 115 89 156c49 46 99 92 99 199h117c0 -153 -57 -213 -104 -257c-30 -27 -55 -50 -55 -90c0 -54 40 -89 101 -89
c58 0 100 35 105 89l130 -6c-6 -120 -99 -200 -235 -200z" />
    <glyph glyph-name="quotedbl" unicode="&#x22;" horiz-adv-x="406" 
d="M61 564l-3 216h109l-3 -216h-103zM243 564l-3 216h109l-3 -216h-103z" />
    <glyph glyph-name="quotesingle" unicode="'" horiz-adv-x="224" 
d="M61 564l-3 216h109l-3 -216h-103z" />
    <glyph glyph-name="semicolon" unicode=";" horiz-adv-x="321" 
d="M167 372c-49 0 -89 40 -89 89s40 88 89 88s89 -39 89 -88s-40 -89 -89 -89zM27 -145l70 274h157l-90 -274h-137z" />
    <glyph glyph-name="slash" unicode="/" horiz-adv-x="450" 
d="M37 -100l239 880h137l-239 -880h-137z" />
    <glyph glyph-name="underscore" unicode="_" horiz-adv-x="591" 
d="M25 -97v97h541v-97h-541z" />
    <glyph glyph-name="exclamdown.case" horiz-adv-x="300" 
d="M150 750c47 0 81 -34 81 -81s-34 -81 -81 -81c-46 0 -81 34 -81 81s35 81 81 81zM92 523h117l12 -523h-142z" />
    <glyph glyph-name="questiondown.case" horiz-adv-x="549" 
d="M281 750c47 0 82 -34 82 -81s-35 -81 -82 -81s-80 34 -80 81s33 81 80 81zM340 523c0 -141 -57 -196 -104 -237c-31 -27 -55 -51 -55 -90c0 -54 40 -89 101 -89c58 0 100 35 105 89l130 -6c-6 -120 -100 -200 -235 -200c-148 0 -247 79 -247 198c0 78 44 117 90 156
c49 41 98 83 98 179h117z" />
    <glyph glyph-name="slash.case" horiz-adv-x="417" 
d="M39 0l201 740h137l-201 -740h-137z" />
    <glyph glyph-name="braceleft" unicode="{" horiz-adv-x="419" 
d="M276 -190c-99 0 -164 64 -164 160v191c0 49 -30 81 -75 81h-6v116h6c45 0 75 33 75 81v191c0 96 65 160 164 160c46 0 79 -5 113 -13v-110c-18 4 -37 6 -61 6c-45 0 -75 -33 -75 -84v-167c0 -60 -34 -109 -85 -122c51 -13 85 -61 85 -122v-167c0 -51 30 -84 75 -84
c24 0 43 2 61 6v-110c-34 -8 -67 -13 -113 -13z" />
    <glyph glyph-name="braceright" unicode="}" horiz-adv-x="419" 
d="M143 -190c-46 0 -79 5 -113 13v110c18 -4 37 -6 61 -6c45 0 75 33 75 84v167c0 61 34 109 85 122c-51 13 -85 62 -85 122v167c0 51 -30 84 -75 84c-24 0 -43 -2 -61 -6v110c34 8 67 13 113 13c99 0 164 -64 164 -160v-191c0 -48 30 -81 75 -81h6v-116h-6
c-45 0 -75 -32 -75 -81v-191c0 -96 -65 -160 -164 -160z" />
    <glyph glyph-name="bracketleft" unicode="[" horiz-adv-x="392" 
d="M81 -180v960h282v-117h-141v-726h141v-117h-282z" />
    <glyph glyph-name="bracketright" unicode="]" horiz-adv-x="392" 
d="M312 -180h-282v117h140v726h-140v117h282v-960z" />
    <glyph glyph-name="parenleft" unicode="(" horiz-adv-x="337" 
d="M191 -180c-56 87 -148 260 -148 480s92 393 148 480h126c-40 -70 -133 -237 -133 -480s93 -410 133 -480h-126z" />
    <glyph glyph-name="parenright" unicode=")" horiz-adv-x="337" 
d="M19 -180c40 70 134 237 134 480s-94 410 -134 480h127c56 -87 148 -260 148 -480s-92 -393 -148 -480h-127z" />
    <glyph glyph-name="braceleft.case" horiz-adv-x="439" 
d="M283 -50c-99 0 -164 64 -164 160v121c0 49 -30 81 -75 81h-6v116h6c45 0 75 33 75 81v121c0 96 65 160 164 160c46 0 79 -5 113 -13v-110c-18 4 -37 6 -61 6c-45 0 -75 -33 -75 -84v-97c0 -60 -34 -109 -85 -122c51 -13 85 -61 85 -122v-97c0 -51 30 -84 75 -84
c24 0 43 2 61 6v-110c-34 -8 -67 -13 -113 -13z" />
    <glyph glyph-name="braceright.case" horiz-adv-x="439" 
d="M155 -50c-45 0 -79 5 -113 13v110c19 -4 38 -6 62 -6c45 0 75 33 75 84v97c0 61 34 109 85 122c-51 13 -85 62 -85 122v97c0 51 -30 84 -75 84c-24 0 -43 -2 -62 -6v110c34 8 68 13 113 13c100 0 165 -64 165 -160v-121c0 -48 30 -81 75 -81h6v-116h-6
c-45 0 -75 -32 -75 -81v-121c0 -96 -65 -160 -165 -160z" />
    <glyph glyph-name="bracketleft.case" horiz-adv-x="410" 
d="M86 -40v820h282v-117h-141v-586h141v-117h-282z" />
    <glyph glyph-name="bracketright.case" horiz-adv-x="410" 
d="M324 -40h-282v117h141v586h-141v117h282v-820z" />
    <glyph glyph-name="parenleft.case" horiz-adv-x="351" 
d="M196 -40c-66 87 -148 220 -148 410s82 323 148 410h126c-50 -70 -133 -237 -133 -410s83 -340 133 -410h-126z" />
    <glyph glyph-name="parenright.case" horiz-adv-x="351" 
d="M29 -40c50 70 134 237 134 410s-84 340 -134 410h126c66 -87 148 -220 148 -410s-82 -323 -148 -410h-126z" />
    <glyph glyph-name="emdash" unicode="&#x2014;" horiz-adv-x="974" 
d="M63 241v97h849v-97h-849z" />
    <glyph glyph-name="endash" unicode="&#x2013;" 
d="M63 241v97h490v-97h-490z" />
    <glyph glyph-name="hyphen" unicode="-" horiz-adv-x="479" 
d="M63 241v97h354v-97h-354z" />
    <glyph glyph-name="uni00AD" unicode="&#xad;" horiz-adv-x="479" 
d="M63 241v97h354v-97h-354z" />
    <glyph glyph-name="guillemotleft" unicode="&#xab;" horiz-adv-x="667" 
d="M359 500l-174 -230l174 -230h-144l-180 230l180 230h144zM627 500l-174 -230l174 -230h-144l-180 230l180 230h144z" />
    <glyph glyph-name="guillemotright" unicode="&#xbb;" horiz-adv-x="667" 
d="M184 500l180 -230l-180 -230h-145l175 230l-175 230h145zM452 500l180 -230l-180 -230h-145l175 230l-175 230h145z" />
    <glyph glyph-name="guilsinglleft" unicode="&#x2039;" horiz-adv-x="399" 
d="M359 500l-174 -230l174 -230h-144l-180 230l180 230h144z" />
    <glyph glyph-name="guilsinglright" unicode="&#x203a;" horiz-adv-x="399" 
d="M184 500l180 -230l-180 -230h-145l175 230l-175 230h145z" />
    <glyph glyph-name="quotedblbase" unicode="&#x201e;" horiz-adv-x="486" 
d="M12 -128l66 257h141l-84 -257h-123zM226 -128l65 257h142l-85 -257h-122z" />
    <glyph glyph-name="quotedblleft" unicode="&#x201c;" horiz-adv-x="494" 
d="M249 740l-66 -256h-142l85 256h123zM462 740l-65 -256h-142l85 256h122z" />
    <glyph glyph-name="quotedblright" unicode="&#x201d;" horiz-adv-x="490" 
d="M44 483l65 257h142l-85 -257h-122zM257 483l66 257h142l-85 -257h-123z" />
    <glyph glyph-name="quoteleft" unicode="&#x2018;" horiz-adv-x="279" 
d="M248 740l-66 -257h-142l85 257h123z" />
    <glyph glyph-name="quoteright" unicode="&#x2019;" horiz-adv-x="276" 
d="M44 483l65 257h142l-85 -257h-122z" />
    <glyph glyph-name="quotesinglbase" unicode="&#x201a;" horiz-adv-x="273" 
d="M12 -128l66 257h141l-84 -257h-123z" />
    <glyph glyph-name="space" unicode=" " horiz-adv-x="247" 
 />
    <glyph glyph-name="uni00A0" unicode="&#xa0;" horiz-adv-x="247" 
 />
    <glyph glyph-name="CR" unicode="&#xd;" horiz-adv-x="211" 
 />
    <glyph glyph-name=".null" horiz-adv-x="0" 
 />
    <glyph glyph-name="cent" unicode="&#xa2;" horiz-adv-x="582" 
d="M530 115c-36 -36 -82 -58 -135 -69v-86h-127v84c-140 23 -230 127 -230 276c0 147 90 251 230 274v85h127v-87c44 -10 84 -29 118 -55l-77 -92c-28 24 -61 38 -106 38c-90 0 -151 -65 -151 -163s60 -163 152 -163c50 0 91 15 122 48z" />
    <glyph glyph-name="currency" unicode="&#xa4;" horiz-adv-x="641" 
d="M551 344c0 -42 -11 -82 -31 -116l66 -66l-83 -83l-67 67c-34 -20 -74 -31 -116 -31s-81 11 -114 30l-68 -67l-83 83l66 66c-20 34 -32 74 -32 117s12 83 32 117l-66 65l83 83l67 -67c34 19 73 30 115 30s82 -11 116 -31l67 67l83 -83l-66 -66c20 -34 31 -73 31 -115z
M320 216c68 0 122 57 122 128c0 70 -54 129 -122 129c-67 0 -122 -59 -122 -129c0 -71 55 -128 122 -128z" />
    <glyph glyph-name="dollar" unicode="$" horiz-adv-x="650" 
d="M606 209c0 -112 -83 -192 -212 -213v-86h-141v85c-75 11 -143 41 -194 88l53 95c63 -52 133 -71 201 -71c93 0 147 32 147 89c0 60 -62 86 -155 112l-42 12c-122 33 -213 84 -213 205c0 115 79 198 205 219v86h141v-86c66 -11 126 -37 178 -79l-63 -98
c-55 44 -114 66 -186 66c-78 0 -129 -33 -129 -85c0 -59 59 -80 132 -101l43 -12c114 -31 235 -93 235 -226z" />
    <glyph glyph-name="Euro" unicode="&#x20ac;" horiz-adv-x="845" 
d="M712 224l95 -85c-71 -97 -179 -149 -314 -149c-190 0 -330 100 -376 260h-75v88h59c-1 11 -1 22 -1 34v13h-58v88h69c40 170 183 277 381 277c121 0 219 -40 292 -119l-89 -90c-42 54 -113 92 -201 92c-114 0 -198 -61 -232 -160h228v-88h-244v-14c0 -11 1 -22 2 -33h242
v-88h-221c38 -89 120 -143 227 -143c100 0 169 45 216 117z" />
    <glyph glyph-name="florin" unicode="&#x192;" horiz-adv-x="504" 
d="M408 633c-58 0 -84 -31 -93 -84l-26 -147h160v-112h-180l-69 -390h-137l69 390h-81v112h101l33 188c19 105 101 160 206 160c38 0 72 -7 94 -16l-15 -110c-18 6 -43 9 -62 9z" />
    <glyph glyph-name="uni20BD" unicode="&#x20bd;" horiz-adv-x="686" 
d="M387 292h-133v-48h220v-88h-220v-156h-141v156h-57v88h57v48h-57v87h57v361h280c156 0 259 -88 259 -219c0 -138 -106 -229 -265 -229zM254 623v-215h123c81 0 129 43 129 108c0 64 -51 107 -129 107h-123z" />
    <glyph glyph-name="uni20B9" unicode="&#x20b9;" horiz-adv-x="633" 
d="M588 740v-88h-155c37 -30 61 -71 70 -120h80v-88h-79c-12 -77 -53 -138 -116 -174l177 -270h-165l-146 233c-7 -1 -14 -1 -21 -1h-170v117h159c68 0 118 36 134 95h-293v88h294c-16 56 -62 91 -125 91h-169v117h525z" />
    <glyph glyph-name="sterling" unicode="&#xa3;" horiz-adv-x="621" 
d="M258 112h311v-112h-520v110h68v185h-58v112h58v148c0 117 89 195 224 195c133 0 223 -79 223 -196l-139 -10c0 54 -34 89 -84 89s-83 -33 -83 -84v-142h269v-112h-269v-183z" />
    <glyph glyph-name="yen" unicode="&#xa5;" horiz-adv-x="727" 
d="M698 740l-217 -384h107v-88h-154v-48h154v-87h-154v-133h-141v133h-154v87h154v48h-154v88h107l-218 384h151l185 -342l184 342h150z" />
    <glyph glyph-name="plus" unicode="+" horiz-adv-x="558" 
d="M516 406v-112h-169v-173h-136v173h-169v112h169v174h136v-174h169z" />
    <glyph glyph-name="minus" unicode="&#x2212;" horiz-adv-x="606" 
d="M66 294v112h474v-112h-474z" />
    <glyph glyph-name="multiply" unicode="&#xd7;" horiz-adv-x="524" 
d="M473 476l-127 -127l125 -125l-84 -83l-125 125l-125 -125l-84 83l126 125l-127 127l84 83l126 -126l127 126z" />
    <glyph glyph-name="divide" unicode="&#xf7;" horiz-adv-x="576" 
d="M289 459c-47 0 -82 34 -82 81s35 81 82 81c46 0 80 -34 80 -81s-34 -81 -80 -81zM51 294v112h474v-112h-474zM289 81c-47 0 -82 34 -82 81s35 81 82 81c46 0 80 -34 80 -81s-34 -81 -80 -81z" />
    <glyph glyph-name="equal" unicode="=" horiz-adv-x="604" 
d="M66 405v112h473v-112h-473zM66 184v112h473v-112h-473z" />
    <glyph glyph-name="notequal" unicode="&#x2260;" horiz-adv-x="604" 
d="M539 405h-153l-29 -109h182v-112h-212l-32 -118h-137l32 118h-124v112h154l29 109h-183v112h213l32 118h137l-32 -118h123v-112z" />
    <glyph glyph-name="greater" unicode="&#x3e;" horiz-adv-x="575" 
d="M69 608l470 -214v-88l-470 -214v127l302 131l-302 131v127z" />
    <glyph glyph-name="less" unicode="&#x3c;" horiz-adv-x="575" 
d="M506 608v-127l-302 -131l302 -131v-127l-470 214v88z" />
    <glyph glyph-name="greaterequal" unicode="&#x2265;" horiz-adv-x="603" 
d="M71 666l470 -194v-87l-470 -195v128l281 110l-281 111v127zM70 33v112h471v-112h-471z" />
    <glyph glyph-name="lessequal" unicode="&#x2264;" horiz-adv-x="604" 
d="M533 318v-128l-470 195v87l470 194v-127l-281 -111zM62 145h472v-112h-472v112z" />
    <glyph glyph-name="plusminus" unicode="&#xb1;" horiz-adv-x="609" 
d="M372 490h169v-112h-169v-174h-136v174h-168v112h168v173h136v-173zM68 33v113h473v-113h-473z" />
    <glyph glyph-name="approxequal" unicode="&#x2248;" horiz-adv-x="598" 
d="M401 319c-79 0 -147 57 -200 57c-36 0 -61 -18 -61 -47h-74c0 87 54 144 133 144c82 0 146 -55 200 -55c37 0 61 15 61 45h75c0 -91 -55 -144 -134 -144zM401 119c-79 0 -147 57 -200 57c-36 0 -61 -18 -61 -47h-74c0 87 54 144 133 144c82 0 146 -55 200 -55
c37 0 61 15 61 45h75c0 -91 -55 -144 -134 -144z" />
    <glyph glyph-name="asciitilde" unicode="~" horiz-adv-x="600" 
d="M402 219c-79 0 -147 57 -200 57c-36 0 -61 -18 -61 -47h-74c0 87 54 144 133 144c82 0 146 -55 200 -55c37 0 61 15 61 45h75c0 -91 -55 -144 -134 -144z" />
    <glyph glyph-name="logicalnot" unicode="&#xac;" horiz-adv-x="602" 
d="M534 459v-276h-136v165h-338v111h474z" />
    <glyph glyph-name="emptyset" unicode="&#x2205;" horiz-adv-x="682" 
d="M559 545c45 -48 70 -114 70 -192c0 -168 -116 -280 -288 -280c-64 0 -121 15 -166 43l-39 -43l-54 42l40 45c-45 48 -70 114 -70 193c0 167 116 279 289 279c64 0 120 -15 165 -43l40 44l54 -43zM193 353c0 -35 7 -66 21 -91l207 232c-22 14 -49 22 -80 22
c-89 0 -148 -65 -148 -163zM341 190c88 0 147 65 147 163c0 34 -7 65 -20 89l-207 -230c22 -14 49 -22 80 -22z" />
    <glyph glyph-name="infinity" unicode="&#x221e;" horiz-adv-x="735" 
d="M509 450c107 0 177 -68 177 -171s-70 -171 -177 -171c-63 0 -113 27 -141 72c-29 -45 -78 -72 -141 -72c-107 0 -179 68 -179 171s72 171 179 171c63 0 112 -27 141 -72c28 45 78 72 141 72zM236 196c45 0 75 33 75 83c0 51 -30 83 -75 83c-46 0 -77 -32 -77 -83
c0 -50 31 -83 77 -83zM500 196c44 0 75 33 75 83c0 51 -31 83 -75 83c-47 0 -77 -32 -77 -83c0 -50 30 -83 77 -83z" />
    <glyph glyph-name="integral" unicode="&#x222b;" horiz-adv-x="458" 
d="M332 790c53 0 97 -17 126 -48l-37 -95c-18 18 -39 26 -62 26c-37 0 -60 -23 -60 -58v-695c0 -90 -71 -150 -173 -150c-54 0 -96 17 -127 48l38 95c18 -18 40 -26 62 -26c37 0 59 23 59 58v695c0 90 72 150 174 150z" />
    <glyph glyph-name="product" unicode="&#x220f;" horiz-adv-x="735" 
d="M649 780v-1000h-141v883h-281v-883h-141v1000h563z" />
    <glyph glyph-name="summation" unicode="&#x2211;" horiz-adv-x="666" 
d="M34 -220v89l294 414l-284 408v89h572v-117h-402l280 -380l-291 -386h423v-117h-592z" />
    <glyph glyph-name="radical" unicode="&#x221a;" horiz-adv-x="788" 
d="M230 -220l-228 539h149l147 -384l338 845h149l-419 -1000h-136z" />
    <glyph glyph-name="partialdiff" unicode="&#x2202;" horiz-adv-x="683" 
d="M320 750c193 0 321 -151 321 -378c0 -229 -142 -382 -353 -382c-156 0 -259 84 -259 212c0 146 181 247 458 257c-22 107 -84 174 -169 174c-74 0 -134 -38 -170 -92l-89 90c66 79 152 119 261 119zM285 107c118 0 200 93 209 236c-194 -4 -324 -61 -324 -144
c0 -56 46 -92 115 -92z" />
    <glyph glyph-name="percent" unicode="%" horiz-adv-x="863" 
d="M221 409c-112 0 -188 68 -188 170c0 103 76 171 188 171s187 -68 187 -171c0 -102 -75 -170 -187 -170zM257 -10l-73 44l420 716l72 -44zM222 496c44 0 75 33 75 83c0 51 -31 83 -75 83c-47 0 -78 -32 -78 -83c0 -50 31 -83 78 -83zM643 -10c-113 0 -188 68 -188 171
c0 102 75 170 188 170c112 0 186 -68 186 -170c0 -103 -74 -171 -186 -171zM643 78c44 0 75 33 75 83s-31 83 -75 83c-47 0 -77 -33 -77 -83s30 -83 77 -83z" />
    <glyph glyph-name="perthousand" unicode="&#x2030;" horiz-adv-x="1284" 
d="M221 409c-112 0 -188 68 -188 170c0 103 76 171 188 171s187 -68 187 -171c0 -102 -75 -170 -187 -170zM257 -10l-73 44l420 716l72 -44zM222 496c44 0 75 33 75 83c0 51 -31 83 -75 83c-47 0 -78 -32 -78 -83c0 -50 31 -83 78 -83zM643 -10c-113 0 -188 68 -188 171
c0 102 75 170 188 170c112 0 186 -68 186 -170c0 -103 -74 -171 -186 -171zM1065 -10c-112 0 -187 68 -187 171c0 102 75 170 187 170s187 -68 187 -170c0 -103 -75 -171 -187 -171zM643 78c44 0 75 33 75 83s-31 83 -75 83c-47 0 -77 -33 -77 -83s30 -83 77 -83zM1065 78
c45 0 76 33 76 83s-31 83 -76 83c-46 0 -77 -33 -77 -83s31 -83 77 -83z" />
    <glyph glyph-name="lozenge" unicode="&#x25ca;" horiz-adv-x="618" 
d="M372 639l209 -319l-209 -320h-126l-209 320l209 319h126zM309 120l131 200l-131 200l-130 -200z" />
    <glyph glyph-name="at" unicode="@" horiz-adv-x="1125" 
d="M656 481h131v-261c0 -40 23 -67 59 -67c58 0 95 74 95 170c0 191 -146 311 -361 311c-240 0 -395 -151 -395 -376c0 -223 151 -371 395 -371c73 0 192 12 273 34l40 -106c-91 -28 -223 -45 -318 -45c-325 0 -531 197 -531 490c0 296 211 490 536 490
c297 0 497 -162 497 -418c0 -172 -92 -295 -229 -295c-73 0 -130 35 -158 93c-31 -57 -87 -94 -164 -94c-122 0 -213 90 -213 225c0 137 93 228 209 228c58 0 102 -23 132 -62zM552 153c60 0 99 44 99 109c0 66 -39 110 -99 110c-59 0 -98 -44 -98 -110
c0 -65 39 -109 98 -109z" />
    <glyph glyph-name="ampersand" unicode="&#x26;" horiz-adv-x="777" 
d="M639 107c31 0 62 5 94 18v-110c-41 -17 -90 -25 -138 -25c-63 0 -113 28 -141 74c-45 -48 -109 -74 -181 -74c-135 0 -228 86 -228 214c0 90 52 160 138 196c-63 32 -100 88 -100 158c0 115 98 192 244 192c143 0 239 -79 239 -195v-105h159v-106h-159v-156
c0 -49 29 -81 73 -81zM327 633c-62 0 -102 -36 -102 -90c0 -55 40 -93 102 -93h103v91c0 56 -41 92 -103 92zM307 107c65 0 123 33 123 114v123h-103c-85 0 -141 -48 -141 -120c0 -70 49 -117 121 -117z" />
    <glyph glyph-name="paragraph" unicode="&#xb6;" horiz-adv-x="622" 
d="M527 740v-960h-102v862h-86v-862h-103v611h-66c-83 0 -139 71 -139 177c0 103 66 172 163 172h333z" />
    <glyph glyph-name="section" unicode="&#xa7;" horiz-adv-x="614" 
d="M567 249c0 -53 -18 -100 -49 -136c30 -31 49 -71 49 -124c0 -131 -106 -219 -263 -219c-94 0 -181 32 -243 93l53 95c58 -52 122 -71 182 -71c80 0 125 32 125 88c0 60 -54 85 -133 110l-38 12c-113 35 -198 86 -198 208c0 55 17 102 47 139c-29 30 -47 68 -47 121
c0 135 102 225 254 225c85 0 163 -28 230 -85l-62 -98c-51 44 -103 66 -166 66c-67 0 -110 -33 -110 -85c0 -59 51 -79 117 -101l37 -12c105 -34 215 -93 215 -226zM315 218l37 -12c20 -7 40 -14 60 -23c12 14 18 32 18 53c0 64 -57 92 -142 119l-38 12c-14 4 -28 9 -41 14
c-13 -14 -20 -32 -20 -53c0 -64 55 -86 126 -110z" />
    <glyph glyph-name="copyright" unicode="&#xa9;" horiz-adv-x="867" 
d="M434 -10c-234 0 -388 152 -388 380s154 380 388 380c232 0 386 -152 386 -380s-154 -380 -386 -380zM434 52c184 0 309 127 309 318s-125 319 -309 319c-186 0 -311 -128 -311 -319s125 -318 311 -318zM441 158c-131 0 -220 84 -220 210c0 125 87 208 219 208
c67 0 123 -21 163 -66l-58 -59c-21 29 -58 48 -104 48c-75 0 -125 -53 -125 -132c0 -80 51 -133 127 -133c52 0 87 23 112 63l63 -57c-41 -55 -101 -82 -177 -82z" />
    <glyph glyph-name="registered" unicode="&#xae;" horiz-adv-x="409" 
d="M205 790c94 0 157 -62 157 -155s-63 -155 -157 -155c-95 0 -157 62 -157 155s62 155 157 155zM205 504c76 0 127 52 127 131c0 80 -51 132 -127 132c-77 0 -128 -52 -128 -132c0 -79 51 -131 128 -131zM269 664c0 -21 -12 -38 -31 -46l42 -65h-40l-36 59h-28v-59h-36v163
h71c35 0 58 -21 58 -52zM176 687v-47h28c17 0 29 9 29 24c0 13 -11 23 -26 23h-31z" />
    <glyph glyph-name="trademark" unicode="&#x2122;" horiz-adv-x="735" 
d="M285 780v-61h-87v-225h-73v225h-87v61h247zM671 494h-73l-11 177l-80 -177h-31l-81 179l-10 -179h-73l21 286h78l81 -183l80 183h77z" />
    <glyph glyph-name="degree" unicode="&#xb0;" horiz-adv-x="361" 
d="M181 535c-85 0 -141 51 -141 128c0 76 56 127 141 127c84 0 140 -51 140 -127c0 -77 -56 -128 -140 -128zM181 605c33 0 55 23 55 58c0 34 -22 58 -55 58c-34 0 -57 -24 -57 -58c0 -35 23 -58 57 -58z" />
    <glyph glyph-name="bar" unicode="|" horiz-adv-x="303" 
d="M81 -220v1000h141v-1000h-141z" />
    <glyph glyph-name="brokenbar" unicode="&#xa6;" horiz-adv-x="301" 
d="M80 380v400h141v-400h-141zM80 -220v400h141v-400h-141z" />
    <glyph glyph-name="dagger" unicode="&#x2020;" horiz-adv-x="568" 
d="M530 539v-116h-176v-643h-140v643h-176v116h176v241h140v-241h176z" />
    <glyph glyph-name="daggerdbl" unicode="&#x2021;" horiz-adv-x="568" 
d="M530 423h-176v-103h176v-117h-176v-423h-140v423h-176v117h176v103h-176v116h176v241h140v-241h176v-116z" />
    <glyph glyph-name="asciicircum" unicode="^" horiz-adv-x="548" 
d="M504 312h-132l-98 195l-98 -195h-132l164 327h132z" />
    <glyph glyph-name="uni0308" unicode="&#x308;" horiz-adv-x="0" 
d="M-378 627c-47 0 -81 33 -81 80s34 81 81 81s81 -34 81 -81s-34 -80 -81 -80zM-133 627c-47 0 -81 33 -81 80s34 81 81 81s81 -34 81 -81s-34 -80 -81 -80z" />
    <glyph glyph-name="uni0307" unicode="&#x307;" horiz-adv-x="0" 
d="M-133 627c-47 0 -81 33 -81 80s34 81 81 81s81 -34 81 -81s-34 -80 -81 -80z" />
    <glyph glyph-name="gravecomb" unicode="&#x300;" horiz-adv-x="0" 
d="M-224 618l-178 161h159l135 -161h-116z" />
    <glyph glyph-name="acutecomb" unicode="&#x301;" horiz-adv-x="0" 
d="M-277 618l136 161h158l-178 -161h-116z" />
    <glyph glyph-name="uni030B" unicode="&#x30b;" horiz-adv-x="0" 
d="M-449 618l106 161h159l-149 -161h-116zM-252 618l106 161h159l-149 -161h-116z" />
    <glyph glyph-name="uni0302" unicode="&#x302;" horiz-adv-x="0" 
d="M-36 618h-125l-71 84l-70 -84h-126l131 161h130z" />
    <glyph glyph-name="uni030C" unicode="&#x30c;" horiz-adv-x="0" 
d="M-161 779h125l-131 -161h-130l-131 161h126l70 -84z" />
    <glyph glyph-name="uni0306" unicode="&#x306;" horiz-adv-x="0" 
d="M-213 609c-109 0 -181 68 -181 170h103c0 -54 32 -91 78 -91c48 0 79 37 79 91h103c0 -102 -72 -170 -182 -170z" />
    <glyph glyph-name="uni030A" unicode="&#x30a;" horiz-adv-x="0" 
d="M-168 584c-71 0 -117 43 -117 108s46 108 117 108c70 0 117 -43 117 -108s-47 -108 -117 -108zM-168 645c27 0 44 19 44 47s-17 46 -44 46s-45 -18 -45 -46s18 -47 45 -47z" />
    <glyph glyph-name="tildecomb" unicode="&#x303;" horiz-adv-x="0" 
d="M-147 619c-63 0 -118 56 -161 56c-24 0 -41 -18 -41 -46h-74c0 87 46 144 114 144c66 0 117 -56 160 -56c25 0 41 16 41 46h74c0 -92 -45 -144 -113 -144z" />
    <glyph glyph-name="uni0304" unicode="&#x304;" horiz-adv-x="0" 
d="M-397 624v107h356v-107h-356z" />
    <glyph glyph-name="uni0312" unicode="&#x312;" horiz-adv-x="0" 
d="M-207 593l68 187h103l-48 -187h-123z" />
    <glyph glyph-name="uni0326" unicode="&#x326;" horiz-adv-x="0" 
d="M-185 -220l43 168h122l-62 -168h-103z" />
    <glyph glyph-name="uni0327" unicode="&#x327;" horiz-adv-x="0" 
d="M-120 -54c64 -2 105 -36 105 -84c0 -55 -51 -92 -131 -92c-40 0 -78 10 -100 25l25 50c14 -11 36 -18 61 -18c34 0 54 14 54 34c0 19 -20 31 -49 31c-14 0 -26 -3 -37 -8l-18 32l47 84h77z" />
    <glyph glyph-name="uni0328" unicode="&#x328;" horiz-adv-x="0" 
d="M-105 -230c-61 0 -101 36 -101 89c0 74 73 141 191 204v-63c-63 -40 -93 -81 -93 -119c0 -20 14 -33 36 -33c18 0 35 6 48 17l12 -67c-24 -17 -51 -28 -93 -28z" />
    <glyph glyph-name="uni0335" unicode="&#x335;" horiz-adv-x="0" 
d="M-529 241v97h385v-97h-385z" />
    <glyph glyph-name="uni0336" unicode="&#x336;" horiz-adv-x="0" 
d="M-875 241v97h823v-97h-823z" />
    <glyph glyph-name="uni0337" unicode="&#x337;" horiz-adv-x="0" 
d="M-268 442l153 107v-109l-153 -108v18l-149 -105v110l149 105v-18z" />
    <glyph glyph-name="uni0338" unicode="&#x338;" horiz-adv-x="0" 
d="M-450 -10l-72 44l420 716l72 -44z" />
    <glyph glyph-name="acute" unicode="&#xb4;" horiz-adv-x="600" 
d="M107 618l136 161h158l-178 -161h-116z" />
    <glyph glyph-name="breve" unicode="&#x2d8;" horiz-adv-x="600" 
d="M212 609c-109 0 -181 68 -181 170h103c0 -54 32 -91 78 -91c48 0 79 37 79 91h103c0 -102 -72 -170 -182 -170z" />
    <glyph glyph-name="caron" unicode="&#x2c7;" horiz-adv-x="600" 
d="M302 779h125l-131 -161h-130l-131 161h126l70 -84z" />
    <glyph glyph-name="cedilla" unicode="&#xb8;" horiz-adv-x="600" 
d="M144 -54c64 -2 105 -36 105 -84c0 -55 -51 -92 -131 -92c-40 0 -78 10 -100 25l25 50c14 -11 36 -18 61 -18c34 0 54 14 54 34c0 19 -20 31 -49 31c-14 0 -26 -3 -37 -8l-18 32l47 84h77z" />
    <glyph glyph-name="circumflex" unicode="&#x2c6;" horiz-adv-x="600" 
d="M427 618h-125l-71 84l-70 -84h-126l131 161h130z" />
    <glyph glyph-name="dieresis" unicode="&#xa8;" horiz-adv-x="600" 
d="M133 627c-47 0 -81 33 -81 80s34 81 81 81s81 -34 81 -81s-34 -80 -81 -80zM378 627c-47 0 -81 33 -81 80s34 81 81 81s81 -34 81 -81s-34 -80 -81 -80z" />
    <glyph glyph-name="dotaccent" unicode="&#x2d9;" horiz-adv-x="600" 
d="M133 627c-47 0 -81 33 -81 80s34 81 81 81s81 -34 81 -81s-34 -80 -81 -80z" />
    <glyph glyph-name="grave" unicode="`" horiz-adv-x="600" 
d="M160 618l-178 161h159l135 -161h-116z" />
    <glyph glyph-name="hungarumlaut" unicode="&#x2dd;" horiz-adv-x="600" 
d="M122 618l106 161h159l-149 -161h-116zM319 618l106 161h159l-149 -161h-116z" />
    <glyph glyph-name="macron" unicode="&#xaf;" horiz-adv-x="600" 
d="M41 624v107h356v-107h-356z" />
    <glyph glyph-name="ogonek" unicode="&#x2db;" horiz-adv-x="600" 
d="M160 -230c-61 0 -101 36 -101 89c0 74 73 141 191 204v-63c-63 -40 -93 -81 -93 -119c0 -20 14 -33 36 -33c18 0 35 6 48 17l12 -67c-24 -17 -51 -28 -93 -28z" />
    <glyph glyph-name="ring" unicode="&#x2da;" horiz-adv-x="600" 
d="M168 584c-71 0 -117 43 -117 108s46 108 117 108c70 0 117 -43 117 -108s-47 -108 -117 -108zM168 645c27 0 44 19 44 47s-17 46 -44 46s-45 -18 -45 -46s18 -47 45 -47z" />
    <glyph glyph-name="tilde" unicode="&#x2dc;" horiz-adv-x="600" 
d="M310 619c-63 0 -118 56 -161 56c-24 0 -41 -18 -41 -46h-74c0 87 46 144 114 144c66 0 117 -56 160 -56c25 0 41 16 41 46h74c0 -92 -45 -144 -113 -144z" />
    <glyph glyph-name="logo" horiz-adv-x="1274" 
d="M76 -10c-10 0 -17 8 -17 18c0 5 1 11 5 15l342 341h-324c-10 0 -23 2 -23 19c0 7 3 11 7 16l340 342h-327c-12 0 -20 7 -20 19v1c0 12 8 19 20 19h370c10 0 23 -1 23 -20c0 -6 -2 -12 -8 -17l-341 -340h330c11 0 20 -9 20 -20v-327l339 338c5 6 11 8 17 8
c17 0 18 -13 18 -22v-324l340 338c4 5 10 8 16 8c10 0 17 -9 17 -19c0 -4 -1 -10 -6 -14l-368 -372c-6 -6 -11 -7 -17 -7c-19 0 -20 13 -20 23v324l-339 -340c-6 -6 -11 -7 -17 -7c-19 0 -20 13 -20 23v324l-340 -340c-6 -6 -11 -7 -17 -7z" />
    </font>
</defs>
</svg>
