<?xml version="1.0" standalone="no"?>
<!DOCTYPE svg PUBLIC "-//W3C//DTD SVG 1.1//EN" "http://www.w3.org/Graphics/SVG/1.1/DTD/svg11.dtd" >
<svg xmlns="http://www.w3.org/2000/svg" xmlns:xlink="http://www.w3.org/1999/xlink" version="1.1">
<metadata>
Created by FontForge 20170910 at Fri Oct 21 19:40:16 2016
 By Jimmy Wärting
Copyright \(c\) 2016 by Alberto Romanos. All rights reserved.
</metadata>
<defs>
<font id="BwModelica-ExtraBold" horiz-adv-x="615" >
  <font-face 
    font-family="Bw Modelica ExtraBold"
    font-weight="800"
    font-stretch="normal"
    units-per-em="1000"
    panose-1="0 0 9 0 0 0 0 0 0 0"
    ascent="780"
    descent="-220"
    x-height="545"
    cap-height="740"
    bbox="-884 -230 1323 1020"
    underline-thickness="50"
    underline-position="-100"
    stemh="139"
    stemv="170"
    unicode-range="U+000D-FB02"
  />
<missing-glyph horiz-adv-x="1274" 
d="M88 -10c-10 0 -17 8 -17 18c0 5 1 11 5 15l342 341h-324c-10 0 -23 2 -23 19c0 7 3 11 7 16l340 342h-327c-12 0 -20 7 -20 19v1c0 12 8 19 20 19h370c10 0 23 -1 23 -20c0 -6 -2 -12 -8 -17l-341 -340h330c11 0 20 -9 20 -20v-327l339 338c5 6 11 8 17 8
c17 0 18 -13 18 -22v-324l340 338c4 5 10 8 16 8c10 0 17 -9 17 -19c0 -4 -1 -10 -6 -14l-368 -372c-6 -6 -11 -7 -17 -7c-19 0 -20 13 -20 23v324l-339 -340c-6 -6 -11 -7 -17 -7c-19 0 -20 13 -20 23v324l-340 -340c-6 -6 -11 -7 -17 -7z" />
    <glyph glyph-name="fi" unicode="fi" horiz-adv-x="718" 
d="M571 608c-57 0 -99 41 -99 98s42 98 99 98s98 -41 98 -98s-41 -98 -98 -98zM113 609c0 109 74 181 185 181c45 0 92 -7 125 -22l-11 -132c-19 7 -36 9 -58 9c-42 0 -71 -25 -71 -62v-38h123v-139h-123v-406h-170v406h-85v139h85v64zM485 0v545h170v-545h-170z" />
    <glyph glyph-name="fl" unicode="fl" horiz-adv-x="718" 
d="M113 609c0 109 74 181 185 181c45 0 92 -7 125 -22l-11 -132c-19 7 -36 9 -58 9c-42 0 -71 -25 -71 -62v-38h123v-139h-123v-406h-170v406h-85v139h85v64zM486 780h170v-780h-170v780z" />
    <glyph glyph-name=".notdef" horiz-adv-x="1274" 
d="M88 -10c-10 0 -17 8 -17 18c0 5 1 11 5 15l342 341h-324c-10 0 -23 2 -23 19c0 7 3 11 7 16l340 342h-327c-12 0 -20 7 -20 19v1c0 12 8 19 20 19h370c10 0 23 -1 23 -20c0 -6 -2 -12 -8 -17l-341 -340h330c11 0 20 -9 20 -20v-327l339 338c5 6 11 8 17 8
c17 0 18 -13 18 -22v-324l340 338c4 5 10 8 16 8c10 0 17 -9 17 -19c0 -4 -1 -10 -6 -14l-368 -372c-6 -6 -11 -7 -17 -7c-19 0 -20 13 -20 23v324l-339 -340c-6 -6 -11 -7 -17 -7c-19 0 -20 13 -20 23v324l-340 -340c-6 -6 -11 -7 -17 -7z" />
    <glyph glyph-name="A" unicode="A" horiz-adv-x="774" 
d="M592 0l-48 123h-313l-49 -123h-188l312 740h163l310 -740h-187zM288 268h199l-99 254z" />
    <glyph glyph-name="Aacute" unicode="&#xc1;" horiz-adv-x="774" 
d="M617 980l-191 -167h-144l138 167h197zM592 0l-48 123h-313l-49 -123h-188l312 740h163l310 -740h-187zM288 268h199l-99 254z" />
    <glyph glyph-name="Abreve" unicode="&#x102;" horiz-adv-x="774" 
d="M388 804c-116 0 -193 70 -193 176h127c0 -47 27 -79 66 -79c40 0 66 32 66 79h127c0 -106 -77 -176 -193 -176zM592 0l-48 123h-313l-49 -123h-188l312 740h163l310 -740h-187zM288 268h199l-99 254z" />
    <glyph glyph-name="Acircumflex" unicode="&#xc2;" horiz-adv-x="774" 
d="M387 882l-56 -69h-156l132 167h160l131 -167h-155zM592 0l-48 123h-313l-49 -123h-188l312 740h163l310 -740h-187zM288 268h199l-99 254z" />
    <glyph glyph-name="Adieresis" unicode="&#xc4;" horiz-adv-x="774" 
d="M255 803c-57 0 -99 41 -99 98s42 98 99 98s98 -41 98 -98s-41 -98 -98 -98zM522 803c-57 0 -99 41 -99 98s42 98 99 98s98 -41 98 -98s-41 -98 -98 -98zM592 0l-48 123h-313l-49 -123h-188l312 740h163l310 -740h-187zM288 268h199l-99 254z" />
    <glyph glyph-name="Agrave" unicode="&#xc0;" horiz-adv-x="774" 
d="M493 813h-144l-191 167h197zM592 0l-48 123h-313l-49 -123h-188l312 740h163l310 -740h-187zM288 268h199l-99 254z" />
    <glyph glyph-name="Amacron" unicode="&#x100;" horiz-adv-x="774" 
d="M577 940v-133h-379v133h379zM592 0l-48 123h-313l-49 -123h-188l312 740h163l310 -740h-187zM288 268h199l-99 254z" />
    <glyph glyph-name="Aogonek" unicode="&#x104;" horiz-adv-x="774" 
d="M768 -121l14 -81c-24 -17 -53 -28 -98 -28c-67 0 -110 38 -110 94c0 51 33 97 81 136h-63l-48 123h-313l-49 -123h-188l312 740h163l310 -740c-57 -36 -84 -72 -84 -107c0 -17 12 -28 31 -28c16 0 31 6 42 14zM288 268h199l-99 254z" />
    <glyph glyph-name="Aring" unicode="&#xc5;" horiz-adv-x="774" 
d="M388 779c-73 0 -122 44 -122 110c0 65 49 109 122 109s121 -44 121 -109c0 -66 -48 -110 -121 -110zM388 923c-21 0 -35 -14 -35 -34c0 -21 14 -35 35 -35c20 0 34 14 34 35c0 20 -14 34 -34 34zM592 0l-48 123h-313l-49 -123h-188l312 740h163l310 -740h-187zM288 268
h199l-99 254z" />
    <glyph glyph-name="Atilde" unicode="&#xc3;" horiz-adv-x="774" 
d="M309 858c-22 0 -34 -15 -34 -39h-90c0 96 48 159 121 159c65 0 123 -48 161 -48c21 0 34 12 34 38h90c0 -102 -48 -159 -121 -159c-61 0 -124 49 -161 49zM592 0l-48 123h-313l-49 -123h-188l312 740h163l310 -740h-187zM288 268h199l-99 254z" />
    <glyph glyph-name="AE" unicode="&#xc6;" horiz-adv-x="1111" 
d="M734 145h330v-145h-481l-28 123h-302l-72 -123h-200l470 740h604v-145h-437l38 -148h364v-145h-327zM337 268h185l-52 228z" />
    <glyph glyph-name="B" unicode="B" horiz-adv-x="721" 
d="M554 395c82 -31 132 -94 132 -175c0 -132 -107 -220 -268 -220h-337v740h339c134 0 223 -79 223 -198c0 -61 -32 -112 -89 -147zM257 595v-142h120c51 0 85 28 85 71s-33 71 -82 71h-123zM408 145c58 0 97 33 97 82c0 48 -39 81 -95 81h-153v-163h151z" />
    <glyph glyph-name="C" unicode="C" horiz-adv-x="774" 
d="M441 -10c-240 0 -403 154 -403 383c0 227 161 377 402 377c121 0 223 -37 298 -118l-110 -113c-37 52 -105 86 -187 86c-133 0 -221 -94 -221 -234c0 -142 91 -236 225 -236c95 0 155 42 200 112l118 -106c-75 -100 -184 -151 -322 -151z" />
    <glyph glyph-name="Cacute" unicode="&#x106;" horiz-adv-x="774" 
d="M325 813l138 167h197l-191 -167h-144zM441 -10c-240 0 -403 154 -403 383c0 227 161 377 402 377c121 0 223 -37 298 -118l-110 -113c-37 52 -105 86 -187 86c-133 0 -221 -94 -221 -234c0 -142 91 -236 225 -236c95 0 155 42 200 112l118 -106
c-75 -100 -184 -151 -322 -151z" />
    <glyph glyph-name="Ccaron" unicode="&#x10c;" horiz-adv-x="774" 
d="M350 813l-132 167h156l56 -69l56 69h155l-131 -167h-160zM645 247l118 -106c-75 -100 -184 -151 -322 -151c-240 0 -403 154 -403 383c0 227 161 377 402 377c121 0 223 -37 298 -118l-110 -113c-37 52 -105 86 -187 86c-133 0 -221 -94 -221 -234
c0 -142 91 -236 225 -236c95 0 155 42 200 112z" />
    <glyph glyph-name="Ccedilla" unicode="&#xc7;" horiz-adv-x="774" 
d="M763 141c-68 -90 -163 -141 -283 -150l-25 -40c58 -5 95 -39 95 -86c0 -56 -52 -95 -136 -95c-40 0 -80 10 -102 23l29 60c13 -9 33 -16 55 -16c28 0 44 12 44 27s-15 23 -38 23c-12 0 -23 -3 -32 -7l-21 37l39 76c-211 21 -350 168 -350 380c0 227 161 377 402 377
c121 0 223 -37 298 -118l-110 -113c-37 52 -105 86 -187 86c-133 0 -221 -94 -221 -234c0 -142 91 -236 225 -236c95 0 155 42 200 112z" />
    <glyph glyph-name="Cdotaccent" unicode="&#x10a;" horiz-adv-x="774" 
d="M431 803c-57 0 -99 41 -99 98s42 98 99 98s98 -41 98 -98s-41 -98 -98 -98zM441 -10c-240 0 -403 154 -403 383c0 227 161 377 402 377c121 0 223 -37 298 -118l-110 -113c-37 52 -105 86 -187 86c-133 0 -221 -94 -221 -234c0 -142 91 -236 225 -236
c95 0 155 42 200 112l118 -106c-75 -100 -184 -151 -322 -151z" />
    <glyph glyph-name="D" unicode="D" horiz-adv-x="800" 
d="M393 740c221 0 368 -147 368 -369s-147 -371 -368 -371h-312v740h312zM396 145c110 0 183 91 183 226s-73 224 -183 224h-139v-450h139z" />
    <glyph glyph-name="Eth" unicode="&#xd0;" horiz-adv-x="800" 
d="M393 740c221 0 368 -147 368 -369s-147 -371 -368 -371h-312v311h-73v121h73v308h312zM396 145c110 0 183 91 183 226s-73 224 -183 224h-139v-163h147v-121h-147v-166h139z" />
    <glyph glyph-name="Dcaron" unicode="&#x10e;" horiz-adv-x="800" 
d="M267 813l-132 167h156l56 -69l56 69h155l-131 -167h-160zM393 740c221 0 368 -147 368 -369s-147 -371 -368 -371h-312v740h312zM396 145c110 0 183 91 183 226s-73 224 -183 224h-139v-450h139z" />
    <glyph glyph-name="Dcroat" unicode="&#x110;" horiz-adv-x="800" 
d="M393 740c221 0 368 -147 368 -369s-147 -371 -368 -371h-312v311h-73v121h73v308h312zM396 145c110 0 183 91 183 226s-73 224 -183 224h-139v-163h147v-121h-147v-166h139z" />
    <glyph glyph-name="E" unicode="E" horiz-adv-x="664" 
d="M257 145h359v-145h-535v740h527v-145h-351v-148h316v-145h-316v-157z" />
    <glyph glyph-name="Eacute" unicode="&#xc9;" horiz-adv-x="664" 
d="M573 980l-191 -167h-144l138 167h197zM257 145h359v-145h-535v740h527v-145h-351v-148h316v-145h-316v-157z" />
    <glyph glyph-name="Ecaron" unicode="&#x11a;" horiz-adv-x="664" 
d="M263 813l-132 167h156l56 -69l56 69h155l-131 -167h-160zM257 145h359v-145h-535v740h527v-145h-351v-148h316v-145h-316v-157z" />
    <glyph glyph-name="Ecircumflex" unicode="&#xca;" horiz-adv-x="664" 
d="M343 882l-56 -69h-156l132 167h160l131 -167h-155zM257 145h359v-145h-535v740h527v-145h-351v-148h316v-145h-316v-157z" />
    <glyph glyph-name="Edieresis" unicode="&#xcb;" horiz-adv-x="664" 
d="M211 803c-57 0 -99 41 -99 98s42 98 99 98s98 -41 98 -98s-41 -98 -98 -98zM478 803c-57 0 -99 41 -99 98s42 98 99 98s98 -41 98 -98s-41 -98 -98 -98zM257 145h359v-145h-535v740h527v-145h-351v-148h316v-145h-316v-157z" />
    <glyph glyph-name="Edotaccent" unicode="&#x116;" horiz-adv-x="664" 
d="M344 803c-57 0 -99 41 -99 98s42 98 99 98s98 -41 98 -98s-41 -98 -98 -98zM257 145h359v-145h-535v740h527v-145h-351v-148h316v-145h-316v-157z" />
    <glyph glyph-name="Egrave" unicode="&#xc8;" horiz-adv-x="664" 
d="M449 813h-144l-191 167h197zM257 145h359v-145h-535v740h527v-145h-351v-148h316v-145h-316v-157z" />
    <glyph glyph-name="Emacron" unicode="&#x112;" horiz-adv-x="664" 
d="M533 940v-133h-379v133h379zM257 145h359v-145h-535v740h527v-145h-351v-148h316v-145h-316v-157z" />
    <glyph glyph-name="Eogonek" unicode="&#x118;" horiz-adv-x="664" 
d="M605 -121l14 -81c-25 -17 -53 -28 -99 -28c-66 0 -110 38 -110 94c0 49 31 93 84 136h-413v740h527v-145h-351v-148h316v-145h-316v-157h359v-145c-57 -36 -84 -72 -84 -107c0 -17 11 -28 31 -28c16 0 30 6 42 14z" />
    <glyph glyph-name="F" unicode="F" horiz-adv-x="607" 
d="M574 595h-317v-168h266v-145h-266v-282h-176v740h493v-145z" />
    <glyph glyph-name="G" unicode="G" horiz-adv-x="826" 
d="M801 430c1 -20 2 -40 2 -60c0 -226 -145 -380 -373 -380c-235 0 -391 152 -391 380s154 380 391 380c110 0 203 -30 270 -84l-115 -110c-32 32 -83 49 -153 49c-127 0 -212 -94 -212 -235s84 -235 211 -235c104 0 173 59 188 150h-167v145h349z" />
    <glyph glyph-name="Gbreve" unicode="&#x11e;" horiz-adv-x="826" 
d="M430 804c-116 0 -193 70 -193 176h127c0 -47 27 -79 66 -79c40 0 66 32 66 79h127c0 -106 -77 -176 -193 -176zM801 430c1 -20 2 -40 2 -60c0 -226 -145 -380 -373 -380c-235 0 -391 152 -391 380s154 380 391 380c110 0 203 -30 270 -84l-115 -110
c-32 32 -83 49 -153 49c-127 0 -212 -94 -212 -235s84 -235 211 -235c104 0 173 59 188 150h-167v145h349z" />
    <glyph glyph-name="Gcommaaccent" unicode="&#x122;" horiz-adv-x="826" 
d="M801 430c1 -20 2 -40 2 -60c0 -226 -145 -380 -373 -380c-235 0 -391 152 -391 380s154 380 391 380c110 0 203 -30 270 -84l-115 -110c-32 32 -83 49 -153 49c-127 0 -212 -94 -212 -235s84 -235 211 -235c104 0 173 59 188 150h-167v145h349zM302 -220l38 168h152
l-62 -168h-128z" />
    <glyph glyph-name="Gdotaccent" unicode="&#x120;" horiz-adv-x="826" 
d="M430 803c-57 0 -99 41 -99 98s42 98 99 98s98 -41 98 -98s-41 -98 -98 -98zM801 430c1 -20 2 -40 2 -60c0 -226 -145 -380 -373 -380c-235 0 -391 152 -391 380s154 380 391 380c110 0 203 -30 270 -84l-115 -110c-32 32 -83 49 -153 49c-127 0 -212 -94 -212 -235
s84 -235 211 -235c104 0 173 59 188 150h-167v145h349z" />
    <glyph glyph-name="H" unicode="H" horiz-adv-x="876" 
d="M620 740h175v-740h-175v305h-363v-305h-176v740h176v-290h363v290z" />
    <glyph glyph-name="Hbar" unicode="&#x126;" horiz-adv-x="876" 
d="M862 655v-121h-67v-534h-175v305h-363v-305h-176v534h-65v121h65v85h176v-85h363v85h175v-85h67zM620 450v84h-363v-84h363z" />
    <glyph glyph-name="I" unicode="I" horiz-adv-x="338" 
d="M81 0v740h176v-740h-176z" />
    <glyph glyph-name="Iacute" unicode="&#xcd;" horiz-adv-x="338" 
d="M62 813l138 167h197l-191 -167h-144zM81 0v740h176v-740h-176z" />
    <glyph glyph-name="Icircumflex" unicode="&#xce;" horiz-adv-x="338" 
d="M167 882l-56 -69h-156l132 167h160l131 -167h-155zM81 0v740h176v-740h-176z" />
    <glyph glyph-name="Idieresis" unicode="&#xcf;" horiz-adv-x="338" 
d="M35 803c-57 0 -99 41 -99 98s42 98 99 98s98 -41 98 -98s-41 -98 -98 -98zM302 803c-57 0 -99 41 -99 98s42 98 99 98s98 -41 98 -98s-41 -98 -98 -98zM81 0v740h176v-740h-176z" />
    <glyph glyph-name="Idotaccent" unicode="&#x130;" horiz-adv-x="338" 
d="M168 803c-57 0 -99 41 -99 98s42 98 99 98s98 -41 98 -98s-41 -98 -98 -98zM81 0v740h176v-740h-176z" />
    <glyph glyph-name="Igrave" unicode="&#xcc;" horiz-adv-x="338" 
d="M129 813l-191 167h197l138 -167h-144zM81 0v740h176v-740h-176z" />
    <glyph glyph-name="Imacron" unicode="&#x12a;" horiz-adv-x="338" 
d="M-22 807v133h379v-133h-379zM81 0v740h176v-740h-176z" />
    <glyph glyph-name="Iogonek" unicode="&#x12e;" horiz-adv-x="338" 
d="M246 -121l14 -81c-25 -17 -53 -28 -99 -28c-66 0 -110 38 -110 94c0 49 31 93 84 136h-54v740h176v-740c-57 -36 -84 -72 -84 -107c0 -17 11 -28 31 -28c16 0 30 6 42 14z" />
    <glyph glyph-name="J" unicode="J" horiz-adv-x="437" 
d="M154 -10c-66 0 -116 21 -153 62l47 117c21 -24 46 -34 71 -34c41 0 66 26 66 65v540h175v-571c0 -108 -86 -179 -206 -179z" />
    <glyph glyph-name="K" unicode="K" horiz-adv-x="722" 
d="M523 0l-234 305h-32v-305h-176v740h176v-290h28l223 290h210l-284 -360l299 -380h-210z" />
    <glyph glyph-name="Kcommaaccent" unicode="&#x136;" horiz-adv-x="722" 
d="M434 380l299 -380h-210l-234 305h-32v-305h-176v740h176v-290h28l223 290h210zM264 -220l38 168h152l-62 -168h-128z" />
    <glyph glyph-name="L" unicode="L" horiz-adv-x="587" 
d="M257 145h314v-145h-490v740h176v-595z" />
    <glyph glyph-name="Lacute" unicode="&#x139;" horiz-adv-x="587" 
d="M397 980l-191 -167h-144l138 167h197zM257 145h314v-145h-490v740h176v-595z" />
    <glyph glyph-name="Lcaron" unicode="&#x13d;" horiz-adv-x="589" 
d="M257 740v-595h314v-145h-490v740h176zM572 740l-74 -223h-153l50 223h177z" />
    <glyph glyph-name="Lcommaaccent" unicode="&#x13b;" horiz-adv-x="587" 
d="M257 145h314v-145h-490v740h176v-595zM186 -220l38 168h152l-62 -168h-128z" />
    <glyph glyph-name="Lslash" unicode="&#x141;" horiz-adv-x="587" 
d="M257 145h314v-145h-490v243l-48 -34v136l48 33v362h176v-261l102 72v-136l-102 -72v-198z" />
    <glyph glyph-name="M" unicode="M" horiz-adv-x="1006" 
d="M949 0h-175l-26 449l-198 -449h-94l-197 447l-26 -447h-176l53 742h195l198 -452l198 452h196z" />
    <glyph glyph-name="N" unicode="N" horiz-adv-x="883" 
d="M81 0v740h109l440 -443l-4 443h176v-740h-108l-441 444l4 -444h-176z" />
    <glyph glyph-name="Nacute" unicode="&#x143;" horiz-adv-x="883" 
d="M335 813l138 167h197l-191 -167h-144zM81 0v740h109l440 -443l-4 443h176v-740h-108l-441 444l4 -444h-176z" />
    <glyph glyph-name="Ncaron" unicode="&#x147;" horiz-adv-x="883" 
d="M360 813l-132 167h156l56 -69l56 69h155l-131 -167h-160zM626 740h176v-740h-108l-441 444l4 -444h-176v740h109l440 -443z" />
    <glyph glyph-name="Ncommaaccent" unicode="&#x145;" horiz-adv-x="883" 
d="M81 0v740h109l440 -443l-4 443h176v-740h-108l-441 444l4 -444h-176zM323 -220l38 168h152l-62 -168h-128z" />
    <glyph glyph-name="Eng" unicode="&#x14a;" horiz-adv-x="883" 
d="M626 740h176v-792c0 -107 -87 -178 -207 -178c-65 0 -115 20 -152 61l46 117c22 -23 46 -33 71 -33c42 0 66 26 66 64v89l-373 376l4 -444h-176v740h109l440 -443z" />
    <glyph glyph-name="Ntilde" unicode="&#xd1;" horiz-adv-x="883" 
d="M523 809c-61 0 -124 49 -161 49c-22 0 -34 -15 -34 -39h-90c0 96 48 159 121 159c65 0 123 -48 161 -48c21 0 34 12 34 38h90c0 -102 -48 -159 -121 -159zM81 0v740h109l440 -443l-4 443h176v-740h-108l-441 444l4 -444h-176z" />
    <glyph glyph-name="O" unicode="O" horiz-adv-x="873" 
d="M438 -10c-240 0 -400 152 -400 380s160 380 400 380c237 0 397 -152 397 -380s-160 -380 -397 -380zM438 135c129 0 216 94 216 235s-87 235 -216 235c-131 0 -218 -94 -218 -235s87 -235 218 -235z" />
    <glyph glyph-name="Oacute" unicode="&#xd3;" horiz-adv-x="873" 
d="M332 813l138 167h197l-191 -167h-144zM438 -10c-240 0 -400 152 -400 380s160 380 400 380c237 0 397 -152 397 -380s-160 -380 -397 -380zM438 135c129 0 216 94 216 235s-87 235 -216 235c-131 0 -218 -94 -218 -235s87 -235 218 -235z" />
    <glyph glyph-name="Ocircumflex" unicode="&#xd4;" horiz-adv-x="873" 
d="M437 882l-56 -69h-156l132 167h160l131 -167h-155zM438 750c237 0 397 -152 397 -380s-160 -380 -397 -380c-240 0 -400 152 -400 380s160 380 400 380zM438 135c129 0 216 94 216 235s-87 235 -216 235c-131 0 -218 -94 -218 -235s87 -235 218 -235z" />
    <glyph glyph-name="Odieresis" unicode="&#xd6;" horiz-adv-x="873" 
d="M305 803c-57 0 -99 41 -99 98s42 98 99 98s98 -41 98 -98s-41 -98 -98 -98zM572 803c-57 0 -99 41 -99 98s42 98 99 98s98 -41 98 -98s-41 -98 -98 -98zM438 -10c-240 0 -400 152 -400 380s160 380 400 380c237 0 397 -152 397 -380s-160 -380 -397 -380zM438 135
c129 0 216 94 216 235s-87 235 -216 235c-131 0 -218 -94 -218 -235s87 -235 218 -235z" />
    <glyph glyph-name="Ograve" unicode="&#xd2;" horiz-adv-x="873" 
d="M399 813l-191 167h197l138 -167h-144zM438 -10c-240 0 -400 152 -400 380s160 380 400 380c237 0 397 -152 397 -380s-160 -380 -397 -380zM438 135c129 0 216 94 216 235s-87 235 -216 235c-131 0 -218 -94 -218 -235s87 -235 218 -235z" />
    <glyph glyph-name="Ohungarumlaut" unicode="&#x150;" horiz-adv-x="873" 
d="M247 813l106 167h196l-158 -167h-144zM470 813l106 167h196l-159 -167h-143zM438 -10c-240 0 -400 152 -400 380s160 380 400 380c237 0 397 -152 397 -380s-160 -380 -397 -380zM438 135c129 0 216 94 216 235s-87 235 -216 235c-131 0 -218 -94 -218 -235
s87 -235 218 -235z" />
    <glyph glyph-name="Omacron" unicode="&#x14c;" horiz-adv-x="873" 
d="M248 807v133h379v-133h-379zM438 -10c-240 0 -400 152 -400 380s160 380 400 380c237 0 397 -152 397 -380s-160 -380 -397 -380zM438 135c129 0 216 94 216 235s-87 235 -216 235c-131 0 -218 -94 -218 -235s87 -235 218 -235z" />
    <glyph glyph-name="Oslash" unicode="&#xd8;" horiz-adv-x="874" 
d="M745 625c58 -65 90 -152 90 -255c0 -228 -160 -380 -397 -380c-90 0 -169 21 -232 60l-56 -60l-74 67l53 57c-58 65 -91 153 -91 256c0 228 160 380 400 380c89 0 168 -22 231 -61l57 61l74 -67zM220 370c0 -49 10 -92 30 -128l308 329c-33 22 -74 34 -120 34
c-131 0 -218 -94 -218 -235zM438 135c129 0 216 94 216 235c0 48 -10 91 -29 127l-308 -329c34 -21 75 -33 121 -33z" />
    <glyph glyph-name="Otilde" unicode="&#xd5;" horiz-adv-x="873" 
d="M520 809c-61 0 -124 49 -161 49c-22 0 -34 -15 -34 -39h-90c0 96 48 159 121 159c65 0 123 -48 161 -48c21 0 34 12 34 38h90c0 -102 -48 -159 -121 -159zM438 -10c-240 0 -400 152 -400 380s160 380 400 380c237 0 397 -152 397 -380s-160 -380 -397 -380zM438 135
c129 0 216 94 216 235s-87 235 -216 235c-131 0 -218 -94 -218 -235s87 -235 218 -235z" />
    <glyph glyph-name="OE" unicode="&#x152;" horiz-adv-x="1243" 
d="M836 145h359v-145h-535v63c-62 -47 -142 -73 -234 -73c-232 0 -387 152 -387 380s155 380 387 380c92 0 172 -26 234 -73v63h527v-145h-351v-148h316v-145h-316v-157zM438 135c130 0 217 94 217 235s-87 235 -217 235s-217 -94 -217 -235s87 -235 217 -235z" />
    <glyph glyph-name="P" unicode="P" horiz-adv-x="690" 
d="M398 740c161 0 268 -98 268 -246c0 -155 -110 -259 -277 -259h-132v-235h-176v740h317zM379 380c68 0 106 43 106 108c0 64 -42 107 -106 107h-122v-215h122z" />
    <glyph glyph-name="Thorn" unicode="&#xde;" horiz-adv-x="689" 
d="M398 629c161 0 268 -98 268 -246c0 -155 -110 -259 -277 -259h-132v-124h-176v740h176v-111h141zM379 269c68 0 106 43 106 108c0 64 -42 107 -106 107h-122v-215h122z" />
    <glyph glyph-name="Q" unicode="Q" horiz-adv-x="873" 
d="M861 0h-207l-24 30c-56 -26 -120 -40 -192 -40c-240 0 -400 152 -400 380s160 380 400 380c237 0 397 -152 397 -380c0 -97 -29 -181 -81 -245zM438 135c33 0 64 6 91 18l-113 137h197l22 -26c12 31 19 67 19 106c0 141 -87 235 -216 235c-131 0 -218 -94 -218 -235
s87 -235 218 -235z" />
    <glyph glyph-name="R" unicode="R" horiz-adv-x="748" 
d="M531 0l-156 256h-118v-256h-176v740h330c159 0 265 -97 265 -242c0 -93 -48 -166 -127 -207l188 -291h-206zM257 595v-194h119c71 0 119 39 119 97s-41 97 -103 97h-135z" />
    <glyph glyph-name="Racute" unicode="&#x154;" horiz-adv-x="748" 
d="M573 980l-191 -167h-144l138 167h197zM531 0l-156 256h-118v-256h-176v740h330c159 0 265 -97 265 -242c0 -93 -48 -166 -127 -207l188 -291h-206zM257 595v-194h119c71 0 119 39 119 97s-41 97 -103 97h-135z" />
    <glyph glyph-name="Rcaron" unicode="&#x158;" horiz-adv-x="748" 
d="M263 813l-132 167h156l56 -69l56 69h155l-131 -167h-160zM531 0l-156 256h-118v-256h-176v740h330c159 0 265 -97 265 -242c0 -93 -48 -166 -127 -207l188 -291h-206zM257 595v-194h119c71 0 119 39 119 97s-41 97 -103 97h-135z" />
    <glyph glyph-name="Rcommaaccent" unicode="&#x156;" horiz-adv-x="748" 
d="M549 291l188 -291h-206l-156 256h-118v-256h-176v740h330c159 0 265 -97 265 -242c0 -93 -48 -166 -127 -207zM257 595v-194h119c71 0 119 39 119 97s-41 97 -103 97h-135zM268 -220l38 168h152l-62 -168h-128z" />
    <glyph glyph-name="S" unicode="S" horiz-adv-x="665" 
d="M331 -10c-106 0 -203 34 -275 96l66 118c66 -51 135 -69 199 -69c80 0 123 22 123 66c0 48 -54 68 -136 90l-38 10c-131 35 -224 89 -224 213c0 141 114 236 286 236c91 0 181 -26 259 -85l-77 -122c-56 42 -113 62 -180 62c-65 0 -107 -24 -107 -62
c0 -46 53 -64 122 -82l38 -11c119 -32 238 -98 238 -232c0 -137 -118 -228 -294 -228z" />
    <glyph glyph-name="Sacute" unicode="&#x15a;" horiz-adv-x="665" 
d="M227 813l138 167h197l-191 -167h-144zM331 -10c-106 0 -203 34 -275 96l66 118c66 -51 135 -69 199 -69c80 0 123 22 123 66c0 48 -54 68 -136 90l-38 10c-131 35 -224 89 -224 213c0 141 114 236 286 236c91 0 181 -26 259 -85l-77 -122c-56 42 -113 62 -180 62
c-65 0 -107 -24 -107 -62c0 -46 53 -64 122 -82l38 -11c119 -32 238 -98 238 -232c0 -137 -118 -228 -294 -228z" />
    <glyph glyph-name="Scaron" unicode="&#x160;" horiz-adv-x="665" 
d="M252 813l-132 167h156l56 -69l56 69h155l-131 -167h-160zM387 450c119 -32 238 -98 238 -232c0 -137 -118 -228 -294 -228c-106 0 -203 34 -275 96l66 118c66 -51 135 -69 199 -69c80 0 123 22 123 66c0 48 -54 68 -136 90l-38 10c-131 35 -224 89 -224 213
c0 141 114 236 286 236c91 0 181 -26 259 -85l-77 -122c-56 42 -113 62 -180 62c-65 0 -107 -24 -107 -62c0 -46 53 -64 122 -82z" />
    <glyph glyph-name="Scedilla" unicode="&#x15e;" horiz-adv-x="665" 
d="M625 218c0 -123 -95 -209 -242 -225l-26 -42c58 -5 95 -39 95 -86c0 -56 -52 -95 -136 -95c-40 0 -80 10 -102 23l29 60c13 -9 33 -16 55 -16c28 0 44 12 44 27s-15 23 -38 23c-12 0 -23 -3 -32 -7l-21 37l39 75c-90 7 -171 40 -234 94l66 118c66 -51 135 -69 199 -69
c80 0 123 22 123 66c0 48 -54 68 -136 90l-38 10c-131 35 -224 89 -224 213c0 141 114 236 286 236c91 0 181 -26 259 -85l-77 -122c-56 42 -113 62 -180 62c-65 0 -107 -24 -107 -62c0 -46 53 -64 122 -82l38 -11c119 -32 238 -98 238 -232z" />
    <glyph glyph-name="Scommaaccent" unicode="&#x218;" horiz-adv-x="665" 
d="M331 -10c-106 0 -203 34 -275 96l66 118c66 -51 135 -69 199 -69c80 0 123 22 123 66c0 48 -54 68 -136 90l-38 10c-131 35 -224 89 -224 213c0 141 114 236 286 236c91 0 181 -26 259 -85l-77 -122c-56 42 -113 62 -180 62c-65 0 -107 -24 -107 -62
c0 -46 53 -64 122 -82l38 -11c119 -32 238 -98 238 -232c0 -137 -118 -228 -294 -228zM219 -220l38 168h152l-62 -168h-128z" />
    <glyph glyph-name="uni1E9E" unicode="&#x1e9e;" horiz-adv-x="707" 
d="M534 393c85 -35 136 -98 136 -179c0 -134 -102 -224 -256 -224c-37 0 -81 6 -107 15l15 139c20 -7 40 -9 61 -9c64 0 105 37 105 92c0 56 -50 94 -127 94v133c54 0 89 30 89 77c0 45 -39 74 -99 74s-100 -30 -100 -75v-530h-175v550c0 120 110 200 275 200
c168 0 281 -79 281 -196c0 -70 -36 -126 -98 -161z" />
    <glyph glyph-name="T" unicode="T" horiz-adv-x="644" 
d="M629 740v-145h-219v-595h-176v595h-219v145h614z" />
    <glyph glyph-name="Tbar" unicode="&#x166;" horiz-adv-x="644" 
d="M629 595h-219v-172h111v-121h-111v-302h-176v302h-109v121h109v172h-219v145h614v-145z" />
    <glyph glyph-name="Tcaron" unicode="&#x164;" horiz-adv-x="644" 
d="M241 813l-132 167h156l56 -69l56 69h155l-131 -167h-160zM629 740v-145h-219v-595h-176v595h-219v145h614z" />
    <glyph glyph-name="uni0162" unicode="&#x162;" horiz-adv-x="644" 
d="M410 0h-39l-30 -49c58 -5 95 -39 95 -86c0 -56 -52 -95 -136 -95c-40 0 -80 10 -102 23l29 60c13 -9 33 -16 55 -16c28 0 44 12 44 27s-15 23 -38 23c-12 0 -23 -3 -32 -7l-21 37l43 83h-44v595h-219v145h614v-145h-219v-595z" />
    <glyph glyph-name="uni021A" unicode="&#x21a;" horiz-adv-x="644" 
d="M629 740v-145h-219v-595h-176v595h-219v145h614zM203 -220l38 168h152l-62 -168h-128z" />
    <glyph glyph-name="U" unicode="U" horiz-adv-x="814" 
d="M408 -10c-201 0 -335 119 -335 299v451h175v-444c0 -96 64 -161 160 -161c94 0 158 65 158 161v444h175v-451c0 -180 -133 -299 -333 -299z" />
    <glyph glyph-name="Uacute" unicode="&#xda;" horiz-adv-x="814" 
d="M302 813l138 167h197l-191 -167h-144zM408 -10c-201 0 -335 119 -335 299v451h175v-444c0 -96 64 -161 160 -161c94 0 158 65 158 161v444h175v-451c0 -180 -133 -299 -333 -299z" />
    <glyph glyph-name="Ucircumflex" unicode="&#xdb;" horiz-adv-x="814" 
d="M407 882l-56 -69h-156l132 167h160l131 -167h-155zM566 740h175v-451c0 -180 -133 -299 -333 -299c-201 0 -335 119 -335 299v451h175v-444c0 -96 64 -161 160 -161c94 0 158 65 158 161v444z" />
    <glyph glyph-name="Udieresis" unicode="&#xdc;" horiz-adv-x="814" 
d="M275 803c-57 0 -99 41 -99 98s42 98 99 98s98 -41 98 -98s-41 -98 -98 -98zM542 803c-57 0 -99 41 -99 98s42 98 99 98s98 -41 98 -98s-41 -98 -98 -98zM408 -10c-201 0 -335 119 -335 299v451h175v-444c0 -96 64 -161 160 -161c94 0 158 65 158 161v444h175v-451
c0 -180 -133 -299 -333 -299z" />
    <glyph glyph-name="Ugrave" unicode="&#xd9;" horiz-adv-x="814" 
d="M369 813l-191 167h197l138 -167h-144zM408 -10c-201 0 -335 119 -335 299v451h175v-444c0 -96 64 -161 160 -161c94 0 158 65 158 161v444h175v-451c0 -180 -133 -299 -333 -299z" />
    <glyph glyph-name="Uhungarumlaut" unicode="&#x170;" horiz-adv-x="814" 
d="M217 813l106 167h196l-158 -167h-144zM440 813l106 167h196l-159 -167h-143zM408 -10c-201 0 -335 119 -335 299v451h175v-444c0 -96 64 -161 160 -161c94 0 158 65 158 161v444h175v-451c0 -180 -133 -299 -333 -299z" />
    <glyph glyph-name="Umacron" unicode="&#x16a;" horiz-adv-x="814" 
d="M218 807v133h379v-133h-379zM408 -10c-201 0 -335 119 -335 299v451h175v-444c0 -96 64 -161 160 -161c94 0 158 65 158 161v444h175v-451c0 -180 -133 -299 -333 -299z" />
    <glyph glyph-name="Uogonek" unicode="&#x172;" horiz-adv-x="814" 
d="M566 740h175v-451c0 -150 -92 -257 -238 -289c-57 -36 -84 -72 -84 -107c0 -17 11 -28 31 -28c16 0 30 6 42 14l14 -81c-25 -17 -53 -28 -99 -28c-66 0 -110 38 -110 94c0 46 27 87 73 127c-180 14 -297 129 -297 298v451h175v-444c0 -96 64 -161 160 -161
c94 0 158 65 158 161v444z" />
    <glyph glyph-name="Uring" unicode="&#x16e;" horiz-adv-x="814" 
d="M408 779c-73 0 -122 44 -122 110c0 65 49 109 122 109s121 -44 121 -109c0 -66 -48 -110 -121 -110zM408 854c20 0 34 14 34 35c0 20 -14 34 -34 34c-21 0 -35 -14 -35 -34c0 -21 14 -35 35 -35zM408 -10c-201 0 -335 119 -335 299v451h175v-444c0 -96 64 -161 160 -161
c94 0 158 65 158 161v444h175v-451c0 -180 -133 -299 -333 -299z" />
    <glyph glyph-name="V" unicode="V" horiz-adv-x="775" 
d="M306 0l-311 740h187l206 -520l204 520h187l-310 -740h-163z" />
    <glyph glyph-name="W" unicode="W" horiz-adv-x="1156" 
d="M969 740h187l-250 -740h-163l-165 496l-164 -496h-163l-251 740h187l154 -505l156 505h162l157 -505z" />
    <glyph glyph-name="Wacute" unicode="&#x1e82;" horiz-adv-x="1156" 
d="M808 980l-191 -167h-144l138 167h197zM969 740h187l-250 -740h-163l-165 496l-164 -496h-163l-251 740h187l154 -505l156 505h162l157 -505z" />
    <glyph glyph-name="Wcircumflex" unicode="&#x174;" horiz-adv-x="1156" 
d="M578 882l-56 -69h-156l132 167h160l131 -167h-155zM969 740h187l-250 -740h-163l-165 496l-164 -496h-163l-251 740h187l154 -505l156 505h162l157 -505z" />
    <glyph glyph-name="Wdieresis" unicode="&#x1e84;" horiz-adv-x="1156" 
d="M446 803c-57 0 -99 41 -99 98s42 98 99 98s98 -41 98 -98s-41 -98 -98 -98zM713 803c-57 0 -99 41 -99 98s42 98 99 98s98 -41 98 -98s-41 -98 -98 -98zM969 740h187l-250 -740h-163l-165 496l-164 -496h-163l-251 740h187l154 -505l156 505h162l157 -505z" />
    <glyph glyph-name="Wgrave" unicode="&#x1e80;" horiz-adv-x="1156" 
d="M684 813h-144l-191 167h197zM969 740h187l-250 -740h-163l-165 496l-164 -496h-163l-251 740h187l154 -505l156 505h162l157 -505z" />
    <glyph glyph-name="X" unicode="X" horiz-adv-x="710" 
d="M718 0h-202l-161 246l-159 -246h-203l265 384l-248 356h202l143 -218l142 218h202l-247 -355z" />
    <glyph glyph-name="Y" unicode="Y" horiz-adv-x="711" 
d="M517 740h186l-260 -481v-259h-175v259l-260 481h188l161 -326z" />
    <glyph glyph-name="Yacute" unicode="&#xdd;" horiz-adv-x="711" 
d="M586 980l-191 -167h-144l138 167h197zM517 740h186l-260 -481v-259h-175v259l-260 481h188l161 -326z" />
    <glyph glyph-name="Ycircumflex" unicode="&#x176;" horiz-adv-x="711" 
d="M356 882l-56 -69h-156l132 167h160l131 -167h-155zM517 740h186l-260 -481v-259h-175v259l-260 481h188l161 -326z" />
    <glyph glyph-name="Ydieresis" unicode="&#x178;" horiz-adv-x="711" 
d="M224 803c-57 0 -99 41 -99 98s42 98 99 98s98 -41 98 -98s-41 -98 -98 -98zM491 803c-57 0 -99 41 -99 98s42 98 99 98s98 -41 98 -98s-41 -98 -98 -98zM517 740h186l-260 -481v-259h-175v259l-260 481h188l161 -326z" />
    <glyph glyph-name="Ygrave" unicode="&#x1ef2;" horiz-adv-x="711" 
d="M462 813h-144l-191 167h197zM517 740h186l-260 -481v-259h-175v259l-260 481h188l161 -326z" />
    <glyph glyph-name="Z" unicode="Z" horiz-adv-x="689" 
d="M278 145h375v-145h-616v109l364 486h-358v145h600v-108z" />
    <glyph glyph-name="Zacute" unicode="&#x179;" horiz-adv-x="689" 
d="M572 980l-191 -167h-144l138 167h197zM278 145h375v-145h-616v109l364 486h-358v145h600v-108z" />
    <glyph glyph-name="Zcaron" unicode="&#x17d;" horiz-adv-x="689" 
d="M262 813l-132 167h156l56 -69l56 69h155l-131 -167h-160zM278 145h375v-145h-616v109l364 486h-358v145h600v-108z" />
    <glyph glyph-name="Zdotaccent" unicode="&#x17b;" horiz-adv-x="689" 
d="M343 803c-57 0 -99 41 -99 98s42 98 99 98s98 -41 98 -98s-41 -98 -98 -98zM278 145h375v-145h-616v109l364 486h-358v145h600v-108z" />
    <glyph glyph-name="A.ss01" horiz-adv-x="815" 
d="M408 750c200 0 334 -119 334 -298v-452h-176v198h-317v-198h-176v452c0 179 134 298 335 298zM249 343h317v102c0 96 -63 160 -157 160c-97 0 -160 -64 -160 -160v-102z" />
    <glyph glyph-name="Aacute.ss01" horiz-adv-x="815" 
d="M637 980l-191 -167h-144l138 167h197zM408 750c200 0 334 -119 334 -298v-452h-176v198h-317v-198h-176v452c0 179 134 298 335 298zM249 343h317v102c0 96 -63 160 -157 160c-97 0 -160 -64 -160 -160v-102z" />
    <glyph glyph-name="Abreve.ss01" horiz-adv-x="815" 
d="M408 804c-116 0 -193 70 -193 176h127c0 -47 27 -79 66 -79c40 0 66 32 66 79h127c0 -106 -77 -176 -193 -176zM408 750c200 0 334 -119 334 -298v-452h-176v198h-317v-198h-176v452c0 179 134 298 335 298zM249 343h317v102c0 96 -63 160 -157 160
c-97 0 -160 -64 -160 -160v-102z" />
    <glyph glyph-name="Acircumflex.ss01" horiz-adv-x="815" 
d="M407 882l-56 -69h-156l132 167h160l131 -167h-155zM408 750c200 0 334 -119 334 -298v-452h-176v198h-317v-198h-176v452c0 179 134 298 335 298zM249 343h317v102c0 96 -63 160 -157 160c-97 0 -160 -64 -160 -160v-102z" />
    <glyph glyph-name="Adieresis.ss01" horiz-adv-x="815" 
d="M275 803c-57 0 -99 41 -99 98s42 98 99 98s98 -41 98 -98s-41 -98 -98 -98zM542 803c-57 0 -99 41 -99 98s42 98 99 98s98 -41 98 -98s-41 -98 -98 -98zM408 750c200 0 334 -119 334 -298v-452h-176v198h-317v-198h-176v452c0 179 134 298 335 298zM249 343h317v102
c0 96 -63 160 -157 160c-97 0 -160 -64 -160 -160v-102z" />
    <glyph glyph-name="Agrave.ss01" horiz-adv-x="815" 
d="M513 813h-144l-191 167h197zM408 750c200 0 334 -119 334 -298v-452h-176v198h-317v-198h-176v452c0 179 134 298 335 298zM249 343h317v102c0 96 -63 160 -157 160c-97 0 -160 -64 -160 -160v-102z" />
    <glyph glyph-name="Amacron.ss01" horiz-adv-x="815" 
d="M597 940v-133h-379v133h379zM408 750c200 0 334 -119 334 -298v-452h-176v198h-317v-198h-176v452c0 179 134 298 335 298zM249 343h317v102c0 96 -63 160 -157 160c-97 0 -160 -64 -160 -160v-102z" />
    <glyph glyph-name="Aogonek.ss01" horiz-adv-x="815" 
d="M731 -121l14 -81c-25 -17 -53 -28 -99 -28c-66 0 -110 38 -110 94c0 49 31 93 84 136h-54v198h-317v-198h-176v452c0 179 134 298 335 298c200 0 334 -119 334 -298v-452c-57 -36 -84 -72 -84 -107c0 -17 11 -28 31 -28c16 0 30 6 42 14zM249 343h317v102
c0 96 -63 160 -157 160c-97 0 -160 -64 -160 -160v-102z" />
    <glyph glyph-name="Aring.ss01" horiz-adv-x="815" 
d="M408 779c-73 0 -122 44 -122 110c0 65 49 109 122 109s121 -44 121 -109c0 -66 -48 -110 -121 -110zM408 923c-21 0 -35 -14 -35 -34c0 -21 14 -35 35 -35c20 0 34 14 34 35c0 20 -14 34 -34 34zM408 750c200 0 334 -119 334 -298v-452h-176v198h-317v-198h-176v452
c0 179 134 298 335 298zM249 343h317v102c0 96 -63 160 -157 160c-97 0 -160 -64 -160 -160v-102z" />
    <glyph glyph-name="Atilde.ss01" horiz-adv-x="815" 
d="M329 858c-22 0 -34 -15 -34 -39h-90c0 96 48 159 121 159c65 0 123 -48 161 -48c21 0 34 12 34 38h90c0 -102 -48 -159 -121 -159c-61 0 -124 49 -161 49zM408 750c200 0 334 -119 334 -298v-452h-176v198h-317v-198h-176v452c0 179 134 298 335 298zM249 343h317v102
c0 96 -63 160 -157 160c-97 0 -160 -64 -160 -160v-102z" />
    <glyph glyph-name="AE.ss01" horiz-adv-x="988" 
d="M630 145h310v-145h-485v198h-210v-198h-176v392c0 209 155 348 386 348h477v-145h-302v-148h267v-145h-267v-157zM245 385v-42h210v252c-127 0 -210 -84 -210 -210z" />
    <glyph glyph-name="J.ss01" horiz-adv-x="597" 
d="M523 740v-474c0 -166 -117 -276 -293 -276c-84 0 -158 28 -218 79l87 117c32 -32 74 -51 120 -51c77 0 129 56 129 139v321h-292v145h467z" />
    <glyph glyph-name="C.ss02" horiz-adv-x="648" 
d="M438 -10c-240 0 -400 152 -400 380s160 380 400 380c62 0 118 -12 167 -39v-160c-37 34 -94 54 -165 54c-132 0 -220 -94 -220 -235s88 -235 220 -235c71 0 128 21 165 54v-160c-49 -27 -105 -39 -167 -39z" />
    <glyph glyph-name="Cacute.ss02" horiz-adv-x="648" 
d="M325 813l138 167h197l-191 -167h-144zM438 -10c-240 0 -400 152 -400 380s160 380 400 380c62 0 118 -12 167 -39v-160c-37 34 -94 54 -165 54c-132 0 -220 -94 -220 -235s88 -235 220 -235c71 0 128 21 165 54v-160c-49 -27 -105 -39 -167 -39z" />
    <glyph glyph-name="Ccaron.ss02" horiz-adv-x="648" 
d="M350 813l-132 167h156l56 -69l56 69h155l-131 -167h-160zM38 370c0 228 160 380 400 380c62 0 118 -12 167 -39v-160c-37 34 -94 54 -165 54c-132 0 -220 -94 -220 -235s88 -235 220 -235c71 0 128 21 165 54v-160c-49 -27 -105 -39 -167 -39c-240 0 -400 152 -400 380z
" />
    <glyph glyph-name="Ccedilla.ss02" horiz-adv-x="648" 
d="M440 605c-132 0 -220 -94 -220 -235s88 -235 220 -235c71 0 128 21 165 54v-160c-41 -22 -86 -34 -135 -38l-25 -40c58 -5 95 -39 95 -86c0 -56 -52 -95 -136 -95c-40 0 -80 10 -102 23l29 60c13 -9 33 -16 55 -16c28 0 44 12 44 27s-15 23 -38 23c-12 0 -23 -3 -32 -7
l-21 37l40 76c-207 23 -341 168 -341 377c0 228 160 380 400 380c62 0 118 -12 167 -39v-160c-37 34 -94 54 -165 54z" />
    <glyph glyph-name="Cdotaccent.ss02" horiz-adv-x="648" 
d="M431 803c-57 0 -99 41 -99 98s42 98 99 98s98 -41 98 -98s-41 -98 -98 -98zM438 -10c-240 0 -400 152 -400 380s160 380 400 380c62 0 118 -12 167 -39v-160c-37 34 -94 54 -165 54c-132 0 -220 -94 -220 -235s88 -235 220 -235c71 0 128 21 165 54v-160
c-49 -27 -105 -39 -167 -39z" />
    <glyph glyph-name="Z.ss02" horiz-adv-x="627" 
d="M289 145h310v-145h-573l303 595h-297v145h561z" />
    <glyph glyph-name="Zacute.ss02" horiz-adv-x="627" 
d="M542 980l-191 -167h-144l138 167h197zM289 145h310v-145h-573l303 595h-297v145h561z" />
    <glyph glyph-name="Zcaron.ss02" horiz-adv-x="627" 
d="M232 813l-132 167h156l56 -69l56 69h155l-131 -167h-160zM289 145h310v-145h-573l303 595h-297v145h561z" />
    <glyph glyph-name="Zdotaccent.ss02" horiz-adv-x="627" 
d="M313 803c-57 0 -99 41 -99 98s42 98 99 98s98 -41 98 -98s-41 -98 -98 -98zM289 145h310v-145h-573l303 595h-297v145h561z" />
    <glyph glyph-name="a" unicode="a" horiz-adv-x="589" 
d="M292 555c144 0 241 -84 241 -213v-342h-164l-2 62c-36 -47 -91 -72 -148 -72c-116 0 -193 70 -193 175c0 107 94 178 236 178c31 0 66 -3 101 -10c-2 58 -43 89 -115 89c-46 0 -83 -12 -116 -35l-72 100c62 45 133 68 232 68zM268 111c51 0 94 40 95 108
c-28 5 -55 8 -79 8c-50 0 -82 -24 -82 -59s20 -57 66 -57z" />
    <glyph glyph-name="aacute" unicode="&#xe1;" horiz-adv-x="589" 
d="M531 785l-191 -167h-144l138 167h197zM292 555c144 0 241 -84 241 -213v-342h-164l-2 62c-36 -47 -91 -72 -148 -72c-116 0 -193 70 -193 175c0 107 94 178 236 178c31 0 66 -3 101 -10c-2 58 -43 89 -115 89c-46 0 -83 -12 -116 -35l-72 100c62 45 133 68 232 68z
M268 111c51 0 94 40 95 108c-28 5 -55 8 -79 8c-50 0 -82 -24 -82 -59s20 -57 66 -57z" />
    <glyph glyph-name="abreve" unicode="&#x103;" horiz-adv-x="589" 
d="M302 609c-116 0 -193 70 -193 176h127c0 -47 27 -79 66 -79c40 0 66 32 66 79h127c0 -106 -77 -176 -193 -176zM292 555c144 0 241 -84 241 -213v-342h-164l-2 62c-36 -47 -91 -72 -148 -72c-116 0 -193 70 -193 175c0 107 94 178 236 178c31 0 66 -3 101 -10
c-2 58 -43 89 -115 89c-46 0 -83 -12 -116 -35l-72 100c62 45 133 68 232 68zM268 111c51 0 94 40 95 108c-28 5 -55 8 -79 8c-50 0 -82 -24 -82 -59s20 -57 66 -57z" />
    <glyph glyph-name="acircumflex" unicode="&#xe2;" horiz-adv-x="589" 
d="M301 687l-56 -69h-156l132 167h160l131 -167h-155zM292 555c144 0 241 -84 241 -213v-342h-164l-2 62c-36 -47 -91 -72 -148 -72c-116 0 -193 70 -193 175c0 107 94 178 236 178c31 0 66 -3 101 -10c-2 58 -43 89 -115 89c-46 0 -83 -12 -116 -35l-72 100
c62 45 133 68 232 68zM268 111c51 0 94 40 95 108c-28 5 -55 8 -79 8c-50 0 -82 -24 -82 -59s20 -57 66 -57z" />
    <glyph glyph-name="adieresis" unicode="&#xe4;" horiz-adv-x="589" 
d="M169 608c-57 0 -99 41 -99 98s42 98 99 98s98 -41 98 -98s-41 -98 -98 -98zM436 608c-57 0 -99 41 -99 98s42 98 99 98s98 -41 98 -98s-41 -98 -98 -98zM292 555c144 0 241 -84 241 -213v-342h-164l-2 62c-36 -47 -91 -72 -148 -72c-116 0 -193 70 -193 175
c0 107 94 178 236 178c31 0 66 -3 101 -10c-2 58 -43 89 -115 89c-46 0 -83 -12 -116 -35l-72 100c62 45 133 68 232 68zM268 111c51 0 94 40 95 108c-28 5 -55 8 -79 8c-50 0 -82 -24 -82 -59s20 -57 66 -57z" />
    <glyph glyph-name="agrave" unicode="&#xe0;" horiz-adv-x="589" 
d="M407 618h-144l-191 167h197zM292 555c144 0 241 -84 241 -213v-342h-164l-2 62c-36 -47 -91 -72 -148 -72c-116 0 -193 70 -193 175c0 107 94 178 236 178c31 0 66 -3 101 -10c-2 58 -43 89 -115 89c-46 0 -83 -12 -116 -35l-72 100c62 45 133 68 232 68zM268 111
c51 0 94 40 95 108c-28 5 -55 8 -79 8c-50 0 -82 -24 -82 -59s20 -57 66 -57z" />
    <glyph glyph-name="amacron" unicode="&#x101;" horiz-adv-x="589" 
d="M491 745v-133h-379v133h379zM292 555c144 0 241 -84 241 -213v-342h-164l-2 62c-36 -47 -91 -72 -148 -72c-116 0 -193 70 -193 175c0 107 94 178 236 178c31 0 66 -3 101 -10c-2 58 -43 89 -115 89c-46 0 -83 -12 -116 -35l-72 100c62 45 133 68 232 68zM268 111
c51 0 94 40 95 108c-28 5 -55 8 -79 8c-50 0 -82 -24 -82 -59s20 -57 66 -57z" />
    <glyph glyph-name="aogonek" unicode="&#x105;" horiz-adv-x="589" 
d="M522 -121l14 -81c-25 -17 -53 -28 -99 -28c-66 0 -110 38 -110 94c0 49 31 93 84 136h-42l-2 62c-36 -47 -91 -72 -148 -72c-116 0 -193 70 -193 175c0 107 94 178 236 178c31 0 66 -3 101 -10c-2 58 -43 89 -115 89c-46 0 -83 -12 -116 -35l-72 100c62 45 133 68 232 68
c144 0 241 -84 241 -213v-342c-57 -36 -84 -72 -84 -107c0 -17 11 -28 31 -28c16 0 30 6 42 14zM268 111c51 0 94 40 95 108c-28 5 -55 8 -79 8c-50 0 -82 -24 -82 -59s20 -57 66 -57z" />
    <glyph glyph-name="aring" unicode="&#xe5;" horiz-adv-x="589" 
d="M302 584c-73 0 -122 44 -122 110c0 65 49 109 122 109s121 -44 121 -109c0 -66 -48 -110 -121 -110zM302 728c-21 0 -35 -14 -35 -34c0 -21 14 -35 35 -35c20 0 34 14 34 35c0 20 -14 34 -34 34zM292 555c144 0 241 -84 241 -213v-342h-164l-2 62
c-36 -47 -91 -72 -148 -72c-116 0 -193 70 -193 175c0 107 94 178 236 178c31 0 66 -3 101 -10c-2 58 -43 89 -115 89c-46 0 -83 -12 -116 -35l-72 100c62 45 133 68 232 68zM268 111c51 0 94 40 95 108c-28 5 -55 8 -79 8c-50 0 -82 -24 -82 -59s20 -57 66 -57z" />
    <glyph glyph-name="atilde" unicode="&#xe3;" horiz-adv-x="589" 
d="M223 663c-22 0 -34 -15 -34 -39h-90c0 96 48 159 121 159c65 0 123 -48 161 -48c21 0 34 12 34 38h90c0 -102 -48 -159 -121 -159c-61 0 -124 49 -161 49zM292 555c144 0 241 -84 241 -213v-342h-164l-2 62c-36 -47 -91 -72 -148 -72c-116 0 -193 70 -193 175
c0 107 94 178 236 178c31 0 66 -3 101 -10c-2 58 -43 89 -115 89c-46 0 -83 -12 -116 -35l-72 100c62 45 133 68 232 68zM268 111c51 0 94 40 95 108c-28 5 -55 8 -79 8c-50 0 -82 -24 -82 -59s20 -57 66 -57z" />
    <glyph glyph-name="ae" unicode="&#xe6;" horiz-adv-x="940" 
d="M908 281c0 -23 -1 -49 -4 -68h-374c10 -56 40 -90 105 -90c47 0 84 19 111 50l131 -64c-44 -71 -126 -119 -227 -119c-87 0 -158 33 -207 87c-43 -57 -119 -87 -199 -87c-131 0 -218 70 -218 175c0 107 94 178 236 178c31 0 66 -3 101 -10c-2 58 -43 89 -115 89
c-46 0 -83 -12 -116 -35l-72 100c59 45 125 68 220 68c75 0 137 -29 177 -75c46 47 110 75 185 75c160 0 266 -109 266 -274zM629 422c-56 0 -87 -34 -98 -95h199c-11 62 -44 95 -101 95zM268 111c51 0 94 40 95 108c-28 5 -55 8 -79 8c-50 0 -82 -24 -82 -59s20 -57 66 -57
z" />
    <glyph glyph-name="b" unicode="b" horiz-adv-x="688" 
d="M394 555c144 0 260 -115 260 -285c0 -169 -116 -280 -260 -280c-73 0 -128 28 -165 77l-3 -67h-164v780h170v-299c37 47 91 74 162 74zM356 136c73 0 123 55 123 136c0 82 -50 138 -123 138c-74 0 -124 -56 -124 -137c0 -83 50 -137 124 -137z" />
    <glyph glyph-name="c" unicode="c" horiz-adv-x="554" 
d="M330 -10c-178 0 -297 113 -297 283c0 169 120 282 301 282c73 0 140 -25 191 -65l-96 -115c-23 21 -52 35 -92 35c-77 0 -127 -55 -127 -137s49 -137 127 -137c47 0 83 13 110 44l96 -113c-53 -52 -129 -77 -213 -77z" />
    <glyph glyph-name="cacute" unicode="&#x107;" horiz-adv-x="554" 
d="M213 618l138 167h197l-191 -167h-144zM330 -10c-178 0 -297 113 -297 283c0 169 120 282 301 282c73 0 140 -25 191 -65l-96 -115c-23 21 -52 35 -92 35c-77 0 -127 -55 -127 -137s49 -137 127 -137c47 0 83 13 110 44l96 -113c-53 -52 -129 -77 -213 -77z" />
    <glyph glyph-name="ccaron" unicode="&#x10d;" horiz-adv-x="554" 
d="M238 618l-132 167h156l56 -69l56 69h155l-131 -167h-160zM447 180l96 -113c-53 -52 -129 -77 -213 -77c-178 0 -297 113 -297 283c0 169 120 282 301 282c73 0 140 -25 191 -65l-96 -115c-23 21 -52 35 -92 35c-77 0 -127 -55 -127 -137s49 -137 127 -137
c47 0 83 13 110 44z" />
    <glyph glyph-name="ccedilla" unicode="&#xe7;" horiz-adv-x="554" 
d="M340 -49c58 -5 95 -39 95 -86c0 -56 -52 -95 -136 -95c-40 0 -80 10 -102 23l29 60c13 -9 33 -16 55 -16c28 0 44 12 44 27s-15 23 -38 23c-12 0 -23 -3 -32 -7l-21 37l40 77c-147 21 -241 128 -241 279c0 169 120 282 301 282c73 0 140 -25 191 -65l-96 -115
c-23 21 -52 35 -92 35c-77 0 -127 -55 -127 -137s49 -137 127 -137c47 0 83 13 110 44l96 -113c-46 -45 -108 -69 -178 -76z" />
    <glyph glyph-name="cdotaccent" unicode="&#x10b;" horiz-adv-x="554" 
d="M319 608c-57 0 -99 41 -99 98s42 98 99 98s98 -41 98 -98s-41 -98 -98 -98zM330 -10c-178 0 -297 113 -297 283c0 169 120 282 301 282c73 0 140 -25 191 -65l-96 -115c-23 21 -52 35 -92 35c-77 0 -127 -55 -127 -137s49 -137 127 -137c47 0 83 13 110 44l96 -113
c-53 -52 -129 -77 -213 -77z" />
    <glyph glyph-name="d" unicode="d" horiz-adv-x="687" 
d="M455 780h170v-780h-163l-3 67c-37 -49 -92 -77 -166 -77c-144 0 -260 111 -260 280c0 170 116 285 260 285c71 0 125 -27 162 -73v298zM332 136c74 0 123 54 123 137c0 81 -49 137 -123 137s-123 -56 -123 -138c0 -81 49 -136 123 -136z" />
    <glyph glyph-name="eth" unicode="&#xf0;" horiz-adv-x="667" 
d="M432 693c128 -103 199 -229 199 -374c0 -196 -120 -329 -298 -329c-179 0 -299 112 -299 284c0 162 117 269 260 269c30 0 57 -4 81 -13c-23 27 -50 53 -81 76l-48 -30l-93 60l48 31c-20 11 -40 21 -60 31l141 92c20 -10 39 -21 57 -32l50 32l91 -67zM333 136
c73 0 122 55 122 137s-49 137 -122 137c-74 0 -123 -55 -123 -137s49 -137 123 -137z" />
    <glyph glyph-name="dcaron" unicode="&#x10f;" horiz-adv-x="708" 
d="M455 482v298h170v-780h-163l-3 67c-37 -49 -92 -77 -166 -77c-144 0 -260 111 -260 280c0 170 116 285 260 285c71 0 125 -27 162 -73zM716 780h152l-67 -187h-128zM332 136c74 0 123 54 123 137c0 81 -49 137 -123 137s-123 -56 -123 -138c0 -81 49 -136 123 -136z" />
    <glyph glyph-name="dcroat" unicode="&#x111;" horiz-adv-x="687" 
d="M697 715v-121h-72v-594h-163l-3 67c-37 -49 -92 -77 -166 -77c-144 0 -260 111 -260 280c0 170 116 285 260 285c71 0 125 -27 162 -73v112h-154v121h154v65h170v-65h72zM332 136c74 0 123 54 123 137c0 81 -49 137 -123 137s-123 -56 -123 -138c0 -81 49 -136 123 -136z
" />
    <glyph glyph-name="e" unicode="e" horiz-adv-x="623" 
d="M592 281c0 -23 -2 -49 -4 -68h-374c10 -56 40 -90 105 -90c46 0 84 19 110 50l132 -64c-47 -71 -134 -119 -240 -119c-172 0 -287 110 -287 277c0 172 111 288 279 288c167 0 279 -109 279 -274zM313 422c-56 0 -87 -34 -98 -95h199c-11 62 -44 95 -101 95z" />
    <glyph glyph-name="eacute" unicode="&#xe9;" horiz-adv-x="623" 
d="M542 785l-191 -167h-144l138 167h197zM592 281c0 -23 -2 -49 -4 -68h-374c10 -56 40 -90 105 -90c46 0 84 19 110 50l132 -64c-47 -71 -134 -119 -240 -119c-172 0 -287 110 -287 277c0 172 111 288 279 288c167 0 279 -109 279 -274zM313 422c-56 0 -87 -34 -98 -95h199
c-11 62 -44 95 -101 95z" />
    <glyph glyph-name="ecaron" unicode="&#x11b;" horiz-adv-x="623" 
d="M232 618l-132 167h156l56 -69l56 69h155l-131 -167h-160zM592 281c0 -23 -2 -49 -4 -68h-374c10 -56 40 -90 105 -90c46 0 84 19 110 50l132 -64c-47 -71 -134 -119 -240 -119c-172 0 -287 110 -287 277c0 172 111 288 279 288c167 0 279 -109 279 -274zM313 422
c-56 0 -87 -34 -98 -95h199c-11 62 -44 95 -101 95z" />
    <glyph glyph-name="ecircumflex" unicode="&#xea;" horiz-adv-x="623" 
d="M312 687l-56 -69h-156l132 167h160l131 -167h-155zM592 281c0 -23 -2 -49 -4 -68h-374c10 -56 40 -90 105 -90c46 0 84 19 110 50l132 -64c-47 -71 -134 -119 -240 -119c-172 0 -287 110 -287 277c0 172 111 288 279 288c167 0 279 -109 279 -274zM313 422
c-56 0 -87 -34 -98 -95h199c-11 62 -44 95 -101 95z" />
    <glyph glyph-name="edieresis" unicode="&#xeb;" horiz-adv-x="623" 
d="M180 608c-57 0 -99 41 -99 98s42 98 99 98s98 -41 98 -98s-41 -98 -98 -98zM447 608c-57 0 -99 41 -99 98s42 98 99 98s98 -41 98 -98s-41 -98 -98 -98zM592 281c0 -23 -2 -49 -4 -68h-374c10 -56 40 -90 105 -90c46 0 84 19 110 50l132 -64c-47 -71 -134 -119 -240 -119
c-172 0 -287 110 -287 277c0 172 111 288 279 288c167 0 279 -109 279 -274zM313 422c-56 0 -87 -34 -98 -95h199c-11 62 -44 95 -101 95z" />
    <glyph glyph-name="edotaccent" unicode="&#x117;" horiz-adv-x="623" 
d="M313 608c-57 0 -99 41 -99 98s42 98 99 98s98 -41 98 -98s-41 -98 -98 -98zM592 281c0 -23 -2 -49 -4 -68h-374c10 -56 40 -90 105 -90c46 0 84 19 110 50l132 -64c-47 -71 -134 -119 -240 -119c-172 0 -287 110 -287 277c0 172 111 288 279 288c167 0 279 -109 279 -274
zM313 422c-56 0 -87 -34 -98 -95h199c-11 62 -44 95 -101 95z" />
    <glyph glyph-name="egrave" unicode="&#xe8;" horiz-adv-x="623" 
d="M418 618h-144l-191 167h197zM592 281c0 -23 -2 -49 -4 -68h-374c10 -56 40 -90 105 -90c46 0 84 19 110 50l132 -64c-47 -71 -134 -119 -240 -119c-172 0 -287 110 -287 277c0 172 111 288 279 288c167 0 279 -109 279 -274zM313 422c-56 0 -87 -34 -98 -95h199
c-11 62 -44 95 -101 95z" />
    <glyph glyph-name="emacron" unicode="&#x113;" horiz-adv-x="623" 
d="M502 745v-133h-379v133h379zM592 281c0 -23 -2 -49 -4 -68h-374c10 -56 40 -90 105 -90c46 0 84 19 110 50l132 -64c-47 -71 -134 -119 -240 -119c-172 0 -287 110 -287 277c0 172 111 288 279 288c167 0 279 -109 279 -274zM313 422c-56 0 -87 -34 -98 -95h199
c-11 62 -44 95 -101 95z" />
    <glyph glyph-name="eogonek" unicode="&#x119;" horiz-adv-x="623" 
d="M592 281c0 -23 -2 -49 -4 -68h-374c10 -56 40 -90 105 -90c46 0 84 19 110 50l132 -64c-34 -52 -90 -91 -158 -109c-57 -36 -84 -72 -84 -107c0 -17 11 -28 31 -28c16 0 30 6 42 14l14 -81c-25 -17 -53 -28 -99 -28c-66 0 -110 38 -110 94c0 46 27 89 75 129
c-144 19 -238 123 -238 274c0 172 111 288 279 288c167 0 279 -109 279 -274zM313 422c-56 0 -87 -34 -98 -95h199c-11 62 -44 95 -101 95z" />
    <glyph glyph-name="f" unicode="f" horiz-adv-x="423" 
d="M354 645c-42 0 -71 -25 -71 -62v-38h123v-139h-123v-406h-170v406h-85v139h85v64c0 109 74 181 185 181c45 0 92 -7 125 -22l-11 -132c-19 7 -36 9 -58 9z" />
    <glyph glyph-name="g" unicode="g" horiz-adv-x="687" 
d="M463 545h163v-488c0 -173 -132 -287 -334 -287c-97 0 -183 23 -244 67l37 133c62 -41 131 -55 203 -55c101 0 168 57 168 143v5c-37 -46 -91 -73 -162 -73c-144 0 -260 115 -260 285c0 169 116 280 260 280c74 0 129 -28 166 -77zM333 136c74 0 123 55 123 137
s-49 137 -123 137s-123 -55 -123 -136c0 -83 49 -138 123 -138z" />
    <glyph glyph-name="gbreve" unicode="&#x11f;" horiz-adv-x="687" 
d="M342 609c-116 0 -193 70 -193 176h127c0 -47 27 -79 66 -79c40 0 66 32 66 79h127c0 -106 -77 -176 -193 -176zM463 545h163v-488c0 -173 -132 -287 -334 -287c-97 0 -183 23 -244 67l37 133c62 -41 131 -55 203 -55c101 0 168 57 168 143v5c-37 -46 -91 -73 -162 -73
c-144 0 -260 115 -260 285c0 169 116 280 260 280c74 0 129 -28 166 -77zM333 136c74 0 123 55 123 137s-49 137 -123 137s-123 -55 -123 -136c0 -83 49 -138 123 -138z" />
    <glyph glyph-name="gcommaaccent" unicode="&#x123;" horiz-adv-x="687" 
d="M447 780l-43 -187h-152l67 187h128zM463 545h163v-488c0 -173 -132 -287 -334 -287c-97 0 -183 23 -244 67l37 133c62 -41 131 -55 203 -55c101 0 168 57 168 143v5c-37 -46 -91 -73 -162 -73c-144 0 -260 115 -260 285c0 169 116 280 260 280c74 0 129 -28 166 -77z
M333 136c74 0 123 55 123 137s-49 137 -123 137s-123 -55 -123 -136c0 -83 49 -138 123 -138z" />
    <glyph glyph-name="gdotaccent" unicode="&#x121;" horiz-adv-x="687" 
d="M342 608c-57 0 -99 41 -99 98s42 98 99 98s98 -41 98 -98s-41 -98 -98 -98zM463 545h163v-488c0 -173 -132 -287 -334 -287c-97 0 -183 23 -244 67l37 133c62 -41 131 -55 203 -55c101 0 168 57 168 143v5c-37 -46 -91 -73 -162 -73c-144 0 -260 115 -260 285
c0 169 116 280 260 280c74 0 129 -28 166 -77zM333 136c74 0 123 55 123 137s-49 137 -123 137s-123 -55 -123 -136c0 -83 49 -138 123 -138z" />
    <glyph glyph-name="h" unicode="h" horiz-adv-x="665" 
d="M396 555c128 0 213 -85 213 -213v-342h-170v316c0 57 -41 94 -103 94c-63 0 -104 -37 -104 -94v-316h-170v780h170v-292c42 45 102 67 164 67z" />
    <glyph glyph-name="hbar" unicode="&#x127;" horiz-adv-x="665" 
d="M396 555c128 0 213 -85 213 -213v-342h-170v316c0 57 -41 94 -103 94c-63 0 -104 -37 -104 -94v-316h-170v594h-72v121h72v65h170v-65h154v-121h-154v-106c42 45 102 67 164 67z" />
    <glyph glyph-name="i" unicode="i" horiz-adv-x="295" 
d="M148 608c-57 0 -99 41 -99 98s42 98 99 98s98 -41 98 -98s-41 -98 -98 -98zM62 0v545h170v-545h-170z" />
    <glyph glyph-name="dotlessi" unicode="&#x131;" horiz-adv-x="295" 
d="M62 0v545h170v-545h-170z" />
    <glyph glyph-name="iacute" unicode="&#xed;" horiz-adv-x="295" 
d="M42 618l138 167h197l-191 -167h-144zM62 0v545h170v-545h-170z" />
    <glyph glyph-name="icircumflex" unicode="&#xee;" horiz-adv-x="295" 
d="M147 687l-56 -69h-156l132 167h160l131 -167h-155zM62 0v545h170v-545h-170z" />
    <glyph glyph-name="idieresis" unicode="&#xef;" horiz-adv-x="295" 
d="M15 608c-57 0 -99 41 -99 98s42 98 99 98s98 -41 98 -98s-41 -98 -98 -98zM282 608c-57 0 -99 41 -99 98s42 98 99 98s98 -41 98 -98s-41 -98 -98 -98zM62 0v545h170v-545h-170z" />
    <glyph glyph-name="igrave" unicode="&#xec;" horiz-adv-x="295" 
d="M109 618l-191 167h197l138 -167h-144zM62 0v545h170v-545h-170z" />
    <glyph glyph-name="imacron" unicode="&#x12b;" horiz-adv-x="295" 
d="M-42 612v133h379v-133h-379zM62 0v545h170v-545h-170z" />
    <glyph glyph-name="iogonek" unicode="&#x12f;" horiz-adv-x="295" 
d="M148 608c-57 0 -99 41 -99 98s42 98 99 98s98 -41 98 -98s-41 -98 -98 -98zM179 -135c16 0 30 6 42 14l14 -81c-25 -17 -53 -28 -99 -28c-66 0 -110 38 -110 94c0 49 31 93 84 136h-48v545h170v-545c-57 -36 -84 -72 -84 -107c0 -17 11 -28 31 -28z" />
    <glyph glyph-name="j" unicode="j" horiz-adv-x="299" 
d="M150 608c-57 0 -98 41 -98 98s41 98 98 98s98 -41 98 -98s-41 -98 -98 -98zM54 -230c-41 0 -83 6 -113 17l12 134c16 -4 30 -6 49 -6c38 0 65 29 65 73v557h170v-597c0 -107 -73 -178 -183 -178z" />
    <glyph glyph-name="k" unicode="k" horiz-adv-x="626" 
d="M425 0l-181 217h-12v-217h-170v780h170v-424h15l166 189h214l-240 -258l253 -287h-215z" />
    <glyph glyph-name="kcommaaccent" unicode="&#x137;" horiz-adv-x="626" 
d="M387 287l253 -287h-215l-181 217h-12v-217h-170v780h170v-424h15l166 189h214zM211 -220l38 168h152l-62 -168h-128z" />
    <glyph glyph-name="l" unicode="l" horiz-adv-x="295" 
d="M63 0v780h170v-780h-170z" />
    <glyph glyph-name="lacute" unicode="&#x13a;" horiz-adv-x="295" 
d="M43 853l138 167h197l-191 -167h-144zM63 0v780h170v-780h-170z" />
    <glyph glyph-name="lcaron" unicode="&#x13e;" horiz-adv-x="316" 
d="M63 0v780h170v-780h-170zM281 593l42 187h152l-66 -187h-128z" />
    <glyph glyph-name="lcommaaccent" unicode="&#x13c;" horiz-adv-x="295" 
d="M63 0v780h170v-780h-170zM30 -220l38 168h152l-62 -168h-128z" />
    <glyph glyph-name="lslash" unicode="&#x142;" horiz-adv-x="295" 
d="M312 551v-136l-79 -56v-359h-170v263l-77 -54v136l77 54v381h170v-285z" />
    <glyph glyph-name="m" unicode="m" horiz-adv-x="987" 
d="M707 555c133 0 223 -85 223 -213v-342h-170v316c0 57 -35 94 -89 94s-90 -37 -90 -94v-316h-170v316c0 57 -35 94 -89 94s-90 -37 -90 -94v-316h-170v545h164l2 -56c39 45 95 66 154 66c66 0 120 -26 155 -71c42 48 104 71 170 71z" />
    <glyph glyph-name="n" unicode="n" horiz-adv-x="665" 
d="M396 555c128 0 213 -85 213 -213v-342h-170v316c0 57 -41 94 -103 94c-63 0 -104 -37 -104 -94v-316h-170v545h164l2 -61c43 48 104 71 168 71z" />
    <glyph glyph-name="nacute" unicode="&#x144;" horiz-adv-x="665" 
d="M567 785l-191 -167h-144l138 167h197zM396 555c128 0 213 -85 213 -213v-342h-170v316c0 57 -41 94 -103 94c-63 0 -104 -37 -104 -94v-316h-170v545h164l2 -61c43 48 104 71 168 71z" />
    <glyph glyph-name="ncaron" unicode="&#x148;" horiz-adv-x="665" 
d="M257 618l-132 167h156l56 -69l56 69h155l-131 -167h-160zM396 555c128 0 213 -85 213 -213v-342h-170v316c0 57 -41 94 -103 94c-63 0 -104 -37 -104 -94v-316h-170v545h164l2 -61c43 48 104 71 168 71z" />
    <glyph glyph-name="ncommaaccent" unicode="&#x146;" horiz-adv-x="665" 
d="M396 555c128 0 213 -85 213 -213v-342h-170v316c0 57 -41 94 -103 94c-63 0 -104 -37 -104 -94v-316h-170v545h164l2 -61c43 48 104 71 168 71zM217 -220l38 168h152l-62 -168h-128z" />
    <glyph glyph-name="eng" unicode="&#x14b;" horiz-adv-x="665" 
d="M396 555c128 0 213 -85 213 -213v-394c0 -107 -73 -178 -182 -178c-42 0 -83 6 -113 17l12 132c16 -3 29 -4 48 -4c39 0 65 29 65 73v328c0 57 -41 94 -103 94c-63 0 -104 -37 -104 -94v-316h-170v545h164l2 -61c43 48 104 71 168 71z" />
    <glyph glyph-name="ntilde" unicode="&#xf1;" horiz-adv-x="665" 
d="M259 663c-22 0 -34 -15 -34 -39h-90c0 96 48 159 121 159c65 0 123 -48 161 -48c21 0 34 12 34 38h90c0 -102 -48 -159 -121 -159c-61 0 -124 49 -161 49zM396 555c128 0 213 -85 213 -213v-342h-170v316c0 57 -41 94 -103 94c-63 0 -104 -37 -104 -94v-316h-170v545h164
l2 -61c43 48 104 71 168 71z" />
    <glyph glyph-name="o" unicode="o" horiz-adv-x="663" 
d="M333 -10c-180 0 -300 113 -300 283c0 169 120 282 300 282c177 0 297 -113 297 -282c0 -170 -120 -283 -297 -283zM332 136c73 0 122 55 122 137s-49 137 -122 137c-74 0 -123 -55 -123 -137s49 -137 123 -137z" />
    <glyph glyph-name="oacute" unicode="&#xf3;" horiz-adv-x="663" 
d="M227 618l138 167h197l-191 -167h-144zM333 -10c-180 0 -300 113 -300 283c0 169 120 282 300 282c177 0 297 -113 297 -282c0 -170 -120 -283 -297 -283zM332 136c73 0 122 55 122 137s-49 137 -122 137c-74 0 -123 -55 -123 -137s49 -137 123 -137z" />
    <glyph glyph-name="ocircumflex" unicode="&#xf4;" horiz-adv-x="663" 
d="M332 687l-56 -69h-156l132 167h160l131 -167h-155zM333 555c177 0 297 -113 297 -282c0 -170 -120 -283 -297 -283c-180 0 -300 113 -300 283c0 169 120 282 300 282zM332 136c73 0 122 55 122 137s-49 137 -122 137c-74 0 -123 -55 -123 -137s49 -137 123 -137z" />
    <glyph glyph-name="odieresis" unicode="&#xf6;" horiz-adv-x="663" 
d="M200 608c-57 0 -99 41 -99 98s42 98 99 98s98 -41 98 -98s-41 -98 -98 -98zM467 608c-57 0 -99 41 -99 98s42 98 99 98s98 -41 98 -98s-41 -98 -98 -98zM333 -10c-180 0 -300 113 -300 283c0 169 120 282 300 282c177 0 297 -113 297 -282c0 -170 -120 -283 -297 -283z
M332 136c73 0 122 55 122 137s-49 137 -122 137c-74 0 -123 -55 -123 -137s49 -137 123 -137z" />
    <glyph glyph-name="ograve" unicode="&#xf2;" horiz-adv-x="663" 
d="M294 618l-191 167h197l138 -167h-144zM333 -10c-180 0 -300 113 -300 283c0 169 120 282 300 282c177 0 297 -113 297 -282c0 -170 -120 -283 -297 -283zM332 136c73 0 122 55 122 137s-49 137 -122 137c-74 0 -123 -55 -123 -137s49 -137 123 -137z" />
    <glyph glyph-name="ohungarumlaut" unicode="&#x151;" horiz-adv-x="663" 
d="M142 618l106 167h196l-158 -167h-144zM365 618l106 167h196l-159 -167h-143zM333 -10c-180 0 -300 113 -300 283c0 169 120 282 300 282c177 0 297 -113 297 -282c0 -170 -120 -283 -297 -283zM332 136c73 0 122 55 122 137s-49 137 -122 137c-74 0 -123 -55 -123 -137
s49 -137 123 -137z" />
    <glyph glyph-name="omacron" unicode="&#x14d;" horiz-adv-x="663" 
d="M143 612v133h379v-133h-379zM333 -10c-180 0 -300 113 -300 283c0 169 120 282 300 282c177 0 297 -113 297 -282c0 -170 -120 -283 -297 -283zM332 136c73 0 122 55 122 137s-49 137 -122 137c-74 0 -123 -55 -123 -137s49 -137 123 -137z" />
    <glyph glyph-name="oslash" unicode="&#xf8;" horiz-adv-x="664" 
d="M551 474c50 -49 79 -118 79 -201c0 -170 -120 -283 -297 -283c-62 0 -118 14 -163 38l-33 -38l-58 43l33 38c-50 50 -79 119 -79 202c0 169 120 282 300 282c61 0 116 -14 161 -38l33 38l58 -42zM209 273c0 -27 5 -51 15 -71l166 194c-16 9 -36 14 -58 14
c-74 0 -123 -55 -123 -137zM332 136c73 0 122 55 122 137c0 27 -5 50 -15 70l-165 -193c17 -9 36 -14 58 -14z" />
    <glyph glyph-name="otilde" unicode="&#xf5;" horiz-adv-x="663" 
d="M415 614c-61 0 -124 49 -161 49c-22 0 -34 -15 -34 -39h-90c0 96 48 159 121 159c65 0 123 -48 161 -48c21 0 34 12 34 38h90c0 -102 -48 -159 -121 -159zM333 -10c-180 0 -300 113 -300 283c0 169 120 282 300 282c177 0 297 -113 297 -282c0 -170 -120 -283 -297 -283z
M332 136c73 0 122 55 122 137s-49 137 -122 137c-74 0 -123 -55 -123 -137s49 -137 123 -137z" />
    <glyph glyph-name="oe" unicode="&#x153;" horiz-adv-x="1044" 
d="M1013 281c0 -23 -1 -49 -4 -68h-374c10 -56 40 -90 105 -90c47 0 84 19 110 50l132 -64c-44 -71 -126 -119 -227 -119c-93 0 -168 38 -214 103c-48 -65 -125 -103 -220 -103c-172 0 -287 113 -287 283c0 169 115 282 287 282c96 0 173 -39 221 -104
c44 65 116 104 204 104c160 0 267 -109 267 -274zM734 422c-56 0 -87 -34 -98 -95h199c-11 62 -44 95 -101 95zM333 136c73 0 122 55 122 137s-49 137 -122 137c-74 0 -123 -55 -123 -137s49 -137 123 -137z" />
    <glyph glyph-name="p" unicode="p" horiz-adv-x="688" 
d="M394 555c144 0 260 -111 260 -280c0 -170 -116 -285 -260 -285c-71 0 -125 27 -162 74v-284h-170v765h164l3 -67c37 49 92 77 165 77zM356 136c73 0 123 55 123 138c0 81 -50 136 -123 136c-74 0 -124 -55 -124 -137s50 -137 124 -137z" />
    <glyph glyph-name="thorn" unicode="&#xfe;" horiz-adv-x="688" 
d="M394 555c144 0 260 -111 260 -280c0 -170 -116 -285 -260 -285c-71 0 -125 27 -162 74v-284h-170v1000h170v-298c37 46 91 73 162 73zM356 136c73 0 123 55 123 138c0 81 -50 136 -123 136c-74 0 -124 -55 -124 -137s50 -137 124 -137z" />
    <glyph glyph-name="q" unicode="q" horiz-adv-x="687" 
d="M462 545h163v-765h-170v283c-37 -46 -91 -73 -162 -73c-144 0 -260 115 -260 285c0 169 116 280 260 280c74 0 129 -28 166 -77zM332 136c74 0 123 55 123 137s-49 137 -123 137s-123 -55 -123 -136c0 -83 49 -138 123 -138z" />
    <glyph glyph-name="r" unicode="r" horiz-adv-x="428" 
d="M229 479c43 48 110 76 191 76l-11 -156c-104 0 -177 -48 -177 -119v-280h-170v545h164z" />
    <glyph glyph-name="racute" unicode="&#x155;" horiz-adv-x="428" 
d="M461 785l-191 -167h-144l138 167h197zM229 479c43 48 110 76 191 76l-11 -156c-104 0 -177 -48 -177 -119v-280h-170v545h164z" />
    <glyph glyph-name="rcaron" unicode="&#x159;" horiz-adv-x="428" 
d="M151 618l-132 167h156l56 -69l56 69h155l-131 -167h-160zM229 479c43 48 110 76 191 76l-11 -156c-104 0 -177 -48 -177 -119v-280h-170v545h164z" />
    <glyph glyph-name="rcommaaccent" unicode="&#x157;" horiz-adv-x="428" 
d="M229 479c43 48 110 76 191 76l-11 -156c-104 0 -177 -48 -177 -119v-280h-170v545h164zM71 -220l38 168h152l-62 -168h-128z" />
    <glyph glyph-name="s" unicode="s" horiz-adv-x="532" 
d="M256 -10c-86 0 -162 22 -217 68l64 103c54 -29 104 -39 156 -39c36 0 62 12 62 35c0 24 -33 36 -82 49l-39 10c-95 23 -160 59 -160 148c0 115 90 191 226 191c87 0 161 -19 216 -57l-71 -110c-43 23 -87 34 -134 34c-38 0 -64 -11 -64 -31c0 -22 30 -33 71 -44l38 -10
c99 -25 172 -69 172 -168c0 -108 -96 -179 -238 -179z" />
    <glyph glyph-name="sacute" unicode="&#x15b;" horiz-adv-x="532" 
d="M161 618l138 167h197l-191 -167h-144zM256 -10c-86 0 -162 22 -217 68l64 103c54 -29 104 -39 156 -39c36 0 62 12 62 35c0 24 -33 36 -82 49l-39 10c-95 23 -160 59 -160 148c0 115 90 191 226 191c87 0 161 -19 216 -57l-71 -110c-43 23 -87 34 -134 34
c-38 0 -64 -11 -64 -31c0 -22 30 -33 71 -44l38 -10c99 -25 172 -69 172 -168c0 -108 -96 -179 -238 -179z" />
    <glyph glyph-name="scaron" unicode="&#x161;" horiz-adv-x="532" 
d="M186 618l-132 167h156l56 -69l56 69h155l-131 -167h-160zM322 337c99 -25 172 -69 172 -168c0 -108 -96 -179 -238 -179c-86 0 -162 22 -217 68l64 103c54 -29 104 -39 156 -39c36 0 62 12 62 35c0 24 -33 36 -82 49l-39 10c-95 23 -160 59 -160 148
c0 115 90 191 226 191c87 0 161 -19 216 -57l-71 -110c-43 23 -87 34 -134 34c-38 0 -64 -11 -64 -31c0 -22 30 -33 71 -44z" />
    <glyph glyph-name="scedilla" unicode="&#x15f;" horiz-adv-x="532" 
d="M494 169c0 -93 -71 -158 -181 -175l-26 -43c58 -5 95 -39 95 -86c0 -56 -52 -95 -136 -95c-40 0 -80 10 -102 23l29 60c13 -9 33 -16 55 -16c28 0 44 12 44 27s-15 23 -38 23c-12 0 -23 -3 -32 -7l-21 37l39 74c-71 6 -134 28 -181 67l64 103c54 -29 104 -39 156 -39
c36 0 62 12 62 35c0 24 -33 36 -82 49l-39 10c-95 23 -160 59 -160 148c0 115 90 191 226 191c87 0 161 -19 216 -57l-71 -110c-43 23 -87 34 -134 34c-38 0 -64 -11 -64 -31c0 -22 30 -33 71 -44l38 -10c99 -25 172 -69 172 -168z" />
    <glyph glyph-name="scommaaccent" unicode="&#x219;" horiz-adv-x="532" 
d="M256 -10c-86 0 -162 22 -217 68l64 103c54 -29 104 -39 156 -39c36 0 62 12 62 35c0 24 -33 36 -82 49l-39 10c-95 23 -160 59 -160 148c0 115 90 191 226 191c87 0 161 -19 216 -57l-71 -110c-43 23 -87 34 -134 34c-38 0 -64 -11 -64 -31c0 -22 30 -33 71 -44l38 -10
c99 -25 172 -69 172 -168c0 -108 -96 -179 -238 -179zM149 -220l38 168h152l-62 -168h-128z" />
    <glyph glyph-name="germandbls" unicode="&#xdf;" horiz-adv-x="639" 
d="M474 422c83 -38 132 -106 132 -193c0 -143 -100 -239 -250 -239c-30 0 -66 4 -87 11l16 140c12 -4 26 -5 40 -5c63 0 105 42 105 106c0 65 -47 109 -118 109v133c48 0 79 33 79 82c0 47 -31 79 -79 79s-80 -30 -80 -77v-568h-170v585c0 123 100 205 250 205
c153 0 255 -82 255 -205c0 -70 -34 -128 -93 -163z" />
    <glyph glyph-name="t" unicode="t" horiz-adv-x="454" 
d="M339 136c29 0 58 5 87 17v-136c-43 -19 -95 -27 -142 -27c-106 0 -178 73 -178 182v234h-87v139h87v160h170v-160h142v-139h-142v-198c0 -43 26 -72 63 -72z" />
    <glyph glyph-name="tbar" unicode="&#x167;" horiz-adv-x="458" 
d="M339 136c29 0 58 5 87 17v-136c-43 -19 -95 -27 -142 -27c-106 0 -178 73 -178 182v46h-81v120h81v68h-87v139h87v160h170v-160h142v-139h-142v-68h135v-120h-135v-10c0 -43 26 -72 63 -72z" />
    <glyph glyph-name="tcaron" unicode="&#x165;" horiz-adv-x="454" 
d="M372 780h152l-66 -187h-128zM276 208c0 -43 26 -72 63 -72c29 0 58 5 87 17v-136c-43 -19 -95 -27 -142 -27c-106 0 -178 73 -178 182v234h-87v139h87v160h170v-160h142v-139h-142v-198z" />
    <glyph glyph-name="uni0163" unicode="&#x163;" horiz-adv-x="454" 
d="M284 -10c-9 0 -18 1 -26 2l-25 -41c59 -5 96 -39 96 -86c0 -56 -53 -95 -137 -95c-40 0 -80 10 -102 23l29 60c13 -9 33 -16 55 -16c28 0 44 12 44 27s-15 23 -38 23c-12 0 -23 -3 -32 -7l-21 37l52 103c-46 31 -73 85 -73 152v234h-87v139h87v160h170v-160h142v-139
h-142v-198c0 -43 26 -72 63 -72c29 0 58 5 87 17v-136c-43 -19 -95 -27 -142 -27z" />
    <glyph glyph-name="uni021B" unicode="&#x21b;" horiz-adv-x="454" 
d="M339 136c29 0 58 5 87 17v-136c-43 -19 -95 -27 -142 -27c-106 0 -178 73 -178 182v234h-87v139h87v160h170v-160h142v-139h-142v-198c0 -43 26 -72 63 -72zM129 -220l38 168h152l-62 -168h-128z" />
    <glyph glyph-name="u" unicode="u" horiz-adv-x="641" 
d="M409 545h170v-545h-163l-3 57c-40 -45 -97 -67 -155 -67c-121 0 -202 85 -202 214v341h170v-316c0 -56 36 -93 92 -93c55 0 91 37 91 93v316z" />
    <glyph glyph-name="uacute" unicode="&#xfa;" horiz-adv-x="641" 
d="M547 785l-191 -167h-144l138 167h197zM409 545h170v-545h-163l-3 57c-40 -45 -97 -67 -155 -67c-121 0 -202 85 -202 214v341h170v-316c0 -56 36 -93 92 -93c55 0 91 37 91 93v316z" />
    <glyph glyph-name="ucircumflex" unicode="&#xfb;" horiz-adv-x="641" 
d="M317 687l-56 -69h-156l132 167h160l131 -167h-155zM409 545h170v-545h-163l-3 57c-40 -45 -97 -67 -155 -67c-121 0 -202 85 -202 214v341h170v-316c0 -56 36 -93 92 -93c55 0 91 37 91 93v316z" />
    <glyph glyph-name="udieresis" unicode="&#xfc;" horiz-adv-x="641" 
d="M185 608c-57 0 -99 41 -99 98s42 98 99 98s98 -41 98 -98s-41 -98 -98 -98zM452 608c-57 0 -99 41 -99 98s42 98 99 98s98 -41 98 -98s-41 -98 -98 -98zM409 545h170v-545h-163l-3 57c-40 -45 -97 -67 -155 -67c-121 0 -202 85 -202 214v341h170v-316
c0 -56 36 -93 92 -93c55 0 91 37 91 93v316z" />
    <glyph glyph-name="ugrave" unicode="&#xf9;" horiz-adv-x="641" 
d="M423 618h-144l-191 167h197zM409 545h170v-545h-163l-3 57c-40 -45 -97 -67 -155 -67c-121 0 -202 85 -202 214v341h170v-316c0 -56 36 -93 92 -93c55 0 91 37 91 93v316z" />
    <glyph glyph-name="uhungarumlaut" unicode="&#x171;" horiz-adv-x="641" 
d="M429 785l-158 -167h-144l106 167h196zM493 618h-143l106 167h196zM409 229v316h170v-545h-163l-3 57c-40 -45 -97 -67 -155 -67c-121 0 -202 85 -202 214v341h170v-316c0 -56 36 -93 92 -93c55 0 91 37 91 93z" />
    <glyph glyph-name="umacron" unicode="&#x16b;" horiz-adv-x="641" 
d="M507 745v-133h-379v133h379zM409 545h170v-545h-163l-3 57c-40 -45 -97 -67 -155 -67c-121 0 -202 85 -202 214v341h170v-316c0 -56 36 -93 92 -93c55 0 91 37 91 93v316z" />
    <glyph glyph-name="uogonek" unicode="&#x173;" horiz-adv-x="641" 
d="M568 -121l14 -81c-25 -17 -53 -28 -99 -28c-66 0 -110 38 -110 94c0 49 31 93 84 136h-41l-3 57c-40 -45 -97 -67 -155 -67c-121 0 -202 85 -202 214v341h170v-316c0 -56 36 -93 92 -93c55 0 91 37 91 93v316h170v-545c-57 -36 -84 -72 -84 -107c0 -17 11 -28 31 -28
c16 0 30 6 42 14z" />
    <glyph glyph-name="uring" unicode="&#x16f;" horiz-adv-x="641" 
d="M318 584c-73 0 -122 44 -122 110c0 65 49 109 122 109s121 -44 121 -109c0 -66 -48 -110 -121 -110zM318 728c-21 0 -35 -14 -35 -34c0 -21 14 -35 35 -35c20 0 34 14 34 35c0 20 -14 34 -34 34zM409 545h170v-545h-163l-3 57c-40 -45 -97 -67 -155 -67
c-121 0 -202 85 -202 214v341h170v-316c0 -56 36 -93 92 -93c55 0 91 37 91 93v316z" />
    <glyph glyph-name="v" unicode="v" horiz-adv-x="622" 
d="M227 0l-224 545h185l123 -352l122 352h186l-223 -545h-169z" />
    <glyph glyph-name="w" unicode="w" horiz-adv-x="924" 
d="M733 545h186l-194 -545h-169l-94 320l-94 -320h-169l-194 545h185l105 -352l98 352h138l97 -352z" />
    <glyph glyph-name="wacute" unicode="&#x1e83;" horiz-adv-x="924" 
d="M691 785l-191 -167h-144l138 167h197zM733 545h186l-194 -545h-169l-94 320l-94 -320h-169l-194 545h185l105 -352l98 352h138l97 -352z" />
    <glyph glyph-name="wcircumflex" unicode="&#x175;" horiz-adv-x="924" 
d="M461 687l-56 -69h-156l132 167h160l131 -167h-155zM733 545h186l-194 -545h-169l-94 320l-94 -320h-169l-194 545h185l105 -352l98 352h138l97 -352z" />
    <glyph glyph-name="wdieresis" unicode="&#x1e85;" horiz-adv-x="924" 
d="M329 608c-57 0 -99 41 -99 98s42 98 99 98s98 -41 98 -98s-41 -98 -98 -98zM596 608c-57 0 -99 41 -99 98s42 98 99 98s98 -41 98 -98s-41 -98 -98 -98zM733 545h186l-194 -545h-169l-94 320l-94 -320h-169l-194 545h185l105 -352l98 352h138l97 -352z" />
    <glyph glyph-name="wgrave" unicode="&#x1e81;" horiz-adv-x="924" 
d="M567 618h-144l-191 167h197zM733 545h186l-194 -545h-169l-94 320l-94 -320h-169l-194 545h185l105 -352l98 352h138l97 -352z" />
    <glyph glyph-name="x" unicode="x" horiz-adv-x="604" 
d="M605 0h-202l-100 150l-101 -150h-202l202 279l-190 266h203l87 -133l88 133h202l-189 -265z" />
    <glyph glyph-name="y" unicode="y" horiz-adv-x="621" 
d="M162 -230c-34 0 -67 6 -89 17l17 137c12 -6 27 -9 44 -9c42 0 60 27 81 66l16 34l-227 530h186l128 -347l117 347h185l-239 -585c-48 -118 -101 -190 -219 -190z" />
    <glyph glyph-name="yacute" unicode="&#xfd;" horiz-adv-x="621" 
d="M209 618l138 167h197l-191 -167h-144zM162 -230c-34 0 -67 6 -89 17l17 137c12 -6 27 -9 44 -9c42 0 60 27 81 66l16 34l-227 530h186l128 -347l117 347h185l-239 -585c-48 -118 -101 -190 -219 -190z" />
    <glyph glyph-name="ycircumflex" unicode="&#x177;" horiz-adv-x="621" 
d="M314 687l-56 -69h-156l132 167h160l131 -167h-155zM435 545h185l-239 -585c-48 -118 -101 -190 -219 -190c-34 0 -67 6 -89 17l17 137c12 -6 27 -9 44 -9c42 0 60 27 81 66l16 34l-227 530h186l128 -347z" />
    <glyph glyph-name="ydieresis" unicode="&#xff;" horiz-adv-x="621" 
d="M182 608c-57 0 -99 41 -99 98s42 98 99 98s98 -41 98 -98s-41 -98 -98 -98zM449 608c-57 0 -99 41 -99 98s42 98 99 98s98 -41 98 -98s-41 -98 -98 -98zM162 -230c-34 0 -67 6 -89 17l17 137c12 -6 27 -9 44 -9c42 0 60 27 81 66l16 34l-227 530h186l128 -347l117 347
h185l-239 -585c-48 -118 -101 -190 -219 -190z" />
    <glyph glyph-name="ygrave" unicode="&#x1ef3;" horiz-adv-x="621" 
d="M276 618l-191 167h197l138 -167h-144zM162 -230c-34 0 -67 6 -89 17l17 137c12 -6 27 -9 44 -9c42 0 60 27 81 66l16 34l-227 530h186l128 -347l117 347h185l-239 -585c-48 -118 -101 -190 -219 -190z" />
    <glyph glyph-name="z" unicode="z" horiz-adv-x="565" 
d="M39 0v109l238 297h-233v139h474l1 -108l-238 -297h247v-140h-489z" />
    <glyph glyph-name="zacute" unicode="&#x17a;" horiz-adv-x="565" 
d="M175 618l138 167h197l-191 -167h-144zM39 0v109l238 297h-233v139h474l1 -108l-238 -297h247v-140h-489z" />
    <glyph glyph-name="zcaron" unicode="&#x17e;" horiz-adv-x="565" 
d="M200 618l-132 167h156l56 -69l56 69h155l-131 -167h-160zM281 140h247v-140h-489v109l238 297h-233v139h474l1 -108z" />
    <glyph glyph-name="zdotaccent" unicode="&#x17c;" horiz-adv-x="565" 
d="M281 608c-57 0 -99 41 -99 98s42 98 99 98s98 -41 98 -98s-41 -98 -98 -98zM39 0v109l238 297h-233v139h474l1 -108l-238 -297h247v-140h-489z" />
    <glyph glyph-name="i.loclTRK" horiz-adv-x="295" 
d="M148 608c-57 0 -99 41 -99 98s42 98 99 98s98 -41 98 -98s-41 -98 -98 -98zM62 0v545h170v-545h-170z" />
    <glyph glyph-name="a.ss01" horiz-adv-x="687" 
d="M462 545h163v-545h-163l-3 67c-37 -49 -92 -77 -166 -77c-144 0 -260 111 -260 280c0 170 116 285 260 285c74 0 129 -28 166 -78zM332 136c74 0 123 54 123 137c0 81 -49 137 -123 137s-123 -56 -123 -138c0 -81 49 -136 123 -136z" />
    <glyph glyph-name="aacute.ss01" horiz-adv-x="687" 
d="M569 785l-191 -167h-144l138 167h197zM462 545h163v-545h-163l-3 67c-37 -49 -92 -77 -166 -77c-144 0 -260 111 -260 280c0 170 116 285 260 285c74 0 129 -28 166 -78zM332 136c74 0 123 54 123 137c0 81 -49 137 -123 137s-123 -56 -123 -138c0 -81 49 -136 123 -136z
" />
    <glyph glyph-name="abreve.ss01" horiz-adv-x="687" 
d="M340 609c-116 0 -193 70 -193 176h127c0 -47 27 -79 66 -79c40 0 66 32 66 79h127c0 -106 -77 -176 -193 -176zM462 545h163v-545h-163l-3 67c-37 -49 -92 -77 -166 -77c-144 0 -260 111 -260 280c0 170 116 285 260 285c74 0 129 -28 166 -78zM332 136
c74 0 123 54 123 137c0 81 -49 137 -123 137s-123 -56 -123 -138c0 -81 49 -136 123 -136z" />
    <glyph glyph-name="acircumflex.ss01" horiz-adv-x="687" 
d="M339 687l-56 -69h-156l132 167h160l131 -167h-155zM462 545h163v-545h-163l-3 67c-37 -49 -92 -77 -166 -77c-144 0 -260 111 -260 280c0 170 116 285 260 285c74 0 129 -28 166 -78zM332 136c74 0 123 54 123 137c0 81 -49 137 -123 137s-123 -56 -123 -138
c0 -81 49 -136 123 -136z" />
    <glyph glyph-name="adieresis.ss01" horiz-adv-x="687" 
d="M207 608c-57 0 -99 41 -99 98s42 98 99 98s98 -41 98 -98s-41 -98 -98 -98zM474 608c-57 0 -99 41 -99 98s42 98 99 98s98 -41 98 -98s-41 -98 -98 -98zM462 545h163v-545h-163l-3 67c-37 -49 -92 -77 -166 -77c-144 0 -260 111 -260 280c0 170 116 285 260 285
c74 0 129 -28 166 -78zM332 136c74 0 123 54 123 137c0 81 -49 137 -123 137s-123 -56 -123 -138c0 -81 49 -136 123 -136z" />
    <glyph glyph-name="agrave.ss01" horiz-adv-x="687" 
d="M445 618h-144l-191 167h197zM462 545h163v-545h-163l-3 67c-37 -49 -92 -77 -166 -77c-144 0 -260 111 -260 280c0 170 116 285 260 285c74 0 129 -28 166 -78zM332 136c74 0 123 54 123 137c0 81 -49 137 -123 137s-123 -56 -123 -138c0 -81 49 -136 123 -136z" />
    <glyph glyph-name="amacron.ss01" horiz-adv-x="687" 
d="M529 745v-133h-379v133h379zM462 545h163v-545h-163l-3 67c-37 -49 -92 -77 -166 -77c-144 0 -260 111 -260 280c0 170 116 285 260 285c74 0 129 -28 166 -78zM332 136c74 0 123 54 123 137c0 81 -49 137 -123 137s-123 -56 -123 -138c0 -81 49 -136 123 -136z" />
    <glyph glyph-name="aogonek.ss01" horiz-adv-x="687" 
d="M614 -121l14 -81c-25 -17 -53 -28 -99 -28c-66 0 -110 38 -110 94c0 49 31 93 84 136h-41l-3 67c-37 -49 -92 -77 -166 -77c-144 0 -260 111 -260 280c0 170 116 285 260 285c74 0 129 -28 166 -78l3 68h163v-545c-57 -36 -84 -72 -84 -107c0 -17 11 -28 31 -28
c16 0 30 6 42 14zM332 136c74 0 123 54 123 137c0 81 -49 137 -123 137s-123 -56 -123 -138c0 -81 49 -136 123 -136z" />
    <glyph glyph-name="aring.ss01" horiz-adv-x="687" 
d="M340 584c-73 0 -122 44 -122 110c0 65 49 109 122 109s121 -44 121 -109c0 -66 -48 -110 -121 -110zM340 728c-21 0 -35 -14 -35 -34c0 -21 14 -35 35 -35c20 0 34 14 34 35c0 20 -14 34 -34 34zM462 545h163v-545h-163l-3 67c-37 -49 -92 -77 -166 -77
c-144 0 -260 111 -260 280c0 170 116 285 260 285c74 0 129 -28 166 -78zM332 136c74 0 123 54 123 137c0 81 -49 137 -123 137s-123 -56 -123 -138c0 -81 49 -136 123 -136z" />
    <glyph glyph-name="atilde.ss01" horiz-adv-x="687" 
d="M261 663c-22 0 -34 -15 -34 -39h-90c0 96 48 159 121 159c65 0 123 -48 161 -48c21 0 34 12 34 38h90c0 -102 -48 -159 -121 -159c-61 0 -124 49 -161 49zM462 545h163v-545h-163l-3 67c-37 -49 -92 -77 -166 -77c-144 0 -260 111 -260 280c0 170 116 285 260 285
c74 0 129 -28 166 -78zM332 136c74 0 123 54 123 137c0 81 -49 137 -123 137s-123 -56 -123 -138c0 -81 49 -136 123 -136z" />
    <glyph glyph-name="f.ss01" horiz-adv-x="373" 
d="M303 645c-42 0 -71 -25 -71 -62v-38h123v-139h-123v-406h-170v609c0 109 74 181 185 181c45 0 92 -7 125 -22l-11 -132c-19 7 -36 9 -58 9z" />
    <glyph glyph-name="j.ss01" horiz-adv-x="295" 
d="M147 608c-57 0 -98 41 -98 98s41 98 98 98s98 -41 98 -98s-41 -98 -98 -98zM62 -220v765h170v-765h-170z" />
    <glyph glyph-name="t.ss01" horiz-adv-x="405" 
d="M290 136c29 0 58 5 87 17v-136c-43 -19 -95 -27 -142 -27c-106 0 -178 73 -178 182v533h170v-160h142v-139h-142v-198c0 -43 26 -72 63 -72z" />
    <glyph glyph-name="tbar.ss01" horiz-adv-x="405" 
d="M290 136c29 0 58 5 87 17v-136c-43 -19 -95 -27 -142 -27c-106 0 -178 73 -178 182v533h170v-160h142v-139h-142v-68h131v-120h-131v-10c0 -43 26 -72 63 -72z" />
    <glyph glyph-name="tcaron.ss01" horiz-adv-x="405" 
d="M323 780h152l-66 -187h-128zM227 208c0 -43 26 -72 63 -72c29 0 58 5 87 17v-136c-43 -19 -95 -27 -142 -27c-106 0 -178 73 -178 182v533h170v-160h142v-139h-142v-198z" />
    <glyph glyph-name="uni0163.ss01" horiz-adv-x="405" 
d="M235 -10c-9 0 -18 1 -26 2l-25 -41c59 -5 96 -39 96 -86c0 -56 -53 -95 -137 -95c-40 0 -80 10 -102 23l29 60c13 -9 33 -16 55 -16c28 0 44 12 44 27s-15 23 -38 23c-12 0 -23 -3 -32 -7l-21 37l52 103c-46 31 -73 85 -73 152v533h170v-160h142v-139h-142v-198
c0 -43 26 -72 63 -72c29 0 58 5 87 17v-136c-43 -19 -95 -27 -142 -27z" />
    <glyph glyph-name="uni021B.ss01" horiz-adv-x="405" 
d="M290 136c29 0 58 5 87 17v-136c-43 -19 -95 -27 -142 -27c-106 0 -178 73 -178 182v533h170v-160h142v-139h-142v-198c0 -43 26 -72 63 -72zM89 -220l38 168h152l-62 -168h-128z" />
    <glyph glyph-name="u.ss01" horiz-adv-x="634" 
d="M317 -10c-157 0 -262 93 -262 232v323h170v-316c0 -56 37 -93 92 -93s92 37 92 93v316h170v-323c0 -139 -105 -232 -262 -232z" />
    <glyph glyph-name="uacute.ss01" horiz-adv-x="634" 
d="M211 618l138 167h197l-191 -167h-144zM317 -10c-157 0 -262 93 -262 232v323h170v-316c0 -56 37 -93 92 -93s92 37 92 93v316h170v-323c0 -139 -105 -232 -262 -232z" />
    <glyph glyph-name="ucircumflex.ss01" horiz-adv-x="634" 
d="M316 687l-56 -69h-156l132 167h160l131 -167h-155zM409 545h170v-323c0 -139 -105 -232 -262 -232s-262 93 -262 232v323h170v-316c0 -56 37 -93 92 -93s92 37 92 93v316z" />
    <glyph glyph-name="udieresis.ss01" horiz-adv-x="634" 
d="M184 608c-57 0 -99 41 -99 98s42 98 99 98s98 -41 98 -98s-41 -98 -98 -98zM451 608c-57 0 -99 41 -99 98s42 98 99 98s98 -41 98 -98s-41 -98 -98 -98zM317 -10c-157 0 -262 93 -262 232v323h170v-316c0 -56 37 -93 92 -93s92 37 92 93v316h170v-323
c0 -139 -105 -232 -262 -232z" />
    <glyph glyph-name="ugrave.ss01" horiz-adv-x="634" 
d="M278 618l-191 167h197l138 -167h-144zM317 -10c-157 0 -262 93 -262 232v323h170v-316c0 -56 37 -93 92 -93s92 37 92 93v316h170v-323c0 -139 -105 -232 -262 -232z" />
    <glyph glyph-name="uhungarumlaut.ss01" horiz-adv-x="634" 
d="M126 618l106 167h196l-158 -167h-144zM349 618l106 167h196l-159 -167h-143zM317 -10c-157 0 -262 93 -262 232v323h170v-316c0 -56 37 -93 92 -93s92 37 92 93v316h170v-323c0 -139 -105 -232 -262 -232z" />
    <glyph glyph-name="umacron.ss01" horiz-adv-x="634" 
d="M127 612v133h379v-133h-379zM317 -10c-157 0 -262 93 -262 232v323h170v-316c0 -56 37 -93 92 -93s92 37 92 93v316h170v-323c0 -139 -105 -232 -262 -232z" />
    <glyph glyph-name="uogonek.ss01" horiz-adv-x="634" 
d="M409 545h170v-323c0 -113 -69 -195 -178 -222c-57 -36 -84 -72 -84 -107c0 -17 11 -28 31 -28c16 0 30 6 42 14l14 -81c-25 -17 -53 -28 -99 -28c-66 0 -110 38 -110 94c0 46 27 89 75 129c-131 17 -215 104 -215 229v323h170v-316c0 -56 37 -93 92 -93s92 37 92 93v316z
" />
    <glyph glyph-name="uring.ss01" horiz-adv-x="634" 
d="M317 584c-73 0 -122 44 -122 110c0 65 49 109 122 109s121 -44 121 -109c0 -66 -48 -110 -121 -110zM317 659c20 0 34 14 34 35c0 20 -14 34 -34 34c-21 0 -35 -14 -35 -34c0 -21 14 -35 35 -35zM317 -10c-157 0 -262 93 -262 232v323h170v-316c0 -56 37 -93 92 -93
s92 37 92 93v316h170v-323c0 -139 -105 -232 -262 -232z" />
    <glyph glyph-name="y.ss01" horiz-adv-x="641" 
d="M409 545h170v-488c0 -173 -124 -287 -312 -287c-86 0 -162 23 -216 67l37 133c55 -41 112 -55 175 -55c85 0 143 55 146 137c-40 -42 -95 -62 -151 -62c-121 0 -202 85 -202 214v341h170v-316c0 -56 36 -93 92 -93c55 0 91 37 91 93v316z" />
    <glyph glyph-name="yacute.ss01" horiz-adv-x="641" 
d="M542 785l-191 -167h-144l138 167h197zM409 545h170v-488c0 -173 -124 -287 -312 -287c-86 0 -162 23 -216 67l37 133c55 -41 112 -55 175 -55c85 0 143 55 146 137c-40 -42 -95 -62 -151 -62c-121 0 -202 85 -202 214v341h170v-316c0 -56 36 -93 92 -93c55 0 91 37 91 93
v316z" />
    <glyph glyph-name="ycircumflex.ss01" horiz-adv-x="641" 
d="M312 687l-56 -69h-156l132 167h160l131 -167h-155zM409 545h170v-488c0 -173 -124 -287 -312 -287c-86 0 -162 23 -216 67l37 133c55 -41 112 -55 175 -55c85 0 143 55 146 137c-40 -42 -95 -62 -151 -62c-121 0 -202 85 -202 214v341h170v-316c0 -56 36 -93 92 -93
c55 0 91 37 91 93v316z" />
    <glyph glyph-name="ydieresis.ss01" horiz-adv-x="641" 
d="M180 608c-57 0 -99 41 -99 98s42 98 99 98s98 -41 98 -98s-41 -98 -98 -98zM447 608c-57 0 -99 41 -99 98s42 98 99 98s98 -41 98 -98s-41 -98 -98 -98zM409 545h170v-488c0 -173 -124 -287 -312 -287c-86 0 -162 23 -216 67l37 133c55 -41 112 -55 175 -55
c85 0 143 55 146 137c-40 -42 -95 -62 -151 -62c-121 0 -202 85 -202 214v341h170v-316c0 -56 36 -93 92 -93c55 0 91 37 91 93v316z" />
    <glyph glyph-name="ygrave.ss01" horiz-adv-x="641" 
d="M418 618h-144l-191 167h197zM409 545h170v-488c0 -173 -124 -287 -312 -287c-86 0 -162 23 -216 67l37 133c55 -41 112 -55 175 -55c85 0 143 55 146 137c-40 -42 -95 -62 -151 -62c-121 0 -202 85 -202 214v341h170v-316c0 -56 36 -93 92 -93c55 0 91 37 91 93v316z" />
    <glyph glyph-name="a.ss02" horiz-adv-x="598" 
d="M63 545h473v-545h-164l-2 62c-36 -47 -91 -72 -148 -72c-116 0 -193 70 -193 175c0 107 94 178 236 178c31 0 66 -3 101 -10v79h-303v133zM271 111c51 0 94 40 95 108c-28 5 -55 8 -79 8c-50 0 -82 -24 -82 -59s20 -57 66 -57z" />
    <glyph glyph-name="aacute.ss02" horiz-adv-x="598" 
d="M534 785l-191 -167h-144l138 167h197zM63 545h473v-545h-164l-2 62c-36 -47 -91 -72 -148 -72c-116 0 -193 70 -193 175c0 107 94 178 236 178c31 0 66 -3 101 -10v79h-303v133zM271 111c51 0 94 40 95 108c-28 5 -55 8 -79 8c-50 0 -82 -24 -82 -59s20 -57 66 -57z" />
    <glyph glyph-name="abreve.ss02" horiz-adv-x="598" 
d="M305 609c-116 0 -193 70 -193 176h127c0 -47 27 -79 66 -79c40 0 66 32 66 79h127c0 -106 -77 -176 -193 -176zM63 545h473v-545h-164l-2 62c-36 -47 -91 -72 -148 -72c-116 0 -193 70 -193 175c0 107 94 178 236 178c31 0 66 -3 101 -10v79h-303v133zM271 111
c51 0 94 40 95 108c-28 5 -55 8 -79 8c-50 0 -82 -24 -82 -59s20 -57 66 -57z" />
    <glyph glyph-name="acircumflex.ss02" horiz-adv-x="598" 
d="M304 687l-56 -69h-156l132 167h160l131 -167h-155zM63 545h473v-545h-164l-2 62c-36 -47 -91 -72 -148 -72c-116 0 -193 70 -193 175c0 107 94 178 236 178c31 0 66 -3 101 -10v79h-303v133zM271 111c51 0 94 40 95 108c-28 5 -55 8 -79 8c-50 0 -82 -24 -82 -59
s20 -57 66 -57z" />
    <glyph glyph-name="adieresis.ss02" horiz-adv-x="598" 
d="M172 608c-57 0 -99 41 -99 98s42 98 99 98s98 -41 98 -98s-41 -98 -98 -98zM439 608c-57 0 -99 41 -99 98s42 98 99 98s98 -41 98 -98s-41 -98 -98 -98zM63 412v133h473v-545h-164l-2 62c-36 -47 -91 -72 -148 -72c-116 0 -193 70 -193 175c0 107 94 178 236 178
c31 0 66 -3 101 -10v79h-303zM271 111c51 0 94 40 95 108c-28 5 -55 8 -79 8c-50 0 -82 -24 -82 -59s20 -57 66 -57z" />
    <glyph glyph-name="agrave.ss02" horiz-adv-x="598" 
d="M410 618h-144l-191 167h197zM63 545h473v-545h-164l-2 62c-36 -47 -91 -72 -148 -72c-116 0 -193 70 -193 175c0 107 94 178 236 178c31 0 66 -3 101 -10v79h-303v133zM271 111c51 0 94 40 95 108c-28 5 -55 8 -79 8c-50 0 -82 -24 -82 -59s20 -57 66 -57z" />
    <glyph glyph-name="amacron.ss02" horiz-adv-x="598" 
d="M494 745v-133h-379v133h379zM63 545h473v-545h-164l-2 62c-36 -47 -91 -72 -148 -72c-116 0 -193 70 -193 175c0 107 94 178 236 178c31 0 66 -3 101 -10v79h-303v133zM271 111c51 0 94 40 95 108c-28 5 -55 8 -79 8c-50 0 -82 -24 -82 -59s20 -57 66 -57z" />
    <glyph glyph-name="aogonek.ss02" horiz-adv-x="598" 
d="M525 -121l14 -81c-25 -17 -53 -28 -99 -28c-66 0 -110 38 -110 94c0 49 31 93 84 136h-42l-2 62c-36 -47 -91 -72 -148 -72c-116 0 -193 70 -193 175c0 107 94 178 236 178c31 0 66 -3 101 -10v79h-303v133h473v-545c-57 -36 -84 -72 -84 -107c0 -17 11 -28 31 -28
c16 0 30 6 42 14zM271 111c51 0 94 40 95 108c-28 5 -55 8 -79 8c-50 0 -82 -24 -82 -59s20 -57 66 -57z" />
    <glyph glyph-name="aring.ss02" horiz-adv-x="598" 
d="M305 584c-73 0 -122 44 -122 110c0 65 49 109 122 109s121 -44 121 -109c0 -66 -48 -110 -121 -110zM305 728c-21 0 -35 -14 -35 -34c0 -21 14 -35 35 -35c20 0 34 14 34 35c0 20 -14 34 -34 34zM63 545h473v-545h-164l-2 62c-36 -47 -91 -72 -148 -72
c-116 0 -193 70 -193 175c0 107 94 178 236 178c31 0 66 -3 101 -10v79h-303v133zM271 111c51 0 94 40 95 108c-28 5 -55 8 -79 8c-50 0 -82 -24 -82 -59s20 -57 66 -57z" />
    <glyph glyph-name="atilde.ss02" horiz-adv-x="598" 
d="M226 663c-22 0 -34 -15 -34 -39h-90c0 96 48 159 121 159c65 0 123 -48 161 -48c21 0 34 12 34 38h90c0 -102 -48 -159 -121 -159c-61 0 -124 49 -161 49zM63 545h473v-545h-164l-2 62c-36 -47 -91 -72 -148 -72c-116 0 -193 70 -193 175c0 107 94 178 236 178
c31 0 66 -3 101 -10v79h-303v133zM271 111c51 0 94 40 95 108c-28 5 -55 8 -79 8c-50 0 -82 -24 -82 -59s20 -57 66 -57z" />
    <glyph glyph-name="c.ss02" horiz-adv-x="490" 
d="M335 -10c-181 0 -302 113 -302 283c0 169 121 282 302 282c36 0 78 -9 107 -23v-157c-22 21 -60 35 -98 35c-80 0 -134 -55 -134 -137s54 -137 134 -137c41 0 81 15 103 38v-156c-27 -18 -74 -28 -112 -28z" />
    <glyph glyph-name="cacute.ss02" horiz-adv-x="490" 
d="M215 618l138 167h197l-191 -167h-144zM335 -10c-181 0 -302 113 -302 283c0 169 121 282 302 282c36 0 78 -9 107 -23v-157c-22 21 -60 35 -98 35c-80 0 -134 -55 -134 -137s54 -137 134 -137c41 0 81 15 103 38v-156c-27 -18 -74 -28 -112 -28z" />
    <glyph glyph-name="ccaron.ss02" horiz-adv-x="490" 
d="M240 618l-132 167h156l56 -69l56 69h155l-131 -167h-160zM344 136c41 0 81 15 103 38v-156c-27 -18 -74 -28 -112 -28c-181 0 -302 113 -302 283c0 169 121 282 302 282c36 0 78 -9 107 -23v-157c-22 21 -60 35 -98 35c-80 0 -134 -55 -134 -137s54 -137 134 -137z" />
    <glyph glyph-name="ccedilla.ss02" horiz-adv-x="490" 
d="M447 18c-24 -16 -63 -25 -98 -28l-24 -39c58 -5 95 -39 95 -86c0 -56 -52 -95 -136 -95c-40 0 -80 10 -102 23l29 60c13 -9 33 -16 55 -16c28 0 44 12 44 27s-15 23 -38 23c-12 0 -23 -3 -32 -7l-21 37l41 80c-138 27 -227 131 -227 276c0 169 121 282 302 282
c36 0 78 -9 107 -23v-157c-22 21 -60 35 -98 35c-80 0 -134 -55 -134 -137s54 -137 134 -137c41 0 81 15 103 38v-156z" />
    <glyph glyph-name="cdotaccent.ss02" horiz-adv-x="490" 
d="M321 608c-57 0 -99 41 -99 98s42 98 99 98s98 -41 98 -98s-41 -98 -98 -98zM335 -10c-181 0 -302 113 -302 283c0 169 121 282 302 282c36 0 78 -9 107 -23v-157c-22 21 -60 35 -98 35c-80 0 -134 -55 -134 -137s54 -137 134 -137c41 0 81 15 103 38v-156
c-27 -18 -74 -28 -112 -28z" />
    <glyph glyph-name="f.ss02" horiz-adv-x="423" 
d="M417 641h-134v-96h123v-139h-123v-406h-170v406h-85v139h85v235h304v-139z" />
    <glyph glyph-name="g.ss02" horiz-adv-x="687" 
d="M463 545h163v-765h-560v139h390v144c-37 -46 -91 -73 -162 -73c-144 0 -260 115 -260 285c0 169 116 280 260 280c74 0 129 -28 166 -77zM333 136c74 0 123 55 123 137s-49 137 -123 137s-123 -55 -123 -136c0 -83 49 -138 123 -138z" />
    <glyph glyph-name="gbreve.ss02" horiz-adv-x="687" 
d="M342 609c-116 0 -193 70 -193 176h127c0 -47 27 -79 66 -79c40 0 66 32 66 79h127c0 -106 -77 -176 -193 -176zM463 545h163v-765h-560v139h390v144c-37 -46 -91 -73 -162 -73c-144 0 -260 115 -260 285c0 169 116 280 260 280c74 0 129 -28 166 -77zM333 136
c74 0 123 55 123 137s-49 137 -123 137s-123 -55 -123 -136c0 -83 49 -138 123 -138z" />
    <glyph glyph-name="gcommaaccent.ss02" horiz-adv-x="687" 
d="M447 780l-43 -187h-152l67 187h128zM463 545h163v-765h-560v139h390v144c-37 -46 -91 -73 -162 -73c-144 0 -260 115 -260 285c0 169 116 280 260 280c74 0 129 -28 166 -77zM333 136c74 0 123 55 123 137s-49 137 -123 137s-123 -55 -123 -136c0 -83 49 -138 123 -138z
" />
    <glyph glyph-name="gdotaccent.ss02" horiz-adv-x="687" 
d="M342 608c-57 0 -99 41 -99 98s42 98 99 98s98 -41 98 -98s-41 -98 -98 -98zM463 545h163v-765h-560v139h390v144c-37 -46 -91 -73 -162 -73c-144 0 -260 115 -260 285c0 169 116 280 260 280c74 0 129 -28 166 -77zM333 136c74 0 123 55 123 137s-49 137 -123 137
s-123 -55 -123 -136c0 -83 49 -138 123 -138z" />
    <glyph glyph-name="j.ss02" horiz-adv-x="295" 
d="M147 608c-57 0 -98 41 -98 98s41 98 98 98s98 -41 98 -98s-41 -98 -98 -98zM62 -220v765h170v-765h-170z" />
    <glyph glyph-name="l.ss02" horiz-adv-x="347" 
d="M63 0v780h170v-640h95v-140h-265z" />
    <glyph glyph-name="lacute.ss02" horiz-adv-x="347" 
d="M43 853l138 167h197l-191 -167h-144zM63 0v780h170v-640h95v-140h-265z" />
    <glyph glyph-name="lcaron.ss02" horiz-adv-x="367" 
d="M63 0v780h170v-640h95v-140h-265zM281 593l42 187h152l-66 -187h-128z" />
    <glyph glyph-name="lcommaaccent.ss02" horiz-adv-x="347" 
d="M63 0v780h170v-640h95v-140h-265zM80 -220l38 168h152l-62 -168h-128z" />
    <glyph glyph-name="lslash.ss02" horiz-adv-x="347" 
d="M233 140h95v-140h-265v263l-77 -54v136l77 54v381h170v-285l79 56v-136l-79 -56v-219z" />
    <glyph glyph-name="t.ss02" horiz-adv-x="420" 
d="M402 545v-139h-105v-406h-170v406h-104v139h104v160h170v-160h105z" />
    <glyph glyph-name="tbar.ss02" horiz-adv-x="421" 
d="M402 406h-105v-81h98v-121h-98v-204h-170v204h-97v121h97v81h-104v139h104v160h170v-160h105v-139z" />
    <glyph glyph-name="tcaron.ss02" horiz-adv-x="420" 
d="M393 780h152l-66 -187h-128zM297 705v-160h105v-139h-105v-406h-170v406h-104v139h104v160h170z" />
    <glyph glyph-name="uni0163.ss02" horiz-adv-x="420" 
d="M297 0h-36l-29 -49c58 -5 95 -38 95 -86c0 -56 -52 -95 -137 -95c-40 0 -79 10 -102 23l29 60c13 -9 34 -16 55 -16c29 0 44 12 44 27s-15 23 -37 23c-13 0 -23 -3 -33 -7l-21 37l44 83h-42v406h-104v139h104v160h170v-160h105v-139h-105v-406z" />
    <glyph glyph-name="uni021B.ss02" horiz-adv-x="420" 
d="M402 545v-139h-105v-406h-170v406h-104v139h104v160h170v-160h105zM94 -220l38 168h152l-62 -168h-128z" />
    <glyph glyph-name="u.ss02" horiz-adv-x="634" 
d="M317 -10c-157 0 -262 93 -262 232v323h170v-316c0 -56 37 -93 92 -93s92 37 92 93v316h170v-323c0 -139 -105 -232 -262 -232z" />
    <glyph glyph-name="uacute.ss02" horiz-adv-x="634" 
d="M211 618l138 167h197l-191 -167h-144zM317 -10c-157 0 -262 93 -262 232v323h170v-316c0 -56 37 -93 92 -93s92 37 92 93v316h170v-323c0 -139 -105 -232 -262 -232z" />
    <glyph glyph-name="ucircumflex.ss02" horiz-adv-x="634" 
d="M316 687l-56 -69h-156l132 167h160l131 -167h-155zM409 545h170v-323c0 -139 -105 -232 -262 -232s-262 93 -262 232v323h170v-316c0 -56 37 -93 92 -93s92 37 92 93v316z" />
    <glyph glyph-name="udieresis.ss02" horiz-adv-x="634" 
d="M184 608c-57 0 -99 41 -99 98s42 98 99 98s98 -41 98 -98s-41 -98 -98 -98zM451 608c-57 0 -99 41 -99 98s42 98 99 98s98 -41 98 -98s-41 -98 -98 -98zM317 -10c-157 0 -262 93 -262 232v323h170v-316c0 -56 37 -93 92 -93s92 37 92 93v316h170v-323
c0 -139 -105 -232 -262 -232z" />
    <glyph glyph-name="ugrave.ss02" horiz-adv-x="634" 
d="M278 618l-191 167h197l138 -167h-144zM317 -10c-157 0 -262 93 -262 232v323h170v-316c0 -56 37 -93 92 -93s92 37 92 93v316h170v-323c0 -139 -105 -232 -262 -232z" />
    <glyph glyph-name="uhungarumlaut.ss02" horiz-adv-x="634" 
d="M126 618l106 167h196l-158 -167h-144zM349 618l106 167h196l-159 -167h-143zM317 -10c-157 0 -262 93 -262 232v323h170v-316c0 -56 37 -93 92 -93s92 37 92 93v316h170v-323c0 -139 -105 -232 -262 -232z" />
    <glyph glyph-name="umacron.ss02" horiz-adv-x="634" 
d="M127 612v133h379v-133h-379zM317 -10c-157 0 -262 93 -262 232v323h170v-316c0 -56 37 -93 92 -93s92 37 92 93v316h170v-323c0 -139 -105 -232 -262 -232z" />
    <glyph glyph-name="uogonek.ss02" horiz-adv-x="634" 
d="M409 545h170v-323c0 -113 -69 -195 -178 -222c-57 -36 -84 -72 -84 -107c0 -17 11 -28 31 -28c16 0 30 6 42 14l14 -81c-25 -17 -53 -28 -99 -28c-66 0 -110 38 -110 94c0 46 27 89 75 129c-131 17 -215 104 -215 229v323h170v-316c0 -56 37 -93 92 -93s92 37 92 93v316z
" />
    <glyph glyph-name="uring.ss02" horiz-adv-x="634" 
d="M317 584c-73 0 -122 44 -122 110c0 65 49 109 122 109s121 -44 121 -109c0 -66 -48 -110 -121 -110zM317 659c20 0 34 14 34 35c0 20 -14 34 -34 34c-21 0 -35 -14 -35 -34c0 -21 14 -35 35 -35zM317 -10c-157 0 -262 93 -262 232v323h170v-316c0 -56 37 -93 92 -93
s92 37 92 93v316h170v-323c0 -139 -105 -232 -262 -232z" />
    <glyph glyph-name="y.ss02" horiz-adv-x="641" 
d="M409 545h170v-765h-518v139h348v133c-40 -42 -95 -62 -151 -62c-121 0 -202 85 -202 214v341h170v-316c0 -56 36 -93 92 -93c55 0 91 37 91 93v316z" />
    <glyph glyph-name="yacute.ss02" horiz-adv-x="641" 
d="M547 785l-191 -167h-144l138 167h197zM409 545h170v-765h-518v139h348v133c-40 -42 -95 -62 -151 -62c-121 0 -202 85 -202 214v341h170v-316c0 -56 36 -93 92 -93c55 0 91 37 91 93v316z" />
    <glyph glyph-name="ycircumflex.ss02" horiz-adv-x="641" 
d="M317 687l-56 -69h-156l132 167h160l131 -167h-155zM409 545h170v-765h-518v139h348v133c-40 -42 -95 -62 -151 -62c-121 0 -202 85 -202 214v341h170v-316c0 -56 36 -93 92 -93c55 0 91 37 91 93v316z" />
    <glyph glyph-name="ydieresis.ss02" horiz-adv-x="641" 
d="M185 608c-57 0 -99 41 -99 98s42 98 99 98s98 -41 98 -98s-41 -98 -98 -98zM452 608c-57 0 -99 41 -99 98s42 98 99 98s98 -41 98 -98s-41 -98 -98 -98zM409 545h170v-765h-518v139h348v133c-40 -42 -95 -62 -151 -62c-121 0 -202 85 -202 214v341h170v-316
c0 -56 36 -93 92 -93c55 0 91 37 91 93v316z" />
    <glyph glyph-name="ygrave.ss02" horiz-adv-x="641" 
d="M423 618h-144l-191 167h197zM409 545h170v-765h-518v139h348v133c-40 -42 -95 -62 -151 -62c-121 0 -202 85 -202 214v341h170v-316c0 -56 36 -93 92 -93c55 0 91 37 91 93v316z" />
    <glyph glyph-name="z.ss02" horiz-adv-x="544" 
d="M29 0l222 406h-218v139h476l-222 -405h227v-140h-485z" />
    <glyph glyph-name="zacute.ss02" horiz-adv-x="544" 
d="M166 618l138 167h197l-191 -167h-144zM29 0l222 406h-218v139h476l-222 -405h227v-140h-485z" />
    <glyph glyph-name="zcaron.ss02" horiz-adv-x="544" 
d="M191 618l-132 167h156l56 -69l56 69h155l-131 -167h-160zM287 140h227v-140h-485l222 406h-218v139h476z" />
    <glyph glyph-name="zdotaccent.ss02" horiz-adv-x="544" 
d="M272 608c-57 0 -99 41 -99 98s42 98 99 98s98 -41 98 -98s-41 -98 -98 -98zM29 0l222 406h-218v139h476l-222 -405h227v-140h-485z" />
    <glyph glyph-name="fi.ss01" horiz-adv-x="668" 
d="M521 608c-57 0 -99 41 -99 98s42 98 99 98s98 -41 98 -98s-41 -98 -98 -98zM62 609c0 109 74 181 185 181c45 0 92 -7 125 -22l-11 -132c-19 7 -36 9 -58 9c-42 0 -71 -25 -71 -62v-38h123v-139h-123v-406h-170v609zM435 0v545h170v-545h-170z" />
    <glyph glyph-name="fl.ss01" horiz-adv-x="668" 
d="M62 609c0 109 74 181 185 181c45 0 92 -7 125 -22l-11 -132c-19 7 -36 9 -58 9c-42 0 -71 -25 -71 -62v-38h123v-139h-123v-406h-170v609zM436 780h170v-780h-170v780z" />
    <glyph glyph-name="fi.ss02" horiz-adv-x="718" 
d="M571 608c-57 0 -99 41 -99 98s42 98 99 98s98 -41 98 -98s-41 -98 -98 -98zM113 545v235h304v-139h-134v-96h123v-139h-123v-406h-170v406h-85v139h85zM485 0v545h170v-545h-170z" />
    <glyph glyph-name="fl.ss02" horiz-adv-x="770" 
d="M113 545v235h304v-139h-134v-96h123v-139h-123v-406h-170v406h-85v139h85zM656 140h95v-140h-265v780h170v-640z" />
    <glyph glyph-name="ordfeminine" unicode="&#xaa;" horiz-adv-x="402" 
d="M199 750c87 0 145 -50 145 -127v-205h-101l-1 35c-21 -27 -53 -41 -87 -41c-70 0 -117 41 -117 104c0 65 57 108 143 108c18 0 38 -2 59 -6c-1 34 -25 52 -67 52c-27 0 -51 -6 -69 -21l-46 61c39 27 81 40 141 40zM185 485c31 0 54 23 55 64c-17 2 -32 4 -46 4
c-29 0 -49 -13 -49 -34s13 -34 40 -34z" />
    <glyph glyph-name="ordmasculine" unicode="&#xba;" horiz-adv-x="429" 
d="M216 412c-108 0 -180 67 -180 169s72 169 180 169c107 0 178 -67 178 -169s-71 -169 -178 -169zM216 501c42 0 72 32 72 80c0 49 -30 82 -72 82c-44 0 -73 -33 -73 -82c0 -48 29 -80 73 -80z" />
    <glyph glyph-name="uni0394" unicode="&#x394;" horiz-adv-x="849" 
d="M506 740l311 -740h-785l311 740h163zM277 145h295l-147 377z" />
    <glyph glyph-name="uni03A9" unicode="&#x3a9;" horiz-adv-x="815" 
d="M589 168v-23h166v-145h-304v283c85 17 140 75 140 158c0 99 -74 164 -183 164s-182 -65 -182 -164c0 -82 54 -140 140 -158v-283h-305v145h167v23c-115 50 -184 147 -184 273c0 185 146 309 364 309c217 0 363 -124 363 -309c0 -125 -68 -223 -182 -273z" />
    <glyph glyph-name="uni03BC" unicode="&#x3bc;" horiz-adv-x="648" 
d="M416 545h170v-545h-164l-2 39c-27 -33 -62 -49 -97 -49c-32 0 -65 14 -91 44v-254h-170v765h170v-316c0 -56 37 -93 91 -93c56 0 93 37 93 93v316z" />
    <glyph glyph-name="pi" unicode="&#x3c0;" horiz-adv-x="706" 
d="M609 136c17 0 36 5 53 17v-136c-33 -19 -72 -27 -108 -27c-86 0 -144 56 -144 140v276h-133v-406h-170v406h-74v139h628v-139h-81v-241c0 -17 12 -29 29 -29z" />
    <glyph glyph-name="zero" unicode="0" horiz-adv-x="657" 
d="M329 -10c-176 0 -293 152 -293 380s117 380 293 380c175 0 292 -152 292 -380s-117 -380 -292 -380zM329 135c67 0 111 94 111 235s-44 235 -111 235s-111 -94 -111 -235s44 -235 111 -235z" />
    <glyph glyph-name="one" unicode="1" horiz-adv-x="466" 
d="M212 0v516l-123 -85l-87 124l251 185h134v-740h-175z" />
    <glyph glyph-name="two" unicode="2" horiz-adv-x="608" 
d="M39 0v110l232 252c29 32 104 111 104 173c0 41 -28 70 -70 70c-48 0 -79 -37 -79 -92l-178 16c0 133 101 221 253 221s252 -80 252 -201c0 -96 -61 -175 -166 -283l-120 -124l294 3v-145h-522z" />
    <glyph glyph-name="three" unicode="3" horiz-adv-x="592" 
d="M345 460c126 -12 207 -100 207 -225c0 -147 -112 -245 -295 -245c-91 0 -181 27 -231 69l66 128c33 -31 88 -52 146 -52c83 0 133 40 133 98c0 59 -47 95 -120 95c-35 0 -65 -8 -94 -23l-47 88l172 202h-219v145h444v-108z" />
    <glyph glyph-name="four" unicode="4" horiz-adv-x="660" 
d="M351 0v134h-330v120l370 486h135v-461h98v-145h-98v-134h-175zM190 274h166l2 221z" />
    <glyph glyph-name="five" unicode="5" horiz-adv-x="604" 
d="M248 -10c-93 0 -174 22 -228 64l52 126c42 -30 101 -45 160 -45c90 0 150 45 150 113c0 53 -37 88 -93 88c-43 0 -79 -17 -94 -40l-117 16l51 428h396v-145h-245l-18 -121c12 4 30 7 58 7c141 0 244 -88 244 -220c0 -163 -130 -271 -316 -271z" />
    <glyph glyph-name="six" unicode="6" horiz-adv-x="603" 
d="M344 456c124 0 231 -90 231 -226c0 -143 -108 -240 -268 -240c-162 0 -270 95 -270 238c0 94 34 162 92 243l197 269h196l-219 -285c13 1 26 1 41 1zM306 135c52 0 87 37 87 94c0 56 -35 94 -87 94c-53 0 -88 -38 -88 -94c0 -57 35 -94 88 -94z" />
    <glyph glyph-name="seven" unicode="7" horiz-adv-x="556" 
d="M23 740h518l-241 -740h-186l202 595h-293v145z" />
    <glyph glyph-name="eight" unicode="8" horiz-adv-x="626" 
d="M470 386c70 -35 112 -97 112 -174c0 -133 -108 -222 -269 -222s-269 88 -269 219c0 78 42 140 112 176c-58 34 -92 88 -92 156c0 126 100 209 249 209s249 -82 249 -207c0 -68 -34 -123 -92 -157zM312 605c-40 0 -67 -30 -67 -75s27 -74 67 -74c41 0 68 29 68 74
s-27 75 -68 75zM312 135c53 0 88 35 88 88c0 52 -35 88 -88 88c-52 0 -87 -36 -87 -88c0 -53 35 -88 87 -88z" />
    <glyph glyph-name="nine" unicode="9" horiz-adv-x="603" 
d="M296 750c162 0 270 -95 270 -238c0 -94 -34 -162 -92 -243l-197 -269h-196l219 285c-13 -1 -26 -1 -41 -1c-124 0 -231 90 -231 226c0 143 108 240 268 240zM210 511c0 -56 35 -94 87 -94c53 0 88 38 88 94c0 57 -35 94 -88 94c-52 0 -87 -37 -87 -94z" />
    <glyph glyph-name="zero.lf" horiz-adv-x="724" 
d="M329 -10c-176 0 -293 152 -293 380s117 380 293 380c175 0 292 -152 292 -380s-117 -380 -292 -380zM329 135c67 0 111 94 111 235s-44 235 -111 235s-111 -94 -111 -235s44 -235 111 -235z" />
    <glyph glyph-name="one.lf" horiz-adv-x="466" 
d="M212 0v516l-123 -85l-87 124l251 185h134v-740h-175z" />
    <glyph glyph-name="two.lf" horiz-adv-x="608" 
d="M39 0v110l232 252c29 32 104 111 104 173c0 41 -28 70 -70 70c-48 0 -79 -37 -79 -92l-178 16c0 133 101 221 253 221s252 -80 252 -201c0 -96 -61 -175 -166 -283l-120 -124l294 3v-145h-522z" />
    <glyph glyph-name="three.lf" horiz-adv-x="592" 
d="M345 460c126 -12 207 -100 207 -225c0 -147 -112 -245 -295 -245c-91 0 -181 27 -231 69l66 128c33 -31 88 -52 146 -52c83 0 133 40 133 98c0 59 -47 95 -120 95c-35 0 -65 -8 -94 -23l-47 88l172 202h-219v145h444v-108z" />
    <glyph glyph-name="four.lf" horiz-adv-x="660" 
d="M351 0v134h-330v120l370 486h135v-461h98v-145h-98v-134h-175zM190 274h166l2 221z" />
    <glyph glyph-name="five.lf" horiz-adv-x="604" 
d="M248 -10c-93 0 -174 22 -228 64l52 126c42 -30 101 -45 160 -45c90 0 150 45 150 113c0 53 -37 88 -93 88c-43 0 -79 -17 -94 -40l-117 16l51 428h396v-145h-245l-18 -121c12 4 30 7 58 7c141 0 244 -88 244 -220c0 -163 -130 -271 -316 -271z" />
    <glyph glyph-name="six.lf" horiz-adv-x="603" 
d="M344 456c124 0 231 -90 231 -226c0 -143 -108 -240 -268 -240c-162 0 -270 95 -270 238c0 94 34 162 92 243l197 269h196l-219 -285c13 1 26 1 41 1zM306 135c52 0 87 37 87 94c0 56 -35 94 -87 94c-53 0 -88 -38 -88 -94c0 -57 35 -94 88 -94z" />
    <glyph glyph-name="seven.lf" horiz-adv-x="556" 
d="M23 740h518l-241 -740h-186l202 595h-293v145z" />
    <glyph glyph-name="eight.lf" horiz-adv-x="626" 
d="M470 386c70 -35 112 -97 112 -174c0 -133 -108 -222 -269 -222s-269 88 -269 219c0 78 42 140 112 176c-58 34 -92 88 -92 156c0 126 100 209 249 209s249 -82 249 -207c0 -68 -34 -123 -92 -157zM312 605c-40 0 -67 -30 -67 -75s27 -74 67 -74c41 0 68 29 68 74
s-27 75 -68 75zM312 135c53 0 88 35 88 88c0 52 -35 88 -88 88c-52 0 -87 -36 -87 -88c0 -53 35 -88 87 -88z" />
    <glyph glyph-name="nine.lf" horiz-adv-x="603" 
d="M296 750c162 0 270 -95 270 -238c0 -94 -34 -162 -92 -243l-197 -269h-196l219 285c-13 -1 -26 -1 -41 -1c-124 0 -231 90 -231 226c0 143 108 240 268 240zM210 511c0 -56 35 -94 87 -94c53 0 88 38 88 94c0 57 -35 94 -88 94c-52 0 -87 -37 -87 -94z" />
    <glyph glyph-name="zero.osf" horiz-adv-x="708" 
d="M355 -10c-191 0 -319 133 -319 333c0 199 128 332 319 332c189 0 317 -133 317 -332c0 -200 -128 -333 -317 -333zM355 136c80 0 135 75 135 187s-55 187 -135 187c-82 0 -137 -75 -137 -187s55 -187 137 -187z" />
    <glyph glyph-name="one.osf" horiz-adv-x="433" 
d="M185 0v420l-90 -61l-88 124l219 162h129v-645h-170z" />
    <glyph glyph-name="two.osf" horiz-adv-x="617" 
d="M44 0v110l273 228c27 22 69 61 69 102c0 42 -30 70 -76 70c-51 0 -85 -37 -85 -92l-172 16c0 133 101 221 253 221s252 -81 252 -201c0 -115 -67 -170 -154 -237l-102 -77h264v-140h-522z" />
    <glyph glyph-name="three.osf" horiz-adv-x="592" 
d="M348 362c123 -12 202 -101 202 -226c0 -148 -110 -246 -289 -246c-94 0 -184 26 -232 68l67 129c33 -31 88 -51 145 -51c84 0 133 40 133 99s-48 95 -122 95c-34 0 -64 -7 -91 -23l-47 88l177 211h-225v139h445v-108z" />
    <glyph glyph-name="four.osf" horiz-adv-x="665" 
d="M363 -110v110h-336v108l377 537h129v-505h97v-140h-97v-110h-170zM197 135h170l3 252z" />
    <glyph glyph-name="five.osf" horiz-adv-x="599" 
d="M246 -110c-92 0 -174 21 -227 63l52 128c42 -31 100 -45 159 -45c91 0 151 45 151 113c0 54 -37 89 -94 89c-42 0 -79 -16 -93 -40l-117 17l51 430h396v-139h-246l-23 -130c13 5 33 8 64 8c137 0 238 -89 238 -222c0 -164 -128 -272 -311 -272z" />
    <glyph glyph-name="six.osf" horiz-adv-x="595" 
d="M338 456c136 0 226 -90 226 -226c0 -143 -105 -240 -263 -240s-263 95 -263 238c0 76 20 135 81 226l210 286h191l-219 -286c12 1 24 2 37 2zM300 135c53 0 88 37 88 94c0 56 -35 94 -88 94c-52 0 -87 -38 -87 -94c0 -57 35 -94 87 -94z" />
    <glyph glyph-name="seven.osf" horiz-adv-x="572" 
d="M30 645h518l-248 -757l-164 43l186 575h-292v139z" />
    <glyph glyph-name="eight.osf" 
d="M461 386c69 -35 110 -97 110 -174c0 -133 -105 -222 -263 -222s-264 88 -264 219c0 78 41 141 110 176c-57 34 -90 88 -90 156c0 126 98 209 244 209s243 -82 243 -207c0 -68 -33 -123 -90 -157zM307 605c-41 0 -68 -30 -68 -75s27 -74 68 -74c40 0 67 29 67 74
s-27 75 -67 75zM307 135c52 0 87 35 87 88c0 52 -35 88 -87 88c-53 0 -88 -36 -88 -88c0 -53 35 -88 88 -88z" />
    <glyph glyph-name="nine.osf" horiz-adv-x="588" 
d="M292 655c158 0 262 -95 262 -237c0 -77 -19 -137 -81 -226l-222 -304l-159 43l199 261c-11 -1 -24 -2 -36 -2c-137 0 -227 90 -227 226c0 143 106 239 264 239zM203 417c0 -57 35 -95 88 -95c52 0 87 38 87 95c0 56 -35 93 -87 93c-53 0 -88 -37 -88 -93z" />
    <glyph glyph-name="one.ss02" horiz-adv-x="390" 
d="M136 0v595h-105v145h280v-740h-175z" />
    <glyph glyph-name="one.lf.ss02" horiz-adv-x="390" 
d="M136 0v595h-105v145h280v-740h-175z" />
    <glyph glyph-name="one.osf.ss02" horiz-adv-x="384" 
d="M136 0v506h-98v139h268v-645h-170z" />
    <glyph glyph-name="one.tf.ss02" 
d="M432 145h132v-145h-505v145h198v450h-135v145h310v-595z" />
    <glyph glyph-name="one.tosf.ss02" 
d="M418 140h149v-140h-505v140h186v366h-128v139h298v-505z" />
    <glyph glyph-name="zero.tf" 
d="M308 -10c-161 0 -269 152 -269 380s108 380 269 380s269 -152 269 -380s-108 -380 -269 -380zM308 135c52 0 87 94 87 235s-35 235 -87 235s-88 -94 -88 -235s36 -235 88 -235z" />
    <glyph glyph-name="one.tf" 
d="M442 145h131v-145h-505v145h198v371l-123 -85l-86 124l251 185h134v-595z" />
    <glyph glyph-name="two.tf" 
d="M43 0v110l232 252c29 32 104 111 104 173c0 41 -28 70 -70 70c-48 0 -79 -37 -79 -92l-179 16c0 133 102 221 254 221s251 -80 251 -201c0 -96 -61 -175 -165 -283l-120 -124l294 3v-145h-522z" />
    <glyph glyph-name="three.tf" 
d="M357 460c125 -12 206 -101 206 -225c0 -147 -112 -245 -294 -245c-94 0 -184 27 -232 69l66 128c34 -31 89 -52 146 -52c84 0 133 40 133 98c0 59 -48 95 -122 95c-34 0 -64 -8 -91 -23l-47 88l171 202h-219v145h445v-108z" />
    <glyph glyph-name="four.tf" 
d="M317 0v134h-309v120l349 486h136v-460h97v-146h-97v-134h-176zM177 275h146l2 220z" />
    <glyph glyph-name="five.tf" 
d="M253 -10c-92 0 -174 22 -227 64l52 126c42 -30 100 -45 159 -45c91 0 151 45 151 113c0 53 -37 88 -94 88c-42 0 -79 -17 -93 -40l-117 16l51 428h396v-145h-246l-18 -121c12 4 30 7 59 7c141 0 243 -88 243 -220c0 -163 -130 -271 -316 -271z" />
    <glyph glyph-name="six.tf" 
d="M350 456c124 0 231 -90 231 -226c0 -143 -107 -240 -268 -240c-162 0 -269 95 -269 238c0 94 33 162 91 243l197 269h196l-219 -285c13 1 26 1 41 1zM312 135c52 0 87 37 87 94c0 56 -35 94 -87 94c-53 0 -88 -38 -88 -94c0 -57 35 -94 88 -94z" />
    <glyph glyph-name="seven.tf" 
d="M53 740h518l-242 -740h-185l201 595h-292v145z" />
    <glyph glyph-name="eight.tf" 
d="M464 386c70 -35 112 -97 112 -174c0 -133 -107 -222 -268 -222c-162 0 -269 88 -269 219c0 78 41 141 112 176c-58 34 -92 88 -92 156c0 126 99 209 249 209c149 0 248 -82 248 -207c0 -68 -34 -123 -92 -157zM307 605c-40 0 -67 -30 -67 -75s27 -74 67 -74
c41 0 68 29 68 74s-27 75 -68 75zM307 135c53 0 88 35 88 88c0 52 -35 88 -88 88c-52 0 -87 -36 -87 -88c0 -53 35 -88 87 -88z" />
    <glyph glyph-name="nine.tf" 
d="M302 750c162 0 270 -95 270 -238c0 -94 -34 -162 -92 -243l-197 -269h-196l219 285c-13 -1 -26 -1 -41 -1c-124 0 -231 90 -231 226c0 143 108 240 268 240zM216 511c0 -56 35 -94 87 -94c53 0 88 38 88 94c0 57 -35 94 -88 94c-52 0 -87 -37 -87 -94z" />
    <glyph glyph-name="zero.tosf" 
d="M308 -10c-162 0 -270 133 -270 333c0 199 108 332 270 332c161 0 269 -133 269 -332c0 -200 -108 -333 -269 -333zM308 136c52 0 87 75 87 187s-35 187 -87 187s-88 -75 -88 -187s36 -187 88 -187z" />
    <glyph glyph-name="one.tosf" 
d="M416 140h156v-140h-505v140h179v280l-91 -61l-88 124l219 162h130v-505z" />
    <glyph glyph-name="two.tosf" 
d="M43 0v110l273 228c27 22 69 61 69 102c0 42 -30 70 -76 70c-51 0 -85 -37 -85 -92l-172 16c0 133 101 221 253 221s252 -81 252 -201c0 -115 -68 -170 -154 -237l-100 -77h262v-140h-522z" />
    <glyph glyph-name="three.tosf" 
d="M359 362c123 -12 202 -100 202 -226c0 -148 -110 -246 -289 -246c-93 0 -184 26 -231 68l66 129c33 -31 88 -51 146 -51c83 0 133 40 133 99s-49 95 -122 95c-34 0 -65 -7 -92 -23l-47 88l177 211h-224v139h444v-108z" />
    <glyph glyph-name="four.tosf" 
d="M327 -110v110h-315v108l356 537h129v-505h97v-140h-97v-110h-170zM182 135h149l3 240z" />
    <glyph glyph-name="five.tosf" 
d="M254 -110c-92 0 -174 21 -227 63l52 128c42 -31 100 -45 159 -45c91 0 151 45 151 113c0 54 -37 89 -94 89c-42 0 -79 -16 -93 -40l-117 17l51 430h396v-139h-246l-23 -130c13 5 33 8 64 8c137 0 238 -89 238 -222c0 -164 -128 -272 -311 -272z" />
    <glyph glyph-name="six.tosf" 
d="M348 456c136 0 226 -90 226 -226c0 -143 -105 -240 -263 -240s-263 95 -263 238c0 76 20 135 81 226l210 286h191l-219 -286c12 1 24 2 37 2zM310 135c53 0 88 37 88 94c0 56 -35 94 -88 94c-52 0 -87 -38 -87 -94c0 -57 35 -94 87 -94z" />
    <glyph glyph-name="seven.tosf" 
d="M51 645h518l-248 -757l-163 43l186 575h-293v139z" />
    <glyph glyph-name="eight.tosf" 
d="M461 386c69 -35 110 -97 110 -174c0 -133 -105 -222 -263 -222s-264 88 -264 219c0 78 41 141 110 176c-57 34 -90 88 -90 156c0 126 98 209 244 209s243 -82 243 -207c0 -68 -33 -123 -90 -157zM307 605c-40 0 -67 -30 -67 -75s27 -74 67 -74c41 0 68 29 68 74
s-27 75 -68 75zM307 135c53 0 88 35 88 88c0 52 -35 88 -88 88c-52 0 -87 -36 -87 -88c0 -53 35 -88 87 -88z" />
    <glyph glyph-name="nine.tosf" 
d="M305 655c158 0 263 -95 263 -237c0 -77 -19 -137 -81 -226l-222 -304l-159 43l199 261c-12 -1 -24 -2 -37 -2c-136 0 -226 90 -226 226c0 143 105 239 263 239zM217 417c0 -57 35 -95 88 -95c52 0 87 38 87 95c0 56 -35 93 -87 93c-53 0 -88 -37 -88 -93z" />
    <glyph glyph-name="uni2080" unicode="&#x2080;" horiz-adv-x="400" 
d="M202 -106c-107 0 -177 91 -177 228s70 228 177 228c103 0 174 -91 174 -228s-71 -228 -174 -228zM202 -18c40 0 66 57 66 140c0 84 -26 141 -66 141s-67 -57 -67 -141c0 -83 27 -140 67 -140z" />
    <glyph glyph-name="uni2081" unicode="&#x2081;" horiz-adv-x="286" 
d="M128 -100v309l-73 -51l-53 75l151 111h82v-444h-107z" />
    <glyph glyph-name="uni2082" unicode="&#x2082;" horiz-adv-x="374" 
d="M28 -100v68l138 150c17 19 63 67 63 104c0 24 -16 41 -41 41c-29 0 -47 -23 -47 -55l-108 9c0 80 61 133 153 133c91 0 150 -49 150 -121c0 -57 -35 -104 -99 -169l-71 -73l176 1v-88h-314z" />
    <glyph glyph-name="uni2083" unicode="&#x2083;" horiz-adv-x="363" 
d="M212 176c74 -8 123 -60 123 -135c0 -88 -68 -147 -178 -147c-54 0 -109 16 -139 41l40 78c20 -18 54 -31 87 -31c50 0 79 24 79 59c0 34 -28 56 -70 56c-21 0 -40 -5 -56 -15l-29 54l103 121h-131v87h267v-66z" />
    <glyph glyph-name="uni2084" unicode="&#x2084;" horiz-adv-x="402" 
d="M211 -100v80h-198v73l223 291h83v-275h57v-89h-57v-80h-108zM116 65h98l1 129z" />
    <glyph glyph-name="uni2085" unicode="&#x2085;" horiz-adv-x="369" 
d="M150 -106c-55 0 -105 13 -136 38l32 77c24 -18 60 -27 95 -27c54 0 90 27 90 68c0 30 -22 52 -56 52c-25 0 -47 -12 -56 -25l-71 10l32 257h237v-87h-146l-10 -72c6 3 16 4 33 4c86 0 147 -53 147 -132c0 -97 -78 -163 -191 -163z" />
    <glyph glyph-name="uni2086" unicode="&#x2086;" horiz-adv-x="370" 
d="M211 174c73 0 139 -54 139 -136c0 -86 -65 -144 -162 -144s-162 57 -162 143c0 57 20 98 56 148l116 159h120l-131 -171c7 1 15 1 24 1zM188 -18c30 0 52 22 52 56c0 33 -22 55 -52 55c-31 0 -52 -22 -52 -55c0 -34 21 -56 52 -56z" />
    <glyph glyph-name="uni2087" unicode="&#x2087;" horiz-adv-x="333" 
d="M15 344h312l-145 -444h-112l119 357h-174v87z" />
    <glyph glyph-name="uni2088" unicode="&#x2088;" horiz-adv-x="386" 
d="M288 131c42 -21 67 -57 67 -103c0 -81 -65 -134 -162 -134s-162 53 -162 131c0 47 25 85 68 106c-35 20 -56 54 -56 94c0 76 60 125 150 125s150 -50 150 -124c0 -41 -20 -74 -55 -95zM193 263c-24 0 -40 -19 -40 -45c0 -27 16 -44 40 -44s40 17 40 44
c0 26 -16 45 -40 45zM193 -18c30 0 52 21 52 52c0 32 -22 53 -52 53c-31 0 -52 -21 -52 -53c0 -31 21 -52 52 -52z" />
    <glyph glyph-name="uni2089" unicode="&#x2089;" horiz-adv-x="370" 
d="M182 350c97 0 162 -57 162 -143c0 -57 -20 -98 -56 -148l-116 -159h-120l131 171c-7 -1 -15 -1 -24 -1c-73 0 -139 54 -139 136c0 86 65 144 162 144zM130 206c0 -33 22 -55 52 -55c31 0 52 22 52 55c0 34 -21 56 -52 56c-30 0 -52 -22 -52 -56z" />
    <glyph glyph-name="zero.dnom" horiz-adv-x="400" 
d="M202 -6c-107 0 -177 91 -177 228s70 228 177 228c103 0 174 -91 174 -228s-71 -228 -174 -228zM202 82c40 0 66 57 66 140c0 84 -26 141 -66 141s-67 -57 -67 -141c0 -83 27 -140 67 -140z" />
    <glyph glyph-name="one.dnom" horiz-adv-x="286" 
d="M128 0v309l-73 -51l-53 75l151 111h82v-444h-107z" />
    <glyph glyph-name="two.dnom" horiz-adv-x="374" 
d="M28 0v68l138 150c17 19 63 67 63 104c0 24 -16 41 -41 41c-29 0 -47 -23 -47 -55l-108 9c0 80 61 133 153 133c91 0 150 -49 150 -121c0 -57 -35 -104 -99 -169l-71 -73l176 1v-88h-314z" />
    <glyph glyph-name="three.dnom" horiz-adv-x="363" 
d="M212 276c74 -8 123 -60 123 -135c0 -88 -68 -147 -178 -147c-54 0 -109 16 -139 41l40 78c20 -18 54 -31 87 -31c50 0 79 24 79 59c0 34 -28 56 -70 56c-21 0 -40 -5 -56 -15l-29 54l103 121h-131v87h267v-66z" />
    <glyph glyph-name="four.dnom" horiz-adv-x="402" 
d="M211 0v80h-198v73l223 291h83v-275h57v-89h-57v-80h-108zM116 165h98l1 129z" />
    <glyph glyph-name="five.dnom" horiz-adv-x="369" 
d="M150 -6c-55 0 -105 13 -136 38l32 77c24 -18 60 -27 95 -27c54 0 90 27 90 68c0 30 -22 52 -56 52c-25 0 -47 -12 -56 -25l-71 10l32 257h237v-87h-146l-10 -72c6 3 16 4 33 4c86 0 147 -53 147 -132c0 -97 -78 -163 -191 -163z" />
    <glyph glyph-name="six.dnom" horiz-adv-x="370" 
d="M211 274c73 0 139 -54 139 -136c0 -86 -65 -144 -162 -144s-162 57 -162 143c0 57 20 98 56 148l116 159h120l-131 -171c7 1 15 1 24 1zM188 82c30 0 52 22 52 56c0 33 -22 55 -52 55c-31 0 -52 -22 -52 -55c0 -34 21 -56 52 -56z" />
    <glyph glyph-name="seven.dnom" horiz-adv-x="333" 
d="M15 444h312l-145 -444h-112l119 357h-174v87z" />
    <glyph glyph-name="eight.dnom" horiz-adv-x="386" 
d="M288 231c42 -21 67 -57 67 -103c0 -81 -65 -134 -162 -134s-162 53 -162 131c0 47 25 85 68 106c-35 20 -56 54 -56 94c0 76 60 125 150 125s150 -50 150 -124c0 -41 -20 -74 -55 -95zM193 363c-24 0 -40 -19 -40 -45c0 -27 16 -44 40 -44s40 17 40 44
c0 26 -16 45 -40 45zM193 82c30 0 52 21 52 52c0 32 -22 53 -52 53c-31 0 -52 -21 -52 -53c0 -31 21 -52 52 -52z" />
    <glyph glyph-name="nine.dnom" horiz-adv-x="370" 
d="M182 450c97 0 162 -57 162 -143c0 -57 -20 -98 -56 -148l-116 -159h-120l131 171c-7 -1 -15 -1 -24 -1c-73 0 -139 54 -139 136c0 86 65 144 162 144zM130 306c0 -33 22 -55 52 -55c31 0 52 22 52 55c0 34 -21 56 -52 56c-30 0 -52 -22 -52 -56z" />
    <glyph glyph-name="zero.numr" horiz-adv-x="400" 
d="M202 290c-107 0 -177 91 -177 228s70 228 177 228c103 0 174 -91 174 -228s-71 -228 -174 -228zM202 378c40 0 66 57 66 140c0 84 -26 141 -66 141s-67 -57 -67 -141c0 -83 27 -140 67 -140z" />
    <glyph glyph-name="one.numr" horiz-adv-x="286" 
d="M128 296v309l-73 -51l-53 75l151 111h82v-444h-107z" />
    <glyph glyph-name="two.numr" horiz-adv-x="374" 
d="M28 296v68l138 150c17 19 63 67 63 104c0 24 -16 41 -41 41c-29 0 -47 -23 -47 -55l-108 9c0 80 61 133 153 133c91 0 150 -49 150 -121c0 -57 -35 -104 -99 -169l-71 -73l176 1v-88h-314z" />
    <glyph glyph-name="three.numr" horiz-adv-x="363" 
d="M212 572c74 -8 123 -60 123 -135c0 -88 -68 -147 -178 -147c-54 0 -109 16 -139 41l40 78c20 -18 54 -31 87 -31c50 0 79 24 79 59c0 34 -28 56 -70 56c-21 0 -40 -5 -56 -15l-29 54l103 121h-131v87h267v-66z" />
    <glyph glyph-name="four.numr" horiz-adv-x="402" 
d="M211 296v80h-198v73l223 291h83v-275h57v-89h-57v-80h-108zM116 461h98l1 129z" />
    <glyph glyph-name="five.numr" horiz-adv-x="369" 
d="M150 290c-55 0 -105 13 -136 38l32 77c24 -18 60 -27 95 -27c54 0 90 27 90 68c0 30 -22 52 -56 52c-25 0 -47 -12 -56 -25l-71 10l32 257h237v-87h-146l-10 -72c6 3 16 4 33 4c86 0 147 -53 147 -132c0 -97 -78 -163 -191 -163z" />
    <glyph glyph-name="six.numr" horiz-adv-x="370" 
d="M211 570c73 0 139 -54 139 -136c0 -86 -65 -144 -162 -144s-162 57 -162 143c0 57 20 98 56 148l116 159h120l-131 -171c7 1 15 1 24 1zM188 378c30 0 52 22 52 56c0 33 -22 55 -52 55c-31 0 -52 -22 -52 -55c0 -34 21 -56 52 -56z" />
    <glyph glyph-name="seven.numr" horiz-adv-x="333" 
d="M15 740h312l-145 -444h-112l119 357h-174v87z" />
    <glyph glyph-name="eight.numr" horiz-adv-x="386" 
d="M288 527c42 -21 67 -57 67 -103c0 -81 -65 -134 -162 -134s-162 53 -162 131c0 47 25 85 68 106c-35 20 -56 54 -56 94c0 76 60 125 150 125s150 -50 150 -124c0 -41 -20 -74 -55 -95zM193 659c-24 0 -40 -19 -40 -45c0 -27 16 -44 40 -44s40 17 40 44
c0 26 -16 45 -40 45zM193 378c30 0 52 21 52 52c0 32 -22 53 -52 53c-31 0 -52 -21 -52 -53c0 -31 21 -52 52 -52z" />
    <glyph glyph-name="nine.numr" horiz-adv-x="370" 
d="M182 746c97 0 162 -57 162 -143c0 -57 -20 -98 -56 -148l-116 -159h-120l131 171c-7 -1 -15 -1 -24 -1c-73 0 -139 54 -139 136c0 86 65 144 162 144zM130 602c0 -33 22 -55 52 -55c31 0 52 22 52 55c0 34 -21 56 -52 56c-30 0 -52 -22 -52 -56z" />
    <glyph glyph-name="uni2070" unicode="&#x2070;" horiz-adv-x="400" 
d="M202 390c-107 0 -177 91 -177 228s70 228 177 228c103 0 174 -91 174 -228s-71 -228 -174 -228zM202 478c40 0 66 57 66 140c0 84 -26 141 -66 141s-67 -57 -67 -141c0 -83 27 -140 67 -140z" />
    <glyph glyph-name="uni00B9" unicode="&#xb9;" horiz-adv-x="286" 
d="M128 396v309l-73 -51l-53 75l151 111h82v-444h-107z" />
    <glyph glyph-name="uni00B2" unicode="&#xb2;" horiz-adv-x="374" 
d="M28 396v68l138 150c17 19 63 67 63 104c0 24 -16 41 -41 41c-29 0 -47 -23 -47 -55l-108 9c0 80 61 133 153 133c91 0 150 -49 150 -121c0 -57 -35 -104 -99 -169l-71 -73l176 1v-88h-314z" />
    <glyph glyph-name="uni00B3" unicode="&#xb3;" horiz-adv-x="363" 
d="M212 672c74 -8 123 -60 123 -135c0 -88 -68 -147 -178 -147c-54 0 -109 16 -139 41l40 78c20 -18 54 -31 87 -31c50 0 79 24 79 59c0 34 -28 56 -70 56c-21 0 -40 -5 -56 -15l-29 54l103 121h-131v87h267v-66z" />
    <glyph glyph-name="uni2074" unicode="&#x2074;" horiz-adv-x="402" 
d="M211 396v80h-198v73l223 291h83v-275h57v-89h-57v-80h-108zM116 561h98l1 129z" />
    <glyph glyph-name="uni2075" unicode="&#x2075;" horiz-adv-x="369" 
d="M150 390c-55 0 -105 13 -136 38l32 77c24 -18 60 -27 95 -27c54 0 90 27 90 68c0 30 -22 52 -56 52c-25 0 -47 -12 -56 -25l-71 10l32 257h237v-87h-146l-10 -72c6 3 16 4 33 4c86 0 147 -53 147 -132c0 -97 -78 -163 -191 -163z" />
    <glyph glyph-name="uni2076" unicode="&#x2076;" horiz-adv-x="370" 
d="M211 670c73 0 139 -54 139 -136c0 -86 -65 -144 -162 -144s-162 57 -162 143c0 57 20 98 56 148l116 159h120l-131 -171c7 1 15 1 24 1zM188 478c30 0 52 22 52 56c0 33 -22 55 -52 55c-31 0 -52 -22 -52 -55c0 -34 21 -56 52 -56z" />
    <glyph glyph-name="uni2077" unicode="&#x2077;" horiz-adv-x="333" 
d="M15 840h312l-145 -444h-112l119 357h-174v87z" />
    <glyph glyph-name="uni2078" unicode="&#x2078;" horiz-adv-x="386" 
d="M288 627c42 -21 67 -57 67 -103c0 -81 -65 -134 -162 -134s-162 53 -162 131c0 47 25 85 68 106c-35 20 -56 54 -56 94c0 76 60 125 150 125s150 -50 150 -124c0 -41 -20 -74 -55 -95zM193 759c-24 0 -40 -19 -40 -45c0 -27 16 -44 40 -44s40 17 40 44
c0 26 -16 45 -40 45zM193 478c30 0 52 21 52 52c0 32 -22 53 -52 53c-31 0 -52 -21 -52 -53c0 -31 21 -52 52 -52z" />
    <glyph glyph-name="uni2079" unicode="&#x2079;" horiz-adv-x="370" 
d="M182 846c97 0 162 -57 162 -143c0 -57 -20 -98 -56 -148l-116 -159h-120l131 171c-7 -1 -15 -1 -24 -1c-73 0 -139 54 -139 136c0 86 65 144 162 144zM130 702c0 -33 22 -55 52 -55c31 0 52 22 52 55c0 34 -21 56 -52 56c-30 0 -52 -22 -52 -56z" />
    <glyph glyph-name="fraction" unicode="&#x2044;" horiz-adv-x="238" 
d="M-45 -10l-88 54l414 706l88 -53z" />
    <glyph glyph-name="onehalf" unicode="&#xbd;" horiz-adv-x="898" 
d="M241 -10l-88 54l414 706l88 -53zM128 296v309l-73 -51l-53 75l151 111h82v-444h-107zM552 0v68l138 150c17 19 63 67 63 104c0 24 -16 41 -41 41c-29 0 -47 -23 -47 -55l-108 9c0 80 61 133 153 133c91 0 150 -49 150 -121c0 -57 -35 -104 -99 -169l-71 -73l176 1v-88
h-314z" />
    <glyph glyph-name="onequarter" unicode="&#xbc;" horiz-adv-x="886" 
d="M241 -10l-88 54l414 706l88 -53zM128 296v309l-73 -51l-53 75l151 111h82v-444h-107zM695 0v80h-198v73l223 291h83v-275h57v-89h-57v-80h-108zM600 165h98l1 129z" />
    <glyph glyph-name="threequarters" unicode="&#xbe;" horiz-adv-x="963" 
d="M644 750l88 -53l-414 -707l-88 54zM335 437c0 -88 -68 -147 -178 -147c-54 0 -109 16 -139 41l40 78c20 -18 54 -31 87 -31c50 0 79 24 79 59c0 34 -28 56 -70 56c-21 0 -40 -5 -56 -15l-29 54l103 121h-131v87h267v-66l-96 -102c74 -8 123 -60 123 -135zM880 169h57v-89
h-57v-80h-108v80h-198v73l223 291h83v-275zM775 165l1 129l-99 -129h98z" />
    <glyph glyph-name="oneeighth" unicode="&#x215b;" horiz-adv-x="910" 
d="M567 750l88 -53l-414 -707l-88 54zM235 296h-107v309l-73 -51l-53 75l151 111h82v-444zM812 231c42 -21 67 -57 67 -103c0 -81 -65 -134 -162 -134s-162 53 -162 131c0 47 25 85 68 106c-35 20 -56 54 -56 94c0 76 60 125 150 125s150 -50 150 -124
c0 -41 -20 -74 -55 -95zM717 363c-24 0 -40 -19 -40 -45c0 -27 16 -44 40 -44s40 17 40 44c0 26 -16 45 -40 45zM717 82c30 0 52 21 52 52c0 32 -22 53 -52 53c-31 0 -52 -21 -52 -53c0 -31 21 -52 52 -52z" />
    <glyph glyph-name="threeeighths" unicode="&#x215c;" horiz-adv-x="987" 
d="M644 750l88 -53l-414 -707l-88 54zM335 437c0 -88 -68 -147 -178 -147c-54 0 -109 16 -139 41l40 78c20 -18 54 -31 87 -31c50 0 79 24 79 59c0 34 -28 56 -70 56c-21 0 -40 -5 -56 -15l-29 54l103 121h-131v87h267v-66l-96 -102c74 -8 123 -60 123 -135zM889 231
c42 -21 67 -57 67 -103c0 -81 -65 -134 -162 -134s-162 53 -162 131c0 47 25 85 68 106c-35 20 -56 54 -56 94c0 76 60 125 150 125s150 -50 150 -124c0 -41 -20 -74 -55 -95zM794 363c-24 0 -40 -19 -40 -45c0 -27 16 -44 40 -44s40 17 40 44c0 26 -16 45 -40 45zM794 82
c30 0 52 21 52 52c0 32 -22 53 -52 53c-31 0 -52 -21 -52 -53c0 -31 21 -52 52 -52z" />
    <glyph glyph-name="fiveeighths" unicode="&#x215d;" horiz-adv-x="993" 
d="M650 750l88 -53l-414 -707l-88 54zM341 453c0 -97 -78 -163 -191 -163c-55 0 -105 13 -136 38l32 77c24 -18 60 -27 95 -27c54 0 90 27 90 68c0 30 -22 52 -56 52c-25 0 -47 -12 -56 -25l-71 10l32 257h237v-87h-146l-10 -72c6 3 16 4 33 4c86 0 147 -53 147 -132z
M895 231c42 -21 67 -57 67 -103c0 -81 -65 -134 -162 -134s-162 53 -162 131c0 47 25 85 68 106c-35 20 -56 54 -56 94c0 76 60 125 150 125s150 -50 150 -124c0 -41 -20 -74 -55 -95zM800 363c-24 0 -40 -19 -40 -45c0 -27 16 -44 40 -44s40 17 40 44c0 26 -16 45 -40 45z
M800 82c30 0 52 21 52 52c0 32 -22 53 -52 53c-31 0 -52 -21 -52 -53c0 -31 21 -52 52 -52z" />
    <glyph glyph-name="seveneighths" unicode="&#x215e;" horiz-adv-x="928" 
d="M585 750l88 -53l-414 -707l-88 54zM182 296h-112l119 357h-174v87h312zM830 231c42 -21 67 -57 67 -103c0 -81 -65 -134 -162 -134s-162 53 -162 131c0 47 25 85 68 106c-35 20 -56 54 -56 94c0 76 60 125 150 125s150 -50 150 -124c0 -41 -20 -74 -55 -95zM735 363
c-24 0 -40 -19 -40 -45c0 -27 16 -44 40 -44s40 17 40 44c0 26 -16 45 -40 45zM735 82c30 0 52 21 52 52c0 32 -22 53 -52 53c-31 0 -52 -21 -52 -53c0 -31 21 -52 52 -52z" />
    <glyph glyph-name="uni2081.ss02" horiz-adv-x="243" 
d="M85 -100v357h-63v87h170v-444h-107z" />
    <glyph glyph-name="one.dnom.ss02" horiz-adv-x="243" 
d="M85 0v357h-63v87h170v-444h-107z" />
    <glyph glyph-name="one.numr.ss02" horiz-adv-x="243" 
d="M85 296v357h-63v87h170v-444h-107z" />
    <glyph glyph-name="uni00B9.ss02" horiz-adv-x="243" 
d="M85 396v357h-63v87h170v-444h-107z" />
    <glyph glyph-name="onehalf.ss02" horiz-adv-x="855" 
d="M198 -10l-88 54l414 706l88 -53zM85 296v357h-63v87h170v-444h-107zM509 0v68l138 150c17 19 63 67 63 104c0 24 -16 41 -41 41c-29 0 -47 -23 -47 -55l-108 9c0 80 61 133 153 133c91 0 150 -49 150 -121c0 -57 -35 -104 -99 -169l-71 -73l176 1v-88h-314z" />
    <glyph glyph-name="onequarter.ss02" horiz-adv-x="843" 
d="M198 -10l-88 54l414 706l88 -53zM85 296v357h-63v87h170v-444h-107zM652 0v80h-198v73l223 291h83v-275h57v-89h-57v-80h-108zM557 165h98l1 129z" />
    <glyph glyph-name="oneeighth.ss02" horiz-adv-x="867" 
d="M524 750l88 -53l-414 -707l-88 54zM192 296h-107v357h-63v87h170v-444zM769 231c42 -21 67 -57 67 -103c0 -81 -65 -134 -162 -134s-162 53 -162 131c0 47 25 85 68 106c-35 20 -56 54 -56 94c0 76 60 125 150 125s150 -50 150 -124c0 -41 -20 -74 -55 -95zM674 363
c-24 0 -40 -19 -40 -45c0 -27 16 -44 40 -44s40 17 40 44c0 26 -16 45 -40 45zM674 82c30 0 52 21 52 52c0 32 -22 53 -52 53c-31 0 -52 -21 -52 -53c0 -31 21 -52 52 -52z" />
    <glyph glyph-name="asterisk" unicode="*" horiz-adv-x="396" 
d="M354 589l-75 -22l48 -62l-84 -61l-45 65l-44 -65l-84 61l48 62l-75 22l32 99l74 -27l-3 79h104l-2 -79l74 27z" />
    <glyph glyph-name="backslash" unicode="\" horiz-adv-x="478" 
d="M273 -100l-239 880h171l239 -880h-171z" />
    <glyph glyph-name="periodcentered" unicode="&#xb7;" horiz-adv-x="305" 
d="M152 185c-59 0 -107 49 -107 108s48 107 107 107s107 -48 107 -107s-48 -108 -107 -108z" />
    <glyph glyph-name="bullet" unicode="&#x2022;" horiz-adv-x="413" 
d="M206 166c-82 0 -137 54 -137 136c0 83 55 137 137 137c83 0 137 -54 137 -137c0 -82 -54 -136 -137 -136z" />
    <glyph glyph-name="colon" unicode=":" horiz-adv-x="314" 
d="M158 341c-59 0 -108 48 -108 107s49 107 108 107s106 -48 106 -107s-47 -107 -106 -107zM158 -10c-59 0 -108 49 -108 108s49 107 108 107s106 -48 106 -107s-47 -108 -106 -108z" />
    <glyph glyph-name="comma" unicode="," horiz-adv-x="319" 
d="M6 -145l71 300h194l-94 -300h-171z" />
    <glyph glyph-name="ellipsis" unicode="&#x2026;" horiz-adv-x="866" 
d="M148 -10c-59 0 -107 49 -107 108s48 107 107 107s107 -48 107 -107s-48 -108 -107 -108zM433 -10c-59 0 -107 49 -107 108s48 107 107 107s107 -48 107 -107s-48 -108 -107 -108zM718 -10c-59 0 -107 49 -107 108s48 107 107 107s107 -48 107 -107s-48 -108 -107 -108z
" />
    <glyph glyph-name="exclam" unicode="!" horiz-adv-x="307" 
d="M81 245l-16 495h177l-16 -495h-145zM154 -10c-57 0 -99 42 -99 99s42 98 99 98s98 -41 98 -98s-41 -99 -98 -99z" />
    <glyph glyph-name="exclamdown" unicode="&#xa1;" horiz-adv-x="294" 
d="M147 359c-57 0 -98 41 -98 98s41 98 98 98s98 -41 98 -98s-41 -98 -98 -98zM59 -220l16 521h145l15 -521h-176z" />
    <glyph glyph-name="numbersign" unicode="#" horiz-adv-x="775" 
d="M717 413h-123l-31 -130h125l-27 -110h-123l-40 -173h-121l40 173h-143l-40 -173h-121l40 173h-121l27 110h119l31 130h-121l25 110h121l41 177h121l-41 -177h143l41 177h121l-41 -177h123zM442 283l31 130h-143l-31 -130h143z" />
    <glyph glyph-name="period" unicode="." horiz-adv-x="296" 
d="M148 -10c-59 0 -107 49 -107 108s48 107 107 107s107 -48 107 -107s-48 -108 -107 -108z" />
    <glyph glyph-name="question" unicode="?" horiz-adv-x="565" 
d="M205 245c0 124 54 178 97 218c27 25 48 46 48 75c0 40 -30 67 -76 67c-43 0 -75 -27 -81 -67l-162 7c7 124 104 205 243 205c155 0 257 -81 257 -203c0 -76 -45 -115 -91 -154c-45 -38 -90 -77 -90 -148h-145zM278 -10c-57 0 -99 42 -99 99s42 98 99 98s98 -41 98 -98
s-41 -99 -98 -99z" />
    <glyph glyph-name="questiondown" unicode="&#xbf;" horiz-adv-x="559" 
d="M285 359c-57 0 -98 41 -98 98s41 98 98 98s98 -41 98 -98s-41 -98 -98 -98zM289 -230c-155 0 -258 81 -258 203c0 77 46 113 90 155c47 44 92 88 92 173h145c0 -139 -54 -200 -97 -243c-27 -25 -48 -46 -48 -76c0 -40 30 -67 76 -67c42 0 75 27 81 67l161 -7
c-6 -124 -103 -205 -242 -205z" />
    <glyph glyph-name="quotedbl" unicode="&#x22;" horiz-adv-x="443" 
d="M56 564l-3 216h134l-4 -216h-127zM260 564l-4 216h134l-3 -216h-127z" />
    <glyph glyph-name="quotesingle" unicode="'" horiz-adv-x="239" 
d="M56 564l-3 216h134l-4 -216h-127z" />
    <glyph glyph-name="semicolon" unicode=";" horiz-adv-x="337" 
d="M176 341c-59 0 -108 48 -108 107s49 107 108 107s106 -48 106 -107s-47 -107 -106 -107zM14 -145l70 300h195l-94 -300h-171z" />
    <glyph glyph-name="slash" unicode="/" horiz-adv-x="478" 
d="M34 -100l239 880h171l-239 -880h-171z" />
    <glyph glyph-name="underscore" unicode="_" horiz-adv-x="626" 
d="M25 -121v121h576v-121h-576z" />
    <glyph glyph-name="exclamdown.case" horiz-adv-x="317" 
d="M159 750c57 0 98 -42 98 -99s-41 -97 -98 -97s-99 40 -99 97s42 99 99 99zM86 495h145l16 -495h-177z" />
    <glyph glyph-name="questiondown.case" horiz-adv-x="565" 
d="M288 750c57 0 98 -42 98 -99s-41 -97 -98 -97s-98 40 -98 97s41 99 98 99zM360 495c0 -124 -54 -178 -97 -218c-27 -24 -48 -46 -48 -74c0 -41 31 -68 76 -68c43 0 76 27 81 68l162 -8c-7 -123 -103 -205 -243 -205c-154 0 -257 81 -257 203c0 76 45 115 91 154
c46 38 90 77 90 148h145z" />
    <glyph glyph-name="slash.case" horiz-adv-x="443" 
d="M35 0l201 740h171l-201 -740h-171z" />
    <glyph glyph-name="braceleft" unicode="{" horiz-adv-x="434" 
d="M284 -190c-108 0 -178 67 -178 168v188c0 38 -29 62 -71 62h-5v145h5c42 0 71 24 71 61v188c0 101 70 168 178 168c49 0 84 -5 120 -13v-136c-15 3 -32 4 -53 4c-42 0 -70 -30 -70 -75v-156c0 -56 -36 -101 -89 -114c53 -13 89 -57 89 -113v-156c0 -46 28 -76 70 -76
c21 0 38 1 53 4v-136c-36 -8 -71 -13 -120 -13z" />
    <glyph glyph-name="braceright" unicode="}" horiz-adv-x="434" 
d="M150 -190c-49 0 -84 5 -120 13v136c15 -3 32 -4 53 -4c42 0 70 30 70 76v156c0 56 36 100 89 113c-53 13 -89 58 -89 114v156c0 45 -28 75 -70 75c-21 0 -38 -1 -53 -4v136c36 8 71 13 120 13c108 0 178 -67 178 -168v-188c0 -37 29 -61 71 -61h5v-145h-5
c-42 0 -71 -24 -71 -62v-188c0 -101 -70 -168 -178 -168z" />
    <glyph glyph-name="bracketleft" unicode="[" horiz-adv-x="412" 
d="M74 -180v960h307v-145h-131v-670h131v-145h-307z" />
    <glyph glyph-name="bracketright" unicode="]" horiz-adv-x="412" 
d="M338 -180h-307v145h131v670h-131v145h307v-960z" />
    <glyph glyph-name="parenleft" unicode="(" horiz-adv-x="360" 
d="M186 -180c-56 87 -148 260 -148 480s92 393 148 480h158c-40 -70 -130 -237 -130 -480s90 -410 130 -480h-158z" />
    <glyph glyph-name="parenright" unicode=")" horiz-adv-x="360" 
d="M16 -180c40 70 131 237 131 480s-91 410 -131 480h158c56 -87 148 -260 148 -480s-92 -393 -148 -480h-158z" />
    <glyph glyph-name="braceleft.case" horiz-adv-x="454" 
d="M291 -50c-108 0 -178 67 -178 169v117c0 38 -29 62 -71 62h-5v145h5c42 0 71 24 71 61v118c0 101 70 168 178 168c49 0 84 -5 120 -13v-136c-15 3 -32 4 -53 4c-42 0 -70 -30 -70 -75v-86c0 -56 -36 -101 -89 -114c53 -13 89 -57 89 -113v-86c0 -46 28 -76 70 -76
c21 0 38 2 53 5v-137c-36 -8 -71 -13 -120 -13z" />
    <glyph glyph-name="braceright.case" horiz-adv-x="454" 
d="M163 -50c-49 0 -84 5 -120 13v137c15 -3 32 -5 52 -5c43 0 71 30 71 76v86c0 56 35 100 88 113c-53 13 -88 58 -88 114v86c0 45 -28 75 -71 75c-20 0 -37 -1 -52 -4v136c36 8 71 13 120 13c108 0 178 -67 178 -168v-118c0 -37 29 -61 71 -61h5v-145h-5
c-42 0 -71 -24 -71 -62v-117c0 -102 -70 -169 -178 -169z" />
    <glyph glyph-name="bracketleft.case" horiz-adv-x="430" 
d="M79 -40v820h307v-145h-131v-529h131v-146h-307z" />
    <glyph glyph-name="bracketright.case" horiz-adv-x="430" 
d="M351 -40h-307v146h131v529h-131v145h307v-820z" />
    <glyph glyph-name="parenleft.case" horiz-adv-x="376" 
d="M192 -40c-66 87 -148 220 -148 410s82 323 148 410h158c-50 -70 -131 -237 -131 -410s81 -340 131 -410h-158z" />
    <glyph glyph-name="parenright.case" horiz-adv-x="376" 
d="M26 -40c50 70 131 237 131 410s-81 340 -131 410h158c66 -87 148 -220 148 -410s-82 -323 -148 -410h-158z" />
    <glyph glyph-name="emdash" unicode="&#x2014;" horiz-adv-x="1014" 
d="M58 231v121h898v-121h-898z" />
    <glyph glyph-name="endash" unicode="&#x2013;" horiz-adv-x="640" 
d="M58 231v121h524v-121h-524z" />
    <glyph glyph-name="hyphen" unicode="-" horiz-adv-x="503" 
d="M58 231v121h387v-121h-387z" />
    <glyph glyph-name="uni00AD" unicode="&#xad;" horiz-adv-x="503" 
d="M58 231v121h387v-121h-387z" />
    <glyph glyph-name="guillemotleft" unicode="&#xab;" horiz-adv-x="715" 
d="M393 503l-176 -233l176 -232h-181l-182 232l182 233h181zM681 503l-176 -233l176 -232h-180l-183 232l183 233h180z" />
    <glyph glyph-name="guillemotright" unicode="&#xbb;" horiz-adv-x="715" 
d="M215 503l182 -233l-182 -232h-181l176 232l-176 233h181zM503 503l182 -233l-182 -232h-180l175 232l-175 233h180z" />
    <glyph glyph-name="guilsinglleft" unicode="&#x2039;" horiz-adv-x="427" 
d="M393 503l-176 -233l176 -232h-181l-182 232l182 233h181z" />
    <glyph glyph-name="guilsinglright" unicode="&#x203a;" horiz-adv-x="427" 
d="M215 503l182 -233l-182 -232h-181l176 232l-176 233h181z" />
    <glyph glyph-name="quotedblbase" unicode="&#x201e;" horiz-adv-x="547" 
d="M11 -123l65 277h177l-89 -277h-153zM258 -123l64 277h177l-88 -277h-153z" />
    <glyph glyph-name="quotedblleft" unicode="&#x201c;" horiz-adv-x="552" 
d="M278 741l-65 -277h-177l89 277h153zM524 741l-64 -277h-177l88 277h153z" />
    <glyph glyph-name="quotedblright" unicode="&#x201d;" horiz-adv-x="549" 
d="M40 462l64 277h177l-88 -277h-153zM286 462l65 277h177l-89 -277h-153z" />
    <glyph glyph-name="quoteleft" unicode="&#x2018;" horiz-adv-x="305" 
d="M277 740l-65 -277h-177l89 277h153z" />
    <glyph glyph-name="quoteright" unicode="&#x2019;" horiz-adv-x="301" 
d="M40 463l64 277h177l-88 -277h-153z" />
    <glyph glyph-name="quotesinglbase" unicode="&#x201a;" horiz-adv-x="301" 
d="M11 -123l65 277h177l-89 -277h-153z" />
    <glyph glyph-name="space" unicode=" " horiz-adv-x="238" 
 />
    <glyph glyph-name="uni00A0" unicode="&#xa0;" horiz-adv-x="238" 
 />
    <glyph glyph-name="CR" unicode="&#xd;" horiz-adv-x="203" 
 />
    <glyph glyph-name=".null" horiz-adv-x="0" 
 />
    <glyph glyph-name="cent" unicode="&#xa2;" horiz-adv-x="591" 
d="M543 117c-34 -33 -77 -55 -125 -67v-90h-159v86c-138 27 -226 131 -226 277c0 144 88 248 226 275v87h159v-91c40 -11 76 -30 107 -54l-96 -115c-23 21 -52 35 -92 35c-77 0 -127 -55 -127 -137s49 -137 127 -137c47 0 83 13 110 44z" />
    <glyph glyph-name="currency" unicode="&#xa4;" horiz-adv-x="658" 
d="M564 344c0 -38 -9 -74 -25 -106l71 -72l-102 -103l-73 72c-32 -16 -68 -25 -106 -25s-74 9 -106 24l-73 -72l-102 103l71 71c-17 32 -26 69 -26 108s9 76 26 108l-71 71l102 103l74 -74c31 15 67 24 105 24s74 -9 106 -24l73 72l102 -102l-71 -72c16 -32 25 -68 25 -106z
M329 236c56 0 100 48 100 108s-44 109 -100 109s-102 -49 -102 -109s46 -108 102 -108z" />
    <glyph glyph-name="dollar" unicode="$" horiz-adv-x="665" 
d="M625 218c0 -112 -79 -193 -204 -219v-89h-176v88c-72 13 -137 43 -189 88l66 118c66 -51 135 -69 199 -69c80 0 123 22 123 66c0 48 -54 68 -136 90l-38 10c-131 35 -224 89 -224 213c0 116 77 201 200 227v89h176v-89c59 -12 117 -37 169 -76l-77 -122
c-56 42 -113 62 -180 62c-65 0 -107 -24 -107 -62c0 -46 53 -64 122 -82l38 -11c119 -32 238 -98 238 -232z" />
    <glyph glyph-name="Euro" unicode="&#x20ac;" horiz-adv-x="860" 
d="M708 247l118 -106c-75 -100 -184 -151 -322 -151c-189 0 -330 95 -381 247h-81v107h60c-1 10 -1 19 -1 29v13h-59v107h76c47 158 190 257 385 257c121 0 223 -37 298 -118l-110 -113c-37 52 -105 86 -187 86c-89 0 -158 -42 -194 -112h197v-107h-224v-15
c0 -9 0 -18 1 -27h223v-107h-190c38 -64 106 -102 191 -102c95 0 155 42 200 112z" />
    <glyph glyph-name="florin" unicode="&#x192;" horiz-adv-x="518" 
d="M423 605c-55 0 -71 -27 -78 -71l-21 -118h141v-139h-166l-67 -377h-170l67 377h-79v139h104l30 170c20 109 106 164 215 164c42 0 79 -7 102 -17l-19 -136c-17 5 -42 8 -59 8z" />
    <glyph glyph-name="uni20BD" unicode="&#x20bd;" horiz-adv-x="711" 
d="M402 278h-112v-42h200v-107h-200v-129h-176v129h-59v107h59v42h-59v107h59v355h297c161 0 268 -90 268 -225c0 -142 -110 -237 -277 -237zM290 595v-172h102c68 0 106 34 106 86s-42 86 -106 86h-102z" />
    <glyph glyph-name="uni20B9" unicode="&#x20b9;" horiz-adv-x="627" 
d="M582 740v-107h-138c28 -27 47 -60 56 -98h77v-108h-76c-13 -70 -50 -126 -106 -163l172 -264h-206l-132 216h-11h-161v145h149c51 0 90 25 108 66h-257v108h258c-16 37 -49 60 -93 60h-165v145h525z" />
    <glyph glyph-name="sterling" unicode="&#xa3;" horiz-adv-x="639" 
d="M293 139h299v-139h-545v137h70v148h-60v139h60v128c0 119 94 198 235 198c140 0 234 -80 234 -201l-172 -11c0 40 -25 67 -62 67c-35 0 -59 -23 -59 -59v-122h254v-139h-254v-146z" />
    <glyph glyph-name="yen" unicode="&#xa5;" horiz-adv-x="750" 
d="M722 740l-203 -376h89v-107h-146v-42h146v-107h-146v-108h-175v108h-145v107h145v42h-145v107h88l-203 376h188l161 -326l160 326h186z" />
    <glyph glyph-name="plus" unicode="+" horiz-adv-x="573" 
d="M535 422v-139h-163v-171h-170v171h-163v139h163v171h170v-171h163z" />
    <glyph glyph-name="minus" unicode="&#x2212;" horiz-adv-x="620" 
d="M62 283v139h496v-139h-496z" />
    <glyph glyph-name="multiply" unicode="&#xd7;" horiz-adv-x="536" 
d="M491 470l-119 -119l117 -117l-104 -104l-117 117l-117 -117l-104 104l117 117l-119 119l105 104l118 -118l118 118z" />
    <glyph glyph-name="divide" unicode="&#xf7;" horiz-adv-x="581" 
d="M292 461c-57 0 -99 41 -99 98s42 98 99 98s97 -41 97 -98s-40 -98 -97 -98zM43 283v139h496v-139h-496zM292 49c-57 0 -99 41 -99 98s42 98 99 98s97 -41 97 -98s-40 -98 -97 -98z" />
    <glyph glyph-name="equal" unicode="=" horiz-adv-x="618" 
d="M61 390v140h496v-140h-496zM61 175v140h496v-140h-496z" />
    <glyph glyph-name="notequal" unicode="&#x2260;" horiz-adv-x="618" 
d="M557 390h-151l-20 -75h171v-140h-209l-32 -120h-171l32 120h-116v140h154l20 75h-174v140h212l32 120h171l-32 -120h113v-140z" />
    <glyph glyph-name="greater" unicode="&#x3e;" horiz-adv-x="601" 
d="M68 623l498 -218v-110l-498 -217v158l288 114l-288 114v159z" />
    <glyph glyph-name="less" unicode="&#x3c;" horiz-adv-x="601" 
d="M532 623v-159l-287 -114l287 -114v-158l-497 217v110z" />
    <glyph glyph-name="greaterequal" unicode="&#x2265;" horiz-adv-x="619" 
d="M564 388l-498 -200v158l263 97l-263 96v159l498 -200v-110zM65 151h500v-140h-500v140z" />
    <glyph glyph-name="lessequal" unicode="&#x2264;" horiz-adv-x="620" 
d="M554 346v-158l-498 200v110l498 200v-159l-262 -96zM55 151h500v-140h-500v140z" />
    <glyph glyph-name="plusminus" unicode="&#xb1;" horiz-adv-x="623" 
d="M397 513h165v-139h-165v-171h-171v171h-165v139h165v171h171v-171zM61 11v140h501v-140h-501z" />
    <glyph glyph-name="approxequal" unicode="&#x2248;" horiz-adv-x="610" 
d="M410 312c-79 0 -158 49 -206 49c-33 0 -54 -15 -54 -39h-90c0 95 56 158 141 158c83 0 156 -47 206 -47c34 0 54 11 54 37h90c0 -101 -56 -158 -141 -158zM410 112c-79 0 -158 49 -206 49c-33 0 -54 -15 -54 -39h-90c0 95 56 158 141 158c83 0 156 -47 206 -47
c34 0 54 11 54 37h90c0 -101 -56 -158 -141 -158z" />
    <glyph glyph-name="asciitilde" unicode="~" horiz-adv-x="613" 
d="M412 212c-79 0 -158 49 -206 49c-33 0 -54 -15 -54 -39h-90c0 95 56 158 141 158c83 0 156 -47 206 -47c34 0 54 11 54 37h90c0 -101 -56 -158 -141 -158z" />
    <glyph glyph-name="logicalnot" unicode="&#xac;" horiz-adv-x="613" 
d="M548 476v-310h-170v171h-326v139h496z" />
    <glyph glyph-name="emptyset" unicode="&#x2205;" horiz-adv-x="691" 
d="M573 550c45 -49 71 -115 71 -193c0 -170 -120 -283 -297 -283c-62 0 -117 14 -163 38l-34 -38l-66 51l34 38c-45 49 -71 115 -71 194c0 169 120 282 300 282c61 0 115 -13 160 -38l34 38l66 -51zM223 357c0 -23 4 -45 11 -63l167 188c-16 8 -35 12 -55 12
c-74 0 -123 -55 -123 -137zM346 220c73 0 122 55 122 137c0 23 -4 44 -11 62l-166 -187c16 -8 34 -12 55 -12z" />
    <glyph glyph-name="infinity" unicode="&#x221e;" horiz-adv-x="743" 
d="M514 453c113 0 187 -69 187 -174c0 -104 -74 -173 -187 -173c-61 0 -111 25 -142 66c-30 -41 -80 -66 -142 -66c-111 0 -187 69 -187 173c0 105 76 174 187 174c62 0 112 -25 142 -67c31 42 81 67 142 67zM242 214c36 0 61 26 61 65c0 40 -25 66 -61 66
c-38 0 -63 -26 -63 -66c0 -39 25 -65 63 -65zM503 214c35 0 60 26 60 65c0 40 -25 66 -60 66c-38 0 -63 -26 -63 -66c0 -39 25 -65 63 -65z" />
    <glyph glyph-name="integral" unicode="&#x222b;" horiz-adv-x="461" 
d="M329 790c57 0 101 -18 132 -51l-45 -117c-16 16 -33 23 -52 23c-29 0 -46 -18 -46 -44v-673c0 -95 -78 -158 -187 -158c-57 0 -100 18 -132 51l46 117c16 -16 33 -23 51 -23c29 0 46 18 46 44v673c0 95 79 158 187 158z" />
    <glyph glyph-name="product" unicode="&#x220f;" horiz-adv-x="739" 
d="M661 780v-1000h-176v855h-231v-855h-175v1000h582z" />
    <glyph glyph-name="summation" unicode="&#x2211;" horiz-adv-x="688" 
d="M34 -220v111l280 392l-270 386v111h595v-145h-383l264 -352l-275 -358h404v-145h-615z" />
    <glyph glyph-name="radical" unicode="&#x221a;" horiz-adv-x="802" 
d="M223 -220l-224 545h186l123 -353l304 808h186l-405 -1000h-170z" />
    <glyph glyph-name="partialdiff" unicode="&#x2202;" horiz-adv-x="705" 
d="M327 750c205 0 341 -150 341 -377c0 -229 -147 -383 -365 -383c-167 0 -276 89 -276 223c0 148 176 250 445 264c-24 79 -77 128 -147 128c-69 0 -127 -34 -159 -86l-110 113c69 81 161 118 271 118zM299 135c102 0 173 77 185 198c-170 -4 -282 -52 -282 -123
c0 -45 39 -75 97 -75z" />
    <glyph glyph-name="percent" unicode="%" horiz-adv-x="912" 
d="M231 403c-119 0 -199 69 -199 174c0 104 80 173 199 173s198 -69 198 -173c0 -105 -79 -174 -198 -174zM291 -10l-88 54l414 706l88 -53zM231 511c36 0 61 26 61 66s-25 65 -61 65c-37 0 -62 -25 -62 -65s25 -66 62 -66zM683 -10c-119 0 -199 69 -199 174
c0 104 80 173 199 173s198 -69 198 -173c0 -105 -79 -174 -198 -174zM683 98c36 0 61 26 61 66s-25 65 -61 65c-38 0 -63 -25 -63 -65s25 -66 63 -66z" />
    <glyph glyph-name="perthousand" unicode="&#x2030;" horiz-adv-x="1354" 
d="M231 403c-119 0 -199 69 -199 174c0 104 80 173 199 173s198 -69 198 -173c0 -105 -79 -174 -198 -174zM291 -10l-88 54l414 706l88 -53zM231 511c36 0 61 26 61 66s-25 65 -61 65c-37 0 -62 -25 -62 -65s25 -66 62 -66zM683 -10c-119 0 -199 69 -199 174
c0 104 80 173 199 173s198 -69 198 -173c0 -105 -79 -174 -198 -174zM1125 -10c-119 0 -199 69 -199 174c0 104 80 173 199 173s198 -69 198 -173c0 -105 -79 -174 -198 -174zM683 98c36 0 61 26 61 66s-25 65 -61 65c-38 0 -63 -25 -63 -65s25 -66 63 -66zM1125 98
c36 0 61 26 61 66s-25 65 -61 65c-37 0 -62 -25 -62 -65s25 -66 62 -66z" />
    <glyph glyph-name="lozenge" unicode="&#x25ca;" horiz-adv-x="649" 
d="M404 645l211 -322l-211 -323h-159l-210 323l210 322h159zM325 149l115 174l-115 174l-115 -174z" />
    <glyph glyph-name="at" unicode="@" horiz-adv-x="1155" 
d="M650 485h163v-253c0 -31 19 -52 48 -52c50 0 80 66 80 146c0 173 -138 278 -342 278c-234 0 -383 -138 -383 -345c0 -206 145 -344 383 -344c73 0 193 13 274 33l49 -133c-94 -28 -232 -45 -331 -45c-336 0 -551 197 -551 491c0 296 220 489 559 489
c307 0 512 -159 512 -412c0 -176 -98 -304 -246 -304c-76 0 -136 33 -169 90c-32 -55 -87 -89 -160 -89c-121 0 -216 91 -216 227c0 139 97 231 211 231c50 0 89 -18 117 -50zM569 180c45 0 74 34 74 83c0 51 -29 84 -74 84c-44 0 -73 -33 -73 -84c0 -49 29 -83 73 -83z" />
    <glyph glyph-name="ampersand" unicode="&#x26;" horiz-adv-x="776" 
d="M647 136c29 0 57 5 87 17v-136c-44 -19 -95 -27 -143 -27c-63 0 -114 26 -145 70c-45 -45 -105 -70 -175 -70c-136 0 -230 87 -230 217c0 87 49 156 130 194c-57 34 -91 88 -91 154c0 117 102 195 255 195c150 0 250 -81 250 -200v-86h141v-133h-142v-123
c0 -43 26 -72 63 -72zM335 605c-48 0 -79 -28 -79 -69c0 -43 31 -72 79 -72h80v69c0 43 -32 72 -80 72zM313 136c55 0 101 27 101 103v92h-80c-71 0 -117 -40 -117 -99c0 -58 39 -96 96 -96z" />
    <glyph glyph-name="paragraph" unicode="&#xb6;" horiz-adv-x="653" 
d="M564 740v-960h-125v839h-75v-839h-126v600h-66c-85 0 -142 73 -142 182c0 107 68 178 169 178h365z" />
    <glyph glyph-name="section" unicode="&#xa7;" horiz-adv-x="630" 
d="M586 258c0 -54 -17 -100 -47 -137c29 -32 47 -72 47 -123c0 -137 -109 -228 -272 -228c-98 0 -187 34 -255 96l64 118c62 -52 125 -69 181 -69c67 0 100 22 100 65c0 48 -44 66 -113 88l-33 10c-123 37 -210 90 -210 216c0 55 17 103 46 141c-29 29 -46 68 -46 119
c0 141 106 236 265 236c83 0 167 -26 241 -85l-76 -122c-53 42 -103 62 -162 62c-53 0 -86 -24 -86 -62c0 -46 45 -62 107 -82l32 -11c109 -35 217 -98 217 -232zM337 228l32 -10l37 -13c7 9 11 21 11 36c0 53 -50 76 -126 99l-33 11l-27 9c-9 -11 -13 -23 -13 -37
c0 -54 49 -72 119 -95z" />
    <glyph glyph-name="copyright" unicode="&#xa9;" horiz-adv-x="873" 
d="M437 -10c-238 0 -395 152 -395 380s157 380 395 380c237 0 394 -152 394 -380s-157 -380 -394 -380zM437 64c180 0 302 123 302 306c0 184 -122 307 -302 307s-303 -123 -303 -307c0 -183 123 -306 303 -306zM445 158c-135 0 -226 85 -226 211c0 125 90 207 225 207
c67 0 125 -19 167 -65l-71 -73c-18 28 -54 45 -95 45c-66 0 -110 -47 -110 -116c0 -70 45 -116 113 -116c49 0 79 21 102 59l76 -69c-42 -57 -103 -83 -181 -83z" />
    <glyph glyph-name="registered" unicode="&#xae;" horiz-adv-x="406" 
d="M204 790c95 0 159 -62 159 -155c0 -94 -64 -156 -159 -156c-97 0 -161 62 -161 156c0 93 64 155 161 155zM204 506c75 0 126 51 126 129s-51 129 -126 129c-76 0 -127 -51 -127 -129s51 -129 127 -129zM268 662c0 -21 -11 -37 -28 -46l40 -63h-46l-34 56h-24v-56h-40v163
h73c37 0 59 -22 59 -54zM176 682v-41h25c16 0 26 8 26 21c0 12 -9 20 -22 20h-29z" />
    <glyph glyph-name="trademark" unicode="&#x2122;" horiz-adv-x="744" 
d="M293 780v-73h-83v-213h-88v213h-85v73h256zM686 494h-89l-10 157l-69 -157h-34l-70 157l-9 -157h-89l22 286h95l68 -158l66 158h95z" />
    <glyph glyph-name="degree" unicode="&#xb0;" horiz-adv-x="364" 
d="M183 527c-89 0 -148 52 -148 132c0 79 59 131 148 131c88 0 147 -52 147 -131c0 -80 -59 -132 -147 -132zM183 611c26 0 44 19 44 48c0 28 -18 47 -44 47c-27 0 -45 -19 -45 -47c0 -29 18 -48 45 -48z" />
    <glyph glyph-name="bar" unicode="|" horiz-adv-x="323" 
d="M74 -220v1000h175v-1000h-175z" />
    <glyph glyph-name="brokenbar" unicode="&#xa6;" horiz-adv-x="321" 
d="M73 380v400h175v-400h-175zM73 -220v400h175v-400h-175z" />
    <glyph glyph-name="dagger" unicode="&#x2020;" horiz-adv-x="588" 
d="M551 545v-145h-169v-620h-176v620h-169v145h169v235h176v-235h169z" />
    <glyph glyph-name="daggerdbl" unicode="&#x2021;" horiz-adv-x="588" 
d="M551 400h-169v-80h169v-145h-169v-395h-176v395h-169v145h169v80h-169v145h169v235h176v-235h169v-145z" />
    <glyph glyph-name="asciicircum" unicode="^" horiz-adv-x="583" 
d="M544 306h-164l-88 176l-89 -176h-164l171 339h164z" />
    <glyph glyph-name="uni0308" unicode="&#x308;" horiz-adv-x="0" 
d="M-410 608c-57 0 -99 41 -99 98s42 98 99 98s98 -41 98 -98s-41 -98 -98 -98zM-143 608c-57 0 -99 41 -99 98s42 98 99 98s98 -41 98 -98s-41 -98 -98 -98z" />
    <glyph glyph-name="uni0307" unicode="&#x307;" horiz-adv-x="0" 
d="M-142 608c-57 0 -99 41 -99 98s42 98 99 98s98 -41 98 -98s-41 -98 -98 -98z" />
    <glyph glyph-name="gravecomb" unicode="&#x300;" horiz-adv-x="0" 
d="M-242 618l-191 167h197l138 -167h-144z" />
    <glyph glyph-name="acutecomb" unicode="&#x301;" horiz-adv-x="0" 
d="M-309 618l138 167h197l-191 -167h-144z" />
    <glyph glyph-name="uni030B" unicode="&#x30b;" horiz-adv-x="0" 
d="M-494 618l106 167h196l-158 -167h-144zM-271 618l106 167h196l-159 -167h-143z" />
    <glyph glyph-name="uni0302" unicode="&#x302;" horiz-adv-x="0" 
d="M-32 618h-155l-56 69l-56 -69h-156l132 167h160z" />
    <glyph glyph-name="uni030C" unicode="&#x30c;" horiz-adv-x="0" 
d="M-187 785h155l-131 -167h-160l-132 167h156l56 -69z" />
    <glyph glyph-name="uni0306" unicode="&#x306;" horiz-adv-x="0" 
d="M-218 609c-116 0 -193 70 -193 176h127c0 -47 27 -79 66 -79c40 0 66 32 66 79h127c0 -106 -77 -176 -193 -176z" />
    <glyph glyph-name="uni030A" unicode="&#x30a;" horiz-adv-x="0" 
d="M-166 584c-73 0 -122 44 -122 110c0 65 49 109 122 109s121 -44 121 -109c0 -66 -48 -110 -121 -110zM-166 659c20 0 34 14 34 35c0 20 -14 34 -34 34c-21 0 -35 -14 -35 -34c0 -21 14 -35 35 -35z" />
    <glyph glyph-name="tildecomb" unicode="&#x303;" horiz-adv-x="0" 
d="M-145 614c-61 0 -124 49 -161 49c-22 0 -34 -15 -34 -39h-90c0 96 48 159 121 159c65 0 123 -48 161 -48c21 0 34 12 34 38h90c0 -102 -48 -159 -121 -159z" />
    <glyph glyph-name="uni0304" unicode="&#x304;" horiz-adv-x="0" 
d="M-409 612v133h379v-133h-379z" />
    <glyph glyph-name="uni0312" unicode="&#x312;" horiz-adv-x="0" 
d="M-240 593l67 187h128l-43 -187h-152z" />
    <glyph glyph-name="uni0326" unicode="&#x326;" horiz-adv-x="0" 
d="M-212 -220l38 168h152l-62 -168h-128z" />
    <glyph glyph-name="uni0327" unicode="&#x327;" horiz-adv-x="0" 
d="M-107 -49c58 -5 95 -39 95 -86c0 -56 -52 -95 -136 -95c-40 0 -80 10 -102 23l29 60c13 -9 33 -16 55 -16c28 0 44 12 44 27s-15 23 -38 23c-12 0 -23 -3 -32 -7l-21 37l43 83h93z" />
    <glyph glyph-name="uni0328" unicode="&#x328;" horiz-adv-x="0" 
d="M-109 -230c-66 0 -110 38 -110 94c0 79 80 147 206 213v-77c-57 -36 -84 -72 -84 -107c0 -17 11 -28 31 -28c16 0 30 6 42 14l14 -81c-25 -17 -53 -28 -99 -28z" />
    <glyph glyph-name="uni0335" unicode="&#x335;" horiz-adv-x="0" 
d="M-537 231v121h396v-121h-396z" />
    <glyph glyph-name="uni0336" unicode="&#x336;" horiz-adv-x="0" 
d="M-884 231v121h846v-121h-846z" />
    <glyph glyph-name="uni0337" unicode="&#x337;" horiz-adv-x="0" 
d="M-264 439l165 117v-136l-165 -116v23l-161 -113v136l161 112v-23z" />
    <glyph glyph-name="uni0338" unicode="&#x338;" horiz-adv-x="0" 
d="M-450 -10l-88 54l414 706l88 -53z" />
    <glyph glyph-name="acute" unicode="&#xb4;" horiz-adv-x="600" 
d="M97 618l138 167h197l-191 -167h-144z" />
    <glyph glyph-name="breve" unicode="&#x2d8;" horiz-adv-x="600" 
d="M218 609c-116 0 -193 70 -193 176h127c0 -47 27 -79 66 -79c40 0 66 32 66 79h127c0 -106 -77 -176 -193 -176z" />
    <glyph glyph-name="caron" unicode="&#x2c7;" horiz-adv-x="600" 
d="M299 785h155l-131 -167h-160l-132 167h156l56 -69z" />
    <glyph glyph-name="cedilla" unicode="&#xb8;" horiz-adv-x="600" 
d="M160 -49c58 -5 95 -39 95 -86c0 -56 -52 -95 -136 -95c-40 0 -80 10 -102 23l29 60c13 -9 33 -16 55 -16c28 0 44 12 44 27s-15 23 -38 23c-12 0 -23 -3 -32 -7l-21 37l43 83h93z" />
    <glyph glyph-name="circumflex" unicode="&#x2c6;" horiz-adv-x="600" 
d="M454 618h-155l-56 69l-56 -69h-156l132 167h160z" />
    <glyph glyph-name="dieresis" unicode="&#xa8;" horiz-adv-x="600" 
d="M143 608c-57 0 -99 41 -99 98s42 98 99 98s98 -41 98 -98s-41 -98 -98 -98zM410 608c-57 0 -99 41 -99 98s42 98 99 98s98 -41 98 -98s-41 -98 -98 -98z" />
    <glyph glyph-name="dotaccent" unicode="&#x2d9;" horiz-adv-x="600" 
d="M143 608c-57 0 -99 41 -99 98s42 98 99 98s98 -41 98 -98s-41 -98 -98 -98z" />
    <glyph glyph-name="grave" unicode="`" horiz-adv-x="600" 
d="M164 618l-191 167h197l138 -167h-144z" />
    <glyph glyph-name="hungarumlaut" unicode="&#x2dd;" horiz-adv-x="600" 
d="M113 618l106 167h196l-158 -167h-144zM336 618l106 167h196l-159 -167h-143z" />
    <glyph glyph-name="macron" unicode="&#xaf;" horiz-adv-x="600" 
d="M30 612v133h379v-133h-379z" />
    <glyph glyph-name="ogonek" unicode="&#x2db;" horiz-adv-x="600" 
d="M159 -230c-66 0 -110 38 -110 94c0 79 80 147 206 213v-77c-57 -36 -84 -72 -84 -107c0 -17 11 -28 31 -28c16 0 30 6 42 14l14 -81c-25 -17 -53 -28 -99 -28z" />
    <glyph glyph-name="ring" unicode="&#x2da;" horiz-adv-x="600" 
d="M167 584c-73 0 -122 44 -122 110c0 65 49 109 122 109s121 -44 121 -109c0 -66 -48 -110 -121 -110zM167 659c20 0 34 14 34 35c0 20 -14 34 -34 34c-21 0 -35 -14 -35 -34c0 -21 14 -35 35 -35z" />
    <glyph glyph-name="tilde" unicode="&#x2dc;" horiz-adv-x="600" 
d="M310 614c-61 0 -124 49 -161 49c-22 0 -34 -15 -34 -39h-90c0 96 48 159 121 159c65 0 123 -48 161 -48c21 0 34 12 34 38h90c0 -102 -48 -159 -121 -159z" />
    <glyph glyph-name="logo" horiz-adv-x="1274" 
d="M76 -10c-10 0 -17 8 -17 18c0 5 1 11 5 15l342 341h-324c-10 0 -23 2 -23 19c0 7 3 11 7 16l340 342h-327c-12 0 -20 7 -20 19v1c0 12 8 19 20 19h370c10 0 23 -1 23 -20c0 -6 -2 -12 -8 -17l-341 -340h330c11 0 20 -9 20 -20v-327l339 338c5 6 11 8 17 8
c17 0 18 -13 18 -22v-324l340 338c4 5 10 8 16 8c10 0 17 -9 17 -19c0 -4 -1 -10 -6 -14l-368 -372c-6 -6 -11 -7 -17 -7c-19 0 -20 13 -20 23v324l-339 -340c-6 -6 -11 -7 -17 -7c-19 0 -20 13 -20 23v324l-340 -340c-6 -6 -11 -7 -17 -7z" />
    </font>
</defs>
</svg>
