<?xml version="1.0" standalone="no"?>
<!DOCTYPE svg PUBLIC "-//W3C//DTD SVG 1.1//EN" "http://www.w3.org/Graphics/SVG/1.1/DTD/svg11.dtd" >
<svg xmlns="http://www.w3.org/2000/svg" xmlns:xlink="http://www.w3.org/1999/xlink" version="1.1">
<metadata>
Created by FontForge 20170910 at Fri Oct 21 20:08:42 2016
 By Jimmy Wärting
Copyright \(c\) 2016 by Alberto Romanos. All rights reserved.
</metadata>
<defs>
<font id="BwModelica-ThinItalic" horiz-adv-x="615" >
  <font-face 
    font-family="Bw Modelica Thin"
    font-weight="300"
    font-style="italic"
    font-stretch="normal"
    units-per-em="1000"
    panose-1="0 0 4 0 0 0 0 0 0 0"
    ascent="780"
    descent="-220"
    x-height="522"
    cap-height="740"
    bbox="-845 -231 1263 1020"
    underline-thickness="50"
    underline-position="-100"
    slope="-10"
    stemh="26"
    stemv="30"
    unicode-range="U+000D-FB02"
  />
<missing-glyph horiz-adv-x="1274" 
d="M119 -10c-10 0 -17 8 -17 18c0 5 1 11 5 15l342 341h-324c-10 0 -23 2 -23 19c0 7 3 11 7 16l340 342h-327c-12 0 -20 7 -20 19v1c0 12 8 19 20 19h370c10 0 23 -1 23 -20c0 -6 -2 -12 -8 -17l-341 -340h330c11 0 20 -9 20 -20v-327l339 338c5 6 11 8 17 8
c17 0 18 -13 18 -22v-324l340 338c4 5 10 8 16 8c10 0 17 -9 17 -19c0 -4 -1 -10 -6 -14l-368 -372c-6 -6 -11 -7 -17 -7c-19 0 -20 13 -20 23v324l-339 -340c-6 -6 -11 -7 -17 -7c-19 0 -20 13 -20 23v324l-340 -340c-6 -6 -11 -7 -17 -7z" />
    <glyph glyph-name="fi" unicode="fi" horiz-adv-x="568" 
d="M198 641l-21 -119h205l-5 -26h-205l-87 -496h-30l88 496h-94l4 26h95l22 126c15 86 79 142 163 142c39 0 71 -6 97 -20l-5 -26c-23 14 -54 20 -90 20c-68 0 -124 -50 -137 -123zM533 740c14 0 25 -11 25 -26c0 -17 -14 -29 -30 -29c-14 0 -24 11 -24 26c0 17 14 29 29 29
zM391 0l92 522h30l-92 -522h-30z" />
    <glyph glyph-name="fl" unicode="fl" horiz-adv-x="571" 
d="M198 641l-21 -119h205l-5 -26h-205l-87 -496h-30l88 496h-94l4 26h95l22 126c15 86 79 142 163 142c39 0 71 -6 97 -20l-5 -26c-23 14 -54 20 -90 20c-68 0 -124 -50 -137 -123zM531 780h30l-138 -780h-30z" />
    <glyph glyph-name=".notdef" horiz-adv-x="1274" 
d="M119 -10c-10 0 -17 8 -17 18c0 5 1 11 5 15l342 341h-324c-10 0 -23 2 -23 19c0 7 3 11 7 16l340 342h-327c-12 0 -20 7 -20 19v1c0 12 8 19 20 19h370c10 0 23 -1 23 -20c0 -6 -2 -12 -8 -17l-341 -340h330c11 0 20 -9 20 -20v-327l339 338c5 6 11 8 17 8
c17 0 18 -13 18 -22v-324l340 338c4 5 10 8 16 8c10 0 17 -9 17 -19c0 -4 -1 -10 -6 -14l-368 -372c-6 -6 -11 -7 -17 -7c-19 0 -20 13 -20 23v324l-339 -340c-6 -6 -11 -7 -17 -7c-19 0 -20 13 -20 23v324l-340 -340c-6 -6 -11 -7 -17 -7z" />
    <glyph glyph-name="A" unicode="A" horiz-adv-x="703" 
d="M607 0l-59 224h-423l-139 -224h-37l462 740h32l200 -740h-36zM142 252h398l-119 450z" />
    <glyph glyph-name="Aacute" unicode="&#xc1;" horiz-adv-x="703" 
d="M619 980l-164 -142h-32l151 142h45zM607 0l-59 224h-423l-139 -224h-37l462 740h32l200 -740h-36zM142 252h398l-119 450z" />
    <glyph glyph-name="Abreve" unicode="&#x102;" horiz-adv-x="703" 
d="M444 828c-77 0 -124 47 -124 119c0 11 1 22 3 33h28c-2 -11 -3 -22 -3 -31c0 -60 36 -98 97 -98c72 0 128 53 141 129h29c-16 -93 -83 -152 -171 -152zM607 0l-59 224h-423l-139 -224h-37l462 740h32l200 -740h-36zM142 252h398l-119 450z" />
    <glyph glyph-name="Acircumflex" unicode="&#xc2;" horiz-adv-x="703" 
d="M466 961l-137 -123h-32l153 142h37l103 -142h-32zM607 0l-59 224h-423l-139 -224h-37l462 740h32l200 -740h-36zM142 252h398l-119 450z" />
    <glyph glyph-name="Adieresis" unicode="&#xc4;" horiz-adv-x="703" 
d="M369 903c-14 0 -24 11 -24 25c0 19 17 30 31 30s24 -11 24 -25c0 -19 -17 -30 -31 -30zM545 903c-14 0 -24 11 -24 25c0 19 17 30 30 30c14 0 24 -11 24 -25c0 -19 -17 -30 -30 -30zM607 0l-59 224h-423l-139 -224h-37l462 740h32l200 -740h-36zM142 252h398l-119 450z
" />
    <glyph glyph-name="Agrave" unicode="&#xc0;" horiz-adv-x="703" 
d="M460 838h-29l-114 142h42zM607 0l-59 224h-423l-139 -224h-37l462 740h32l200 -740h-36zM142 252h398l-119 450z" />
    <glyph glyph-name="Amacron" unicode="&#x100;" horiz-adv-x="703" 
d="M596 905l-4 -26h-281l4 26h281zM607 0l-59 224h-423l-139 -224h-37l462 740h32l200 -740h-36zM142 252h398l-119 450z" />
    <glyph glyph-name="Aogonek" unicode="&#x104;" horiz-adv-x="703" 
d="M539 -207c25 0 50 11 70 27l1 -22c-24 -19 -51 -28 -77 -28c-41 0 -66 24 -66 59c0 55 50 117 140 173l-59 222h-423l-139 -224h-37l462 740h32l200 -740c-100 -60 -147 -117 -147 -165c0 -25 17 -42 43 -42zM142 252h398l-119 450z" />
    <glyph glyph-name="Aring" unicode="&#xc5;" horiz-adv-x="703" 
d="M439 802c-54 0 -88 33 -88 83c0 71 51 124 121 124c55 0 89 -33 89 -84c0 -69 -52 -123 -122 -123zM471 988c-58 0 -95 -50 -95 -103c0 -38 24 -62 64 -62c58 0 96 52 96 102c0 39 -24 63 -65 63zM607 0l-59 224h-423l-139 -224h-37l462 740h32l200 -740h-36zM142 252
h398l-119 450z" />
    <glyph glyph-name="Atilde" unicode="&#xc3;" horiz-adv-x="703" 
d="M380 932c-35 0 -69 -27 -76 -71h-25c9 59 55 100 104 100c70 0 87 -82 147 -82c35 0 69 27 77 72h25c-11 -60 -56 -100 -105 -100c-70 0 -87 81 -147 81zM607 0l-59 224h-423l-139 -224h-37l462 740h32l200 -740h-36zM142 252h398l-119 450z" />
    <glyph glyph-name="AE" unicode="&#xc6;" horiz-adv-x="1054" 
d="M1052 712h-516l36 -319h403l-5 -28h-394l38 -337h328l-5 -28h-355l-25 224h-410l-168 -224h-37l556 740h560zM168 252h386l-49 450z" />
    <glyph glyph-name="B" unicode="B" horiz-adv-x="667" 
d="M448 384c91 -13 145 -69 145 -151c0 -138 -117 -233 -262 -233h-276l131 740h247c119 0 191 -59 191 -151c0 -109 -73 -179 -176 -205zM214 712l-56 -318h208c125 0 223 80 223 191c0 77 -65 127 -171 127h-204zM326 28c130 0 231 86 231 202c0 83 -64 136 -170 136h-234
l-60 -338h233z" />
    <glyph glyph-name="C" unicode="C" horiz-adv-x="748" 
d="M363 -10c-188 0 -302 116 -302 296c0 256 180 464 434 464c121 0 198 -51 251 -122l-24 -19c-48 64 -118 113 -225 113c-237 0 -402 -201 -402 -433c0 -165 101 -271 270 -271c116 0 222 58 292 137l21 -25c-78 -84 -189 -140 -315 -140z" />
    <glyph glyph-name="Cacute" unicode="&#x106;" horiz-adv-x="748" 
d="M481 838l151 142h45l-164 -142h-32zM363 -10c-188 0 -302 116 -302 296c0 256 180 464 434 464c121 0 198 -51 251 -122l-24 -19c-48 64 -118 113 -225 113c-237 0 -402 -201 -402 -433c0 -165 101 -271 270 -271c116 0 222 58 292 137l21 -25
c-78 -84 -189 -140 -315 -140z" />
    <glyph glyph-name="Ccaron" unicode="&#x10c;" horiz-adv-x="748" 
d="M483 838l-103 142h33l91 -123l136 123h33l-153 -142h-37zM495 750c121 0 198 -51 251 -122l-24 -19c-48 64 -118 113 -225 113c-237 0 -402 -201 -402 -433c0 -165 101 -271 270 -271c116 0 222 58 292 137l21 -25c-78 -84 -189 -140 -315 -140c-188 0 -302 116 -302 296
c0 256 180 464 434 464z" />
    <glyph glyph-name="Ccedilla" unicode="&#xc7;" horiz-adv-x="748" 
d="M495 750c121 0 198 -51 251 -122l-24 -19c-48 64 -118 113 -225 113c-237 0 -402 -201 -402 -433c0 -165 101 -271 270 -271c116 0 222 58 292 137l21 -25c-77 -83 -185 -138 -308 -140l-55 -64c10 1 21 2 32 2c57 0 92 -27 92 -67c0 -58 -59 -91 -126 -91
c-34 0 -68 11 -89 31l14 18c20 -19 46 -26 74 -26c53 0 98 27 98 67c0 29 -28 47 -72 47c-19 0 -38 -3 -55 -9l-6 13l65 79c-175 9 -281 123 -281 296c0 256 180 464 434 464z" />
    <glyph glyph-name="Cdotaccent" unicode="&#x10a;" horiz-adv-x="748" 
d="M516 903c-14 0 -25 11 -25 26c0 17 15 29 30 29c14 0 25 -11 25 -26c0 -17 -14 -29 -30 -29zM363 -10c-188 0 -302 116 -302 296c0 256 180 464 434 464c121 0 198 -51 251 -122l-24 -19c-48 64 -118 113 -225 113c-237 0 -402 -201 -402 -433c0 -165 101 -271 270 -271
c116 0 222 58 292 137l21 -25c-78 -84 -189 -140 -315 -140z" />
    <glyph glyph-name="D" unicode="D" horiz-adv-x="748" 
d="M409 740c186 0 298 -114 298 -292c0 -251 -179 -448 -427 -448h-225l131 740h223zM274 28c233 0 398 190 398 417c0 163 -103 267 -276 267h-182l-121 -684h181z" />
    <glyph glyph-name="Eth" unicode="&#xd0;" horiz-adv-x="748" 
d="M409 740c186 0 298 -114 298 -292c0 -251 -179 -448 -427 -448h-225l64 360h-89l4 25h89l63 355h223zM274 28c233 0 398 190 398 417c0 163 -103 267 -276 267h-182l-58 -327h226l-5 -25h-225l-59 -332h181z" />
    <glyph glyph-name="Dcaron" unicode="&#x10e;" horiz-adv-x="748" 
d="M382 838l-103 142h33l91 -123l136 123h33l-153 -142h-37zM409 740c186 0 298 -114 298 -292c0 -251 -179 -448 -427 -448h-225l131 740h223zM274 28c233 0 398 190 398 417c0 163 -103 267 -276 267h-182l-121 -684h181z" />
    <glyph glyph-name="Dcroat" unicode="&#x110;" horiz-adv-x="748" 
d="M409 740c186 0 298 -114 298 -292c0 -251 -179 -448 -427 -448h-225l64 360h-89l4 25h89l63 355h223zM274 28c233 0 398 190 398 417c0 163 -103 267 -276 267h-182l-58 -327h226l-5 -25h-225l-59 -332h181z" />
    <glyph glyph-name="E" unicode="E" horiz-adv-x="606" 
d="M606 712h-392l-56 -319h371l-6 -28h-370l-60 -337h402l-5 -28h-435l131 740h425z" />
    <glyph glyph-name="Eacute" unicode="&#xc9;" horiz-adv-x="606" 
d="M591 980l-164 -142h-32l151 142h45zM606 712h-392l-56 -319h371l-6 -28h-370l-60 -337h402l-5 -28h-435l131 740h425z" />
    <glyph glyph-name="Ecaron" unicode="&#x11a;" horiz-adv-x="606" 
d="M397 838l-103 142h33l91 -123l136 123h33l-153 -142h-37zM606 712h-392l-56 -319h371l-6 -28h-370l-60 -337h402l-5 -28h-435l131 740h425z" />
    <glyph glyph-name="Ecircumflex" unicode="&#xca;" horiz-adv-x="606" 
d="M438 961l-137 -123h-32l153 142h37l103 -142h-32zM606 712h-392l-56 -319h371l-6 -28h-370l-60 -337h402l-5 -28h-435l131 740h425z" />
    <glyph glyph-name="Edieresis" unicode="&#xcb;" horiz-adv-x="606" 
d="M341 903c-14 0 -24 11 -24 25c0 19 17 30 31 30s24 -11 24 -25c0 -19 -17 -30 -31 -30zM517 903c-14 0 -24 11 -24 25c0 19 17 30 30 30c14 0 24 -11 24 -25c0 -19 -17 -30 -30 -30zM606 712h-392l-56 -319h371l-6 -28h-370l-60 -337h402l-5 -28h-435l131 740h425z" />
    <glyph glyph-name="Edotaccent" unicode="&#x116;" horiz-adv-x="606" 
d="M430 903c-14 0 -25 11 -25 26c0 17 15 29 30 29c14 0 25 -11 25 -26c0 -17 -14 -29 -30 -29zM606 712h-392l-56 -319h371l-6 -28h-370l-60 -337h402l-5 -28h-435l131 740h425z" />
    <glyph glyph-name="Egrave" unicode="&#xc8;" horiz-adv-x="606" 
d="M432 838h-29l-114 142h42zM606 712h-392l-56 -319h371l-6 -28h-370l-60 -337h402l-5 -28h-435l131 740h425z" />
    <glyph glyph-name="Emacron" unicode="&#x112;" horiz-adv-x="606" 
d="M568 905l-4 -26h-281l4 26h281zM606 712h-392l-56 -319h371l-6 -28h-370l-60 -337h402l-5 -28h-435l131 740h425z" />
    <glyph glyph-name="Eogonek" unicode="&#x118;" horiz-adv-x="606" 
d="M606 712h-392l-56 -319h371l-6 -28h-370l-60 -337h402l-5 -28c-100 -60 -147 -117 -147 -165c0 -25 17 -42 43 -42c25 0 50 11 70 27l1 -22c-24 -19 -51 -28 -77 -28c-41 0 -66 24 -66 59c0 55 49 115 137 171h-396l131 740h425z" />
    <glyph glyph-name="F" unicode="F" horiz-adv-x="537" 
d="M566 712h-352l-60 -339h322l-6 -28h-321l-61 -345h-33l131 740h386z" />
    <glyph glyph-name="G" unicode="G" horiz-adv-x="784" 
d="M757 377v-8c-2 -234 -197 -379 -404 -379c-182 0 -291 115 -291 294c0 253 173 466 422 466c94 0 160 -18 226 -73l-24 -22c-55 48 -121 67 -204 67c-228 0 -386 -208 -386 -437c0 -163 98 -267 261 -267c181 0 356 129 365 330h-268l6 29h297z" />
    <glyph glyph-name="Gbreve" unicode="&#x11e;" horiz-adv-x="784" 
d="M501 828c-77 0 -124 47 -124 119c0 11 1 22 3 33h28c-2 -11 -3 -22 -3 -31c0 -60 36 -98 97 -98c72 0 128 53 141 129h29c-16 -93 -83 -152 -171 -152zM757 377v-8c-2 -234 -197 -379 -404 -379c-182 0 -291 115 -291 294c0 253 173 466 422 466c94 0 160 -18 226 -73
l-24 -22c-55 48 -121 67 -204 67c-228 0 -386 -208 -386 -437c0 -163 98 -267 261 -267c181 0 356 129 365 330h-268l6 29h297z" />
    <glyph glyph-name="Gcommaaccent" unicode="&#x122;" horiz-adv-x="784" 
d="M757 377v-8c-2 -234 -197 -379 -404 -379c-182 0 -291 115 -291 294c0 253 173 466 422 466c94 0 160 -18 226 -73l-24 -22c-55 48 -121 67 -204 67c-228 0 -386 -208 -386 -437c0 -163 98 -267 261 -267c181 0 356 129 365 330h-268l6 29h297zM245 -220l89 168h31
l-95 -168h-25z" />
    <glyph glyph-name="Gdotaccent" unicode="&#x120;" horiz-adv-x="784" 
d="M515 903c-14 0 -25 11 -25 26c0 17 15 29 30 29c14 0 25 -11 25 -26c0 -17 -14 -29 -30 -29zM757 377v-8c-2 -234 -197 -379 -404 -379c-182 0 -291 115 -291 294c0 253 173 466 422 466c94 0 160 -18 226 -73l-24 -22c-55 48 -121 67 -204 67
c-228 0 -386 -208 -386 -437c0 -163 98 -267 261 -267c181 0 356 129 365 330h-268l6 29h297z" />
    <glyph glyph-name="H" unicode="H" horiz-adv-x="784" 
d="M716 740h34l-131 -740h-34l64 361h-497l-64 -361h-33l131 740h33l-62 -351h497z" />
    <glyph glyph-name="Hbar" unicode="&#x126;" horiz-adv-x="784" 
d="M817 589l-4 -25h-94l-100 -564h-34l64 361h-497l-64 -361h-33l100 564h-93l4 25h93l27 151h33l-27 -151h497l27 151h34l-27 -151h94zM654 389l31 175h-497l-31 -175h497z" />
    <glyph glyph-name="I" unicode="I" horiz-adv-x="253" 
d="M55 0l131 740h33l-131 -740h-33z" />
    <glyph glyph-name="Iacute" unicode="&#xcd;" horiz-adv-x="253" 
d="M199 838l151 142h45l-164 -142h-32zM55 0l131 740h33l-131 -740h-33z" />
    <glyph glyph-name="Icircumflex" unicode="&#xce;" horiz-adv-x="253" 
d="M366 838h-32l-92 123l-137 -123h-32l153 142h37zM55 0l131 740h33l-131 -740h-33z" />
    <glyph glyph-name="Idieresis" unicode="&#xcf;" horiz-adv-x="253" 
d="M145 903c-14 0 -24 11 -24 25c0 19 17 30 31 30s24 -11 24 -25c0 -19 -17 -30 -31 -30zM321 903c-14 0 -24 11 -24 25c0 19 17 30 30 30c14 0 24 -11 24 -25c0 -19 -17 -30 -30 -30zM55 0l131 740h33l-131 -740h-33z" />
    <glyph glyph-name="Idotaccent" unicode="&#x130;" horiz-adv-x="253" 
d="M234 903c-14 0 -25 11 -25 26c0 17 15 29 30 29c14 0 25 -11 25 -26c0 -17 -14 -29 -30 -29zM55 0l131 740h33l-131 -740h-33z" />
    <glyph glyph-name="Igrave" unicode="&#xcc;" horiz-adv-x="253" 
d="M207 838l-114 142h42l101 -142h-29zM55 0l131 740h33l-131 -740h-33z" />
    <glyph glyph-name="Imacron" unicode="&#x12a;" horiz-adv-x="253" 
d="M87 879l4 26h281l-4 -26h-281zM55 0l131 740h33l-131 -740h-33z" />
    <glyph glyph-name="Iogonek" unicode="&#x12e;" horiz-adv-x="253" 
d="M88 0c-100 -60 -147 -117 -147 -165c0 -25 17 -42 43 -42c25 0 50 11 70 27l1 -22c-24 -19 -51 -28 -77 -28c-41 0 -66 24 -66 59c0 56 52 119 144 176l130 735h33z" />
    <glyph glyph-name="J" unicode="J" horiz-adv-x="398" 
d="M86 -10c-50 0 -97 19 -120 50l13 21c25 -29 66 -43 107 -43c77 0 133 55 146 134l105 588h33l-106 -599c-16 -92 -82 -151 -178 -151z" />
    <glyph glyph-name="K" unicode="K" horiz-adv-x="658" 
d="M714 740l-348 -361l224 -379h-40l-215 366h-182l-65 -366h-33l131 740h33l-61 -346h180l334 346h42z" />
    <glyph glyph-name="Kcommaaccent" unicode="&#x136;" horiz-adv-x="658" 
d="M714 740l-348 -361l224 -379h-40l-215 366h-182l-65 -366h-33l131 740h33l-61 -346h180l334 346h42zM195 -220l89 168h31l-95 -168h-25z" />
    <glyph glyph-name="L" unicode="L" horiz-adv-x="513" 
d="M93 28h365l-5 -28h-398l131 740h33z" />
    <glyph glyph-name="Lacute" unicode="&#x139;" horiz-adv-x="513" 
d="M395 980l-164 -142h-32l151 142h45zM93 28h365l-5 -28h-398l131 740h33z" />
    <glyph glyph-name="Lcaron" unicode="&#x13d;" horiz-adv-x="500" 
d="M219 740l-126 -712h365l-5 -28h-398l131 740h33zM516 740l-105 -189h-27l100 189h32z" />
    <glyph glyph-name="Lcommaaccent" unicode="&#x13b;" horiz-adv-x="513" 
d="M93 28h365l-5 -28h-398l131 740h33zM126 -220l89 168h31l-95 -168h-25z" />
    <glyph glyph-name="Lslash" unicode="&#x141;" horiz-adv-x="513" 
d="M93 28h365l-5 -28h-398l67 376l-100 -63l5 30l100 62l59 335h33l-56 -316l125 78l-6 -29l-124 -77z" />
    <glyph glyph-name="M" unicode="M" horiz-adv-x="980" 
d="M895 749h30l-91 -749h-33l83 672l-436 -672h-27l-197 675l-155 -675h-33l172 749h30l204 -702z" />
    <glyph glyph-name="N" unicode="N" horiz-adv-x="821" 
d="M55 0l131 740h23l425 -679l120 679h33l-131 -740h-22l-426 679l-120 -679h-33z" />
    <glyph glyph-name="Nacute" unicode="&#x143;" horiz-adv-x="821" 
d="M483 838l151 142h45l-164 -142h-32zM55 0l131 740h23l425 -679l120 679h33l-131 -740h-22l-426 679l-120 -679h-33z" />
    <glyph glyph-name="Ncaron" unicode="&#x147;" horiz-adv-x="821" 
d="M485 838l-103 142h33l91 -123l136 123h33l-153 -142h-37zM754 740h33l-131 -740h-22l-426 679l-120 -679h-33l131 740h23l425 -679z" />
    <glyph glyph-name="Ncommaaccent" unicode="&#x145;" horiz-adv-x="821" 
d="M55 0l131 740h23l425 -679l120 679h33l-131 -740h-22l-426 679l-120 -679h-33zM253 -220l89 168h31l-95 -168h-25z" />
    <glyph glyph-name="Eng" unicode="&#x14a;" horiz-adv-x="821" 
d="M754 740h33l-131 -740l-13 -80c-17 -93 -82 -151 -179 -151c-49 0 -96 19 -119 50l12 21c25 -29 67 -43 108 -43c76 0 132 55 146 134l14 83l-417 665l-120 -679h-33l131 740h23l425 -679z" />
    <glyph glyph-name="Ntilde" unicode="&#xd1;" horiz-adv-x="821" 
d="M587 851c-70 0 -87 81 -147 81c-35 0 -69 -27 -76 -71h-25c9 59 55 100 104 100c70 0 87 -82 147 -82c35 0 69 27 77 72h25c-11 -60 -56 -100 -105 -100zM55 0l131 740h23l425 -679l120 679h33l-131 -740h-22l-426 679l-120 -679h-33z" />
    <glyph glyph-name="O" unicode="O" horiz-adv-x="831" 
d="M360 -10c-186 0 -299 116 -299 295c0 255 178 465 430 465c186 0 299 -115 299 -297c0 -252 -179 -463 -430 -463zM363 18c231 0 393 206 393 435c0 164 -101 269 -267 269c-232 0 -394 -204 -394 -435c0 -164 101 -269 268 -269z" />
    <glyph glyph-name="Oacute" unicode="&#xd3;" horiz-adv-x="831" 
d="M487 838l151 142h45l-164 -142h-32zM360 -10c-186 0 -299 116 -299 295c0 255 178 465 430 465c186 0 299 -115 299 -297c0 -252 -179 -463 -430 -463zM363 18c231 0 393 206 393 435c0 164 -101 269 -267 269c-232 0 -394 -204 -394 -435c0 -164 101 -269 268 -269z" />
    <glyph glyph-name="Ocircumflex" unicode="&#xd4;" horiz-adv-x="831" 
d="M530 961l-137 -123h-32l153 142h37l103 -142h-32zM491 750c186 0 299 -115 299 -297c0 -252 -179 -463 -430 -463c-186 0 -299 116 -299 295c0 255 178 465 430 465zM363 18c231 0 393 206 393 435c0 164 -101 269 -267 269c-232 0 -394 -204 -394 -435
c0 -164 101 -269 268 -269z" />
    <glyph glyph-name="Odieresis" unicode="&#xd6;" horiz-adv-x="831" 
d="M433 903c-14 0 -24 11 -24 25c0 19 17 30 31 30s24 -11 24 -25c0 -19 -17 -30 -31 -30zM609 903c-14 0 -24 11 -24 25c0 19 17 30 30 30c14 0 24 -11 24 -25c0 -19 -17 -30 -30 -30zM360 -10c-186 0 -299 116 -299 295c0 255 178 465 430 465c186 0 299 -115 299 -297
c0 -252 -179 -463 -430 -463zM363 18c231 0 393 206 393 435c0 164 -101 269 -267 269c-232 0 -394 -204 -394 -435c0 -164 101 -269 268 -269z" />
    <glyph glyph-name="Ograve" unicode="&#xd2;" horiz-adv-x="831" 
d="M495 838l-114 142h42l101 -142h-29zM360 -10c-186 0 -299 116 -299 295c0 255 178 465 430 465c186 0 299 -115 299 -297c0 -252 -179 -463 -430 -463zM363 18c231 0 393 206 393 435c0 164 -101 269 -267 269c-232 0 -394 -204 -394 -435c0 -164 101 -269 268 -269z" />
    <glyph glyph-name="Ohungarumlaut" unicode="&#x150;" horiz-adv-x="831" 
d="M428 838l132 142h42l-144 -142h-30zM546 838l131 142h43l-144 -142h-30zM360 -10c-186 0 -299 116 -299 295c0 255 178 465 430 465c186 0 299 -115 299 -297c0 -252 -179 -463 -430 -463zM363 18c231 0 393 206 393 435c0 164 -101 269 -267 269
c-232 0 -394 -204 -394 -435c0 -164 101 -269 268 -269z" />
    <glyph glyph-name="Omacron" unicode="&#x14c;" horiz-adv-x="831" 
d="M375 879l4 26h281l-4 -26h-281zM360 -10c-186 0 -299 116 -299 295c0 255 178 465 430 465c186 0 299 -115 299 -297c0 -252 -179 -463 -430 -463zM363 18c231 0 393 206 393 435c0 164 -101 269 -267 269c-232 0 -394 -204 -394 -435c0 -164 101 -269 268 -269z" />
    <glyph glyph-name="Oslash" unicode="&#xd8;" horiz-adv-x="831" 
d="M846 728l-105 -95c32 -48 49 -109 49 -180c0 -252 -179 -463 -430 -463c-99 0 -178 33 -229 91l-101 -91l-20 22l102 93c-33 47 -51 109 -51 180c0 255 178 465 430 465c100 0 180 -34 231 -93l103 93zM95 287c0 -63 15 -117 42 -160l561 508c-46 55 -118 87 -209 87
c-232 0 -394 -204 -394 -435zM756 453c0 61 -14 114 -41 157l-560 -507c46 -54 117 -85 208 -85c231 0 393 206 393 435z" />
    <glyph glyph-name="Otilde" unicode="&#xd5;" horiz-adv-x="831" 
d="M591 851c-70 0 -87 81 -147 81c-35 0 -69 -27 -76 -71h-25c9 59 55 100 104 100c70 0 87 -82 147 -82c35 0 69 27 77 72h25c-11 -60 -56 -100 -105 -100zM360 -10c-186 0 -299 116 -299 295c0 255 178 465 430 465c186 0 299 -115 299 -297c0 -252 -179 -463 -430 -463z
M363 18c231 0 393 206 393 435c0 164 -101 269 -267 269c-232 0 -394 -204 -394 -435c0 -164 101 -269 268 -269z" />
    <glyph glyph-name="OE" unicode="&#x152;" horiz-adv-x="1235" 
d="M1235 712h-392l-56 -319h371l-5 -28h-371l-60 -337h403l-6 -28h-435l36 204c-73 -128 -202 -214 -361 -214c-185 0 -298 116 -298 295c0 254 178 465 429 465c156 0 260 -84 288 -220l37 210h426zM363 18c231 0 393 206 393 435c0 164 -101 269 -267 269
c-232 0 -394 -204 -394 -435c0 -164 101 -269 268 -269z" />
    <glyph glyph-name="P" unicode="P" horiz-adv-x="627" 
d="M433 740c123 0 198 -69 198 -175c0 -147 -116 -260 -269 -260h-220l-54 -305h-33l131 740h247zM354 333c138 0 242 102 242 230c0 91 -66 149 -172 149h-210l-67 -379h207z" />
    <glyph glyph-name="Thorn" unicode="&#xde;" horiz-adv-x="630" 
d="M408 593c122 0 197 -69 197 -176c0 -147 -115 -259 -268 -259h-221l-28 -158h-33l131 740h33l-26 -147h215zM329 186c138 0 241 102 241 229c0 91 -65 149 -172 149h-210l-67 -378h208z" />
    <glyph glyph-name="Q" unicode="Q" horiz-adv-x="833" 
d="M790 453c0 -132 -49 -253 -133 -339l120 -114h-42l-99 94c-73 -65 -168 -104 -276 -104c-186 0 -299 116 -299 295c0 255 178 465 430 465c186 0 299 -115 299 -297zM363 18c98 0 184 37 251 98l-129 123h42l107 -103c77 82 122 196 122 317c0 164 -101 269 -267 269
c-232 0 -394 -204 -394 -435c0 -164 101 -269 268 -269z" />
    <glyph glyph-name="R" unicode="R" horiz-adv-x="677" 
d="M642 569c0 -124 -90 -217 -212 -242l161 -327h-39l-159 322c-9 -1 -18 -1 -28 -1h-220l-57 -321h-33l131 740h247c129 0 209 -67 209 -171zM364 350c137 0 242 91 242 217c0 89 -69 145 -181 145h-211l-64 -362h214z" />
    <glyph glyph-name="Racute" unicode="&#x154;" horiz-adv-x="677" 
d="M591 980l-164 -142h-32l151 142h45zM642 569c0 -124 -90 -217 -212 -242l161 -327h-39l-159 322c-9 -1 -18 -1 -28 -1h-220l-57 -321h-33l131 740h247c129 0 209 -67 209 -171zM364 350c137 0 242 91 242 217c0 89 -69 145 -181 145h-211l-64 -362h214z" />
    <glyph glyph-name="Rcaron" unicode="&#x158;" horiz-adv-x="677" 
d="M397 838l-103 142h33l91 -123l136 123h33l-153 -142h-37zM642 569c0 -124 -90 -217 -212 -242l161 -327h-39l-159 322c-9 -1 -18 -1 -28 -1h-220l-57 -321h-33l131 740h247c129 0 209 -67 209 -171zM364 350c137 0 242 91 242 217c0 89 -69 145 -181 145h-211l-64 -362
h214z" />
    <glyph glyph-name="Rcommaaccent" unicode="&#x156;" horiz-adv-x="677" 
d="M642 569c0 -124 -90 -217 -212 -242l161 -327h-39l-159 322c-9 -1 -18 -1 -28 -1h-220l-57 -321h-33l131 740h247c129 0 209 -67 209 -171zM364 350c137 0 242 91 242 217c0 89 -69 145 -181 145h-211l-64 -362h214zM186 -220l89 168h31l-95 -168h-25z" />
    <glyph glyph-name="S" unicode="S" horiz-adv-x="597" 
d="M236 -10c-90 0 -174 26 -212 83l19 23c43 -55 110 -78 192 -78c141 0 256 77 256 189c0 80 -77 120 -185 154l-52 17c-78 24 -151 63 -151 152c0 132 122 220 274 220c103 0 165 -34 204 -86l-22 -22c-41 53 -100 80 -185 80c-134 0 -235 -80 -235 -187
c0 -76 64 -106 137 -128l55 -18c88 -28 195 -69 195 -177c0 -136 -131 -222 -290 -222z" />
    <glyph glyph-name="Sacute" unicode="&#x15a;" horiz-adv-x="597" 
d="M378 838l151 142h45l-164 -142h-32zM236 -10c-90 0 -174 26 -212 83l19 23c43 -55 110 -78 192 -78c141 0 256 77 256 189c0 80 -77 120 -185 154l-52 17c-78 24 -151 63 -151 152c0 132 122 220 274 220c103 0 165 -34 204 -86l-22 -22c-41 53 -100 80 -185 80
c-134 0 -235 -80 -235 -187c0 -76 64 -106 137 -128l55 -18c88 -28 195 -69 195 -177c0 -136 -131 -222 -290 -222z" />
    <glyph glyph-name="Scaron" unicode="&#x160;" horiz-adv-x="597" 
d="M380 838l-103 142h33l91 -123l136 123h33l-153 -142h-37zM377 750c103 0 165 -34 204 -86l-22 -22c-41 53 -100 80 -185 80c-134 0 -235 -80 -235 -187c0 -76 64 -106 137 -128l55 -18c88 -28 195 -69 195 -177c0 -136 -131 -222 -290 -222c-90 0 -174 26 -212 83l19 23
c43 -55 110 -78 192 -78c141 0 256 77 256 189c0 80 -77 120 -185 154l-52 17c-78 24 -151 63 -151 152c0 132 122 220 274 220z" />
    <glyph glyph-name="Scedilla" unicode="&#x15e;" horiz-adv-x="597" 
d="M377 750c103 0 165 -34 204 -86l-22 -22c-41 53 -100 80 -185 80c-134 0 -235 -80 -235 -187c0 -76 64 -106 137 -128l55 -18c88 -28 195 -69 195 -177c0 -127 -113 -210 -257 -221l-56 -65c10 1 21 2 32 2c57 0 92 -27 92 -67c0 -58 -59 -91 -126 -91
c-34 0 -68 11 -89 31l14 18c20 -19 46 -26 74 -26c53 0 98 27 98 67c0 29 -28 47 -72 47c-19 0 -38 -3 -55 -9l-6 13l65 79h-4c-90 0 -174 26 -212 83l19 23c43 -55 110 -78 192 -78c141 0 256 77 256 189c0 80 -77 120 -185 154l-52 17c-78 24 -151 63 -151 152
c0 132 122 220 274 220z" />
    <glyph glyph-name="Scommaaccent" unicode="&#x218;" horiz-adv-x="597" 
d="M236 -10c-90 0 -174 26 -212 83l19 23c43 -55 110 -78 192 -78c141 0 256 77 256 189c0 80 -77 120 -185 154l-52 17c-78 24 -151 63 -151 152c0 132 122 220 274 220c103 0 165 -34 204 -86l-22 -22c-41 53 -100 80 -185 80c-134 0 -235 -80 -235 -187
c0 -76 64 -106 137 -128l55 -18c88 -28 195 -69 195 -177c0 -136 -131 -222 -290 -222zM158 -220l89 168h31l-95 -168h-25z" />
    <glyph glyph-name="uni1E9E" unicode="&#x1e9e;" horiz-adv-x="655" 
d="M299 -10c-37 0 -69 5 -102 22l4 27c33 -17 64 -21 98 -21c136 0 247 89 247 209c0 89 -75 146 -195 146l4 28c122 0 218 83 218 190c0 81 -64 131 -169 131c-117 0 -208 -65 -225 -162l-99 -560h-33l100 567c20 111 122 183 259 183c125 0 203 -61 203 -155
c0 -100 -74 -182 -178 -207c92 -19 148 -80 148 -163c0 -143 -128 -235 -280 -235z" />
    <glyph glyph-name="T" unicode="T" horiz-adv-x="549" 
d="M612 740l-5 -28h-247l-126 -712h-33l126 712h-247l5 28h527z" />
    <glyph glyph-name="Tbar" unicode="&#x166;" horiz-adv-x="549" 
d="M607 712h-247l-60 -338h163l-5 -25h-162l-62 -349h-33l62 349h-152l4 25h152l60 338h-247l5 28h527z" />
    <glyph glyph-name="Tcaron" unicode="&#x164;" horiz-adv-x="549" 
d="M346 838l-103 142h33l91 -123l136 123h33l-153 -142h-37zM612 740l-5 -28h-247l-126 -712h-33l126 712h-247l5 28h527z" />
    <glyph glyph-name="uni0162" unicode="&#x162;" horiz-adv-x="549" 
d="M234 0h-2l-63 -75c10 2 21 3 32 3c57 0 92 -27 92 -67c0 -58 -59 -91 -126 -91c-34 0 -67 11 -88 31l13 18c20 -19 46 -26 74 -26c53 0 98 27 98 67c0 29 -27 47 -72 47c-19 0 -38 -3 -55 -9l-6 13l73 89h-3l126 712h-247l5 28h527l-5 -28h-247z" />
    <glyph glyph-name="uni021A" unicode="&#x21a;" horiz-adv-x="549" 
d="M612 740l-5 -28h-247l-126 -712h-33l126 712h-247l5 28h527zM114 -220l89 168h31l-95 -168h-25z" />
    <glyph glyph-name="U" unicode="U" horiz-adv-x="782" 
d="M337 -10c-156 0 -252 83 -252 213c0 17 2 34 5 52l86 485h33l-86 -486c-3 -17 -4 -32 -4 -47c0 -116 82 -189 219 -189c155 0 276 96 301 238l86 484h33l-87 -488c-28 -158 -161 -262 -334 -262z" />
    <glyph glyph-name="Uacute" unicode="&#xda;" horiz-adv-x="782" 
d="M463 838l151 142h45l-164 -142h-32zM337 -10c-156 0 -252 83 -252 213c0 17 2 34 5 52l86 485h33l-86 -486c-3 -17 -4 -32 -4 -47c0 -116 82 -189 219 -189c155 0 276 96 301 238l86 484h33l-87 -488c-28 -158 -161 -262 -334 -262z" />
    <glyph glyph-name="Ucircumflex" unicode="&#xdb;" horiz-adv-x="782" 
d="M506 961l-137 -123h-32l153 142h37l103 -142h-32zM725 740h33l-87 -488c-28 -158 -161 -262 -334 -262c-156 0 -252 83 -252 213c0 17 2 34 5 52l86 485h33l-86 -486c-3 -17 -4 -32 -4 -47c0 -116 82 -189 219 -189c155 0 276 96 301 238z" />
    <glyph glyph-name="Udieresis" unicode="&#xdc;" horiz-adv-x="782" 
d="M409 903c-14 0 -24 11 -24 25c0 19 17 30 31 30s24 -11 24 -25c0 -19 -17 -30 -31 -30zM585 903c-14 0 -24 11 -24 25c0 19 17 30 30 30c14 0 24 -11 24 -25c0 -19 -17 -30 -30 -30zM337 -10c-156 0 -252 83 -252 213c0 17 2 34 5 52l86 485h33l-86 -486
c-3 -17 -4 -32 -4 -47c0 -116 82 -189 219 -189c155 0 276 96 301 238l86 484h33l-87 -488c-28 -158 -161 -262 -334 -262z" />
    <glyph glyph-name="Ugrave" unicode="&#xd9;" horiz-adv-x="782" 
d="M471 838l-114 142h42l101 -142h-29zM337 -10c-156 0 -252 83 -252 213c0 17 2 34 5 52l86 485h33l-86 -486c-3 -17 -4 -32 -4 -47c0 -116 82 -189 219 -189c155 0 276 96 301 238l86 484h33l-87 -488c-28 -158 -161 -262 -334 -262z" />
    <glyph glyph-name="Uhungarumlaut" unicode="&#x170;" horiz-adv-x="782" 
d="M404 838l132 142h42l-144 -142h-30zM522 838l131 142h43l-144 -142h-30zM337 -10c-156 0 -252 83 -252 213c0 17 2 34 5 52l86 485h33l-86 -486c-3 -17 -4 -32 -4 -47c0 -116 82 -189 219 -189c155 0 276 96 301 238l86 484h33l-87 -488c-28 -158 -161 -262 -334 -262z
" />
    <glyph glyph-name="Umacron" unicode="&#x16a;" horiz-adv-x="782" 
d="M351 879l4 26h281l-4 -26h-281zM337 -10c-156 0 -252 83 -252 213c0 17 2 34 5 52l86 485h33l-86 -486c-3 -17 -4 -32 -4 -47c0 -116 82 -189 219 -189c155 0 276 96 301 238l86 484h33l-87 -488c-28 -158 -161 -262 -334 -262z" />
    <glyph glyph-name="Uogonek" unicode="&#x172;" horiz-adv-x="782" 
d="M725 740h33l-87 -488c-23 -130 -117 -223 -246 -252c-99 -60 -146 -117 -146 -165c0 -25 17 -42 43 -42c25 0 50 11 70 27l1 -22c-24 -19 -51 -28 -77 -28c-41 0 -66 24 -66 59c0 52 44 109 124 163c-12 -1 -25 -2 -37 -2c-156 0 -252 83 -252 213c0 17 2 34 5 52l86 485
h33l-86 -486c-3 -17 -4 -32 -4 -47c0 -116 82 -189 219 -189c155 0 276 96 301 238z" />
    <glyph glyph-name="Uring" unicode="&#x16e;" horiz-adv-x="782" 
d="M479 802c-54 0 -88 33 -88 83c0 71 51 124 121 124c55 0 89 -33 89 -84c0 -69 -52 -123 -122 -123zM480 823c58 0 96 52 96 102c0 39 -24 63 -65 63c-58 0 -95 -50 -95 -103c0 -38 24 -62 64 -62zM337 -10c-156 0 -252 83 -252 213c0 17 2 34 5 52l86 485h33l-86 -486
c-3 -17 -4 -32 -4 -47c0 -116 82 -189 219 -189c155 0 276 96 301 238l86 484h33l-87 -488c-28 -158 -161 -262 -334 -262z" />
    <glyph glyph-name="V" unicode="V" horiz-adv-x="705" 
d="M281 0l-200 740h36l185 -704l436 704h37l-462 -740h-32z" />
    <glyph glyph-name="W" unicode="W" horiz-adv-x="1079" 
d="M227 0l-140 740h36l128 -695l347 695h34l101 -695l374 695h36l-401 -740h-33l-102 690l-348 -690h-32z" />
    <glyph glyph-name="Wacute" unicode="&#x1e82;" horiz-adv-x="1079" 
d="M612 838l151 142h45l-164 -142h-32zM227 0l-140 740h36l128 -695l347 695h34l101 -695l374 695h36l-401 -740h-33l-102 690l-348 -690h-32z" />
    <glyph glyph-name="Wcircumflex" unicode="&#x174;" horiz-adv-x="1079" 
d="M655 961l-137 -123h-32l153 142h37l103 -142h-32zM1107 740h36l-401 -740h-33l-102 690l-348 -690h-32l-140 740h36l128 -695l347 695h34l101 -695z" />
    <glyph glyph-name="Wdieresis" unicode="&#x1e84;" horiz-adv-x="1079" 
d="M558 903c-14 0 -24 11 -24 25c0 19 17 30 31 30s24 -11 24 -25c0 -19 -17 -30 -31 -30zM734 903c-14 0 -24 11 -24 25c0 19 17 30 30 30c14 0 24 -11 24 -25c0 -19 -17 -30 -30 -30zM227 0l-140 740h36l128 -695l347 695h34l101 -695l374 695h36l-401 -740h-33l-102 690
l-348 -690h-32z" />
    <glyph glyph-name="Wgrave" unicode="&#x1e80;" horiz-adv-x="1079" 
d="M620 838l-114 142h42l101 -142h-29zM227 0l-140 740h36l128 -695l347 695h34l101 -695l374 695h36l-401 -740h-33l-102 690l-348 -690h-32z" />
    <glyph glyph-name="X" unicode="X" horiz-adv-x="611" 
d="M653 740l-314 -359l209 -381h-39l-196 356l-320 -356h-38l343 381l-187 359h39l174 -333l291 333h38z" />
    <glyph glyph-name="Y" unicode="Y" horiz-adv-x="630" 
d="M243 0l56 318l-206 422h39l188 -389l327 389h40l-355 -422l-56 -318h-33z" />
    <glyph glyph-name="Yacute" unicode="&#xdd;" horiz-adv-x="630" 
d="M387 838l151 142h45l-164 -142h-32zM243 0l56 318l-206 422h39l188 -389l327 389h40l-355 -422l-56 -318h-33z" />
    <glyph glyph-name="Ycircumflex" unicode="&#x176;" horiz-adv-x="630" 
d="M430 961l-137 -123h-32l153 142h37l103 -142h-32zM647 740h40l-355 -422l-56 -318h-33l56 318l-206 422h39l188 -389z" />
    <glyph glyph-name="Ydieresis" unicode="&#x178;" horiz-adv-x="630" 
d="M333 903c-14 0 -24 11 -24 25c0 19 17 30 31 30s24 -11 24 -25c0 -19 -17 -30 -31 -30zM509 903c-14 0 -24 11 -24 25c0 19 17 30 30 30c14 0 24 -11 24 -25c0 -19 -17 -30 -30 -30zM243 0l56 318l-206 422h39l188 -389l327 389h40l-355 -422l-56 -318h-33z" />
    <glyph glyph-name="Ygrave" unicode="&#x1ef2;" horiz-adv-x="630" 
d="M395 838l-114 142h42l101 -142h-29zM243 0l56 318l-206 422h39l188 -389l327 389h40l-355 -422l-56 -318h-33z" />
    <glyph glyph-name="Z" unicode="Z" horiz-adv-x="596" 
d="M632 740l-4 -23l-603 -689h492l-6 -28h-535l4 23l603 689h-475l5 28h519z" />
    <glyph glyph-name="Zacute" unicode="&#x179;" horiz-adv-x="596" 
d="M567 980l-164 -142h-32l151 142h45zM632 740l-4 -23l-603 -689h492l-6 -28h-535l4 23l603 689h-475l5 28h519z" />
    <glyph glyph-name="Zcaron" unicode="&#x17d;" horiz-adv-x="596" 
d="M373 838l-103 142h33l91 -123l136 123h33l-153 -142h-37zM632 740l-4 -23l-603 -689h492l-6 -28h-535l4 23l603 689h-475l5 28h519z" />
    <glyph glyph-name="Zdotaccent" unicode="&#x17b;" horiz-adv-x="596" 
d="M406 903c-14 0 -25 11 -25 26c0 17 15 29 30 29c14 0 25 -11 25 -26c0 -17 -14 -29 -30 -29zM632 740l-4 -23l-603 -689h492l-6 -28h-535l4 23l603 689h-475l5 28h519z" />
    <glyph glyph-name="A.ss01" horiz-adv-x="782" 
d="M467 750c155 0 251 -83 251 -213c0 -17 -2 -34 -5 -52l-86 -485h-33l49 275h-516l-49 -275h-33l87 488c28 158 161 262 335 262zM680 486c3 17 5 32 5 48c0 115 -84 188 -220 188c-155 0 -276 -96 -301 -238l-32 -180h516z" />
    <glyph glyph-name="Aacute.ss01" horiz-adv-x="782" 
d="M659 980l-164 -142h-32l151 142h45zM467 750c155 0 251 -83 251 -213c0 -17 -2 -34 -5 -52l-86 -485h-33l49 275h-516l-49 -275h-33l87 488c28 158 161 262 335 262zM680 486c3 17 5 32 5 48c0 115 -84 188 -220 188c-155 0 -276 -96 -301 -238l-32 -180h516z" />
    <glyph glyph-name="Abreve.ss01" horiz-adv-x="782" 
d="M484 828c-77 0 -124 47 -124 119c0 11 1 22 3 33h28c-2 -11 -3 -22 -3 -31c0 -60 36 -98 97 -98c72 0 128 53 141 129h29c-16 -93 -83 -152 -171 -152zM467 750c155 0 251 -83 251 -213c0 -17 -2 -34 -5 -52l-86 -485h-33l49 275h-516l-49 -275h-33l87 488
c28 158 161 262 335 262zM680 486c3 17 5 32 5 48c0 115 -84 188 -220 188c-155 0 -276 -96 -301 -238l-32 -180h516z" />
    <glyph glyph-name="Acircumflex.ss01" horiz-adv-x="782" 
d="M506 961l-137 -123h-32l153 142h37l103 -142h-32zM467 750c155 0 251 -83 251 -213c0 -17 -2 -34 -5 -52l-86 -485h-33l49 275h-516l-49 -275h-33l87 488c28 158 161 262 335 262zM680 486c3 17 5 32 5 48c0 115 -84 188 -220 188c-155 0 -276 -96 -301 -238l-32 -180
h516z" />
    <glyph glyph-name="Adieresis.ss01" horiz-adv-x="782" 
d="M409 903c-14 0 -24 11 -24 25c0 19 17 30 31 30s24 -11 24 -25c0 -19 -17 -30 -31 -30zM585 903c-14 0 -24 11 -24 25c0 19 17 30 30 30c14 0 24 -11 24 -25c0 -19 -17 -30 -30 -30zM467 750c155 0 251 -83 251 -213c0 -17 -2 -34 -5 -52l-86 -485h-33l49 275h-516
l-49 -275h-33l87 488c28 158 161 262 335 262zM680 486c3 17 5 32 5 48c0 115 -84 188 -220 188c-155 0 -276 -96 -301 -238l-32 -180h516z" />
    <glyph glyph-name="Agrave.ss01" horiz-adv-x="782" 
d="M500 838h-29l-114 142h42zM467 750c155 0 251 -83 251 -213c0 -17 -2 -34 -5 -52l-86 -485h-33l49 275h-516l-49 -275h-33l87 488c28 158 161 262 335 262zM680 486c3 17 5 32 5 48c0 115 -84 188 -220 188c-155 0 -276 -96 -301 -238l-32 -180h516z" />
    <glyph glyph-name="Amacron.ss01" horiz-adv-x="782" 
d="M636 905l-4 -26h-281l4 26h281zM467 750c155 0 251 -83 251 -213c0 -17 -2 -34 -5 -52l-86 -485h-33l49 275h-516l-49 -275h-33l87 488c28 158 161 262 335 262zM680 486c3 17 5 32 5 48c0 115 -84 188 -220 188c-155 0 -276 -96 -301 -238l-32 -180h516z" />
    <glyph glyph-name="Aogonek.ss01" horiz-adv-x="782" 
d="M467 750c155 0 251 -83 251 -213c0 -17 -2 -34 -5 -52l-86 -485c-100 -60 -147 -117 -147 -165c0 -25 17 -42 43 -42c25 0 50 11 70 27l1 -22c-24 -19 -51 -28 -77 -28c-41 0 -66 24 -66 59c0 56 52 119 144 176l48 270h-516l-49 -275h-33l87 488c28 158 161 262 335 262
zM680 486c3 17 5 32 5 48c0 115 -84 188 -220 188c-155 0 -276 -96 -301 -238l-32 -180h516z" />
    <glyph glyph-name="Aring.ss01" horiz-adv-x="782" 
d="M479 802c-54 0 -88 33 -88 83c0 71 51 124 121 124c55 0 89 -33 89 -84c0 -69 -52 -123 -122 -123zM511 988c-58 0 -95 -50 -95 -103c0 -38 24 -62 64 -62c58 0 96 52 96 102c0 39 -24 63 -65 63zM467 750c155 0 251 -83 251 -213c0 -17 -2 -34 -5 -52l-86 -485h-33
l49 275h-516l-49 -275h-33l87 488c28 158 161 262 335 262zM680 486c3 17 5 32 5 48c0 115 -84 188 -220 188c-155 0 -276 -96 -301 -238l-32 -180h516z" />
    <glyph glyph-name="Atilde.ss01" horiz-adv-x="782" 
d="M420 932c-35 0 -69 -27 -76 -71h-25c9 59 55 100 104 100c70 0 87 -82 147 -82c35 0 69 27 77 72h25c-11 -60 -56 -100 -105 -100c-70 0 -87 81 -147 81zM467 750c155 0 251 -83 251 -213c0 -17 -2 -34 -5 -52l-86 -485h-33l49 275h-516l-49 -275h-33l87 488
c28 158 161 262 335 262zM680 486c3 17 5 32 5 48c0 115 -84 188 -220 188c-155 0 -276 -96 -301 -238l-32 -180h516z" />
    <glyph glyph-name="AE.ss01" horiz-adv-x="884" 
d="M885 712h-342l-56 -319h321l-5 -28h-321l-60 -337h353l-6 -28h-385l49 275h-308l-49 -275h-33l76 429c33 188 190 311 396 311h375zM438 304l72 408c-184 0 -329 -116 -359 -287l-21 -121h308z" />
    <glyph glyph-name="J.ss01" horiz-adv-x="546" 
d="M519 740l-96 -545c-22 -124 -119 -205 -244 -205c-86 0 -149 40 -181 99l21 21c30 -58 83 -92 162 -92c106 0 191 74 209 181l91 513h-363l5 28h396z" />
    <glyph glyph-name="C.ss02" horiz-adv-x="679" 
d="M360 -10c-186 0 -299 116 -299 295c0 255 178 465 430 465c85 0 154 -27 204 -72l-5 -31c-47 48 -116 75 -201 75c-232 0 -394 -204 -394 -435c0 -164 101 -269 268 -269c89 0 169 30 234 80l-6 -37c-66 -46 -146 -71 -231 -71z" />
    <glyph glyph-name="Cacute.ss02" horiz-adv-x="679" 
d="M481 838l151 142h45l-164 -142h-32zM360 -10c-186 0 -299 116 -299 295c0 255 178 465 430 465c85 0 154 -27 204 -72l-5 -31c-47 48 -116 75 -201 75c-232 0 -394 -204 -394 -435c0 -164 101 -269 268 -269c89 0 169 30 234 80l-6 -37c-66 -46 -146 -71 -231 -71z" />
    <glyph glyph-name="Ccaron.ss02" horiz-adv-x="679" 
d="M483 838l-103 142h33l91 -123l136 123h33l-153 -142h-37zM491 750c85 0 154 -27 204 -72l-5 -31c-47 48 -116 75 -201 75c-232 0 -394 -204 -394 -435c0 -164 101 -269 268 -269c89 0 169 30 234 80l-6 -37c-66 -46 -146 -71 -231 -71c-186 0 -299 116 -299 295
c0 255 178 465 430 465z" />
    <glyph glyph-name="Ccedilla.ss02" horiz-adv-x="679" 
d="M491 750c85 0 154 -27 204 -72l-5 -31c-47 48 -116 75 -201 75c-232 0 -394 -204 -394 -435c0 -164 101 -269 268 -269c89 0 169 30 234 80l-6 -37c-63 -44 -140 -69 -221 -71l-55 -64c10 1 21 2 32 2c57 0 92 -27 92 -67c0 -58 -59 -91 -126 -91c-34 0 -68 11 -89 31
l14 18c20 -19 46 -26 74 -26c53 0 98 27 98 67c0 29 -28 47 -72 47c-19 0 -38 -3 -55 -9l-6 13l65 79c-175 8 -281 122 -281 295c0 255 178 465 430 465z" />
    <glyph glyph-name="Cdotaccent.ss02" horiz-adv-x="679" 
d="M516 903c-14 0 -25 11 -25 26c0 17 15 29 30 29c14 0 25 -11 25 -26c0 -17 -14 -29 -30 -29zM360 -10c-186 0 -299 116 -299 295c0 255 178 465 430 465c85 0 154 -27 204 -72l-5 -31c-47 48 -116 75 -201 75c-232 0 -394 -204 -394 -435c0 -164 101 -269 268 -269
c89 0 169 30 234 80l-6 -37c-66 -46 -146 -71 -231 -71z" />
    <glyph glyph-name="Z.ss02" horiz-adv-x="549" 
d="M590 740l-558 -712h438l-5 -28h-491l557 712h-426l6 28h479z" />
    <glyph glyph-name="Zacute.ss02" horiz-adv-x="549" 
d="M543 980l-164 -142h-32l151 142h45zM590 740l-558 -712h438l-5 -28h-491l557 712h-426l6 28h479z" />
    <glyph glyph-name="Zcaron.ss02" horiz-adv-x="549" 
d="M349 838l-103 142h33l91 -123l136 123h33l-153 -142h-37zM590 740l-558 -712h438l-5 -28h-491l557 712h-426l6 28h479z" />
    <glyph glyph-name="Zdotaccent.ss02" horiz-adv-x="549" 
d="M382 903c-14 0 -25 11 -25 26c0 17 15 29 30 29c14 0 25 -11 25 -26c0 -17 -14 -29 -30 -29zM590 740l-558 -712h438l-5 -28h-491l557 712h-426l6 28h479z" />
    <glyph glyph-name="a" unicode="a" horiz-adv-x="538" 
d="M290 532c108 0 172 -64 172 -161c0 -14 -1 -29 -4 -43l-58 -328h-30l19 110l5 30c-50 -94 -146 -150 -244 -150c-88 0 -143 47 -143 120c0 114 110 179 235 179c59 0 122 -8 175 -23l10 57c3 14 4 28 4 41c0 87 -55 142 -147 142c-71 0 -125 -26 -170 -71l-14 23
c50 48 112 74 190 74zM160 15c98 0 226 82 252 227c-51 15 -112 22 -168 22c-111 0 -205 -58 -205 -152c0 -60 45 -97 121 -97z" />
    <glyph glyph-name="aacute" unicode="&#xe1;" horiz-adv-x="538" 
d="M495 762l-164 -142h-32l151 142h45zM290 532c108 0 172 -64 172 -161c0 -14 -1 -29 -4 -43l-58 -328h-30l19 110l5 30c-50 -94 -146 -150 -244 -150c-88 0 -143 47 -143 120c0 114 110 179 235 179c59 0 122 -8 175 -23l10 57c3 14 4 28 4 41c0 87 -55 142 -147 142
c-71 0 -125 -26 -170 -71l-14 23c50 48 112 74 190 74zM160 15c98 0 226 82 252 227c-51 15 -112 22 -168 22c-111 0 -205 -58 -205 -152c0 -60 45 -97 121 -97z" />
    <glyph glyph-name="abreve" unicode="&#x103;" horiz-adv-x="538" 
d="M320 610c-77 0 -124 47 -124 119c0 11 1 22 3 33h28c-2 -11 -3 -22 -3 -31c0 -60 36 -98 97 -98c72 0 128 53 141 129h29c-16 -93 -83 -152 -171 -152zM290 532c108 0 172 -64 172 -161c0 -14 -1 -29 -4 -43l-58 -328h-30l19 110l5 30c-50 -94 -146 -150 -244 -150
c-88 0 -143 47 -143 120c0 114 110 179 235 179c59 0 122 -8 175 -23l10 57c3 14 4 28 4 41c0 87 -55 142 -147 142c-71 0 -125 -26 -170 -71l-14 23c50 48 112 74 190 74zM160 15c98 0 226 82 252 227c-51 15 -112 22 -168 22c-111 0 -205 -58 -205 -152
c0 -60 45 -97 121 -97z" />
    <glyph glyph-name="acircumflex" unicode="&#xe2;" horiz-adv-x="538" 
d="M342 743l-137 -123h-32l153 142h37l103 -142h-32zM290 532c108 0 172 -64 172 -161c0 -14 -1 -29 -4 -43l-58 -328h-30l19 110l5 30c-50 -94 -146 -150 -244 -150c-88 0 -143 47 -143 120c0 114 110 179 235 179c59 0 122 -8 175 -23l10 57c3 14 4 28 4 41
c0 87 -55 142 -147 142c-71 0 -125 -26 -170 -71l-14 23c50 48 112 74 190 74zM160 15c98 0 226 82 252 227c-51 15 -112 22 -168 22c-111 0 -205 -58 -205 -152c0 -60 45 -97 121 -97z" />
    <glyph glyph-name="adieresis" unicode="&#xe4;" horiz-adv-x="538" 
d="M245 685c-14 0 -24 11 -24 25c0 19 17 30 31 30s24 -11 24 -25c0 -19 -17 -30 -31 -30zM421 685c-14 0 -24 11 -24 25c0 19 17 30 30 30c14 0 24 -11 24 -25c0 -19 -17 -30 -30 -30zM290 532c108 0 172 -64 172 -161c0 -14 -1 -29 -4 -43l-58 -328h-30l19 110l5 30
c-50 -94 -146 -150 -244 -150c-88 0 -143 47 -143 120c0 114 110 179 235 179c59 0 122 -8 175 -23l10 57c3 14 4 28 4 41c0 87 -55 142 -147 142c-71 0 -125 -26 -170 -71l-14 23c50 48 112 74 190 74zM160 15c98 0 226 82 252 227c-51 15 -112 22 -168 22
c-111 0 -205 -58 -205 -152c0 -60 45 -97 121 -97z" />
    <glyph glyph-name="agrave" unicode="&#xe0;" horiz-adv-x="538" 
d="M336 620h-29l-114 142h42zM290 532c108 0 172 -64 172 -161c0 -14 -1 -29 -4 -43l-58 -328h-30l19 110l5 30c-50 -94 -146 -150 -244 -150c-88 0 -143 47 -143 120c0 114 110 179 235 179c59 0 122 -8 175 -23l10 57c3 14 4 28 4 41c0 87 -55 142 -147 142
c-71 0 -125 -26 -170 -71l-14 23c50 48 112 74 190 74zM160 15c98 0 226 82 252 227c-51 15 -112 22 -168 22c-111 0 -205 -58 -205 -152c0 -60 45 -97 121 -97z" />
    <glyph glyph-name="amacron" unicode="&#x101;" horiz-adv-x="538" 
d="M191 687h281l-4 -26h-281zM290 532c108 0 172 -64 172 -161c0 -14 -1 -29 -4 -43l-58 -328h-30l19 110l5 30c-50 -94 -146 -150 -244 -150c-88 0 -143 47 -143 120c0 114 110 179 235 179c59 0 122 -8 175 -23l10 57c3 14 4 28 4 41c0 87 -55 142 -147 142
c-71 0 -125 -26 -170 -71l-14 23c50 48 112 74 190 74zM160 15c98 0 226 82 252 227c-51 15 -112 22 -168 22c-111 0 -205 -58 -205 -152c0 -60 45 -97 121 -97z" />
    <glyph glyph-name="aogonek" unicode="&#x105;" horiz-adv-x="538" 
d="M290 532c108 0 172 -64 172 -161c0 -14 -1 -29 -4 -43l-58 -328c-100 -60 -147 -117 -147 -165c0 -25 17 -42 43 -42c25 0 50 11 70 27l1 -22c-24 -19 -51 -28 -77 -28c-41 0 -66 24 -66 59c0 57 53 120 147 178l18 103l5 30c-50 -94 -146 -150 -244 -150
c-88 0 -143 47 -143 120c0 114 110 179 235 179c59 0 122 -8 175 -23l10 57c3 14 4 28 4 41c0 87 -55 142 -147 142c-71 0 -125 -26 -170 -71l-14 23c50 48 112 74 190 74zM160 15c98 0 226 82 252 227c-51 15 -112 22 -168 22c-111 0 -205 -58 -205 -152
c0 -60 45 -97 121 -97z" />
    <glyph glyph-name="aring" unicode="&#xe5;" horiz-adv-x="538" 
d="M315 584c-54 0 -88 33 -88 83c0 71 51 124 121 124c55 0 89 -33 89 -84c0 -69 -52 -123 -122 -123zM347 770c-58 0 -95 -50 -95 -103c0 -38 24 -62 64 -62c58 0 96 52 96 102c0 39 -24 63 -65 63zM290 532c108 0 172 -64 172 -161c0 -14 -1 -29 -4 -43l-58 -328h-30
l19 110l5 30c-50 -94 -146 -150 -244 -150c-88 0 -143 47 -143 120c0 114 110 179 235 179c59 0 122 -8 175 -23l10 57c3 14 4 28 4 41c0 87 -55 142 -147 142c-71 0 -125 -26 -170 -71l-14 23c50 48 112 74 190 74zM160 15c98 0 226 82 252 227c-51 15 -112 22 -168 22
c-111 0 -205 -58 -205 -152c0 -60 45 -97 121 -97z" />
    <glyph glyph-name="atilde" unicode="&#xe3;" horiz-adv-x="538" 
d="M483 733h25c-11 -60 -56 -100 -105 -100c-70 0 -87 81 -147 81c-35 0 -69 -27 -76 -71h-25c9 59 55 100 104 100c70 0 87 -82 147 -82c35 0 69 27 77 72zM290 532c108 0 172 -64 172 -161c0 -14 -1 -29 -4 -43l-58 -328h-30l19 110l5 30c-50 -94 -146 -150 -244 -150
c-88 0 -143 47 -143 120c0 114 110 179 235 179c59 0 122 -8 175 -23l10 57c3 14 4 28 4 41c0 87 -55 142 -147 142c-71 0 -125 -26 -170 -71l-14 23c50 48 112 74 190 74zM160 15c98 0 226 82 252 227c-51 15 -112 22 -168 22c-111 0 -205 -58 -205 -152
c0 -60 45 -97 121 -97z" />
    <glyph glyph-name="ae" unicode="&#xe6;" horiz-adv-x="944" 
d="M886 248h-442c-2 -16 -3 -33 -3 -50c0 -111 62 -182 167 -182c82 0 159 43 216 108l21 -19c-67 -78 -151 -115 -238 -115c-110 0 -180 66 -193 173c-47 -108 -154 -173 -263 -173c-89 0 -144 47 -144 120c0 114 110 179 235 179c59 0 122 -8 175 -23l10 57
c3 14 3 28 3 41c0 87 -54 142 -147 142c-70 0 -124 -26 -169 -71l-14 23c49 48 112 74 190 74c101 0 164 -58 170 -146c49 87 134 146 239 146c123 0 197 -80 197 -205c0 -19 -6 -64 -10 -79zM696 506c-131 0 -222 -106 -247 -233h410c3 19 5 37 5 54
c0 111 -63 179 -168 179zM160 15c98 0 226 82 252 227c-51 15 -112 22 -168 22c-111 0 -205 -58 -205 -152c0 -60 45 -97 121 -97z" />
    <glyph glyph-name="b" unicode="b" horiz-adv-x="655" 
d="M390 532c130 0 209 -83 209 -212c0 -180 -127 -330 -302 -330c-126 0 -191 65 -206 158l-5 -29l-21 -119h-30l138 780h30l-71 -402c47 91 133 154 258 154zM293 17c162 0 274 142 274 302c0 113 -69 186 -188 186c-134 0 -242 -99 -268 -245l-2 -10c-2 -16 -3 -31 -3 -47
c0 -114 70 -186 187 -186z" />
    <glyph glyph-name="c" unicode="c" horiz-adv-x="526" 
d="M252 -10c-133 0 -213 83 -213 212c0 181 128 330 310 330c66 0 113 -19 154 -56l-21 -20c-38 35 -81 49 -138 49c-162 0 -273 -142 -273 -302c0 -114 71 -186 189 -186c58 0 120 21 169 63l16 -24c-54 -44 -120 -66 -193 -66z" />
    <glyph glyph-name="cacute" unicode="&#x107;" horiz-adv-x="526" 
d="M336 620l151 142h45l-164 -142h-32zM252 -10c-133 0 -213 83 -213 212c0 181 128 330 310 330c66 0 113 -19 154 -56l-21 -20c-38 35 -81 49 -138 49c-162 0 -273 -142 -273 -302c0 -114 71 -186 189 -186c58 0 120 21 169 63l16 -24c-54 -44 -120 -66 -193 -66z" />
    <glyph glyph-name="ccaron" unicode="&#x10d;" horiz-adv-x="526" 
d="M338 620l-103 142h33l91 -123l136 123h33l-153 -142h-37zM39 202c0 181 128 330 310 330c66 0 113 -19 154 -56l-21 -20c-38 35 -81 49 -138 49c-162 0 -273 -142 -273 -302c0 -114 71 -186 189 -186c58 0 120 21 169 63l16 -24c-54 -44 -120 -66 -193 -66
c-133 0 -213 83 -213 212z" />
    <glyph glyph-name="ccedilla" unicode="&#xe7;" horiz-adv-x="526" 
d="M344 505c-162 0 -273 -142 -273 -302c0 -114 71 -186 189 -186c58 0 120 21 169 63l16 -24c-50 -41 -110 -62 -176 -66l-55 -64c10 1 21 2 32 2c57 0 92 -27 92 -67c0 -58 -59 -91 -126 -91c-34 0 -68 11 -89 31l14 18c20 -19 46 -26 74 -26c53 0 98 27 98 67
c0 29 -28 47 -72 47c-19 0 -38 -3 -55 -9l-6 13l65 79c-126 5 -202 87 -202 212c0 181 128 330 310 330c66 0 113 -19 154 -56l-21 -20c-38 35 -81 49 -138 49z" />
    <glyph glyph-name="cdotaccent" unicode="&#x10b;" horiz-adv-x="526" 
d="M371 685c-14 0 -25 11 -25 26c0 17 15 29 30 29c14 0 25 -11 25 -26c0 -17 -14 -29 -30 -29zM252 -10c-133 0 -213 83 -213 212c0 181 128 330 310 330c66 0 113 -19 154 -56l-21 -20c-38 35 -81 49 -138 49c-162 0 -273 -142 -273 -302c0 -114 71 -186 189 -186
c58 0 120 21 169 63l16 -24c-54 -44 -120 -66 -193 -66z" />
    <glyph glyph-name="d" unicode="d" horiz-adv-x="654" 
d="M617 780h30l-138 -780h-29l21 119l4 24c-48 -91 -134 -153 -257 -153c-130 0 -209 83 -209 211c0 180 126 331 302 331c124 0 189 -64 205 -155zM258 17c135 0 242 99 268 245l1 8c3 18 4 32 4 48c0 115 -70 187 -186 187c-163 0 -275 -142 -275 -302
c0 -114 70 -186 188 -186z" />
    <glyph glyph-name="eth" unicode="&#xf0;" horiz-adv-x="623" 
d="M395 710c113 -100 174 -220 174 -353c0 -200 -123 -367 -314 -367c-135 0 -216 84 -216 214c0 178 127 327 302 327c99 0 163 -44 192 -111c-19 104 -74 196 -164 274l-107 -64l-18 15l106 65c-27 22 -56 43 -89 63l27 17c32 -20 62 -42 89 -64l105 64l19 -16zM258 17
c135 0 242 99 268 246c5 27 5 37 5 55c0 115 -71 187 -186 187c-163 0 -274 -140 -274 -302c0 -114 70 -186 187 -186z" />
    <glyph glyph-name="dcaron" unicode="&#x10f;" horiz-adv-x="660" 
d="M546 377l71 403h30l-138 -780h-29l21 119l4 24c-48 -91 -134 -153 -257 -153c-130 0 -209 83 -209 211c0 180 126 331 302 331c124 0 189 -64 205 -155zM761 780h31l-104 -187h-26zM258 17c135 0 242 99 268 245l1 8c3 18 4 32 4 48c0 115 -70 187 -186 187
c-163 0 -275 -142 -275 -302c0 -114 70 -186 188 -186z" />
    <glyph glyph-name="dcroat" unicode="&#x111;" horiz-adv-x="654" 
d="M719 668l-5 -25h-91l-114 -643h-29l21 119l4 24c-48 -91 -134 -153 -257 -153c-130 0 -209 83 -209 211c0 180 126 331 302 331c124 0 189 -64 205 -155l47 266h-226l4 25h226l20 112h30l-20 -112h92zM258 17c135 0 242 99 268 245l1 8c3 18 4 32 4 48
c0 115 -70 187 -186 187c-163 0 -275 -142 -275 -302c0 -114 70 -186 188 -186z" />
    <glyph glyph-name="e" unicode="e" horiz-adv-x="573" 
d="M516 248h-442c-2 -16 -3 -33 -3 -50c0 -111 61 -182 167 -182c81 0 159 43 216 108l21 -19c-68 -78 -151 -115 -239 -115c-124 0 -197 82 -197 210c0 178 117 332 289 332c123 0 197 -80 197 -205c0 -22 -5 -62 -9 -79zM326 506c-131 0 -222 -106 -247 -233h410
c3 19 5 37 5 54c0 111 -63 179 -168 179z" />
    <glyph glyph-name="eacute" unicode="&#xe9;" horiz-adv-x="573" 
d="M520 762l-164 -142h-32l151 142h45zM516 248h-442c-2 -16 -3 -33 -3 -50c0 -111 61 -182 167 -182c81 0 159 43 216 108l21 -19c-68 -78 -151 -115 -239 -115c-124 0 -197 82 -197 210c0 178 117 332 289 332c123 0 197 -80 197 -205c0 -22 -5 -62 -9 -79zM326 506
c-131 0 -222 -106 -247 -233h410c3 19 5 37 5 54c0 111 -63 179 -168 179z" />
    <glyph glyph-name="ecaron" unicode="&#x11b;" horiz-adv-x="573" 
d="M326 620l-103 142h33l91 -123l136 123h33l-153 -142h-37zM516 248h-442c-2 -16 -3 -33 -3 -50c0 -111 61 -182 167 -182c81 0 159 43 216 108l21 -19c-68 -78 -151 -115 -239 -115c-124 0 -197 82 -197 210c0 178 117 332 289 332c123 0 197 -80 197 -205
c0 -22 -5 -62 -9 -79zM326 506c-131 0 -222 -106 -247 -233h410c3 19 5 37 5 54c0 111 -63 179 -168 179z" />
    <glyph glyph-name="ecircumflex" unicode="&#xea;" horiz-adv-x="573" 
d="M367 743l-137 -123h-32l153 142h37l103 -142h-32zM516 248h-442c-2 -16 -3 -33 -3 -50c0 -111 61 -182 167 -182c81 0 159 43 216 108l21 -19c-68 -78 -151 -115 -239 -115c-124 0 -197 82 -197 210c0 178 117 332 289 332c123 0 197 -80 197 -205c0 -22 -5 -62 -9 -79z
M326 506c-131 0 -222 -106 -247 -233h410c3 19 5 37 5 54c0 111 -63 179 -168 179z" />
    <glyph glyph-name="edieresis" unicode="&#xeb;" horiz-adv-x="573" 
d="M270 685c-14 0 -24 11 -24 25c0 19 17 30 31 30s24 -11 24 -25c0 -19 -17 -30 -31 -30zM446 685c-14 0 -24 11 -24 25c0 19 17 30 30 30c14 0 24 -11 24 -25c0 -19 -17 -30 -30 -30zM516 248h-442c-2 -16 -3 -33 -3 -50c0 -111 61 -182 167 -182c81 0 159 43 216 108
l21 -19c-68 -78 -151 -115 -239 -115c-124 0 -197 82 -197 210c0 178 117 332 289 332c123 0 197 -80 197 -205c0 -22 -5 -62 -9 -79zM326 506c-131 0 -222 -106 -247 -233h410c3 19 5 37 5 54c0 111 -63 179 -168 179z" />
    <glyph glyph-name="edotaccent" unicode="&#x117;" horiz-adv-x="573" 
d="M359 685c-14 0 -25 11 -25 26c0 17 15 29 30 29c14 0 25 -11 25 -26c0 -17 -14 -29 -30 -29zM516 248h-442c-2 -16 -3 -33 -3 -50c0 -111 61 -182 167 -182c81 0 159 43 216 108l21 -19c-68 -78 -151 -115 -239 -115c-124 0 -197 82 -197 210c0 178 117 332 289 332
c123 0 197 -80 197 -205c0 -22 -5 -62 -9 -79zM326 506c-131 0 -222 -106 -247 -233h410c3 19 5 37 5 54c0 111 -63 179 -168 179z" />
    <glyph glyph-name="egrave" unicode="&#xe8;" horiz-adv-x="573" 
d="M361 620h-29l-114 142h42zM516 248h-442c-2 -16 -3 -33 -3 -50c0 -111 61 -182 167 -182c81 0 159 43 216 108l21 -19c-68 -78 -151 -115 -239 -115c-124 0 -197 82 -197 210c0 178 117 332 289 332c123 0 197 -80 197 -205c0 -22 -5 -62 -9 -79zM326 506
c-131 0 -222 -106 -247 -233h410c3 19 5 37 5 54c0 111 -63 179 -168 179z" />
    <glyph glyph-name="emacron" unicode="&#x113;" horiz-adv-x="573" 
d="M497 687l-4 -26h-281l4 26h281zM516 248h-442c-2 -16 -3 -33 -3 -50c0 -111 61 -182 167 -182c81 0 159 43 216 108l21 -19c-68 -78 -151 -115 -239 -115c-124 0 -197 82 -197 210c0 178 117 332 289 332c123 0 197 -80 197 -205c0 -22 -5 -62 -9 -79zM326 506
c-131 0 -222 -106 -247 -233h410c3 19 5 37 5 54c0 111 -63 179 -168 179z" />
    <glyph glyph-name="eogonek" unicode="&#x119;" horiz-adv-x="573" 
d="M516 248h-442c-2 -16 -3 -33 -3 -50c0 -111 61 -182 167 -182c81 0 159 43 216 108l21 -19c-48 -55 -104 -90 -164 -106c-99 -59 -146 -116 -146 -164c0 -25 17 -42 43 -42c25 0 50 11 70 27l1 -22c-24 -19 -51 -28 -77 -28c-41 0 -66 24 -66 59c0 52 44 109 123 162
c-8 -1 -15 -1 -23 -1c-124 0 -197 82 -197 210c0 178 117 332 289 332c123 0 197 -80 197 -205c0 -22 -5 -62 -9 -79zM326 506c-131 0 -222 -106 -247 -233h410c3 19 5 37 5 54c0 111 -63 179 -168 179z" />
    <glyph glyph-name="f" unicode="f" horiz-adv-x="354" 
d="M335 764c-68 0 -124 -50 -137 -123l-21 -119h205l-5 -26h-205l-87 -496h-30l88 496h-94l4 26h95l22 126c15 86 79 142 163 142c39 0 71 -6 97 -20l-5 -26c-23 14 -54 20 -90 20z" />
    <glyph glyph-name="g" unicode="g" horiz-adv-x="655" 
d="M574 522h29l-87 -493c-27 -157 -152 -259 -315 -259c-92 0 -164 24 -216 71l10 24c47 -40 111 -69 206 -69c146 0 261 97 287 240l19 108c-48 -92 -134 -154 -258 -154c-130 0 -209 83 -209 211c0 180 126 331 302 331c124 0 189 -64 205 -155l5 26zM259 17
c135 0 242 99 268 245l1 8c3 17 4 32 4 48c0 115 -70 187 -186 187c-163 0 -275 -142 -275 -302c0 -114 70 -186 188 -186z" />
    <glyph glyph-name="gbreve" unicode="&#x11f;" horiz-adv-x="655" 
d="M377 610c-77 0 -124 47 -124 119c0 11 1 22 3 33h28c-2 -11 -3 -22 -3 -31c0 -60 36 -98 97 -98c72 0 128 53 141 129h29c-16 -93 -83 -152 -171 -152zM574 522h29l-87 -493c-27 -157 -152 -259 -315 -259c-92 0 -164 24 -216 71l10 24c47 -40 111 -69 206 -69
c146 0 261 97 287 240l19 108c-48 -92 -134 -154 -258 -154c-130 0 -209 83 -209 211c0 180 126 331 302 331c124 0 189 -64 205 -155l5 26zM259 17c135 0 242 99 268 245l1 8c3 17 4 32 4 48c0 115 -70 187 -186 187c-163 0 -275 -142 -275 -302c0 -114 70 -186 188 -186z
" />
    <glyph glyph-name="gcommaaccent" unicode="&#x123;" horiz-adv-x="655" 
d="M474 780l-99 -187h-31l104 187h26zM574 522h29l-87 -493c-27 -157 -152 -259 -315 -259c-92 0 -164 24 -216 71l10 24c47 -40 111 -69 206 -69c146 0 261 97 287 240l19 108c-48 -92 -134 -154 -258 -154c-130 0 -209 83 -209 211c0 180 126 331 302 331
c124 0 189 -64 205 -155l5 26zM259 17c135 0 242 99 268 245l1 8c3 17 4 32 4 48c0 115 -70 187 -186 187c-163 0 -275 -142 -275 -302c0 -114 70 -186 188 -186z" />
    <glyph glyph-name="gdotaccent" unicode="&#x121;" horiz-adv-x="655" 
d="M391 685c-14 0 -25 11 -25 26c0 17 15 29 30 29c14 0 25 -11 25 -26c0 -17 -14 -29 -30 -29zM574 522h29l-87 -493c-27 -157 -152 -259 -315 -259c-92 0 -164 24 -216 71l10 24c47 -40 111 -69 206 -69c146 0 261 97 287 240l19 108c-48 -92 -134 -154 -258 -154
c-130 0 -209 83 -209 211c0 180 126 331 302 331c124 0 189 -64 205 -155l5 26zM259 17c135 0 242 99 268 245l1 8c3 17 4 32 4 48c0 115 -70 187 -186 187c-163 0 -275 -142 -275 -302c0 -114 70 -186 188 -186z" />
    <glyph glyph-name="h" unicode="h" horiz-adv-x="623" 
d="M359 532c117 0 189 -65 189 -164c0 -12 -2 -25 -4 -39l-58 -329h-30l57 322c2 13 3 26 3 37c0 90 -62 146 -165 146c-117 0 -209 -73 -229 -183v-2l-57 -320h-30l138 780h30l-64 -366c40 72 112 118 220 118z" />
    <glyph glyph-name="hbar" unicode="&#x127;" horiz-adv-x="623" 
d="M359 532c117 0 189 -65 189 -164c0 -12 -2 -25 -4 -39l-58 -329h-30l57 322c2 13 3 26 3 37c0 90 -62 146 -165 146c-117 0 -209 -73 -229 -183v-2l-57 -320h-30l114 643h-90l4 25h90l20 112h30l-20 -112h228l-5 -25h-227l-40 -229c40 72 112 118 220 118z" />
    <glyph glyph-name="i" unicode="i" horiz-adv-x="214" 
d="M174 685c-14 0 -24 11 -24 26c0 17 14 29 29 29c14 0 25 -11 25 -26c0 -17 -14 -29 -30 -29zM37 0l92 522h30l-92 -522h-30z" />
    <glyph glyph-name="dotlessi" unicode="&#x131;" horiz-adv-x="214" 
d="M37 0l92 522h30l-92 -522h-30z" />
    <glyph glyph-name="iacute" unicode="&#xed;" horiz-adv-x="214" 
d="M140 620l151 142h45l-164 -142h-32zM37 0l92 522h30l-92 -522h-30z" />
    <glyph glyph-name="icircumflex" unicode="&#xee;" horiz-adv-x="214" 
d="M307 620h-32l-92 123l-137 -123h-32l153 142h37zM37 0l92 522h30l-92 -522h-30z" />
    <glyph glyph-name="idieresis" unicode="&#xef;" horiz-adv-x="214" 
d="M86 685c-14 0 -24 11 -24 25c0 19 17 30 31 30s24 -11 24 -25c0 -19 -17 -30 -31 -30zM262 685c-14 0 -24 11 -24 25c0 19 17 30 30 30c14 0 24 -11 24 -25c0 -19 -17 -30 -30 -30zM37 0l92 522h30l-92 -522h-30z" />
    <glyph glyph-name="igrave" unicode="&#xec;" horiz-adv-x="214" 
d="M148 620l-114 142h42l101 -142h-29zM37 0l92 522h30l-92 -522h-30z" />
    <glyph glyph-name="imacron" unicode="&#x12b;" horiz-adv-x="214" 
d="M28 661l4 26h281l-4 -26h-281zM37 0l92 522h30l-92 -522h-30z" />
    <glyph glyph-name="iogonek" unicode="&#x12f;" horiz-adv-x="214" 
d="M180 740c14 0 25 -11 25 -26c0 -17 -14 -29 -30 -29c-14 0 -25 11 -25 26c0 17 15 29 30 29zM38 7l91 515h30l-92 -522c-100 -60 -147 -117 -147 -165c0 -25 17 -42 43 -42c25 0 50 11 70 27l1 -22c-24 -19 -51 -28 -77 -28c-41 0 -66 24 -66 59c0 57 53 120 147 178z
" />
    <glyph glyph-name="j" unicode="j" horiz-adv-x="221" 
d="M182 685c-14 0 -25 11 -25 26c0 17 14 29 30 29c14 0 25 -11 25 -26c0 -17 -15 -29 -30 -29zM-98 -230c-32 0 -59 5 -79 15l5 26c20 -10 43 -15 71 -15c65 0 119 50 132 124l106 602h30l-108 -610c-15 -86 -78 -142 -157 -142z" />
    <glyph glyph-name="k" unicode="k" horiz-adv-x="544" 
d="M562 522l-275 -248l194 -274h-39l-183 261h-148l-46 -261h-30l138 780h30l-87 -493h144l260 235h42z" />
    <glyph glyph-name="kcommaaccent" unicode="&#x137;" horiz-adv-x="544" 
d="M562 522l-275 -248l194 -274h-39l-183 261h-148l-46 -261h-30l138 780h30l-87 -493h144l260 235h42zM120 -220l89 168h31l-95 -168h-25z" />
    <glyph glyph-name="l" unicode="l" horiz-adv-x="217" 
d="M39 0l138 780h30l-138 -780h-30z" />
    <glyph glyph-name="lacute" unicode="&#x13a;" horiz-adv-x="217" 
d="M188 878l151 142h45l-164 -142h-32zM39 0l138 780h30l-138 -780h-30z" />
    <glyph glyph-name="lcaron" unicode="&#x13e;" horiz-adv-x="220" 
d="M39 0l138 780h30l-138 -780h-30zM222 593l99 187h31l-105 -187h-25z" />
    <glyph glyph-name="lcommaaccent" unicode="&#x13c;" horiz-adv-x="217" 
d="M39 0l138 780h30l-138 -780h-30zM-49 -220l89 168h31l-95 -168h-25z" />
    <glyph glyph-name="lslash" unicode="&#x142;" horiz-adv-x="217" 
d="M258 502l-6 -29l-112 -70l-71 -403h-30l68 386l-115 -73l5 30l115 72l65 365h30l-62 -348z" />
    <glyph glyph-name="m" unicode="m" horiz-adv-x="964" 
d="M717 532c108 0 173 -63 173 -160c0 -14 -1 -28 -4 -43l-58 -329h-30l57 321c3 15 4 29 4 42c0 87 -55 142 -146 142c-101 0 -183 -68 -207 -171c0 -1 -1 -3 -1 -5l-2 -9l-57 -320h-30l57 321c3 15 4 29 4 42c0 87 -55 142 -146 142c-106 0 -190 -74 -209 -185l-57 -320
h-30l92 522h30l-18 -105c38 70 103 115 200 115c94 0 156 -52 168 -132c37 77 108 132 210 132z" />
    <glyph glyph-name="n" unicode="n" horiz-adv-x="623" 
d="M359 532c117 0 189 -65 189 -164c0 -12 -2 -25 -4 -39l-58 -329h-30l57 322c2 13 3 26 3 37c0 90 -62 146 -165 146c-118 0 -210 -74 -229 -185l-57 -320h-30l92 522h30l-19 -109c40 72 112 119 221 119z" />
    <glyph glyph-name="nacute" unicode="&#x144;" horiz-adv-x="623" 
d="M545 762l-164 -142h-32l151 142h45zM359 532c117 0 189 -65 189 -164c0 -12 -2 -25 -4 -39l-58 -329h-30l57 322c2 13 3 26 3 37c0 90 -62 146 -165 146c-118 0 -210 -74 -229 -185l-57 -320h-30l92 522h30l-19 -109c40 72 112 119 221 119z" />
    <glyph glyph-name="ncaron" unicode="&#x148;" horiz-adv-x="623" 
d="M351 620l-103 142h33l91 -123l136 123h33l-153 -142h-37zM359 532c117 0 189 -65 189 -164c0 -12 -2 -25 -4 -39l-58 -329h-30l57 322c2 13 3 26 3 37c0 90 -62 146 -165 146c-118 0 -210 -74 -229 -185l-57 -320h-30l92 522h30l-19 -109c40 72 112 119 221 119z" />
    <glyph glyph-name="ncommaaccent" unicode="&#x146;" horiz-adv-x="623" 
d="M359 532c117 0 189 -65 189 -164c0 -12 -2 -25 -4 -39l-58 -329h-30l57 322c2 13 3 26 3 37c0 90 -62 146 -165 146c-118 0 -210 -74 -229 -185l-57 -320h-30l92 522h30l-19 -109c40 72 112 119 221 119zM157 -220l89 168h31l-95 -168h-25z" />
    <glyph glyph-name="eng" unicode="&#x14b;" horiz-adv-x="623" 
d="M359 532c117 0 189 -65 189 -164c0 -12 -2 -25 -4 -39l-74 -417c-15 -87 -77 -142 -157 -142c-32 0 -59 5 -79 15l6 26c19 -10 43 -15 71 -15c64 0 118 51 131 124l71 402c2 13 3 26 3 37c0 90 -62 146 -165 146c-118 0 -210 -74 -229 -185l-57 -320h-30l92 522h30
l-19 -109c40 72 112 119 221 119z" />
    <glyph glyph-name="ntilde" unicode="&#xf1;" horiz-adv-x="623" 
d="M306 714c-35 0 -69 -27 -76 -71h-25c9 59 55 100 104 100c70 0 87 -82 147 -82c35 0 69 27 77 72h25c-11 -60 -56 -100 -105 -100c-70 0 -87 81 -147 81zM359 532c117 0 189 -65 189 -164c0 -12 -2 -25 -4 -39l-58 -329h-30l57 322c2 13 3 26 3 37c0 90 -62 146 -165 146
c-118 0 -210 -74 -229 -185l-57 -320h-30l92 522h30l-19 -109c40 72 112 119 221 119z" />
    <glyph glyph-name="o" unicode="o" horiz-adv-x="620" 
d="M255 -10c-135 0 -216 84 -216 214c0 181 130 328 309 328c134 0 215 -84 215 -214c0 -180 -130 -328 -308 -328zM258 17c162 0 273 141 273 302c0 113 -70 186 -186 186c-163 0 -274 -140 -274 -302c0 -114 70 -186 187 -186z" />
    <glyph glyph-name="oacute" unicode="&#xf3;" horiz-adv-x="620" 
d="M343 620l151 142h45l-164 -142h-32zM255 -10c-135 0 -216 84 -216 214c0 181 130 328 309 328c134 0 215 -84 215 -214c0 -180 -130 -328 -308 -328zM258 17c162 0 273 141 273 302c0 113 -70 186 -186 186c-163 0 -274 -140 -274 -302c0 -114 70 -186 187 -186z" />
    <glyph glyph-name="ocircumflex" unicode="&#xf4;" horiz-adv-x="620" 
d="M386 743l-137 -123h-32l153 142h37l103 -142h-32zM348 532c134 0 215 -84 215 -214c0 -180 -130 -328 -308 -328c-135 0 -216 84 -216 214c0 181 130 328 309 328zM258 17c162 0 273 141 273 302c0 113 -70 186 -186 186c-163 0 -274 -140 -274 -302
c0 -114 70 -186 187 -186z" />
    <glyph glyph-name="odieresis" unicode="&#xf6;" horiz-adv-x="620" 
d="M289 685c-14 0 -24 11 -24 25c0 19 17 30 31 30s24 -11 24 -25c0 -19 -17 -30 -31 -30zM465 685c-14 0 -24 11 -24 25c0 19 17 30 30 30c14 0 24 -11 24 -25c0 -19 -17 -30 -30 -30zM255 -10c-135 0 -216 84 -216 214c0 181 130 328 309 328c134 0 215 -84 215 -214
c0 -180 -130 -328 -308 -328zM258 17c162 0 273 141 273 302c0 113 -70 186 -186 186c-163 0 -274 -140 -274 -302c0 -114 70 -186 187 -186z" />
    <glyph glyph-name="ograve" unicode="&#xf2;" horiz-adv-x="620" 
d="M351 620l-114 142h42l101 -142h-29zM255 -10c-135 0 -216 84 -216 214c0 181 130 328 309 328c134 0 215 -84 215 -214c0 -180 -130 -328 -308 -328zM258 17c162 0 273 141 273 302c0 113 -70 186 -186 186c-163 0 -274 -140 -274 -302c0 -114 70 -186 187 -186z" />
    <glyph glyph-name="ohungarumlaut" unicode="&#x151;" horiz-adv-x="620" 
d="M284 620l132 142h42l-144 -142h-30zM402 620l131 142h43l-144 -142h-30zM255 -10c-135 0 -216 84 -216 214c0 181 130 328 309 328c134 0 215 -84 215 -214c0 -180 -130 -328 -308 -328zM258 17c162 0 273 141 273 302c0 113 -70 186 -186 186
c-163 0 -274 -140 -274 -302c0 -114 70 -186 187 -186z" />
    <glyph glyph-name="omacron" unicode="&#x14d;" horiz-adv-x="620" 
d="M231 661l4 26h281l-4 -26h-281zM255 -10c-135 0 -216 84 -216 214c0 181 130 328 309 328c134 0 215 -84 215 -214c0 -180 -130 -328 -308 -328zM258 17c162 0 273 141 273 302c0 113 -70 186 -186 186c-163 0 -274 -140 -274 -302c0 -114 70 -186 187 -186z" />
    <glyph glyph-name="oslash" unicode="&#xf8;" horiz-adv-x="620" 
d="M602 513l-74 -67c23 -34 35 -77 35 -128c0 -180 -130 -328 -308 -328c-71 0 -127 23 -164 64l-71 -64l-18 19l73 65c-24 35 -36 79 -36 130c0 181 130 328 309 328c71 0 127 -23 164 -65l72 65zM71 203c0 -42 10 -78 27 -107l391 350c-32 38 -81 59 -144 59
c-163 0 -274 -140 -274 -302zM531 319c0 41 -9 77 -27 106l-390 -351c32 -36 81 -57 144 -57c162 0 273 141 273 302z" />
    <glyph glyph-name="otilde" unicode="&#xf5;" horiz-adv-x="620" 
d="M447 633c-70 0 -87 81 -147 81c-35 0 -69 -27 -76 -71h-25c9 59 55 100 104 100c70 0 87 -82 147 -82c35 0 69 27 77 72h25c-11 -60 -56 -100 -105 -100zM255 -10c-135 0 -216 84 -216 214c0 181 130 328 309 328c134 0 215 -84 215 -214c0 -180 -130 -328 -308 -328z
M258 17c162 0 273 141 273 302c0 113 -70 186 -186 186c-163 0 -274 -140 -274 -302c0 -114 70 -186 187 -186z" />
    <glyph glyph-name="oe" unicode="&#x153;" horiz-adv-x="1056" 
d="M998 248h-442c-2 -16 -3 -33 -3 -50c0 -111 62 -182 167 -182c82 0 160 43 217 108l20 -19c-67 -78 -150 -115 -238 -115c-114 0 -183 73 -190 189c-47 -111 -148 -189 -275 -189c-134 0 -215 84 -215 213c0 182 129 329 308 329c123 0 199 -73 208 -189
c44 110 137 189 257 189c122 0 196 -80 196 -205c0 -22 -4 -56 -10 -79zM809 506c-131 0 -222 -106 -248 -233h410c3 19 5 37 5 54c0 111 -62 179 -167 179zM259 17c161 0 272 141 272 302c0 113 -70 186 -186 186c-163 0 -274 -140 -274 -302c0 -114 70 -186 188 -186z" />
    <glyph glyph-name="p" unicode="p" horiz-adv-x="654" 
d="M389 532c130 0 209 -83 209 -212c0 -180 -127 -330 -302 -330c-126 0 -190 65 -206 157l-64 -367h-30l131 742h30l-21 -119l-4 -24c47 91 133 153 257 153zM292 17c162 0 274 142 274 302c0 113 -69 186 -188 186c-133 0 -241 -98 -268 -242v-3l-2 -12
c-2 -15 -3 -30 -3 -45c0 -114 70 -186 187 -186z" />
    <glyph glyph-name="thorn" unicode="&#xfe;" horiz-adv-x="654" 
d="M389 532c130 0 209 -83 209 -212c0 -180 -127 -330 -302 -330c-126 0 -190 65 -206 157l-64 -367h-30l177 1000h30l-72 -402c47 91 134 154 258 154zM292 17c162 0 274 142 274 302c0 113 -69 186 -188 186c-134 0 -242 -99 -268 -245l-1 -5c-3 -19 -4 -34 -4 -52
c0 -114 70 -186 187 -186z" />
    <glyph glyph-name="q" unicode="q" horiz-adv-x="655" 
d="M573 522h29l-131 -742h-30l64 362c-48 -90 -134 -152 -257 -152c-130 0 -209 83 -209 211c0 180 126 331 302 331c124 0 189 -64 205 -155l5 26zM258 17c135 0 242 99 268 245l2 10c2 16 3 31 3 46c0 115 -70 187 -186 187c-163 0 -275 -142 -275 -302
c0 -114 70 -186 188 -186z" />
    <glyph glyph-name="r" unicode="r" horiz-adv-x="347" 
d="M35 0l92 522h30l-20 -112c45 86 124 122 239 122l-6 -28c-140 0 -228 -73 -249 -187l-56 -317h-30z" />
    <glyph glyph-name="racute" unicode="&#x155;" horiz-adv-x="347" 
d="M232 620l151 142h45l-164 -142h-32zM35 0l92 522h30l-20 -112c45 86 124 122 239 122l-6 -28c-140 0 -228 -73 -249 -187l-56 -317h-30z" />
    <glyph glyph-name="rcaron" unicode="&#x159;" horiz-adv-x="347" 
d="M234 620l-103 142h33l91 -123l136 123h33l-153 -142h-37zM137 410c45 86 124 122 239 122l-6 -28c-140 0 -228 -73 -249 -187l-56 -317h-30l92 522h30z" />
    <glyph glyph-name="rcommaaccent" unicode="&#x157;" horiz-adv-x="347" 
d="M35 0l92 522h30l-20 -112c45 86 124 122 239 122l-6 -28c-140 0 -228 -73 -249 -187l-56 -317h-30zM-44 -220l89 168h31l-95 -168h-25z" />
    <glyph glyph-name="s" unicode="s" horiz-adv-x="452" 
d="M168 -10c-70 0 -130 19 -159 51l17 19c35 -34 88 -44 143 -44c96 0 175 57 175 131c0 51 -44 80 -104 98l-61 20c-64 19 -112 47 -112 107c0 94 85 160 194 160c64 0 111 -13 158 -44l-17 -22c-40 29 -87 40 -140 40c-93 0 -163 -55 -163 -127c0 -49 40 -70 93 -87
l62 -20c61 -19 122 -54 122 -121c0 -96 -92 -161 -208 -161z" />
    <glyph glyph-name="sacute" unicode="&#x15b;" horiz-adv-x="452" 
d="M265 620l151 142h45l-164 -142h-32zM168 -10c-70 0 -130 19 -159 51l17 19c35 -34 88 -44 143 -44c96 0 175 57 175 131c0 51 -44 80 -104 98l-61 20c-64 19 -112 47 -112 107c0 94 85 160 194 160c64 0 111 -13 158 -44l-17 -22c-40 29 -87 40 -140 40
c-93 0 -163 -55 -163 -127c0 -49 40 -70 93 -87l62 -20c61 -19 122 -54 122 -121c0 -96 -92 -161 -208 -161z" />
    <glyph glyph-name="scaron" unicode="&#x161;" horiz-adv-x="452" 
d="M267 620l-103 142h33l91 -123l136 123h33l-153 -142h-37zM67 372c0 94 85 160 194 160c64 0 111 -13 158 -44l-17 -22c-40 29 -87 40 -140 40c-93 0 -163 -55 -163 -127c0 -49 40 -70 93 -87l62 -20c61 -19 122 -54 122 -121c0 -96 -92 -161 -208 -161
c-70 0 -130 19 -159 51l17 19c35 -34 88 -44 143 -44c96 0 175 57 175 131c0 51 -44 80 -104 98l-61 20c-64 19 -112 47 -112 107z" />
    <glyph glyph-name="scedilla" unicode="&#x15f;" horiz-adv-x="452" 
d="M262 506c-93 0 -163 -55 -163 -127c0 -49 40 -70 93 -87l62 -20c61 -19 122 -54 122 -121c0 -89 -80 -152 -185 -160l-55 -65c10 1 21 2 32 2c57 0 92 -27 92 -67c0 -58 -59 -91 -126 -91c-34 0 -68 11 -89 31l14 18c20 -19 46 -26 74 -26c53 0 98 27 98 67
c0 29 -28 47 -72 47c-19 0 -38 -3 -55 -9l-6 13l65 79c-68 1 -126 20 -154 51l17 19c35 -34 88 -44 143 -44c96 0 175 57 175 131c0 51 -44 80 -104 98l-61 20c-64 19 -112 47 -112 107c0 94 85 160 194 160c64 0 111 -13 158 -44l-17 -22c-40 29 -87 40 -140 40z" />
    <glyph glyph-name="scommaaccent" unicode="&#x219;" horiz-adv-x="452" 
d="M168 -10c-70 0 -130 19 -159 51l17 19c35 -34 88 -44 143 -44c96 0 175 57 175 131c0 51 -44 80 -104 98l-61 20c-64 19 -112 47 -112 107c0 94 85 160 194 160c64 0 111 -13 158 -44l-17 -22c-40 29 -87 40 -140 40c-93 0 -163 -55 -163 -127c0 -49 40 -70 93 -87
l62 -20c61 -19 122 -54 122 -121c0 -96 -92 -161 -208 -161zM81 -220l89 168h31l-95 -168h-25z" />
    <glyph glyph-name="germandbls" unicode="&#xdf;" horiz-adv-x="591" 
d="M245 -10c-27 0 -50 3 -74 12l5 26c22 -9 44 -11 69 -11c142 0 250 101 250 233c0 94 -70 154 -185 154l5 26c119 0 210 87 210 203c0 80 -56 131 -148 131c-106 0 -188 -68 -206 -168l-105 -596h-30l106 602c20 114 114 188 237 188c110 0 178 -61 178 -155
c0 -105 -71 -192 -175 -217c90 -19 144 -82 144 -171c0 -150 -124 -257 -281 -257z" />
    <glyph glyph-name="t" unicode="t" horiz-adv-x="358" 
d="M168 496l-64 -365c-2 -11 -3 -21 -3 -31c0 -52 33 -83 88 -83c40 0 80 6 118 20l-4 -27c-34 -14 -74 -20 -124 -20c-68 0 -109 41 -109 104c0 11 1 22 3 34l65 368h-94l5 26h94l27 153h30l-27 -153h212l-4 -26h-213z" />
    <glyph glyph-name="tbar" unicode="&#x167;" horiz-adv-x="367" 
d="M388 496h-212l-36 -205h204l-4 -24h-205l-24 -136c-1 -11 -2 -21 -2 -31c0 -52 33 -83 88 -83c40 0 80 6 118 20l-4 -27c-34 -14 -74 -20 -124 -20c-68 0 -109 41 -109 104c0 11 1 22 3 34l25 139h-92l5 24h91l36 205h-94l4 26h95l27 153h30l-27 -153h212z" />
    <glyph glyph-name="tcaron" unicode="&#x165;" horiz-adv-x="358" 
d="M407 780l-105 -187h-25l99 187h31zM200 675l-27 -153h212l-4 -26h-213l-64 -365c-2 -11 -3 -21 -3 -31c0 -52 33 -83 88 -83c40 0 80 6 118 20l-4 -27c-34 -14 -74 -20 -124 -20c-68 0 -109 41 -109 104c0 11 1 22 3 34l65 368h-94l5 26h94l27 153h30z" />
    <glyph glyph-name="uni0163" unicode="&#x163;" horiz-adv-x="358" 
d="M168 496l-64 -365c-2 -11 -3 -21 -3 -31c0 -52 33 -83 88 -83c40 0 80 6 118 20l-4 -27c-34 -14 -74 -20 -124 -20c-11 0 -21 1 -30 3l-57 -67c10 1 21 2 32 2c57 0 92 -27 92 -67c0 -58 -59 -91 -126 -91c-34 0 -68 11 -89 31l14 18c20 -19 46 -26 74 -26
c53 0 98 27 98 67c0 29 -28 47 -72 47c-19 0 -38 -3 -55 -9l-6 13l73 89c-36 16 -57 49 -57 94c0 11 1 22 3 34l65 368h-94l5 26h94l27 153h30l-27 -153h212l-4 -26h-213z" />
    <glyph glyph-name="uni021B" unicode="&#x21b;" horiz-adv-x="358" 
d="M168 496l-64 -365c-2 -11 -3 -21 -3 -31c0 -52 33 -83 88 -83c40 0 80 6 118 20l-4 -27c-34 -14 -74 -20 -124 -20c-68 0 -109 41 -109 104c0 11 1 22 3 34l65 368h-94l5 26h94l27 153h30l-27 -153h212l-4 -26h-213zM37 -220l89 168h31l-95 -168h-25z" />
    <glyph glyph-name="u" unicode="u" 
d="M532 522h30l-92 -522h-30l19 109c-40 -72 -110 -119 -216 -119c-115 0 -185 65 -185 163c0 13 2 26 4 40l58 329h30l-57 -322c-2 -14 -3 -26 -3 -39c0 -89 60 -144 160 -144c116 0 206 74 225 185z" />
    <glyph glyph-name="uacute" unicode="&#xfa;" 
d="M533 762l-164 -142h-32l151 142h45zM532 522h30l-92 -522h-30l19 109c-40 -72 -110 -119 -216 -119c-115 0 -185 65 -185 163c0 13 2 26 4 40l58 329h30l-57 -322c-2 -14 -3 -26 -3 -39c0 -89 60 -144 160 -144c116 0 206 74 225 185z" />
    <glyph glyph-name="ucircumflex" unicode="&#xfb;" 
d="M380 743l-137 -123h-32l153 142h37l103 -142h-32zM532 522h30l-92 -522h-30l19 109c-40 -72 -110 -119 -216 -119c-115 0 -185 65 -185 163c0 13 2 26 4 40l58 329h30l-57 -322c-2 -14 -3 -26 -3 -39c0 -89 60 -144 160 -144c116 0 206 74 225 185z" />
    <glyph glyph-name="udieresis" unicode="&#xfc;" 
d="M283 685c-14 0 -24 11 -24 25c0 19 17 30 31 30s24 -11 24 -25c0 -19 -17 -30 -31 -30zM459 685c-14 0 -24 11 -24 25c0 19 17 30 30 30c14 0 24 -11 24 -25c0 -19 -17 -30 -30 -30zM532 522h30l-92 -522h-30l19 109c-40 -72 -110 -119 -216 -119
c-115 0 -185 65 -185 163c0 13 2 26 4 40l58 329h30l-57 -322c-2 -14 -3 -26 -3 -39c0 -89 60 -144 160 -144c116 0 206 74 225 185z" />
    <glyph glyph-name="ugrave" unicode="&#xf9;" 
d="M374 620h-29l-114 142h42zM532 522h30l-92 -522h-30l19 109c-40 -72 -110 -119 -216 -119c-115 0 -185 65 -185 163c0 13 2 26 4 40l58 329h30l-57 -322c-2 -14 -3 -26 -3 -39c0 -89 60 -144 160 -144c116 0 206 74 225 185z" />
    <glyph glyph-name="uhungarumlaut" unicode="&#x171;" 
d="M452 762l-144 -142h-30l132 142h42zM426 620h-30l131 142h43zM475 202l57 320h30l-92 -522h-30l19 109c-40 -72 -110 -119 -216 -119c-115 0 -185 65 -185 163c0 13 2 26 4 40l58 329h30l-57 -322c-2 -14 -3 -26 -3 -39c0 -89 60 -144 160 -144c116 0 206 74 225 185z
" />
    <glyph glyph-name="umacron" unicode="&#x16b;" 
d="M510 687l-4 -26h-281l4 26h281zM532 522h30l-92 -522h-30l19 109c-40 -72 -110 -119 -216 -119c-115 0 -185 65 -185 163c0 13 2 26 4 40l58 329h30l-57 -322c-2 -14 -3 -26 -3 -39c0 -89 60 -144 160 -144c116 0 206 74 225 185z" />
    <glyph glyph-name="uogonek" unicode="&#x173;" 
d="M470 0c-100 -60 -147 -117 -147 -165c0 -25 17 -42 43 -42c25 0 50 11 70 27l1 -22c-24 -19 -51 -28 -77 -28c-41 0 -66 24 -66 59c0 57 53 120 147 178l18 102c-40 -72 -110 -119 -216 -119c-115 0 -185 65 -185 163c0 13 2 26 4 40l58 329h30l-57 -322
c-2 -14 -3 -26 -3 -39c0 -89 60 -144 160 -144c116 0 206 74 225 185l57 320h30z" />
    <glyph glyph-name="uring" unicode="&#x16f;" 
d="M353 584c-54 0 -88 33 -88 83c0 71 51 124 121 124c55 0 89 -33 89 -84c0 -69 -52 -123 -122 -123zM385 770c-58 0 -95 -50 -95 -103c0 -38 24 -62 64 -62c58 0 96 52 96 102c0 39 -24 63 -65 63zM532 522h30l-92 -522h-30l19 109c-40 -72 -110 -119 -216 -119
c-115 0 -185 65 -185 163c0 13 2 26 4 40l58 329h30l-57 -322c-2 -14 -3 -26 -3 -39c0 -89 60 -144 160 -144c116 0 206 74 225 185z" />
    <glyph glyph-name="v" unicode="v" horiz-adv-x="542" 
d="M200 0l-149 522h34l136 -486l310 486h34l-333 -522h-32z" />
    <glyph glyph-name="w" unicode="w" horiz-adv-x="904" 
d="M172 0l-119 522h34l107 -486l280 486h30l107 -486l280 486h34l-303 -522h-32l-107 483l-279 -483h-32z" />
    <glyph glyph-name="wacute" unicode="&#x1e83;" horiz-adv-x="904" 
d="M486 620l151 142h45l-164 -142h-32zM172 0l-119 522h34l107 -486l280 486h30l107 -486l280 486h34l-303 -522h-32l-107 483l-279 -483h-32z" />
    <glyph glyph-name="wcircumflex" unicode="&#x175;" horiz-adv-x="904" 
d="M529 743l-137 -123h-32l153 142h37l103 -142h-32zM891 522h34l-303 -522h-32l-107 483l-279 -483h-32l-119 522h34l107 -486l280 486h30l107 -486z" />
    <glyph glyph-name="wdieresis" unicode="&#x1e85;" horiz-adv-x="904" 
d="M432 685c-14 0 -24 11 -24 25c0 19 17 30 31 30s24 -11 24 -25c0 -19 -17 -30 -31 -30zM608 685c-14 0 -24 11 -24 25c0 19 17 30 30 30c14 0 24 -11 24 -25c0 -19 -17 -30 -30 -30zM172 0l-119 522h34l107 -486l280 486h30l107 -486l280 486h34l-303 -522h-32l-107 483
l-279 -483h-32z" />
    <glyph glyph-name="wgrave" unicode="&#x1e81;" horiz-adv-x="904" 
d="M494 620l-114 142h42l101 -142h-29zM172 0l-119 522h34l107 -486l280 486h30l107 -486l280 486h34l-303 -522h-32l-107 483l-279 -483h-32z" />
    <glyph glyph-name="x" unicode="x" horiz-adv-x="516" 
d="M525 522l-254 -254l173 -268h-38l-158 247l-247 -247h-39l270 268l-165 254h38l150 -233l232 233h38z" />
    <glyph glyph-name="y" unicode="y" horiz-adv-x="541" 
d="M21 -230c-20 0 -41 3 -53 10l6 25c11 -6 27 -9 43 -9c47 0 74 34 103 80l83 128l-151 518h34l140 -485l306 485h34l-417 -653c-38 -60 -68 -99 -128 -99z" />
    <glyph glyph-name="yacute" unicode="&#xfd;" horiz-adv-x="541" 
d="M305 620l151 142h45l-164 -142h-32zM21 -230c-20 0 -41 3 -53 10l6 25c11 -6 27 -9 43 -9c47 0 74 34 103 80l83 128l-151 518h34l140 -485l306 485h34l-417 -653c-38 -60 -68 -99 -128 -99z" />
    <glyph glyph-name="ycircumflex" unicode="&#x177;" horiz-adv-x="541" 
d="M348 743l-137 -123h-32l153 142h37l103 -142h-32zM532 522h34l-417 -653c-38 -60 -68 -99 -128 -99c-20 0 -41 3 -53 10l6 25c11 -6 27 -9 43 -9c47 0 74 34 103 80l83 128l-151 518h34l140 -485z" />
    <glyph glyph-name="ydieresis" unicode="&#xff;" horiz-adv-x="541" 
d="M251 685c-14 0 -24 11 -24 25c0 19 17 30 31 30s24 -11 24 -25c0 -19 -17 -30 -31 -30zM427 685c-14 0 -24 11 -24 25c0 19 17 30 30 30c14 0 24 -11 24 -25c0 -19 -17 -30 -30 -30zM21 -230c-20 0 -41 3 -53 10l6 25c11 -6 27 -9 43 -9c47 0 74 34 103 80l83 128
l-151 518h34l140 -485l306 485h34l-417 -653c-38 -60 -68 -99 -128 -99z" />
    <glyph glyph-name="ygrave" unicode="&#x1ef3;" horiz-adv-x="541" 
d="M313 620l-114 142h42l101 -142h-29zM21 -230c-20 0 -41 3 -53 10l6 25c11 -6 27 -9 43 -9c47 0 74 34 103 80l83 128l-151 518h34l140 -485l306 485h34l-417 -653c-38 -60 -68 -99 -128 -99z" />
    <glyph glyph-name="z" unicode="z" horiz-adv-x="482" 
d="M-21 0l4 21l445 475h-356l5 26h398l-4 -22l-444 -474h375l-5 -26h-418z" />
    <glyph glyph-name="zacute" unicode="&#x17a;" horiz-adv-x="482" 
d="M277 620l151 142h45l-164 -142h-32zM-21 0l4 21l445 475h-356l5 26h398l-4 -22l-444 -474h375l-5 -26h-418z" />
    <glyph glyph-name="zcaron" unicode="&#x17e;" horiz-adv-x="482" 
d="M279 620l-103 142h33l91 -123l136 123h33l-153 -142h-37zM475 522l-4 -22l-444 -474h375l-5 -26h-418l4 21l445 475h-356l5 26h398z" />
    <glyph glyph-name="zdotaccent" unicode="&#x17c;" horiz-adv-x="482" 
d="M312 685c-14 0 -25 11 -25 26c0 17 15 29 30 29c14 0 25 -11 25 -26c0 -17 -14 -29 -30 -29zM-21 0l4 21l445 475h-356l5 26h398l-4 -22l-444 -474h375l-5 -26h-418z" />
    <glyph glyph-name="i.loclTRK" horiz-adv-x="214" 
d="M175 685c-14 0 -25 11 -25 26c0 17 15 29 30 29c14 0 25 -11 25 -26c0 -17 -14 -29 -30 -29zM37 0l92 522h30l-92 -522h-30z" />
    <glyph glyph-name="a.ss01" horiz-adv-x="654" 
d="M572 522h30l-93 -522h-29l21 119l4 24c-48 -91 -134 -153 -257 -153c-130 0 -209 83 -209 211c0 180 126 331 302 331c123 0 188 -63 205 -153l4 24zM258 17c135 0 242 99 268 245l1 4c3 21 4 35 4 52c0 115 -70 187 -186 187c-163 0 -275 -142 -275 -302
c0 -114 70 -186 188 -186z" />
    <glyph glyph-name="aacute.ss01" horiz-adv-x="654" 
d="M548 762l-164 -142h-32l151 142h45zM572 522h30l-93 -522h-29l21 119l4 24c-48 -91 -134 -153 -257 -153c-130 0 -209 83 -209 211c0 180 126 331 302 331c123 0 188 -63 205 -153l4 24zM258 17c135 0 242 99 268 245l1 4c3 21 4 35 4 52c0 115 -70 187 -186 187
c-163 0 -275 -142 -275 -302c0 -114 70 -186 188 -186z" />
    <glyph glyph-name="abreve.ss01" horiz-adv-x="654" 
d="M373 610c-77 0 -124 47 -124 119c0 11 1 22 3 33h28c-2 -11 -3 -22 -3 -31c0 -60 36 -98 97 -98c72 0 128 53 141 129h29c-16 -93 -83 -152 -171 -152zM572 522h30l-93 -522h-29l21 119l4 24c-48 -91 -134 -153 -257 -153c-130 0 -209 83 -209 211c0 180 126 331 302 331
c123 0 188 -63 205 -153l4 24zM258 17c135 0 242 99 268 245l1 4c3 21 4 35 4 52c0 115 -70 187 -186 187c-163 0 -275 -142 -275 -302c0 -114 70 -186 188 -186z" />
    <glyph glyph-name="acircumflex.ss01" horiz-adv-x="654" 
d="M395 743l-137 -123h-32l153 142h37l103 -142h-32zM572 522h30l-93 -522h-29l21 119l4 24c-48 -91 -134 -153 -257 -153c-130 0 -209 83 -209 211c0 180 126 331 302 331c123 0 188 -63 205 -153l4 24zM258 17c135 0 242 99 268 245l1 4c3 21 4 35 4 52
c0 115 -70 187 -186 187c-163 0 -275 -142 -275 -302c0 -114 70 -186 188 -186z" />
    <glyph glyph-name="adieresis.ss01" horiz-adv-x="654" 
d="M298 685c-14 0 -24 11 -24 25c0 19 17 30 31 30s24 -11 24 -25c0 -19 -17 -30 -31 -30zM474 685c-14 0 -24 11 -24 25c0 19 17 30 30 30c14 0 24 -11 24 -25c0 -19 -17 -30 -30 -30zM572 522h30l-93 -522h-29l21 119l4 24c-48 -91 -134 -153 -257 -153
c-130 0 -209 83 -209 211c0 180 126 331 302 331c123 0 188 -63 205 -153l4 24zM258 17c135 0 242 99 268 245l1 4c3 21 4 35 4 52c0 115 -70 187 -186 187c-163 0 -275 -142 -275 -302c0 -114 70 -186 188 -186z" />
    <glyph glyph-name="agrave.ss01" horiz-adv-x="654" 
d="M389 620h-29l-114 142h42zM572 522h30l-93 -522h-29l21 119l4 24c-48 -91 -134 -153 -257 -153c-130 0 -209 83 -209 211c0 180 126 331 302 331c123 0 188 -63 205 -153l4 24zM258 17c135 0 242 99 268 245l1 4c3 21 4 35 4 52c0 115 -70 187 -186 187
c-163 0 -275 -142 -275 -302c0 -114 70 -186 188 -186z" />
    <glyph glyph-name="amacron.ss01" horiz-adv-x="654" 
d="M525 687l-4 -26h-281l4 26h281zM572 522h30l-93 -522h-29l21 119l4 24c-48 -91 -134 -153 -257 -153c-130 0 -209 83 -209 211c0 180 126 331 302 331c123 0 188 -63 205 -153l4 24zM258 17c135 0 242 99 268 245l1 4c3 21 4 35 4 52c0 115 -70 187 -186 187
c-163 0 -275 -142 -275 -302c0 -114 70 -186 188 -186z" />
    <glyph glyph-name="aogonek.ss01" horiz-adv-x="654" 
d="M509 0c-100 -60 -147 -117 -147 -165c0 -25 17 -42 43 -42c25 0 50 11 70 27l1 -22c-24 -19 -51 -28 -77 -28c-41 0 -66 24 -66 59c0 57 53 121 148 178l20 112l4 24c-48 -91 -134 -153 -257 -153c-130 0 -209 83 -209 211c0 180 126 331 302 331c123 0 188 -63 205 -153
l4 24l22 119h30zM258 17c135 0 242 99 268 245l1 4c3 21 4 35 4 52c0 115 -70 187 -186 187c-163 0 -275 -142 -275 -302c0 -114 70 -186 188 -186z" />
    <glyph glyph-name="aring.ss01" horiz-adv-x="654" 
d="M368 584c-54 0 -88 33 -88 83c0 71 51 124 121 124c55 0 89 -33 89 -84c0 -69 -52 -123 -122 -123zM400 770c-58 0 -95 -50 -95 -103c0 -38 24 -62 64 -62c58 0 96 52 96 102c0 39 -24 63 -65 63zM572 522h30l-93 -522h-29l21 119l4 24c-48 -91 -134 -153 -257 -153
c-130 0 -209 83 -209 211c0 180 126 331 302 331c123 0 188 -63 205 -153l4 24zM258 17c135 0 242 99 268 245l1 4c3 21 4 35 4 52c0 115 -70 187 -186 187c-163 0 -275 -142 -275 -302c0 -114 70 -186 188 -186z" />
    <glyph glyph-name="atilde.ss01" horiz-adv-x="654" 
d="M309 714c-35 0 -69 -27 -76 -71h-25c9 59 55 100 104 100c70 0 87 -82 147 -82c35 0 69 27 77 72h25c-11 -60 -56 -100 -105 -100c-70 0 -87 81 -147 81zM572 522h30l-93 -522h-29l21 119l4 24c-48 -91 -134 -153 -257 -153c-130 0 -209 83 -209 211
c0 180 126 331 302 331c123 0 188 -63 205 -153l4 24zM258 17c135 0 242 99 268 245l1 4c3 21 4 35 4 52c0 115 -70 187 -186 187c-163 0 -275 -142 -275 -302c0 -114 70 -186 188 -186z" />
    <glyph glyph-name="f.ss01" horiz-adv-x="334" 
d="M315 764c-69 0 -124 -50 -137 -123l-21 -119h204l-4 -26h-205l-87 -496h-30l115 648c15 86 79 142 163 142c39 0 71 -6 97 -20l-5 -26c-23 14 -55 20 -90 20z" />
    <glyph glyph-name="j.ss01" horiz-adv-x="214" 
d="M174 685c-14 0 -24 11 -24 26c0 17 14 29 29 29c14 0 25 -11 25 -26c0 -17 -14 -29 -30 -29zM-2 -220l131 742h30l-131 -742h-30z" />
    <glyph glyph-name="t.ss01" horiz-adv-x="337" 
d="M147 496l-64 -365c-2 -11 -3 -21 -3 -31c0 -52 33 -83 88 -83c41 0 80 6 118 20l-4 -27c-34 -14 -74 -20 -124 -20c-68 0 -108 41 -108 104c0 11 1 22 3 34l96 547h30l-27 -153h212l-4 -26h-213z" />
    <glyph glyph-name="tbar.ss01" horiz-adv-x="339" 
d="M360 496h-213l-36 -205h204l-4 -24h-204l-24 -136c-2 -11 -3 -21 -3 -31c0 -52 33 -83 88 -83c41 0 80 6 118 20l-4 -27c-34 -14 -74 -20 -124 -20c-68 0 -108 41 -108 104c0 11 1 22 3 34l96 547h30l-27 -153h212z" />
    <glyph glyph-name="tcaron.ss01" horiz-adv-x="337" 
d="M386 780l-104 -187h-26l99 187h31zM179 675l-27 -153h212l-4 -26h-213l-64 -365c-2 -11 -3 -21 -3 -31c0 -52 33 -83 88 -83c41 0 80 6 118 20l-4 -27c-34 -14 -74 -20 -124 -20c-68 0 -108 41 -108 104c0 11 1 22 3 34l96 547h30z" />
    <glyph glyph-name="uni0163.ss01" horiz-adv-x="337" 
d="M147 496l-64 -365c-2 -11 -3 -21 -3 -31c0 -52 33 -83 88 -83c41 0 80 6 118 20l-4 -27c-34 -14 -74 -20 -124 -20c-11 0 -21 1 -30 3l-57 -68c10 2 21 3 32 3c57 0 92 -27 92 -67c0 -58 -59 -91 -126 -91c-34 0 -67 11 -88 31l13 18c20 -19 46 -26 74 -26
c53 0 98 27 98 67c0 29 -28 47 -72 47c-19 0 -38 -3 -55 -9l-6 13l73 89c-36 16 -56 49 -56 94c0 11 1 22 3 34l96 547h30l-27 -153h212l-4 -26h-213z" />
    <glyph glyph-name="uni021B.ss01" horiz-adv-x="337" 
d="M147 496l-64 -365c-2 -11 -3 -21 -3 -31c0 -52 33 -83 88 -83c41 0 80 6 118 20l-4 -27c-34 -14 -74 -20 -124 -20c-68 0 -108 41 -108 104c0 11 1 22 3 34l96 547h30l-27 -153h212l-4 -26h-213zM16 -220l89 168h31l-95 -168h-25z" />
    <glyph glyph-name="u.ss01" horiz-adv-x="608" 
d="M249 -10c-119 0 -191 65 -191 164c0 13 2 26 4 40l58 328h30l-57 -322c-2 -14 -4 -26 -4 -39c0 -89 61 -144 161 -144c116 0 206 74 225 185l57 320h30l-58 -330c-21 -122 -123 -202 -255 -202z" />
    <glyph glyph-name="uacute.ss01" horiz-adv-x="608" 
d="M337 620l151 142h45l-164 -142h-32zM249 -10c-119 0 -191 65 -191 164c0 13 2 26 4 40l58 328h30l-57 -322c-2 -14 -4 -26 -4 -39c0 -89 61 -144 161 -144c116 0 206 74 225 185l57 320h30l-58 -330c-21 -122 -123 -202 -255 -202z" />
    <glyph glyph-name="ucircumflex.ss01" horiz-adv-x="608" 
d="M380 743l-137 -123h-32l153 142h37l103 -142h-32zM532 522h30l-58 -330c-21 -122 -123 -202 -255 -202c-119 0 -191 65 -191 164c0 13 2 26 4 40l58 328h30l-57 -322c-2 -14 -4 -26 -4 -39c0 -89 61 -144 161 -144c116 0 206 74 225 185z" />
    <glyph glyph-name="udieresis.ss01" horiz-adv-x="608" 
d="M283 685c-14 0 -24 11 -24 25c0 19 17 30 31 30s24 -11 24 -25c0 -19 -17 -30 -31 -30zM459 685c-14 0 -24 11 -24 25c0 19 17 30 30 30c14 0 24 -11 24 -25c0 -19 -17 -30 -30 -30zM249 -10c-119 0 -191 65 -191 164c0 13 2 26 4 40l58 328h30l-57 -322
c-2 -14 -4 -26 -4 -39c0 -89 61 -144 161 -144c116 0 206 74 225 185l57 320h30l-58 -330c-21 -122 -123 -202 -255 -202z" />
    <glyph glyph-name="ugrave.ss01" horiz-adv-x="608" 
d="M345 620l-114 142h42l101 -142h-29zM249 -10c-119 0 -191 65 -191 164c0 13 2 26 4 40l58 328h30l-57 -322c-2 -14 -4 -26 -4 -39c0 -89 61 -144 161 -144c116 0 206 74 225 185l57 320h30l-58 -330c-21 -122 -123 -202 -255 -202z" />
    <glyph glyph-name="uhungarumlaut.ss01" horiz-adv-x="608" 
d="M278 620l132 142h42l-144 -142h-30zM396 620l131 142h43l-144 -142h-30zM249 -10c-119 0 -191 65 -191 164c0 13 2 26 4 40l58 328h30l-57 -322c-2 -14 -4 -26 -4 -39c0 -89 61 -144 161 -144c116 0 206 74 225 185l57 320h30l-58 -330c-21 -122 -123 -202 -255 -202z
" />
    <glyph glyph-name="umacron.ss01" horiz-adv-x="608" 
d="M225 661l4 26h281l-4 -26h-281zM249 -10c-119 0 -191 65 -191 164c0 13 2 26 4 40l58 328h30l-57 -322c-2 -14 -4 -26 -4 -39c0 -89 61 -144 161 -144c116 0 206 74 225 185l57 320h30l-58 -330c-21 -122 -123 -202 -255 -202z" />
    <glyph glyph-name="uogonek.ss01" horiz-adv-x="608" 
d="M532 522h30l-58 -330c-17 -97 -85 -168 -179 -192c-99 -60 -146 -117 -146 -165c0 -25 17 -42 43 -42c25 0 50 11 70 27l1 -22c-24 -19 -51 -28 -77 -28c-41 0 -66 24 -66 59c0 52 44 109 123 162c-8 -1 -16 -1 -24 -1c-119 0 -191 65 -191 164c0 13 2 26 4 40l58 328h30
l-57 -322c-2 -14 -4 -26 -4 -39c0 -89 61 -144 161 -144c116 0 206 74 225 185z" />
    <glyph glyph-name="uring.ss01" horiz-adv-x="608" 
d="M353 584c-54 0 -88 33 -88 83c0 71 51 124 121 124c55 0 89 -33 89 -84c0 -69 -52 -123 -122 -123zM354 605c58 0 96 52 96 102c0 39 -24 63 -65 63c-58 0 -95 -50 -95 -103c0 -38 24 -62 64 -62zM249 -10c-119 0 -191 65 -191 164c0 13 2 26 4 40l58 328h30l-57 -322
c-2 -14 -4 -26 -4 -39c0 -89 61 -144 161 -144c116 0 206 74 225 185l57 320h30l-58 -330c-21 -122 -123 -202 -255 -202z" />
    <glyph glyph-name="y.ss01" horiz-adv-x="614" 
d="M531 522h30l-87 -493c-27 -157 -138 -259 -279 -259c-86 0 -153 21 -201 61l10 23c44 -34 103 -58 191 -58c125 0 225 97 250 240l12 71c-40 -71 -110 -117 -215 -117c-115 0 -185 65 -185 163c0 13 2 26 4 40l58 329h30l-56 -322c-2 -14 -4 -26 -4 -39
c0 -89 60 -144 161 -144c114 0 204 73 224 183v2z" />
    <glyph glyph-name="yacute.ss01" horiz-adv-x="614" 
d="M530 762l-164 -142h-32l151 142h45zM531 522h30l-87 -493c-27 -157 -138 -259 -279 -259c-86 0 -153 21 -201 61l10 23c44 -34 103 -58 191 -58c125 0 225 97 250 240l12 71c-40 -71 -110 -117 -215 -117c-115 0 -185 65 -185 163c0 13 2 26 4 40l58 329h30l-56 -322
c-2 -14 -4 -26 -4 -39c0 -89 60 -144 161 -144c114 0 204 73 224 183v2z" />
    <glyph glyph-name="ycircumflex.ss01" horiz-adv-x="614" 
d="M377 743l-137 -123h-32l153 142h37l103 -142h-32zM531 522h30l-87 -493c-27 -157 -138 -259 -279 -259c-86 0 -153 21 -201 61l10 23c44 -34 103 -58 191 -58c125 0 225 97 250 240l12 71c-40 -71 -110 -117 -215 -117c-115 0 -185 65 -185 163c0 13 2 26 4 40l58 329h30
l-56 -322c-2 -14 -4 -26 -4 -39c0 -89 60 -144 161 -144c114 0 204 73 224 183v2z" />
    <glyph glyph-name="ydieresis.ss01" horiz-adv-x="614" 
d="M280 685c-14 0 -24 11 -24 25c0 19 17 30 31 30s24 -11 24 -25c0 -19 -17 -30 -31 -30zM456 685c-14 0 -24 11 -24 25c0 19 17 30 30 30c14 0 24 -11 24 -25c0 -19 -17 -30 -30 -30zM531 522h30l-87 -493c-27 -157 -138 -259 -279 -259c-86 0 -153 21 -201 61l10 23
c44 -34 103 -58 191 -58c125 0 225 97 250 240l12 71c-40 -71 -110 -117 -215 -117c-115 0 -185 65 -185 163c0 13 2 26 4 40l58 329h30l-56 -322c-2 -14 -4 -26 -4 -39c0 -89 60 -144 161 -144c114 0 204 73 224 183v2z" />
    <glyph glyph-name="ygrave.ss01" horiz-adv-x="614" 
d="M371 620h-29l-114 142h42zM531 522h30l-87 -493c-27 -157 -138 -259 -279 -259c-86 0 -153 21 -201 61l10 23c44 -34 103 -58 191 -58c125 0 225 97 250 240l12 71c-40 -71 -110 -117 -215 -117c-115 0 -185 65 -185 163c0 13 2 26 4 40l58 329h30l-56 -322
c-2 -14 -4 -26 -4 -39c0 -89 60 -144 161 -144c114 0 204 73 224 183v2z" />
    <glyph glyph-name="a.ss02" horiz-adv-x="543" 
d="M109 522h381l-92 -522h-30l19 110l5 29c-50 -94 -146 -149 -243 -149c-89 0 -143 47 -143 120c0 114 109 179 234 179c59 0 123 -8 175 -23l41 230h-351zM158 15c95 0 220 77 250 215l3 12c-51 15 -112 22 -168 22c-112 0 -206 -58 -206 -152c0 -60 45 -97 121 -97z" />
    <glyph glyph-name="aacute.ss02" horiz-adv-x="543" 
d="M493 762l-164 -142h-32l151 142h45zM105 496l4 26h381l-92 -522h-30l19 110l5 29c-50 -94 -146 -149 -243 -149c-89 0 -143 47 -143 120c0 114 109 179 234 179c59 0 123 -8 175 -23l41 230h-351zM158 15c95 0 220 77 250 215l3 12c-51 15 -112 22 -168 22
c-112 0 -206 -58 -206 -152c0 -60 45 -97 121 -97z" />
    <glyph glyph-name="abreve.ss02" horiz-adv-x="543" 
d="M318 610c-77 0 -124 47 -124 119c0 11 1 22 3 33h28c-2 -11 -3 -22 -3 -31c0 -60 36 -98 97 -98c72 0 128 53 141 129h29c-16 -93 -83 -152 -171 -152zM109 522h381l-92 -522h-30l19 110l5 29c-50 -94 -146 -149 -243 -149c-89 0 -143 47 -143 120c0 114 109 179 234 179
c59 0 123 -8 175 -23l41 230h-351zM158 15c95 0 220 77 250 215l3 12c-51 15 -112 22 -168 22c-112 0 -206 -58 -206 -152c0 -60 45 -97 121 -97z" />
    <glyph glyph-name="acircumflex.ss02" horiz-adv-x="543" 
d="M340 743l-137 -123h-32l153 142h37l103 -142h-32zM109 522h381l-92 -522h-30l19 110l5 29c-50 -94 -146 -149 -243 -149c-89 0 -143 47 -143 120c0 114 109 179 234 179c59 0 123 -8 175 -23l41 230h-351zM158 15c95 0 220 77 250 215l3 12c-51 15 -112 22 -168 22
c-112 0 -206 -58 -206 -152c0 -60 45 -97 121 -97z" />
    <glyph glyph-name="adieresis.ss02" horiz-adv-x="543" 
d="M243 685c-14 0 -24 11 -24 25c0 19 17 30 31 30s24 -11 24 -25c0 -19 -17 -30 -31 -30zM419 685c-14 0 -24 11 -24 25c0 19 17 30 30 30c14 0 24 -11 24 -25c0 -19 -17 -30 -30 -30zM109 522h381l-92 -522h-30l19 110l5 29c-50 -94 -146 -149 -243 -149
c-89 0 -143 47 -143 120c0 114 109 179 234 179c59 0 123 -8 175 -23l41 230h-351zM158 15c95 0 220 77 250 215l3 12c-51 15 -112 22 -168 22c-112 0 -206 -58 -206 -152c0 -60 45 -97 121 -97z" />
    <glyph glyph-name="agrave.ss02" horiz-adv-x="543" 
d="M334 620h-29l-114 142h42zM109 522h381l-92 -522h-30l19 110l5 29c-50 -94 -146 -149 -243 -149c-89 0 -143 47 -143 120c0 114 109 179 234 179c59 0 123 -8 175 -23l41 230h-351zM158 15c95 0 220 77 250 215l3 12c-51 15 -112 22 -168 22c-112 0 -206 -58 -206 -152
c0 -60 45 -97 121 -97z" />
    <glyph glyph-name="amacron.ss02" horiz-adv-x="543" 
d="M470 687l-4 -26h-281l4 26h281zM109 522h381l-92 -522h-30l19 110l5 29c-50 -94 -146 -149 -243 -149c-89 0 -143 47 -143 120c0 114 109 179 234 179c59 0 123 -8 175 -23l41 230h-351zM158 15c95 0 220 77 250 215l3 12c-51 15 -112 22 -168 22
c-112 0 -206 -58 -206 -152c0 -60 45 -97 121 -97z" />
    <glyph glyph-name="aogonek.ss02" horiz-adv-x="543" 
d="M398 0c-100 -60 -147 -117 -147 -165c0 -25 17 -42 43 -42c25 0 50 11 70 27l1 -22c-24 -19 -51 -28 -77 -28c-41 0 -66 24 -66 59c0 57 53 120 147 178l18 103l5 29c-50 -94 -146 -149 -243 -149c-89 0 -143 47 -143 120c0 114 109 179 234 179c59 0 123 -8 175 -23
l41 230h-351l4 26h381zM158 15c95 0 220 77 250 215l3 12c-51 15 -112 22 -168 22c-112 0 -206 -58 -206 -152c0 -60 45 -97 121 -97z" />
    <glyph glyph-name="aring.ss02" horiz-adv-x="543" 
d="M313 584c-54 0 -88 33 -88 83c0 71 51 124 121 124c55 0 89 -33 89 -84c0 -69 -52 -123 -122 -123zM345 770c-58 0 -95 -50 -95 -103c0 -38 24 -62 64 -62c58 0 96 52 96 102c0 39 -24 63 -65 63zM109 522h381l-92 -522h-30l19 110l5 29c-50 -94 -146 -149 -243 -149
c-89 0 -143 47 -143 120c0 114 109 179 234 179c59 0 123 -8 175 -23l41 230h-351zM158 15c95 0 220 77 250 215l3 12c-51 15 -112 22 -168 22c-112 0 -206 -58 -206 -152c0 -60 45 -97 121 -97z" />
    <glyph glyph-name="atilde.ss02" horiz-adv-x="543" 
d="M254 714c-35 0 -69 -27 -76 -71h-25c9 59 55 100 104 100c70 0 87 -82 147 -82c35 0 69 27 77 72h25c-11 -60 -56 -100 -105 -100c-70 0 -87 81 -147 81zM105 496l4 26h381l-92 -522h-30l19 110l5 29c-50 -94 -146 -149 -243 -149c-89 0 -143 47 -143 120
c0 114 109 179 234 179c59 0 123 -8 175 -23l41 230h-351zM158 15c95 0 220 77 250 215l3 12c-51 15 -112 22 -168 22c-112 0 -206 -58 -206 -152c0 -60 45 -97 121 -97z" />
    <glyph glyph-name="c.ss02" horiz-adv-x="475" 
d="M247 -10c-130 0 -208 83 -208 211c0 178 124 331 301 331c47 0 87 -18 117 -46l-4 -29c-30 32 -68 48 -116 48c-159 0 -266 -147 -266 -304c0 -113 67 -184 179 -184c49 0 95 18 134 49l-5 -33c-39 -28 -85 -43 -132 -43z" />
    <glyph glyph-name="cacute.ss02" horiz-adv-x="475" 
d="M327 620l151 142h45l-164 -142h-32zM247 -10c-130 0 -208 83 -208 211c0 178 124 331 301 331c47 0 87 -18 117 -46l-4 -29c-30 32 -68 48 -116 48c-159 0 -266 -147 -266 -304c0 -113 67 -184 179 -184c49 0 95 18 134 49l-5 -33c-39 -28 -85 -43 -132 -43z" />
    <glyph glyph-name="ccaron.ss02" horiz-adv-x="475" 
d="M329 620l-103 142h33l91 -123l136 123h33l-153 -142h-37zM39 201c0 178 124 331 301 331c47 0 87 -18 117 -46l-4 -29c-30 32 -68 48 -116 48c-159 0 -266 -147 -266 -304c0 -113 67 -184 179 -184c49 0 95 18 134 49l-5 -33c-39 -28 -85 -43 -132 -43
c-130 0 -208 83 -208 211z" />
    <glyph glyph-name="ccedilla.ss02" horiz-adv-x="475" 
d="M340 532c47 0 87 -18 117 -46l-4 -29c-30 32 -68 48 -116 48c-159 0 -266 -147 -266 -304c0 -113 67 -184 179 -184c49 0 95 18 134 49l-5 -33c-38 -27 -83 -42 -128 -43l-55 -64c10 1 21 2 32 2c57 0 92 -27 92 -67c0 -58 -59 -91 -126 -91c-34 0 -68 11 -89 31l14 18
c20 -19 46 -26 74 -26c53 0 98 27 98 67c0 29 -28 47 -72 47c-19 0 -38 -3 -55 -9l-6 13l66 80c-116 9 -185 90 -185 210c0 178 124 331 301 331z" />
    <glyph glyph-name="cdotaccent.ss02" horiz-adv-x="475" 
d="M362 685c-14 0 -25 11 -25 26c0 17 15 29 30 29c14 0 25 -11 25 -26c0 -17 -14 -29 -30 -29zM247 -10c-130 0 -208 83 -208 211c0 178 124 331 301 331c47 0 87 -18 117 -46l-4 -29c-30 32 -68 48 -116 48c-159 0 -266 -147 -266 -304c0 -113 67 -184 179 -184
c49 0 95 18 134 49l-5 -33c-39 -28 -85 -43 -132 -43z" />
    <glyph glyph-name="f.ss02" horiz-adv-x="354" 
d="M427 754h-208l-41 -232h204l-5 -26h-204l-88 -496h-30l88 496h-94l4 26h94l46 258h239z" />
    <glyph glyph-name="g.ss02" horiz-adv-x="655" 
d="M574 522h29l-131 -742h-495l5 26h466l58 337c-47 -91 -134 -153 -257 -153c-130 0 -209 83 -209 211c0 180 126 331 302 331c124 0 189 -64 205 -155l5 26zM259 17c135 0 242 99 268 245l1 3c3 21 4 36 4 53c0 115 -70 187 -186 187c-163 0 -275 -142 -275 -302
c0 -114 70 -186 188 -186z" />
    <glyph glyph-name="gbreve.ss02" horiz-adv-x="655" 
d="M377 610c-77 0 -124 47 -124 119c0 11 1 22 3 33h28c-2 -11 -3 -22 -3 -31c0 -60 36 -98 97 -98c72 0 128 53 141 129h29c-16 -93 -83 -152 -171 -152zM574 522h29l-131 -742h-495l5 26h466l58 337c-47 -91 -134 -153 -257 -153c-130 0 -209 83 -209 211
c0 180 126 331 302 331c124 0 189 -64 205 -155l5 26zM259 17c135 0 242 99 268 245l1 3c3 21 4 36 4 53c0 115 -70 187 -186 187c-163 0 -275 -142 -275 -302c0 -114 70 -186 188 -186z" />
    <glyph glyph-name="gcommaaccent.ss02" horiz-adv-x="655" 
d="M474 780l-99 -187h-31l104 187h26zM574 522h29l-131 -742h-495l5 26h466l58 337c-47 -91 -134 -153 -257 -153c-130 0 -209 83 -209 211c0 180 126 331 302 331c124 0 189 -64 205 -155l5 26zM259 17c135 0 242 99 268 245l1 3c3 21 4 36 4 53c0 115 -70 187 -186 187
c-163 0 -275 -142 -275 -302c0 -114 70 -186 188 -186z" />
    <glyph glyph-name="gdotaccent.ss02" horiz-adv-x="655" 
d="M391 685c-14 0 -25 11 -25 26c0 17 15 29 30 29c14 0 25 -11 25 -26c0 -17 -14 -29 -30 -29zM574 522h29l-131 -742h-495l5 26h466l58 337c-47 -91 -134 -153 -257 -153c-130 0 -209 83 -209 211c0 180 126 331 302 331c124 0 189 -64 205 -155l5 26zM259 17
c135 0 242 99 268 245l1 3c3 21 4 36 4 53c0 115 -70 187 -186 187c-163 0 -275 -142 -275 -302c0 -114 70 -186 188 -186z" />
    <glyph glyph-name="j.ss02" horiz-adv-x="214" 
d="M174 685c-14 0 -24 11 -24 26c0 17 14 29 29 29c14 0 25 -11 25 -26c0 -17 -14 -29 -30 -29zM-2 -220l131 742h30l-131 -742h-30z" />
    <glyph glyph-name="l.ss02" horiz-adv-x="241" 
d="M39 0l138 780h30l-134 -754h119l-5 -26h-148z" />
    <glyph glyph-name="lacute.ss02" horiz-adv-x="241" 
d="M188 878l151 142h45l-164 -142h-32zM39 0l138 780h30l-134 -754h119l-5 -26h-148z" />
    <glyph glyph-name="lcaron.ss02" horiz-adv-x="243" 
d="M39 0l138 780h30l-134 -754h119l-5 -26h-148zM222 593l99 187h31l-105 -187h-25z" />
    <glyph glyph-name="lcommaaccent.ss02" horiz-adv-x="241" 
d="M39 0l138 780h30l-134 -754h119l-5 -26h-148zM1 -220l89 168h31l-95 -168h-25z" />
    <glyph glyph-name="lslash.ss02" horiz-adv-x="241" 
d="M252 473l-112 -70l-67 -377h119l-5 -26h-148l68 386l-115 -73l5 30l115 72l65 365h30l-62 -348l113 70z" />
    <glyph glyph-name="t.ss02" horiz-adv-x="312" 
d="M361 522l-5 -26h-143l-88 -496h-30l88 496h-143l4 26h144l27 153h30l-27 -153h143z" />
    <glyph glyph-name="tbar.ss02" horiz-adv-x="355" 
d="M378 496h-144l-39 -223h124l-5 -25h-123l-44 -248h-30l44 248h-125l4 25h125l39 223h-143l5 26h143l27 153h30l-27 -153h143z" />
    <glyph glyph-name="tcaron.ss02" horiz-adv-x="312" 
d="M452 780l-105 -187h-25l99 187h31zM245 675l-27 -153h143l-5 -26h-143l-88 -496h-30l88 496h-143l4 26h144l27 153h30z" />
    <glyph glyph-name="uni0163.ss02" horiz-adv-x="312" 
d="M125 0h-2l-63 -75c10 2 22 3 34 3c57 0 92 -27 92 -67c0 -58 -59 -91 -126 -91c-34 0 -67 11 -88 31l13 18c20 -19 47 -26 74 -26c53 0 98 27 98 67c0 29 -27 47 -72 47c-19 0 -38 -3 -55 -9l-6 13l74 89h-3l88 496h-143l4 26h144l27 153h30l-27 -153h143l-5 -26h-143z
" />
    <glyph glyph-name="uni021B.ss02" horiz-adv-x="312" 
d="M361 522l-5 -26h-143l-88 -496h-30l88 496h-143l4 26h144l27 153h30l-27 -153h143zM7 -220l89 168h31l-95 -168h-25z" />
    <glyph glyph-name="u.ss02" horiz-adv-x="608" 
d="M249 -10c-119 0 -191 65 -191 164c0 13 2 26 4 40l58 328h30l-57 -322c-2 -14 -4 -26 -4 -39c0 -89 61 -144 161 -144c116 0 206 74 225 185l57 320h30l-58 -330c-21 -122 -123 -202 -255 -202z" />
    <glyph glyph-name="uacute.ss02" horiz-adv-x="608" 
d="M337 620l151 142h45l-164 -142h-32zM249 -10c-119 0 -191 65 -191 164c0 13 2 26 4 40l58 328h30l-57 -322c-2 -14 -4 -26 -4 -39c0 -89 61 -144 161 -144c116 0 206 74 225 185l57 320h30l-58 -330c-21 -122 -123 -202 -255 -202z" />
    <glyph glyph-name="ucircumflex.ss02" horiz-adv-x="608" 
d="M380 743l-137 -123h-32l153 142h37l103 -142h-32zM532 522h30l-58 -330c-21 -122 -123 -202 -255 -202c-119 0 -191 65 -191 164c0 13 2 26 4 40l58 328h30l-57 -322c-2 -14 -4 -26 -4 -39c0 -89 61 -144 161 -144c116 0 206 74 225 185z" />
    <glyph glyph-name="udieresis.ss02" horiz-adv-x="608" 
d="M283 685c-14 0 -24 11 -24 25c0 19 17 30 31 30s24 -11 24 -25c0 -19 -17 -30 -31 -30zM459 685c-14 0 -24 11 -24 25c0 19 17 30 30 30c14 0 24 -11 24 -25c0 -19 -17 -30 -30 -30zM249 -10c-119 0 -191 65 -191 164c0 13 2 26 4 40l58 328h30l-57 -322
c-2 -14 -4 -26 -4 -39c0 -89 61 -144 161 -144c116 0 206 74 225 185l57 320h30l-58 -330c-21 -122 -123 -202 -255 -202z" />
    <glyph glyph-name="ugrave.ss02" horiz-adv-x="608" 
d="M345 620l-114 142h42l101 -142h-29zM249 -10c-119 0 -191 65 -191 164c0 13 2 26 4 40l58 328h30l-57 -322c-2 -14 -4 -26 -4 -39c0 -89 61 -144 161 -144c116 0 206 74 225 185l57 320h30l-58 -330c-21 -122 -123 -202 -255 -202z" />
    <glyph glyph-name="uhungarumlaut.ss02" horiz-adv-x="608" 
d="M278 620l132 142h42l-144 -142h-30zM396 620l131 142h43l-144 -142h-30zM249 -10c-119 0 -191 65 -191 164c0 13 2 26 4 40l58 328h30l-57 -322c-2 -14 -4 -26 -4 -39c0 -89 61 -144 161 -144c116 0 206 74 225 185l57 320h30l-58 -330c-21 -122 -123 -202 -255 -202z
" />
    <glyph glyph-name="umacron.ss02" horiz-adv-x="608" 
d="M225 661l4 26h281l-4 -26h-281zM249 -10c-119 0 -191 65 -191 164c0 13 2 26 4 40l58 328h30l-57 -322c-2 -14 -4 -26 -4 -39c0 -89 61 -144 161 -144c116 0 206 74 225 185l57 320h30l-58 -330c-21 -122 -123 -202 -255 -202z" />
    <glyph glyph-name="uogonek.ss02" horiz-adv-x="608" 
d="M532 522h30l-58 -330c-17 -97 -85 -168 -179 -192c-99 -60 -146 -117 -146 -165c0 -25 17 -42 43 -42c25 0 50 11 70 27l1 -22c-24 -19 -51 -28 -77 -28c-41 0 -66 24 -66 59c0 52 44 109 123 162c-8 -1 -16 -1 -24 -1c-119 0 -191 65 -191 164c0 13 2 26 4 40l58 328h30
l-57 -322c-2 -14 -4 -26 -4 -39c0 -89 61 -144 161 -144c116 0 206 74 225 185z" />
    <glyph glyph-name="uring.ss02" horiz-adv-x="608" 
d="M353 584c-54 0 -88 33 -88 83c0 71 51 124 121 124c55 0 89 -33 89 -84c0 -69 -52 -123 -122 -123zM354 605c58 0 96 52 96 102c0 39 -24 63 -65 63c-58 0 -95 -50 -95 -103c0 -38 24 -62 64 -62zM249 -10c-119 0 -191 65 -191 164c0 13 2 26 4 40l58 328h30l-57 -322
c-2 -14 -4 -26 -4 -39c0 -89 61 -144 161 -144c116 0 206 74 225 185l57 320h30l-58 -330c-21 -122 -123 -202 -255 -202z" />
    <glyph glyph-name="y.ss02" horiz-adv-x="614" 
d="M531 522h30l-131 -742h-437l4 26h408l53 301c-40 -71 -110 -117 -215 -117c-115 0 -185 65 -185 163c0 13 2 26 4 40l58 329h30l-57 -322c-2 -14 -3 -26 -3 -39c0 -89 60 -144 160 -144c115 0 205 73 225 182v3z" />
    <glyph glyph-name="yacute.ss02" horiz-adv-x="614" 
d="M530 762l-164 -142h-32l151 142h45zM531 522h30l-131 -742h-437l4 26h408l53 301c-40 -71 -110 -117 -215 -117c-115 0 -185 65 -185 163c0 13 2 26 4 40l58 329h30l-57 -322c-2 -14 -3 -26 -3 -39c0 -89 60 -144 160 -144c115 0 205 73 225 182v3z" />
    <glyph glyph-name="ycircumflex.ss02" horiz-adv-x="614" 
d="M377 743l-137 -123h-32l153 142h37l103 -142h-32zM531 522h30l-131 -742h-437l4 26h408l53 301c-40 -71 -110 -117 -215 -117c-115 0 -185 65 -185 163c0 13 2 26 4 40l58 329h30l-57 -322c-2 -14 -3 -26 -3 -39c0 -89 60 -144 160 -144c115 0 205 73 225 182v3z" />
    <glyph glyph-name="ydieresis.ss02" horiz-adv-x="614" 
d="M280 685c-14 0 -24 11 -24 25c0 19 17 30 31 30s24 -11 24 -25c0 -19 -17 -30 -31 -30zM456 685c-14 0 -24 11 -24 25c0 19 17 30 30 30c14 0 24 -11 24 -25c0 -19 -17 -30 -30 -30zM531 522h30l-131 -742h-437l4 26h408l53 301c-40 -71 -110 -117 -215 -117
c-115 0 -185 65 -185 163c0 13 2 26 4 40l58 329h30l-57 -322c-2 -14 -3 -26 -3 -39c0 -89 60 -144 160 -144c115 0 205 73 225 182v3z" />
    <glyph glyph-name="ygrave.ss02" horiz-adv-x="614" 
d="M371 620h-29l-114 142h42zM531 522h30l-131 -742h-437l4 26h408l53 301c-40 -71 -110 -117 -215 -117c-115 0 -185 65 -185 163c0 13 2 26 4 40l58 329h30l-57 -322c-2 -14 -3 -26 -3 -39c0 -89 60 -144 160 -144c115 0 205 73 225 182v3z" />
    <glyph glyph-name="z.ss02" horiz-adv-x="471" 
d="M-23 0l437 496h-345l4 26h399l-437 -496h354l-5 -26h-407z" />
    <glyph glyph-name="zacute.ss02" horiz-adv-x="471" 
d="M269 620l151 142h45l-164 -142h-32zM-23 0l437 496h-345l4 26h399l-437 -496h354l-5 -26h-407z" />
    <glyph glyph-name="zcaron.ss02" horiz-adv-x="471" 
d="M271 620l-103 142h33l91 -123l136 123h33l-153 -142h-37zM472 522l-437 -496h354l-5 -26h-407l437 496h-345l4 26h399z" />
    <glyph glyph-name="zdotaccent.ss02" horiz-adv-x="471" 
d="M304 685c-14 0 -25 11 -25 26c0 17 15 29 30 29c14 0 25 -11 25 -26c0 -17 -14 -29 -30 -29zM-23 0l437 496h-345l4 26h399l-437 -496h354l-5 -26h-407z" />
    <glyph glyph-name="fi.ss01" horiz-adv-x="548" 
d="M178 641l-21 -119h204l-4 -26h-205l-87 -496h-30l115 648c15 86 79 142 163 142c39 0 71 -6 97 -20l-5 -26c-23 14 -55 20 -90 20c-69 0 -124 -50 -137 -123zM513 740c14 0 25 -11 25 -26c0 -17 -14 -29 -30 -29c-14 0 -24 11 -24 26c0 17 14 29 29 29zM371 0l92 522h30
l-92 -522h-30z" />
    <glyph glyph-name="fl.ss01" horiz-adv-x="551" 
d="M178 641l-21 -119h204l-4 -26h-205l-87 -496h-30l115 648c15 86 79 142 163 142c39 0 71 -6 97 -20l-5 -26c-23 14 -55 20 -90 20c-69 0 -124 -50 -137 -123zM511 780h30l-138 -780h-30z" />
    <glyph glyph-name="fi.ss02" horiz-adv-x="568" 
d="M219 754l-41 -232h204l-5 -26h-204l-88 -496h-30l88 496h-94l4 26h94l46 258h239l-5 -26h-208zM533 740c14 0 25 -11 25 -26c0 -17 -14 -29 -30 -29c-14 0 -24 11 -24 26c0 17 14 29 29 29zM391 0l92 522h30l-92 -522h-30z" />
    <glyph glyph-name="fl.ss02" horiz-adv-x="595" 
d="M219 754l-41 -232h204l-5 -26h-204l-88 -496h-30l88 496h-94l4 26h94l46 258h239l-5 -26h-208zM561 780l-134 -754h119l-5 -26h-148l138 780h30z" />
    <glyph glyph-name="ordfeminine" unicode="&#xaa;" horiz-adv-x="388" 
d="M261 750c66 0 106 -39 106 -98c0 -9 -1 -18 -2 -25l-35 -198h-26l12 69l2 9c-31 -53 -86 -84 -141 -84s-88 29 -88 74c0 70 66 108 142 108c34 0 70 -5 101 -13l6 32c1 6 2 14 2 23c0 50 -31 81 -85 81c-41 0 -73 -16 -100 -41l-10 19c30 28 69 44 116 44zM184 444
c57 0 130 47 145 130c-30 7 -63 12 -94 12c-65 0 -119 -33 -119 -87c0 -34 25 -55 68 -55z" />
    <glyph glyph-name="ordmasculine" unicode="&#xba;" horiz-adv-x="424" 
d="M232 423c-83 0 -133 51 -133 130c0 109 79 197 188 197c82 0 133 -51 133 -130c0 -109 -80 -197 -188 -197zM234 446c93 0 157 82 157 174c0 65 -40 106 -106 106c-93 0 -158 -81 -158 -173c0 -65 40 -107 107 -107z" />
    <glyph glyph-name="uni0394" unicode="&#x394;" horiz-adv-x="762" 
d="M474 740l199 -740h-693l461 740h33zM34 28h597l-179 674z" />
    <glyph glyph-name="uni03A9" unicode="&#x3a9;" horiz-adv-x="764" 
d="M10 0l5 28h211l22 120c-108 32 -170 115 -170 232c0 210 164 370 381 370c170 0 275 -97 275 -249c0 -165 -106 -309 -270 -354l-23 -119h212l-5 -28h-242l29 169c161 35 265 176 265 333c0 134 -93 220 -243 220c-198 0 -344 -152 -344 -341c0 -111 62 -186 167 -212
l-29 -169h-241z" />
    <glyph glyph-name="uni03BC" unicode="&#x3bc;" horiz-adv-x="621" 
d="M538 522h30l-92 -522h-30l19 106c-40 -71 -108 -116 -211 -116s-156 48 -170 121l-58 -331h-30l131 742h30l-57 -322c-19 -111 43 -183 159 -183c113 0 202 72 222 182l1 3z" />
    <glyph glyph-name="pi" unicode="&#x3c0;" horiz-adv-x="672" 
d="M518 496l-71 -401c-1 -7 -1 -14 -1 -21c0 -35 20 -57 54 -57c26 0 51 6 77 19l-2 -26c-24 -14 -52 -20 -86 -20c-46 0 -74 30 -74 77c0 8 0 13 2 24l71 405h-262l-87 -496h-30l87 496h-142l4 26h607l-5 -26h-142z" />
    <glyph glyph-name="zero" unicode="0" horiz-adv-x="608" 
d="M254 -10c-122 0 -193 103 -193 266c0 235 126 494 323 494c122 0 194 -104 194 -267c0 -235 -126 -493 -324 -493zM257 18c177 0 287 257 287 467c0 145 -59 237 -162 237c-177 0 -288 -255 -288 -466c0 -146 59 -238 163 -238z" />
    <glyph glyph-name="one" unicode="1" horiz-adv-x="386" 
d="M188 0l123 693l-239 -155l-14 26l269 176h26l-131 -740h-34z" />
    <glyph glyph-name="two" unicode="2" horiz-adv-x="542" 
d="M-6 0l4 22l264 239c98 88 232 197 232 334c0 79 -57 127 -151 127c-109 0 -193 -69 -211 -171l-34 5c21 117 118 194 247 194c113 0 184 -58 184 -154c0 -144 -144 -268 -251 -361l-231 -207h395l-5 -28h-443z" />
    <glyph glyph-name="three" unicode="3" horiz-adv-x="550" 
d="M554 740l-4 -22l-348 -314c23 5 50 8 75 8c126 0 203 -67 203 -171c0 -149 -127 -251 -284 -251c-91 0 -161 31 -192 91l18 23c32 -59 90 -86 174 -86c140 0 249 94 249 222c0 88 -68 144 -181 144c-43 0 -88 -8 -127 -26l-7 18l371 336h-362l5 28h410z" />
    <glyph glyph-name="four" unicode="4" horiz-adv-x="586" 
d="M350 0l31 171h-382l5 29l480 540h30l-96 -540h119l-5 -29h-118l-31 -171h-33zM42 199h344l87 488z" />
    <glyph glyph-name="five" unicode="5" horiz-adv-x="556" 
d="M197 -10c-90 0 -156 24 -196 73l14 23c39 -47 106 -68 182 -68c146 0 257 101 257 235c0 91 -63 150 -167 150c-49 0 -104 -9 -161 -25l-25 4l115 358h331l-6 -28h-299l-100 -302c52 14 105 22 154 22c121 0 194 -70 194 -176c0 -158 -131 -266 -293 -266z" />
    <glyph glyph-name="six" unicode="6" horiz-adv-x="544" 
d="M305 444c116 0 188 -69 188 -178c0 -154 -117 -276 -273 -276c-120 0 -192 69 -192 179c0 69 28 139 72 191l319 380h39l-279 -328c38 21 80 32 126 32zM225 18c136 0 232 111 232 243c0 95 -61 155 -161 155c-136 0 -232 -111 -232 -243c0 -95 60 -155 161 -155z" />
    <glyph glyph-name="seven" unicode="7" horiz-adv-x="484" 
d="M88 740h449l-405 -740h-37l391 712h-403z" />
    <glyph glyph-name="eight" unicode="8" horiz-adv-x="580" 
d="M378 383c77 -21 122 -78 122 -154c0 -140 -117 -239 -266 -239c-122 0 -196 65 -196 165c0 117 80 202 189 229c-66 22 -104 73 -104 142c0 133 107 224 242 224c111 0 179 -61 179 -154c0 -106 -69 -186 -166 -213zM158 524c0 -78 54 -127 146 -127
c118 0 205 87 205 197c0 78 -55 128 -146 128c-117 0 -205 -87 -205 -198zM237 18c129 0 227 91 227 212c0 84 -61 139 -163 139c-129 0 -229 -92 -229 -212c0 -85 63 -139 165 -139z" />
    <glyph glyph-name="nine" unicode="9" horiz-adv-x="544" 
d="M344 750c120 0 192 -69 192 -179c0 -69 -28 -139 -72 -191l-319 -380h-39l279 329c-37 -21 -79 -33 -125 -33c-117 0 -189 69 -189 179c0 153 117 275 273 275zM268 324c136 0 232 111 232 244c0 94 -60 154 -161 154c-136 0 -231 -111 -231 -243c0 -95 60 -155 160 -155
z" />
    <glyph glyph-name="zero.lf" horiz-adv-x="608" 
d="M254 -10c-122 0 -193 103 -193 266c0 235 126 494 323 494c122 0 194 -104 194 -267c0 -235 -126 -493 -324 -493zM257 18c177 0 287 257 287 467c0 145 -59 237 -162 237c-177 0 -288 -255 -288 -466c0 -146 59 -238 163 -238z" />
    <glyph glyph-name="one.lf" horiz-adv-x="386" 
d="M188 0l123 693l-239 -155l-14 26l269 176h26l-131 -740h-34z" />
    <glyph glyph-name="two.lf" horiz-adv-x="542" 
d="M-6 0l4 22l264 239c98 88 232 197 232 334c0 79 -57 127 -151 127c-109 0 -193 -69 -211 -171l-34 5c21 117 118 194 247 194c113 0 184 -58 184 -154c0 -144 -144 -268 -251 -361l-231 -207h395l-5 -28h-443z" />
    <glyph glyph-name="three.lf" horiz-adv-x="550" 
d="M554 740l-4 -22l-348 -314c23 5 50 8 75 8c126 0 203 -67 203 -171c0 -149 -127 -251 -284 -251c-91 0 -161 31 -192 91l18 23c32 -59 90 -86 174 -86c140 0 249 94 249 222c0 88 -68 144 -181 144c-43 0 -88 -8 -127 -26l-7 18l371 336h-362l5 28h410z" />
    <glyph glyph-name="four.lf" horiz-adv-x="586" 
d="M350 0l31 171h-382l5 29l480 540h30l-96 -540h119l-5 -29h-118l-31 -171h-33zM42 199h344l87 488z" />
    <glyph glyph-name="five.lf" horiz-adv-x="556" 
d="M197 -10c-90 0 -156 24 -196 73l14 23c39 -47 106 -68 182 -68c146 0 257 101 257 235c0 91 -63 150 -167 150c-49 0 -104 -9 -161 -25l-25 4l115 358h331l-6 -28h-299l-100 -302c52 14 105 22 154 22c121 0 194 -70 194 -176c0 -158 -131 -266 -293 -266z" />
    <glyph glyph-name="six.lf" horiz-adv-x="544" 
d="M305 444c116 0 188 -69 188 -178c0 -154 -117 -276 -273 -276c-120 0 -192 69 -192 179c0 69 28 139 72 191l319 380h39l-279 -328c38 21 80 32 126 32zM225 18c136 0 232 111 232 243c0 95 -61 155 -161 155c-136 0 -232 -111 -232 -243c0 -95 60 -155 161 -155z" />
    <glyph glyph-name="seven.lf" horiz-adv-x="484" 
d="M88 740h449l-405 -740h-37l391 712h-403z" />
    <glyph glyph-name="eight.lf" horiz-adv-x="580" 
d="M378 383c77 -21 122 -78 122 -154c0 -140 -117 -239 -266 -239c-122 0 -196 65 -196 165c0 117 80 202 189 229c-66 22 -104 73 -104 142c0 133 107 224 242 224c111 0 179 -61 179 -154c0 -106 -69 -186 -166 -213zM158 524c0 -78 54 -127 146 -127
c118 0 205 87 205 197c0 78 -55 128 -146 128c-117 0 -205 -87 -205 -198zM237 18c129 0 227 91 227 212c0 84 -61 139 -163 139c-129 0 -229 -92 -229 -212c0 -85 63 -139 165 -139z" />
    <glyph glyph-name="nine.lf" horiz-adv-x="544" 
d="M344 750c120 0 192 -69 192 -179c0 -69 -28 -139 -72 -191l-319 -380h-39l279 329c-37 -21 -79 -33 -125 -33c-117 0 -189 69 -189 179c0 153 117 275 273 275zM268 324c136 0 232 111 232 244c0 94 -60 154 -161 154c-136 0 -231 -111 -231 -243c0 -95 60 -155 160 -155
z" />
    <glyph glyph-name="zero.osf" horiz-adv-x="642" 
d="M271 -10c-135 0 -217 95 -217 243c0 214 137 399 327 399c136 0 217 -95 217 -243c0 -213 -136 -399 -327 -399zM275 17c172 0 291 180 291 372c0 131 -70 216 -187 216c-172 0 -293 -178 -293 -370c0 -134 70 -218 189 -218z" />
    <glyph glyph-name="one.osf" horiz-adv-x="335" 
d="M142 0l102 580l-178 -116l-12 24l205 134h22l-109 -622h-30z" />
    <glyph glyph-name="two.osf" horiz-adv-x="553" 
d="M3 0l4 22l268 182c95 65 210 150 210 270c0 80 -58 131 -154 131c-110 0 -197 -70 -214 -172l-31 5c21 117 118 194 247 194c113 0 183 -61 183 -155c0 -135 -123 -225 -230 -296l-231 -155h395l-4 -26h-443z" />
    <glyph glyph-name="three.osf" horiz-adv-x="563" 
d="M543 622l-4 -22l-350 -306c24 6 52 8 78 8c125 0 201 -65 201 -165c0 -148 -125 -247 -280 -247c-91 0 -161 31 -192 91l17 22c31 -60 90 -87 174 -87c139 0 249 93 249 218c0 87 -69 143 -182 143c-43 0 -88 -9 -127 -28l-7 18l374 329h-366l4 26h411z" />
    <glyph glyph-name="four.osf" horiz-adv-x="578" 
d="M336 -110l19 110h-385l5 27l489 595h30l-105 -596h119l-5 -26h-118l-19 -110h-30zM8 26h352l97 544z" />
    <glyph glyph-name="five.osf" horiz-adv-x="560" 
d="M179 -110c-90 0 -157 24 -196 73l12 22c39 -48 107 -69 183 -69c145 0 256 97 256 230c0 90 -61 148 -166 148c-50 0 -106 -9 -163 -25l-24 4l112 349h331l-4 -26h-304l-98 -297c53 14 107 22 157 22c119 0 192 -68 192 -172c0 -154 -128 -259 -288 -259z" />
    <glyph glyph-name="six.osf" horiz-adv-x="540" 
d="M302 444c116 0 186 -69 186 -177c0 -153 -115 -277 -270 -277c-118 0 -190 68 -190 176c0 69 29 145 74 195l318 379h36l-279 -329c38 22 80 33 125 33zM223 18c136 0 231 111 231 243c0 95 -60 155 -160 155c-136 0 -232 -111 -232 -243c0 -95 60 -155 161 -155z" />
    <glyph glyph-name="seven.osf" horiz-adv-x="520" 
d="M91 622h448l-394 -725l-29 9l376 690h-406z" />
    <glyph glyph-name="eight.osf" horiz-adv-x="574" 
d="M374 383c75 -21 119 -77 119 -154c0 -140 -115 -239 -262 -239c-120 0 -193 65 -193 164c0 116 78 203 187 230c-64 21 -101 72 -101 141c0 132 104 225 238 225c109 0 176 -61 176 -154c0 -104 -68 -185 -164 -213zM155 524c0 -78 54 -127 145 -127
c118 0 206 87 206 197c0 78 -55 128 -146 128c-117 0 -205 -87 -205 -198zM234 18c129 0 227 91 227 212c0 84 -61 139 -163 139c-129 0 -229 -92 -229 -212c0 -85 63 -139 165 -139z" />
    <glyph glyph-name="nine.osf" horiz-adv-x="543" 
d="M321 632c118 0 191 -69 191 -176c0 -69 -29 -146 -74 -196l-305 -363l-29 9l258 304c-38 -21 -81 -32 -125 -32c-115 0 -186 69 -186 177c0 153 115 277 270 277zM246 205c136 0 231 112 231 244c0 95 -60 154 -160 154c-137 0 -232 -109 -232 -241
c0 -95 60 -157 161 -157z" />
    <glyph glyph-name="one.ss02" horiz-adv-x="302" 
d="M104 0l126 712h-149l5 28h182l-131 -740h-33z" />
    <glyph glyph-name="one.lf.ss02" horiz-adv-x="302" 
d="M104 0l126 712h-149l5 28h182l-131 -740h-33z" />
    <glyph glyph-name="one.osf.ss02" horiz-adv-x="313" 
d="M120 0l105 596h-140l4 26h170l-109 -622h-30z" />
    <glyph glyph-name="one.tf.ss02" 
d="M321 28h154l-4 -28h-421l4 28h233l121 684h-179l6 28h212z" />
    <glyph glyph-name="one.tosf.ss02" 
d="M323 26h156l-4 -26h-421l4 26h235l100 570h-170l5 26h200z" />
    <glyph glyph-name="zero.tf" 
d="M253 -10c-109 0 -171 98 -171 254c0 222 112 506 301 506c109 0 171 -98 171 -255c0 -222 -113 -505 -301 -505zM256 18c164 0 265 280 265 481c0 137 -50 223 -140 223c-165 0 -266 -279 -266 -481c0 -137 51 -223 141 -223z" />
    <glyph glyph-name="one.tf" 
d="M332 28h156l-5 -28h-421l5 28h232l118 665l-240 -155l-13 26l268 176h26z" />
    <glyph glyph-name="two.tf" 
d="M31 0l4 22l264 239c98 88 231 197 231 334c0 79 -56 127 -150 127c-109 0 -194 -69 -211 -171l-34 5c21 117 118 194 246 194c113 0 184 -58 184 -154c0 -144 -144 -267 -250 -361l-232 -207h396l-5 -28h-443z" />
    <glyph glyph-name="three.tf" 
d="M587 740l-5 -22l-347 -314c23 5 50 8 74 8c127 0 204 -67 204 -171c0 -149 -127 -251 -285 -251c-91 0 -160 31 -191 91l17 23c33 -59 91 -86 175 -86c140 0 248 94 248 222c0 88 -68 144 -180 144c-44 0 -89 -8 -128 -26l-7 18l372 336h-362l5 28h410z" />
    <glyph glyph-name="four.tf" 
d="M359 0l31 171h-370l5 29l468 540h30l-96 -541h119l-5 -28h-118l-31 -171h-33zM61 198h334l86 485z" />
    <glyph glyph-name="five.tf" 
d="M227 -10c-91 0 -157 24 -196 73l13 23c40 -47 106 -68 183 -68c146 0 257 101 257 235c0 91 -63 150 -168 150c-49 0 -104 -9 -161 -25l-24 4l114 358h331l-5 -28h-299l-100 -302c51 14 105 22 153 22c121 0 194 -70 194 -176c0 -158 -130 -266 -292 -266z" />
    <glyph glyph-name="six.tf" 
d="M340 444c117 0 189 -69 189 -178c0 -154 -117 -276 -273 -276c-120 0 -192 69 -192 179c0 69 28 139 72 191l319 380h39l-278 -327c37 20 79 31 124 31zM261 18c136 0 231 111 231 243c0 95 -60 155 -160 155c-136 0 -232 -111 -232 -243c0 -95 60 -155 161 -155z" />
    <glyph glyph-name="seven.tf" 
d="M154 740h448l-405 -740h-37l391 712h-403z" />
    <glyph glyph-name="eight.tf" 
d="M396 383c77 -21 122 -77 122 -154c0 -140 -116 -239 -265 -239c-122 0 -197 65 -197 165c0 116 80 202 189 229c-65 21 -103 73 -103 142c0 133 106 224 241 224c111 0 180 -61 180 -154c0 -106 -69 -185 -167 -213zM176 524c0 -78 55 -127 146 -127
c118 0 205 87 205 197c0 78 -54 128 -146 128c-117 0 -205 -87 -205 -198zM256 18c129 0 227 91 227 212c0 84 -62 139 -164 139c-128 0 -228 -92 -228 -212c0 -85 62 -139 165 -139z" />
    <glyph glyph-name="nine.tf" 
d="M380 750c120 0 192 -69 192 -179c0 -69 -28 -139 -72 -191l-319 -380h-39l278 327c-37 -20 -79 -31 -124 -31c-117 0 -189 69 -189 178c0 154 117 276 273 276zM304 324c136 0 232 111 232 243c0 95 -60 155 -161 155c-136 0 -231 -111 -231 -243c0 -95 60 -155 160 -155
z" />
    <glyph glyph-name="zero.tosf" 
d="M253 -10c-112 0 -177 89 -177 229c0 195 109 413 287 413c110 0 175 -89 175 -229c0 -195 -109 -413 -285 -413zM256 17c157 0 251 216 251 387c0 124 -54 201 -146 201c-155 0 -253 -209 -253 -386c0 -125 54 -202 148 -202z" />
    <glyph glyph-name="one.tosf" 
d="M309 26h176l-4 -26h-421l4 26h215l97 554l-178 -116l-12 24l205 134h22z" />
    <glyph glyph-name="two.tosf" 
d="M34 0l4 22l267 182c96 65 211 150 211 270c0 80 -58 131 -154 131c-110 0 -197 -70 -214 -172l-31 5c21 117 118 194 247 194c112 0 183 -61 183 -155c0 -135 -123 -225 -230 -296l-231 -155h395l-5 -26h-442z" />
    <glyph glyph-name="three.tosf" 
d="M569 622l-4 -22l-350 -306c24 6 52 8 78 8c125 0 201 -65 201 -165c0 -148 -125 -247 -280 -247c-91 0 -161 31 -192 91l18 22c30 -60 89 -87 173 -87c139 0 249 93 249 218c0 87 -69 143 -182 143c-43 0 -88 -9 -127 -28l-7 18l374 329h-366l4 26h411z" />
    <glyph glyph-name="four.tosf" 
d="M348 -110l19 110h-373l5 27l477 595h31l-105 -596h118l-4 -26h-119l-19 -110h-30zM34 26h338l95 539z" />
    <glyph glyph-name="five.tosf" 
d="M207 -110c-91 0 -158 24 -196 73l12 22c39 -48 106 -69 183 -69c144 0 256 97 256 230c0 90 -62 148 -167 148c-49 0 -105 -9 -162 -25l-24 4l112 349h331l-5 -26h-303l-98 -297c53 14 107 22 157 22c119 0 191 -68 191 -172c0 -154 -128 -259 -287 -259z" />
    <glyph glyph-name="six.tosf" 
d="M340 444c116 0 186 -69 186 -177c0 -153 -115 -277 -270 -277c-118 0 -190 68 -190 176c0 69 29 145 74 195l1 1l317 378h36l-278 -328c37 21 80 32 124 32zM261 18c136 0 231 111 231 243c0 95 -60 155 -160 155c-136 0 -232 -111 -232 -243c0 -95 60 -155 161 -155z
" />
    <glyph glyph-name="seven.tosf" 
d="M138 622h448l-394 -725l-28 9l376 690h-407z" />
    <glyph glyph-name="eight.tosf" 
d="M394 383c76 -21 120 -77 120 -154c0 -140 -115 -239 -262 -239c-120 0 -194 65 -194 164c0 116 79 203 187 230c-64 21 -101 72 -101 141c0 132 104 225 239 225c108 0 176 -61 176 -154c0 -104 -68 -185 -165 -213zM175 524c0 -78 55 -127 146 -127
c118 0 205 87 205 197c0 78 -54 128 -146 128c-117 0 -205 -87 -205 -198zM255 18c129 0 227 91 227 212c0 84 -62 139 -164 139c-128 0 -228 -92 -228 -212c0 -85 63 -139 165 -139z" />
    <glyph glyph-name="nine.tosf" 
d="M358 632c118 0 191 -69 191 -176c0 -69 -29 -146 -74 -196l-305 -363l-29 9l257 304c-37 -21 -79 -32 -124 -32c-115 0 -186 69 -186 177c0 153 115 277 270 277zM283 205c136 0 232 112 232 244c0 95 -61 154 -161 154c-137 0 -232 -109 -232 -241
c0 -95 60 -157 161 -157z" />
    <glyph glyph-name="uni2080" unicode="&#x2080;" horiz-adv-x="377" 
d="M120 -106c-74 0 -118 62 -118 161c0 141 77 295 196 295c75 0 119 -62 119 -161c0 -142 -77 -295 -197 -295zM124 -81c101 0 165 149 165 271c0 84 -34 136 -93 136c-102 0 -166 -149 -166 -272c0 -84 34 -135 94 -135z" />
    <glyph glyph-name="uni2081" unicode="&#x2081;" horiz-adv-x="247" 
d="M74 -100l72 405l-138 -88l-11 21l163 106h22l-79 -444h-29z" />
    <glyph glyph-name="uni2082" unicode="&#x2082;" horiz-adv-x="340" 
d="M-39 -100l4 18l159 145c56 51 133 114 133 191c0 45 -32 72 -85 72c-61 0 -109 -40 -119 -98l-30 4c14 71 73 118 151 118c69 0 113 -35 113 -94c0 -85 -83 -157 -148 -214l-134 -118l231 1l-4 -25h-271z" />
    <glyph glyph-name="uni2083" unicode="&#x2083;" horiz-adv-x="342" 
d="M299 344l-4 -18l-198 -179c12 2 25 3 37 3c76 0 122 -40 122 -104c0 -90 -77 -152 -173 -152c-55 0 -98 19 -117 53l14 20c19 -34 54 -48 104 -48c79 0 142 53 142 126c0 50 -38 82 -103 82c-26 0 -52 -5 -75 -15l-6 15l212 193h-207l4 24h248z" />
    <glyph glyph-name="uni2084" unicode="&#x2084;" horiz-adv-x="367" 
d="M172 -100l17 101h-226l4 22l286 321h25l-56 -319h70l-5 -24h-69l-18 -101h-28zM-2 24h196l48 273z" />
    <glyph glyph-name="uni2085" unicode="&#x2085;" horiz-adv-x="347" 
d="M83 -106c-54 0 -95 14 -119 43l11 21c24 -28 63 -39 108 -39c84 0 150 57 150 133c0 53 -36 85 -95 85c-30 0 -62 -5 -94 -15l-20 3l69 219h203l-5 -24h-176l-57 -170c29 8 59 12 87 12c73 0 117 -42 117 -107c0 -95 -80 -161 -179 -161z" />
    <glyph glyph-name="uni2086" unicode="&#x2086;" horiz-adv-x="342" 
d="M152 167c70 0 114 -42 114 -108c0 -91 -70 -165 -166 -165c-74 0 -119 42 -119 108c0 45 22 88 49 120l185 222h33l-162 -191c20 9 42 14 66 14zM105 -81c79 0 131 65 131 138c0 54 -35 87 -92 87c-76 0 -132 -61 -132 -138c0 -54 35 -87 93 -87z" />
    <glyph glyph-name="uni2087" unicode="&#x2087;" horiz-adv-x="304" 
d="M18 344h273l-241 -444h-31l229 420h-234z" />
    <glyph glyph-name="uni2088" unicode="&#x2088;" horiz-adv-x="362" 
d="M200 130c44 -14 70 -48 70 -93c0 -84 -71 -143 -161 -143c-75 0 -121 39 -121 100c0 69 46 119 110 136c-37 14 -59 45 -59 86c0 79 65 134 147 134c68 0 110 -37 110 -94c0 -62 -40 -109 -96 -126zM68 214c0 -45 31 -72 82 -72c66 0 116 50 116 112c0 44 -30 72 -81 72
c-67 0 -117 -50 -117 -112zM110 -81c74 0 131 52 131 120c0 48 -36 79 -93 79c-73 0 -130 -54 -130 -121c0 -48 35 -78 92 -78z" />
    <glyph glyph-name="uni2089" unicode="&#x2089;" horiz-adv-x="342" 
d="M176 350c74 0 119 -42 119 -108c0 -45 -22 -88 -49 -120l-185 -222h-33l162 191c-20 -9 -42 -14 -66 -14c-70 0 -114 42 -114 108c0 91 70 165 166 165zM132 100c76 0 132 61 132 138c0 54 -35 87 -93 87c-79 0 -131 -65 -131 -138c0 -54 35 -87 92 -87z" />
    <glyph glyph-name="zero.dnom" horiz-adv-x="377" 
d="M138 -6c-74 0 -118 62 -118 161c0 141 77 295 196 295c75 0 119 -62 119 -161c0 -142 -77 -295 -197 -295zM142 19c101 0 165 149 165 271c0 84 -34 136 -93 136c-102 0 -166 -149 -166 -272c0 -84 34 -135 94 -135z" />
    <glyph glyph-name="one.dnom" horiz-adv-x="247" 
d="M92 0l72 405l-138 -88l-11 21l163 106h22l-79 -444h-29z" />
    <glyph glyph-name="two.dnom" horiz-adv-x="340" 
d="M-21 0l4 18l159 145c56 51 133 114 133 191c0 45 -32 72 -85 72c-61 0 -109 -40 -119 -98l-30 4c14 71 73 118 151 118c69 0 113 -35 113 -94c0 -85 -83 -157 -148 -214l-134 -118l231 1l-4 -25h-271z" />
    <glyph glyph-name="three.dnom" horiz-adv-x="342" 
d="M317 444l-4 -18l-198 -179c12 2 25 3 37 3c76 0 122 -40 122 -104c0 -90 -77 -152 -173 -152c-55 0 -98 19 -117 53l14 20c19 -34 54 -48 104 -48c79 0 142 53 142 126c0 50 -38 82 -103 82c-26 0 -52 -5 -75 -15l-6 15l212 193h-207l4 24h248z" />
    <glyph glyph-name="four.dnom" horiz-adv-x="367" 
d="M190 0l17 101h-226l4 22l286 321h25l-56 -319h70l-5 -24h-69l-18 -101h-28zM16 124h196l48 273z" />
    <glyph glyph-name="five.dnom" horiz-adv-x="347" 
d="M101 -6c-54 0 -95 14 -119 43l11 21c24 -28 63 -39 108 -39c84 0 150 57 150 133c0 53 -36 85 -95 85c-30 0 -62 -5 -94 -15l-20 3l69 219h203l-5 -24h-176l-57 -170c29 8 59 12 87 12c73 0 117 -42 117 -107c0 -95 -80 -161 -179 -161z" />
    <glyph glyph-name="six.dnom" horiz-adv-x="342" 
d="M170 267c70 0 114 -42 114 -108c0 -91 -70 -165 -166 -165c-74 0 -119 42 -119 108c0 45 22 88 49 120l185 222h33l-162 -191c20 9 42 14 66 14zM123 19c79 0 131 65 131 138c0 54 -35 87 -92 87c-76 0 -132 -61 -132 -138c0 -54 35 -87 93 -87z" />
    <glyph glyph-name="seven.dnom" horiz-adv-x="304" 
d="M36 444h273l-241 -444h-31l229 420h-234z" />
    <glyph glyph-name="eight.dnom" horiz-adv-x="362" 
d="M218 230c44 -14 70 -48 70 -93c0 -84 -71 -143 -161 -143c-75 0 -121 39 -121 100c0 69 46 119 110 136c-37 14 -59 45 -59 86c0 79 65 134 147 134c68 0 110 -37 110 -94c0 -62 -40 -109 -96 -126zM86 314c0 -45 31 -72 82 -72c66 0 116 50 116 112c0 44 -30 72 -81 72
c-67 0 -117 -50 -117 -112zM128 19c74 0 131 52 131 120c0 48 -36 79 -93 79c-73 0 -130 -54 -130 -121c0 -48 35 -78 92 -78z" />
    <glyph glyph-name="nine.dnom" horiz-adv-x="342" 
d="M194 450c74 0 119 -42 119 -108c0 -45 -22 -88 -49 -120l-185 -222h-33l162 191c-20 -9 -42 -14 -66 -14c-70 0 -114 42 -114 108c0 91 70 165 166 165zM150 200c76 0 132 61 132 138c0 54 -35 87 -93 87c-79 0 -131 -65 -131 -138c0 -54 35 -87 92 -87z" />
    <glyph glyph-name="zero.numr" horiz-adv-x="377" 
d="M190 290c-74 0 -118 62 -118 161c0 141 77 295 196 295c75 0 119 -62 119 -161c0 -142 -77 -295 -197 -295zM194 315c101 0 165 149 165 271c0 84 -34 136 -93 136c-102 0 -166 -149 -166 -272c0 -84 34 -135 94 -135z" />
    <glyph glyph-name="one.numr" horiz-adv-x="247" 
d="M144 296l72 405l-138 -88l-11 21l163 106h22l-79 -444h-29z" />
    <glyph glyph-name="two.numr" horiz-adv-x="340" 
d="M31 296l4 18l159 145c56 51 133 114 133 191c0 45 -32 72 -85 72c-61 0 -109 -40 -119 -98l-30 4c14 71 73 118 151 118c69 0 113 -35 113 -94c0 -85 -83 -157 -148 -214l-134 -118l231 1l-4 -25h-271z" />
    <glyph glyph-name="three.numr" horiz-adv-x="342" 
d="M369 740l-4 -18l-198 -179c12 2 25 3 37 3c76 0 122 -40 122 -104c0 -90 -77 -152 -173 -152c-55 0 -98 19 -117 53l14 20c19 -34 54 -48 104 -48c79 0 142 53 142 126c0 50 -38 82 -103 82c-26 0 -52 -5 -75 -15l-6 15l212 193h-207l4 24h248z" />
    <glyph glyph-name="four.numr" horiz-adv-x="367" 
d="M242 296l17 101h-226l4 22l286 321h25l-56 -319h70l-5 -24h-69l-18 -101h-28zM68 420h196l48 273z" />
    <glyph glyph-name="five.numr" horiz-adv-x="347" 
d="M153 290c-54 0 -95 14 -119 43l11 21c24 -28 63 -39 108 -39c84 0 150 57 150 133c0 53 -36 85 -95 85c-30 0 -62 -5 -94 -15l-20 3l69 219h203l-5 -24h-176l-57 -170c29 8 59 12 87 12c73 0 117 -42 117 -107c0 -95 -80 -161 -179 -161z" />
    <glyph glyph-name="six.numr" horiz-adv-x="342" 
d="M222 563c70 0 114 -42 114 -108c0 -91 -70 -165 -166 -165c-74 0 -119 42 -119 108c0 45 22 88 49 120l185 222h33l-162 -191c20 9 42 14 66 14zM175 315c79 0 131 65 131 138c0 54 -35 87 -92 87c-76 0 -132 -61 -132 -138c0 -54 35 -87 93 -87z" />
    <glyph glyph-name="seven.numr" horiz-adv-x="304" 
d="M88 740h273l-241 -444h-31l229 420h-234z" />
    <glyph glyph-name="eight.numr" horiz-adv-x="362" 
d="M270 526c44 -14 70 -48 70 -93c0 -84 -71 -143 -161 -143c-75 0 -121 39 -121 100c0 69 46 119 110 136c-37 14 -59 45 -59 86c0 79 65 134 147 134c68 0 110 -37 110 -94c0 -62 -40 -109 -96 -126zM138 610c0 -45 31 -72 82 -72c66 0 116 50 116 112c0 44 -30 72 -81 72
c-67 0 -117 -50 -117 -112zM180 315c74 0 131 52 131 120c0 48 -36 79 -93 79c-73 0 -130 -54 -130 -121c0 -48 35 -78 92 -78z" />
    <glyph glyph-name="nine.numr" horiz-adv-x="342" 
d="M246 746c74 0 119 -42 119 -108c0 -45 -22 -88 -49 -120l-185 -222h-33l162 191c-20 -9 -42 -14 -66 -14c-70 0 -114 42 -114 108c0 91 70 165 166 165zM202 496c76 0 132 61 132 138c0 54 -35 87 -93 87c-79 0 -131 -65 -131 -138c0 -54 35 -87 92 -87z" />
    <glyph glyph-name="uni2070" unicode="&#x2070;" horiz-adv-x="377" 
d="M208 390c-74 0 -118 62 -118 161c0 141 77 295 196 295c75 0 119 -62 119 -161c0 -142 -77 -295 -197 -295zM212 415c101 0 165 149 165 271c0 84 -34 136 -93 136c-102 0 -166 -149 -166 -272c0 -84 34 -135 94 -135z" />
    <glyph glyph-name="uni00B9" unicode="&#xb9;" horiz-adv-x="247" 
d="M162 396l72 405l-138 -88l-11 21l163 106h22l-79 -444h-29z" />
    <glyph glyph-name="uni00B2" unicode="&#xb2;" horiz-adv-x="340" 
d="M49 396l4 18l159 145c56 51 133 114 133 191c0 45 -32 72 -85 72c-61 0 -109 -40 -119 -98l-30 4c14 71 73 118 151 118c69 0 113 -35 113 -94c0 -85 -83 -157 -148 -214l-134 -118l231 1l-4 -25h-271z" />
    <glyph glyph-name="uni00B3" unicode="&#xb3;" horiz-adv-x="342" 
d="M387 840l-4 -18l-198 -179c12 2 25 3 37 3c76 0 122 -40 122 -104c0 -90 -77 -152 -173 -152c-55 0 -98 19 -117 53l14 20c19 -34 54 -48 104 -48c79 0 142 53 142 126c0 50 -38 82 -103 82c-26 0 -52 -5 -75 -15l-6 15l212 193h-207l4 24h248z" />
    <glyph glyph-name="uni2074" unicode="&#x2074;" horiz-adv-x="367" 
d="M260 396l17 101h-226l4 22l286 321h25l-56 -319h70l-5 -24h-69l-18 -101h-28zM86 520h196l48 273z" />
    <glyph glyph-name="uni2075" unicode="&#x2075;" horiz-adv-x="347" 
d="M171 390c-54 0 -95 14 -119 43l11 21c24 -28 63 -39 108 -39c84 0 150 57 150 133c0 53 -36 85 -95 85c-30 0 -62 -5 -94 -15l-20 3l69 219h203l-5 -24h-176l-57 -170c29 8 59 12 87 12c73 0 117 -42 117 -107c0 -95 -80 -161 -179 -161z" />
    <glyph glyph-name="uni2076" unicode="&#x2076;" horiz-adv-x="342" 
d="M240 663c70 0 114 -42 114 -108c0 -91 -70 -165 -166 -165c-74 0 -119 42 -119 108c0 45 22 88 49 120l185 222h33l-162 -191c20 9 42 14 66 14zM193 415c79 0 131 65 131 138c0 54 -35 87 -92 87c-76 0 -132 -61 -132 -138c0 -54 35 -87 93 -87z" />
    <glyph glyph-name="uni2077" unicode="&#x2077;" horiz-adv-x="304" 
d="M106 840h273l-241 -444h-31l229 420h-234z" />
    <glyph glyph-name="uni2078" unicode="&#x2078;" horiz-adv-x="362" 
d="M288 626c44 -14 70 -48 70 -93c0 -84 -71 -143 -161 -143c-75 0 -121 39 -121 100c0 69 46 119 110 136c-37 14 -59 45 -59 86c0 79 65 134 147 134c68 0 110 -37 110 -94c0 -62 -40 -109 -96 -126zM156 710c0 -45 31 -72 82 -72c66 0 116 50 116 112c0 44 -30 72 -81 72
c-67 0 -117 -50 -117 -112zM198 415c74 0 131 52 131 120c0 48 -36 79 -93 79c-73 0 -130 -54 -130 -121c0 -48 35 -78 92 -78z" />
    <glyph glyph-name="uni2079" unicode="&#x2079;" horiz-adv-x="342" 
d="M264 846c74 0 119 -42 119 -108c0 -45 -22 -88 -49 -120l-185 -222h-33l162 191c-20 -9 -42 -14 -66 -14c-70 0 -114 42 -114 108c0 91 70 165 166 165zM220 596c76 0 132 61 132 138c0 54 -35 87 -93 87c-79 0 -131 -65 -131 -138c0 -54 35 -87 92 -87z" />
    <glyph glyph-name="fraction" unicode="&#x2044;" horiz-adv-x="179" 
d="M-176 -10l-19 15l568 745l20 -15z" />
    <glyph glyph-name="onehalf" unicode="&#xbd;" horiz-adv-x="766" 
d="M71 -10l-19 15l568 745l20 -15zM144 296l72 405l-138 -88l-11 21l163 106h22l-79 -444h-29zM405 0l4 18l159 145c56 51 133 114 133 191c0 45 -32 72 -85 72c-61 0 -109 -40 -119 -98l-30 4c14 71 73 118 151 118c69 0 113 -35 113 -94c0 -85 -83 -157 -148 -214
l-134 -118l231 1l-4 -25h-271z" />
    <glyph glyph-name="onequarter" unicode="&#xbc;" horiz-adv-x="762" 
d="M71 -10l-19 15l568 745l20 -15zM144 296l72 405l-138 -88l-11 21l163 106h22l-79 -444h-29zM585 0l17 101h-226l4 22l286 321h25l-56 -319h70l-5 -24h-69l-18 -101h-28zM411 124h196l48 273z" />
    <glyph glyph-name="threequarters" unicode="&#xbe;" horiz-adv-x="857" 
d="M715 750l20 -15l-569 -745l-19 15zM326 442c0 -90 -77 -152 -173 -152c-55 0 -98 19 -117 53l14 20c19 -34 54 -48 104 -48c79 0 142 53 142 126c0 50 -38 82 -103 82c-26 0 -52 -5 -75 -15l-6 15l212 193h-207l4 24h248l-4 -18l-198 -179c12 2 25 3 37 3
c76 0 122 -40 122 -104zM730 125h70l-5 -24h-69l-18 -101h-28l17 101h-226l4 22l286 321h25zM702 124l48 273l-244 -273h196z" />
    <glyph glyph-name="oneeighth" unicode="&#x215b;" horiz-adv-x="788" 
d="M620 750l20 -15l-569 -745l-19 15zM216 701l-138 -88l-11 21l163 106h22l-79 -444h-29zM644 230c44 -14 70 -48 70 -93c0 -84 -71 -143 -161 -143c-75 0 -121 39 -121 100c0 69 46 119 110 136c-37 14 -59 45 -59 86c0 79 65 134 147 134c68 0 110 -37 110 -94
c0 -62 -40 -109 -96 -126zM512 314c0 -45 31 -72 82 -72c66 0 116 50 116 112c0 44 -30 72 -81 72c-67 0 -117 -50 -117 -112zM554 19c74 0 131 52 131 120c0 48 -36 79 -93 79c-73 0 -130 -54 -130 -121c0 -48 35 -78 92 -78z" />
    <glyph glyph-name="threeeighths" unicode="&#x215c;" horiz-adv-x="883" 
d="M715 750l20 -15l-569 -745l-19 15zM326 442c0 -90 -77 -152 -173 -152c-55 0 -98 19 -117 53l14 20c19 -34 54 -48 104 -48c79 0 142 53 142 126c0 50 -38 82 -103 82c-26 0 -52 -5 -75 -15l-6 15l212 193h-207l4 24h248l-4 -18l-198 -179c12 2 25 3 37 3
c76 0 122 -40 122 -104zM739 230c44 -14 70 -48 70 -93c0 -84 -71 -143 -161 -143c-75 0 -121 39 -121 100c0 69 46 119 110 136c-37 14 -59 45 -59 86c0 79 65 134 147 134c68 0 110 -37 110 -94c0 -62 -40 -109 -96 -126zM607 314c0 -45 31 -72 82 -72
c66 0 116 50 116 112c0 44 -30 72 -81 72c-67 0 -117 -50 -117 -112zM649 19c74 0 131 52 131 120c0 48 -36 79 -93 79c-73 0 -130 -54 -130 -121c0 -48 35 -78 92 -78z" />
    <glyph glyph-name="fiveeighths" unicode="&#x215d;" horiz-adv-x="888" 
d="M720 750l20 -15l-569 -745l-19 15zM332 451c0 -95 -80 -161 -179 -161c-54 0 -95 14 -119 43l11 21c24 -28 63 -39 108 -39c84 0 150 57 150 133c0 53 -36 85 -95 85c-30 0 -62 -5 -94 -15l-20 3l69 219h203l-5 -24h-176l-57 -170c29 8 59 12 87 12
c73 0 117 -42 117 -107zM744 230c44 -14 70 -48 70 -93c0 -84 -71 -143 -161 -143c-75 0 -121 39 -121 100c0 69 46 119 110 136c-37 14 -59 45 -59 86c0 79 65 134 147 134c68 0 110 -37 110 -94c0 -62 -40 -109 -96 -126zM612 314c0 -45 31 -72 82 -72
c66 0 116 50 116 112c0 44 -30 72 -81 72c-67 0 -117 -50 -117 -112zM654 19c74 0 131 52 131 120c0 48 -36 79 -93 79c-73 0 -130 -54 -130 -121c0 -48 35 -78 92 -78z" />
    <glyph glyph-name="seveneighths" unicode="&#x215e;" horiz-adv-x="818" 
d="M650 750l20 -15l-569 -745l-19 15zM89 296l229 420h-234l4 24h273l-241 -444h-31zM674 230c44 -14 70 -48 70 -93c0 -84 -71 -143 -161 -143c-75 0 -121 39 -121 100c0 69 46 119 110 136c-37 14 -59 45 -59 86c0 79 65 134 147 134c68 0 110 -37 110 -94
c0 -62 -40 -109 -96 -126zM542 314c0 -45 31 -72 82 -72c66 0 116 50 116 112c0 44 -30 72 -81 72c-67 0 -117 -50 -117 -112zM584 19c74 0 131 52 131 120c0 48 -36 79 -93 79c-73 0 -130 -54 -130 -121c0 -48 35 -78 92 -78z" />
    <glyph glyph-name="uni2081.ss02" horiz-adv-x="197" 
d="M26 -100l74 420h-86l4 24h114l-78 -444h-28z" />
    <glyph glyph-name="one.dnom.ss02" horiz-adv-x="197" 
d="M44 0l74 420h-86l4 24h114l-78 -444h-28z" />
    <glyph glyph-name="one.numr.ss02" horiz-adv-x="197" 
d="M96 296l74 420h-86l4 24h114l-78 -444h-28z" />
    <glyph glyph-name="uni00B9.ss02" horiz-adv-x="197" 
d="M114 396l74 420h-86l4 24h114l-78 -444h-28z" />
    <glyph glyph-name="onehalf.ss02" horiz-adv-x="716" 
d="M21 -10l-19 15l568 745l20 -15zM96 296l74 420h-86l4 24h114l-78 -444h-28zM355 0l4 18l159 145c56 51 133 114 133 191c0 45 -32 72 -85 72c-61 0 -109 -40 -119 -98l-30 4c14 71 73 118 151 118c69 0 113 -35 113 -94c0 -85 -83 -157 -148 -214l-134 -118l231 1l-4 -25
h-271z" />
    <glyph glyph-name="onequarter.ss02" horiz-adv-x="712" 
d="M21 -10l-19 15l568 745l20 -15zM96 296l74 420h-86l4 24h114l-78 -444h-28zM535 0l17 101h-226l4 22l286 321h25l-56 -319h70l-5 -24h-69l-18 -101h-28zM361 124h196l48 273z" />
    <glyph glyph-name="oneeighth.ss02" horiz-adv-x="738" 
d="M570 750l20 -15l-569 -745l-19 15zM96 296l74 420h-86l4 24h114l-78 -444h-28zM594 230c44 -14 70 -48 70 -93c0 -84 -71 -143 -161 -143c-75 0 -121 39 -121 100c0 69 46 119 110 136c-37 14 -59 45 -59 86c0 79 65 134 147 134c68 0 110 -37 110 -94
c0 -62 -40 -109 -96 -126zM462 314c0 -45 31 -72 82 -72c66 0 116 50 116 112c0 44 -30 72 -81 72c-67 0 -117 -50 -117 -112zM504 19c74 0 131 52 131 120c0 48 -36 79 -93 79c-73 0 -130 -54 -130 -121c0 -48 35 -78 92 -78z" />
    <glyph glyph-name="asterisk" unicode="*" horiz-adv-x="385" 
d="M377 634l-117 -33l54 -93l-25 -17l-51 95l-82 -95l-21 17l86 93l-106 33l14 28l104 -39l18 117h29l-24 -118l117 40z" />
    <glyph glyph-name="backslash" unicode="\" horiz-adv-x="361" 
d="M212 -100l-84 880h31l84 -880h-31z" />
    <glyph glyph-name="periodcentered" unicode="&#xb7;" horiz-adv-x="214" 
d="M99 255c-17 0 -28 13 -28 29c0 18 16 34 35 34c16 0 28 -13 28 -29c0 -19 -17 -34 -35 -34z" />
    <glyph glyph-name="bullet" unicode="&#x2022;" horiz-adv-x="342" 
d="M165 253c-40 0 -66 25 -66 64c0 46 34 80 81 80c39 0 65 -25 65 -64c0 -46 -34 -80 -80 -80z" />
    <glyph glyph-name="colon" unicode=":" horiz-adv-x="215" 
d="M137 469c-17 0 -28 13 -28 29c0 18 17 34 35 34c17 0 28 -13 28 -29c0 -19 -16 -34 -35 -34zM53 -10c-17 0 -28 13 -28 29c0 18 16 34 35 34c17 0 28 -13 28 -29c0 -19 -17 -34 -35 -34z" />
    <glyph glyph-name="comma" unicode="," horiz-adv-x="192" 
d="M-62 -145l103 195h39l-110 -195h-32z" />
    <glyph glyph-name="ellipsis" unicode="&#x2026;" horiz-adv-x="531" 
d="M47 -10c-17 0 -28 13 -28 29c0 18 16 34 35 34c17 0 28 -13 28 -29c0 -19 -17 -34 -35 -34zM215 -10c-17 0 -28 13 -28 29c0 18 17 34 35 34c17 0 28 -13 28 -29c0 -19 -16 -34 -35 -34zM384 -10c-17 0 -28 13 -28 29c0 18 16 34 34 34c17 0 28 -13 28 -29
c0 -19 -16 -34 -34 -34z" />
    <glyph glyph-name="exclam" unicode="!" horiz-adv-x="238" 
d="M72 129l105 611h34l-111 -611h-28zM64 -10c-14 0 -25 11 -25 25c0 18 14 29 30 29c14 0 24 -11 24 -25c0 -17 -14 -29 -29 -29z" />
    <glyph glyph-name="exclamdown" unicode="&#xa1;" horiz-adv-x="224" 
d="M144 478c-14 0 -25 10 -25 25c0 17 14 29 30 29c14 0 24 -11 24 -26c0 -17 -14 -28 -29 -28zM1 -220l112 612h28l-106 -612h-34z" />
    <glyph glyph-name="numbersign" unicode="#" horiz-adv-x="649" 
d="M630 456h-122l-88 -215h123l-10 -25h-123l-88 -216h-28l88 216h-213l-88 -216h-28l88 216h-121l11 25h120l88 215h-122l11 25h122l89 219h28l-89 -219h213l89 219h28l-89 -219h121zM392 241l88 215h-213l-88 -215h213z" />
    <glyph glyph-name="period" unicode="." horiz-adv-x="194" 
d="M47 -10c-17 0 -28 13 -28 29c0 18 16 34 35 34c17 0 28 -13 28 -29c0 -19 -17 -34 -35 -34z" />
    <glyph glyph-name="question" unicode="?" horiz-adv-x="505" 
d="M221 128l-27 3c34 193 111 250 177 297c63 47 103 85 103 167c0 78 -56 127 -153 127c-104 0 -188 -65 -208 -160l-32 4c24 111 120 184 242 184c115 0 187 -60 187 -152c0 -93 -47 -139 -117 -191c-67 -50 -141 -104 -172 -279zM185 -10c-14 0 -24 11 -24 25
c0 18 14 29 29 29c14 0 25 -11 25 -25c0 -17 -14 -29 -30 -29z" />
    <glyph glyph-name="questiondown" unicode="&#xbf;" horiz-adv-x="496" 
d="M292 478c-14 0 -25 10 -25 25c0 17 14 29 30 29c14 0 24 -11 24 -26c0 -17 -14 -28 -29 -28zM158 -230c-115 0 -186 60 -186 152c0 93 47 139 117 191c66 50 141 105 172 281l27 -3c-34 -194 -112 -251 -177 -299c-63 -47 -104 -85 -104 -167c0 -78 57 -127 153 -127
c105 0 189 65 208 160l32 -4c-23 -111 -119 -184 -242 -184z" />
    <glyph glyph-name="quotedbl" unicode="&#x22;" horiz-adv-x="292" 
d="M118 564l36 216h32l-39 -216h-29zM232 564l37 216h31l-39 -216h-29z" />
    <glyph glyph-name="quotesingle" unicode="'" horiz-adv-x="177" 
d="M118 564l36 216h32l-39 -216h-29z" />
    <glyph glyph-name="semicolon" unicode=";" horiz-adv-x="271" 
d="M170 469c-16 0 -28 13 -28 29c0 18 17 34 35 34c17 0 28 -13 28 -29c0 -19 -16 -34 -35 -34zM-16 -145l103 195h39l-110 -195h-32z" />
    <glyph glyph-name="slash" unicode="/" horiz-adv-x="369" 
d="M-23 -100l394 880h31l-394 -880h-31z" />
    <glyph glyph-name="underscore" unicode="_" horiz-adv-x="483" 
d="M-34 -25l4 25h433l-4 -25h-433z" />
    <glyph glyph-name="exclamdown.case" horiz-adv-x="249" 
d="M200 750c14 0 25 -11 25 -25c0 -18 -14 -29 -30 -29c-14 0 -24 11 -24 25c0 17 14 29 29 29zM192 611l-105 -611h-34l111 611h28z" />
    <glyph glyph-name="questiondown.case" horiz-adv-x="504" 
d="M339 750c14 0 24 -11 24 -25c0 -18 -14 -29 -29 -29c-14 0 -25 11 -25 25c0 17 14 29 30 29zM303 612l27 -3c-34 -193 -111 -250 -177 -297c-63 -47 -103 -85 -103 -167c0 -78 56 -127 153 -127c104 0 188 65 208 160l32 -4c-24 -111 -120 -184 -242 -184
c-115 0 -187 60 -187 152c0 93 47 139 117 191c67 50 141 104 172 279z" />
    <glyph glyph-name="slash.case" horiz-adv-x="339" 
d="M-2 0l332 740h31l-332 -740h-31z" />
    <glyph glyph-name="braceleft" unicode="{" horiz-adv-x="369" 
d="M163 -190c-62 0 -100 40 -100 104c0 10 1 20 3 31l35 203c4 20 5 37 5 53c0 60 -26 85 -67 85h-11l5 28h9c53 0 98 57 113 140l37 204c14 80 69 132 143 132c35 0 63 -4 90 -12l-5 -28c-29 8 -54 12 -85 12c-55 0 -100 -45 -112 -112l-35 -202
c-14 -76 -53 -135 -100 -148c32 -10 51 -44 51 -98c0 -15 -1 -34 -4 -53l-36 -202c-2 -9 -3 -19 -3 -29c0 -49 27 -80 73 -80c33 0 61 4 93 12l-6 -28c-31 -8 -59 -12 -93 -12z" />
    <glyph glyph-name="braceright" unicode="}" horiz-adv-x="369" 
d="M201 790c62 0 100 -40 100 -104c0 -10 -1 -20 -3 -31l-35 -203c-4 -20 -5 -37 -5 -53c0 -60 26 -85 67 -85h11l-5 -28h-9c-53 0 -98 -57 -113 -140l-37 -204c-14 -80 -69 -132 -143 -132c-35 0 -63 4 -90 12l5 28c29 -8 54 -12 85 -12c55 0 100 45 112 112l35 202
c14 76 53 135 100 148c-32 10 -51 44 -51 98c0 15 1 34 4 53l36 202c2 9 3 19 3 29c0 49 -27 80 -73 80c-33 0 -61 -4 -93 -12l6 28c31 8 59 12 93 12z" />
    <glyph glyph-name="bracketleft" unicode="[" horiz-adv-x="330" 
d="M17 -180l169 960h202l-4 -26h-172l-160 -908h172l-5 -26h-202z" />
    <glyph glyph-name="bracketright" unicode="]" horiz-adv-x="330" 
d="M309 780l-169 -960h-202l4 26h172l160 908h-172l5 26h202z" />
    <glyph glyph-name="parenleft" unicode="(" horiz-adv-x="263" 
d="M119 -180c-32 68 -76 188 -76 342c0 234 103 445 244 618h28c-138 -183 -240 -382 -240 -631c0 -161 49 -274 70 -329h-26z" />
    <glyph glyph-name="parenright" unicode=")" horiz-adv-x="262" 
d="M-56 -180c136 185 238 380 238 632c0 161 -47 273 -69 328h27c31 -68 75 -188 75 -342c0 -233 -103 -447 -245 -618h-26z" />
    <glyph glyph-name="braceleft.case" horiz-adv-x="388" 
d="M195 -50c-62 0 -100 40 -100 104c0 10 1 20 3 31l22 133c4 20 5 37 5 53c0 60 -25 85 -67 85h-11l5 28h9c53 0 98 57 113 140l24 134c15 81 70 132 143 132c36 0 63 -4 91 -12l-5 -28c-29 8 -54 12 -85 12c-55 0 -100 -44 -112 -112l-23 -132c-14 -76 -53 -135 -100 -148
c32 -10 51 -44 51 -98c0 -15 -1 -34 -4 -53l-23 -131c-2 -10 -3 -20 -3 -30c0 -49 27 -80 73 -80c33 0 61 4 93 12l-6 -28c-31 -8 -59 -12 -93 -12z" />
    <glyph glyph-name="braceright.case" horiz-adv-x="388" 
d="M213 790c62 0 100 -40 100 -104c0 -10 -1 -20 -3 -31l-22 -133c-4 -20 -5 -37 -5 -53c0 -60 25 -85 67 -85h11l-5 -28h-9c-53 0 -98 -57 -113 -140l-24 -134c-15 -81 -70 -132 -143 -132c-36 0 -63 4 -91 12l5 28c29 -8 54 -12 85 -12c55 0 100 44 112 112l23 132
c14 76 53 135 100 148c-32 10 -51 44 -51 98c0 15 1 34 4 53l23 131c2 10 3 20 3 30c0 49 -27 80 -73 80c-33 0 -61 -4 -93 -12l6 28c31 8 59 12 93 12z" />
    <glyph glyph-name="bracketleft.case" horiz-adv-x="349" 
d="M48 -40l145 820h202l-4 -26h-172l-136 -767h172l-5 -27h-202z" />
    <glyph glyph-name="bracketright.case" horiz-adv-x="348" 
d="M321 780l-145 -820h-202l4 26h172l136 767h-172l5 27h202z" />
    <glyph glyph-name="parenleft.case" horiz-adv-x="275" 
d="M146 -40c-40 69 -85 168 -85 302c0 205 95 373 230 518h27c-116 -129 -222 -325 -222 -507c0 -136 46 -256 77 -313h-27z" />
    <glyph glyph-name="parenright.case" horiz-adv-x="275" 
d="M-23 -40c116 129 222 325 222 508c0 135 -46 255 -77 312h27c40 -69 85 -168 85 -302c0 -205 -95 -373 -229 -518h-28z" />
    <glyph glyph-name="emdash" unicode="&#x2014;" horiz-adv-x="851" 
d="M69 273l4 25h698l-5 -25h-697z" />
    <glyph glyph-name="endash" unicode="&#x2013;" horiz-adv-x="537" 
d="M69 273l4 25h384l-4 -25h-384z" />
    <glyph glyph-name="hyphen" unicode="-" horiz-adv-x="407" 
d="M69 273l4 25h254l-4 -25h-254z" />
    <glyph glyph-name="uni00AD" unicode="&#xad;" horiz-adv-x="407" 
d="M69 273l4 25h254l-4 -25h-254z" />
    <glyph glyph-name="guillemotleft" unicode="&#xab;" horiz-adv-x="516" 
d="M177 49l-134 221l212 221h33l-210 -221l131 -221h-32zM382 49l-134 221l212 221h33l-210 -221l131 -221h-32z" />
    <glyph glyph-name="guillemotright" unicode="&#xbb;" horiz-adv-x="516" 
d="M119 491l135 -221l-213 -221h-33l210 221l-131 221h32zM324 491l135 -221l-213 -221h-33l210 221l-131 221h32z" />
    <glyph glyph-name="guilsinglleft" unicode="&#x2039;" horiz-adv-x="311" 
d="M177 49l-134 221l212 221h33l-210 -221l131 -221h-32z" />
    <glyph glyph-name="guilsinglright" unicode="&#x203a;" horiz-adv-x="311" 
d="M119 491l135 -221l-213 -221h-33l210 221l-131 221h32z" />
    <glyph glyph-name="quotedblbase" unicode="&#x201e;" horiz-adv-x="295" 
d="M-61 -143l102 193h32l-107 -193h-27zM49 -143l101 193h33l-107 -193h-27z" />
    <glyph glyph-name="quotedblleft" unicode="&#x201c;" horiz-adv-x="314" 
d="M233 739l-102 -193h-33l108 193h27zM342 739l-101 -193h-33l107 193h27z" />
    <glyph glyph-name="quotedblright" unicode="&#x201d;" horiz-adv-x="310" 
d="M99 548l101 193h33l-107 -193h-27zM208 548l102 193h33l-107 -193h-28z" />
    <glyph glyph-name="quoteleft" unicode="&#x2018;" horiz-adv-x="202" 
d="M231 740l-102 -193h-33l108 193h27z" />
    <glyph glyph-name="quoteright" unicode="&#x2019;" horiz-adv-x="201" 
d="M98 547l102 193h32l-107 -193h-27z" />
    <glyph glyph-name="quotesinglbase" unicode="&#x201a;" horiz-adv-x="186" 
d="M-61 -143l102 193h32l-107 -193h-27z" />
    <glyph glyph-name="space" unicode=" " horiz-adv-x="277" 
 />
    <glyph glyph-name="uni00A0" unicode="&#xa0;" horiz-adv-x="277" 
 />
    <glyph glyph-name="CR" unicode="&#xd;" horiz-adv-x="238" 
 />
    <glyph glyph-name=".null" horiz-adv-x="0" 
 />
    <glyph glyph-name="cent" unicode="&#xa2;" horiz-adv-x="550" 
d="M499 506c-36 33 -77 48 -130 49l-85 -488c56 2 114 23 162 63l15 -24c-51 -42 -114 -64 -182 -66l-14 -80h-31l14 81c-120 8 -193 89 -193 211c0 174 118 318 289 329l14 81h30l-14 -80c61 -2 107 -21 146 -56zM87 253c0 -106 62 -176 166 -185l86 486
c-150 -12 -252 -148 -252 -301z" />
    <glyph glyph-name="currency" unicode="&#xa4;" horiz-adv-x="589" 
d="M519 379c0 -68 -32 -132 -81 -178l42 -52l-21 -21l-44 53c-44 -32 -96 -52 -151 -52s-101 20 -134 52l-62 -53l-18 20l63 53c-21 29 -33 66 -33 107c0 69 32 133 82 179l-44 52l25 20l43 -52c43 32 95 51 150 51s101 -20 134 -53l62 54l17 -21l-62 -53
c20 -30 32 -66 32 -106zM108 310c0 -88 65 -156 158 -156c116 0 224 108 224 225c0 87 -65 154 -156 154c-115 0 -226 -108 -226 -223z" />
    <glyph glyph-name="dollar" unicode="$" horiz-adv-x="606" 
d="M402 750c96 -3 154 -36 191 -86l-22 -22c-39 51 -94 77 -174 80l-58 -332l4 -1c88 -28 195 -69 195 -177c0 -130 -120 -215 -270 -222l-14 -80h-33l14 80c-85 3 -163 29 -200 83l20 23c42 -53 106 -77 185 -78l61 348l-35 12c-78 24 -151 63 -151 152
c0 126 111 212 254 220l14 80h33zM287 407l20 -7l57 321c-123 -8 -213 -85 -213 -186c0 -76 64 -106 136 -128zM503 207c0 76 -71 116 -170 149l-60 -337c129 9 230 83 230 188z" />
    <glyph glyph-name="Euro" unicode="&#x20ac;" horiz-adv-x="788" 
d="M525 750c121 0 198 -51 251 -122l-24 -19c-48 64 -117 113 -225 113c-194 0 -340 -135 -387 -312h324l-5 -26h-325c-4 -22 -7 -44 -8 -67h322l-5 -26h-318v-2c0 -165 102 -271 271 -271c115 0 221 58 291 137l21 -25c-78 -84 -189 -140 -315 -140
c-188 0 -302 116 -302 296v5h-63l5 26h59c1 23 4 45 8 67h-55l5 26h56c47 196 208 340 419 340z" />
    <glyph glyph-name="florin" unicode="&#x192;" horiz-adv-x="458" 
d="M443 750c24 0 49 -4 67 -12l-7 -27c-20 8 -43 11 -68 11c-65 0 -134 -45 -163 -128l-83 -236h219l-5 -28h-224l-151 -430h-33l150 430h-88l5 28h93l85 244c34 96 108 148 203 148z" />
    <glyph glyph-name="uni20BD" unicode="&#x20bd;" horiz-adv-x="609" 
d="M348 336h-201l-11 -67h282l-5 -26h-282l-43 -243h-33l43 243h-51l5 26h51l11 67h-50l5 26h50l67 378h228c123 0 198 -65 198 -165c0 -142 -117 -239 -264 -239zM214 712l-62 -348h189c132 0 237 88 237 208c0 85 -66 140 -174 140h-190z" />
    <glyph glyph-name="uni20B9" unicode="&#x20b9;" horiz-adv-x="649" 
d="M676 740l-5 -26h-225c63 -29 99 -85 99 -160c0 -10 -1 -20 -2 -30h90l-5 -26h-88c-20 -98 -90 -176 -186 -205l145 -293h-40l-140 285c-16 -3 -33 -4 -50 -4h-199l5 29h189c122 0 216 81 241 188h-397l5 26h396c1 10 2 20 2 30c0 97 -68 158 -179 158h-187l5 23l1 5h525z
" />
    <glyph glyph-name="sterling" unicode="&#xa3;" horiz-adv-x="559" 
d="M380 750c100 0 160 -58 160 -147c0 -12 -1 -24 -3 -37l-33 -1c2 12 3 24 3 34c0 75 -48 123 -129 123c-93 0 -168 -66 -185 -161l-36 -204h314l-5 -28h-314l-53 -301h348l-4 -28h-443l6 28h60l53 301h-50l4 28h51l38 212c19 110 105 181 218 181z" />
    <glyph glyph-name="yen" unicode="&#xa5;" horiz-adv-x="658" 
d="M699 740l-347 -412h175l-5 -25h-181l-12 -68h182l-5 -25h-181l-38 -210h-33l37 210h-181l5 25h180l12 68h-181l5 25h174l-200 412h38l188 -389l327 389h41z" />
    <glyph glyph-name="plus" unicode="+" horiz-adv-x="508" 
d="M462 358l-4 -26h-186l-32 -183h-30l32 183h-187l5 26h187l32 182h30l-32 -182h185z" />
    <glyph glyph-name="minus" unicode="&#x2212;" horiz-adv-x="563" 
d="M82 332l5 26h402l-4 -26h-403z" />
    <glyph glyph-name="multiply" unicode="&#xd7;" horiz-adv-x="486" 
d="M446 496l-179 -152l125 -152l-22 -19l-125 152l-179 -152l-16 19l179 152l-125 152l22 19l125 -152l179 152z" />
    <glyph glyph-name="divide" unicode="&#xf7;" horiz-adv-x="561" 
d="M305 454c-13 0 -23 10 -23 24c0 19 17 30 30 30c14 0 24 -11 24 -25c0 -19 -17 -29 -31 -29zM81 332l4 26h403l-4 -26h-403zM258 182c-14 0 -24 10 -24 24c0 19 17 30 30 30c14 0 24 -11 24 -25c0 -19 -17 -29 -30 -29z" />
    <glyph glyph-name="equal" unicode="=" horiz-adv-x="566" 
d="M104 451l4 26h403l-4 -26h-403zM62 212l5 26h402l-4 -26h-403z" />
    <glyph glyph-name="notequal" unicode="&#x2260;" horiz-adv-x="566" 
d="M508 451h-156l-97 -213h215l-4 -26h-222l-50 -110h-31l50 110h-150l5 26h156l97 213h-216l4 26h223l50 110h31l-50 -110h149z" />
    <glyph glyph-name="greater" unicode="&#x3e;" horiz-adv-x="491" 
d="M40 136l6 30l375 184l-311 184l6 30l347 -206l-4 -16z" />
    <glyph glyph-name="less" unicode="&#x3c;" horiz-adv-x="493" 
d="M388 136l-347 206l3 16l420 206l-6 -30l-372 -185l308 -183z" />
    <glyph glyph-name="greaterequal" unicode="&#x2265;" horiz-adv-x="549" 
d="M64 199l6 30l367 156l-313 154l6 30l352 -176l-3 -17zM48 103l5 27h383l-4 -27h-384z" />
    <glyph glyph-name="lessequal" unicode="&#x2264;" horiz-adv-x="554" 
d="M449 199l-352 177l3 17l415 176l-6 -30l-365 -156l311 -154zM50 103l4 27h383l-4 -27h-383z" />
    <glyph glyph-name="plusminus" unicode="&#xb1;" horiz-adv-x="562" 
d="M313 416h178l-5 -27h-177l-32 -181h-29l32 181h-177l4 27h177l32 181h29zM53 103l4 27h384l-5 -27h-383z" />
    <glyph glyph-name="approxequal" unicode="&#x2248;" horiz-adv-x="558" 
d="M380 342c-81 0 -101 82 -172 82c-46 0 -87 -27 -95 -72h-25c10 59 64 100 122 100c82 0 102 -82 173 -82c45 0 87 27 95 72h25c-10 -60 -64 -100 -123 -100zM344 142c-81 0 -101 81 -172 81c-46 0 -87 -26 -95 -71h-25c10 59 64 100 122 100c82 0 102 -82 173 -82
c45 0 87 27 95 72h25c-10 -60 -64 -100 -123 -100z" />
    <glyph glyph-name="asciitilde" unicode="~" horiz-adv-x="559" 
d="M362 242c-81 0 -101 82 -172 82c-46 0 -87 -27 -95 -72h-25c11 59 64 100 122 100c82 0 102 -82 173 -82c45 0 87 27 95 72h25c-10 -60 -64 -100 -123 -100z" />
    <glyph glyph-name="logicalnot" unicode="&#xac;" horiz-adv-x="562" 
d="M500 408l-30 -169h-30l25 143h-372l5 26h402z" />
    <glyph glyph-name="emptyset" unicode="&#x2205;" horiz-adv-x="657" 
d="M631 597l-74 -67c25 -35 38 -80 38 -132c0 -180 -130 -328 -308 -328c-72 0 -128 24 -165 65l-72 -65l-16 15l74 67c-24 35 -37 80 -37 132c0 181 130 328 309 328c70 0 126 -23 163 -64l71 64zM103 284c0 -43 10 -80 29 -110l389 353c-32 37 -82 58 -144 58
c-163 0 -274 -140 -274 -301zM563 399c0 43 -10 81 -29 110l-389 -353c32 -38 82 -59 145 -59c162 0 273 141 273 302z" />
    <glyph glyph-name="infinity" unicode="&#x221e;" horiz-adv-x="704" 
d="M512 441c78 0 125 -50 125 -127c0 -108 -74 -197 -179 -197c-67 0 -112 37 -122 97c-30 -58 -86 -97 -155 -97c-78 0 -126 49 -126 126c0 107 73 198 181 198c67 0 110 -38 121 -98c29 58 84 98 155 98zM185 141c89 0 149 85 149 172c0 64 -36 104 -98 104
c-88 0 -151 -81 -151 -172c0 -64 37 -104 100 -104zM458 141c90 0 150 85 150 172c0 64 -37 104 -99 104c-88 0 -151 -81 -151 -172c0 -64 37 -104 100 -104z" />
    <glyph glyph-name="integral" unicode="&#x222b;" horiz-adv-x="451" 
d="M16 -230c-42 0 -83 15 -102 40l12 21c22 -22 55 -33 89 -33c64 0 111 43 122 104l135 766c13 74 69 122 152 122c42 0 83 -15 102 -40l-12 -21c-21 22 -55 33 -89 33c-64 0 -111 -43 -122 -104l-134 -766c-14 -74 -70 -122 -153 -122z" />
    <glyph glyph-name="product" unicode="&#x220f;" horiz-adv-x="721" 
d="M694 780l-176 -1000h-34l172 972h-435l-172 -972h-33l177 1000h501z" />
    <glyph glyph-name="summation" unicode="&#x2211;" horiz-adv-x="597" 
d="M-60 -220l4 21l424 482l-247 476l4 21h505l-6 -28h-462l246 -469l-419 -475h479l-5 -28h-523z" />
    <glyph glyph-name="radical" unicode="&#x221a;" horiz-adv-x="747" 
d="M153 -220l-149 522h34l136 -486l613 964h36l-638 -1000h-32z" />
    <glyph glyph-name="partialdiff" unicode="&#x2202;" horiz-adv-x="613" 
d="M373 750c127 0 203 -104 203 -268c0 -252 -149 -492 -388 -492c-112 0 -182 57 -182 146c0 189 281 264 530 267c3 27 5 54 5 81c0 146 -63 238 -174 238c-90 0 -165 -51 -224 -116l-19 24c69 71 146 120 249 120zM191 18c183 0 306 167 340 357
c-229 -3 -491 -73 -491 -240c0 -71 57 -117 151 -117z" />
    <glyph glyph-name="percent" unicode="%" horiz-adv-x="707" 
d="M90 -10l-19 15l569 745l20 -15zM212 426c-79 0 -128 50 -128 128c0 108 75 196 181 196c80 0 128 -50 128 -128c0 -107 -75 -196 -181 -196zM214 450c87 0 149 81 149 173c0 64 -37 103 -99 103c-91 0 -150 -84 -150 -172c0 -64 37 -104 100 -104zM462 -10
c-79 0 -128 50 -128 128c0 108 75 196 182 196c79 0 127 -50 127 -128c0 -108 -75 -196 -181 -196zM464 14c87 0 149 81 149 172c0 64 -37 104 -99 104c-91 0 -150 -84 -150 -173c0 -63 37 -103 100 -103z" />
    <glyph glyph-name="perthousand" unicode="&#x2030;" horiz-adv-x="1055" 
d="M90 -10l-19 15l569 745l20 -15zM212 426c-79 0 -128 50 -128 128c0 108 75 196 181 196c80 0 128 -50 128 -128c0 -107 -75 -196 -181 -196zM214 450c87 0 149 81 149 173c0 64 -37 103 -99 103c-91 0 -150 -84 -150 -172c0 -64 37 -104 100 -104zM462 -10
c-79 0 -128 50 -128 128c0 108 75 196 182 196c79 0 127 -50 127 -128c0 -108 -75 -196 -181 -196zM814 -10c-79 0 -129 50 -129 128c0 108 76 196 182 196c79 0 128 -50 128 -128c0 -108 -76 -196 -181 -196zM464 14c87 0 149 81 149 172c0 64 -37 104 -99 104
c-91 0 -150 -84 -150 -173c0 -63 37 -103 100 -103zM816 14c87 0 148 81 148 172c0 64 -37 104 -99 104c-90 0 -149 -84 -149 -173c0 -63 37 -103 100 -103z" />
    <glyph glyph-name="lozenge" unicode="&#x25ca;" horiz-adv-x="520" 
d="M193 0l-149 311l258 311h24l149 -311l-258 -311h-24zM208 31l234 280l-133 280l-230 -280z" />
    <glyph glyph-name="at" unicode="@" horiz-adv-x="1035" 
d="M602 753c233 0 380 -137 380 -350c0 -169 -86 -359 -226 -359c-64 0 -100 42 -100 105c0 5 0 10 1 15c-39 -72 -108 -122 -203 -122c-108 0 -172 66 -172 169c0 145 100 265 245 265c92 0 145 -48 160 -121l3 16l17 97h30l-50 -285c-2 -12 -3 -23 -3 -32
c0 -50 26 -80 73 -80c121 0 193 185 193 331c0 198 -135 324 -350 324c-316 0 -527 -228 -527 -569c0 -217 144 -361 361 -361c74 0 190 14 276 40l10 -24c-86 -26 -202 -42 -285 -42c-238 0 -394 154 -394 386c0 358 224 597 561 597zM460 68c106 0 190 78 210 191l1 7
c2 13 3 26 3 37c0 90 -53 147 -145 147c-127 0 -215 -113 -215 -237c0 -89 55 -145 146 -145z" />
    <glyph glyph-name="ampersand" unicode="&#x26;" horiz-adv-x="775" 
d="M521 384l-45 -253c-2 -11 -3 -21 -3 -31c0 -52 33 -83 89 -83c40 0 78 6 117 20l-2 -27c-34 -14 -75 -20 -126 -20c-67 0 -107 40 -108 102c-47 -71 -134 -102 -220 -102c-117 0 -189 66 -189 166c0 127 90 218 214 242c-69 20 -109 71 -109 141c0 127 107 211 240 211
c110 0 178 -58 178 -147c0 -11 -1 -22 -3 -34l-27 -159h211l-4 -26h-213zM170 535c0 -76 56 -125 150 -125h177l27 158c2 11 3 20 3 30c0 77 -57 126 -150 126c-118 0 -207 -83 -207 -189zM452 167l39 217h-174c-141 0 -250 -93 -250 -222c0 -89 62 -145 166 -145
c97 0 202 52 219 150z" />
    <glyph glyph-name="paragraph" unicode="&#xb6;" horiz-adv-x="529" 
d="M488 740l-170 -960h-30l165 933h-122l-165 -933h-29l115 647h-68c-68 0 -106 45 -106 117c0 107 74 196 179 196h231z" />
    <glyph glyph-name="section" unicode="&#xa7;" horiz-adv-x="565" 
d="M365 790c94 0 150 -34 185 -86l-21 -22c-37 53 -90 80 -167 80c-121 0 -214 -81 -214 -189c0 -74 57 -103 122 -126l48 -18c79 -28 175 -69 175 -174c0 -67 -32 -126 -81 -166c22 -24 36 -55 36 -96c0 -134 -122 -223 -268 -223c-82 0 -159 26 -193 83l19 23
c38 -55 99 -78 173 -78c128 0 233 78 233 190c0 80 -68 119 -164 153l-47 17c-71 25 -135 63 -135 149c0 66 30 128 82 168c-22 23 -36 52 -36 92c0 134 113 223 253 223zM294 402l-47 16c-27 10 -54 22 -76 37c-43 -34 -70 -87 -70 -143c0 -73 58 -102 123 -126l48 -18
c39 -14 83 -31 117 -58c44 36 70 88 70 139c0 79 -69 119 -165 153z" />
    <glyph glyph-name="copyright" unicode="&#xa9;" horiz-adv-x="847" 
d="M368 -10c-191 0 -305 116 -305 296c0 256 180 464 436 464c191 0 306 -116 306 -298c0 -254 -183 -462 -437 -462zM370 14c239 0 406 203 406 439c0 167 -104 273 -278 273c-240 0 -407 -202 -407 -439c0 -167 104 -273 279 -273zM402 158c-105 0 -169 64 -169 165
c0 141 101 253 241 253c67 0 111 -29 141 -68l-22 -16c-24 34 -62 59 -120 59c-124 0 -210 -106 -210 -227c0 -87 53 -142 142 -142c62 0 118 31 156 74l17 -21c-45 -47 -105 -77 -176 -77z" />
    <glyph glyph-name="registered" unicode="&#xae;" horiz-adv-x="417" 
d="M289 790c78 0 126 -47 126 -121c0 -103 -74 -183 -176 -183c-78 0 -125 47 -125 121c0 102 74 183 175 183zM242 499c94 0 157 83 157 171c0 64 -43 106 -113 106c-93 0 -156 -82 -156 -170c0 -66 42 -107 112 -107zM331 677c0 -26 -18 -46 -43 -53l34 -68h-22l-30 65h-4
h-41l-12 -65h-19l29 163h63c28 0 45 -17 45 -42zM266 637c24 0 45 16 45 39c0 17 -10 27 -31 27h-41l-12 -66h39z" />
    <glyph glyph-name="trademark" unicode="&#x2122;" horiz-adv-x="707" 
d="M334 758h-97l-47 -264h-26l47 264h-96l4 22h219zM666 780h24l-34 -286h-25l28 240l-156 -240h-22l-71 241l-56 -241h-26l69 286h24l75 -260z" />
    <glyph glyph-name="degree" unicode="&#xb0;" horiz-adv-x="347" 
d="M218 562c-65 0 -104 36 -104 93c0 79 61 135 140 135c64 0 103 -37 103 -93c0 -79 -60 -135 -139 -135zM220 584c65 0 110 52 110 111c0 45 -29 73 -78 73c-65 0 -110 -53 -110 -111c0 -45 29 -73 78 -73z" />
    <glyph glyph-name="bar" unicode="|" horiz-adv-x="242" 
d="M10 -220l177 1000h33l-177 -1000h-33z" />
    <glyph glyph-name="brokenbar" unicode="&#xa6;" horiz-adv-x="239" 
d="M115 380l71 400h33l-71 -400h-33zM9 -220l71 400h33l-71 -400h-33z" />
    <glyph glyph-name="dagger" unicode="&#x2020;" horiz-adv-x="501" 
d="M499 522l-6 -29h-195l-126 -713h-33l126 713h-195l5 29h195l46 258h33l-46 -258h196z" />
    <glyph glyph-name="daggerdbl" unicode="&#x2021;" horiz-adv-x="501" 
d="M493 493h-195l-30 -173h195l-5 -28h-195l-91 -512h-33l91 512h-196l6 28h195l30 173h-195l5 29h195l46 258h33l-46 -258h196z" />
    <glyph glyph-name="asciicircum" unicode="^" horiz-adv-x="435" 
d="M385 332h-33l-83 257l-171 -257h-36l196 290h33z" />
    <glyph glyph-name="uni0308" unicode="&#x308;" horiz-adv-x="0" 
d="M-203 685c-14 0 -24 11 -24 25c0 19 17 30 31 30s24 -11 24 -25c0 -19 -17 -30 -31 -30zM-27 685c-14 0 -24 11 -24 25c0 19 17 30 30 30c14 0 24 -11 24 -25c0 -19 -17 -30 -30 -30z" />
    <glyph glyph-name="uni0307" unicode="&#x307;" horiz-adv-x="0" 
d="M-27 685c-14 0 -25 11 -25 26c0 17 15 29 30 29c14 0 25 -11 25 -26c0 -17 -14 -29 -30 -29z" />
    <glyph glyph-name="gravecomb" unicode="&#x300;" horiz-adv-x="0" 
d="M-108 620l-114 142h42l101 -142h-29z" />
    <glyph glyph-name="acutecomb" unicode="&#x301;" horiz-adv-x="0" 
d="M-115 620l151 142h45l-164 -142h-32z" />
    <glyph glyph-name="uni030B" unicode="&#x30b;" horiz-adv-x="0" 
d="M-247 620l132 142h42l-144 -142h-30zM-129 620l131 142h43l-144 -142h-30z" />
    <glyph glyph-name="uni0302" unicode="&#x302;" horiz-adv-x="0" 
d="M-2 620h-32l-92 123l-137 -123h-32l153 142h37z" />
    <glyph glyph-name="uni030C" unicode="&#x30c;" horiz-adv-x="0" 
d="M-10 762h33l-153 -142h-37l-103 142h33l91 -123z" />
    <glyph glyph-name="uni0306" unicode="&#x306;" horiz-adv-x="0" 
d="M-131 610c-77 0 -124 47 -124 119c0 11 1 22 3 33h28c-2 -11 -3 -22 -3 -31c0 -60 36 -98 97 -98c72 0 128 53 141 129h29c-16 -93 -83 -152 -171 -152z" />
    <glyph glyph-name="uni030A" unicode="&#x30a;" horiz-adv-x="0" 
d="M-113 584c-54 0 -88 33 -88 83c0 71 51 124 121 124c55 0 89 -33 89 -84c0 -69 -52 -123 -122 -123zM-112 605c58 0 96 52 96 102c0 39 -24 63 -65 63c-58 0 -95 -50 -95 -103c0 -38 24 -62 64 -62z" />
    <glyph glyph-name="tildecomb" unicode="&#x303;" horiz-adv-x="0" 
d="M-86 633c-70 0 -87 81 -147 81c-35 0 -69 -27 -76 -71h-25c9 59 55 100 104 100c70 0 87 -82 147 -82c35 0 69 27 77 72h25c-11 -60 -56 -100 -105 -100z" />
    <glyph glyph-name="uni0304" unicode="&#x304;" horiz-adv-x="0" 
d="M-287 661l4 26h281l-4 -26h-281z" />
    <glyph glyph-name="uni0312" unicode="&#x312;" horiz-adv-x="0" 
d="M-46 593l104 187h26l-99 -187h-31z" />
    <glyph glyph-name="uni0326" unicode="&#x326;" horiz-adv-x="0" 
d="M-188 -220l89 168h31l-95 -168h-25z" />
    <glyph glyph-name="uni0327" unicode="&#x327;" horiz-adv-x="0" 
d="M-190 -72c57 0 92 -27 92 -67c0 -58 -59 -91 -126 -91c-34 0 -68 11 -89 31l14 18c20 -19 46 -26 74 -26c53 0 98 27 98 67c0 29 -28 47 -72 47c-19 0 -38 -3 -55 -9l-6 13l73 89h28l-63 -74c10 1 21 2 32 2z" />
    <glyph glyph-name="uni0328" unicode="&#x328;" horiz-adv-x="0" 
d="M-176 -230c-41 0 -66 24 -66 59c0 60 59 127 163 187l13 -16c-100 -60 -147 -117 -147 -165c0 -25 17 -42 43 -42c25 0 50 11 70 27l1 -22c-24 -19 -51 -28 -77 -28z" />
    <glyph glyph-name="uni0335" unicode="&#x335;" horiz-adv-x="0" 
d="M-500 273l4 25h348l-5 -25h-347z" />
    <glyph glyph-name="uni0336" unicode="&#x336;" horiz-adv-x="0" 
d="M-845 273l4 25h751l-4 -25h-751z" />
    <glyph glyph-name="uni0337" unicode="&#x337;" horiz-adv-x="0" 
d="M-245 449l130 81l-6 -29l-130 -81l1 4l-131 -83l5 30l131 82l-4 -24z" />
    <glyph glyph-name="uni0338" unicode="&#x338;" horiz-adv-x="0" 
d="M-498 -10l-20 15l568 745l20 -15z" />
    <glyph glyph-name="acute" unicode="&#xb4;" horiz-adv-x="600" 
d="M200 620l151 142h45l-164 -142h-32z" />
    <glyph glyph-name="breve" unicode="&#x2d8;" horiz-adv-x="600" 
d="M258 610c-77 0 -124 47 -124 119c0 11 1 22 3 33h28c-2 -11 -3 -22 -3 -31c0 -60 36 -98 97 -98c72 0 128 53 141 129h29c-16 -93 -83 -152 -171 -152z" />
    <glyph glyph-name="caron" unicode="&#x2c7;" horiz-adv-x="600" 
d="M397 762h33l-153 -142h-37l-103 142h33l91 -123z" />
    <glyph glyph-name="cedilla" unicode="&#xb8;" horiz-adv-x="600" 
d="M64 -72c57 0 92 -27 92 -67c0 -58 -59 -91 -126 -91c-34 0 -68 11 -89 31l14 18c20 -19 46 -26 74 -26c53 0 98 27 98 67c0 29 -28 47 -72 47c-19 0 -38 -3 -55 -9l-6 13l73 89h28l-63 -74c10 1 21 2 32 2z" />
    <glyph glyph-name="circumflex" unicode="&#x2c6;" horiz-adv-x="600" 
d="M405 620h-32l-92 123l-137 -123h-32l153 142h37z" />
    <glyph glyph-name="dieresis" unicode="&#xa8;" horiz-adv-x="600" 
d="M180 685c-14 0 -24 11 -24 25c0 19 17 30 31 30s24 -11 24 -25c0 -19 -17 -30 -31 -30zM356 685c-14 0 -24 11 -24 25c0 19 17 30 30 30c14 0 24 -11 24 -25c0 -19 -17 -30 -30 -30z" />
    <glyph glyph-name="dotaccent" unicode="&#x2d9;" horiz-adv-x="600" 
d="M181 685c-14 0 -25 11 -25 26c0 17 15 29 30 29c14 0 25 -11 25 -26c0 -17 -14 -29 -30 -29z" />
    <glyph glyph-name="grave" unicode="`" horiz-adv-x="600" 
d="M207 620l-114 142h42l101 -142h-29z" />
    <glyph glyph-name="hungarumlaut" unicode="&#x2dd;" horiz-adv-x="600" 
d="M213 620l132 142h42l-144 -142h-30zM331 620l131 142h43l-144 -142h-30z" />
    <glyph glyph-name="macron" unicode="&#xaf;" horiz-adv-x="600" 
d="M147 661l4 26h281l-4 -26h-281z" />
    <glyph glyph-name="ogonek" unicode="&#x2db;" horiz-adv-x="600" 
d="M78 -230c-41 0 -66 24 -66 59c0 60 59 127 163 187l13 -16c-100 -60 -147 -117 -147 -165c0 -25 17 -42 43 -42c25 0 50 11 70 27l1 -22c-24 -19 -51 -28 -77 -28z" />
    <glyph glyph-name="ring" unicode="&#x2da;" horiz-adv-x="600" 
d="M230 584c-54 0 -88 33 -88 83c0 71 51 124 121 124c55 0 89 -33 89 -84c0 -69 -52 -123 -122 -123zM231 605c58 0 96 52 96 102c0 39 -24 63 -65 63c-58 0 -95 -50 -95 -103c0 -38 24 -62 64 -62z" />
    <glyph glyph-name="tilde" unicode="&#x2dc;" horiz-adv-x="600" 
d="M380 633c-70 0 -87 81 -147 81c-35 0 -69 -27 -76 -71h-25c9 59 55 100 104 100c70 0 87 -82 147 -82c35 0 69 27 77 72h25c-11 -60 -56 -100 -105 -100z" />
    <glyph glyph-name="logo" horiz-adv-x="1274" 
d="M76 -10c-10 0 -17 8 -17 18c0 5 1 11 5 15l342 341h-324c-10 0 -23 2 -23 19c0 7 3 11 7 16l340 342h-327c-12 0 -20 7 -20 19v1c0 12 8 19 20 19h370c10 0 23 -1 23 -20c0 -6 -2 -12 -8 -17l-341 -340h330c11 0 20 -9 20 -20v-327l339 338c5 6 11 8 17 8
c17 0 18 -13 18 -22v-324l340 338c4 5 10 8 16 8c10 0 17 -9 17 -19c0 -4 -1 -10 -6 -14l-368 -372c-6 -6 -11 -7 -17 -7c-19 0 -20 13 -20 23v324l-339 -340c-6 -6 -11 -7 -17 -7c-19 0 -20 13 -20 23v324l-340 -340c-6 -6 -11 -7 -17 -7z" />
    </font>
</defs>
</svg>
